%TF.GenerationSoftware,KiCad,Pcbnew,(6.0.11-0)*%
%TF.CreationDate,2023-10-17T10:34:44+02:00*%
%TF.ProjectId,ZESP32,5a455350-3332-42e6-9b69-6361645f7063,rev?*%
%TF.SameCoordinates,Original*%
%TF.FileFunction,Drillmap*%
%TF.FilePolarity,Positive*%
%FSLAX45Y45*%
G04 Gerber Fmt 4.5, Leading zero omitted, Abs format (unit mm)*
G04 Created by KiCad (PCBNEW (6.0.11-0)) date 2023-10-17 10:34:44*
%MOMM*%
%LPD*%
G01*
G04 APERTURE LIST*
%ADD10C,0.100000*%
%ADD11C,0.200000*%
%ADD12C,0.020000*%
%ADD13C,0.040000*%
%ADD14C,0.060000*%
%ADD15C,0.152000*%
G04 APERTURE END LIST*
D10*
X8178800Y-4419600D02*
X8178800Y-8382000D01*
X11468100Y-4419600D02*
X11468100Y-8356600D01*
X8382000Y-4216400D02*
X11264900Y-4216400D01*
X11252200Y-8572500D02*
X10934700Y-8572500D01*
X11252200Y-8572500D02*
G75*
G03*
X11468100Y-8356600I0J215900D01*
G01*
X8178800Y-8382000D02*
G75*
G03*
X8394700Y-8597900I215900J0D01*
G01*
X11468100Y-4419600D02*
G75*
G03*
X11264900Y-4216400I-203200J0D01*
G01*
X10934700Y-14884400D02*
X8686800Y-14884400D01*
X10934700Y-8572500D02*
X10934700Y-14884400D01*
X8382000Y-4216400D02*
G75*
G03*
X8178800Y-4419600I0J-203200D01*
G01*
X8686800Y-14884400D02*
X8686800Y-8597900D01*
X8394700Y-8597900D02*
X8686800Y-8597900D01*
D11*
D12*
X9671800Y-13276250D02*
X9691800Y-13296250D01*
X9691800Y-13276250D02*
X9671800Y-13296250D01*
X9671800Y-13428750D02*
X9691800Y-13448750D01*
X9691800Y-13428750D02*
X9671800Y-13448750D01*
X9748050Y-13200000D02*
X9768050Y-13220000D01*
X9768050Y-13200000D02*
X9748050Y-13220000D01*
X9748050Y-13352500D02*
X9768050Y-13372500D01*
X9768050Y-13352500D02*
X9748050Y-13372500D01*
X9748050Y-13505000D02*
X9768050Y-13525000D01*
X9768050Y-13505000D02*
X9748050Y-13525000D01*
X9824300Y-13276250D02*
X9844300Y-13296250D01*
X9844300Y-13276250D02*
X9824300Y-13296250D01*
X9824300Y-13428750D02*
X9844300Y-13448750D01*
X9844300Y-13428750D02*
X9824300Y-13448750D01*
X9900550Y-13200000D02*
X9920550Y-13220000D01*
X9920550Y-13200000D02*
X9900550Y-13220000D01*
X9900550Y-13352500D02*
X9920550Y-13372500D01*
X9920550Y-13352500D02*
X9900550Y-13372500D01*
X9900550Y-13505000D02*
X9920550Y-13525000D01*
X9920550Y-13505000D02*
X9900550Y-13525000D01*
X9976800Y-13276250D02*
X9996800Y-13296250D01*
X9996800Y-13276250D02*
X9976800Y-13296250D01*
X9976800Y-13428750D02*
X9996800Y-13448750D01*
X9996800Y-13428750D02*
X9976800Y-13448750D01*
D13*
X8414200Y-5809480D02*
G75*
G03*
X8414200Y-5809480I-20000J0D01*
G01*
X8744900Y-6794500D02*
G75*
G03*
X8744900Y-6794500I-20000J0D01*
G01*
X8922700Y-11988800D02*
G75*
G03*
X8922700Y-11988800I-20000J0D01*
G01*
X8983160Y-6886440D02*
G75*
G03*
X8983160Y-6886440I-20000J0D01*
G01*
X9097960Y-12654280D02*
G75*
G03*
X9097960Y-12654280I-20000J0D01*
G01*
X9176700Y-12077700D02*
G75*
G03*
X9176700Y-12077700I-20000J0D01*
G01*
X9221920Y-5809480D02*
G75*
G03*
X9221920Y-5809480I-20000J0D01*
G01*
X9235120Y-12827000D02*
G75*
G03*
X9235120Y-12827000I-20000J0D01*
G01*
X9253160Y-7645140D02*
G75*
G03*
X9253160Y-7645140I-20000J0D01*
G01*
X9285920Y-12948920D02*
G75*
G03*
X9285920Y-12948920I-20000J0D01*
G01*
X9296080Y-13081000D02*
G75*
G03*
X9296080Y-13081000I-20000J0D01*
G01*
X9392600Y-13208000D02*
G75*
G03*
X9392600Y-13208000I-20000J0D01*
G01*
X9438320Y-13456920D02*
G75*
G03*
X9438320Y-13456920I-20000J0D01*
G01*
X9543470Y-13843000D02*
G75*
G03*
X9543470Y-13843000I-20000J0D01*
G01*
X9555160Y-6487160D02*
G75*
G03*
X9555160Y-6487160I-20000J0D01*
G01*
X9570400Y-13964920D02*
G75*
G03*
X9570400Y-13964920I-20000J0D01*
G01*
X9585100Y-9332500D02*
G75*
G03*
X9585100Y-9332500I-20000J0D01*
G01*
X9697400Y-12915900D02*
G75*
G03*
X9697400Y-12915900I-20000J0D01*
G01*
X9743010Y-5859890D02*
G75*
G03*
X9743010Y-5859890I-20000J0D01*
G01*
X9773600Y-12776200D02*
G75*
G03*
X9773600Y-12776200I-20000J0D01*
G01*
X9799000Y-12014200D02*
G75*
G03*
X9799000Y-12014200I-20000J0D01*
G01*
X9854300Y-12990140D02*
G75*
G03*
X9854300Y-12990140I-20000J0D01*
G01*
X9855380Y-14096500D02*
G75*
G03*
X9855380Y-14096500I-20000J0D01*
G01*
X9858430Y-11607800D02*
G75*
G03*
X9858430Y-11607800I-20000J0D01*
G01*
X10040300Y-8432800D02*
G75*
G03*
X10040300Y-8432800I-20000J0D01*
G01*
X10065700Y-6896100D02*
G75*
G03*
X10065700Y-6896100I-20000J0D01*
G01*
X10144940Y-13461500D02*
G75*
G03*
X10144940Y-13461500I-20000J0D01*
G01*
X10165200Y-5988880D02*
G75*
G03*
X10165200Y-5988880I-20000J0D01*
G01*
X10251120Y-13335000D02*
G75*
G03*
X10251120Y-13335000I-20000J0D01*
G01*
X10256200Y-5600700D02*
G75*
G03*
X10256200Y-5600700I-20000J0D01*
G01*
X10266360Y-13208000D02*
G75*
G03*
X10266360Y-13208000I-20000J0D01*
G01*
X10294300Y-6896100D02*
G75*
G03*
X10294300Y-6896100I-20000J0D01*
G01*
X10296840Y-13081000D02*
G75*
G03*
X10296840Y-13081000I-20000J0D01*
G01*
X10322240Y-12700000D02*
G75*
G03*
X10322240Y-12700000I-20000J0D01*
G01*
X10327320Y-12827000D02*
G75*
G03*
X10327320Y-12827000I-20000J0D01*
G01*
X10332400Y-7251700D02*
G75*
G03*
X10332400Y-7251700I-20000J0D01*
G01*
X10332400Y-12954000D02*
G75*
G03*
X10332400Y-12954000I-20000J0D01*
G01*
X10408600Y-7708900D02*
G75*
G03*
X10408600Y-7708900I-20000J0D01*
G01*
X10408600Y-8420100D02*
G75*
G03*
X10408600Y-8420100I-20000J0D01*
G01*
X10456360Y-5872040D02*
G75*
G03*
X10456360Y-5872040I-20000J0D01*
G01*
X10472100Y-12534900D02*
G75*
G03*
X10472100Y-12534900I-20000J0D01*
G01*
X10497500Y-13970000D02*
G75*
G03*
X10497500Y-13970000I-20000J0D01*
G01*
X10544750Y-13843000D02*
G75*
G03*
X10544750Y-13843000I-20000J0D01*
G01*
X10586400Y-6007100D02*
G75*
G03*
X10586400Y-6007100I-20000J0D01*
G01*
X10720000Y-7425000D02*
G75*
G03*
X10720000Y-7425000I-20000J0D01*
G01*
X10764710Y-5501200D02*
G75*
G03*
X10764710Y-5501200I-20000J0D01*
G01*
X10928800Y-6154920D02*
G75*
G03*
X10928800Y-6154920I-20000J0D01*
G01*
X10928800Y-6292080D02*
G75*
G03*
X10928800Y-6292080I-20000J0D01*
G01*
X10928800Y-6490200D02*
G75*
G03*
X10928800Y-6490200I-20000J0D01*
G01*
X10944040Y-7384280D02*
G75*
G03*
X10944040Y-7384280I-20000J0D01*
G01*
X10995000Y-5525000D02*
G75*
G03*
X10995000Y-5525000I-20000J0D01*
G01*
X11015160Y-6922000D02*
G75*
G03*
X11015160Y-6922000I-20000J0D01*
G01*
X11259000Y-7389360D02*
G75*
G03*
X11259000Y-7389360I-20000J0D01*
G01*
X11272200Y-7835900D02*
G75*
G03*
X11272200Y-7835900I-20000J0D01*
G01*
X11338240Y-6426200D02*
G75*
G03*
X11338240Y-6426200I-20000J0D01*
G01*
X11383960Y-8194040D02*
G75*
G03*
X11383960Y-8194040I-20000J0D01*
G01*
D14*
X10050080Y-4665320D02*
X10050080Y-4725320D01*
X10020080Y-4695320D02*
X10080080Y-4695320D01*
D11*
X10080080Y-4760320D02*
X10080080Y-4630320D01*
X10020080Y-4760320D02*
X10020080Y-4630320D01*
X10080080Y-4630320D02*
G75*
G03*
X10020080Y-4630320I-30000J0D01*
G01*
X10020080Y-4760320D02*
G75*
G03*
X10080080Y-4760320I30000J0D01*
G01*
D14*
X10050080Y-5047820D02*
X10050080Y-5107820D01*
X10020080Y-5077820D02*
X10080080Y-5077820D01*
D11*
X10080080Y-5127820D02*
X10080080Y-5027820D01*
X10020080Y-5127820D02*
X10020080Y-5027820D01*
X10080080Y-5027820D02*
G75*
G03*
X10020080Y-5027820I-30000J0D01*
G01*
X10020080Y-5127820D02*
G75*
G03*
X10080080Y-5127820I30000J0D01*
G01*
D14*
X10914080Y-4665320D02*
X10914080Y-4725320D01*
X10884080Y-4695320D02*
X10944080Y-4695320D01*
D11*
X10944080Y-4760320D02*
X10944080Y-4630320D01*
X10884080Y-4760320D02*
X10884080Y-4630320D01*
X10944080Y-4630320D02*
G75*
G03*
X10884080Y-4630320I-30000J0D01*
G01*
X10884080Y-4760320D02*
G75*
G03*
X10944080Y-4760320I30000J0D01*
G01*
D14*
X10914080Y-5047820D02*
X10914080Y-5107820D01*
X10884080Y-5077820D02*
X10944080Y-5077820D01*
D11*
X10944080Y-5127820D02*
X10944080Y-5027820D01*
X10884080Y-5127820D02*
X10884080Y-5027820D01*
X10944080Y-5027820D02*
G75*
G03*
X10884080Y-5027820I-30000J0D01*
G01*
X10884080Y-5127820D02*
G75*
G03*
X10944080Y-5127820I30000J0D01*
G01*
D10*
X9179356Y-8925356D02*
X9179356Y-8854644D01*
X9108644Y-8854644D01*
X9108644Y-8925356D01*
X9179356Y-8925356D01*
X9179356Y-9179356D02*
X9179356Y-9108644D01*
X9108644Y-9108644D01*
X9108644Y-9179356D01*
X9179356Y-9179356D01*
X9179356Y-9433356D02*
X9179356Y-9362644D01*
X9108644Y-9362644D01*
X9108644Y-9433356D01*
X9179356Y-9433356D01*
X9179356Y-9687356D02*
X9179356Y-9616644D01*
X9108644Y-9616644D01*
X9108644Y-9687356D01*
X9179356Y-9687356D01*
X9179356Y-9941356D02*
X9179356Y-9870644D01*
X9108644Y-9870644D01*
X9108644Y-9941356D01*
X9179356Y-9941356D01*
X9179356Y-10195356D02*
X9179356Y-10124644D01*
X9108644Y-10124644D01*
X9108644Y-10195356D01*
X9179356Y-10195356D01*
X9179356Y-10449356D02*
X9179356Y-10378644D01*
X9108644Y-10378644D01*
X9108644Y-10449356D01*
X9179356Y-10449356D01*
X9179356Y-10703356D02*
X9179356Y-10632644D01*
X9108644Y-10632644D01*
X9108644Y-10703356D01*
X9179356Y-10703356D01*
X9179356Y-10957356D02*
X9179356Y-10886644D01*
X9108644Y-10886644D01*
X9108644Y-10957356D01*
X9179356Y-10957356D01*
X9179356Y-11211356D02*
X9179356Y-11140644D01*
X9108644Y-11140644D01*
X9108644Y-11211356D01*
X9179356Y-11211356D01*
X9179356Y-11465356D02*
X9179356Y-11394644D01*
X9108644Y-11394644D01*
X9108644Y-11465356D01*
X9179356Y-11465356D01*
X9179356Y-11719356D02*
X9179356Y-11648644D01*
X9108644Y-11648644D01*
X9108644Y-11719356D01*
X9179356Y-11719356D01*
X10449356Y-8925356D02*
X10449356Y-8854644D01*
X10378644Y-8854644D01*
X10378644Y-8925356D01*
X10449356Y-8925356D01*
X10449356Y-9179356D02*
X10449356Y-9108644D01*
X10378644Y-9108644D01*
X10378644Y-9179356D01*
X10449356Y-9179356D01*
X10449356Y-9433356D02*
X10449356Y-9362644D01*
X10378644Y-9362644D01*
X10378644Y-9433356D01*
X10449356Y-9433356D01*
X10449356Y-9687356D02*
X10449356Y-9616644D01*
X10378644Y-9616644D01*
X10378644Y-9687356D01*
X10449356Y-9687356D01*
X10449356Y-9941356D02*
X10449356Y-9870644D01*
X10378644Y-9870644D01*
X10378644Y-9941356D01*
X10449356Y-9941356D01*
X10449356Y-10195356D02*
X10449356Y-10124644D01*
X10378644Y-10124644D01*
X10378644Y-10195356D01*
X10449356Y-10195356D01*
X10449356Y-10449356D02*
X10449356Y-10378644D01*
X10378644Y-10378644D01*
X10378644Y-10449356D01*
X10449356Y-10449356D01*
X10449356Y-10703356D02*
X10449356Y-10632644D01*
X10378644Y-10632644D01*
X10378644Y-10703356D01*
X10449356Y-10703356D01*
X10449356Y-10957356D02*
X10449356Y-10886644D01*
X10378644Y-10886644D01*
X10378644Y-10957356D01*
X10449356Y-10957356D01*
X10449356Y-11211356D02*
X10449356Y-11140644D01*
X10378644Y-11140644D01*
X10378644Y-11211356D01*
X10449356Y-11211356D01*
X10449356Y-11465356D02*
X10449356Y-11394644D01*
X10378644Y-11394644D01*
X10378644Y-11465356D01*
X10449356Y-11465356D01*
X10449356Y-11719356D02*
X10449356Y-11648644D01*
X10378644Y-11648644D01*
X10378644Y-11719356D01*
X10449356Y-11719356D01*
D15*
X8648200Y-4899960D02*
X8724200Y-4823960D01*
X8648200Y-4747960D01*
X8572200Y-4823960D01*
X8648200Y-4899960D01*
X9156200Y-4899960D02*
X9232200Y-4823960D01*
X9156200Y-4747960D01*
X9080200Y-4823960D01*
X9156200Y-4899960D01*
D11*
X8431419Y-15199876D02*
X8431419Y-14999876D01*
X8479038Y-14999876D01*
X8507610Y-15009400D01*
X8526657Y-15028448D01*
X8536181Y-15047495D01*
X8545705Y-15085590D01*
X8545705Y-15114162D01*
X8536181Y-15152257D01*
X8526657Y-15171305D01*
X8507610Y-15190352D01*
X8479038Y-15199876D01*
X8431419Y-15199876D01*
X8631419Y-15199876D02*
X8631419Y-15066543D01*
X8631419Y-15104638D02*
X8640943Y-15085590D01*
X8650467Y-15076067D01*
X8669514Y-15066543D01*
X8688562Y-15066543D01*
X8755229Y-15199876D02*
X8755229Y-15066543D01*
X8755229Y-14999876D02*
X8745705Y-15009400D01*
X8755229Y-15018924D01*
X8764752Y-15009400D01*
X8755229Y-14999876D01*
X8755229Y-15018924D01*
X8879038Y-15199876D02*
X8859990Y-15190352D01*
X8850467Y-15171305D01*
X8850467Y-14999876D01*
X8983800Y-15199876D02*
X8964752Y-15190352D01*
X8955229Y-15171305D01*
X8955229Y-14999876D01*
X9212371Y-15199876D02*
X9212371Y-14999876D01*
X9279038Y-15142733D01*
X9345705Y-14999876D01*
X9345705Y-15199876D01*
X9526657Y-15199876D02*
X9526657Y-15095114D01*
X9517133Y-15076067D01*
X9498086Y-15066543D01*
X9459990Y-15066543D01*
X9440943Y-15076067D01*
X9526657Y-15190352D02*
X9507610Y-15199876D01*
X9459990Y-15199876D01*
X9440943Y-15190352D01*
X9431419Y-15171305D01*
X9431419Y-15152257D01*
X9440943Y-15133209D01*
X9459990Y-15123686D01*
X9507610Y-15123686D01*
X9526657Y-15114162D01*
X9621895Y-15066543D02*
X9621895Y-15266543D01*
X9621895Y-15076067D02*
X9640943Y-15066543D01*
X9679038Y-15066543D01*
X9698086Y-15076067D01*
X9707610Y-15085590D01*
X9717133Y-15104638D01*
X9717133Y-15161781D01*
X9707610Y-15180828D01*
X9698086Y-15190352D01*
X9679038Y-15199876D01*
X9640943Y-15199876D01*
X9621895Y-15190352D01*
X9802848Y-15180828D02*
X9812371Y-15190352D01*
X9802848Y-15199876D01*
X9793324Y-15190352D01*
X9802848Y-15180828D01*
X9802848Y-15199876D01*
X9802848Y-15076067D02*
X9812371Y-15085590D01*
X9802848Y-15095114D01*
X9793324Y-15085590D01*
X9802848Y-15076067D01*
X9802848Y-15095114D01*
D12*
X8153800Y-15519400D02*
X8173800Y-15539400D01*
X8173800Y-15519400D02*
X8153800Y-15539400D01*
D11*
X8469514Y-15419876D02*
X8488562Y-15419876D01*
X8507610Y-15429400D01*
X8517133Y-15438924D01*
X8526657Y-15457971D01*
X8536181Y-15496067D01*
X8536181Y-15543686D01*
X8526657Y-15581781D01*
X8517133Y-15600828D01*
X8507610Y-15610352D01*
X8488562Y-15619876D01*
X8469514Y-15619876D01*
X8450467Y-15610352D01*
X8440943Y-15600828D01*
X8431419Y-15581781D01*
X8421895Y-15543686D01*
X8421895Y-15496067D01*
X8431419Y-15457971D01*
X8440943Y-15438924D01*
X8450467Y-15429400D01*
X8469514Y-15419876D01*
X8621895Y-15600828D02*
X8631419Y-15610352D01*
X8621895Y-15619876D01*
X8612371Y-15610352D01*
X8621895Y-15600828D01*
X8621895Y-15619876D01*
X8707610Y-15438924D02*
X8717133Y-15429400D01*
X8736181Y-15419876D01*
X8783800Y-15419876D01*
X8802848Y-15429400D01*
X8812371Y-15438924D01*
X8821895Y-15457971D01*
X8821895Y-15477019D01*
X8812371Y-15505590D01*
X8698086Y-15619876D01*
X8821895Y-15619876D01*
X8945705Y-15419876D02*
X8964752Y-15419876D01*
X8983800Y-15429400D01*
X8993324Y-15438924D01*
X9002848Y-15457971D01*
X9012371Y-15496067D01*
X9012371Y-15543686D01*
X9002848Y-15581781D01*
X8993324Y-15600828D01*
X8983800Y-15610352D01*
X8964752Y-15619876D01*
X8945705Y-15619876D01*
X8926657Y-15610352D01*
X8917133Y-15600828D01*
X8907610Y-15581781D01*
X8898086Y-15543686D01*
X8898086Y-15496067D01*
X8907610Y-15457971D01*
X8917133Y-15438924D01*
X8926657Y-15429400D01*
X8945705Y-15419876D01*
X9136181Y-15419876D02*
X9155229Y-15419876D01*
X9174276Y-15429400D01*
X9183800Y-15438924D01*
X9193324Y-15457971D01*
X9202848Y-15496067D01*
X9202848Y-15543686D01*
X9193324Y-15581781D01*
X9183800Y-15600828D01*
X9174276Y-15610352D01*
X9155229Y-15619876D01*
X9136181Y-15619876D01*
X9117133Y-15610352D01*
X9107610Y-15600828D01*
X9098086Y-15581781D01*
X9088562Y-15543686D01*
X9088562Y-15496067D01*
X9098086Y-15457971D01*
X9107610Y-15438924D01*
X9117133Y-15429400D01*
X9136181Y-15419876D01*
X9288562Y-15619876D02*
X9288562Y-15486543D01*
X9288562Y-15505590D02*
X9298086Y-15496067D01*
X9317133Y-15486543D01*
X9345705Y-15486543D01*
X9364752Y-15496067D01*
X9374276Y-15515114D01*
X9374276Y-15619876D01*
X9374276Y-15515114D02*
X9383800Y-15496067D01*
X9402848Y-15486543D01*
X9431419Y-15486543D01*
X9450467Y-15496067D01*
X9459990Y-15515114D01*
X9459990Y-15619876D01*
X9555229Y-15619876D02*
X9555229Y-15486543D01*
X9555229Y-15505590D02*
X9564752Y-15496067D01*
X9583800Y-15486543D01*
X9612371Y-15486543D01*
X9631419Y-15496067D01*
X9640943Y-15515114D01*
X9640943Y-15619876D01*
X9640943Y-15515114D02*
X9650467Y-15496067D01*
X9669514Y-15486543D01*
X9698086Y-15486543D01*
X9717133Y-15496067D01*
X9726657Y-15515114D01*
X9726657Y-15619876D01*
X10117133Y-15410352D02*
X9945705Y-15667495D01*
X10374276Y-15419876D02*
X10393324Y-15419876D01*
X10412371Y-15429400D01*
X10421895Y-15438924D01*
X10431419Y-15457971D01*
X10440943Y-15496067D01*
X10440943Y-15543686D01*
X10431419Y-15581781D01*
X10421895Y-15600828D01*
X10412371Y-15610352D01*
X10393324Y-15619876D01*
X10374276Y-15619876D01*
X10355229Y-15610352D01*
X10345705Y-15600828D01*
X10336181Y-15581781D01*
X10326657Y-15543686D01*
X10326657Y-15496067D01*
X10336181Y-15457971D01*
X10345705Y-15438924D01*
X10355229Y-15429400D01*
X10374276Y-15419876D01*
X10526657Y-15600828D02*
X10536181Y-15610352D01*
X10526657Y-15619876D01*
X10517133Y-15610352D01*
X10526657Y-15600828D01*
X10526657Y-15619876D01*
X10659990Y-15419876D02*
X10679038Y-15419876D01*
X10698086Y-15429400D01*
X10707610Y-15438924D01*
X10717133Y-15457971D01*
X10726657Y-15496067D01*
X10726657Y-15543686D01*
X10717133Y-15581781D01*
X10707610Y-15600828D01*
X10698086Y-15610352D01*
X10679038Y-15619876D01*
X10659990Y-15619876D01*
X10640943Y-15610352D01*
X10631419Y-15600828D01*
X10621895Y-15581781D01*
X10612371Y-15543686D01*
X10612371Y-15496067D01*
X10621895Y-15457971D01*
X10631419Y-15438924D01*
X10640943Y-15429400D01*
X10659990Y-15419876D01*
X10850467Y-15419876D02*
X10869514Y-15419876D01*
X10888562Y-15429400D01*
X10898086Y-15438924D01*
X10907610Y-15457971D01*
X10917133Y-15496067D01*
X10917133Y-15543686D01*
X10907610Y-15581781D01*
X10898086Y-15600828D01*
X10888562Y-15610352D01*
X10869514Y-15619876D01*
X10850467Y-15619876D01*
X10831419Y-15610352D01*
X10821895Y-15600828D01*
X10812371Y-15581781D01*
X10802848Y-15543686D01*
X10802848Y-15496067D01*
X10812371Y-15457971D01*
X10821895Y-15438924D01*
X10831419Y-15429400D01*
X10850467Y-15419876D01*
X10983800Y-15419876D02*
X11117133Y-15419876D01*
X11031419Y-15619876D01*
X11202848Y-15619876D02*
X11240943Y-15619876D01*
X11259990Y-15610352D01*
X11269514Y-15600828D01*
X11288562Y-15572257D01*
X11298086Y-15534162D01*
X11298086Y-15457971D01*
X11288562Y-15438924D01*
X11279038Y-15429400D01*
X11259990Y-15419876D01*
X11221895Y-15419876D01*
X11202848Y-15429400D01*
X11193324Y-15438924D01*
X11183800Y-15457971D01*
X11183800Y-15505590D01*
X11193324Y-15524638D01*
X11202848Y-15534162D01*
X11221895Y-15543686D01*
X11259990Y-15543686D01*
X11279038Y-15534162D01*
X11288562Y-15524638D01*
X11298086Y-15505590D01*
X11374276Y-15419876D02*
X11374276Y-15457971D01*
X11450467Y-15419876D02*
X11450467Y-15457971D01*
X11745705Y-15696067D02*
X11736181Y-15686543D01*
X11717133Y-15657971D01*
X11707609Y-15638924D01*
X11698086Y-15610352D01*
X11688562Y-15562733D01*
X11688562Y-15524638D01*
X11698086Y-15477019D01*
X11707609Y-15448448D01*
X11717133Y-15429400D01*
X11736181Y-15400828D01*
X11745705Y-15391305D01*
X11926657Y-15619876D02*
X11812371Y-15619876D01*
X11869514Y-15619876D02*
X11869514Y-15419876D01*
X11850467Y-15448448D01*
X11831419Y-15467495D01*
X11812371Y-15477019D01*
X12002848Y-15438924D02*
X12012371Y-15429400D01*
X12031419Y-15419876D01*
X12079038Y-15419876D01*
X12098086Y-15429400D01*
X12107609Y-15438924D01*
X12117133Y-15457971D01*
X12117133Y-15477019D01*
X12107609Y-15505590D01*
X11993324Y-15619876D01*
X12117133Y-15619876D01*
X12355228Y-15619876D02*
X12355228Y-15419876D01*
X12440943Y-15619876D02*
X12440943Y-15515114D01*
X12431419Y-15496067D01*
X12412371Y-15486543D01*
X12383800Y-15486543D01*
X12364752Y-15496067D01*
X12355228Y-15505590D01*
X12564752Y-15619876D02*
X12545705Y-15610352D01*
X12536181Y-15600828D01*
X12526657Y-15581781D01*
X12526657Y-15524638D01*
X12536181Y-15505590D01*
X12545705Y-15496067D01*
X12564752Y-15486543D01*
X12593324Y-15486543D01*
X12612371Y-15496067D01*
X12621895Y-15505590D01*
X12631419Y-15524638D01*
X12631419Y-15581781D01*
X12621895Y-15600828D01*
X12612371Y-15610352D01*
X12593324Y-15619876D01*
X12564752Y-15619876D01*
X12745705Y-15619876D02*
X12726657Y-15610352D01*
X12717133Y-15591305D01*
X12717133Y-15419876D01*
X12898086Y-15610352D02*
X12879038Y-15619876D01*
X12840943Y-15619876D01*
X12821895Y-15610352D01*
X12812371Y-15591305D01*
X12812371Y-15515114D01*
X12821895Y-15496067D01*
X12840943Y-15486543D01*
X12879038Y-15486543D01*
X12898086Y-15496067D01*
X12907609Y-15515114D01*
X12907609Y-15534162D01*
X12812371Y-15553209D01*
X12983800Y-15610352D02*
X13002848Y-15619876D01*
X13040943Y-15619876D01*
X13059990Y-15610352D01*
X13069514Y-15591305D01*
X13069514Y-15581781D01*
X13059990Y-15562733D01*
X13040943Y-15553209D01*
X13012371Y-15553209D01*
X12993324Y-15543686D01*
X12983800Y-15524638D01*
X12983800Y-15515114D01*
X12993324Y-15496067D01*
X13012371Y-15486543D01*
X13040943Y-15486543D01*
X13059990Y-15496067D01*
X13136181Y-15696067D02*
X13145705Y-15686543D01*
X13164752Y-15657971D01*
X13174276Y-15638924D01*
X13183800Y-15610352D01*
X13193324Y-15562733D01*
X13193324Y-15524638D01*
X13183800Y-15477019D01*
X13174276Y-15448448D01*
X13164752Y-15429400D01*
X13145705Y-15400828D01*
X13136181Y-15391305D01*
D13*
X8173800Y-15793400D02*
G75*
G03*
X8173800Y-15793400I-20000J0D01*
G01*
D11*
X8469514Y-15683876D02*
X8488562Y-15683876D01*
X8507610Y-15693400D01*
X8517133Y-15702924D01*
X8526657Y-15721971D01*
X8536181Y-15760067D01*
X8536181Y-15807686D01*
X8526657Y-15845781D01*
X8517133Y-15864828D01*
X8507610Y-15874352D01*
X8488562Y-15883876D01*
X8469514Y-15883876D01*
X8450467Y-15874352D01*
X8440943Y-15864828D01*
X8431419Y-15845781D01*
X8421895Y-15807686D01*
X8421895Y-15760067D01*
X8431419Y-15721971D01*
X8440943Y-15702924D01*
X8450467Y-15693400D01*
X8469514Y-15683876D01*
X8621895Y-15864828D02*
X8631419Y-15874352D01*
X8621895Y-15883876D01*
X8612371Y-15874352D01*
X8621895Y-15864828D01*
X8621895Y-15883876D01*
X8802848Y-15750543D02*
X8802848Y-15883876D01*
X8755229Y-15674352D02*
X8707610Y-15817209D01*
X8831419Y-15817209D01*
X8945705Y-15683876D02*
X8964752Y-15683876D01*
X8983800Y-15693400D01*
X8993324Y-15702924D01*
X9002848Y-15721971D01*
X9012371Y-15760067D01*
X9012371Y-15807686D01*
X9002848Y-15845781D01*
X8993324Y-15864828D01*
X8983800Y-15874352D01*
X8964752Y-15883876D01*
X8945705Y-15883876D01*
X8926657Y-15874352D01*
X8917133Y-15864828D01*
X8907610Y-15845781D01*
X8898086Y-15807686D01*
X8898086Y-15760067D01*
X8907610Y-15721971D01*
X8917133Y-15702924D01*
X8926657Y-15693400D01*
X8945705Y-15683876D01*
X9136181Y-15683876D02*
X9155229Y-15683876D01*
X9174276Y-15693400D01*
X9183800Y-15702924D01*
X9193324Y-15721971D01*
X9202848Y-15760067D01*
X9202848Y-15807686D01*
X9193324Y-15845781D01*
X9183800Y-15864828D01*
X9174276Y-15874352D01*
X9155229Y-15883876D01*
X9136181Y-15883876D01*
X9117133Y-15874352D01*
X9107610Y-15864828D01*
X9098086Y-15845781D01*
X9088562Y-15807686D01*
X9088562Y-15760067D01*
X9098086Y-15721971D01*
X9107610Y-15702924D01*
X9117133Y-15693400D01*
X9136181Y-15683876D01*
X9288562Y-15883876D02*
X9288562Y-15750543D01*
X9288562Y-15769590D02*
X9298086Y-15760067D01*
X9317133Y-15750543D01*
X9345705Y-15750543D01*
X9364752Y-15760067D01*
X9374276Y-15779114D01*
X9374276Y-15883876D01*
X9374276Y-15779114D02*
X9383800Y-15760067D01*
X9402848Y-15750543D01*
X9431419Y-15750543D01*
X9450467Y-15760067D01*
X9459990Y-15779114D01*
X9459990Y-15883876D01*
X9555229Y-15883876D02*
X9555229Y-15750543D01*
X9555229Y-15769590D02*
X9564752Y-15760067D01*
X9583800Y-15750543D01*
X9612371Y-15750543D01*
X9631419Y-15760067D01*
X9640943Y-15779114D01*
X9640943Y-15883876D01*
X9640943Y-15779114D02*
X9650467Y-15760067D01*
X9669514Y-15750543D01*
X9698086Y-15750543D01*
X9717133Y-15760067D01*
X9726657Y-15779114D01*
X9726657Y-15883876D01*
X10117133Y-15674352D02*
X9945705Y-15931495D01*
X10374276Y-15683876D02*
X10393324Y-15683876D01*
X10412371Y-15693400D01*
X10421895Y-15702924D01*
X10431419Y-15721971D01*
X10440943Y-15760067D01*
X10440943Y-15807686D01*
X10431419Y-15845781D01*
X10421895Y-15864828D01*
X10412371Y-15874352D01*
X10393324Y-15883876D01*
X10374276Y-15883876D01*
X10355229Y-15874352D01*
X10345705Y-15864828D01*
X10336181Y-15845781D01*
X10326657Y-15807686D01*
X10326657Y-15760067D01*
X10336181Y-15721971D01*
X10345705Y-15702924D01*
X10355229Y-15693400D01*
X10374276Y-15683876D01*
X10526657Y-15864828D02*
X10536181Y-15874352D01*
X10526657Y-15883876D01*
X10517133Y-15874352D01*
X10526657Y-15864828D01*
X10526657Y-15883876D01*
X10659990Y-15683876D02*
X10679038Y-15683876D01*
X10698086Y-15693400D01*
X10707610Y-15702924D01*
X10717133Y-15721971D01*
X10726657Y-15760067D01*
X10726657Y-15807686D01*
X10717133Y-15845781D01*
X10707610Y-15864828D01*
X10698086Y-15874352D01*
X10679038Y-15883876D01*
X10659990Y-15883876D01*
X10640943Y-15874352D01*
X10631419Y-15864828D01*
X10621895Y-15845781D01*
X10612371Y-15807686D01*
X10612371Y-15760067D01*
X10621895Y-15721971D01*
X10631419Y-15702924D01*
X10640943Y-15693400D01*
X10659990Y-15683876D01*
X10917133Y-15883876D02*
X10802848Y-15883876D01*
X10859990Y-15883876D02*
X10859990Y-15683876D01*
X10840943Y-15712448D01*
X10821895Y-15731495D01*
X10802848Y-15741019D01*
X11098086Y-15683876D02*
X11002848Y-15683876D01*
X10993324Y-15779114D01*
X11002848Y-15769590D01*
X11021895Y-15760067D01*
X11069514Y-15760067D01*
X11088562Y-15769590D01*
X11098086Y-15779114D01*
X11107610Y-15798162D01*
X11107610Y-15845781D01*
X11098086Y-15864828D01*
X11088562Y-15874352D01*
X11069514Y-15883876D01*
X11021895Y-15883876D01*
X11002848Y-15874352D01*
X10993324Y-15864828D01*
X11174276Y-15683876D02*
X11307609Y-15683876D01*
X11221895Y-15883876D01*
X11374276Y-15683876D02*
X11374276Y-15721971D01*
X11450467Y-15683876D02*
X11450467Y-15721971D01*
X11745705Y-15960067D02*
X11736181Y-15950543D01*
X11717133Y-15921971D01*
X11707609Y-15902924D01*
X11698086Y-15874352D01*
X11688562Y-15826733D01*
X11688562Y-15788638D01*
X11698086Y-15741019D01*
X11707609Y-15712448D01*
X11717133Y-15693400D01*
X11736181Y-15664828D01*
X11745705Y-15655305D01*
X11917133Y-15683876D02*
X11821895Y-15683876D01*
X11812371Y-15779114D01*
X11821895Y-15769590D01*
X11840943Y-15760067D01*
X11888562Y-15760067D01*
X11907609Y-15769590D01*
X11917133Y-15779114D01*
X11926657Y-15798162D01*
X11926657Y-15845781D01*
X11917133Y-15864828D01*
X11907609Y-15874352D01*
X11888562Y-15883876D01*
X11840943Y-15883876D01*
X11821895Y-15874352D01*
X11812371Y-15864828D01*
X12098086Y-15683876D02*
X12059990Y-15683876D01*
X12040943Y-15693400D01*
X12031419Y-15702924D01*
X12012371Y-15731495D01*
X12002848Y-15769590D01*
X12002848Y-15845781D01*
X12012371Y-15864828D01*
X12021895Y-15874352D01*
X12040943Y-15883876D01*
X12079038Y-15883876D01*
X12098086Y-15874352D01*
X12107609Y-15864828D01*
X12117133Y-15845781D01*
X12117133Y-15798162D01*
X12107609Y-15779114D01*
X12098086Y-15769590D01*
X12079038Y-15760067D01*
X12040943Y-15760067D01*
X12021895Y-15769590D01*
X12012371Y-15779114D01*
X12002848Y-15798162D01*
X12355228Y-15883876D02*
X12355228Y-15683876D01*
X12440943Y-15883876D02*
X12440943Y-15779114D01*
X12431419Y-15760067D01*
X12412371Y-15750543D01*
X12383800Y-15750543D01*
X12364752Y-15760067D01*
X12355228Y-15769590D01*
X12564752Y-15883876D02*
X12545705Y-15874352D01*
X12536181Y-15864828D01*
X12526657Y-15845781D01*
X12526657Y-15788638D01*
X12536181Y-15769590D01*
X12545705Y-15760067D01*
X12564752Y-15750543D01*
X12593324Y-15750543D01*
X12612371Y-15760067D01*
X12621895Y-15769590D01*
X12631419Y-15788638D01*
X12631419Y-15845781D01*
X12621895Y-15864828D01*
X12612371Y-15874352D01*
X12593324Y-15883876D01*
X12564752Y-15883876D01*
X12745705Y-15883876D02*
X12726657Y-15874352D01*
X12717133Y-15855305D01*
X12717133Y-15683876D01*
X12898086Y-15874352D02*
X12879038Y-15883876D01*
X12840943Y-15883876D01*
X12821895Y-15874352D01*
X12812371Y-15855305D01*
X12812371Y-15779114D01*
X12821895Y-15760067D01*
X12840943Y-15750543D01*
X12879038Y-15750543D01*
X12898086Y-15760067D01*
X12907609Y-15779114D01*
X12907609Y-15798162D01*
X12812371Y-15817209D01*
X12983800Y-15874352D02*
X13002848Y-15883876D01*
X13040943Y-15883876D01*
X13059990Y-15874352D01*
X13069514Y-15855305D01*
X13069514Y-15845781D01*
X13059990Y-15826733D01*
X13040943Y-15817209D01*
X13012371Y-15817209D01*
X12993324Y-15807686D01*
X12983800Y-15788638D01*
X12983800Y-15779114D01*
X12993324Y-15760067D01*
X13012371Y-15750543D01*
X13040943Y-15750543D01*
X13059990Y-15760067D01*
X13136181Y-15960067D02*
X13145705Y-15950543D01*
X13164752Y-15921971D01*
X13174276Y-15902924D01*
X13183800Y-15874352D01*
X13193324Y-15826733D01*
X13193324Y-15788638D01*
X13183800Y-15741019D01*
X13174276Y-15712448D01*
X13164752Y-15693400D01*
X13145705Y-15664828D01*
X13136181Y-15655305D01*
D14*
X8143800Y-16027400D02*
X8143800Y-16087400D01*
X8113800Y-16057400D02*
X8173800Y-16057400D01*
D11*
X8469514Y-15947876D02*
X8488562Y-15947876D01*
X8507610Y-15957400D01*
X8517133Y-15966924D01*
X8526657Y-15985971D01*
X8536181Y-16024067D01*
X8536181Y-16071686D01*
X8526657Y-16109781D01*
X8517133Y-16128828D01*
X8507610Y-16138352D01*
X8488562Y-16147876D01*
X8469514Y-16147876D01*
X8450467Y-16138352D01*
X8440943Y-16128828D01*
X8431419Y-16109781D01*
X8421895Y-16071686D01*
X8421895Y-16024067D01*
X8431419Y-15985971D01*
X8440943Y-15966924D01*
X8450467Y-15957400D01*
X8469514Y-15947876D01*
X8621895Y-16128828D02*
X8631419Y-16138352D01*
X8621895Y-16147876D01*
X8612371Y-16138352D01*
X8621895Y-16128828D01*
X8621895Y-16147876D01*
X8802848Y-15947876D02*
X8764752Y-15947876D01*
X8745705Y-15957400D01*
X8736181Y-15966924D01*
X8717133Y-15995495D01*
X8707610Y-16033590D01*
X8707610Y-16109781D01*
X8717133Y-16128828D01*
X8726657Y-16138352D01*
X8745705Y-16147876D01*
X8783800Y-16147876D01*
X8802848Y-16138352D01*
X8812371Y-16128828D01*
X8821895Y-16109781D01*
X8821895Y-16062162D01*
X8812371Y-16043114D01*
X8802848Y-16033590D01*
X8783800Y-16024067D01*
X8745705Y-16024067D01*
X8726657Y-16033590D01*
X8717133Y-16043114D01*
X8707610Y-16062162D01*
X8945705Y-15947876D02*
X8964752Y-15947876D01*
X8983800Y-15957400D01*
X8993324Y-15966924D01*
X9002848Y-15985971D01*
X9012371Y-16024067D01*
X9012371Y-16071686D01*
X9002848Y-16109781D01*
X8993324Y-16128828D01*
X8983800Y-16138352D01*
X8964752Y-16147876D01*
X8945705Y-16147876D01*
X8926657Y-16138352D01*
X8917133Y-16128828D01*
X8907610Y-16109781D01*
X8898086Y-16071686D01*
X8898086Y-16024067D01*
X8907610Y-15985971D01*
X8917133Y-15966924D01*
X8926657Y-15957400D01*
X8945705Y-15947876D01*
X9136181Y-15947876D02*
X9155229Y-15947876D01*
X9174276Y-15957400D01*
X9183800Y-15966924D01*
X9193324Y-15985971D01*
X9202848Y-16024067D01*
X9202848Y-16071686D01*
X9193324Y-16109781D01*
X9183800Y-16128828D01*
X9174276Y-16138352D01*
X9155229Y-16147876D01*
X9136181Y-16147876D01*
X9117133Y-16138352D01*
X9107610Y-16128828D01*
X9098086Y-16109781D01*
X9088562Y-16071686D01*
X9088562Y-16024067D01*
X9098086Y-15985971D01*
X9107610Y-15966924D01*
X9117133Y-15957400D01*
X9136181Y-15947876D01*
X9288562Y-16147876D02*
X9288562Y-16014543D01*
X9288562Y-16033590D02*
X9298086Y-16024067D01*
X9317133Y-16014543D01*
X9345705Y-16014543D01*
X9364752Y-16024067D01*
X9374276Y-16043114D01*
X9374276Y-16147876D01*
X9374276Y-16043114D02*
X9383800Y-16024067D01*
X9402848Y-16014543D01*
X9431419Y-16014543D01*
X9450467Y-16024067D01*
X9459990Y-16043114D01*
X9459990Y-16147876D01*
X9555229Y-16147876D02*
X9555229Y-16014543D01*
X9555229Y-16033590D02*
X9564752Y-16024067D01*
X9583800Y-16014543D01*
X9612371Y-16014543D01*
X9631419Y-16024067D01*
X9640943Y-16043114D01*
X9640943Y-16147876D01*
X9640943Y-16043114D02*
X9650467Y-16024067D01*
X9669514Y-16014543D01*
X9698086Y-16014543D01*
X9717133Y-16024067D01*
X9726657Y-16043114D01*
X9726657Y-16147876D01*
X10117133Y-15938352D02*
X9945705Y-16195495D01*
X10374276Y-15947876D02*
X10393324Y-15947876D01*
X10412371Y-15957400D01*
X10421895Y-15966924D01*
X10431419Y-15985971D01*
X10440943Y-16024067D01*
X10440943Y-16071686D01*
X10431419Y-16109781D01*
X10421895Y-16128828D01*
X10412371Y-16138352D01*
X10393324Y-16147876D01*
X10374276Y-16147876D01*
X10355229Y-16138352D01*
X10345705Y-16128828D01*
X10336181Y-16109781D01*
X10326657Y-16071686D01*
X10326657Y-16024067D01*
X10336181Y-15985971D01*
X10345705Y-15966924D01*
X10355229Y-15957400D01*
X10374276Y-15947876D01*
X10526657Y-16128828D02*
X10536181Y-16138352D01*
X10526657Y-16147876D01*
X10517133Y-16138352D01*
X10526657Y-16128828D01*
X10526657Y-16147876D01*
X10659990Y-15947876D02*
X10679038Y-15947876D01*
X10698086Y-15957400D01*
X10707610Y-15966924D01*
X10717133Y-15985971D01*
X10726657Y-16024067D01*
X10726657Y-16071686D01*
X10717133Y-16109781D01*
X10707610Y-16128828D01*
X10698086Y-16138352D01*
X10679038Y-16147876D01*
X10659990Y-16147876D01*
X10640943Y-16138352D01*
X10631419Y-16128828D01*
X10621895Y-16109781D01*
X10612371Y-16071686D01*
X10612371Y-16024067D01*
X10621895Y-15985971D01*
X10631419Y-15966924D01*
X10640943Y-15957400D01*
X10659990Y-15947876D01*
X10802848Y-15966924D02*
X10812371Y-15957400D01*
X10831419Y-15947876D01*
X10879038Y-15947876D01*
X10898086Y-15957400D01*
X10907610Y-15966924D01*
X10917133Y-15985971D01*
X10917133Y-16005019D01*
X10907610Y-16033590D01*
X10793324Y-16147876D01*
X10917133Y-16147876D01*
X10983800Y-15947876D02*
X11107610Y-15947876D01*
X11040943Y-16024067D01*
X11069514Y-16024067D01*
X11088562Y-16033590D01*
X11098086Y-16043114D01*
X11107610Y-16062162D01*
X11107610Y-16109781D01*
X11098086Y-16128828D01*
X11088562Y-16138352D01*
X11069514Y-16147876D01*
X11012371Y-16147876D01*
X10993324Y-16138352D01*
X10983800Y-16128828D01*
X11279038Y-15947876D02*
X11240943Y-15947876D01*
X11221895Y-15957400D01*
X11212371Y-15966924D01*
X11193324Y-15995495D01*
X11183800Y-16033590D01*
X11183800Y-16109781D01*
X11193324Y-16128828D01*
X11202848Y-16138352D01*
X11221895Y-16147876D01*
X11259990Y-16147876D01*
X11279038Y-16138352D01*
X11288562Y-16128828D01*
X11298086Y-16109781D01*
X11298086Y-16062162D01*
X11288562Y-16043114D01*
X11279038Y-16033590D01*
X11259990Y-16024067D01*
X11221895Y-16024067D01*
X11202848Y-16033590D01*
X11193324Y-16043114D01*
X11183800Y-16062162D01*
X11374276Y-15947876D02*
X11374276Y-15985971D01*
X11450467Y-15947876D02*
X11450467Y-15985971D01*
X11745705Y-16224067D02*
X11736181Y-16214543D01*
X11717133Y-16185971D01*
X11707609Y-16166924D01*
X11698086Y-16138352D01*
X11688562Y-16090733D01*
X11688562Y-16052638D01*
X11698086Y-16005019D01*
X11707609Y-15976448D01*
X11717133Y-15957400D01*
X11736181Y-15928828D01*
X11745705Y-15919305D01*
X11859990Y-15947876D02*
X11879038Y-15947876D01*
X11898086Y-15957400D01*
X11907609Y-15966924D01*
X11917133Y-15985971D01*
X11926657Y-16024067D01*
X11926657Y-16071686D01*
X11917133Y-16109781D01*
X11907609Y-16128828D01*
X11898086Y-16138352D01*
X11879038Y-16147876D01*
X11859990Y-16147876D01*
X11840943Y-16138352D01*
X11831419Y-16128828D01*
X11821895Y-16109781D01*
X11812371Y-16071686D01*
X11812371Y-16024067D01*
X11821895Y-15985971D01*
X11831419Y-15966924D01*
X11840943Y-15957400D01*
X11859990Y-15947876D01*
X12164752Y-16147876D02*
X12164752Y-15947876D01*
X12250467Y-16147876D02*
X12250467Y-16043114D01*
X12240943Y-16024067D01*
X12221895Y-16014543D01*
X12193324Y-16014543D01*
X12174276Y-16024067D01*
X12164752Y-16033590D01*
X12374276Y-16147876D02*
X12355228Y-16138352D01*
X12345705Y-16128828D01*
X12336181Y-16109781D01*
X12336181Y-16052638D01*
X12345705Y-16033590D01*
X12355228Y-16024067D01*
X12374276Y-16014543D01*
X12402848Y-16014543D01*
X12421895Y-16024067D01*
X12431419Y-16033590D01*
X12440943Y-16052638D01*
X12440943Y-16109781D01*
X12431419Y-16128828D01*
X12421895Y-16138352D01*
X12402848Y-16147876D01*
X12374276Y-16147876D01*
X12555228Y-16147876D02*
X12536181Y-16138352D01*
X12526657Y-16119305D01*
X12526657Y-15947876D01*
X12707609Y-16138352D02*
X12688562Y-16147876D01*
X12650467Y-16147876D01*
X12631419Y-16138352D01*
X12621895Y-16119305D01*
X12621895Y-16043114D01*
X12631419Y-16024067D01*
X12650467Y-16014543D01*
X12688562Y-16014543D01*
X12707609Y-16024067D01*
X12717133Y-16043114D01*
X12717133Y-16062162D01*
X12621895Y-16081209D01*
X12793324Y-16138352D02*
X12812371Y-16147876D01*
X12850467Y-16147876D01*
X12869514Y-16138352D01*
X12879038Y-16119305D01*
X12879038Y-16109781D01*
X12869514Y-16090733D01*
X12850467Y-16081209D01*
X12821895Y-16081209D01*
X12802848Y-16071686D01*
X12793324Y-16052638D01*
X12793324Y-16043114D01*
X12802848Y-16024067D01*
X12821895Y-16014543D01*
X12850467Y-16014543D01*
X12869514Y-16024067D01*
X13117133Y-16071686D02*
X13269514Y-16071686D01*
X13193324Y-16147876D02*
X13193324Y-15995495D01*
X13602848Y-16014543D02*
X13602848Y-16147876D01*
X13555228Y-15938352D02*
X13507609Y-16081209D01*
X13631419Y-16081209D01*
X13850467Y-16138352D02*
X13869514Y-16147876D01*
X13907609Y-16147876D01*
X13926657Y-16138352D01*
X13936181Y-16119305D01*
X13936181Y-16109781D01*
X13926657Y-16090733D01*
X13907609Y-16081209D01*
X13879038Y-16081209D01*
X13859990Y-16071686D01*
X13850467Y-16052638D01*
X13850467Y-16043114D01*
X13859990Y-16024067D01*
X13879038Y-16014543D01*
X13907609Y-16014543D01*
X13926657Y-16024067D01*
X14050467Y-16147876D02*
X14031419Y-16138352D01*
X14021895Y-16119305D01*
X14021895Y-15947876D01*
X14155228Y-16147876D02*
X14136181Y-16138352D01*
X14126657Y-16128828D01*
X14117133Y-16109781D01*
X14117133Y-16052638D01*
X14126657Y-16033590D01*
X14136181Y-16024067D01*
X14155228Y-16014543D01*
X14183800Y-16014543D01*
X14202848Y-16024067D01*
X14212371Y-16033590D01*
X14221895Y-16052638D01*
X14221895Y-16109781D01*
X14212371Y-16128828D01*
X14202848Y-16138352D01*
X14183800Y-16147876D01*
X14155228Y-16147876D01*
X14279038Y-16014543D02*
X14355228Y-16014543D01*
X14307609Y-15947876D02*
X14307609Y-16119305D01*
X14317133Y-16138352D01*
X14336181Y-16147876D01*
X14355228Y-16147876D01*
X14412371Y-16138352D02*
X14431419Y-16147876D01*
X14469514Y-16147876D01*
X14488562Y-16138352D01*
X14498086Y-16119305D01*
X14498086Y-16109781D01*
X14488562Y-16090733D01*
X14469514Y-16081209D01*
X14440943Y-16081209D01*
X14421895Y-16071686D01*
X14412371Y-16052638D01*
X14412371Y-16043114D01*
X14421895Y-16024067D01*
X14440943Y-16014543D01*
X14469514Y-16014543D01*
X14488562Y-16024067D01*
X14564752Y-16224067D02*
X14574276Y-16214543D01*
X14593324Y-16185971D01*
X14602848Y-16166924D01*
X14612371Y-16138352D01*
X14621895Y-16090733D01*
X14621895Y-16052638D01*
X14612371Y-16005019D01*
X14602848Y-15976448D01*
X14593324Y-15957400D01*
X14574276Y-15928828D01*
X14564752Y-15919305D01*
D10*
X8159156Y-16356756D02*
X8159156Y-16286044D01*
X8088444Y-16286044D01*
X8088444Y-16356756D01*
X8159156Y-16356756D01*
D11*
X8536181Y-16411876D02*
X8421895Y-16411876D01*
X8479038Y-16411876D02*
X8479038Y-16211876D01*
X8459990Y-16240448D01*
X8440943Y-16259495D01*
X8421895Y-16269019D01*
X8621895Y-16392828D02*
X8631419Y-16402352D01*
X8621895Y-16411876D01*
X8612371Y-16402352D01*
X8621895Y-16392828D01*
X8621895Y-16411876D01*
X8755229Y-16211876D02*
X8774276Y-16211876D01*
X8793324Y-16221400D01*
X8802848Y-16230924D01*
X8812371Y-16249971D01*
X8821895Y-16288067D01*
X8821895Y-16335686D01*
X8812371Y-16373781D01*
X8802848Y-16392828D01*
X8793324Y-16402352D01*
X8774276Y-16411876D01*
X8755229Y-16411876D01*
X8736181Y-16402352D01*
X8726657Y-16392828D01*
X8717133Y-16373781D01*
X8707610Y-16335686D01*
X8707610Y-16288067D01*
X8717133Y-16249971D01*
X8726657Y-16230924D01*
X8736181Y-16221400D01*
X8755229Y-16211876D01*
X8945705Y-16211876D02*
X8964752Y-16211876D01*
X8983800Y-16221400D01*
X8993324Y-16230924D01*
X9002848Y-16249971D01*
X9012371Y-16288067D01*
X9012371Y-16335686D01*
X9002848Y-16373781D01*
X8993324Y-16392828D01*
X8983800Y-16402352D01*
X8964752Y-16411876D01*
X8945705Y-16411876D01*
X8926657Y-16402352D01*
X8917133Y-16392828D01*
X8907610Y-16373781D01*
X8898086Y-16335686D01*
X8898086Y-16288067D01*
X8907610Y-16249971D01*
X8917133Y-16230924D01*
X8926657Y-16221400D01*
X8945705Y-16211876D01*
X9136181Y-16211876D02*
X9155229Y-16211876D01*
X9174276Y-16221400D01*
X9183800Y-16230924D01*
X9193324Y-16249971D01*
X9202848Y-16288067D01*
X9202848Y-16335686D01*
X9193324Y-16373781D01*
X9183800Y-16392828D01*
X9174276Y-16402352D01*
X9155229Y-16411876D01*
X9136181Y-16411876D01*
X9117133Y-16402352D01*
X9107610Y-16392828D01*
X9098086Y-16373781D01*
X9088562Y-16335686D01*
X9088562Y-16288067D01*
X9098086Y-16249971D01*
X9107610Y-16230924D01*
X9117133Y-16221400D01*
X9136181Y-16211876D01*
X9288562Y-16411876D02*
X9288562Y-16278543D01*
X9288562Y-16297590D02*
X9298086Y-16288067D01*
X9317133Y-16278543D01*
X9345705Y-16278543D01*
X9364752Y-16288067D01*
X9374276Y-16307114D01*
X9374276Y-16411876D01*
X9374276Y-16307114D02*
X9383800Y-16288067D01*
X9402848Y-16278543D01*
X9431419Y-16278543D01*
X9450467Y-16288067D01*
X9459990Y-16307114D01*
X9459990Y-16411876D01*
X9555229Y-16411876D02*
X9555229Y-16278543D01*
X9555229Y-16297590D02*
X9564752Y-16288067D01*
X9583800Y-16278543D01*
X9612371Y-16278543D01*
X9631419Y-16288067D01*
X9640943Y-16307114D01*
X9640943Y-16411876D01*
X9640943Y-16307114D02*
X9650467Y-16288067D01*
X9669514Y-16278543D01*
X9698086Y-16278543D01*
X9717133Y-16288067D01*
X9726657Y-16307114D01*
X9726657Y-16411876D01*
X10117133Y-16202352D02*
X9945705Y-16459495D01*
X10374276Y-16211876D02*
X10393324Y-16211876D01*
X10412371Y-16221400D01*
X10421895Y-16230924D01*
X10431419Y-16249971D01*
X10440943Y-16288067D01*
X10440943Y-16335686D01*
X10431419Y-16373781D01*
X10421895Y-16392828D01*
X10412371Y-16402352D01*
X10393324Y-16411876D01*
X10374276Y-16411876D01*
X10355229Y-16402352D01*
X10345705Y-16392828D01*
X10336181Y-16373781D01*
X10326657Y-16335686D01*
X10326657Y-16288067D01*
X10336181Y-16249971D01*
X10345705Y-16230924D01*
X10355229Y-16221400D01*
X10374276Y-16211876D01*
X10526657Y-16392828D02*
X10536181Y-16402352D01*
X10526657Y-16411876D01*
X10517133Y-16402352D01*
X10526657Y-16392828D01*
X10526657Y-16411876D01*
X10659990Y-16211876D02*
X10679038Y-16211876D01*
X10698086Y-16221400D01*
X10707610Y-16230924D01*
X10717133Y-16249971D01*
X10726657Y-16288067D01*
X10726657Y-16335686D01*
X10717133Y-16373781D01*
X10707610Y-16392828D01*
X10698086Y-16402352D01*
X10679038Y-16411876D01*
X10659990Y-16411876D01*
X10640943Y-16402352D01*
X10631419Y-16392828D01*
X10621895Y-16373781D01*
X10612371Y-16335686D01*
X10612371Y-16288067D01*
X10621895Y-16249971D01*
X10631419Y-16230924D01*
X10640943Y-16221400D01*
X10659990Y-16211876D01*
X10793324Y-16211876D02*
X10917133Y-16211876D01*
X10850467Y-16288067D01*
X10879038Y-16288067D01*
X10898086Y-16297590D01*
X10907610Y-16307114D01*
X10917133Y-16326162D01*
X10917133Y-16373781D01*
X10907610Y-16392828D01*
X10898086Y-16402352D01*
X10879038Y-16411876D01*
X10821895Y-16411876D01*
X10802848Y-16402352D01*
X10793324Y-16392828D01*
X11012371Y-16411876D02*
X11050467Y-16411876D01*
X11069514Y-16402352D01*
X11079038Y-16392828D01*
X11098086Y-16364257D01*
X11107610Y-16326162D01*
X11107610Y-16249971D01*
X11098086Y-16230924D01*
X11088562Y-16221400D01*
X11069514Y-16211876D01*
X11031419Y-16211876D01*
X11012371Y-16221400D01*
X11002848Y-16230924D01*
X10993324Y-16249971D01*
X10993324Y-16297590D01*
X11002848Y-16316638D01*
X11012371Y-16326162D01*
X11031419Y-16335686D01*
X11069514Y-16335686D01*
X11088562Y-16326162D01*
X11098086Y-16316638D01*
X11107610Y-16297590D01*
X11279038Y-16278543D02*
X11279038Y-16411876D01*
X11231419Y-16202352D02*
X11183800Y-16345209D01*
X11307609Y-16345209D01*
X11374276Y-16211876D02*
X11374276Y-16249971D01*
X11450467Y-16211876D02*
X11450467Y-16249971D01*
X11745705Y-16488067D02*
X11736181Y-16478543D01*
X11717133Y-16449971D01*
X11707609Y-16430924D01*
X11698086Y-16402352D01*
X11688562Y-16354733D01*
X11688562Y-16316638D01*
X11698086Y-16269019D01*
X11707609Y-16240448D01*
X11717133Y-16221400D01*
X11736181Y-16192828D01*
X11745705Y-16183305D01*
X11812371Y-16230924D02*
X11821895Y-16221400D01*
X11840943Y-16211876D01*
X11888562Y-16211876D01*
X11907609Y-16221400D01*
X11917133Y-16230924D01*
X11926657Y-16249971D01*
X11926657Y-16269019D01*
X11917133Y-16297590D01*
X11802848Y-16411876D01*
X11926657Y-16411876D01*
X12098086Y-16278543D02*
X12098086Y-16411876D01*
X12050467Y-16202352D02*
X12002848Y-16345209D01*
X12126657Y-16345209D01*
X12355228Y-16411876D02*
X12355228Y-16211876D01*
X12440943Y-16411876D02*
X12440943Y-16307114D01*
X12431419Y-16288067D01*
X12412371Y-16278543D01*
X12383800Y-16278543D01*
X12364752Y-16288067D01*
X12355228Y-16297590D01*
X12564752Y-16411876D02*
X12545705Y-16402352D01*
X12536181Y-16392828D01*
X12526657Y-16373781D01*
X12526657Y-16316638D01*
X12536181Y-16297590D01*
X12545705Y-16288067D01*
X12564752Y-16278543D01*
X12593324Y-16278543D01*
X12612371Y-16288067D01*
X12621895Y-16297590D01*
X12631419Y-16316638D01*
X12631419Y-16373781D01*
X12621895Y-16392828D01*
X12612371Y-16402352D01*
X12593324Y-16411876D01*
X12564752Y-16411876D01*
X12745705Y-16411876D02*
X12726657Y-16402352D01*
X12717133Y-16383305D01*
X12717133Y-16211876D01*
X12898086Y-16402352D02*
X12879038Y-16411876D01*
X12840943Y-16411876D01*
X12821895Y-16402352D01*
X12812371Y-16383305D01*
X12812371Y-16307114D01*
X12821895Y-16288067D01*
X12840943Y-16278543D01*
X12879038Y-16278543D01*
X12898086Y-16288067D01*
X12907609Y-16307114D01*
X12907609Y-16326162D01*
X12812371Y-16345209D01*
X12983800Y-16402352D02*
X13002848Y-16411876D01*
X13040943Y-16411876D01*
X13059990Y-16402352D01*
X13069514Y-16383305D01*
X13069514Y-16373781D01*
X13059990Y-16354733D01*
X13040943Y-16345209D01*
X13012371Y-16345209D01*
X12993324Y-16335686D01*
X12983800Y-16316638D01*
X12983800Y-16307114D01*
X12993324Y-16288067D01*
X13012371Y-16278543D01*
X13040943Y-16278543D01*
X13059990Y-16288067D01*
X13136181Y-16488067D02*
X13145705Y-16478543D01*
X13164752Y-16449971D01*
X13174276Y-16430924D01*
X13183800Y-16402352D01*
X13193324Y-16354733D01*
X13193324Y-16316638D01*
X13183800Y-16269019D01*
X13174276Y-16240448D01*
X13164752Y-16221400D01*
X13145705Y-16192828D01*
X13136181Y-16183305D01*
D15*
X8097800Y-16661400D02*
X8173800Y-16585400D01*
X8097800Y-16509400D01*
X8021800Y-16585400D01*
X8097800Y-16661400D01*
D11*
X8536181Y-16675876D02*
X8421895Y-16675876D01*
X8479038Y-16675876D02*
X8479038Y-16475876D01*
X8459990Y-16504448D01*
X8440943Y-16523495D01*
X8421895Y-16533019D01*
X8621895Y-16656828D02*
X8631419Y-16666352D01*
X8621895Y-16675876D01*
X8612371Y-16666352D01*
X8621895Y-16656828D01*
X8621895Y-16675876D01*
X8812371Y-16475876D02*
X8717133Y-16475876D01*
X8707610Y-16571114D01*
X8717133Y-16561590D01*
X8736181Y-16552067D01*
X8783800Y-16552067D01*
X8802848Y-16561590D01*
X8812371Y-16571114D01*
X8821895Y-16590162D01*
X8821895Y-16637781D01*
X8812371Y-16656828D01*
X8802848Y-16666352D01*
X8783800Y-16675876D01*
X8736181Y-16675876D01*
X8717133Y-16666352D01*
X8707610Y-16656828D01*
X8898086Y-16494924D02*
X8907610Y-16485400D01*
X8926657Y-16475876D01*
X8974276Y-16475876D01*
X8993324Y-16485400D01*
X9002848Y-16494924D01*
X9012371Y-16513971D01*
X9012371Y-16533019D01*
X9002848Y-16561590D01*
X8888562Y-16675876D01*
X9012371Y-16675876D01*
X9136181Y-16475876D02*
X9155229Y-16475876D01*
X9174276Y-16485400D01*
X9183800Y-16494924D01*
X9193324Y-16513971D01*
X9202848Y-16552067D01*
X9202848Y-16599686D01*
X9193324Y-16637781D01*
X9183800Y-16656828D01*
X9174276Y-16666352D01*
X9155229Y-16675876D01*
X9136181Y-16675876D01*
X9117133Y-16666352D01*
X9107610Y-16656828D01*
X9098086Y-16637781D01*
X9088562Y-16599686D01*
X9088562Y-16552067D01*
X9098086Y-16513971D01*
X9107610Y-16494924D01*
X9117133Y-16485400D01*
X9136181Y-16475876D01*
X9288562Y-16675876D02*
X9288562Y-16542543D01*
X9288562Y-16561590D02*
X9298086Y-16552067D01*
X9317133Y-16542543D01*
X9345705Y-16542543D01*
X9364752Y-16552067D01*
X9374276Y-16571114D01*
X9374276Y-16675876D01*
X9374276Y-16571114D02*
X9383800Y-16552067D01*
X9402848Y-16542543D01*
X9431419Y-16542543D01*
X9450467Y-16552067D01*
X9459990Y-16571114D01*
X9459990Y-16675876D01*
X9555229Y-16675876D02*
X9555229Y-16542543D01*
X9555229Y-16561590D02*
X9564752Y-16552067D01*
X9583800Y-16542543D01*
X9612371Y-16542543D01*
X9631419Y-16552067D01*
X9640943Y-16571114D01*
X9640943Y-16675876D01*
X9640943Y-16571114D02*
X9650467Y-16552067D01*
X9669514Y-16542543D01*
X9698086Y-16542543D01*
X9717133Y-16552067D01*
X9726657Y-16571114D01*
X9726657Y-16675876D01*
X10117133Y-16466352D02*
X9945705Y-16723495D01*
X10374276Y-16475876D02*
X10393324Y-16475876D01*
X10412371Y-16485400D01*
X10421895Y-16494924D01*
X10431419Y-16513971D01*
X10440943Y-16552067D01*
X10440943Y-16599686D01*
X10431419Y-16637781D01*
X10421895Y-16656828D01*
X10412371Y-16666352D01*
X10393324Y-16675876D01*
X10374276Y-16675876D01*
X10355229Y-16666352D01*
X10345705Y-16656828D01*
X10336181Y-16637781D01*
X10326657Y-16599686D01*
X10326657Y-16552067D01*
X10336181Y-16513971D01*
X10345705Y-16494924D01*
X10355229Y-16485400D01*
X10374276Y-16475876D01*
X10526657Y-16656828D02*
X10536181Y-16666352D01*
X10526657Y-16675876D01*
X10517133Y-16666352D01*
X10526657Y-16656828D01*
X10526657Y-16675876D01*
X10659990Y-16475876D02*
X10679038Y-16475876D01*
X10698086Y-16485400D01*
X10707610Y-16494924D01*
X10717133Y-16513971D01*
X10726657Y-16552067D01*
X10726657Y-16599686D01*
X10717133Y-16637781D01*
X10707610Y-16656828D01*
X10698086Y-16666352D01*
X10679038Y-16675876D01*
X10659990Y-16675876D01*
X10640943Y-16666352D01*
X10631419Y-16656828D01*
X10621895Y-16637781D01*
X10612371Y-16599686D01*
X10612371Y-16552067D01*
X10621895Y-16513971D01*
X10631419Y-16494924D01*
X10640943Y-16485400D01*
X10659990Y-16475876D01*
X10907610Y-16475876D02*
X10812371Y-16475876D01*
X10802848Y-16571114D01*
X10812371Y-16561590D01*
X10831419Y-16552067D01*
X10879038Y-16552067D01*
X10898086Y-16561590D01*
X10907610Y-16571114D01*
X10917133Y-16590162D01*
X10917133Y-16637781D01*
X10907610Y-16656828D01*
X10898086Y-16666352D01*
X10879038Y-16675876D01*
X10831419Y-16675876D01*
X10812371Y-16666352D01*
X10802848Y-16656828D01*
X11012371Y-16675876D02*
X11050467Y-16675876D01*
X11069514Y-16666352D01*
X11079038Y-16656828D01*
X11098086Y-16628257D01*
X11107610Y-16590162D01*
X11107610Y-16513971D01*
X11098086Y-16494924D01*
X11088562Y-16485400D01*
X11069514Y-16475876D01*
X11031419Y-16475876D01*
X11012371Y-16485400D01*
X11002848Y-16494924D01*
X10993324Y-16513971D01*
X10993324Y-16561590D01*
X11002848Y-16580638D01*
X11012371Y-16590162D01*
X11031419Y-16599686D01*
X11069514Y-16599686D01*
X11088562Y-16590162D01*
X11098086Y-16580638D01*
X11107610Y-16561590D01*
X11221895Y-16561590D02*
X11202848Y-16552067D01*
X11193324Y-16542543D01*
X11183800Y-16523495D01*
X11183800Y-16513971D01*
X11193324Y-16494924D01*
X11202848Y-16485400D01*
X11221895Y-16475876D01*
X11259990Y-16475876D01*
X11279038Y-16485400D01*
X11288562Y-16494924D01*
X11298086Y-16513971D01*
X11298086Y-16523495D01*
X11288562Y-16542543D01*
X11279038Y-16552067D01*
X11259990Y-16561590D01*
X11221895Y-16561590D01*
X11202848Y-16571114D01*
X11193324Y-16580638D01*
X11183800Y-16599686D01*
X11183800Y-16637781D01*
X11193324Y-16656828D01*
X11202848Y-16666352D01*
X11221895Y-16675876D01*
X11259990Y-16675876D01*
X11279038Y-16666352D01*
X11288562Y-16656828D01*
X11298086Y-16637781D01*
X11298086Y-16599686D01*
X11288562Y-16580638D01*
X11279038Y-16571114D01*
X11259990Y-16561590D01*
X11374276Y-16475876D02*
X11374276Y-16513971D01*
X11450467Y-16475876D02*
X11450467Y-16513971D01*
X11745705Y-16752067D02*
X11736181Y-16742543D01*
X11717133Y-16713971D01*
X11707609Y-16694924D01*
X11698086Y-16666352D01*
X11688562Y-16618733D01*
X11688562Y-16580638D01*
X11698086Y-16533019D01*
X11707609Y-16504448D01*
X11717133Y-16485400D01*
X11736181Y-16456828D01*
X11745705Y-16447305D01*
X11812371Y-16494924D02*
X11821895Y-16485400D01*
X11840943Y-16475876D01*
X11888562Y-16475876D01*
X11907609Y-16485400D01*
X11917133Y-16494924D01*
X11926657Y-16513971D01*
X11926657Y-16533019D01*
X11917133Y-16561590D01*
X11802848Y-16675876D01*
X11926657Y-16675876D01*
X12164752Y-16675876D02*
X12164752Y-16475876D01*
X12250467Y-16675876D02*
X12250467Y-16571114D01*
X12240943Y-16552067D01*
X12221895Y-16542543D01*
X12193324Y-16542543D01*
X12174276Y-16552067D01*
X12164752Y-16561590D01*
X12374276Y-16675876D02*
X12355228Y-16666352D01*
X12345705Y-16656828D01*
X12336181Y-16637781D01*
X12336181Y-16580638D01*
X12345705Y-16561590D01*
X12355228Y-16552067D01*
X12374276Y-16542543D01*
X12402848Y-16542543D01*
X12421895Y-16552067D01*
X12431419Y-16561590D01*
X12440943Y-16580638D01*
X12440943Y-16637781D01*
X12431419Y-16656828D01*
X12421895Y-16666352D01*
X12402848Y-16675876D01*
X12374276Y-16675876D01*
X12555228Y-16675876D02*
X12536181Y-16666352D01*
X12526657Y-16647305D01*
X12526657Y-16475876D01*
X12707609Y-16666352D02*
X12688562Y-16675876D01*
X12650467Y-16675876D01*
X12631419Y-16666352D01*
X12621895Y-16647305D01*
X12621895Y-16571114D01*
X12631419Y-16552067D01*
X12650467Y-16542543D01*
X12688562Y-16542543D01*
X12707609Y-16552067D01*
X12717133Y-16571114D01*
X12717133Y-16590162D01*
X12621895Y-16609209D01*
X12793324Y-16666352D02*
X12812371Y-16675876D01*
X12850467Y-16675876D01*
X12869514Y-16666352D01*
X12879038Y-16647305D01*
X12879038Y-16637781D01*
X12869514Y-16618733D01*
X12850467Y-16609209D01*
X12821895Y-16609209D01*
X12802848Y-16599686D01*
X12793324Y-16580638D01*
X12793324Y-16571114D01*
X12802848Y-16552067D01*
X12821895Y-16542543D01*
X12850467Y-16542543D01*
X12869514Y-16552067D01*
X12945705Y-16752067D02*
X12955228Y-16742543D01*
X12974276Y-16713971D01*
X12983800Y-16694924D01*
X12993324Y-16666352D01*
X13002848Y-16618733D01*
X13002848Y-16580638D01*
X12993324Y-16533019D01*
X12983800Y-16504448D01*
X12974276Y-16485400D01*
X12955228Y-16456828D01*
X12945705Y-16447305D01*
M02*
