M48
; DRILL file {KiCad (6.0.11-0)} date 2023 October 17, Tuesday 10:34:45
; FORMAT={-:-/ absolute / metric / decimal}
; #@! TF.CreationDate,2023-10-17T10:34:45+02:00
; #@! TF.GenerationSoftware,Kicad,Pcbnew,(6.0.11-0)
; #@! TF.FileFunction,Plated,1,4,PTH
FMAT,2
METRIC
; #@! TA.AperFunction,Plated,PTH,ComponentDrill
T1C0.200
; #@! TA.AperFunction,Plated,PTH,ViaDrill
T2C0.400
; #@! TA.AperFunction,Plated,PTH,ComponentDrill
T3C0.600
; #@! TA.AperFunction,Plated,PTH,ComponentDrill
T4C1.000
; #@! TA.AperFunction,Plated,PTH,ComponentDrill
T5C1.520
%
G90
G05
T1
X96.818Y-132.862
X96.818Y-134.387
X97.581Y-132.1
X97.581Y-133.625
X97.581Y-135.15
X98.343Y-132.862
X98.343Y-134.387
X99.105Y-132.1
X99.105Y-133.625
X99.105Y-135.15
X99.868Y-132.862
X99.868Y-134.387
T2
X83.942Y-58.095
X87.249Y-67.945
X89.027Y-119.888
X89.632Y-68.864
X90.78Y-126.543
X91.567Y-120.777
X92.019Y-58.095
X92.151Y-128.27
X92.332Y-76.451
X92.659Y-129.489
X92.761Y-130.81
X93.726Y-132.08
X94.183Y-134.569
X95.235Y-138.43
X95.352Y-64.872
X95.504Y-139.649
X95.651Y-93.325
X96.774Y-129.159
X97.23Y-58.599
X97.536Y-127.762
X97.79Y-120.142
X98.343Y-129.901
X98.354Y-140.965
X98.384Y-116.078
X100.203Y-84.328
X100.457Y-68.961
X101.249Y-134.615
X101.452Y-59.889
X102.311Y-133.35
X102.362Y-56.007
X102.464Y-132.08
X102.743Y-68.961
X102.768Y-130.81
X103.022Y-127.0
X103.073Y-128.27
X103.124Y-72.517
X103.124Y-129.54
X103.886Y-77.089
X103.886Y-84.201
X104.364Y-58.72
X104.521Y-125.349
X104.775Y-139.7
X105.248Y-138.43
X105.664Y-60.071
X107.0Y-74.25
X107.447Y-55.012
X109.088Y-61.549
X109.088Y-62.921
X109.088Y-64.902
X109.24Y-73.843
X109.75Y-55.25
X109.952Y-69.22
X112.39Y-73.894
X112.522Y-78.359
X113.182Y-64.262
X113.64Y-81.94
T4
X91.44Y-88.9
X91.44Y-91.44
X91.44Y-93.98
X91.44Y-96.52
X91.44Y-99.06
X91.44Y-101.6
X91.44Y-104.14
X91.44Y-106.68
X91.44Y-109.22
X91.44Y-111.76
X91.44Y-114.3
X91.44Y-116.84
X104.14Y-88.9
X104.14Y-91.44
X104.14Y-93.98
X104.14Y-96.52
X104.14Y-99.06
X104.14Y-101.6
X104.14Y-104.14
X104.14Y-106.68
X104.14Y-109.22
X104.14Y-111.76
X104.14Y-114.3
X104.14Y-116.84
T5
X86.482Y-48.24
X91.562Y-48.24
T3
X100.501Y-47.603G85X100.501Y-46.303
G05
X100.501Y-51.278G85X100.501Y-50.278
G05
X109.141Y-47.603G85X109.141Y-46.303
G05
X109.141Y-51.278G85X109.141Y-50.278
G05
T0
M30
