G04 #@! TF.GenerationSoftware,KiCad,Pcbnew,(5.1.4-0-10_14)*
G04 #@! TF.CreationDate,2020-06-11T20:45:35+02:00*
G04 #@! TF.ProjectId,zArduino,7a417264-7569-46e6-9f2e-6b696361645f,rev?*
G04 #@! TF.SameCoordinates,Original*
G04 #@! TF.FileFunction,Other,ECO1*
%FSLAX46Y46*%
G04 Gerber Fmt 4.6, Leading zero omitted, Abs format (unit mm)*
G04 Created by KiCad (PCBNEW (5.1.4-0-10_14)) date 2020-06-11 20:45:35*
%MOMM*%
%LPD*%
G04 APERTURE LIST*
%ADD10C,0.150000*%
G04 APERTURE END LIST*
D10*
X196720824Y-96375282D02*
X196719699Y-95899093D01*
X196243397Y-95852600D01*
X196291128Y-95900106D01*
X196338972Y-95995232D01*
X196339535Y-96233326D01*
X196292142Y-96328677D01*
X196244635Y-96376408D01*
X196149510Y-96424252D01*
X195911415Y-96424815D01*
X195816065Y-96377421D01*
X195768334Y-96329915D01*
X195720489Y-96234790D01*
X195719927Y-95996695D01*
X195767320Y-95901345D01*
X195814827Y-95853613D01*
X196721725Y-96756234D02*
X196723188Y-97375280D01*
X196341449Y-97042848D01*
X196341787Y-97185705D01*
X196294393Y-97281055D01*
X196246887Y-97328786D01*
X196151761Y-97376630D01*
X195913667Y-97377193D01*
X195818316Y-97329800D01*
X195770585Y-97282293D01*
X195722741Y-97187168D01*
X195722065Y-96901455D01*
X195769459Y-96806104D01*
X195816966Y-96758373D01*
X195819442Y-97805989D02*
X195771936Y-97853720D01*
X195724204Y-97806214D01*
X195771711Y-97758482D01*
X195819442Y-97805989D01*
X195724204Y-97806214D01*
X196725102Y-98184801D02*
X196726678Y-98851466D01*
X195725668Y-98425260D01*
X196632228Y-99185023D02*
X196679960Y-99232530D01*
X196727804Y-99327655D01*
X196728367Y-99565750D01*
X196680973Y-99661100D01*
X196633467Y-99708832D01*
X196538341Y-99756676D01*
X196443104Y-99756901D01*
X196300134Y-99709620D01*
X195727356Y-99139543D01*
X195728820Y-99758589D01*
X195731071Y-100710968D02*
X195729721Y-100139541D01*
X195730396Y-100425254D02*
X196730393Y-100422890D01*
X196587311Y-100327990D01*
X196491848Y-100232977D01*
X196444004Y-100137852D01*
X195733886Y-101901441D02*
X196400551Y-101899864D01*
X196305313Y-101900090D02*
X196353044Y-101947596D01*
X196400888Y-102042721D01*
X196401226Y-102185578D01*
X196353832Y-102280928D01*
X196258707Y-102328772D01*
X195734899Y-102330011D01*
X196258707Y-102328772D02*
X196354057Y-102376166D01*
X196401901Y-102471291D01*
X196402239Y-102614148D01*
X196354845Y-102709499D01*
X196259720Y-102757343D01*
X195735912Y-102758581D01*
X195737038Y-103234770D02*
X196403703Y-103233194D01*
X196308465Y-103233419D02*
X196356196Y-103280926D01*
X196404040Y-103376051D01*
X196404378Y-103518908D01*
X196356984Y-103614258D01*
X196261859Y-103662102D01*
X195738051Y-103663340D01*
X196261859Y-103662102D02*
X196357209Y-103709496D01*
X196405054Y-103804621D01*
X196405391Y-103947478D01*
X196357998Y-104042828D01*
X196262872Y-104090672D01*
X195739064Y-104091911D01*
X194818267Y-73138188D02*
X194945267Y-126859188D01*
X188976000Y-73152000D02*
X195404686Y-73136802D01*
X189103000Y-126873000D02*
X195531686Y-126857802D01*
X194945267Y-126859188D02*
X194356185Y-125734074D01*
X194945267Y-126859188D02*
X195529023Y-125731301D01*
X194818267Y-73138188D02*
X194234511Y-74266075D01*
X194818267Y-73138188D02*
X195407349Y-74263302D01*
X149812833Y-58477380D02*
X149622357Y-58477380D01*
X149527119Y-58525000D01*
X149479500Y-58572619D01*
X149384261Y-58715476D01*
X149336642Y-58905952D01*
X149336642Y-59286904D01*
X149384261Y-59382142D01*
X149431880Y-59429761D01*
X149527119Y-59477380D01*
X149717595Y-59477380D01*
X149812833Y-59429761D01*
X149860452Y-59382142D01*
X149908071Y-59286904D01*
X149908071Y-59048809D01*
X149860452Y-58953571D01*
X149812833Y-58905952D01*
X149717595Y-58858333D01*
X149527119Y-58858333D01*
X149431880Y-58905952D01*
X149384261Y-58953571D01*
X149336642Y-59048809D01*
X150479500Y-58905952D02*
X150384261Y-58858333D01*
X150336642Y-58810714D01*
X150289023Y-58715476D01*
X150289023Y-58667857D01*
X150336642Y-58572619D01*
X150384261Y-58525000D01*
X150479500Y-58477380D01*
X150669976Y-58477380D01*
X150765214Y-58525000D01*
X150812833Y-58572619D01*
X150860452Y-58667857D01*
X150860452Y-58715476D01*
X150812833Y-58810714D01*
X150765214Y-58858333D01*
X150669976Y-58905952D01*
X150479500Y-58905952D01*
X150384261Y-58953571D01*
X150336642Y-59001190D01*
X150289023Y-59096428D01*
X150289023Y-59286904D01*
X150336642Y-59382142D01*
X150384261Y-59429761D01*
X150479500Y-59477380D01*
X150669976Y-59477380D01*
X150765214Y-59429761D01*
X150812833Y-59382142D01*
X150860452Y-59286904D01*
X150860452Y-59096428D01*
X150812833Y-59001190D01*
X150765214Y-58953571D01*
X150669976Y-58905952D01*
X151289023Y-59382142D02*
X151336642Y-59429761D01*
X151289023Y-59477380D01*
X151241404Y-59429761D01*
X151289023Y-59382142D01*
X151289023Y-59477380D01*
X151812833Y-59477380D02*
X152003309Y-59477380D01*
X152098547Y-59429761D01*
X152146166Y-59382142D01*
X152241404Y-59239285D01*
X152289023Y-59048809D01*
X152289023Y-58667857D01*
X152241404Y-58572619D01*
X152193785Y-58525000D01*
X152098547Y-58477380D01*
X151908071Y-58477380D01*
X151812833Y-58525000D01*
X151765214Y-58572619D01*
X151717595Y-58667857D01*
X151717595Y-58905952D01*
X151765214Y-59001190D01*
X151812833Y-59048809D01*
X151908071Y-59096428D01*
X152098547Y-59096428D01*
X152193785Y-59048809D01*
X152241404Y-59001190D01*
X152289023Y-58905952D01*
X153146166Y-58477380D02*
X152955690Y-58477380D01*
X152860452Y-58525000D01*
X152812833Y-58572619D01*
X152717595Y-58715476D01*
X152669976Y-58905952D01*
X152669976Y-59286904D01*
X152717595Y-59382142D01*
X152765214Y-59429761D01*
X152860452Y-59477380D01*
X153050928Y-59477380D01*
X153146166Y-59429761D01*
X153193785Y-59382142D01*
X153241404Y-59286904D01*
X153241404Y-59048809D01*
X153193785Y-58953571D01*
X153146166Y-58905952D01*
X153050928Y-58858333D01*
X152860452Y-58858333D01*
X152765214Y-58905952D01*
X152717595Y-58953571D01*
X152669976Y-59048809D01*
X154193785Y-59477380D02*
X153622357Y-59477380D01*
X153908071Y-59477380D02*
X153908071Y-58477380D01*
X153812833Y-58620238D01*
X153717595Y-58715476D01*
X153622357Y-58763095D01*
X155384261Y-59477380D02*
X155384261Y-58810714D01*
X155384261Y-58905952D02*
X155431880Y-58858333D01*
X155527119Y-58810714D01*
X155669976Y-58810714D01*
X155765214Y-58858333D01*
X155812833Y-58953571D01*
X155812833Y-59477380D01*
X155812833Y-58953571D02*
X155860452Y-58858333D01*
X155955690Y-58810714D01*
X156098547Y-58810714D01*
X156193785Y-58858333D01*
X156241404Y-58953571D01*
X156241404Y-59477380D01*
X156717595Y-59477380D02*
X156717595Y-58810714D01*
X156717595Y-58905952D02*
X156765214Y-58858333D01*
X156860452Y-58810714D01*
X157003309Y-58810714D01*
X157098547Y-58858333D01*
X157146166Y-58953571D01*
X157146166Y-59477380D01*
X157146166Y-58953571D02*
X157193785Y-58858333D01*
X157289023Y-58810714D01*
X157431880Y-58810714D01*
X157527119Y-58858333D01*
X157574738Y-58953571D01*
X157574738Y-59477380D01*
X118999000Y-60325000D02*
X187960000Y-60325000D01*
X118999000Y-68199000D02*
X118999000Y-59738579D01*
X187960000Y-68199000D02*
X187960000Y-59738579D01*
X187960000Y-60325000D02*
X186833496Y-60911421D01*
X187960000Y-60325000D02*
X186833496Y-59738579D01*
X118999000Y-60325000D02*
X120125504Y-60911421D01*
X118999000Y-60325000D02*
X120125504Y-59738579D01*
M02*
