M48
; DRILL file {KiCad (5.1.4-0-10_14)} date 2020 June 11, Thursday 20:45:42
; FORMAT={-:-/ absolute / metric / decimal}
; #@! TF.CreationDate,2020-06-11T20:45:42+02:00
; #@! TF.GenerationSoftware,Kicad,Pcbnew,(5.1.4-0-10_14)
; #@! TF.FileFunction,Plated,1,2,PTH
FMAT,2
METRIC
T1C0.400
T2C0.800
T3C0.920
T4C1.000
T5C2.330
%
G90
G05
T1
X120.65Y-105.156
X120.65Y-113.284
X120.65Y-114.3
X121.666Y-105.156
X121.666Y-113.284
X121.666Y-114.3
X124.714Y-105.156
X125.222Y-101.6
X125.846Y-99.3
X126.746Y-113.284
X128.27Y-95.758
X130.81Y-101.6
X132.842Y-103.124
X134.366Y-97.028
X135.026Y-93.98
X135.393Y-85.841
X136.093Y-103.251
X138.176Y-104.556
X138.582Y-83.668
X138.582Y-95.098
X138.938Y-92.71
X139.954Y-90.586
X140.284Y-106.858
X140.67Y-83.366
X141.732Y-101.854
X141.732Y-101.854
X143.586Y-94.259
X143.866Y-81.509
X143.983Y-98.044
X144.018Y-101.092
X148.971Y-95.504
X149.098Y-85.09
X151.054Y-93.015
X151.079Y-99.543
X151.282Y-81.509
X151.416Y-84.068
X171.958Y-111.252
X176.53Y-80.772
X179.197Y-98.679
X181.102Y-78.232
X181.864Y-92.71
X183.134Y-101.092
T2
X150.876Y-107.036
X150.876Y-114.656
X153.416Y-107.036
X153.416Y-114.656
X155.956Y-107.036
X155.956Y-114.656
X158.496Y-107.036
X158.496Y-114.656
X161.036Y-107.036
X161.036Y-114.656
X163.576Y-107.036
X163.576Y-114.656
X166.116Y-107.036
X166.116Y-114.656
X168.656Y-107.036
X168.656Y-114.656
X171.196Y-107.036
X171.196Y-114.656
X173.736Y-107.036
X173.736Y-114.656
X176.276Y-107.036
X176.276Y-114.656
X178.816Y-107.036
X178.816Y-114.656
X181.356Y-107.036
X181.356Y-114.656
X183.896Y-107.036
X183.896Y-114.656
T3
X125.94Y-87.721
X125.94Y-90.221
X127.94Y-87.721
X127.94Y-90.221
T4
X142.85Y-75.794
X147.93Y-75.794
X122.936Y-76.708
X151.968Y-124.054
X154.508Y-124.054
X157.048Y-124.054
X159.588Y-124.054
X162.128Y-124.054
X164.668Y-124.054
X125.476Y-76.708
X128.016Y-76.708
X164.668Y-75.794
X167.208Y-75.794
X169.748Y-75.794
X172.288Y-75.794
X174.828Y-75.794
X177.368Y-75.794
X179.908Y-75.794
X182.448Y-75.794
X137.77Y-75.794
X140.31Y-75.794
X169.774Y-124.054
X172.314Y-124.054
X174.854Y-124.054
X177.394Y-124.054
X179.934Y-124.054
X182.474Y-124.054
X145.39Y-75.794
X150.47Y-75.794
X130.556Y-76.708
X153.01Y-75.794
X155.55Y-75.794
X158.09Y-75.794
X160.63Y-75.794
X179.832Y-80.772
X179.832Y-83.312
X182.372Y-80.772
X182.372Y-83.312
X141.224Y-92.964
X141.224Y-95.504
X179.832Y-85.852
X182.372Y-85.852
T5
X123.23Y-82.951
X123.23Y-94.991
T2
G00X123.486Y-118.051
M15
G01X123.486Y-120.251
M16
G05
G00X125.186Y-123.951
M15
G01X127.386Y-123.951
M16
G05
G00X129.286Y-117.851
M15
G01X129.286Y-120.451
M16
G05
T0
M30
