G04 #@! TF.GenerationSoftware,KiCad,Pcbnew,(5.1.4-0-10_14)*
G04 #@! TF.CreationDate,2021-02-01T23:42:12+01:00*
G04 #@! TF.ProjectId,Display7447,44697370-6c61-4793-9734-34372e6b6963,rev?*
G04 #@! TF.SameCoordinates,Original*
G04 #@! TF.FileFunction,Soldermask,Bot*
G04 #@! TF.FilePolarity,Negative*
%FSLAX46Y46*%
G04 Gerber Fmt 4.6, Leading zero omitted, Abs format (unit mm)*
G04 Created by KiCad (PCBNEW (5.1.4-0-10_14)) date 2021-02-01 23:42:12*
%MOMM*%
%LPD*%
G04 APERTURE LIST*
%ADD10C,0.100000*%
G04 APERTURE END LIST*
D10*
G36*
X157601256Y-53763298D02*
G01*
X157707579Y-53784447D01*
X158008042Y-53908903D01*
X158278451Y-54089585D01*
X158508415Y-54319549D01*
X158689097Y-54589958D01*
X158689098Y-54589960D01*
X158725550Y-54677963D01*
X158813553Y-54890421D01*
X158877000Y-55209391D01*
X158877000Y-55534609D01*
X158813553Y-55853579D01*
X158689097Y-56154042D01*
X158508415Y-56424451D01*
X158278451Y-56654415D01*
X158008042Y-56835097D01*
X157707579Y-56959553D01*
X157601256Y-56980702D01*
X157388611Y-57023000D01*
X157063389Y-57023000D01*
X156850744Y-56980702D01*
X156744421Y-56959553D01*
X156443958Y-56835097D01*
X156173549Y-56654415D01*
X155943585Y-56424451D01*
X155762903Y-56154042D01*
X155638447Y-55853579D01*
X155575000Y-55534609D01*
X155575000Y-55209391D01*
X155638447Y-54890421D01*
X155726450Y-54677963D01*
X155762902Y-54589960D01*
X155762903Y-54589958D01*
X155943585Y-54319549D01*
X156173549Y-54089585D01*
X156443958Y-53908903D01*
X156744421Y-53784447D01*
X156850744Y-53763298D01*
X157063389Y-53721000D01*
X157388611Y-53721000D01*
X157601256Y-53763298D01*
X157601256Y-53763298D01*
G37*
G36*
X84195256Y-53763298D02*
G01*
X84301579Y-53784447D01*
X84602042Y-53908903D01*
X84872451Y-54089585D01*
X85102415Y-54319549D01*
X85283097Y-54589958D01*
X85283098Y-54589960D01*
X85319550Y-54677963D01*
X85407553Y-54890421D01*
X85471000Y-55209391D01*
X85471000Y-55534609D01*
X85407553Y-55853579D01*
X85283097Y-56154042D01*
X85102415Y-56424451D01*
X84872451Y-56654415D01*
X84602042Y-56835097D01*
X84301579Y-56959553D01*
X84195256Y-56980702D01*
X83982611Y-57023000D01*
X83657389Y-57023000D01*
X83444744Y-56980702D01*
X83338421Y-56959553D01*
X83037958Y-56835097D01*
X82767549Y-56654415D01*
X82537585Y-56424451D01*
X82356903Y-56154042D01*
X82232447Y-55853579D01*
X82169000Y-55534609D01*
X82169000Y-55209391D01*
X82232447Y-54890421D01*
X82320450Y-54677963D01*
X82356902Y-54589960D01*
X82356903Y-54589958D01*
X82537585Y-54319549D01*
X82767549Y-54089585D01*
X83037958Y-53908903D01*
X83338421Y-53784447D01*
X83444744Y-53763298D01*
X83657389Y-53721000D01*
X83982611Y-53721000D01*
X84195256Y-53763298D01*
X84195256Y-53763298D01*
G37*
G36*
X95135000Y-55257000D02*
G01*
X93333000Y-55257000D01*
X93333000Y-53455000D01*
X95135000Y-53455000D01*
X95135000Y-55257000D01*
X95135000Y-55257000D01*
G37*
G36*
X91804442Y-53461518D02*
G01*
X91870627Y-53468037D01*
X92040466Y-53519557D01*
X92196991Y-53603222D01*
X92232729Y-53632552D01*
X92334186Y-53715814D01*
X92414117Y-53813212D01*
X92446778Y-53853009D01*
X92530443Y-54009534D01*
X92581963Y-54179373D01*
X92599359Y-54356000D01*
X92581963Y-54532627D01*
X92530443Y-54702466D01*
X92446778Y-54858991D01*
X92420984Y-54890421D01*
X92334186Y-54996186D01*
X92232729Y-55079448D01*
X92196991Y-55108778D01*
X92040466Y-55192443D01*
X91870627Y-55243963D01*
X91804442Y-55250482D01*
X91738260Y-55257000D01*
X91649740Y-55257000D01*
X91583558Y-55250482D01*
X91517373Y-55243963D01*
X91347534Y-55192443D01*
X91191009Y-55108778D01*
X91155271Y-55079448D01*
X91053814Y-54996186D01*
X90967016Y-54890421D01*
X90941222Y-54858991D01*
X90857557Y-54702466D01*
X90806037Y-54532627D01*
X90788641Y-54356000D01*
X90806037Y-54179373D01*
X90857557Y-54009534D01*
X90941222Y-53853009D01*
X90973883Y-53813212D01*
X91053814Y-53715814D01*
X91155271Y-53632552D01*
X91191009Y-53603222D01*
X91347534Y-53519557D01*
X91517373Y-53468037D01*
X91583558Y-53461518D01*
X91649740Y-53455000D01*
X91738260Y-53455000D01*
X91804442Y-53461518D01*
X91804442Y-53461518D01*
G37*
G36*
X103771000Y-55257000D02*
G01*
X101969000Y-55257000D01*
X101969000Y-53455000D01*
X103771000Y-53455000D01*
X103771000Y-55257000D01*
X103771000Y-55257000D01*
G37*
G36*
X100440442Y-53461518D02*
G01*
X100506627Y-53468037D01*
X100676466Y-53519557D01*
X100832991Y-53603222D01*
X100868729Y-53632552D01*
X100970186Y-53715814D01*
X101050117Y-53813212D01*
X101082778Y-53853009D01*
X101166443Y-54009534D01*
X101217963Y-54179373D01*
X101235359Y-54356000D01*
X101217963Y-54532627D01*
X101166443Y-54702466D01*
X101082778Y-54858991D01*
X101056984Y-54890421D01*
X100970186Y-54996186D01*
X100868729Y-55079448D01*
X100832991Y-55108778D01*
X100676466Y-55192443D01*
X100506627Y-55243963D01*
X100440442Y-55250482D01*
X100374260Y-55257000D01*
X100285740Y-55257000D01*
X100219558Y-55250482D01*
X100153373Y-55243963D01*
X99983534Y-55192443D01*
X99827009Y-55108778D01*
X99791271Y-55079448D01*
X99689814Y-54996186D01*
X99603016Y-54890421D01*
X99577222Y-54858991D01*
X99493557Y-54702466D01*
X99442037Y-54532627D01*
X99424641Y-54356000D01*
X99442037Y-54179373D01*
X99493557Y-54009534D01*
X99577222Y-53853009D01*
X99609883Y-53813212D01*
X99689814Y-53715814D01*
X99791271Y-53632552D01*
X99827009Y-53603222D01*
X99983534Y-53519557D01*
X100153373Y-53468037D01*
X100219558Y-53461518D01*
X100285740Y-53455000D01*
X100374260Y-53455000D01*
X100440442Y-53461518D01*
X100440442Y-53461518D01*
G37*
G36*
X125295665Y-53354622D02*
G01*
X125369222Y-53361867D01*
X125510786Y-53404810D01*
X125641252Y-53474546D01*
X125671040Y-53498992D01*
X125755607Y-53568393D01*
X125825008Y-53652960D01*
X125849454Y-53682748D01*
X125919190Y-53813214D01*
X125962133Y-53954778D01*
X125976633Y-54102000D01*
X125962133Y-54249222D01*
X125919190Y-54390786D01*
X125849454Y-54521252D01*
X125825008Y-54551040D01*
X125755607Y-54635607D01*
X125674137Y-54702466D01*
X125641252Y-54729454D01*
X125510786Y-54799190D01*
X125369222Y-54842133D01*
X125295665Y-54849378D01*
X125258888Y-54853000D01*
X125185112Y-54853000D01*
X125148335Y-54849378D01*
X125074778Y-54842133D01*
X124933214Y-54799190D01*
X124802748Y-54729454D01*
X124769863Y-54702466D01*
X124688393Y-54635607D01*
X124618992Y-54551040D01*
X124594546Y-54521252D01*
X124524810Y-54390786D01*
X124481867Y-54249222D01*
X124467367Y-54102000D01*
X124481867Y-53954778D01*
X124524810Y-53813214D01*
X124594546Y-53682748D01*
X124618992Y-53652960D01*
X124688393Y-53568393D01*
X124772960Y-53498992D01*
X124802748Y-53474546D01*
X124933214Y-53404810D01*
X125074778Y-53361867D01*
X125148335Y-53354622D01*
X125185112Y-53351000D01*
X125258888Y-53351000D01*
X125295665Y-53354622D01*
X125295665Y-53354622D01*
G37*
G36*
X150695665Y-53354622D02*
G01*
X150769222Y-53361867D01*
X150910786Y-53404810D01*
X151041252Y-53474546D01*
X151071040Y-53498992D01*
X151155607Y-53568393D01*
X151225008Y-53652960D01*
X151249454Y-53682748D01*
X151319190Y-53813214D01*
X151362133Y-53954778D01*
X151376633Y-54102000D01*
X151362133Y-54249222D01*
X151319190Y-54390786D01*
X151249454Y-54521252D01*
X151225008Y-54551040D01*
X151155607Y-54635607D01*
X151074137Y-54702466D01*
X151041252Y-54729454D01*
X150910786Y-54799190D01*
X150769222Y-54842133D01*
X150695665Y-54849378D01*
X150658888Y-54853000D01*
X150585112Y-54853000D01*
X150548335Y-54849378D01*
X150474778Y-54842133D01*
X150333214Y-54799190D01*
X150202748Y-54729454D01*
X150169863Y-54702466D01*
X150088393Y-54635607D01*
X150018992Y-54551040D01*
X149994546Y-54521252D01*
X149924810Y-54390786D01*
X149881867Y-54249222D01*
X149867367Y-54102000D01*
X149881867Y-53954778D01*
X149924810Y-53813214D01*
X149994546Y-53682748D01*
X150018992Y-53652960D01*
X150088393Y-53568393D01*
X150172960Y-53498992D01*
X150202748Y-53474546D01*
X150333214Y-53404810D01*
X150474778Y-53361867D01*
X150548335Y-53354622D01*
X150585112Y-53351000D01*
X150658888Y-53351000D01*
X150695665Y-53354622D01*
X150695665Y-53354622D01*
G37*
G36*
X138249665Y-53354622D02*
G01*
X138323222Y-53361867D01*
X138464786Y-53404810D01*
X138595252Y-53474546D01*
X138625040Y-53498992D01*
X138709607Y-53568393D01*
X138779008Y-53652960D01*
X138803454Y-53682748D01*
X138873190Y-53813214D01*
X138916133Y-53954778D01*
X138930633Y-54102000D01*
X138916133Y-54249222D01*
X138873190Y-54390786D01*
X138803454Y-54521252D01*
X138779008Y-54551040D01*
X138709607Y-54635607D01*
X138628137Y-54702466D01*
X138595252Y-54729454D01*
X138464786Y-54799190D01*
X138323222Y-54842133D01*
X138249665Y-54849378D01*
X138212888Y-54853000D01*
X138139112Y-54853000D01*
X138102335Y-54849378D01*
X138028778Y-54842133D01*
X137887214Y-54799190D01*
X137756748Y-54729454D01*
X137723863Y-54702466D01*
X137642393Y-54635607D01*
X137572992Y-54551040D01*
X137548546Y-54521252D01*
X137478810Y-54390786D01*
X137435867Y-54249222D01*
X137421367Y-54102000D01*
X137435867Y-53954778D01*
X137478810Y-53813214D01*
X137548546Y-53682748D01*
X137572992Y-53652960D01*
X137642393Y-53568393D01*
X137726960Y-53498992D01*
X137756748Y-53474546D01*
X137887214Y-53404810D01*
X138028778Y-53361867D01*
X138102335Y-53354622D01*
X138139112Y-53351000D01*
X138212888Y-53351000D01*
X138249665Y-53354622D01*
X138249665Y-53354622D01*
G37*
G36*
X156039916Y-46422334D02*
G01*
X156148492Y-46455271D01*
X156148495Y-46455272D01*
X156181246Y-46472778D01*
X156248557Y-46508756D01*
X156336264Y-46580736D01*
X156408244Y-46668443D01*
X156425677Y-46701059D01*
X156461728Y-46768505D01*
X156461729Y-46768508D01*
X156494666Y-46877084D01*
X156505787Y-46990000D01*
X156494666Y-47102916D01*
X156463959Y-47204140D01*
X156461728Y-47211495D01*
X156450233Y-47233000D01*
X156408244Y-47311557D01*
X156336264Y-47399264D01*
X156248557Y-47471244D01*
X156177919Y-47509000D01*
X156167141Y-47514761D01*
X156146766Y-47528375D01*
X156129439Y-47545702D01*
X156115826Y-47566076D01*
X156106448Y-47588715D01*
X156101668Y-47612748D01*
X156101668Y-47637252D01*
X156106448Y-47661285D01*
X156115826Y-47683924D01*
X156129440Y-47704299D01*
X156146767Y-47721626D01*
X156167141Y-47735239D01*
X156248557Y-47778756D01*
X156336264Y-47850736D01*
X156408244Y-47938443D01*
X156425759Y-47971212D01*
X156461728Y-48038505D01*
X156461729Y-48038508D01*
X156494666Y-48147084D01*
X156505787Y-48260000D01*
X156494666Y-48372916D01*
X156462467Y-48479059D01*
X156461728Y-48481495D01*
X156442429Y-48517601D01*
X156408244Y-48581557D01*
X156336264Y-48669264D01*
X156259354Y-48732383D01*
X156242035Y-48749702D01*
X156228421Y-48770077D01*
X156219043Y-48792716D01*
X156214263Y-48816749D01*
X156214263Y-48841253D01*
X156219043Y-48865286D01*
X156228421Y-48887925D01*
X156242034Y-48908299D01*
X156259361Y-48925626D01*
X156279736Y-48939240D01*
X156302375Y-48948618D01*
X156326408Y-48953398D01*
X156338660Y-48954000D01*
X156503000Y-48954000D01*
X156503000Y-50106000D01*
X154901000Y-50106000D01*
X154901000Y-48954000D01*
X155065340Y-48954000D01*
X155089726Y-48951598D01*
X155113175Y-48944485D01*
X155134786Y-48932934D01*
X155153728Y-48917389D01*
X155169273Y-48898447D01*
X155180824Y-48876836D01*
X155187937Y-48853387D01*
X155190339Y-48829001D01*
X155187937Y-48804615D01*
X155180824Y-48781166D01*
X155169273Y-48759555D01*
X155153728Y-48740613D01*
X155144655Y-48732391D01*
X155067736Y-48669264D01*
X154995756Y-48581557D01*
X154961571Y-48517601D01*
X154942272Y-48481495D01*
X154941533Y-48479059D01*
X154909334Y-48372916D01*
X154898213Y-48260000D01*
X154909334Y-48147084D01*
X154942271Y-48038508D01*
X154942272Y-48038505D01*
X154978241Y-47971212D01*
X154995756Y-47938443D01*
X155067736Y-47850736D01*
X155155443Y-47778756D01*
X155236859Y-47735239D01*
X155257234Y-47721625D01*
X155274561Y-47704298D01*
X155288174Y-47683924D01*
X155297552Y-47661285D01*
X155302332Y-47637252D01*
X155302332Y-47612748D01*
X155297552Y-47588715D01*
X155288174Y-47566076D01*
X155274560Y-47545701D01*
X155257233Y-47528374D01*
X155236859Y-47514761D01*
X155226081Y-47509000D01*
X155155443Y-47471244D01*
X155067736Y-47399264D01*
X154995756Y-47311557D01*
X154953767Y-47233000D01*
X154942272Y-47211495D01*
X154940041Y-47204140D01*
X154909334Y-47102916D01*
X154898213Y-46990000D01*
X154909334Y-46877084D01*
X154942271Y-46768508D01*
X154942272Y-46768505D01*
X154978323Y-46701059D01*
X154995756Y-46668443D01*
X155067736Y-46580736D01*
X155155443Y-46508756D01*
X155222754Y-46472778D01*
X155255505Y-46455272D01*
X155255508Y-46455271D01*
X155364084Y-46422334D01*
X155448702Y-46414000D01*
X155955298Y-46414000D01*
X156039916Y-46422334D01*
X156039916Y-46422334D01*
G37*
G36*
X143593916Y-46422334D02*
G01*
X143702492Y-46455271D01*
X143702495Y-46455272D01*
X143735246Y-46472778D01*
X143802557Y-46508756D01*
X143890264Y-46580736D01*
X143962244Y-46668443D01*
X143979677Y-46701059D01*
X144015728Y-46768505D01*
X144015729Y-46768508D01*
X144048666Y-46877084D01*
X144059787Y-46990000D01*
X144048666Y-47102916D01*
X144017959Y-47204140D01*
X144015728Y-47211495D01*
X144004233Y-47233000D01*
X143962244Y-47311557D01*
X143890264Y-47399264D01*
X143802557Y-47471244D01*
X143731919Y-47509000D01*
X143721141Y-47514761D01*
X143700766Y-47528375D01*
X143683439Y-47545702D01*
X143669826Y-47566076D01*
X143660448Y-47588715D01*
X143655668Y-47612748D01*
X143655668Y-47637252D01*
X143660448Y-47661285D01*
X143669826Y-47683924D01*
X143683440Y-47704299D01*
X143700767Y-47721626D01*
X143721141Y-47735239D01*
X143802557Y-47778756D01*
X143890264Y-47850736D01*
X143962244Y-47938443D01*
X143979759Y-47971212D01*
X144015728Y-48038505D01*
X144015729Y-48038508D01*
X144048666Y-48147084D01*
X144059787Y-48260000D01*
X144048666Y-48372916D01*
X144016467Y-48479059D01*
X144015728Y-48481495D01*
X143996429Y-48517601D01*
X143962244Y-48581557D01*
X143890264Y-48669264D01*
X143813354Y-48732383D01*
X143796035Y-48749702D01*
X143782421Y-48770077D01*
X143773043Y-48792716D01*
X143768263Y-48816749D01*
X143768263Y-48841253D01*
X143773043Y-48865286D01*
X143782421Y-48887925D01*
X143796034Y-48908299D01*
X143813361Y-48925626D01*
X143833736Y-48939240D01*
X143856375Y-48948618D01*
X143880408Y-48953398D01*
X143892660Y-48954000D01*
X144057000Y-48954000D01*
X144057000Y-50106000D01*
X142455000Y-50106000D01*
X142455000Y-48954000D01*
X142619340Y-48954000D01*
X142643726Y-48951598D01*
X142667175Y-48944485D01*
X142688786Y-48932934D01*
X142707728Y-48917389D01*
X142723273Y-48898447D01*
X142734824Y-48876836D01*
X142741937Y-48853387D01*
X142744339Y-48829001D01*
X142741937Y-48804615D01*
X142734824Y-48781166D01*
X142723273Y-48759555D01*
X142707728Y-48740613D01*
X142698655Y-48732391D01*
X142621736Y-48669264D01*
X142549756Y-48581557D01*
X142515571Y-48517601D01*
X142496272Y-48481495D01*
X142495533Y-48479059D01*
X142463334Y-48372916D01*
X142452213Y-48260000D01*
X142463334Y-48147084D01*
X142496271Y-48038508D01*
X142496272Y-48038505D01*
X142532241Y-47971212D01*
X142549756Y-47938443D01*
X142621736Y-47850736D01*
X142709443Y-47778756D01*
X142790859Y-47735239D01*
X142811234Y-47721625D01*
X142828561Y-47704298D01*
X142842174Y-47683924D01*
X142851552Y-47661285D01*
X142856332Y-47637252D01*
X142856332Y-47612748D01*
X142851552Y-47588715D01*
X142842174Y-47566076D01*
X142828560Y-47545701D01*
X142811233Y-47528374D01*
X142790859Y-47514761D01*
X142780081Y-47509000D01*
X142709443Y-47471244D01*
X142621736Y-47399264D01*
X142549756Y-47311557D01*
X142507767Y-47233000D01*
X142496272Y-47211495D01*
X142494041Y-47204140D01*
X142463334Y-47102916D01*
X142452213Y-46990000D01*
X142463334Y-46877084D01*
X142496271Y-46768508D01*
X142496272Y-46768505D01*
X142532323Y-46701059D01*
X142549756Y-46668443D01*
X142621736Y-46580736D01*
X142709443Y-46508756D01*
X142776754Y-46472778D01*
X142809505Y-46455272D01*
X142809508Y-46455271D01*
X142918084Y-46422334D01*
X143002702Y-46414000D01*
X143509298Y-46414000D01*
X143593916Y-46422334D01*
X143593916Y-46422334D01*
G37*
G36*
X117431916Y-46422334D02*
G01*
X117540492Y-46455271D01*
X117540495Y-46455272D01*
X117573246Y-46472778D01*
X117640557Y-46508756D01*
X117728264Y-46580736D01*
X117800244Y-46668443D01*
X117817677Y-46701059D01*
X117853728Y-46768505D01*
X117853729Y-46768508D01*
X117886666Y-46877084D01*
X117897787Y-46990000D01*
X117886666Y-47102916D01*
X117855959Y-47204140D01*
X117853728Y-47211495D01*
X117842233Y-47233000D01*
X117800244Y-47311557D01*
X117728264Y-47399264D01*
X117640557Y-47471244D01*
X117569919Y-47509000D01*
X117559141Y-47514761D01*
X117538766Y-47528375D01*
X117521439Y-47545702D01*
X117507826Y-47566076D01*
X117498448Y-47588715D01*
X117493668Y-47612748D01*
X117493668Y-47637252D01*
X117498448Y-47661285D01*
X117507826Y-47683924D01*
X117521440Y-47704299D01*
X117538767Y-47721626D01*
X117559141Y-47735239D01*
X117640557Y-47778756D01*
X117728264Y-47850736D01*
X117800244Y-47938443D01*
X117817759Y-47971212D01*
X117853728Y-48038505D01*
X117853729Y-48038508D01*
X117886666Y-48147084D01*
X117897787Y-48260000D01*
X117886666Y-48372916D01*
X117854467Y-48479059D01*
X117853728Y-48481495D01*
X117834429Y-48517601D01*
X117800244Y-48581557D01*
X117728264Y-48669264D01*
X117651354Y-48732383D01*
X117634035Y-48749702D01*
X117620421Y-48770077D01*
X117611043Y-48792716D01*
X117606263Y-48816749D01*
X117606263Y-48841253D01*
X117611043Y-48865286D01*
X117620421Y-48887925D01*
X117634034Y-48908299D01*
X117651361Y-48925626D01*
X117671736Y-48939240D01*
X117694375Y-48948618D01*
X117718408Y-48953398D01*
X117730660Y-48954000D01*
X117895000Y-48954000D01*
X117895000Y-50106000D01*
X116293000Y-50106000D01*
X116293000Y-48954000D01*
X116457340Y-48954000D01*
X116481726Y-48951598D01*
X116505175Y-48944485D01*
X116526786Y-48932934D01*
X116545728Y-48917389D01*
X116561273Y-48898447D01*
X116572824Y-48876836D01*
X116579937Y-48853387D01*
X116582339Y-48829001D01*
X116579937Y-48804615D01*
X116572824Y-48781166D01*
X116561273Y-48759555D01*
X116545728Y-48740613D01*
X116536655Y-48732391D01*
X116459736Y-48669264D01*
X116387756Y-48581557D01*
X116353571Y-48517601D01*
X116334272Y-48481495D01*
X116333533Y-48479059D01*
X116301334Y-48372916D01*
X116290213Y-48260000D01*
X116301334Y-48147084D01*
X116334271Y-48038508D01*
X116334272Y-48038505D01*
X116370241Y-47971212D01*
X116387756Y-47938443D01*
X116459736Y-47850736D01*
X116547443Y-47778756D01*
X116628859Y-47735239D01*
X116649234Y-47721625D01*
X116666561Y-47704298D01*
X116680174Y-47683924D01*
X116689552Y-47661285D01*
X116694332Y-47637252D01*
X116694332Y-47612748D01*
X116689552Y-47588715D01*
X116680174Y-47566076D01*
X116666560Y-47545701D01*
X116649233Y-47528374D01*
X116628859Y-47514761D01*
X116618081Y-47509000D01*
X116547443Y-47471244D01*
X116459736Y-47399264D01*
X116387756Y-47311557D01*
X116345767Y-47233000D01*
X116334272Y-47211495D01*
X116332041Y-47204140D01*
X116301334Y-47102916D01*
X116290213Y-46990000D01*
X116301334Y-46877084D01*
X116334271Y-46768508D01*
X116334272Y-46768505D01*
X116370323Y-46701059D01*
X116387756Y-46668443D01*
X116459736Y-46580736D01*
X116547443Y-46508756D01*
X116614754Y-46472778D01*
X116647505Y-46455272D01*
X116647508Y-46455271D01*
X116756084Y-46422334D01*
X116840702Y-46414000D01*
X117347298Y-46414000D01*
X117431916Y-46422334D01*
X117431916Y-46422334D01*
G37*
G36*
X130639916Y-46422334D02*
G01*
X130748492Y-46455271D01*
X130748495Y-46455272D01*
X130781246Y-46472778D01*
X130848557Y-46508756D01*
X130936264Y-46580736D01*
X131008244Y-46668443D01*
X131025677Y-46701059D01*
X131061728Y-46768505D01*
X131061729Y-46768508D01*
X131094666Y-46877084D01*
X131105787Y-46990000D01*
X131094666Y-47102916D01*
X131063959Y-47204140D01*
X131061728Y-47211495D01*
X131050233Y-47233000D01*
X131008244Y-47311557D01*
X130936264Y-47399264D01*
X130848557Y-47471244D01*
X130777919Y-47509000D01*
X130767141Y-47514761D01*
X130746766Y-47528375D01*
X130729439Y-47545702D01*
X130715826Y-47566076D01*
X130706448Y-47588715D01*
X130701668Y-47612748D01*
X130701668Y-47637252D01*
X130706448Y-47661285D01*
X130715826Y-47683924D01*
X130729440Y-47704299D01*
X130746767Y-47721626D01*
X130767141Y-47735239D01*
X130848557Y-47778756D01*
X130936264Y-47850736D01*
X131008244Y-47938443D01*
X131025759Y-47971212D01*
X131061728Y-48038505D01*
X131061729Y-48038508D01*
X131094666Y-48147084D01*
X131105787Y-48260000D01*
X131094666Y-48372916D01*
X131062467Y-48479059D01*
X131061728Y-48481495D01*
X131042429Y-48517601D01*
X131008244Y-48581557D01*
X130936264Y-48669264D01*
X130859354Y-48732383D01*
X130842035Y-48749702D01*
X130828421Y-48770077D01*
X130819043Y-48792716D01*
X130814263Y-48816749D01*
X130814263Y-48841253D01*
X130819043Y-48865286D01*
X130828421Y-48887925D01*
X130842034Y-48908299D01*
X130859361Y-48925626D01*
X130879736Y-48939240D01*
X130902375Y-48948618D01*
X130926408Y-48953398D01*
X130938660Y-48954000D01*
X131103000Y-48954000D01*
X131103000Y-50106000D01*
X129501000Y-50106000D01*
X129501000Y-48954000D01*
X129665340Y-48954000D01*
X129689726Y-48951598D01*
X129713175Y-48944485D01*
X129734786Y-48932934D01*
X129753728Y-48917389D01*
X129769273Y-48898447D01*
X129780824Y-48876836D01*
X129787937Y-48853387D01*
X129790339Y-48829001D01*
X129787937Y-48804615D01*
X129780824Y-48781166D01*
X129769273Y-48759555D01*
X129753728Y-48740613D01*
X129744655Y-48732391D01*
X129667736Y-48669264D01*
X129595756Y-48581557D01*
X129561571Y-48517601D01*
X129542272Y-48481495D01*
X129541533Y-48479059D01*
X129509334Y-48372916D01*
X129498213Y-48260000D01*
X129509334Y-48147084D01*
X129542271Y-48038508D01*
X129542272Y-48038505D01*
X129578241Y-47971212D01*
X129595756Y-47938443D01*
X129667736Y-47850736D01*
X129755443Y-47778756D01*
X129836859Y-47735239D01*
X129857234Y-47721625D01*
X129874561Y-47704298D01*
X129888174Y-47683924D01*
X129897552Y-47661285D01*
X129902332Y-47637252D01*
X129902332Y-47612748D01*
X129897552Y-47588715D01*
X129888174Y-47566076D01*
X129874560Y-47545701D01*
X129857233Y-47528374D01*
X129836859Y-47514761D01*
X129826081Y-47509000D01*
X129755443Y-47471244D01*
X129667736Y-47399264D01*
X129595756Y-47311557D01*
X129553767Y-47233000D01*
X129542272Y-47211495D01*
X129540041Y-47204140D01*
X129509334Y-47102916D01*
X129498213Y-46990000D01*
X129509334Y-46877084D01*
X129542271Y-46768508D01*
X129542272Y-46768505D01*
X129578323Y-46701059D01*
X129595756Y-46668443D01*
X129667736Y-46580736D01*
X129755443Y-46508756D01*
X129822754Y-46472778D01*
X129855505Y-46455272D01*
X129855508Y-46455271D01*
X129964084Y-46422334D01*
X130048702Y-46414000D01*
X130555298Y-46414000D01*
X130639916Y-46422334D01*
X130639916Y-46422334D01*
G37*
G36*
X82689000Y-49161000D02*
G01*
X80887000Y-49161000D01*
X80887000Y-47359000D01*
X82689000Y-47359000D01*
X82689000Y-49161000D01*
X82689000Y-49161000D01*
G37*
G36*
X112995059Y-47537860D02*
G01*
X113117834Y-47588715D01*
X113131732Y-47594472D01*
X113254735Y-47676660D01*
X113359340Y-47781265D01*
X113441528Y-47904268D01*
X113498140Y-48040941D01*
X113527000Y-48186033D01*
X113527000Y-48333967D01*
X113498140Y-48479059D01*
X113441528Y-48615732D01*
X113359340Y-48738735D01*
X113254735Y-48843340D01*
X113131732Y-48925528D01*
X113131731Y-48925529D01*
X113131730Y-48925529D01*
X112995059Y-48982140D01*
X112849968Y-49011000D01*
X112702032Y-49011000D01*
X112556941Y-48982140D01*
X112420270Y-48925529D01*
X112420269Y-48925529D01*
X112420268Y-48925528D01*
X112297265Y-48843340D01*
X112192660Y-48738735D01*
X112110472Y-48615732D01*
X112053860Y-48479059D01*
X112025000Y-48333967D01*
X112025000Y-48186033D01*
X112053860Y-48040941D01*
X112110472Y-47904268D01*
X112192660Y-47781265D01*
X112297265Y-47676660D01*
X112420268Y-47594472D01*
X112434167Y-47588715D01*
X112556941Y-47537860D01*
X112702032Y-47509000D01*
X112849968Y-47509000D01*
X112995059Y-47537860D01*
X112995059Y-47537860D01*
G37*
G36*
X105229665Y-47512622D02*
G01*
X105303222Y-47519867D01*
X105444786Y-47562810D01*
X105575252Y-47632546D01*
X105580986Y-47637252D01*
X105689607Y-47726393D01*
X105759008Y-47810960D01*
X105783454Y-47840748D01*
X105783455Y-47840750D01*
X105835675Y-47938445D01*
X105853190Y-47971214D01*
X105896133Y-48112778D01*
X105910633Y-48260000D01*
X105896133Y-48407222D01*
X105853190Y-48548786D01*
X105853189Y-48548788D01*
X105835673Y-48581557D01*
X105783454Y-48679252D01*
X105759008Y-48709040D01*
X105689607Y-48793607D01*
X105629004Y-48843341D01*
X105575252Y-48887454D01*
X105575250Y-48887455D01*
X105490166Y-48932934D01*
X105444786Y-48957190D01*
X105303222Y-49000133D01*
X105229665Y-49007378D01*
X105192888Y-49011000D01*
X105119112Y-49011000D01*
X105082335Y-49007378D01*
X105008778Y-49000133D01*
X104867214Y-48957190D01*
X104821835Y-48932934D01*
X104736750Y-48887455D01*
X104736748Y-48887454D01*
X104682996Y-48843341D01*
X104622393Y-48793607D01*
X104552992Y-48709040D01*
X104528546Y-48679252D01*
X104476327Y-48581557D01*
X104458811Y-48548788D01*
X104458810Y-48548786D01*
X104415867Y-48407222D01*
X104401367Y-48260000D01*
X104415867Y-48112778D01*
X104458810Y-47971214D01*
X104476326Y-47938445D01*
X104528545Y-47840750D01*
X104528546Y-47840748D01*
X104552992Y-47810960D01*
X104622393Y-47726393D01*
X104731014Y-47637252D01*
X104736748Y-47632546D01*
X104867214Y-47562810D01*
X105008778Y-47519867D01*
X105082335Y-47512622D01*
X105119112Y-47509000D01*
X105192888Y-47509000D01*
X105229665Y-47512622D01*
X105229665Y-47512622D01*
G37*
G36*
X138395059Y-45759860D02*
G01*
X138480718Y-45795341D01*
X138531732Y-45816472D01*
X138654735Y-45898660D01*
X138759340Y-46003265D01*
X138801571Y-46066468D01*
X138841529Y-46126270D01*
X138898140Y-46262941D01*
X138927000Y-46408032D01*
X138927000Y-46555968D01*
X138904628Y-46668443D01*
X138898140Y-46701059D01*
X138841528Y-46837732D01*
X138759340Y-46960735D01*
X138654735Y-47065340D01*
X138531732Y-47147528D01*
X138531731Y-47147529D01*
X138531730Y-47147529D01*
X138395059Y-47204140D01*
X138249968Y-47233000D01*
X138102032Y-47233000D01*
X137956941Y-47204140D01*
X137820270Y-47147529D01*
X137820269Y-47147529D01*
X137820268Y-47147528D01*
X137697265Y-47065340D01*
X137592660Y-46960735D01*
X137510472Y-46837732D01*
X137453860Y-46701059D01*
X137447372Y-46668443D01*
X137425000Y-46555968D01*
X137425000Y-46408032D01*
X137453860Y-46262941D01*
X137510471Y-46126270D01*
X137550429Y-46066468D01*
X137592660Y-46003265D01*
X137697265Y-45898660D01*
X137820268Y-45816472D01*
X137871283Y-45795341D01*
X137956941Y-45759860D01*
X138102032Y-45731000D01*
X138249968Y-45731000D01*
X138395059Y-45759860D01*
X138395059Y-45759860D01*
G37*
G36*
X125441059Y-45759860D02*
G01*
X125526718Y-45795341D01*
X125577732Y-45816472D01*
X125700735Y-45898660D01*
X125805340Y-46003265D01*
X125847571Y-46066468D01*
X125887529Y-46126270D01*
X125944140Y-46262941D01*
X125973000Y-46408032D01*
X125973000Y-46555968D01*
X125950628Y-46668443D01*
X125944140Y-46701059D01*
X125887528Y-46837732D01*
X125805340Y-46960735D01*
X125700735Y-47065340D01*
X125577732Y-47147528D01*
X125577731Y-47147529D01*
X125577730Y-47147529D01*
X125441059Y-47204140D01*
X125295968Y-47233000D01*
X125148032Y-47233000D01*
X125002941Y-47204140D01*
X124866270Y-47147529D01*
X124866269Y-47147529D01*
X124866268Y-47147528D01*
X124743265Y-47065340D01*
X124638660Y-46960735D01*
X124556472Y-46837732D01*
X124499860Y-46701059D01*
X124493372Y-46668443D01*
X124471000Y-46555968D01*
X124471000Y-46408032D01*
X124499860Y-46262941D01*
X124556471Y-46126270D01*
X124596429Y-46066468D01*
X124638660Y-46003265D01*
X124743265Y-45898660D01*
X124866268Y-45816472D01*
X124917283Y-45795341D01*
X125002941Y-45759860D01*
X125148032Y-45731000D01*
X125295968Y-45731000D01*
X125441059Y-45759860D01*
X125441059Y-45759860D01*
G37*
G36*
X150841059Y-45759860D02*
G01*
X150926718Y-45795341D01*
X150977732Y-45816472D01*
X151100735Y-45898660D01*
X151205340Y-46003265D01*
X151247571Y-46066468D01*
X151287529Y-46126270D01*
X151344140Y-46262941D01*
X151373000Y-46408032D01*
X151373000Y-46555968D01*
X151350628Y-46668443D01*
X151344140Y-46701059D01*
X151287528Y-46837732D01*
X151205340Y-46960735D01*
X151100735Y-47065340D01*
X150977732Y-47147528D01*
X150977731Y-47147529D01*
X150977730Y-47147529D01*
X150841059Y-47204140D01*
X150695968Y-47233000D01*
X150548032Y-47233000D01*
X150402941Y-47204140D01*
X150266270Y-47147529D01*
X150266269Y-47147529D01*
X150266268Y-47147528D01*
X150143265Y-47065340D01*
X150038660Y-46960735D01*
X149956472Y-46837732D01*
X149899860Y-46701059D01*
X149893372Y-46668443D01*
X149871000Y-46555968D01*
X149871000Y-46408032D01*
X149899860Y-46262941D01*
X149956471Y-46126270D01*
X149996429Y-46066468D01*
X150038660Y-46003265D01*
X150143265Y-45898660D01*
X150266268Y-45816472D01*
X150317283Y-45795341D01*
X150402941Y-45759860D01*
X150548032Y-45731000D01*
X150695968Y-45731000D01*
X150841059Y-45759860D01*
X150841059Y-45759860D01*
G37*
G36*
X81898442Y-44825518D02*
G01*
X81964627Y-44832037D01*
X82134466Y-44883557D01*
X82290991Y-44967222D01*
X82322329Y-44992941D01*
X82428186Y-45079814D01*
X82475964Y-45138033D01*
X82540778Y-45217009D01*
X82624443Y-45373534D01*
X82675963Y-45543373D01*
X82693359Y-45720000D01*
X82675963Y-45896627D01*
X82624443Y-46066466D01*
X82540778Y-46222991D01*
X82511448Y-46258729D01*
X82428186Y-46360186D01*
X82362612Y-46414000D01*
X82290991Y-46472778D01*
X82134466Y-46556443D01*
X81964627Y-46607963D01*
X81898443Y-46614481D01*
X81832260Y-46621000D01*
X81743740Y-46621000D01*
X81677558Y-46614482D01*
X81611373Y-46607963D01*
X81441534Y-46556443D01*
X81285009Y-46472778D01*
X81213388Y-46414000D01*
X81147814Y-46360186D01*
X81064552Y-46258729D01*
X81035222Y-46222991D01*
X80951557Y-46066466D01*
X80900037Y-45896627D01*
X80882641Y-45720000D01*
X80900037Y-45543373D01*
X80951557Y-45373534D01*
X81035222Y-45217009D01*
X81100036Y-45138033D01*
X81147814Y-45079814D01*
X81253671Y-44992941D01*
X81285009Y-44967222D01*
X81441534Y-44883557D01*
X81611373Y-44832037D01*
X81677558Y-44825518D01*
X81743740Y-44819000D01*
X81832260Y-44819000D01*
X81898442Y-44825518D01*
X81898442Y-44825518D01*
G37*
G36*
X96324823Y-44373313D02*
G01*
X96485242Y-44421976D01*
X96578581Y-44471867D01*
X96633078Y-44500996D01*
X96762659Y-44607341D01*
X96869004Y-44736922D01*
X96869005Y-44736924D01*
X96948024Y-44884758D01*
X96996687Y-45045177D01*
X97013117Y-45212000D01*
X96996687Y-45378823D01*
X96948024Y-45539242D01*
X96877114Y-45671906D01*
X96869004Y-45687078D01*
X96762659Y-45816659D01*
X96633078Y-45923004D01*
X96633076Y-45923005D01*
X96485242Y-46002024D01*
X96485239Y-46002025D01*
X96455380Y-46011083D01*
X96324823Y-46050687D01*
X96199804Y-46063000D01*
X95316196Y-46063000D01*
X95191177Y-46050687D01*
X95060620Y-46011083D01*
X95030761Y-46002025D01*
X95030758Y-46002024D01*
X94882924Y-45923005D01*
X94882922Y-45923004D01*
X94753341Y-45816659D01*
X94646996Y-45687078D01*
X94638886Y-45671906D01*
X94567976Y-45539242D01*
X94519313Y-45378823D01*
X94502883Y-45212000D01*
X94519313Y-45045177D01*
X94567976Y-44884758D01*
X94646995Y-44736924D01*
X94646996Y-44736922D01*
X94753341Y-44607341D01*
X94882922Y-44500996D01*
X94937419Y-44471867D01*
X95030758Y-44421976D01*
X95191177Y-44373313D01*
X95316196Y-44361000D01*
X96199804Y-44361000D01*
X96324823Y-44373313D01*
X96324823Y-44373313D01*
G37*
G36*
X88704823Y-44373313D02*
G01*
X88865242Y-44421976D01*
X88958581Y-44471867D01*
X89013078Y-44500996D01*
X89142659Y-44607341D01*
X89249004Y-44736922D01*
X89249005Y-44736924D01*
X89328024Y-44884758D01*
X89376687Y-45045177D01*
X89393117Y-45212000D01*
X89376687Y-45378823D01*
X89328024Y-45539242D01*
X89257114Y-45671906D01*
X89249004Y-45687078D01*
X89142659Y-45816659D01*
X89013078Y-45923004D01*
X89013076Y-45923005D01*
X88865242Y-46002024D01*
X88865239Y-46002025D01*
X88835380Y-46011083D01*
X88704823Y-46050687D01*
X88579804Y-46063000D01*
X87696196Y-46063000D01*
X87571177Y-46050687D01*
X87440620Y-46011083D01*
X87410761Y-46002025D01*
X87410758Y-46002024D01*
X87262924Y-45923005D01*
X87262922Y-45923004D01*
X87133341Y-45816659D01*
X87026996Y-45687078D01*
X87018886Y-45671906D01*
X86947976Y-45539242D01*
X86899313Y-45378823D01*
X86882883Y-45212000D01*
X86899313Y-45045177D01*
X86947976Y-44884758D01*
X87026995Y-44736924D01*
X87026996Y-44736922D01*
X87133341Y-44607341D01*
X87262922Y-44500996D01*
X87317419Y-44471867D01*
X87410758Y-44421976D01*
X87571177Y-44373313D01*
X87696196Y-44361000D01*
X88579804Y-44361000D01*
X88704823Y-44373313D01*
X88704823Y-44373313D01*
G37*
G36*
X100657665Y-44464622D02*
G01*
X100731222Y-44471867D01*
X100872786Y-44514810D01*
X101003252Y-44584546D01*
X101031028Y-44607341D01*
X101117607Y-44678393D01*
X101187008Y-44762960D01*
X101211454Y-44792748D01*
X101281190Y-44923214D01*
X101324133Y-45064778D01*
X101338633Y-45212000D01*
X101324133Y-45359222D01*
X101281190Y-45500786D01*
X101211454Y-45631252D01*
X101187008Y-45661040D01*
X101117607Y-45745607D01*
X101057004Y-45795341D01*
X101003252Y-45839454D01*
X100872786Y-45909190D01*
X100731222Y-45952133D01*
X100657665Y-45959378D01*
X100620888Y-45963000D01*
X100547112Y-45963000D01*
X100510335Y-45959378D01*
X100436778Y-45952133D01*
X100295214Y-45909190D01*
X100164748Y-45839454D01*
X100110996Y-45795341D01*
X100050393Y-45745607D01*
X99980992Y-45661040D01*
X99956546Y-45631252D01*
X99886810Y-45500786D01*
X99843867Y-45359222D01*
X99829367Y-45212000D01*
X99843867Y-45064778D01*
X99886810Y-44923214D01*
X99956546Y-44792748D01*
X99980992Y-44762960D01*
X100050393Y-44678393D01*
X100136972Y-44607341D01*
X100164748Y-44584546D01*
X100295214Y-44514810D01*
X100436778Y-44471867D01*
X100510335Y-44464622D01*
X100547112Y-44461000D01*
X100620888Y-44461000D01*
X100657665Y-44464622D01*
X100657665Y-44464622D01*
G37*
G36*
X108423059Y-44489860D02*
G01*
X108483294Y-44514810D01*
X108559732Y-44546472D01*
X108682735Y-44628660D01*
X108787340Y-44733265D01*
X108869528Y-44856268D01*
X108926140Y-44992941D01*
X108955000Y-45138033D01*
X108955000Y-45285967D01*
X108926140Y-45431059D01*
X108869528Y-45567732D01*
X108787340Y-45690735D01*
X108682735Y-45795340D01*
X108559732Y-45877528D01*
X108559731Y-45877529D01*
X108559730Y-45877529D01*
X108423059Y-45934140D01*
X108277968Y-45963000D01*
X108130032Y-45963000D01*
X107984941Y-45934140D01*
X107848270Y-45877529D01*
X107848269Y-45877529D01*
X107848268Y-45877528D01*
X107725265Y-45795340D01*
X107620660Y-45690735D01*
X107538472Y-45567732D01*
X107481860Y-45431059D01*
X107453000Y-45285967D01*
X107453000Y-45138033D01*
X107481860Y-44992941D01*
X107538472Y-44856268D01*
X107620660Y-44733265D01*
X107725265Y-44628660D01*
X107848268Y-44546472D01*
X107924707Y-44514810D01*
X107984941Y-44489860D01*
X108130032Y-44461000D01*
X108277968Y-44461000D01*
X108423059Y-44489860D01*
X108423059Y-44489860D01*
G37*
G36*
X81898442Y-42285518D02*
G01*
X81964627Y-42292037D01*
X82134466Y-42343557D01*
X82290991Y-42427222D01*
X82322329Y-42452941D01*
X82428186Y-42539814D01*
X82475964Y-42598033D01*
X82540778Y-42677009D01*
X82624443Y-42833534D01*
X82675963Y-43003373D01*
X82693359Y-43180000D01*
X82675963Y-43356627D01*
X82624443Y-43526466D01*
X82540778Y-43682991D01*
X82511448Y-43718729D01*
X82428186Y-43820186D01*
X82326729Y-43903448D01*
X82290991Y-43932778D01*
X82134466Y-44016443D01*
X81964627Y-44067963D01*
X81898443Y-44074481D01*
X81832260Y-44081000D01*
X81743740Y-44081000D01*
X81677557Y-44074481D01*
X81611373Y-44067963D01*
X81441534Y-44016443D01*
X81285009Y-43932778D01*
X81249271Y-43903448D01*
X81147814Y-43820186D01*
X81064552Y-43718729D01*
X81035222Y-43682991D01*
X80951557Y-43526466D01*
X80900037Y-43356627D01*
X80882641Y-43180000D01*
X80900037Y-43003373D01*
X80951557Y-42833534D01*
X81035222Y-42677009D01*
X81100036Y-42598033D01*
X81147814Y-42539814D01*
X81253671Y-42452941D01*
X81285009Y-42427222D01*
X81441534Y-42343557D01*
X81611373Y-42292037D01*
X81677558Y-42285518D01*
X81743740Y-42279000D01*
X81832260Y-42279000D01*
X81898442Y-42285518D01*
X81898442Y-42285518D01*
G37*
G36*
X96324823Y-41833313D02*
G01*
X96485242Y-41881976D01*
X96578581Y-41931867D01*
X96633078Y-41960996D01*
X96762659Y-42067341D01*
X96869004Y-42196922D01*
X96869005Y-42196924D01*
X96948024Y-42344758D01*
X96996687Y-42505177D01*
X97013117Y-42672000D01*
X96996687Y-42838823D01*
X96948024Y-42999242D01*
X96877114Y-43131906D01*
X96869004Y-43147078D01*
X96762659Y-43276659D01*
X96633078Y-43383004D01*
X96633076Y-43383005D01*
X96485242Y-43462024D01*
X96324823Y-43510687D01*
X96199804Y-43523000D01*
X95316196Y-43523000D01*
X95191177Y-43510687D01*
X95030758Y-43462024D01*
X94882924Y-43383005D01*
X94882922Y-43383004D01*
X94753341Y-43276659D01*
X94646996Y-43147078D01*
X94638886Y-43131906D01*
X94567976Y-42999242D01*
X94519313Y-42838823D01*
X94502883Y-42672000D01*
X94519313Y-42505177D01*
X94567976Y-42344758D01*
X94646995Y-42196924D01*
X94646996Y-42196922D01*
X94753341Y-42067341D01*
X94882922Y-41960996D01*
X94937419Y-41931867D01*
X95030758Y-41881976D01*
X95191177Y-41833313D01*
X95316196Y-41821000D01*
X96199804Y-41821000D01*
X96324823Y-41833313D01*
X96324823Y-41833313D01*
G37*
G36*
X88704823Y-41833313D02*
G01*
X88865242Y-41881976D01*
X88958581Y-41931867D01*
X89013078Y-41960996D01*
X89142659Y-42067341D01*
X89249004Y-42196922D01*
X89249005Y-42196924D01*
X89328024Y-42344758D01*
X89376687Y-42505177D01*
X89393117Y-42672000D01*
X89376687Y-42838823D01*
X89328024Y-42999242D01*
X89257114Y-43131906D01*
X89249004Y-43147078D01*
X89142659Y-43276659D01*
X89013078Y-43383004D01*
X89013076Y-43383005D01*
X88865242Y-43462024D01*
X88704823Y-43510687D01*
X88579804Y-43523000D01*
X87696196Y-43523000D01*
X87571177Y-43510687D01*
X87410758Y-43462024D01*
X87262924Y-43383005D01*
X87262922Y-43383004D01*
X87133341Y-43276659D01*
X87026996Y-43147078D01*
X87018886Y-43131906D01*
X86947976Y-42999242D01*
X86899313Y-42838823D01*
X86882883Y-42672000D01*
X86899313Y-42505177D01*
X86947976Y-42344758D01*
X87026995Y-42196924D01*
X87026996Y-42196922D01*
X87133341Y-42067341D01*
X87262922Y-41960996D01*
X87317419Y-41931867D01*
X87410758Y-41881976D01*
X87571177Y-41833313D01*
X87696196Y-41821000D01*
X88579804Y-41821000D01*
X88704823Y-41833313D01*
X88704823Y-41833313D01*
G37*
G36*
X100657665Y-41924622D02*
G01*
X100731222Y-41931867D01*
X100872786Y-41974810D01*
X101003252Y-42044546D01*
X101031028Y-42067341D01*
X101117607Y-42138393D01*
X101187008Y-42222960D01*
X101211454Y-42252748D01*
X101281190Y-42383214D01*
X101324133Y-42524778D01*
X101338633Y-42672000D01*
X101324133Y-42819222D01*
X101281190Y-42960786D01*
X101211454Y-43091252D01*
X101187008Y-43121040D01*
X101117607Y-43205607D01*
X101057004Y-43255341D01*
X101003252Y-43299454D01*
X100872786Y-43369190D01*
X100731222Y-43412133D01*
X100657665Y-43419378D01*
X100620888Y-43423000D01*
X100547112Y-43423000D01*
X100510335Y-43419378D01*
X100436778Y-43412133D01*
X100295214Y-43369190D01*
X100164748Y-43299454D01*
X100110996Y-43255341D01*
X100050393Y-43205607D01*
X99980992Y-43121040D01*
X99956546Y-43091252D01*
X99886810Y-42960786D01*
X99843867Y-42819222D01*
X99829367Y-42672000D01*
X99843867Y-42524778D01*
X99886810Y-42383214D01*
X99956546Y-42252748D01*
X99980992Y-42222960D01*
X100050393Y-42138393D01*
X100136972Y-42067341D01*
X100164748Y-42044546D01*
X100295214Y-41974810D01*
X100436778Y-41931867D01*
X100510335Y-41924622D01*
X100547112Y-41921000D01*
X100620888Y-41921000D01*
X100657665Y-41924622D01*
X100657665Y-41924622D01*
G37*
G36*
X108423059Y-41949860D02*
G01*
X108520147Y-41990075D01*
X108559732Y-42006472D01*
X108682735Y-42088660D01*
X108787340Y-42193265D01*
X108869528Y-42316268D01*
X108926140Y-42452941D01*
X108955000Y-42598033D01*
X108955000Y-42745967D01*
X108926140Y-42891059D01*
X108869528Y-43027732D01*
X108787340Y-43150735D01*
X108682735Y-43255340D01*
X108559732Y-43337528D01*
X108559731Y-43337529D01*
X108559730Y-43337529D01*
X108423059Y-43394140D01*
X108277968Y-43423000D01*
X108130032Y-43423000D01*
X107984941Y-43394140D01*
X107848270Y-43337529D01*
X107848269Y-43337529D01*
X107848268Y-43337528D01*
X107725265Y-43255340D01*
X107620660Y-43150735D01*
X107538472Y-43027732D01*
X107481860Y-42891059D01*
X107453000Y-42745967D01*
X107453000Y-42598033D01*
X107481860Y-42452941D01*
X107538472Y-42316268D01*
X107620660Y-42193265D01*
X107725265Y-42088660D01*
X107848268Y-42006472D01*
X107887854Y-41990075D01*
X107984941Y-41949860D01*
X108130032Y-41921000D01*
X108277968Y-41921000D01*
X108423059Y-41949860D01*
X108423059Y-41949860D01*
G37*
G36*
X151367142Y-41128242D02*
G01*
X151515101Y-41189529D01*
X151648255Y-41278499D01*
X151761501Y-41391745D01*
X151850471Y-41524899D01*
X151911758Y-41672858D01*
X151943000Y-41829925D01*
X151943000Y-41990075D01*
X151911758Y-42147142D01*
X151850471Y-42295101D01*
X151761501Y-42428255D01*
X151648255Y-42541501D01*
X151515101Y-42630471D01*
X151367142Y-42691758D01*
X151210075Y-42723000D01*
X151049925Y-42723000D01*
X150892858Y-42691758D01*
X150744899Y-42630471D01*
X150611745Y-42541501D01*
X150498499Y-42428255D01*
X150409529Y-42295101D01*
X150348242Y-42147142D01*
X150317000Y-41990075D01*
X150317000Y-41829925D01*
X150348242Y-41672858D01*
X150409529Y-41524899D01*
X150498499Y-41391745D01*
X150611745Y-41278499D01*
X150744899Y-41189529D01*
X150892858Y-41128242D01*
X151049925Y-41097000D01*
X151210075Y-41097000D01*
X151367142Y-41128242D01*
X151367142Y-41128242D01*
G37*
G36*
X146287142Y-41128242D02*
G01*
X146435101Y-41189529D01*
X146568255Y-41278499D01*
X146681501Y-41391745D01*
X146770471Y-41524899D01*
X146831758Y-41672858D01*
X146863000Y-41829925D01*
X146863000Y-41990075D01*
X146831758Y-42147142D01*
X146770471Y-42295101D01*
X146681501Y-42428255D01*
X146568255Y-42541501D01*
X146435101Y-42630471D01*
X146287142Y-42691758D01*
X146130075Y-42723000D01*
X145969925Y-42723000D01*
X145812858Y-42691758D01*
X145664899Y-42630471D01*
X145531745Y-42541501D01*
X145418499Y-42428255D01*
X145329529Y-42295101D01*
X145268242Y-42147142D01*
X145237000Y-41990075D01*
X145237000Y-41829925D01*
X145268242Y-41672858D01*
X145329529Y-41524899D01*
X145418499Y-41391745D01*
X145531745Y-41278499D01*
X145664899Y-41189529D01*
X145812858Y-41128242D01*
X145969925Y-41097000D01*
X146130075Y-41097000D01*
X146287142Y-41128242D01*
X146287142Y-41128242D01*
G37*
G36*
X138667142Y-41128242D02*
G01*
X138815101Y-41189529D01*
X138948255Y-41278499D01*
X139061501Y-41391745D01*
X139150471Y-41524899D01*
X139211758Y-41672858D01*
X139243000Y-41829925D01*
X139243000Y-41990075D01*
X139211758Y-42147142D01*
X139150471Y-42295101D01*
X139061501Y-42428255D01*
X138948255Y-42541501D01*
X138815101Y-42630471D01*
X138667142Y-42691758D01*
X138510075Y-42723000D01*
X138349925Y-42723000D01*
X138192858Y-42691758D01*
X138044899Y-42630471D01*
X137911745Y-42541501D01*
X137798499Y-42428255D01*
X137709529Y-42295101D01*
X137648242Y-42147142D01*
X137617000Y-41990075D01*
X137617000Y-41829925D01*
X137648242Y-41672858D01*
X137709529Y-41524899D01*
X137798499Y-41391745D01*
X137911745Y-41278499D01*
X138044899Y-41189529D01*
X138192858Y-41128242D01*
X138349925Y-41097000D01*
X138510075Y-41097000D01*
X138667142Y-41128242D01*
X138667142Y-41128242D01*
G37*
G36*
X133587142Y-41128242D02*
G01*
X133735101Y-41189529D01*
X133868255Y-41278499D01*
X133981501Y-41391745D01*
X134070471Y-41524899D01*
X134131758Y-41672858D01*
X134163000Y-41829925D01*
X134163000Y-41990075D01*
X134131758Y-42147142D01*
X134070471Y-42295101D01*
X133981501Y-42428255D01*
X133868255Y-42541501D01*
X133735101Y-42630471D01*
X133587142Y-42691758D01*
X133430075Y-42723000D01*
X133269925Y-42723000D01*
X133112858Y-42691758D01*
X132964899Y-42630471D01*
X132831745Y-42541501D01*
X132718499Y-42428255D01*
X132629529Y-42295101D01*
X132568242Y-42147142D01*
X132537000Y-41990075D01*
X132537000Y-41829925D01*
X132568242Y-41672858D01*
X132629529Y-41524899D01*
X132718499Y-41391745D01*
X132831745Y-41278499D01*
X132964899Y-41189529D01*
X133112858Y-41128242D01*
X133269925Y-41097000D01*
X133430075Y-41097000D01*
X133587142Y-41128242D01*
X133587142Y-41128242D01*
G37*
G36*
X120887142Y-41128242D02*
G01*
X121035101Y-41189529D01*
X121168255Y-41278499D01*
X121281501Y-41391745D01*
X121370471Y-41524899D01*
X121431758Y-41672858D01*
X121463000Y-41829925D01*
X121463000Y-41990075D01*
X121431758Y-42147142D01*
X121370471Y-42295101D01*
X121281501Y-42428255D01*
X121168255Y-42541501D01*
X121035101Y-42630471D01*
X120887142Y-42691758D01*
X120730075Y-42723000D01*
X120569925Y-42723000D01*
X120412858Y-42691758D01*
X120264899Y-42630471D01*
X120131745Y-42541501D01*
X120018499Y-42428255D01*
X119929529Y-42295101D01*
X119868242Y-42147142D01*
X119837000Y-41990075D01*
X119837000Y-41829925D01*
X119868242Y-41672858D01*
X119929529Y-41524899D01*
X120018499Y-41391745D01*
X120131745Y-41278499D01*
X120264899Y-41189529D01*
X120412858Y-41128242D01*
X120569925Y-41097000D01*
X120730075Y-41097000D01*
X120887142Y-41128242D01*
X120887142Y-41128242D01*
G37*
G36*
X125967142Y-41128242D02*
G01*
X126115101Y-41189529D01*
X126248255Y-41278499D01*
X126361501Y-41391745D01*
X126450471Y-41524899D01*
X126511758Y-41672858D01*
X126543000Y-41829925D01*
X126543000Y-41990075D01*
X126511758Y-42147142D01*
X126450471Y-42295101D01*
X126361501Y-42428255D01*
X126248255Y-42541501D01*
X126115101Y-42630471D01*
X125967142Y-42691758D01*
X125810075Y-42723000D01*
X125649925Y-42723000D01*
X125492858Y-42691758D01*
X125344899Y-42630471D01*
X125211745Y-42541501D01*
X125098499Y-42428255D01*
X125009529Y-42295101D01*
X124948242Y-42147142D01*
X124917000Y-41990075D01*
X124917000Y-41829925D01*
X124948242Y-41672858D01*
X125009529Y-41524899D01*
X125098499Y-41391745D01*
X125211745Y-41278499D01*
X125344899Y-41189529D01*
X125492858Y-41128242D01*
X125649925Y-41097000D01*
X125810075Y-41097000D01*
X125967142Y-41128242D01*
X125967142Y-41128242D01*
G37*
G36*
X158987142Y-41128242D02*
G01*
X159135101Y-41189529D01*
X159268255Y-41278499D01*
X159381501Y-41391745D01*
X159470471Y-41524899D01*
X159531758Y-41672858D01*
X159563000Y-41829925D01*
X159563000Y-41990075D01*
X159531758Y-42147142D01*
X159470471Y-42295101D01*
X159381501Y-42428255D01*
X159268255Y-42541501D01*
X159135101Y-42630471D01*
X158987142Y-42691758D01*
X158830075Y-42723000D01*
X158669925Y-42723000D01*
X158512858Y-42691758D01*
X158364899Y-42630471D01*
X158231745Y-42541501D01*
X158118499Y-42428255D01*
X158029529Y-42295101D01*
X157968242Y-42147142D01*
X157937000Y-41990075D01*
X157937000Y-41829925D01*
X157968242Y-41672858D01*
X158029529Y-41524899D01*
X158118499Y-41391745D01*
X158231745Y-41278499D01*
X158364899Y-41189529D01*
X158512858Y-41128242D01*
X158669925Y-41097000D01*
X158830075Y-41097000D01*
X158987142Y-41128242D01*
X158987142Y-41128242D01*
G37*
G36*
X113267142Y-41128242D02*
G01*
X113415101Y-41189529D01*
X113548255Y-41278499D01*
X113661501Y-41391745D01*
X113750471Y-41524899D01*
X113811758Y-41672858D01*
X113843000Y-41829925D01*
X113843000Y-41990075D01*
X113811758Y-42147142D01*
X113750471Y-42295101D01*
X113661501Y-42428255D01*
X113548255Y-42541501D01*
X113415101Y-42630471D01*
X113267142Y-42691758D01*
X113110075Y-42723000D01*
X112949925Y-42723000D01*
X112792858Y-42691758D01*
X112644899Y-42630471D01*
X112511745Y-42541501D01*
X112398499Y-42428255D01*
X112309529Y-42295101D01*
X112248242Y-42147142D01*
X112217000Y-41990075D01*
X112217000Y-41829925D01*
X112248242Y-41672858D01*
X112309529Y-41524899D01*
X112398499Y-41391745D01*
X112511745Y-41278499D01*
X112644899Y-41189529D01*
X112792858Y-41128242D01*
X112949925Y-41097000D01*
X113110075Y-41097000D01*
X113267142Y-41128242D01*
X113267142Y-41128242D01*
G37*
G36*
X81898442Y-39745518D02*
G01*
X81964627Y-39752037D01*
X82134466Y-39803557D01*
X82290991Y-39887222D01*
X82322329Y-39912941D01*
X82428186Y-39999814D01*
X82475964Y-40058033D01*
X82540778Y-40137009D01*
X82624443Y-40293534D01*
X82675963Y-40463373D01*
X82693359Y-40640000D01*
X82675963Y-40816627D01*
X82624443Y-40986466D01*
X82540778Y-41142991D01*
X82511448Y-41178729D01*
X82428186Y-41280186D01*
X82326729Y-41363448D01*
X82290991Y-41392778D01*
X82134466Y-41476443D01*
X81964627Y-41527963D01*
X81898442Y-41534482D01*
X81832260Y-41541000D01*
X81743740Y-41541000D01*
X81677558Y-41534482D01*
X81611373Y-41527963D01*
X81441534Y-41476443D01*
X81285009Y-41392778D01*
X81249271Y-41363448D01*
X81147814Y-41280186D01*
X81064552Y-41178729D01*
X81035222Y-41142991D01*
X80951557Y-40986466D01*
X80900037Y-40816627D01*
X80882641Y-40640000D01*
X80900037Y-40463373D01*
X80951557Y-40293534D01*
X81035222Y-40137009D01*
X81100036Y-40058033D01*
X81147814Y-39999814D01*
X81253671Y-39912941D01*
X81285009Y-39887222D01*
X81441534Y-39803557D01*
X81611373Y-39752037D01*
X81677558Y-39745518D01*
X81743740Y-39739000D01*
X81832260Y-39739000D01*
X81898442Y-39745518D01*
X81898442Y-39745518D01*
G37*
G36*
X88704823Y-39293313D02*
G01*
X88865242Y-39341976D01*
X88958581Y-39391867D01*
X89013078Y-39420996D01*
X89142659Y-39527341D01*
X89249004Y-39656922D01*
X89249005Y-39656924D01*
X89328024Y-39804758D01*
X89376687Y-39965177D01*
X89393117Y-40132000D01*
X89376687Y-40298823D01*
X89328024Y-40459242D01*
X89257114Y-40591906D01*
X89249004Y-40607078D01*
X89142659Y-40736659D01*
X89013078Y-40843004D01*
X89013076Y-40843005D01*
X88865242Y-40922024D01*
X88704823Y-40970687D01*
X88579804Y-40983000D01*
X87696196Y-40983000D01*
X87571177Y-40970687D01*
X87410758Y-40922024D01*
X87262924Y-40843005D01*
X87262922Y-40843004D01*
X87133341Y-40736659D01*
X87026996Y-40607078D01*
X87018886Y-40591906D01*
X86947976Y-40459242D01*
X86899313Y-40298823D01*
X86882883Y-40132000D01*
X86899313Y-39965177D01*
X86947976Y-39804758D01*
X87026995Y-39656924D01*
X87026996Y-39656922D01*
X87133341Y-39527341D01*
X87262922Y-39420996D01*
X87317419Y-39391867D01*
X87410758Y-39341976D01*
X87571177Y-39293313D01*
X87696196Y-39281000D01*
X88579804Y-39281000D01*
X88704823Y-39293313D01*
X88704823Y-39293313D01*
G37*
G36*
X96324823Y-39293313D02*
G01*
X96485242Y-39341976D01*
X96578581Y-39391867D01*
X96633078Y-39420996D01*
X96762659Y-39527341D01*
X96869004Y-39656922D01*
X96869005Y-39656924D01*
X96948024Y-39804758D01*
X96996687Y-39965177D01*
X97013117Y-40132000D01*
X96996687Y-40298823D01*
X96948024Y-40459242D01*
X96877114Y-40591906D01*
X96869004Y-40607078D01*
X96762659Y-40736659D01*
X96633078Y-40843004D01*
X96633076Y-40843005D01*
X96485242Y-40922024D01*
X96324823Y-40970687D01*
X96199804Y-40983000D01*
X95316196Y-40983000D01*
X95191177Y-40970687D01*
X95030758Y-40922024D01*
X94882924Y-40843005D01*
X94882922Y-40843004D01*
X94753341Y-40736659D01*
X94646996Y-40607078D01*
X94638886Y-40591906D01*
X94567976Y-40459242D01*
X94519313Y-40298823D01*
X94502883Y-40132000D01*
X94519313Y-39965177D01*
X94567976Y-39804758D01*
X94646995Y-39656924D01*
X94646996Y-39656922D01*
X94753341Y-39527341D01*
X94882922Y-39420996D01*
X94937419Y-39391867D01*
X95030758Y-39341976D01*
X95191177Y-39293313D01*
X95316196Y-39281000D01*
X96199804Y-39281000D01*
X96324823Y-39293313D01*
X96324823Y-39293313D01*
G37*
G36*
X100657665Y-39384622D02*
G01*
X100731222Y-39391867D01*
X100872786Y-39434810D01*
X101003252Y-39504546D01*
X101031028Y-39527341D01*
X101117607Y-39598393D01*
X101187008Y-39682960D01*
X101211454Y-39712748D01*
X101281190Y-39843214D01*
X101324133Y-39984778D01*
X101338633Y-40132000D01*
X101324133Y-40279222D01*
X101281190Y-40420786D01*
X101211454Y-40551252D01*
X101187008Y-40581040D01*
X101117607Y-40665607D01*
X101057004Y-40715341D01*
X101003252Y-40759454D01*
X100872786Y-40829190D01*
X100731222Y-40872133D01*
X100657665Y-40879378D01*
X100620888Y-40883000D01*
X100547112Y-40883000D01*
X100510335Y-40879378D01*
X100436778Y-40872133D01*
X100295214Y-40829190D01*
X100164748Y-40759454D01*
X100110996Y-40715341D01*
X100050393Y-40665607D01*
X99980992Y-40581040D01*
X99956546Y-40551252D01*
X99886810Y-40420786D01*
X99843867Y-40279222D01*
X99829367Y-40132000D01*
X99843867Y-39984778D01*
X99886810Y-39843214D01*
X99956546Y-39712748D01*
X99980992Y-39682960D01*
X100050393Y-39598393D01*
X100136972Y-39527341D01*
X100164748Y-39504546D01*
X100295214Y-39434810D01*
X100436778Y-39391867D01*
X100510335Y-39384622D01*
X100547112Y-39381000D01*
X100620888Y-39381000D01*
X100657665Y-39384622D01*
X100657665Y-39384622D01*
G37*
G36*
X108423059Y-39409860D02*
G01*
X108520147Y-39450075D01*
X108559732Y-39466472D01*
X108682735Y-39548660D01*
X108787340Y-39653265D01*
X108869528Y-39776268D01*
X108926140Y-39912941D01*
X108955000Y-40058033D01*
X108955000Y-40205967D01*
X108926140Y-40351059D01*
X108869528Y-40487732D01*
X108787340Y-40610735D01*
X108682735Y-40715340D01*
X108559732Y-40797528D01*
X108559731Y-40797529D01*
X108559730Y-40797529D01*
X108423059Y-40854140D01*
X108277968Y-40883000D01*
X108130032Y-40883000D01*
X107984941Y-40854140D01*
X107848270Y-40797529D01*
X107848269Y-40797529D01*
X107848268Y-40797528D01*
X107725265Y-40715340D01*
X107620660Y-40610735D01*
X107538472Y-40487732D01*
X107481860Y-40351059D01*
X107453000Y-40205967D01*
X107453000Y-40058033D01*
X107481860Y-39912941D01*
X107538472Y-39776268D01*
X107620660Y-39653265D01*
X107725265Y-39548660D01*
X107848268Y-39466472D01*
X107887854Y-39450075D01*
X107984941Y-39409860D01*
X108130032Y-39381000D01*
X108277968Y-39381000D01*
X108423059Y-39409860D01*
X108423059Y-39409860D01*
G37*
G36*
X158987142Y-38588242D02*
G01*
X159135101Y-38649529D01*
X159268255Y-38738499D01*
X159381501Y-38851745D01*
X159470471Y-38984899D01*
X159531758Y-39132858D01*
X159563000Y-39289925D01*
X159563000Y-39450075D01*
X159531758Y-39607142D01*
X159470471Y-39755101D01*
X159381501Y-39888255D01*
X159268255Y-40001501D01*
X159135101Y-40090471D01*
X158987142Y-40151758D01*
X158830075Y-40183000D01*
X158669925Y-40183000D01*
X158512858Y-40151758D01*
X158364899Y-40090471D01*
X158231745Y-40001501D01*
X158118499Y-39888255D01*
X158029529Y-39755101D01*
X157968242Y-39607142D01*
X157937000Y-39450075D01*
X157937000Y-39289925D01*
X157968242Y-39132858D01*
X158029529Y-38984899D01*
X158118499Y-38851745D01*
X158231745Y-38738499D01*
X158364899Y-38649529D01*
X158512858Y-38588242D01*
X158669925Y-38557000D01*
X158830075Y-38557000D01*
X158987142Y-38588242D01*
X158987142Y-38588242D01*
G37*
G36*
X138667142Y-38588242D02*
G01*
X138815101Y-38649529D01*
X138948255Y-38738499D01*
X139061501Y-38851745D01*
X139150471Y-38984899D01*
X139211758Y-39132858D01*
X139243000Y-39289925D01*
X139243000Y-39450075D01*
X139211758Y-39607142D01*
X139150471Y-39755101D01*
X139061501Y-39888255D01*
X138948255Y-40001501D01*
X138815101Y-40090471D01*
X138667142Y-40151758D01*
X138510075Y-40183000D01*
X138349925Y-40183000D01*
X138192858Y-40151758D01*
X138044899Y-40090471D01*
X137911745Y-40001501D01*
X137798499Y-39888255D01*
X137709529Y-39755101D01*
X137648242Y-39607142D01*
X137617000Y-39450075D01*
X137617000Y-39289925D01*
X137648242Y-39132858D01*
X137709529Y-38984899D01*
X137798499Y-38851745D01*
X137911745Y-38738499D01*
X138044899Y-38649529D01*
X138192858Y-38588242D01*
X138349925Y-38557000D01*
X138510075Y-38557000D01*
X138667142Y-38588242D01*
X138667142Y-38588242D01*
G37*
G36*
X146287142Y-38588242D02*
G01*
X146435101Y-38649529D01*
X146568255Y-38738499D01*
X146681501Y-38851745D01*
X146770471Y-38984899D01*
X146831758Y-39132858D01*
X146863000Y-39289925D01*
X146863000Y-39450075D01*
X146831758Y-39607142D01*
X146770471Y-39755101D01*
X146681501Y-39888255D01*
X146568255Y-40001501D01*
X146435101Y-40090471D01*
X146287142Y-40151758D01*
X146130075Y-40183000D01*
X145969925Y-40183000D01*
X145812858Y-40151758D01*
X145664899Y-40090471D01*
X145531745Y-40001501D01*
X145418499Y-39888255D01*
X145329529Y-39755101D01*
X145268242Y-39607142D01*
X145237000Y-39450075D01*
X145237000Y-39289925D01*
X145268242Y-39132858D01*
X145329529Y-38984899D01*
X145418499Y-38851745D01*
X145531745Y-38738499D01*
X145664899Y-38649529D01*
X145812858Y-38588242D01*
X145969925Y-38557000D01*
X146130075Y-38557000D01*
X146287142Y-38588242D01*
X146287142Y-38588242D01*
G37*
G36*
X151367142Y-38588242D02*
G01*
X151515101Y-38649529D01*
X151648255Y-38738499D01*
X151761501Y-38851745D01*
X151850471Y-38984899D01*
X151911758Y-39132858D01*
X151943000Y-39289925D01*
X151943000Y-39450075D01*
X151911758Y-39607142D01*
X151850471Y-39755101D01*
X151761501Y-39888255D01*
X151648255Y-40001501D01*
X151515101Y-40090471D01*
X151367142Y-40151758D01*
X151210075Y-40183000D01*
X151049925Y-40183000D01*
X150892858Y-40151758D01*
X150744899Y-40090471D01*
X150611745Y-40001501D01*
X150498499Y-39888255D01*
X150409529Y-39755101D01*
X150348242Y-39607142D01*
X150317000Y-39450075D01*
X150317000Y-39289925D01*
X150348242Y-39132858D01*
X150409529Y-38984899D01*
X150498499Y-38851745D01*
X150611745Y-38738499D01*
X150744899Y-38649529D01*
X150892858Y-38588242D01*
X151049925Y-38557000D01*
X151210075Y-38557000D01*
X151367142Y-38588242D01*
X151367142Y-38588242D01*
G37*
G36*
X133587142Y-38588242D02*
G01*
X133735101Y-38649529D01*
X133868255Y-38738499D01*
X133981501Y-38851745D01*
X134070471Y-38984899D01*
X134131758Y-39132858D01*
X134163000Y-39289925D01*
X134163000Y-39450075D01*
X134131758Y-39607142D01*
X134070471Y-39755101D01*
X133981501Y-39888255D01*
X133868255Y-40001501D01*
X133735101Y-40090471D01*
X133587142Y-40151758D01*
X133430075Y-40183000D01*
X133269925Y-40183000D01*
X133112858Y-40151758D01*
X132964899Y-40090471D01*
X132831745Y-40001501D01*
X132718499Y-39888255D01*
X132629529Y-39755101D01*
X132568242Y-39607142D01*
X132537000Y-39450075D01*
X132537000Y-39289925D01*
X132568242Y-39132858D01*
X132629529Y-38984899D01*
X132718499Y-38851745D01*
X132831745Y-38738499D01*
X132964899Y-38649529D01*
X133112858Y-38588242D01*
X133269925Y-38557000D01*
X133430075Y-38557000D01*
X133587142Y-38588242D01*
X133587142Y-38588242D01*
G37*
G36*
X125967142Y-38588242D02*
G01*
X126115101Y-38649529D01*
X126248255Y-38738499D01*
X126361501Y-38851745D01*
X126450471Y-38984899D01*
X126511758Y-39132858D01*
X126543000Y-39289925D01*
X126543000Y-39450075D01*
X126511758Y-39607142D01*
X126450471Y-39755101D01*
X126361501Y-39888255D01*
X126248255Y-40001501D01*
X126115101Y-40090471D01*
X125967142Y-40151758D01*
X125810075Y-40183000D01*
X125649925Y-40183000D01*
X125492858Y-40151758D01*
X125344899Y-40090471D01*
X125211745Y-40001501D01*
X125098499Y-39888255D01*
X125009529Y-39755101D01*
X124948242Y-39607142D01*
X124917000Y-39450075D01*
X124917000Y-39289925D01*
X124948242Y-39132858D01*
X125009529Y-38984899D01*
X125098499Y-38851745D01*
X125211745Y-38738499D01*
X125344899Y-38649529D01*
X125492858Y-38588242D01*
X125649925Y-38557000D01*
X125810075Y-38557000D01*
X125967142Y-38588242D01*
X125967142Y-38588242D01*
G37*
G36*
X120887142Y-38588242D02*
G01*
X121035101Y-38649529D01*
X121168255Y-38738499D01*
X121281501Y-38851745D01*
X121370471Y-38984899D01*
X121431758Y-39132858D01*
X121463000Y-39289925D01*
X121463000Y-39450075D01*
X121431758Y-39607142D01*
X121370471Y-39755101D01*
X121281501Y-39888255D01*
X121168255Y-40001501D01*
X121035101Y-40090471D01*
X120887142Y-40151758D01*
X120730075Y-40183000D01*
X120569925Y-40183000D01*
X120412858Y-40151758D01*
X120264899Y-40090471D01*
X120131745Y-40001501D01*
X120018499Y-39888255D01*
X119929529Y-39755101D01*
X119868242Y-39607142D01*
X119837000Y-39450075D01*
X119837000Y-39289925D01*
X119868242Y-39132858D01*
X119929529Y-38984899D01*
X120018499Y-38851745D01*
X120131745Y-38738499D01*
X120264899Y-38649529D01*
X120412858Y-38588242D01*
X120569925Y-38557000D01*
X120730075Y-38557000D01*
X120887142Y-38588242D01*
X120887142Y-38588242D01*
G37*
G36*
X113267142Y-38588242D02*
G01*
X113415101Y-38649529D01*
X113548255Y-38738499D01*
X113661501Y-38851745D01*
X113750471Y-38984899D01*
X113811758Y-39132858D01*
X113843000Y-39289925D01*
X113843000Y-39450075D01*
X113811758Y-39607142D01*
X113750471Y-39755101D01*
X113661501Y-39888255D01*
X113548255Y-40001501D01*
X113415101Y-40090471D01*
X113267142Y-40151758D01*
X113110075Y-40183000D01*
X112949925Y-40183000D01*
X112792858Y-40151758D01*
X112644899Y-40090471D01*
X112511745Y-40001501D01*
X112398499Y-39888255D01*
X112309529Y-39755101D01*
X112248242Y-39607142D01*
X112217000Y-39450075D01*
X112217000Y-39289925D01*
X112248242Y-39132858D01*
X112309529Y-38984899D01*
X112398499Y-38851745D01*
X112511745Y-38738499D01*
X112644899Y-38649529D01*
X112792858Y-38588242D01*
X112949925Y-38557000D01*
X113110075Y-38557000D01*
X113267142Y-38588242D01*
X113267142Y-38588242D01*
G37*
G36*
X88704823Y-36753313D02*
G01*
X88865242Y-36801976D01*
X88958581Y-36851867D01*
X89013078Y-36880996D01*
X89142659Y-36987341D01*
X89249004Y-37116922D01*
X89249005Y-37116924D01*
X89328024Y-37264758D01*
X89376687Y-37425177D01*
X89393117Y-37592000D01*
X89376687Y-37758823D01*
X89328024Y-37919242D01*
X89257114Y-38051906D01*
X89249004Y-38067078D01*
X89142659Y-38196659D01*
X89013078Y-38303004D01*
X89013076Y-38303005D01*
X88865242Y-38382024D01*
X88704823Y-38430687D01*
X88579804Y-38443000D01*
X87696196Y-38443000D01*
X87571177Y-38430687D01*
X87410758Y-38382024D01*
X87262924Y-38303005D01*
X87262922Y-38303004D01*
X87133341Y-38196659D01*
X87026996Y-38067078D01*
X87018886Y-38051906D01*
X86947976Y-37919242D01*
X86899313Y-37758823D01*
X86882883Y-37592000D01*
X86899313Y-37425177D01*
X86947976Y-37264758D01*
X87026995Y-37116924D01*
X87026996Y-37116922D01*
X87133341Y-36987341D01*
X87262922Y-36880996D01*
X87317419Y-36851867D01*
X87410758Y-36801976D01*
X87571177Y-36753313D01*
X87696196Y-36741000D01*
X88579804Y-36741000D01*
X88704823Y-36753313D01*
X88704823Y-36753313D01*
G37*
G36*
X96324823Y-36753313D02*
G01*
X96485242Y-36801976D01*
X96578581Y-36851867D01*
X96633078Y-36880996D01*
X96762659Y-36987341D01*
X96869004Y-37116922D01*
X96869005Y-37116924D01*
X96948024Y-37264758D01*
X96996687Y-37425177D01*
X97013117Y-37592000D01*
X96996687Y-37758823D01*
X96948024Y-37919242D01*
X96877114Y-38051906D01*
X96869004Y-38067078D01*
X96762659Y-38196659D01*
X96633078Y-38303004D01*
X96633076Y-38303005D01*
X96485242Y-38382024D01*
X96324823Y-38430687D01*
X96199804Y-38443000D01*
X95316196Y-38443000D01*
X95191177Y-38430687D01*
X95030758Y-38382024D01*
X94882924Y-38303005D01*
X94882922Y-38303004D01*
X94753341Y-38196659D01*
X94646996Y-38067078D01*
X94638886Y-38051906D01*
X94567976Y-37919242D01*
X94519313Y-37758823D01*
X94502883Y-37592000D01*
X94519313Y-37425177D01*
X94567976Y-37264758D01*
X94646995Y-37116924D01*
X94646996Y-37116922D01*
X94753341Y-36987341D01*
X94882922Y-36880996D01*
X94937419Y-36851867D01*
X95030758Y-36801976D01*
X95191177Y-36753313D01*
X95316196Y-36741000D01*
X96199804Y-36741000D01*
X96324823Y-36753313D01*
X96324823Y-36753313D01*
G37*
G36*
X100657665Y-36844622D02*
G01*
X100731222Y-36851867D01*
X100872786Y-36894810D01*
X101003252Y-36964546D01*
X101031028Y-36987341D01*
X101117607Y-37058393D01*
X101187008Y-37142960D01*
X101211454Y-37172748D01*
X101281190Y-37303214D01*
X101324133Y-37444778D01*
X101338633Y-37592000D01*
X101324133Y-37739222D01*
X101281190Y-37880786D01*
X101211454Y-38011252D01*
X101187008Y-38041040D01*
X101117607Y-38125607D01*
X101057004Y-38175341D01*
X101003252Y-38219454D01*
X100872786Y-38289190D01*
X100731222Y-38332133D01*
X100657665Y-38339378D01*
X100620888Y-38343000D01*
X100547112Y-38343000D01*
X100510335Y-38339378D01*
X100436778Y-38332133D01*
X100295214Y-38289190D01*
X100164748Y-38219454D01*
X100110996Y-38175341D01*
X100050393Y-38125607D01*
X99980992Y-38041040D01*
X99956546Y-38011252D01*
X99886810Y-37880786D01*
X99843867Y-37739222D01*
X99829367Y-37592000D01*
X99843867Y-37444778D01*
X99886810Y-37303214D01*
X99956546Y-37172748D01*
X99980992Y-37142960D01*
X100050393Y-37058393D01*
X100136972Y-36987341D01*
X100164748Y-36964546D01*
X100295214Y-36894810D01*
X100436778Y-36851867D01*
X100510335Y-36844622D01*
X100547112Y-36841000D01*
X100620888Y-36841000D01*
X100657665Y-36844622D01*
X100657665Y-36844622D01*
G37*
G36*
X108423059Y-36869860D02*
G01*
X108520147Y-36910075D01*
X108559732Y-36926472D01*
X108682735Y-37008660D01*
X108787340Y-37113265D01*
X108869528Y-37236268D01*
X108926140Y-37372941D01*
X108955000Y-37518033D01*
X108955000Y-37665967D01*
X108926140Y-37811059D01*
X108869528Y-37947732D01*
X108787340Y-38070735D01*
X108682735Y-38175340D01*
X108559732Y-38257528D01*
X108559731Y-38257529D01*
X108559730Y-38257529D01*
X108423059Y-38314140D01*
X108277968Y-38343000D01*
X108130032Y-38343000D01*
X107984941Y-38314140D01*
X107848270Y-38257529D01*
X107848269Y-38257529D01*
X107848268Y-38257528D01*
X107725265Y-38175340D01*
X107620660Y-38070735D01*
X107538472Y-37947732D01*
X107481860Y-37811059D01*
X107453000Y-37665967D01*
X107453000Y-37518033D01*
X107481860Y-37372941D01*
X107538472Y-37236268D01*
X107620660Y-37113265D01*
X107725265Y-37008660D01*
X107848268Y-36926472D01*
X107887854Y-36910075D01*
X107984941Y-36869860D01*
X108130032Y-36841000D01*
X108277968Y-36841000D01*
X108423059Y-36869860D01*
X108423059Y-36869860D01*
G37*
G36*
X151367142Y-36048242D02*
G01*
X151515101Y-36109529D01*
X151648255Y-36198499D01*
X151761501Y-36311745D01*
X151850471Y-36444899D01*
X151911758Y-36592858D01*
X151943000Y-36749925D01*
X151943000Y-36910075D01*
X151911758Y-37067142D01*
X151850471Y-37215101D01*
X151761501Y-37348255D01*
X151648255Y-37461501D01*
X151515101Y-37550471D01*
X151367142Y-37611758D01*
X151210075Y-37643000D01*
X151049925Y-37643000D01*
X150892858Y-37611758D01*
X150744899Y-37550471D01*
X150611745Y-37461501D01*
X150498499Y-37348255D01*
X150409529Y-37215101D01*
X150348242Y-37067142D01*
X150317000Y-36910075D01*
X150317000Y-36749925D01*
X150348242Y-36592858D01*
X150409529Y-36444899D01*
X150498499Y-36311745D01*
X150611745Y-36198499D01*
X150744899Y-36109529D01*
X150892858Y-36048242D01*
X151049925Y-36017000D01*
X151210075Y-36017000D01*
X151367142Y-36048242D01*
X151367142Y-36048242D01*
G37*
G36*
X146287142Y-36048242D02*
G01*
X146435101Y-36109529D01*
X146568255Y-36198499D01*
X146681501Y-36311745D01*
X146770471Y-36444899D01*
X146831758Y-36592858D01*
X146863000Y-36749925D01*
X146863000Y-36910075D01*
X146831758Y-37067142D01*
X146770471Y-37215101D01*
X146681501Y-37348255D01*
X146568255Y-37461501D01*
X146435101Y-37550471D01*
X146287142Y-37611758D01*
X146130075Y-37643000D01*
X145969925Y-37643000D01*
X145812858Y-37611758D01*
X145664899Y-37550471D01*
X145531745Y-37461501D01*
X145418499Y-37348255D01*
X145329529Y-37215101D01*
X145268242Y-37067142D01*
X145237000Y-36910075D01*
X145237000Y-36749925D01*
X145268242Y-36592858D01*
X145329529Y-36444899D01*
X145418499Y-36311745D01*
X145531745Y-36198499D01*
X145664899Y-36109529D01*
X145812858Y-36048242D01*
X145969925Y-36017000D01*
X146130075Y-36017000D01*
X146287142Y-36048242D01*
X146287142Y-36048242D01*
G37*
G36*
X158987142Y-36048242D02*
G01*
X159135101Y-36109529D01*
X159268255Y-36198499D01*
X159381501Y-36311745D01*
X159470471Y-36444899D01*
X159531758Y-36592858D01*
X159563000Y-36749925D01*
X159563000Y-36910075D01*
X159531758Y-37067142D01*
X159470471Y-37215101D01*
X159381501Y-37348255D01*
X159268255Y-37461501D01*
X159135101Y-37550471D01*
X158987142Y-37611758D01*
X158830075Y-37643000D01*
X158669925Y-37643000D01*
X158512858Y-37611758D01*
X158364899Y-37550471D01*
X158231745Y-37461501D01*
X158118499Y-37348255D01*
X158029529Y-37215101D01*
X157968242Y-37067142D01*
X157937000Y-36910075D01*
X157937000Y-36749925D01*
X157968242Y-36592858D01*
X158029529Y-36444899D01*
X158118499Y-36311745D01*
X158231745Y-36198499D01*
X158364899Y-36109529D01*
X158512858Y-36048242D01*
X158669925Y-36017000D01*
X158830075Y-36017000D01*
X158987142Y-36048242D01*
X158987142Y-36048242D01*
G37*
G36*
X120887142Y-36048242D02*
G01*
X121035101Y-36109529D01*
X121168255Y-36198499D01*
X121281501Y-36311745D01*
X121370471Y-36444899D01*
X121431758Y-36592858D01*
X121463000Y-36749925D01*
X121463000Y-36910075D01*
X121431758Y-37067142D01*
X121370471Y-37215101D01*
X121281501Y-37348255D01*
X121168255Y-37461501D01*
X121035101Y-37550471D01*
X120887142Y-37611758D01*
X120730075Y-37643000D01*
X120569925Y-37643000D01*
X120412858Y-37611758D01*
X120264899Y-37550471D01*
X120131745Y-37461501D01*
X120018499Y-37348255D01*
X119929529Y-37215101D01*
X119868242Y-37067142D01*
X119837000Y-36910075D01*
X119837000Y-36749925D01*
X119868242Y-36592858D01*
X119929529Y-36444899D01*
X120018499Y-36311745D01*
X120131745Y-36198499D01*
X120264899Y-36109529D01*
X120412858Y-36048242D01*
X120569925Y-36017000D01*
X120730075Y-36017000D01*
X120887142Y-36048242D01*
X120887142Y-36048242D01*
G37*
G36*
X125967142Y-36048242D02*
G01*
X126115101Y-36109529D01*
X126248255Y-36198499D01*
X126361501Y-36311745D01*
X126450471Y-36444899D01*
X126511758Y-36592858D01*
X126543000Y-36749925D01*
X126543000Y-36910075D01*
X126511758Y-37067142D01*
X126450471Y-37215101D01*
X126361501Y-37348255D01*
X126248255Y-37461501D01*
X126115101Y-37550471D01*
X125967142Y-37611758D01*
X125810075Y-37643000D01*
X125649925Y-37643000D01*
X125492858Y-37611758D01*
X125344899Y-37550471D01*
X125211745Y-37461501D01*
X125098499Y-37348255D01*
X125009529Y-37215101D01*
X124948242Y-37067142D01*
X124917000Y-36910075D01*
X124917000Y-36749925D01*
X124948242Y-36592858D01*
X125009529Y-36444899D01*
X125098499Y-36311745D01*
X125211745Y-36198499D01*
X125344899Y-36109529D01*
X125492858Y-36048242D01*
X125649925Y-36017000D01*
X125810075Y-36017000D01*
X125967142Y-36048242D01*
X125967142Y-36048242D01*
G37*
G36*
X138667142Y-36048242D02*
G01*
X138815101Y-36109529D01*
X138948255Y-36198499D01*
X139061501Y-36311745D01*
X139150471Y-36444899D01*
X139211758Y-36592858D01*
X139243000Y-36749925D01*
X139243000Y-36910075D01*
X139211758Y-37067142D01*
X139150471Y-37215101D01*
X139061501Y-37348255D01*
X138948255Y-37461501D01*
X138815101Y-37550471D01*
X138667142Y-37611758D01*
X138510075Y-37643000D01*
X138349925Y-37643000D01*
X138192858Y-37611758D01*
X138044899Y-37550471D01*
X137911745Y-37461501D01*
X137798499Y-37348255D01*
X137709529Y-37215101D01*
X137648242Y-37067142D01*
X137617000Y-36910075D01*
X137617000Y-36749925D01*
X137648242Y-36592858D01*
X137709529Y-36444899D01*
X137798499Y-36311745D01*
X137911745Y-36198499D01*
X138044899Y-36109529D01*
X138192858Y-36048242D01*
X138349925Y-36017000D01*
X138510075Y-36017000D01*
X138667142Y-36048242D01*
X138667142Y-36048242D01*
G37*
G36*
X113267142Y-36048242D02*
G01*
X113415101Y-36109529D01*
X113548255Y-36198499D01*
X113661501Y-36311745D01*
X113750471Y-36444899D01*
X113811758Y-36592858D01*
X113843000Y-36749925D01*
X113843000Y-36910075D01*
X113811758Y-37067142D01*
X113750471Y-37215101D01*
X113661501Y-37348255D01*
X113548255Y-37461501D01*
X113415101Y-37550471D01*
X113267142Y-37611758D01*
X113110075Y-37643000D01*
X112949925Y-37643000D01*
X112792858Y-37611758D01*
X112644899Y-37550471D01*
X112511745Y-37461501D01*
X112398499Y-37348255D01*
X112309529Y-37215101D01*
X112248242Y-37067142D01*
X112217000Y-36910075D01*
X112217000Y-36749925D01*
X112248242Y-36592858D01*
X112309529Y-36444899D01*
X112398499Y-36311745D01*
X112511745Y-36198499D01*
X112644899Y-36109529D01*
X112792858Y-36048242D01*
X112949925Y-36017000D01*
X113110075Y-36017000D01*
X113267142Y-36048242D01*
X113267142Y-36048242D01*
G37*
G36*
X133587142Y-36048242D02*
G01*
X133735101Y-36109529D01*
X133868255Y-36198499D01*
X133981501Y-36311745D01*
X134070471Y-36444899D01*
X134131758Y-36592858D01*
X134163000Y-36749925D01*
X134163000Y-36910075D01*
X134131758Y-37067142D01*
X134070471Y-37215101D01*
X133981501Y-37348255D01*
X133868255Y-37461501D01*
X133735101Y-37550471D01*
X133587142Y-37611758D01*
X133430075Y-37643000D01*
X133269925Y-37643000D01*
X133112858Y-37611758D01*
X132964899Y-37550471D01*
X132831745Y-37461501D01*
X132718499Y-37348255D01*
X132629529Y-37215101D01*
X132568242Y-37067142D01*
X132537000Y-36910075D01*
X132537000Y-36749925D01*
X132568242Y-36592858D01*
X132629529Y-36444899D01*
X132718499Y-36311745D01*
X132831745Y-36198499D01*
X132964899Y-36109529D01*
X133112858Y-36048242D01*
X133269925Y-36017000D01*
X133430075Y-36017000D01*
X133587142Y-36048242D01*
X133587142Y-36048242D01*
G37*
G36*
X81898443Y-34411519D02*
G01*
X81964627Y-34418037D01*
X82134466Y-34469557D01*
X82290991Y-34553222D01*
X82319869Y-34576922D01*
X82428186Y-34665814D01*
X82508117Y-34763212D01*
X82540778Y-34803009D01*
X82624443Y-34959534D01*
X82675963Y-35129373D01*
X82693359Y-35306000D01*
X82675963Y-35482627D01*
X82624443Y-35652466D01*
X82540778Y-35808991D01*
X82511448Y-35844729D01*
X82428186Y-35946186D01*
X82326729Y-36029448D01*
X82290991Y-36058778D01*
X82134466Y-36142443D01*
X81964627Y-36193963D01*
X81918571Y-36198499D01*
X81832260Y-36207000D01*
X81743740Y-36207000D01*
X81657429Y-36198499D01*
X81611373Y-36193963D01*
X81441534Y-36142443D01*
X81285009Y-36058778D01*
X81249271Y-36029448D01*
X81147814Y-35946186D01*
X81064552Y-35844729D01*
X81035222Y-35808991D01*
X80951557Y-35652466D01*
X80900037Y-35482627D01*
X80882641Y-35306000D01*
X80900037Y-35129373D01*
X80951557Y-34959534D01*
X81035222Y-34803009D01*
X81067883Y-34763212D01*
X81147814Y-34665814D01*
X81256131Y-34576922D01*
X81285009Y-34553222D01*
X81441534Y-34469557D01*
X81611373Y-34418037D01*
X81677557Y-34411519D01*
X81743740Y-34405000D01*
X81832260Y-34405000D01*
X81898443Y-34411519D01*
X81898443Y-34411519D01*
G37*
G36*
X96324823Y-34213313D02*
G01*
X96485242Y-34261976D01*
X96578581Y-34311867D01*
X96633078Y-34340996D01*
X96762659Y-34447341D01*
X96869004Y-34576922D01*
X96869005Y-34576924D01*
X96948024Y-34724758D01*
X96996687Y-34885177D01*
X97013117Y-35052000D01*
X96996687Y-35218823D01*
X96948024Y-35379242D01*
X96877114Y-35511906D01*
X96869004Y-35527078D01*
X96762659Y-35656659D01*
X96633078Y-35763004D01*
X96633076Y-35763005D01*
X96485242Y-35842024D01*
X96324823Y-35890687D01*
X96199804Y-35903000D01*
X95316196Y-35903000D01*
X95191177Y-35890687D01*
X95030758Y-35842024D01*
X94882924Y-35763005D01*
X94882922Y-35763004D01*
X94753341Y-35656659D01*
X94646996Y-35527078D01*
X94638886Y-35511906D01*
X94567976Y-35379242D01*
X94519313Y-35218823D01*
X94502883Y-35052000D01*
X94519313Y-34885177D01*
X94567976Y-34724758D01*
X94646995Y-34576924D01*
X94646996Y-34576922D01*
X94753341Y-34447341D01*
X94882922Y-34340996D01*
X94937419Y-34311867D01*
X95030758Y-34261976D01*
X95191177Y-34213313D01*
X95316196Y-34201000D01*
X96199804Y-34201000D01*
X96324823Y-34213313D01*
X96324823Y-34213313D01*
G37*
G36*
X88704823Y-34213313D02*
G01*
X88865242Y-34261976D01*
X88958581Y-34311867D01*
X89013078Y-34340996D01*
X89142659Y-34447341D01*
X89249004Y-34576922D01*
X89249005Y-34576924D01*
X89328024Y-34724758D01*
X89376687Y-34885177D01*
X89393117Y-35052000D01*
X89376687Y-35218823D01*
X89328024Y-35379242D01*
X89257114Y-35511906D01*
X89249004Y-35527078D01*
X89142659Y-35656659D01*
X89013078Y-35763004D01*
X89013076Y-35763005D01*
X88865242Y-35842024D01*
X88704823Y-35890687D01*
X88579804Y-35903000D01*
X87696196Y-35903000D01*
X87571177Y-35890687D01*
X87410758Y-35842024D01*
X87262924Y-35763005D01*
X87262922Y-35763004D01*
X87133341Y-35656659D01*
X87026996Y-35527078D01*
X87018886Y-35511906D01*
X86947976Y-35379242D01*
X86899313Y-35218823D01*
X86882883Y-35052000D01*
X86899313Y-34885177D01*
X86947976Y-34724758D01*
X87026995Y-34576924D01*
X87026996Y-34576922D01*
X87133341Y-34447341D01*
X87262922Y-34340996D01*
X87317419Y-34311867D01*
X87410758Y-34261976D01*
X87571177Y-34213313D01*
X87696196Y-34201000D01*
X88579804Y-34201000D01*
X88704823Y-34213313D01*
X88704823Y-34213313D01*
G37*
G36*
X108423059Y-34329860D02*
G01*
X108520147Y-34370075D01*
X108559732Y-34386472D01*
X108682735Y-34468660D01*
X108787340Y-34573265D01*
X108869528Y-34696268D01*
X108869529Y-34696270D01*
X108926140Y-34832941D01*
X108951321Y-34959534D01*
X108955000Y-34978033D01*
X108955000Y-35125967D01*
X108926140Y-35271059D01*
X108869528Y-35407732D01*
X108787340Y-35530735D01*
X108682735Y-35635340D01*
X108559732Y-35717528D01*
X108559731Y-35717529D01*
X108559730Y-35717529D01*
X108423059Y-35774140D01*
X108277968Y-35803000D01*
X108130032Y-35803000D01*
X107984941Y-35774140D01*
X107848270Y-35717529D01*
X107848269Y-35717529D01*
X107848268Y-35717528D01*
X107725265Y-35635340D01*
X107620660Y-35530735D01*
X107538472Y-35407732D01*
X107481860Y-35271059D01*
X107453000Y-35125967D01*
X107453000Y-34978033D01*
X107456680Y-34959534D01*
X107481860Y-34832941D01*
X107538471Y-34696270D01*
X107538472Y-34696268D01*
X107620660Y-34573265D01*
X107725265Y-34468660D01*
X107848268Y-34386472D01*
X107887854Y-34370075D01*
X107984941Y-34329860D01*
X108130032Y-34301000D01*
X108277968Y-34301000D01*
X108423059Y-34329860D01*
X108423059Y-34329860D01*
G37*
G36*
X100657665Y-34304622D02*
G01*
X100731222Y-34311867D01*
X100872786Y-34354810D01*
X101003252Y-34424546D01*
X101031028Y-34447341D01*
X101117607Y-34518393D01*
X101187008Y-34602960D01*
X101211454Y-34632748D01*
X101281190Y-34763214D01*
X101324133Y-34904778D01*
X101338633Y-35052000D01*
X101324133Y-35199222D01*
X101281190Y-35340786D01*
X101211454Y-35471252D01*
X101187008Y-35501040D01*
X101117607Y-35585607D01*
X101057004Y-35635341D01*
X101003252Y-35679454D01*
X100872786Y-35749190D01*
X100731222Y-35792133D01*
X100657665Y-35799378D01*
X100620888Y-35803000D01*
X100547112Y-35803000D01*
X100510335Y-35799378D01*
X100436778Y-35792133D01*
X100295214Y-35749190D01*
X100164748Y-35679454D01*
X100110996Y-35635341D01*
X100050393Y-35585607D01*
X99980992Y-35501040D01*
X99956546Y-35471252D01*
X99886810Y-35340786D01*
X99843867Y-35199222D01*
X99829367Y-35052000D01*
X99843867Y-34904778D01*
X99886810Y-34763214D01*
X99956546Y-34632748D01*
X99980992Y-34602960D01*
X100050393Y-34518393D01*
X100136972Y-34447341D01*
X100164748Y-34424546D01*
X100295214Y-34354810D01*
X100436778Y-34311867D01*
X100510335Y-34304622D01*
X100547112Y-34301000D01*
X100620888Y-34301000D01*
X100657665Y-34304622D01*
X100657665Y-34304622D01*
G37*
G36*
X158987142Y-33508242D02*
G01*
X159135101Y-33569529D01*
X159268255Y-33658499D01*
X159381501Y-33771745D01*
X159470471Y-33904899D01*
X159531758Y-34052858D01*
X159563000Y-34209925D01*
X159563000Y-34370075D01*
X159531758Y-34527142D01*
X159470471Y-34675101D01*
X159381501Y-34808255D01*
X159268255Y-34921501D01*
X159135101Y-35010471D01*
X158987142Y-35071758D01*
X158830075Y-35103000D01*
X158669925Y-35103000D01*
X158512858Y-35071758D01*
X158364899Y-35010471D01*
X158231745Y-34921501D01*
X158118499Y-34808255D01*
X158029529Y-34675101D01*
X157968242Y-34527142D01*
X157937000Y-34370075D01*
X157937000Y-34209925D01*
X157968242Y-34052858D01*
X158029529Y-33904899D01*
X158118499Y-33771745D01*
X158231745Y-33658499D01*
X158364899Y-33569529D01*
X158512858Y-33508242D01*
X158669925Y-33477000D01*
X158830075Y-33477000D01*
X158987142Y-33508242D01*
X158987142Y-33508242D01*
G37*
G36*
X138667142Y-33508242D02*
G01*
X138815101Y-33569529D01*
X138948255Y-33658499D01*
X139061501Y-33771745D01*
X139150471Y-33904899D01*
X139211758Y-34052858D01*
X139243000Y-34209925D01*
X139243000Y-34370075D01*
X139211758Y-34527142D01*
X139150471Y-34675101D01*
X139061501Y-34808255D01*
X138948255Y-34921501D01*
X138815101Y-35010471D01*
X138667142Y-35071758D01*
X138510075Y-35103000D01*
X138349925Y-35103000D01*
X138192858Y-35071758D01*
X138044899Y-35010471D01*
X137911745Y-34921501D01*
X137798499Y-34808255D01*
X137709529Y-34675101D01*
X137648242Y-34527142D01*
X137617000Y-34370075D01*
X137617000Y-34209925D01*
X137648242Y-34052858D01*
X137709529Y-33904899D01*
X137798499Y-33771745D01*
X137911745Y-33658499D01*
X138044899Y-33569529D01*
X138192858Y-33508242D01*
X138349925Y-33477000D01*
X138510075Y-33477000D01*
X138667142Y-33508242D01*
X138667142Y-33508242D01*
G37*
G36*
X151367142Y-33508242D02*
G01*
X151515101Y-33569529D01*
X151648255Y-33658499D01*
X151761501Y-33771745D01*
X151850471Y-33904899D01*
X151911758Y-34052858D01*
X151943000Y-34209925D01*
X151943000Y-34370075D01*
X151911758Y-34527142D01*
X151850471Y-34675101D01*
X151761501Y-34808255D01*
X151648255Y-34921501D01*
X151515101Y-35010471D01*
X151367142Y-35071758D01*
X151210075Y-35103000D01*
X151049925Y-35103000D01*
X150892858Y-35071758D01*
X150744899Y-35010471D01*
X150611745Y-34921501D01*
X150498499Y-34808255D01*
X150409529Y-34675101D01*
X150348242Y-34527142D01*
X150317000Y-34370075D01*
X150317000Y-34209925D01*
X150348242Y-34052858D01*
X150409529Y-33904899D01*
X150498499Y-33771745D01*
X150611745Y-33658499D01*
X150744899Y-33569529D01*
X150892858Y-33508242D01*
X151049925Y-33477000D01*
X151210075Y-33477000D01*
X151367142Y-33508242D01*
X151367142Y-33508242D01*
G37*
G36*
X113267142Y-33508242D02*
G01*
X113415101Y-33569529D01*
X113548255Y-33658499D01*
X113661501Y-33771745D01*
X113750471Y-33904899D01*
X113811758Y-34052858D01*
X113843000Y-34209925D01*
X113843000Y-34370075D01*
X113811758Y-34527142D01*
X113750471Y-34675101D01*
X113661501Y-34808255D01*
X113548255Y-34921501D01*
X113415101Y-35010471D01*
X113267142Y-35071758D01*
X113110075Y-35103000D01*
X112949925Y-35103000D01*
X112792858Y-35071758D01*
X112644899Y-35010471D01*
X112511745Y-34921501D01*
X112398499Y-34808255D01*
X112309529Y-34675101D01*
X112248242Y-34527142D01*
X112217000Y-34370075D01*
X112217000Y-34209925D01*
X112248242Y-34052858D01*
X112309529Y-33904899D01*
X112398499Y-33771745D01*
X112511745Y-33658499D01*
X112644899Y-33569529D01*
X112792858Y-33508242D01*
X112949925Y-33477000D01*
X113110075Y-33477000D01*
X113267142Y-33508242D01*
X113267142Y-33508242D01*
G37*
G36*
X120887142Y-33508242D02*
G01*
X121035101Y-33569529D01*
X121168255Y-33658499D01*
X121281501Y-33771745D01*
X121370471Y-33904899D01*
X121431758Y-34052858D01*
X121463000Y-34209925D01*
X121463000Y-34370075D01*
X121431758Y-34527142D01*
X121370471Y-34675101D01*
X121281501Y-34808255D01*
X121168255Y-34921501D01*
X121035101Y-35010471D01*
X120887142Y-35071758D01*
X120730075Y-35103000D01*
X120569925Y-35103000D01*
X120412858Y-35071758D01*
X120264899Y-35010471D01*
X120131745Y-34921501D01*
X120018499Y-34808255D01*
X119929529Y-34675101D01*
X119868242Y-34527142D01*
X119837000Y-34370075D01*
X119837000Y-34209925D01*
X119868242Y-34052858D01*
X119929529Y-33904899D01*
X120018499Y-33771745D01*
X120131745Y-33658499D01*
X120264899Y-33569529D01*
X120412858Y-33508242D01*
X120569925Y-33477000D01*
X120730075Y-33477000D01*
X120887142Y-33508242D01*
X120887142Y-33508242D01*
G37*
G36*
X125967142Y-33508242D02*
G01*
X126115101Y-33569529D01*
X126248255Y-33658499D01*
X126361501Y-33771745D01*
X126450471Y-33904899D01*
X126511758Y-34052858D01*
X126543000Y-34209925D01*
X126543000Y-34370075D01*
X126511758Y-34527142D01*
X126450471Y-34675101D01*
X126361501Y-34808255D01*
X126248255Y-34921501D01*
X126115101Y-35010471D01*
X125967142Y-35071758D01*
X125810075Y-35103000D01*
X125649925Y-35103000D01*
X125492858Y-35071758D01*
X125344899Y-35010471D01*
X125211745Y-34921501D01*
X125098499Y-34808255D01*
X125009529Y-34675101D01*
X124948242Y-34527142D01*
X124917000Y-34370075D01*
X124917000Y-34209925D01*
X124948242Y-34052858D01*
X125009529Y-33904899D01*
X125098499Y-33771745D01*
X125211745Y-33658499D01*
X125344899Y-33569529D01*
X125492858Y-33508242D01*
X125649925Y-33477000D01*
X125810075Y-33477000D01*
X125967142Y-33508242D01*
X125967142Y-33508242D01*
G37*
G36*
X133587142Y-33508242D02*
G01*
X133735101Y-33569529D01*
X133868255Y-33658499D01*
X133981501Y-33771745D01*
X134070471Y-33904899D01*
X134131758Y-34052858D01*
X134163000Y-34209925D01*
X134163000Y-34370075D01*
X134131758Y-34527142D01*
X134070471Y-34675101D01*
X133981501Y-34808255D01*
X133868255Y-34921501D01*
X133735101Y-35010471D01*
X133587142Y-35071758D01*
X133430075Y-35103000D01*
X133269925Y-35103000D01*
X133112858Y-35071758D01*
X132964899Y-35010471D01*
X132831745Y-34921501D01*
X132718499Y-34808255D01*
X132629529Y-34675101D01*
X132568242Y-34527142D01*
X132537000Y-34370075D01*
X132537000Y-34209925D01*
X132568242Y-34052858D01*
X132629529Y-33904899D01*
X132718499Y-33771745D01*
X132831745Y-33658499D01*
X132964899Y-33569529D01*
X133112858Y-33508242D01*
X133269925Y-33477000D01*
X133430075Y-33477000D01*
X133587142Y-33508242D01*
X133587142Y-33508242D01*
G37*
G36*
X146287142Y-33508242D02*
G01*
X146435101Y-33569529D01*
X146568255Y-33658499D01*
X146681501Y-33771745D01*
X146770471Y-33904899D01*
X146831758Y-34052858D01*
X146863000Y-34209925D01*
X146863000Y-34370075D01*
X146831758Y-34527142D01*
X146770471Y-34675101D01*
X146681501Y-34808255D01*
X146568255Y-34921501D01*
X146435101Y-35010471D01*
X146287142Y-35071758D01*
X146130075Y-35103000D01*
X145969925Y-35103000D01*
X145812858Y-35071758D01*
X145664899Y-35010471D01*
X145531745Y-34921501D01*
X145418499Y-34808255D01*
X145329529Y-34675101D01*
X145268242Y-34527142D01*
X145237000Y-34370075D01*
X145237000Y-34209925D01*
X145268242Y-34052858D01*
X145329529Y-33904899D01*
X145418499Y-33771745D01*
X145531745Y-33658499D01*
X145664899Y-33569529D01*
X145812858Y-33508242D01*
X145969925Y-33477000D01*
X146130075Y-33477000D01*
X146287142Y-33508242D01*
X146287142Y-33508242D01*
G37*
G36*
X81898443Y-31871519D02*
G01*
X81964627Y-31878037D01*
X82134466Y-31929557D01*
X82290991Y-32013222D01*
X82319869Y-32036922D01*
X82428186Y-32125814D01*
X82508117Y-32223212D01*
X82540778Y-32263009D01*
X82624443Y-32419534D01*
X82675963Y-32589373D01*
X82693359Y-32766000D01*
X82675963Y-32942627D01*
X82624443Y-33112466D01*
X82540778Y-33268991D01*
X82511448Y-33304729D01*
X82428186Y-33406186D01*
X82326729Y-33489448D01*
X82290991Y-33518778D01*
X82134466Y-33602443D01*
X81964627Y-33653963D01*
X81918571Y-33658499D01*
X81832260Y-33667000D01*
X81743740Y-33667000D01*
X81657429Y-33658499D01*
X81611373Y-33653963D01*
X81441534Y-33602443D01*
X81285009Y-33518778D01*
X81249271Y-33489448D01*
X81147814Y-33406186D01*
X81064552Y-33304729D01*
X81035222Y-33268991D01*
X80951557Y-33112466D01*
X80900037Y-32942627D01*
X80882641Y-32766000D01*
X80900037Y-32589373D01*
X80951557Y-32419534D01*
X81035222Y-32263009D01*
X81067883Y-32223212D01*
X81147814Y-32125814D01*
X81256131Y-32036922D01*
X81285009Y-32013222D01*
X81441534Y-31929557D01*
X81611373Y-31878037D01*
X81677557Y-31871519D01*
X81743740Y-31865000D01*
X81832260Y-31865000D01*
X81898443Y-31871519D01*
X81898443Y-31871519D01*
G37*
G36*
X88704823Y-31673313D02*
G01*
X88865242Y-31721976D01*
X88958581Y-31771867D01*
X89013078Y-31800996D01*
X89142659Y-31907341D01*
X89249004Y-32036922D01*
X89249005Y-32036924D01*
X89328024Y-32184758D01*
X89376687Y-32345177D01*
X89393117Y-32512000D01*
X89376687Y-32678823D01*
X89328024Y-32839242D01*
X89257114Y-32971906D01*
X89249004Y-32987078D01*
X89142659Y-33116659D01*
X89013078Y-33223004D01*
X89013076Y-33223005D01*
X88865242Y-33302024D01*
X88704823Y-33350687D01*
X88579804Y-33363000D01*
X87696196Y-33363000D01*
X87571177Y-33350687D01*
X87410758Y-33302024D01*
X87262924Y-33223005D01*
X87262922Y-33223004D01*
X87133341Y-33116659D01*
X87026996Y-32987078D01*
X87018886Y-32971906D01*
X86947976Y-32839242D01*
X86899313Y-32678823D01*
X86882883Y-32512000D01*
X86899313Y-32345177D01*
X86947976Y-32184758D01*
X87026995Y-32036924D01*
X87026996Y-32036922D01*
X87133341Y-31907341D01*
X87262922Y-31800996D01*
X87317419Y-31771867D01*
X87410758Y-31721976D01*
X87571177Y-31673313D01*
X87696196Y-31661000D01*
X88579804Y-31661000D01*
X88704823Y-31673313D01*
X88704823Y-31673313D01*
G37*
G36*
X96324823Y-31673313D02*
G01*
X96485242Y-31721976D01*
X96578581Y-31771867D01*
X96633078Y-31800996D01*
X96762659Y-31907341D01*
X96869004Y-32036922D01*
X96869005Y-32036924D01*
X96948024Y-32184758D01*
X96996687Y-32345177D01*
X97013117Y-32512000D01*
X96996687Y-32678823D01*
X96948024Y-32839242D01*
X96877114Y-32971906D01*
X96869004Y-32987078D01*
X96762659Y-33116659D01*
X96633078Y-33223004D01*
X96633076Y-33223005D01*
X96485242Y-33302024D01*
X96324823Y-33350687D01*
X96199804Y-33363000D01*
X95316196Y-33363000D01*
X95191177Y-33350687D01*
X95030758Y-33302024D01*
X94882924Y-33223005D01*
X94882922Y-33223004D01*
X94753341Y-33116659D01*
X94646996Y-32987078D01*
X94638886Y-32971906D01*
X94567976Y-32839242D01*
X94519313Y-32678823D01*
X94502883Y-32512000D01*
X94519313Y-32345177D01*
X94567976Y-32184758D01*
X94646995Y-32036924D01*
X94646996Y-32036922D01*
X94753341Y-31907341D01*
X94882922Y-31800996D01*
X94937419Y-31771867D01*
X95030758Y-31721976D01*
X95191177Y-31673313D01*
X95316196Y-31661000D01*
X96199804Y-31661000D01*
X96324823Y-31673313D01*
X96324823Y-31673313D01*
G37*
G36*
X100657665Y-31764622D02*
G01*
X100731222Y-31771867D01*
X100872786Y-31814810D01*
X101003252Y-31884546D01*
X101031028Y-31907341D01*
X101117607Y-31978393D01*
X101187008Y-32062960D01*
X101211454Y-32092748D01*
X101281190Y-32223214D01*
X101324133Y-32364778D01*
X101338633Y-32512000D01*
X101324133Y-32659222D01*
X101281190Y-32800786D01*
X101211454Y-32931252D01*
X101187008Y-32961040D01*
X101117607Y-33045607D01*
X101057004Y-33095341D01*
X101003252Y-33139454D01*
X100872786Y-33209190D01*
X100731222Y-33252133D01*
X100657665Y-33259378D01*
X100620888Y-33263000D01*
X100547112Y-33263000D01*
X100510335Y-33259378D01*
X100436778Y-33252133D01*
X100295214Y-33209190D01*
X100164748Y-33139454D01*
X100110996Y-33095341D01*
X100050393Y-33045607D01*
X99980992Y-32961040D01*
X99956546Y-32931252D01*
X99886810Y-32800786D01*
X99843867Y-32659222D01*
X99829367Y-32512000D01*
X99843867Y-32364778D01*
X99886810Y-32223214D01*
X99956546Y-32092748D01*
X99980992Y-32062960D01*
X100050393Y-31978393D01*
X100136972Y-31907341D01*
X100164748Y-31884546D01*
X100295214Y-31814810D01*
X100436778Y-31771867D01*
X100510335Y-31764622D01*
X100547112Y-31761000D01*
X100620888Y-31761000D01*
X100657665Y-31764622D01*
X100657665Y-31764622D01*
G37*
G36*
X108423059Y-31789860D02*
G01*
X108520147Y-31830075D01*
X108559732Y-31846472D01*
X108682735Y-31928660D01*
X108787340Y-32033265D01*
X108869528Y-32156268D01*
X108869529Y-32156270D01*
X108926140Y-32292941D01*
X108951321Y-32419534D01*
X108955000Y-32438033D01*
X108955000Y-32585967D01*
X108926140Y-32731059D01*
X108869528Y-32867732D01*
X108787340Y-32990735D01*
X108682735Y-33095340D01*
X108559732Y-33177528D01*
X108559731Y-33177529D01*
X108559730Y-33177529D01*
X108423059Y-33234140D01*
X108277968Y-33263000D01*
X108130032Y-33263000D01*
X107984941Y-33234140D01*
X107848270Y-33177529D01*
X107848269Y-33177529D01*
X107848268Y-33177528D01*
X107725265Y-33095340D01*
X107620660Y-32990735D01*
X107538472Y-32867732D01*
X107481860Y-32731059D01*
X107453000Y-32585967D01*
X107453000Y-32438033D01*
X107456680Y-32419534D01*
X107481860Y-32292941D01*
X107538471Y-32156270D01*
X107538472Y-32156268D01*
X107620660Y-32033265D01*
X107725265Y-31928660D01*
X107848268Y-31846472D01*
X107887854Y-31830075D01*
X107984941Y-31789860D01*
X108130032Y-31761000D01*
X108277968Y-31761000D01*
X108423059Y-31789860D01*
X108423059Y-31789860D01*
G37*
G36*
X158987142Y-30968242D02*
G01*
X159135101Y-31029529D01*
X159268255Y-31118499D01*
X159381501Y-31231745D01*
X159470471Y-31364899D01*
X159531758Y-31512858D01*
X159563000Y-31669925D01*
X159563000Y-31830075D01*
X159531758Y-31987142D01*
X159470471Y-32135101D01*
X159381501Y-32268255D01*
X159268255Y-32381501D01*
X159135101Y-32470471D01*
X158987142Y-32531758D01*
X158830075Y-32563000D01*
X158669925Y-32563000D01*
X158512858Y-32531758D01*
X158364899Y-32470471D01*
X158231745Y-32381501D01*
X158118499Y-32268255D01*
X158029529Y-32135101D01*
X157968242Y-31987142D01*
X157937000Y-31830075D01*
X157937000Y-31669925D01*
X157968242Y-31512858D01*
X158029529Y-31364899D01*
X158118499Y-31231745D01*
X158231745Y-31118499D01*
X158364899Y-31029529D01*
X158512858Y-30968242D01*
X158669925Y-30937000D01*
X158830075Y-30937000D01*
X158987142Y-30968242D01*
X158987142Y-30968242D01*
G37*
G36*
X120887142Y-30968242D02*
G01*
X121035101Y-31029529D01*
X121168255Y-31118499D01*
X121281501Y-31231745D01*
X121370471Y-31364899D01*
X121431758Y-31512858D01*
X121463000Y-31669925D01*
X121463000Y-31830075D01*
X121431758Y-31987142D01*
X121370471Y-32135101D01*
X121281501Y-32268255D01*
X121168255Y-32381501D01*
X121035101Y-32470471D01*
X120887142Y-32531758D01*
X120730075Y-32563000D01*
X120569925Y-32563000D01*
X120412858Y-32531758D01*
X120264899Y-32470471D01*
X120131745Y-32381501D01*
X120018499Y-32268255D01*
X119929529Y-32135101D01*
X119868242Y-31987142D01*
X119837000Y-31830075D01*
X119837000Y-31669925D01*
X119868242Y-31512858D01*
X119929529Y-31364899D01*
X120018499Y-31231745D01*
X120131745Y-31118499D01*
X120264899Y-31029529D01*
X120412858Y-30968242D01*
X120569925Y-30937000D01*
X120730075Y-30937000D01*
X120887142Y-30968242D01*
X120887142Y-30968242D01*
G37*
G36*
X146287142Y-30968242D02*
G01*
X146435101Y-31029529D01*
X146568255Y-31118499D01*
X146681501Y-31231745D01*
X146770471Y-31364899D01*
X146831758Y-31512858D01*
X146863000Y-31669925D01*
X146863000Y-31830075D01*
X146831758Y-31987142D01*
X146770471Y-32135101D01*
X146681501Y-32268255D01*
X146568255Y-32381501D01*
X146435101Y-32470471D01*
X146287142Y-32531758D01*
X146130075Y-32563000D01*
X145969925Y-32563000D01*
X145812858Y-32531758D01*
X145664899Y-32470471D01*
X145531745Y-32381501D01*
X145418499Y-32268255D01*
X145329529Y-32135101D01*
X145268242Y-31987142D01*
X145237000Y-31830075D01*
X145237000Y-31669925D01*
X145268242Y-31512858D01*
X145329529Y-31364899D01*
X145418499Y-31231745D01*
X145531745Y-31118499D01*
X145664899Y-31029529D01*
X145812858Y-30968242D01*
X145969925Y-30937000D01*
X146130075Y-30937000D01*
X146287142Y-30968242D01*
X146287142Y-30968242D01*
G37*
G36*
X133587142Y-30968242D02*
G01*
X133735101Y-31029529D01*
X133868255Y-31118499D01*
X133981501Y-31231745D01*
X134070471Y-31364899D01*
X134131758Y-31512858D01*
X134163000Y-31669925D01*
X134163000Y-31830075D01*
X134131758Y-31987142D01*
X134070471Y-32135101D01*
X133981501Y-32268255D01*
X133868255Y-32381501D01*
X133735101Y-32470471D01*
X133587142Y-32531758D01*
X133430075Y-32563000D01*
X133269925Y-32563000D01*
X133112858Y-32531758D01*
X132964899Y-32470471D01*
X132831745Y-32381501D01*
X132718499Y-32268255D01*
X132629529Y-32135101D01*
X132568242Y-31987142D01*
X132537000Y-31830075D01*
X132537000Y-31669925D01*
X132568242Y-31512858D01*
X132629529Y-31364899D01*
X132718499Y-31231745D01*
X132831745Y-31118499D01*
X132964899Y-31029529D01*
X133112858Y-30968242D01*
X133269925Y-30937000D01*
X133430075Y-30937000D01*
X133587142Y-30968242D01*
X133587142Y-30968242D01*
G37*
G36*
X138667142Y-30968242D02*
G01*
X138815101Y-31029529D01*
X138948255Y-31118499D01*
X139061501Y-31231745D01*
X139150471Y-31364899D01*
X139211758Y-31512858D01*
X139243000Y-31669925D01*
X139243000Y-31830075D01*
X139211758Y-31987142D01*
X139150471Y-32135101D01*
X139061501Y-32268255D01*
X138948255Y-32381501D01*
X138815101Y-32470471D01*
X138667142Y-32531758D01*
X138510075Y-32563000D01*
X138349925Y-32563000D01*
X138192858Y-32531758D01*
X138044899Y-32470471D01*
X137911745Y-32381501D01*
X137798499Y-32268255D01*
X137709529Y-32135101D01*
X137648242Y-31987142D01*
X137617000Y-31830075D01*
X137617000Y-31669925D01*
X137648242Y-31512858D01*
X137709529Y-31364899D01*
X137798499Y-31231745D01*
X137911745Y-31118499D01*
X138044899Y-31029529D01*
X138192858Y-30968242D01*
X138349925Y-30937000D01*
X138510075Y-30937000D01*
X138667142Y-30968242D01*
X138667142Y-30968242D01*
G37*
G36*
X151367142Y-30968242D02*
G01*
X151515101Y-31029529D01*
X151648255Y-31118499D01*
X151761501Y-31231745D01*
X151850471Y-31364899D01*
X151911758Y-31512858D01*
X151943000Y-31669925D01*
X151943000Y-31830075D01*
X151911758Y-31987142D01*
X151850471Y-32135101D01*
X151761501Y-32268255D01*
X151648255Y-32381501D01*
X151515101Y-32470471D01*
X151367142Y-32531758D01*
X151210075Y-32563000D01*
X151049925Y-32563000D01*
X150892858Y-32531758D01*
X150744899Y-32470471D01*
X150611745Y-32381501D01*
X150498499Y-32268255D01*
X150409529Y-32135101D01*
X150348242Y-31987142D01*
X150317000Y-31830075D01*
X150317000Y-31669925D01*
X150348242Y-31512858D01*
X150409529Y-31364899D01*
X150498499Y-31231745D01*
X150611745Y-31118499D01*
X150744899Y-31029529D01*
X150892858Y-30968242D01*
X151049925Y-30937000D01*
X151210075Y-30937000D01*
X151367142Y-30968242D01*
X151367142Y-30968242D01*
G37*
G36*
X113267142Y-30968242D02*
G01*
X113415101Y-31029529D01*
X113548255Y-31118499D01*
X113661501Y-31231745D01*
X113750471Y-31364899D01*
X113811758Y-31512858D01*
X113843000Y-31669925D01*
X113843000Y-31830075D01*
X113811758Y-31987142D01*
X113750471Y-32135101D01*
X113661501Y-32268255D01*
X113548255Y-32381501D01*
X113415101Y-32470471D01*
X113267142Y-32531758D01*
X113110075Y-32563000D01*
X112949925Y-32563000D01*
X112792858Y-32531758D01*
X112644899Y-32470471D01*
X112511745Y-32381501D01*
X112398499Y-32268255D01*
X112309529Y-32135101D01*
X112248242Y-31987142D01*
X112217000Y-31830075D01*
X112217000Y-31669925D01*
X112248242Y-31512858D01*
X112309529Y-31364899D01*
X112398499Y-31231745D01*
X112511745Y-31118499D01*
X112644899Y-31029529D01*
X112792858Y-30968242D01*
X112949925Y-30937000D01*
X113110075Y-30937000D01*
X113267142Y-30968242D01*
X113267142Y-30968242D01*
G37*
G36*
X125967142Y-30968242D02*
G01*
X126115101Y-31029529D01*
X126248255Y-31118499D01*
X126361501Y-31231745D01*
X126450471Y-31364899D01*
X126511758Y-31512858D01*
X126543000Y-31669925D01*
X126543000Y-31830075D01*
X126511758Y-31987142D01*
X126450471Y-32135101D01*
X126361501Y-32268255D01*
X126248255Y-32381501D01*
X126115101Y-32470471D01*
X125967142Y-32531758D01*
X125810075Y-32563000D01*
X125649925Y-32563000D01*
X125492858Y-32531758D01*
X125344899Y-32470471D01*
X125211745Y-32381501D01*
X125098499Y-32268255D01*
X125009529Y-32135101D01*
X124948242Y-31987142D01*
X124917000Y-31830075D01*
X124917000Y-31669925D01*
X124948242Y-31512858D01*
X125009529Y-31364899D01*
X125098499Y-31231745D01*
X125211745Y-31118499D01*
X125344899Y-31029529D01*
X125492858Y-30968242D01*
X125649925Y-30937000D01*
X125810075Y-30937000D01*
X125967142Y-30968242D01*
X125967142Y-30968242D01*
G37*
G36*
X81898443Y-29331519D02*
G01*
X81964627Y-29338037D01*
X82134466Y-29389557D01*
X82290991Y-29473222D01*
X82319869Y-29496922D01*
X82428186Y-29585814D01*
X82508117Y-29683212D01*
X82540778Y-29723009D01*
X82624443Y-29879534D01*
X82675963Y-30049373D01*
X82693359Y-30226000D01*
X82675963Y-30402627D01*
X82624443Y-30572466D01*
X82540778Y-30728991D01*
X82511448Y-30764729D01*
X82428186Y-30866186D01*
X82326729Y-30949448D01*
X82290991Y-30978778D01*
X82134466Y-31062443D01*
X81964627Y-31113963D01*
X81918571Y-31118499D01*
X81832260Y-31127000D01*
X81743740Y-31127000D01*
X81657429Y-31118499D01*
X81611373Y-31113963D01*
X81441534Y-31062443D01*
X81285009Y-30978778D01*
X81249271Y-30949448D01*
X81147814Y-30866186D01*
X81064552Y-30764729D01*
X81035222Y-30728991D01*
X80951557Y-30572466D01*
X80900037Y-30402627D01*
X80882641Y-30226000D01*
X80900037Y-30049373D01*
X80951557Y-29879534D01*
X81035222Y-29723009D01*
X81067883Y-29683212D01*
X81147814Y-29585814D01*
X81256131Y-29496922D01*
X81285009Y-29473222D01*
X81441534Y-29389557D01*
X81611373Y-29338037D01*
X81677557Y-29331519D01*
X81743740Y-29325000D01*
X81832260Y-29325000D01*
X81898443Y-29331519D01*
X81898443Y-29331519D01*
G37*
G36*
X96324823Y-29133313D02*
G01*
X96485242Y-29181976D01*
X96578581Y-29231867D01*
X96633078Y-29260996D01*
X96762659Y-29367341D01*
X96869004Y-29496922D01*
X96869005Y-29496924D01*
X96948024Y-29644758D01*
X96996687Y-29805177D01*
X97013117Y-29972000D01*
X96996687Y-30138823D01*
X96948024Y-30299242D01*
X96877114Y-30431906D01*
X96869004Y-30447078D01*
X96762659Y-30576659D01*
X96633078Y-30683004D01*
X96633076Y-30683005D01*
X96485242Y-30762024D01*
X96324823Y-30810687D01*
X96199804Y-30823000D01*
X95316196Y-30823000D01*
X95191177Y-30810687D01*
X95030758Y-30762024D01*
X94882924Y-30683005D01*
X94882922Y-30683004D01*
X94753341Y-30576659D01*
X94646996Y-30447078D01*
X94638886Y-30431906D01*
X94567976Y-30299242D01*
X94519313Y-30138823D01*
X94502883Y-29972000D01*
X94519313Y-29805177D01*
X94567976Y-29644758D01*
X94646995Y-29496924D01*
X94646996Y-29496922D01*
X94753341Y-29367341D01*
X94882922Y-29260996D01*
X94937419Y-29231867D01*
X95030758Y-29181976D01*
X95191177Y-29133313D01*
X95316196Y-29121000D01*
X96199804Y-29121000D01*
X96324823Y-29133313D01*
X96324823Y-29133313D01*
G37*
G36*
X88704823Y-29133313D02*
G01*
X88865242Y-29181976D01*
X88958581Y-29231867D01*
X89013078Y-29260996D01*
X89142659Y-29367341D01*
X89249004Y-29496922D01*
X89249005Y-29496924D01*
X89328024Y-29644758D01*
X89376687Y-29805177D01*
X89393117Y-29972000D01*
X89376687Y-30138823D01*
X89328024Y-30299242D01*
X89257114Y-30431906D01*
X89249004Y-30447078D01*
X89142659Y-30576659D01*
X89013078Y-30683004D01*
X89013076Y-30683005D01*
X88865242Y-30762024D01*
X88704823Y-30810687D01*
X88579804Y-30823000D01*
X87696196Y-30823000D01*
X87571177Y-30810687D01*
X87410758Y-30762024D01*
X87262924Y-30683005D01*
X87262922Y-30683004D01*
X87133341Y-30576659D01*
X87026996Y-30447078D01*
X87018886Y-30431906D01*
X86947976Y-30299242D01*
X86899313Y-30138823D01*
X86882883Y-29972000D01*
X86899313Y-29805177D01*
X86947976Y-29644758D01*
X87026995Y-29496924D01*
X87026996Y-29496922D01*
X87133341Y-29367341D01*
X87262922Y-29260996D01*
X87317419Y-29231867D01*
X87410758Y-29181976D01*
X87571177Y-29133313D01*
X87696196Y-29121000D01*
X88579804Y-29121000D01*
X88704823Y-29133313D01*
X88704823Y-29133313D01*
G37*
G36*
X100657665Y-29224622D02*
G01*
X100731222Y-29231867D01*
X100872786Y-29274810D01*
X101003252Y-29344546D01*
X101031028Y-29367341D01*
X101117607Y-29438393D01*
X101187008Y-29522960D01*
X101211454Y-29552748D01*
X101281190Y-29683214D01*
X101324133Y-29824778D01*
X101338633Y-29972000D01*
X101324133Y-30119222D01*
X101281190Y-30260786D01*
X101211454Y-30391252D01*
X101187008Y-30421040D01*
X101117607Y-30505607D01*
X101057004Y-30555341D01*
X101003252Y-30599454D01*
X100872786Y-30669190D01*
X100731222Y-30712133D01*
X100657665Y-30719378D01*
X100620888Y-30723000D01*
X100547112Y-30723000D01*
X100510335Y-30719378D01*
X100436778Y-30712133D01*
X100295214Y-30669190D01*
X100164748Y-30599454D01*
X100110996Y-30555341D01*
X100050393Y-30505607D01*
X99980992Y-30421040D01*
X99956546Y-30391252D01*
X99886810Y-30260786D01*
X99843867Y-30119222D01*
X99829367Y-29972000D01*
X99843867Y-29824778D01*
X99886810Y-29683214D01*
X99956546Y-29552748D01*
X99980992Y-29522960D01*
X100050393Y-29438393D01*
X100136972Y-29367341D01*
X100164748Y-29344546D01*
X100295214Y-29274810D01*
X100436778Y-29231867D01*
X100510335Y-29224622D01*
X100547112Y-29221000D01*
X100620888Y-29221000D01*
X100657665Y-29224622D01*
X100657665Y-29224622D01*
G37*
G36*
X108423059Y-29249860D02*
G01*
X108483294Y-29274810D01*
X108559732Y-29306472D01*
X108682735Y-29388660D01*
X108787340Y-29493265D01*
X108849179Y-29585814D01*
X108869529Y-29616270D01*
X108926140Y-29752941D01*
X108951321Y-29879534D01*
X108955000Y-29898033D01*
X108955000Y-30045967D01*
X108926140Y-30191059D01*
X108869528Y-30327732D01*
X108787340Y-30450735D01*
X108682735Y-30555340D01*
X108559732Y-30637528D01*
X108559731Y-30637529D01*
X108559730Y-30637529D01*
X108423059Y-30694140D01*
X108277968Y-30723000D01*
X108130032Y-30723000D01*
X107984941Y-30694140D01*
X107848270Y-30637529D01*
X107848269Y-30637529D01*
X107848268Y-30637528D01*
X107725265Y-30555340D01*
X107620660Y-30450735D01*
X107538472Y-30327732D01*
X107481860Y-30191059D01*
X107453000Y-30045967D01*
X107453000Y-29898033D01*
X107456680Y-29879534D01*
X107481860Y-29752941D01*
X107538471Y-29616270D01*
X107558821Y-29585814D01*
X107620660Y-29493265D01*
X107725265Y-29388660D01*
X107848268Y-29306472D01*
X107924707Y-29274810D01*
X107984941Y-29249860D01*
X108130032Y-29221000D01*
X108277968Y-29221000D01*
X108423059Y-29249860D01*
X108423059Y-29249860D01*
G37*
G36*
X82689000Y-28587000D02*
G01*
X80887000Y-28587000D01*
X80887000Y-26785000D01*
X82689000Y-26785000D01*
X82689000Y-28587000D01*
X82689000Y-28587000D01*
G37*
G36*
X96324823Y-26593313D02*
G01*
X96485242Y-26641976D01*
X96617906Y-26712886D01*
X96633078Y-26720996D01*
X96762659Y-26827341D01*
X96869004Y-26956922D01*
X96869005Y-26956924D01*
X96948024Y-27104758D01*
X96996687Y-27265177D01*
X97013117Y-27432000D01*
X96996687Y-27598823D01*
X96948024Y-27759242D01*
X96877114Y-27891906D01*
X96869004Y-27907078D01*
X96762659Y-28036659D01*
X96633078Y-28143004D01*
X96633076Y-28143005D01*
X96485242Y-28222024D01*
X96324823Y-28270687D01*
X96199804Y-28283000D01*
X95316196Y-28283000D01*
X95191177Y-28270687D01*
X95030758Y-28222024D01*
X94882924Y-28143005D01*
X94882922Y-28143004D01*
X94753341Y-28036659D01*
X94646996Y-27907078D01*
X94638886Y-27891906D01*
X94567976Y-27759242D01*
X94519313Y-27598823D01*
X94502883Y-27432000D01*
X94519313Y-27265177D01*
X94567976Y-27104758D01*
X94646995Y-26956924D01*
X94646996Y-26956922D01*
X94753341Y-26827341D01*
X94882922Y-26720996D01*
X94898094Y-26712886D01*
X95030758Y-26641976D01*
X95191177Y-26593313D01*
X95316196Y-26581000D01*
X96199804Y-26581000D01*
X96324823Y-26593313D01*
X96324823Y-26593313D01*
G37*
G36*
X89389000Y-28283000D02*
G01*
X86887000Y-28283000D01*
X86887000Y-26581000D01*
X89389000Y-26581000D01*
X89389000Y-28283000D01*
X89389000Y-28283000D01*
G37*
G36*
X139723395Y-23215546D02*
G01*
X139896466Y-23287234D01*
X139896467Y-23287235D01*
X140052227Y-23391310D01*
X140184690Y-23523773D01*
X140233213Y-23596393D01*
X140288766Y-23679534D01*
X140360454Y-23852605D01*
X140397000Y-24036333D01*
X140397000Y-24223667D01*
X140360454Y-24407395D01*
X140288766Y-24580466D01*
X140269877Y-24608735D01*
X140184690Y-24736227D01*
X140052227Y-24868690D01*
X139973818Y-24921081D01*
X139896466Y-24972766D01*
X139723395Y-25044454D01*
X139539667Y-25081000D01*
X139352333Y-25081000D01*
X139168605Y-25044454D01*
X138995534Y-24972766D01*
X138918182Y-24921081D01*
X138839773Y-24868690D01*
X138707310Y-24736227D01*
X138622123Y-24608735D01*
X138603234Y-24580466D01*
X138531546Y-24407395D01*
X138495000Y-24223667D01*
X138495000Y-24036333D01*
X138531546Y-23852605D01*
X138603234Y-23679534D01*
X138658787Y-23596393D01*
X138707310Y-23523773D01*
X138839773Y-23391310D01*
X138995533Y-23287235D01*
X138995534Y-23287234D01*
X139168605Y-23215546D01*
X139352333Y-23179000D01*
X139539667Y-23179000D01*
X139723395Y-23215546D01*
X139723395Y-23215546D01*
G37*
G36*
X142937000Y-25081000D02*
G01*
X141035000Y-25081000D01*
X141035000Y-23179000D01*
X142937000Y-23179000D01*
X142937000Y-25081000D01*
X142937000Y-25081000D01*
G37*
G36*
X128343665Y-23382622D02*
G01*
X128417222Y-23389867D01*
X128558786Y-23432810D01*
X128689252Y-23502546D01*
X128719040Y-23526992D01*
X128803607Y-23596393D01*
X128871837Y-23679534D01*
X128897454Y-23710748D01*
X128967190Y-23841214D01*
X129010133Y-23982778D01*
X129024633Y-24130000D01*
X129010133Y-24277222D01*
X128967190Y-24418786D01*
X128897454Y-24549252D01*
X128873008Y-24579040D01*
X128803607Y-24663607D01*
X128743004Y-24713341D01*
X128689252Y-24757454D01*
X128558786Y-24827190D01*
X128417222Y-24870133D01*
X128343665Y-24877378D01*
X128306888Y-24881000D01*
X128233112Y-24881000D01*
X128196335Y-24877378D01*
X128122778Y-24870133D01*
X127981214Y-24827190D01*
X127850748Y-24757454D01*
X127796996Y-24713341D01*
X127736393Y-24663607D01*
X127666992Y-24579040D01*
X127642546Y-24549252D01*
X127572810Y-24418786D01*
X127529867Y-24277222D01*
X127515367Y-24130000D01*
X127529867Y-23982778D01*
X127572810Y-23841214D01*
X127642546Y-23710748D01*
X127668163Y-23679534D01*
X127736393Y-23596393D01*
X127820960Y-23526992D01*
X127850748Y-23502546D01*
X127981214Y-23432810D01*
X128122778Y-23389867D01*
X128196335Y-23382622D01*
X128233112Y-23379000D01*
X128306888Y-23379000D01*
X128343665Y-23382622D01*
X128343665Y-23382622D01*
G37*
G36*
X136109059Y-23407860D02*
G01*
X136192550Y-23442443D01*
X136245732Y-23464472D01*
X136368735Y-23546660D01*
X136473340Y-23651265D01*
X136555528Y-23774268D01*
X136555529Y-23774270D01*
X136602809Y-23888415D01*
X136612140Y-23910941D01*
X136641000Y-24056033D01*
X136641000Y-24203967D01*
X136612140Y-24349059D01*
X136555528Y-24485732D01*
X136473340Y-24608735D01*
X136368735Y-24713340D01*
X136245732Y-24795528D01*
X136245731Y-24795529D01*
X136245730Y-24795529D01*
X136109059Y-24852140D01*
X135963968Y-24881000D01*
X135816032Y-24881000D01*
X135670941Y-24852140D01*
X135534270Y-24795529D01*
X135534269Y-24795529D01*
X135534268Y-24795528D01*
X135411265Y-24713340D01*
X135306660Y-24608735D01*
X135224472Y-24485732D01*
X135167860Y-24349059D01*
X135139000Y-24203967D01*
X135139000Y-24056033D01*
X135167860Y-23910941D01*
X135177191Y-23888415D01*
X135224471Y-23774270D01*
X135224472Y-23774268D01*
X135306660Y-23651265D01*
X135411265Y-23546660D01*
X135534268Y-23464472D01*
X135587451Y-23442443D01*
X135670941Y-23407860D01*
X135816032Y-23379000D01*
X135963968Y-23379000D01*
X136109059Y-23407860D01*
X136109059Y-23407860D01*
G37*
G36*
X93466228Y-22803703D02*
G01*
X93621100Y-22867853D01*
X93760481Y-22960985D01*
X93879015Y-23079519D01*
X93972147Y-23218900D01*
X94036297Y-23373772D01*
X94069000Y-23538184D01*
X94069000Y-23705816D01*
X94036297Y-23870228D01*
X93972147Y-24025100D01*
X93879015Y-24164481D01*
X93760481Y-24283015D01*
X93621100Y-24376147D01*
X93466228Y-24440297D01*
X93301816Y-24473000D01*
X93134184Y-24473000D01*
X92969772Y-24440297D01*
X92814900Y-24376147D01*
X92675519Y-24283015D01*
X92556985Y-24164481D01*
X92463853Y-24025100D01*
X92399703Y-23870228D01*
X92367000Y-23705816D01*
X92367000Y-23538184D01*
X92399703Y-23373772D01*
X92463853Y-23218900D01*
X92556985Y-23079519D01*
X92675519Y-22960985D01*
X92814900Y-22867853D01*
X92969772Y-22803703D01*
X93134184Y-22771000D01*
X93301816Y-22771000D01*
X93466228Y-22803703D01*
X93466228Y-22803703D01*
G37*
G36*
X90966228Y-22803703D02*
G01*
X91121100Y-22867853D01*
X91260481Y-22960985D01*
X91379015Y-23079519D01*
X91472147Y-23218900D01*
X91536297Y-23373772D01*
X91569000Y-23538184D01*
X91569000Y-23705816D01*
X91536297Y-23870228D01*
X91472147Y-24025100D01*
X91379015Y-24164481D01*
X91260481Y-24283015D01*
X91121100Y-24376147D01*
X90966228Y-24440297D01*
X90801816Y-24473000D01*
X90634184Y-24473000D01*
X90469772Y-24440297D01*
X90314900Y-24376147D01*
X90175519Y-24283015D01*
X90056985Y-24164481D01*
X89963853Y-24025100D01*
X89899703Y-23870228D01*
X89867000Y-23705816D01*
X89867000Y-23538184D01*
X89899703Y-23373772D01*
X89963853Y-23218900D01*
X90056985Y-23079519D01*
X90175519Y-22960985D01*
X90314900Y-22867853D01*
X90469772Y-22803703D01*
X90634184Y-22771000D01*
X90801816Y-22771000D01*
X90966228Y-22803703D01*
X90966228Y-22803703D01*
G37*
G36*
X157601256Y-20997298D02*
G01*
X157707579Y-21018447D01*
X158008042Y-21142903D01*
X158278451Y-21323585D01*
X158508415Y-21553549D01*
X158689097Y-21823958D01*
X158804685Y-22103011D01*
X158813553Y-22124422D01*
X158877000Y-22443389D01*
X158877000Y-22768611D01*
X158857259Y-22867853D01*
X158813553Y-23087579D01*
X158689097Y-23388042D01*
X158508415Y-23658451D01*
X158278451Y-23888415D01*
X158008042Y-24069097D01*
X157707579Y-24193553D01*
X157655224Y-24203967D01*
X157388611Y-24257000D01*
X157063389Y-24257000D01*
X156796776Y-24203967D01*
X156744421Y-24193553D01*
X156443958Y-24069097D01*
X156173549Y-23888415D01*
X155943585Y-23658451D01*
X155762903Y-23388042D01*
X155638447Y-23087579D01*
X155594741Y-22867853D01*
X155575000Y-22768611D01*
X155575000Y-22443389D01*
X155638447Y-22124422D01*
X155647316Y-22103011D01*
X155762903Y-21823958D01*
X155943585Y-21553549D01*
X156173549Y-21323585D01*
X156443958Y-21142903D01*
X156744421Y-21018447D01*
X156850744Y-20997298D01*
X157063389Y-20955000D01*
X157388611Y-20955000D01*
X157601256Y-20997298D01*
X157601256Y-20997298D01*
G37*
G36*
X84195256Y-20743298D02*
G01*
X84301579Y-20764447D01*
X84602042Y-20888903D01*
X84872451Y-21069585D01*
X85102415Y-21299549D01*
X85283097Y-21569958D01*
X85407553Y-21870421D01*
X85471000Y-22189391D01*
X85471000Y-22514609D01*
X85407553Y-22833579D01*
X85319550Y-23046037D01*
X85293474Y-23108991D01*
X85283097Y-23134042D01*
X85102415Y-23404451D01*
X84872451Y-23634415D01*
X84602042Y-23815097D01*
X84301579Y-23939553D01*
X84195256Y-23960702D01*
X83982611Y-24003000D01*
X83657389Y-24003000D01*
X83444744Y-23960702D01*
X83338421Y-23939553D01*
X83037958Y-23815097D01*
X82767549Y-23634415D01*
X82537585Y-23404451D01*
X82356903Y-23134042D01*
X82346527Y-23108991D01*
X82320450Y-23046037D01*
X82232447Y-22833579D01*
X82169000Y-22514609D01*
X82169000Y-22189391D01*
X82232447Y-21870421D01*
X82356903Y-21569958D01*
X82537585Y-21299549D01*
X82767549Y-21069585D01*
X83037958Y-20888903D01*
X83338421Y-20764447D01*
X83444744Y-20743298D01*
X83657389Y-20701000D01*
X83982611Y-20701000D01*
X84195256Y-20743298D01*
X84195256Y-20743298D01*
G37*
G36*
X150224443Y-21711519D02*
G01*
X150290627Y-21718037D01*
X150460466Y-21769557D01*
X150616991Y-21853222D01*
X150637948Y-21870421D01*
X150754186Y-21965814D01*
X150837448Y-22067271D01*
X150866778Y-22103009D01*
X150866779Y-22103011D01*
X150912951Y-22189391D01*
X150950443Y-22259534D01*
X151001963Y-22429373D01*
X151019359Y-22606000D01*
X151001963Y-22782627D01*
X150976110Y-22867852D01*
X150950442Y-22952468D01*
X150908611Y-23030728D01*
X150866778Y-23108991D01*
X150846219Y-23134042D01*
X150754186Y-23246186D01*
X150652729Y-23329448D01*
X150616991Y-23358778D01*
X150460466Y-23442443D01*
X150290627Y-23493963D01*
X150224442Y-23500482D01*
X150158260Y-23507000D01*
X150069740Y-23507000D01*
X150003557Y-23500481D01*
X149937373Y-23493963D01*
X149767534Y-23442443D01*
X149611009Y-23358778D01*
X149575271Y-23329448D01*
X149473814Y-23246186D01*
X149381781Y-23134042D01*
X149361222Y-23108991D01*
X149319389Y-23030728D01*
X149277558Y-22952468D01*
X149251890Y-22867852D01*
X149226037Y-22782627D01*
X149208641Y-22606000D01*
X149226037Y-22429373D01*
X149277557Y-22259534D01*
X149315050Y-22189391D01*
X149361221Y-22103011D01*
X149361222Y-22103009D01*
X149390552Y-22067271D01*
X149473814Y-21965814D01*
X149590052Y-21870421D01*
X149611009Y-21853222D01*
X149767534Y-21769557D01*
X149937373Y-21718037D01*
X150003558Y-21711518D01*
X150069740Y-21705000D01*
X150158260Y-21705000D01*
X150224443Y-21711519D01*
X150224443Y-21711519D01*
G37*
G36*
X148475000Y-23507000D02*
G01*
X146673000Y-23507000D01*
X146673000Y-21705000D01*
X148475000Y-21705000D01*
X148475000Y-23507000D01*
X148475000Y-23507000D01*
G37*
M02*
