G04 #@! TF.GenerationSoftware,KiCad,Pcbnew,(5.1.4-0-10_14)*
G04 #@! TF.CreationDate,2022-05-27T17:01:38+02:00*
G04 #@! TF.ProjectId,newtrimmer,6e657774-7269-46d6-9d65-722e6b696361,rev?*
G04 #@! TF.SameCoordinates,Original*
G04 #@! TF.FileFunction,Other,Fab,Top*
%FSLAX46Y46*%
G04 Gerber Fmt 4.6, Leading zero omitted, Abs format (unit mm)*
G04 Created by KiCad (PCBNEW (5.1.4-0-10_14)) date 2022-05-27 17:01:38*
%MOMM*%
%LPD*%
G04 APERTURE LIST*
%ADD10C,0.100000*%
%ADD11C,0.150000*%
G04 APERTURE END LIST*
D10*
X74930000Y-85090000D02*
X74930000Y-92710000D01*
X72390000Y-85090000D02*
X74930000Y-85090000D01*
X72390000Y-92075000D02*
X72390000Y-85090000D01*
X73025000Y-92710000D02*
X72390000Y-92075000D01*
X74930000Y-92710000D02*
X73025000Y-92710000D01*
X95250000Y-92710000D02*
X93345000Y-92710000D01*
X93345000Y-92710000D02*
X92710000Y-92075000D01*
X92710000Y-92075000D02*
X92710000Y-85090000D01*
X92710000Y-85090000D02*
X95250000Y-85090000D01*
X95250000Y-85090000D02*
X95250000Y-92710000D01*
X87660000Y-88940000D02*
G75*
G03X87660000Y-88940000I-5150000J0D01*
G01*
X84010000Y-88940000D02*
G75*
G03X84010000Y-88940000I-1500000J0D01*
G01*
X90805000Y-92710000D02*
X88900000Y-92710000D01*
X88900000Y-92710000D02*
X88900000Y-87630000D01*
X88900000Y-87630000D02*
X91440000Y-87630000D01*
X91440000Y-87630000D02*
X91440000Y-92075000D01*
X91440000Y-92075000D02*
X90805000Y-92710000D01*
D11*
X69921904Y-83947142D02*
X69874285Y-83994761D01*
X69731428Y-84042380D01*
X69636190Y-84042380D01*
X69493333Y-83994761D01*
X69398095Y-83899523D01*
X69350476Y-83804285D01*
X69302857Y-83613809D01*
X69302857Y-83470952D01*
X69350476Y-83280476D01*
X69398095Y-83185238D01*
X69493333Y-83090000D01*
X69636190Y-83042380D01*
X69731428Y-83042380D01*
X69874285Y-83090000D01*
X69921904Y-83137619D01*
X70493333Y-84042380D02*
X70398095Y-83994761D01*
X70350476Y-83947142D01*
X70302857Y-83851904D01*
X70302857Y-83566190D01*
X70350476Y-83470952D01*
X70398095Y-83423333D01*
X70493333Y-83375714D01*
X70636190Y-83375714D01*
X70731428Y-83423333D01*
X70779047Y-83470952D01*
X70826666Y-83566190D01*
X70826666Y-83851904D01*
X70779047Y-83947142D01*
X70731428Y-83994761D01*
X70636190Y-84042380D01*
X70493333Y-84042380D01*
X71255238Y-83375714D02*
X71255238Y-84042380D01*
X71255238Y-83470952D02*
X71302857Y-83423333D01*
X71398095Y-83375714D01*
X71540952Y-83375714D01*
X71636190Y-83423333D01*
X71683809Y-83518571D01*
X71683809Y-84042380D01*
X72160000Y-83375714D02*
X72160000Y-84042380D01*
X72160000Y-83470952D02*
X72207619Y-83423333D01*
X72302857Y-83375714D01*
X72445714Y-83375714D01*
X72540952Y-83423333D01*
X72588571Y-83518571D01*
X72588571Y-84042380D01*
X72826666Y-84137619D02*
X73588571Y-84137619D01*
X74017142Y-83042380D02*
X74112380Y-83042380D01*
X74207619Y-83090000D01*
X74255238Y-83137619D01*
X74302857Y-83232857D01*
X74350476Y-83423333D01*
X74350476Y-83661428D01*
X74302857Y-83851904D01*
X74255238Y-83947142D01*
X74207619Y-83994761D01*
X74112380Y-84042380D01*
X74017142Y-84042380D01*
X73921904Y-83994761D01*
X73874285Y-83947142D01*
X73826666Y-83851904D01*
X73779047Y-83661428D01*
X73779047Y-83423333D01*
X73826666Y-83232857D01*
X73874285Y-83137619D01*
X73921904Y-83090000D01*
X74017142Y-83042380D01*
X75302857Y-84042380D02*
X74731428Y-84042380D01*
X75017142Y-84042380D02*
X75017142Y-83042380D01*
X74921904Y-83185238D01*
X74826666Y-83280476D01*
X74731428Y-83328095D01*
X75636190Y-84042380D02*
X76160000Y-83375714D01*
X75636190Y-83375714D02*
X76160000Y-84042380D01*
X76731428Y-83042380D02*
X76826666Y-83042380D01*
X76921904Y-83090000D01*
X76969523Y-83137619D01*
X77017142Y-83232857D01*
X77064761Y-83423333D01*
X77064761Y-83661428D01*
X77017142Y-83851904D01*
X76969523Y-83947142D01*
X76921904Y-83994761D01*
X76826666Y-84042380D01*
X76731428Y-84042380D01*
X76636190Y-83994761D01*
X76588571Y-83947142D01*
X76540952Y-83851904D01*
X76493333Y-83661428D01*
X76493333Y-83423333D01*
X76540952Y-83232857D01*
X76588571Y-83137619D01*
X76636190Y-83090000D01*
X76731428Y-83042380D01*
X77398095Y-83042380D02*
X78017142Y-83042380D01*
X77683809Y-83423333D01*
X77826666Y-83423333D01*
X77921904Y-83470952D01*
X77969523Y-83518571D01*
X78017142Y-83613809D01*
X78017142Y-83851904D01*
X77969523Y-83947142D01*
X77921904Y-83994761D01*
X77826666Y-84042380D01*
X77540952Y-84042380D01*
X77445714Y-83994761D01*
X77398095Y-83947142D01*
X73112380Y-89233333D02*
X73826666Y-89233333D01*
X73969523Y-89280952D01*
X74064761Y-89376190D01*
X74112380Y-89519047D01*
X74112380Y-89614285D01*
X74112380Y-88233333D02*
X74112380Y-88804761D01*
X74112380Y-88519047D02*
X73112380Y-88519047D01*
X73255238Y-88614285D01*
X73350476Y-88709523D01*
X73398095Y-88804761D01*
X90241904Y-83947142D02*
X90194285Y-83994761D01*
X90051428Y-84042380D01*
X89956190Y-84042380D01*
X89813333Y-83994761D01*
X89718095Y-83899523D01*
X89670476Y-83804285D01*
X89622857Y-83613809D01*
X89622857Y-83470952D01*
X89670476Y-83280476D01*
X89718095Y-83185238D01*
X89813333Y-83090000D01*
X89956190Y-83042380D01*
X90051428Y-83042380D01*
X90194285Y-83090000D01*
X90241904Y-83137619D01*
X90813333Y-84042380D02*
X90718095Y-83994761D01*
X90670476Y-83947142D01*
X90622857Y-83851904D01*
X90622857Y-83566190D01*
X90670476Y-83470952D01*
X90718095Y-83423333D01*
X90813333Y-83375714D01*
X90956190Y-83375714D01*
X91051428Y-83423333D01*
X91099047Y-83470952D01*
X91146666Y-83566190D01*
X91146666Y-83851904D01*
X91099047Y-83947142D01*
X91051428Y-83994761D01*
X90956190Y-84042380D01*
X90813333Y-84042380D01*
X91575238Y-83375714D02*
X91575238Y-84042380D01*
X91575238Y-83470952D02*
X91622857Y-83423333D01*
X91718095Y-83375714D01*
X91860952Y-83375714D01*
X91956190Y-83423333D01*
X92003809Y-83518571D01*
X92003809Y-84042380D01*
X92480000Y-83375714D02*
X92480000Y-84042380D01*
X92480000Y-83470952D02*
X92527619Y-83423333D01*
X92622857Y-83375714D01*
X92765714Y-83375714D01*
X92860952Y-83423333D01*
X92908571Y-83518571D01*
X92908571Y-84042380D01*
X93146666Y-84137619D02*
X93908571Y-84137619D01*
X94337142Y-83042380D02*
X94432380Y-83042380D01*
X94527619Y-83090000D01*
X94575238Y-83137619D01*
X94622857Y-83232857D01*
X94670476Y-83423333D01*
X94670476Y-83661428D01*
X94622857Y-83851904D01*
X94575238Y-83947142D01*
X94527619Y-83994761D01*
X94432380Y-84042380D01*
X94337142Y-84042380D01*
X94241904Y-83994761D01*
X94194285Y-83947142D01*
X94146666Y-83851904D01*
X94099047Y-83661428D01*
X94099047Y-83423333D01*
X94146666Y-83232857D01*
X94194285Y-83137619D01*
X94241904Y-83090000D01*
X94337142Y-83042380D01*
X95622857Y-84042380D02*
X95051428Y-84042380D01*
X95337142Y-84042380D02*
X95337142Y-83042380D01*
X95241904Y-83185238D01*
X95146666Y-83280476D01*
X95051428Y-83328095D01*
X95956190Y-84042380D02*
X96480000Y-83375714D01*
X95956190Y-83375714D02*
X96480000Y-84042380D01*
X97051428Y-83042380D02*
X97146666Y-83042380D01*
X97241904Y-83090000D01*
X97289523Y-83137619D01*
X97337142Y-83232857D01*
X97384761Y-83423333D01*
X97384761Y-83661428D01*
X97337142Y-83851904D01*
X97289523Y-83947142D01*
X97241904Y-83994761D01*
X97146666Y-84042380D01*
X97051428Y-84042380D01*
X96956190Y-83994761D01*
X96908571Y-83947142D01*
X96860952Y-83851904D01*
X96813333Y-83661428D01*
X96813333Y-83423333D01*
X96860952Y-83232857D01*
X96908571Y-83137619D01*
X96956190Y-83090000D01*
X97051428Y-83042380D01*
X97718095Y-83042380D02*
X98337142Y-83042380D01*
X98003809Y-83423333D01*
X98146666Y-83423333D01*
X98241904Y-83470952D01*
X98289523Y-83518571D01*
X98337142Y-83613809D01*
X98337142Y-83851904D01*
X98289523Y-83947142D01*
X98241904Y-83994761D01*
X98146666Y-84042380D01*
X97860952Y-84042380D01*
X97765714Y-83994761D01*
X97718095Y-83947142D01*
X93432380Y-89233333D02*
X94146666Y-89233333D01*
X94289523Y-89280952D01*
X94384761Y-89376190D01*
X94432380Y-89519047D01*
X94432380Y-89614285D01*
X93527619Y-88804761D02*
X93480000Y-88757142D01*
X93432380Y-88661904D01*
X93432380Y-88423809D01*
X93480000Y-88328571D01*
X93527619Y-88280952D01*
X93622857Y-88233333D01*
X93718095Y-88233333D01*
X93860952Y-88280952D01*
X94432380Y-88852380D01*
X94432380Y-88233333D01*
X78962380Y-95792380D02*
X78629047Y-95316190D01*
X78390952Y-95792380D02*
X78390952Y-94792380D01*
X78771904Y-94792380D01*
X78867142Y-94840000D01*
X78914761Y-94887619D01*
X78962380Y-94982857D01*
X78962380Y-95125714D01*
X78914761Y-95220952D01*
X78867142Y-95268571D01*
X78771904Y-95316190D01*
X78390952Y-95316190D01*
X79152857Y-95887619D02*
X79914761Y-95887619D01*
X80152857Y-95792380D02*
X80152857Y-94792380D01*
X80533809Y-94792380D01*
X80629047Y-94840000D01*
X80676666Y-94887619D01*
X80724285Y-94982857D01*
X80724285Y-95125714D01*
X80676666Y-95220952D01*
X80629047Y-95268571D01*
X80533809Y-95316190D01*
X80152857Y-95316190D01*
X81343333Y-94792380D02*
X81533809Y-94792380D01*
X81629047Y-94840000D01*
X81724285Y-94935238D01*
X81771904Y-95125714D01*
X81771904Y-95459047D01*
X81724285Y-95649523D01*
X81629047Y-95744761D01*
X81533809Y-95792380D01*
X81343333Y-95792380D01*
X81248095Y-95744761D01*
X81152857Y-95649523D01*
X81105238Y-95459047D01*
X81105238Y-95125714D01*
X81152857Y-94935238D01*
X81248095Y-94840000D01*
X81343333Y-94792380D01*
X82057619Y-94792380D02*
X82629047Y-94792380D01*
X82343333Y-95792380D02*
X82343333Y-94792380D01*
X82724285Y-95887619D02*
X83486190Y-95887619D01*
X83581428Y-94792380D02*
X84152857Y-94792380D01*
X83867142Y-95792380D02*
X83867142Y-94792380D01*
X85057619Y-95792380D02*
X84724285Y-95316190D01*
X84486190Y-95792380D02*
X84486190Y-94792380D01*
X84867142Y-94792380D01*
X84962380Y-94840000D01*
X85010000Y-94887619D01*
X85057619Y-94982857D01*
X85057619Y-95125714D01*
X85010000Y-95220952D01*
X84962380Y-95268571D01*
X84867142Y-95316190D01*
X84486190Y-95316190D01*
X85486190Y-95792380D02*
X85486190Y-94792380D01*
X85962380Y-95792380D02*
X85962380Y-94792380D01*
X86295714Y-95506666D01*
X86629047Y-94792380D01*
X86629047Y-95792380D01*
X79012380Y-89535238D02*
X78536190Y-89868571D01*
X79012380Y-90106666D02*
X78012380Y-90106666D01*
X78012380Y-89725714D01*
X78060000Y-89630476D01*
X78107619Y-89582857D01*
X78202857Y-89535238D01*
X78345714Y-89535238D01*
X78440952Y-89582857D01*
X78488571Y-89630476D01*
X78536190Y-89725714D01*
X78536190Y-90106666D01*
X78012380Y-89249523D02*
X79012380Y-88916190D01*
X78012380Y-88582857D01*
X79012380Y-87725714D02*
X79012380Y-88297142D01*
X79012380Y-88011428D02*
X78012380Y-88011428D01*
X78155238Y-88106666D01*
X78250476Y-88201904D01*
X78298095Y-88297142D01*
X84336666Y-86927142D02*
X84289047Y-86974761D01*
X84146190Y-87022380D01*
X84050952Y-87022380D01*
X83908095Y-86974761D01*
X83812857Y-86879523D01*
X83765238Y-86784285D01*
X83717619Y-86593809D01*
X83717619Y-86450952D01*
X83765238Y-86260476D01*
X83812857Y-86165238D01*
X83908095Y-86070000D01*
X84050952Y-86022380D01*
X84146190Y-86022380D01*
X84289047Y-86070000D01*
X84336666Y-86117619D01*
X84908095Y-87022380D02*
X84812857Y-86974761D01*
X84765238Y-86927142D01*
X84717619Y-86831904D01*
X84717619Y-86546190D01*
X84765238Y-86450952D01*
X84812857Y-86403333D01*
X84908095Y-86355714D01*
X85050952Y-86355714D01*
X85146190Y-86403333D01*
X85193809Y-86450952D01*
X85241428Y-86546190D01*
X85241428Y-86831904D01*
X85193809Y-86927142D01*
X85146190Y-86974761D01*
X85050952Y-87022380D01*
X84908095Y-87022380D01*
X85670000Y-86355714D02*
X85670000Y-87022380D01*
X85670000Y-86450952D02*
X85717619Y-86403333D01*
X85812857Y-86355714D01*
X85955714Y-86355714D01*
X86050952Y-86403333D01*
X86098571Y-86498571D01*
X86098571Y-87022380D01*
X86574761Y-86355714D02*
X86574761Y-87022380D01*
X86574761Y-86450952D02*
X86622380Y-86403333D01*
X86717619Y-86355714D01*
X86860476Y-86355714D01*
X86955714Y-86403333D01*
X87003333Y-86498571D01*
X87003333Y-87022380D01*
X87241428Y-87117619D02*
X88003333Y-87117619D01*
X88431904Y-86022380D02*
X88527142Y-86022380D01*
X88622380Y-86070000D01*
X88670000Y-86117619D01*
X88717619Y-86212857D01*
X88765238Y-86403333D01*
X88765238Y-86641428D01*
X88717619Y-86831904D01*
X88670000Y-86927142D01*
X88622380Y-86974761D01*
X88527142Y-87022380D01*
X88431904Y-87022380D01*
X88336666Y-86974761D01*
X88289047Y-86927142D01*
X88241428Y-86831904D01*
X88193809Y-86641428D01*
X88193809Y-86403333D01*
X88241428Y-86212857D01*
X88289047Y-86117619D01*
X88336666Y-86070000D01*
X88431904Y-86022380D01*
X89717619Y-87022380D02*
X89146190Y-87022380D01*
X89431904Y-87022380D02*
X89431904Y-86022380D01*
X89336666Y-86165238D01*
X89241428Y-86260476D01*
X89146190Y-86308095D01*
X90050952Y-87022380D02*
X90574761Y-86355714D01*
X90050952Y-86355714D02*
X90574761Y-87022380D01*
X91146190Y-86022380D02*
X91241428Y-86022380D01*
X91336666Y-86070000D01*
X91384285Y-86117619D01*
X91431904Y-86212857D01*
X91479523Y-86403333D01*
X91479523Y-86641428D01*
X91431904Y-86831904D01*
X91384285Y-86927142D01*
X91336666Y-86974761D01*
X91241428Y-87022380D01*
X91146190Y-87022380D01*
X91050952Y-86974761D01*
X91003333Y-86927142D01*
X90955714Y-86831904D01*
X90908095Y-86641428D01*
X90908095Y-86403333D01*
X90955714Y-86212857D01*
X91003333Y-86117619D01*
X91050952Y-86070000D01*
X91146190Y-86022380D01*
X91860476Y-86117619D02*
X91908095Y-86070000D01*
X92003333Y-86022380D01*
X92241428Y-86022380D01*
X92336666Y-86070000D01*
X92384285Y-86117619D01*
X92431904Y-86212857D01*
X92431904Y-86308095D01*
X92384285Y-86450952D01*
X91812857Y-87022380D01*
X92431904Y-87022380D01*
X92622380Y-87117619D02*
X93384285Y-87117619D01*
X93622380Y-87022380D02*
X93622380Y-86022380D01*
X93955714Y-86736666D01*
X94289047Y-86022380D01*
X94289047Y-87022380D01*
X95193809Y-87022380D02*
X95193809Y-86498571D01*
X95146190Y-86403333D01*
X95050952Y-86355714D01*
X94860476Y-86355714D01*
X94765238Y-86403333D01*
X95193809Y-86974761D02*
X95098571Y-87022380D01*
X94860476Y-87022380D01*
X94765238Y-86974761D01*
X94717619Y-86879523D01*
X94717619Y-86784285D01*
X94765238Y-86689047D01*
X94860476Y-86641428D01*
X95098571Y-86641428D01*
X95193809Y-86593809D01*
X95812857Y-87022380D02*
X95717619Y-86974761D01*
X95670000Y-86879523D01*
X95670000Y-86022380D01*
X96574761Y-86974761D02*
X96479523Y-87022380D01*
X96289047Y-87022380D01*
X96193809Y-86974761D01*
X96146190Y-86879523D01*
X96146190Y-86498571D01*
X96193809Y-86403333D01*
X96289047Y-86355714D01*
X96479523Y-86355714D01*
X96574761Y-86403333D01*
X96622380Y-86498571D01*
X96622380Y-86593809D01*
X96146190Y-86689047D01*
X89622380Y-90503333D02*
X90336666Y-90503333D01*
X90479523Y-90550952D01*
X90574761Y-90646190D01*
X90622380Y-90789047D01*
X90622380Y-90884285D01*
X89622380Y-90122380D02*
X89622380Y-89503333D01*
X90003333Y-89836666D01*
X90003333Y-89693809D01*
X90050952Y-89598571D01*
X90098571Y-89550952D01*
X90193809Y-89503333D01*
X90431904Y-89503333D01*
X90527142Y-89550952D01*
X90574761Y-89598571D01*
X90622380Y-89693809D01*
X90622380Y-89979523D01*
X90574761Y-90074761D01*
X90527142Y-90122380D01*
M02*
