%TF.GenerationSoftware,KiCad,Pcbnew,(6.0.11-0)*%
%TF.CreationDate,2023-11-09T08:58:10+01:00*%
%TF.ProjectId,ZESP32,5a455350-3332-42e6-9b69-6361645f7063,rev?*%
%TF.SameCoordinates,Original*%
%TF.FileFunction,Copper,L2,Inr*%
%TF.FilePolarity,Positive*%
%FSLAX46Y46*%
G04 Gerber Fmt 4.6, Leading zero omitted, Abs format (unit mm)*
G04 Created by KiCad (PCBNEW (6.0.11-0)) date 2023-11-09 08:58:10*
%MOMM*%
%LPD*%
G01*
G04 APERTURE LIST*
%TA.AperFunction,ComponentPad*%
%ADD10R,1.700000X1.700000*%
%TD*%
%TA.AperFunction,ComponentPad*%
%ADD11O,1.700000X1.700000*%
%TD*%
%TA.AperFunction,HeatsinkPad*%
%ADD12C,0.475000*%
%TD*%
%TA.AperFunction,ComponentPad*%
%ADD13O,1.000000X1.600000*%
%TD*%
%TA.AperFunction,ComponentPad*%
%ADD14O,1.000000X2.100000*%
%TD*%
%TA.AperFunction,ComponentPad*%
%ADD15R,3.000000X3.000000*%
%TD*%
%TA.AperFunction,ComponentPad*%
%ADD16C,3.000000*%
%TD*%
%TA.AperFunction,ViaPad*%
%ADD17C,0.800000*%
%TD*%
%TA.AperFunction,Conductor*%
%ADD18C,0.254000*%
%TD*%
%TA.AperFunction,Conductor*%
%ADD19C,0.406400*%
%TD*%
%TA.AperFunction,Conductor*%
%ADD20C,0.355600*%
%TD*%
G04 APERTURE END LIST*
D10*
%TO.N,EXT_5V*%
%TO.C,J8*%
X91440000Y-88900000D03*
D11*
%TO.N,GND*%
X91440000Y-91440000D03*
%TD*%
D10*
%TO.N,D23*%
%TO.C,J3*%
X91440000Y-93980000D03*
D11*
%TO.N,D22*%
X91440000Y-96520000D03*
%TO.N,D21*%
X91440000Y-99060000D03*
%TO.N,D19*%
X91440000Y-101600000D03*
%TO.N,D18*%
X91440000Y-104140000D03*
%TO.N,D5*%
X91440000Y-106680000D03*
%TO.N,D17*%
X91440000Y-109220000D03*
%TO.N,D16*%
X91440000Y-111760000D03*
%TO.N,D4*%
X91440000Y-114300000D03*
%TO.N,D15*%
X91440000Y-116840000D03*
%TD*%
D12*
%TO.N,GND*%
%TO.C,U4*%
X98343000Y-132862500D03*
X99105500Y-135150000D03*
X97580500Y-133625000D03*
X99105500Y-132100000D03*
X97580500Y-135150000D03*
X96818000Y-134387500D03*
X99105500Y-133625000D03*
X97580500Y-132100000D03*
X98343000Y-134387500D03*
X99868000Y-132862500D03*
X99868000Y-134387500D03*
X96818000Y-132862500D03*
%TD*%
D10*
%TO.N,+3V3*%
%TO.C,J7*%
X104140000Y-91440000D03*
D11*
%TO.N,GND*%
X104140000Y-88900000D03*
%TD*%
D13*
%TO.N,GND*%
%TO.C,J2*%
X100328000Y-47083000D03*
D14*
X108968000Y-51263000D03*
X100328000Y-51263000D03*
D13*
X108968000Y-47083000D03*
%TD*%
D15*
%TO.N,GND*%
%TO.C,J1*%
X86482000Y-48239600D03*
D16*
%TO.N,Net-(D1-Pad2)*%
X91562000Y-48239600D03*
%TD*%
D10*
%TO.N,D34*%
%TO.C,J4*%
X104140000Y-93980000D03*
D11*
%TO.N,D35*%
X104140000Y-96520000D03*
%TO.N,D32*%
X104140000Y-99060000D03*
%TO.N,D33*%
X104140000Y-101600000D03*
%TO.N,D25*%
X104140000Y-104140000D03*
%TO.N,D26*%
X104140000Y-106680000D03*
%TO.N,D27*%
X104140000Y-109220000D03*
%TO.N,D14*%
X104140000Y-111760000D03*
%TO.N,D12*%
X104140000Y-114300000D03*
%TO.N,D13*%
X104140000Y-116840000D03*
%TD*%
D17*
%TO.N,GND*%
X98353800Y-140965000D03*
X92019200Y-58094800D03*
X97230100Y-58598900D03*
X112522000Y-78359000D03*
X103124000Y-72517000D03*
X92331600Y-76451400D03*
X102362000Y-56007000D03*
X83942000Y-58094800D03*
X105664000Y-60071000D03*
X98343000Y-129901400D03*
X95651000Y-93325000D03*
X95351600Y-64871600D03*
%TO.N,IO0*%
X107000000Y-74250000D03*
X97790000Y-120142000D03*
X109804200Y-55295800D03*
X89027000Y-119888000D03*
%TO.N,ENA*%
X100203000Y-84328000D03*
X105247500Y-138430000D03*
X103886000Y-84201000D03*
X98384300Y-116078000D03*
%TO.N,EXT_5V*%
X87249000Y-67945000D03*
%TO.N,+3V3*%
X101452000Y-59888800D03*
X89631600Y-68864400D03*
X104775000Y-139700000D03*
X100457000Y-68961000D03*
X104521000Y-125349000D03*
X102743000Y-68961000D03*
X103886000Y-77089000D03*
%TO.N,Net-(J2-PadA7)*%
X103251000Y-53721000D03*
X105892600Y-53721000D03*
%TO.N,D5*%
X92659200Y-129489200D03*
%TO.N,D19*%
X93726000Y-132080000D03*
%TO.N,D18*%
X92760800Y-130810000D03*
%TO.N,D17*%
X92151200Y-128270000D03*
%TO.N,D16*%
X90779600Y-126542800D03*
%TO.N,D15*%
X91567000Y-120777000D03*
%TO.N,D26*%
X103073200Y-128270000D03*
%TO.N,D25*%
X103124000Y-129540000D03*
%TO.N,D23*%
X95504000Y-139649200D03*
%TO.N,D22*%
X95234700Y-138430000D03*
%TO.N,D21*%
X94183200Y-134569200D03*
%TO.N,D34*%
X101249400Y-134615000D03*
%TO.N,D35*%
X102311200Y-133350000D03*
%TO.N,D32*%
X102463600Y-132080000D03*
%TO.N,D33*%
X102768400Y-130810000D03*
%TO.N,D27*%
X103022400Y-127000000D03*
%TO.N,Net-(JP1-Pad1)*%
X109088000Y-61549200D03*
X109951600Y-69220000D03*
%TO.N,RXD0*%
X112390000Y-73893600D03*
X97536000Y-127762000D03*
%TO.N,Net-(JP2-Pad1)*%
X109088000Y-64902000D03*
X109088000Y-62920800D03*
%TO.N,TXD0*%
X109240400Y-73842800D03*
X96774000Y-129159000D03*
%TO.N,D-*%
X107447100Y-55012000D03*
X104363600Y-58720400D03*
%TD*%
D18*
%TO.N,IO0*%
X97536000Y-119888000D02*
X89662000Y-119888000D01*
X97790000Y-120142000D02*
X97536000Y-119888000D01*
X89662000Y-119888000D02*
X89027000Y-119888000D01*
%TO.N,ENA*%
X104775000Y-138430000D02*
X105247500Y-138430000D01*
X103886000Y-125742134D02*
X104013000Y-125869134D01*
X99187000Y-119634000D02*
X99187000Y-121043134D01*
X104013000Y-137668000D02*
X104775000Y-138430000D01*
X98384300Y-118831300D02*
X99187000Y-119634000D01*
X99187000Y-121043134D02*
X103886000Y-125742134D01*
X98384300Y-116078000D02*
X98384300Y-118577300D01*
X104013000Y-125869134D02*
X104013000Y-137668000D01*
X98384300Y-118577300D02*
X98384300Y-118831300D01*
%TO.N,+3V3*%
X101452000Y-67966000D02*
X100457000Y-68961000D01*
D19*
X101600000Y-76962000D02*
X101600000Y-68961000D01*
D20*
X103886000Y-77089000D02*
X101727000Y-77089000D01*
D19*
X104140000Y-91440000D02*
X106070400Y-91440000D01*
D20*
X100457000Y-68961000D02*
X101600000Y-68961000D01*
X89631600Y-68864400D02*
X89728200Y-68961000D01*
D19*
X102997000Y-91440000D02*
X101600000Y-90043000D01*
X107391200Y-122478800D02*
X104521000Y-125349000D01*
X101600000Y-90043000D02*
X101600000Y-76962000D01*
X107391200Y-92760800D02*
X107391200Y-122478800D01*
X104140000Y-91440000D02*
X102997000Y-91440000D01*
D18*
X101452000Y-59888800D02*
X101452000Y-67966000D01*
D20*
X101600000Y-68961000D02*
X102743000Y-68961000D01*
D19*
X106070400Y-91440000D02*
X107391200Y-92760800D01*
D20*
X101727000Y-77089000D02*
X101600000Y-76962000D01*
X89728200Y-68961000D02*
X100457000Y-68961000D01*
%TD*%
M02*
