%TF.GenerationSoftware,KiCad,Pcbnew,(6.0.11-0)*%
%TF.CreationDate,2023-11-09T08:58:10+01:00*%
%TF.ProjectId,ZESP32,5a455350-3332-42e6-9b69-6361645f7063,rev?*%
%TF.SameCoordinates,Original*%
%TF.FileFunction,Copper,L3,Inr*%
%TF.FilePolarity,Positive*%
%FSLAX46Y46*%
G04 Gerber Fmt 4.6, Leading zero omitted, Abs format (unit mm)*
G04 Created by KiCad (PCBNEW (6.0.11-0)) date 2023-11-09 08:58:10*
%MOMM*%
%LPD*%
G01*
G04 APERTURE LIST*
%TA.AperFunction,ComponentPad*%
%ADD10R,1.700000X1.700000*%
%TD*%
%TA.AperFunction,ComponentPad*%
%ADD11O,1.700000X1.700000*%
%TD*%
%TA.AperFunction,HeatsinkPad*%
%ADD12C,0.475000*%
%TD*%
%TA.AperFunction,ComponentPad*%
%ADD13O,1.000000X1.600000*%
%TD*%
%TA.AperFunction,ComponentPad*%
%ADD14O,1.000000X2.100000*%
%TD*%
%TA.AperFunction,ComponentPad*%
%ADD15R,3.000000X3.000000*%
%TD*%
%TA.AperFunction,ComponentPad*%
%ADD16C,3.000000*%
%TD*%
%TA.AperFunction,ViaPad*%
%ADD17C,0.800000*%
%TD*%
G04 APERTURE END LIST*
D10*
%TO.N,EXT_5V*%
%TO.C,J8*%
X91440000Y-88900000D03*
D11*
%TO.N,GND*%
X91440000Y-91440000D03*
%TD*%
D10*
%TO.N,D23*%
%TO.C,J3*%
X91440000Y-93980000D03*
D11*
%TO.N,D22*%
X91440000Y-96520000D03*
%TO.N,D21*%
X91440000Y-99060000D03*
%TO.N,D19*%
X91440000Y-101600000D03*
%TO.N,D18*%
X91440000Y-104140000D03*
%TO.N,D5*%
X91440000Y-106680000D03*
%TO.N,D17*%
X91440000Y-109220000D03*
%TO.N,D16*%
X91440000Y-111760000D03*
%TO.N,D4*%
X91440000Y-114300000D03*
%TO.N,D15*%
X91440000Y-116840000D03*
%TD*%
D12*
%TO.N,GND*%
%TO.C,U4*%
X98343000Y-132862500D03*
X99105500Y-135150000D03*
X97580500Y-133625000D03*
X99105500Y-132100000D03*
X97580500Y-135150000D03*
X96818000Y-134387500D03*
X99105500Y-133625000D03*
X97580500Y-132100000D03*
X98343000Y-134387500D03*
X99868000Y-132862500D03*
X99868000Y-134387500D03*
X96818000Y-132862500D03*
%TD*%
D10*
%TO.N,+3V3*%
%TO.C,J7*%
X104140000Y-91440000D03*
D11*
%TO.N,GND*%
X104140000Y-88900000D03*
%TD*%
D13*
%TO.N,GND*%
%TO.C,J2*%
X100328000Y-47083000D03*
D14*
X108968000Y-51263000D03*
X100328000Y-51263000D03*
D13*
X108968000Y-47083000D03*
%TD*%
D15*
%TO.N,GND*%
%TO.C,J1*%
X86482000Y-48239600D03*
D16*
%TO.N,Net-(D1-Pad2)*%
X91562000Y-48239600D03*
%TD*%
D10*
%TO.N,D34*%
%TO.C,J4*%
X104140000Y-93980000D03*
D11*
%TO.N,D35*%
X104140000Y-96520000D03*
%TO.N,D32*%
X104140000Y-99060000D03*
%TO.N,D33*%
X104140000Y-101600000D03*
%TO.N,D25*%
X104140000Y-104140000D03*
%TO.N,D26*%
X104140000Y-106680000D03*
%TO.N,D27*%
X104140000Y-109220000D03*
%TO.N,D14*%
X104140000Y-111760000D03*
%TO.N,D12*%
X104140000Y-114300000D03*
%TO.N,D13*%
X104140000Y-116840000D03*
%TD*%
D17*
%TO.N,GND*%
X98353800Y-140965000D03*
X92019200Y-58094800D03*
X97230100Y-58598900D03*
X112522000Y-78359000D03*
X103124000Y-72517000D03*
X92331600Y-76451400D03*
X102362000Y-56007000D03*
X83942000Y-58094800D03*
X105664000Y-60071000D03*
X98343000Y-129901400D03*
X95651000Y-93325000D03*
X95351600Y-64871600D03*
%TO.N,IO0*%
X107000000Y-74250000D03*
X97790000Y-120142000D03*
X109804200Y-55295800D03*
X89027000Y-119888000D03*
%TO.N,ENA*%
X100203000Y-84328000D03*
X105247500Y-138430000D03*
X103886000Y-84201000D03*
X98384300Y-116078000D03*
%TO.N,EXT_5V*%
X87249000Y-67945000D03*
%TO.N,+3V3*%
X101452000Y-59888800D03*
X89631600Y-68864400D03*
X104775000Y-139700000D03*
X100457000Y-68961000D03*
X104521000Y-125349000D03*
X102743000Y-68961000D03*
X103886000Y-77089000D03*
%TO.N,Net-(J2-PadA7)*%
X103251000Y-53721000D03*
X105892600Y-53721000D03*
%TO.N,D5*%
X92659200Y-129489200D03*
%TO.N,D19*%
X93726000Y-132080000D03*
%TO.N,D18*%
X92760800Y-130810000D03*
%TO.N,D17*%
X92151200Y-128270000D03*
%TO.N,D16*%
X90779600Y-126542800D03*
%TO.N,D15*%
X91567000Y-120777000D03*
%TO.N,D26*%
X103073200Y-128270000D03*
%TO.N,D25*%
X103124000Y-129540000D03*
%TO.N,D23*%
X95504000Y-139649200D03*
%TO.N,D22*%
X95234700Y-138430000D03*
%TO.N,D21*%
X94183200Y-134569200D03*
%TO.N,D34*%
X101249400Y-134615000D03*
%TO.N,D35*%
X102311200Y-133350000D03*
%TO.N,D32*%
X102463600Y-132080000D03*
%TO.N,D33*%
X102768400Y-130810000D03*
%TO.N,D27*%
X103022400Y-127000000D03*
%TO.N,Net-(JP1-Pad1)*%
X109088000Y-61549200D03*
X109951600Y-69220000D03*
%TO.N,RXD0*%
X112390000Y-73893600D03*
X97536000Y-127762000D03*
%TO.N,Net-(JP2-Pad1)*%
X109088000Y-64902000D03*
X109088000Y-62920800D03*
%TO.N,TXD0*%
X109240400Y-73842800D03*
X96774000Y-129159000D03*
%TO.N,D-*%
X107447100Y-55012000D03*
X104363600Y-58720400D03*
%TD*%
%TA.AperFunction,Conductor*%
%TO.N,GND*%
G36*
X112428518Y-44198000D02*
G01*
X112443352Y-44200310D01*
X112443355Y-44200310D01*
X112452224Y-44201691D01*
X112461127Y-44200527D01*
X112461130Y-44200527D01*
X112466732Y-44199795D01*
X112492614Y-44199094D01*
X112651790Y-44211193D01*
X112670663Y-44214079D01*
X112850186Y-44255659D01*
X112868404Y-44261365D01*
X113039566Y-44329599D01*
X113056721Y-44337996D01*
X113215606Y-44431319D01*
X113231295Y-44442213D01*
X113374247Y-44558478D01*
X113388109Y-44571619D01*
X113511844Y-44708157D01*
X113523561Y-44723241D01*
X113625239Y-44876917D01*
X113634540Y-44893599D01*
X113711816Y-45060868D01*
X113718490Y-45078765D01*
X113769598Y-45255805D01*
X113773489Y-45274505D01*
X113797249Y-45457228D01*
X113798269Y-45476301D01*
X113794844Y-45628976D01*
X113792526Y-45645718D01*
X113792639Y-45645731D01*
X113791649Y-45654651D01*
X113789405Y-45663341D01*
X113791283Y-45722534D01*
X113791437Y-45727374D01*
X113791500Y-45731370D01*
X113791500Y-83498364D01*
X113788274Y-83526694D01*
X113740601Y-83733292D01*
X113735986Y-83748718D01*
X113649778Y-83981495D01*
X113643241Y-83996186D01*
X113535938Y-84201000D01*
X113528050Y-84216057D01*
X113519680Y-84229816D01*
X113377379Y-84433202D01*
X113367322Y-84445780D01*
X113200251Y-84629342D01*
X113188673Y-84640534D01*
X113068299Y-84742852D01*
X112999550Y-84801288D01*
X112986637Y-84810913D01*
X112778545Y-84946234D01*
X112764512Y-84954132D01*
X112540863Y-85061802D01*
X112525941Y-85067844D01*
X112290390Y-85146105D01*
X112274813Y-85150196D01*
X112031197Y-85197773D01*
X112015225Y-85199843D01*
X111801247Y-85213763D01*
X111777355Y-85212706D01*
X111774631Y-85212675D01*
X111765758Y-85211303D01*
X111734520Y-85215420D01*
X111718056Y-85216500D01*
X109355623Y-85216500D01*
X109354853Y-85216498D01*
X109354037Y-85216493D01*
X109277279Y-85216024D01*
X109254918Y-85222415D01*
X109248847Y-85224150D01*
X109232085Y-85227728D01*
X109202813Y-85231920D01*
X109194645Y-85235634D01*
X109194644Y-85235634D01*
X109179438Y-85242548D01*
X109161914Y-85248996D01*
X109137229Y-85256051D01*
X109129635Y-85260843D01*
X109129632Y-85260844D01*
X109112220Y-85271830D01*
X109097137Y-85279969D01*
X109070218Y-85292208D01*
X109063416Y-85298069D01*
X109050765Y-85308970D01*
X109035756Y-85320076D01*
X109028647Y-85324561D01*
X108961412Y-85344000D01*
X108712000Y-85344000D01*
X108712000Y-141606000D01*
X108691998Y-141674121D01*
X108638342Y-141720614D01*
X108586000Y-141732000D01*
X87502500Y-141732000D01*
X87434379Y-141711998D01*
X87387886Y-141658342D01*
X87376500Y-141606000D01*
X87376500Y-138430000D01*
X94321196Y-138430000D01*
X94341158Y-138619928D01*
X94400173Y-138801556D01*
X94495660Y-138966944D01*
X94500078Y-138971851D01*
X94500079Y-138971852D01*
X94544453Y-139021134D01*
X94623447Y-139108866D01*
X94633026Y-139115826D01*
X94676380Y-139172046D01*
X94682457Y-139242782D01*
X94674072Y-139269012D01*
X94672777Y-139271921D01*
X94669473Y-139277644D01*
X94610458Y-139459272D01*
X94609768Y-139465833D01*
X94609768Y-139465835D01*
X94605119Y-139510072D01*
X94590496Y-139649200D01*
X94610458Y-139839128D01*
X94669473Y-140020756D01*
X94764960Y-140186144D01*
X94769378Y-140191051D01*
X94769379Y-140191052D01*
X94888325Y-140323155D01*
X94892747Y-140328066D01*
X95047248Y-140440318D01*
X95053276Y-140443002D01*
X95053278Y-140443003D01*
X95215681Y-140515309D01*
X95221712Y-140517994D01*
X95315112Y-140537847D01*
X95402056Y-140556328D01*
X95402061Y-140556328D01*
X95408513Y-140557700D01*
X95599487Y-140557700D01*
X95605939Y-140556328D01*
X95605944Y-140556328D01*
X95692888Y-140537847D01*
X95786288Y-140517994D01*
X95792319Y-140515309D01*
X95954722Y-140443003D01*
X95954724Y-140443002D01*
X95960752Y-140440318D01*
X96115253Y-140328066D01*
X96119675Y-140323155D01*
X96238621Y-140191052D01*
X96238622Y-140191051D01*
X96243040Y-140186144D01*
X96338527Y-140020756D01*
X96397542Y-139839128D01*
X96412165Y-139700000D01*
X103861496Y-139700000D01*
X103862186Y-139706565D01*
X103876779Y-139845406D01*
X103881458Y-139889928D01*
X103940473Y-140071556D01*
X104035960Y-140236944D01*
X104040378Y-140241851D01*
X104040379Y-140241852D01*
X104121503Y-140331949D01*
X104163747Y-140378866D01*
X104318248Y-140491118D01*
X104324276Y-140493802D01*
X104324278Y-140493803D01*
X104467794Y-140557700D01*
X104492712Y-140568794D01*
X104586113Y-140588647D01*
X104673056Y-140607128D01*
X104673061Y-140607128D01*
X104679513Y-140608500D01*
X104870487Y-140608500D01*
X104876939Y-140607128D01*
X104876944Y-140607128D01*
X104963887Y-140588647D01*
X105057288Y-140568794D01*
X105082206Y-140557700D01*
X105225722Y-140493803D01*
X105225724Y-140493802D01*
X105231752Y-140491118D01*
X105386253Y-140378866D01*
X105428497Y-140331949D01*
X105509621Y-140241852D01*
X105509622Y-140241851D01*
X105514040Y-140236944D01*
X105609527Y-140071556D01*
X105668542Y-139889928D01*
X105673222Y-139845406D01*
X105687814Y-139706565D01*
X105688504Y-139700000D01*
X105668542Y-139510072D01*
X105626092Y-139379425D01*
X105624064Y-139308458D01*
X105660727Y-139247660D01*
X105694671Y-139225384D01*
X105698221Y-139223803D01*
X105704252Y-139221118D01*
X105858753Y-139108866D01*
X105937747Y-139021134D01*
X105982121Y-138971852D01*
X105982122Y-138971851D01*
X105986540Y-138966944D01*
X106082027Y-138801556D01*
X106141042Y-138619928D01*
X106161004Y-138430000D01*
X106141042Y-138240072D01*
X106082027Y-138058444D01*
X105986540Y-137893056D01*
X105858753Y-137751134D01*
X105704252Y-137638882D01*
X105698224Y-137636198D01*
X105698222Y-137636197D01*
X105535819Y-137563891D01*
X105535818Y-137563891D01*
X105529788Y-137561206D01*
X105436388Y-137541353D01*
X105349444Y-137522872D01*
X105349439Y-137522872D01*
X105342987Y-137521500D01*
X105152013Y-137521500D01*
X105145561Y-137522872D01*
X105145556Y-137522872D01*
X105058612Y-137541353D01*
X104965212Y-137561206D01*
X104959182Y-137563891D01*
X104959181Y-137563891D01*
X104796778Y-137636197D01*
X104796776Y-137636198D01*
X104790748Y-137638882D01*
X104636247Y-137751134D01*
X104508460Y-137893056D01*
X104412973Y-138058444D01*
X104353958Y-138240072D01*
X104333996Y-138430000D01*
X104353958Y-138619928D01*
X104355998Y-138626206D01*
X104396408Y-138750575D01*
X104398436Y-138821542D01*
X104361773Y-138882340D01*
X104327829Y-138904616D01*
X104325543Y-138905634D01*
X104318248Y-138908882D01*
X104163747Y-139021134D01*
X104159326Y-139026044D01*
X104159325Y-139026045D01*
X104081257Y-139112749D01*
X104035960Y-139163056D01*
X103940473Y-139328444D01*
X103881458Y-139510072D01*
X103861496Y-139700000D01*
X96412165Y-139700000D01*
X96417504Y-139649200D01*
X96402881Y-139510072D01*
X96398232Y-139465835D01*
X96398232Y-139465833D01*
X96397542Y-139459272D01*
X96338527Y-139277644D01*
X96243040Y-139112256D01*
X96160994Y-139021134D01*
X96119675Y-138975245D01*
X96119674Y-138975244D01*
X96115253Y-138970334D01*
X96105674Y-138963374D01*
X96062320Y-138907154D01*
X96056243Y-138836418D01*
X96064628Y-138810188D01*
X96065925Y-138807276D01*
X96069227Y-138801556D01*
X96128242Y-138619928D01*
X96148204Y-138430000D01*
X96128242Y-138240072D01*
X96069227Y-138058444D01*
X95973740Y-137893056D01*
X95845953Y-137751134D01*
X95691452Y-137638882D01*
X95685424Y-137636198D01*
X95685422Y-137636197D01*
X95523019Y-137563891D01*
X95523018Y-137563891D01*
X95516988Y-137561206D01*
X95423588Y-137541353D01*
X95336644Y-137522872D01*
X95336639Y-137522872D01*
X95330187Y-137521500D01*
X95139213Y-137521500D01*
X95132761Y-137522872D01*
X95132756Y-137522872D01*
X95045812Y-137541353D01*
X94952412Y-137561206D01*
X94946382Y-137563891D01*
X94946381Y-137563891D01*
X94783978Y-137636197D01*
X94783976Y-137636198D01*
X94777948Y-137638882D01*
X94623447Y-137751134D01*
X94495660Y-137893056D01*
X94400173Y-138058444D01*
X94341158Y-138240072D01*
X94321196Y-138430000D01*
X87376500Y-138430000D01*
X87376500Y-135820420D01*
X97251575Y-135820420D01*
X97254358Y-135824138D01*
X97392400Y-135875475D01*
X97405991Y-135878864D01*
X97557808Y-135899121D01*
X97571804Y-135899414D01*
X97724331Y-135885533D01*
X97738055Y-135882716D01*
X97883719Y-135835387D01*
X97896469Y-135829603D01*
X97898299Y-135828512D01*
X97905802Y-135820420D01*
X98776575Y-135820420D01*
X98779358Y-135824138D01*
X98917400Y-135875475D01*
X98930991Y-135878864D01*
X99082808Y-135899121D01*
X99096804Y-135899414D01*
X99249331Y-135885533D01*
X99263055Y-135882716D01*
X99408719Y-135835387D01*
X99421469Y-135829603D01*
X99423299Y-135828512D01*
X99432887Y-135818171D01*
X99429381Y-135809757D01*
X99118312Y-135498688D01*
X99104368Y-135491074D01*
X99102533Y-135491205D01*
X99095923Y-135495453D01*
X98783334Y-135808041D01*
X98776575Y-135820420D01*
X97905802Y-135820420D01*
X97907887Y-135818171D01*
X97904381Y-135809757D01*
X97593312Y-135498688D01*
X97579368Y-135491074D01*
X97577533Y-135491205D01*
X97570923Y-135495453D01*
X97258334Y-135808041D01*
X97251575Y-135820420D01*
X87376500Y-135820420D01*
X87376500Y-134569200D01*
X93269696Y-134569200D01*
X93270386Y-134575765D01*
X93287247Y-134736185D01*
X93289658Y-134759128D01*
X93348673Y-134940756D01*
X93444160Y-135106144D01*
X93448578Y-135111051D01*
X93448579Y-135111052D01*
X93543327Y-135216280D01*
X93571947Y-135248066D01*
X93726448Y-135360318D01*
X93732476Y-135363002D01*
X93732478Y-135363003D01*
X93894881Y-135435309D01*
X93900912Y-135437994D01*
X93977089Y-135454186D01*
X94081256Y-135476328D01*
X94081261Y-135476328D01*
X94087713Y-135477700D01*
X94278687Y-135477700D01*
X94285139Y-135476328D01*
X94285144Y-135476328D01*
X94389311Y-135454186D01*
X94465488Y-135437994D01*
X94471519Y-135435309D01*
X94633922Y-135363003D01*
X94633924Y-135363002D01*
X94639952Y-135360318D01*
X94794453Y-135248066D01*
X94823073Y-135216280D01*
X94917821Y-135111052D01*
X94917822Y-135111051D01*
X94922240Y-135106144D01*
X94950082Y-135057920D01*
X96489075Y-135057920D01*
X96491858Y-135061638D01*
X96629900Y-135112975D01*
X96643491Y-135116364D01*
X96731542Y-135128112D01*
X96796419Y-135156947D01*
X96835407Y-135216280D01*
X96840277Y-135240709D01*
X96845990Y-135298971D01*
X96848901Y-135312664D01*
X96897246Y-135457993D01*
X96902213Y-135468743D01*
X96911988Y-135477680D01*
X96920607Y-135474018D01*
X97231816Y-135162808D01*
X97238193Y-135151129D01*
X97921574Y-135151129D01*
X97921705Y-135152967D01*
X97925955Y-135159579D01*
X98238122Y-135471747D01*
X98250501Y-135478506D01*
X98270006Y-135463905D01*
X98336527Y-135439094D01*
X98405901Y-135454186D01*
X98430533Y-135471779D01*
X98436988Y-135477680D01*
X98445607Y-135474018D01*
X98756816Y-135162808D01*
X98763193Y-135151129D01*
X99446574Y-135151129D01*
X99446705Y-135152967D01*
X99450955Y-135159579D01*
X99763122Y-135471747D01*
X99775501Y-135478506D01*
X99779317Y-135475649D01*
X99829646Y-135343157D01*
X99833128Y-135329596D01*
X99846321Y-135235724D01*
X99875609Y-135171050D01*
X99935213Y-135132477D01*
X99959676Y-135127778D01*
X100011840Y-135123031D01*
X100025555Y-135120216D01*
X100171219Y-135072887D01*
X100183968Y-135067103D01*
X100280597Y-135009501D01*
X100349351Y-134991801D01*
X100416761Y-135014083D01*
X100454233Y-135054730D01*
X100507058Y-135146226D01*
X100507061Y-135146231D01*
X100510360Y-135151944D01*
X100514778Y-135156851D01*
X100514779Y-135156852D01*
X100600405Y-135251949D01*
X100638147Y-135293866D01*
X100792648Y-135406118D01*
X100798676Y-135408802D01*
X100798678Y-135408803D01*
X100955235Y-135478506D01*
X100967112Y-135483794D01*
X101060513Y-135503647D01*
X101147456Y-135522128D01*
X101147461Y-135522128D01*
X101153913Y-135523500D01*
X101344887Y-135523500D01*
X101351339Y-135522128D01*
X101351344Y-135522128D01*
X101438287Y-135503647D01*
X101531688Y-135483794D01*
X101543565Y-135478506D01*
X101700122Y-135408803D01*
X101700124Y-135408802D01*
X101706152Y-135406118D01*
X101860653Y-135293866D01*
X101898395Y-135251949D01*
X101984021Y-135156852D01*
X101984022Y-135156851D01*
X101988440Y-135151944D01*
X102083927Y-134986556D01*
X102142942Y-134804928D01*
X102162904Y-134615000D01*
X102142942Y-134425072D01*
X102140903Y-134418795D01*
X102139529Y-134412334D01*
X102142083Y-134411791D01*
X102140375Y-134352498D01*
X102177023Y-134291691D01*
X102240728Y-134260351D01*
X102262243Y-134258500D01*
X102406687Y-134258500D01*
X102413139Y-134257128D01*
X102413144Y-134257128D01*
X102500088Y-134238647D01*
X102593488Y-134218794D01*
X102625654Y-134204473D01*
X102761922Y-134143803D01*
X102761924Y-134143802D01*
X102767952Y-134141118D01*
X102922453Y-134028866D01*
X102972138Y-133973685D01*
X103045821Y-133891852D01*
X103045822Y-133891851D01*
X103050240Y-133886944D01*
X103131495Y-133746206D01*
X103142423Y-133727279D01*
X103142424Y-133727278D01*
X103145727Y-133721556D01*
X103204742Y-133539928D01*
X103224704Y-133350000D01*
X103217299Y-133279546D01*
X103205432Y-133166635D01*
X103205432Y-133166633D01*
X103204742Y-133160072D01*
X103145727Y-132978444D01*
X103086565Y-132875972D01*
X103069827Y-132806978D01*
X103093047Y-132739886D01*
X103102048Y-132728663D01*
X103198221Y-132621852D01*
X103198222Y-132621851D01*
X103202640Y-132616944D01*
X103298127Y-132451556D01*
X103357142Y-132269928D01*
X103365854Y-132187043D01*
X103376414Y-132086565D01*
X103377104Y-132080000D01*
X103361038Y-131927137D01*
X103357832Y-131896635D01*
X103357832Y-131896633D01*
X103357142Y-131890072D01*
X103298127Y-131708444D01*
X103289633Y-131693733D01*
X103272896Y-131624740D01*
X103296116Y-131557648D01*
X103324692Y-131528798D01*
X103374310Y-131492749D01*
X103374316Y-131492744D01*
X103379653Y-131488866D01*
X103438649Y-131423344D01*
X103503021Y-131351852D01*
X103503022Y-131351851D01*
X103507440Y-131346944D01*
X103602927Y-131181556D01*
X103661942Y-130999928D01*
X103681904Y-130810000D01*
X103661942Y-130620072D01*
X103602927Y-130438444D01*
X103602087Y-130436989D01*
X103592897Y-130368434D01*
X103623005Y-130304137D01*
X103643377Y-130285618D01*
X103729909Y-130222749D01*
X103729911Y-130222747D01*
X103735253Y-130218866D01*
X103774169Y-130175645D01*
X103858621Y-130081852D01*
X103858622Y-130081851D01*
X103863040Y-130076944D01*
X103958527Y-129911556D01*
X104017542Y-129729928D01*
X104022222Y-129685406D01*
X104036814Y-129546565D01*
X104037504Y-129540000D01*
X104017542Y-129350072D01*
X103958527Y-129168444D01*
X103953075Y-129159000D01*
X103866341Y-129008774D01*
X103863040Y-129003056D01*
X103823870Y-128959553D01*
X103793154Y-128895547D01*
X103801919Y-128825094D01*
X103812272Y-128806962D01*
X103812240Y-128806944D01*
X103904423Y-128647279D01*
X103904424Y-128647278D01*
X103907727Y-128641556D01*
X103966742Y-128459928D01*
X103968338Y-128444749D01*
X103986014Y-128276565D01*
X103986704Y-128270000D01*
X103986014Y-128263435D01*
X103967432Y-128086635D01*
X103967432Y-128086633D01*
X103966742Y-128080072D01*
X103907727Y-127898444D01*
X103812240Y-127733056D01*
X103773070Y-127689553D01*
X103742354Y-127625547D01*
X103751119Y-127555094D01*
X103761472Y-127536962D01*
X103761440Y-127536944D01*
X103853623Y-127377279D01*
X103853624Y-127377278D01*
X103856927Y-127371556D01*
X103915942Y-127189928D01*
X103927575Y-127079251D01*
X103935214Y-127006565D01*
X103935904Y-127000000D01*
X103924680Y-126893206D01*
X103916632Y-126816635D01*
X103916632Y-126816633D01*
X103915942Y-126810072D01*
X103856927Y-126628444D01*
X103761440Y-126463056D01*
X103633653Y-126321134D01*
X103493307Y-126219166D01*
X103484494Y-126212763D01*
X103484493Y-126212762D01*
X103479152Y-126208882D01*
X103473124Y-126206198D01*
X103473122Y-126206197D01*
X103310719Y-126133891D01*
X103310718Y-126133891D01*
X103304688Y-126131206D01*
X103211287Y-126111353D01*
X103124344Y-126092872D01*
X103124339Y-126092872D01*
X103117887Y-126091500D01*
X102926913Y-126091500D01*
X102920461Y-126092872D01*
X102920456Y-126092872D01*
X102833513Y-126111353D01*
X102740112Y-126131206D01*
X102734082Y-126133891D01*
X102734081Y-126133891D01*
X102571678Y-126206197D01*
X102571676Y-126206198D01*
X102565648Y-126208882D01*
X102560307Y-126212762D01*
X102560306Y-126212763D01*
X102551493Y-126219166D01*
X102411147Y-126321134D01*
X102283360Y-126463056D01*
X102187873Y-126628444D01*
X102128858Y-126810072D01*
X102128168Y-126816633D01*
X102128168Y-126816635D01*
X102120120Y-126893206D01*
X102108896Y-127000000D01*
X102109586Y-127006565D01*
X102117226Y-127079251D01*
X102128858Y-127189928D01*
X102187873Y-127371556D01*
X102283360Y-127536944D01*
X102322530Y-127580447D01*
X102353246Y-127644453D01*
X102344481Y-127714906D01*
X102334128Y-127733038D01*
X102334160Y-127733056D01*
X102238673Y-127898444D01*
X102179658Y-128080072D01*
X102178968Y-128086633D01*
X102178968Y-128086635D01*
X102160386Y-128263435D01*
X102159696Y-128270000D01*
X102160386Y-128276565D01*
X102178063Y-128444749D01*
X102179658Y-128459928D01*
X102238673Y-128641556D01*
X102334160Y-128806944D01*
X102373330Y-128850447D01*
X102404046Y-128914453D01*
X102395281Y-128984906D01*
X102384928Y-129003038D01*
X102384960Y-129003056D01*
X102294926Y-129159000D01*
X102289473Y-129168444D01*
X102230458Y-129350072D01*
X102210496Y-129540000D01*
X102211186Y-129546565D01*
X102225779Y-129685406D01*
X102230458Y-129729928D01*
X102289473Y-129911556D01*
X102290313Y-129913011D01*
X102299503Y-129981566D01*
X102269395Y-130045863D01*
X102249023Y-130064382D01*
X102167579Y-130123555D01*
X102157147Y-130131134D01*
X102152726Y-130136044D01*
X102152725Y-130136045D01*
X102074657Y-130222749D01*
X102029360Y-130273056D01*
X101933873Y-130438444D01*
X101874858Y-130620072D01*
X101854896Y-130810000D01*
X101874858Y-130999928D01*
X101933873Y-131181556D01*
X101942367Y-131196267D01*
X101959104Y-131265260D01*
X101935884Y-131332352D01*
X101907308Y-131361202D01*
X101857690Y-131397251D01*
X101857684Y-131397256D01*
X101852347Y-131401134D01*
X101826495Y-131429846D01*
X101769857Y-131492749D01*
X101724560Y-131543056D01*
X101629073Y-131708444D01*
X101570058Y-131890072D01*
X101569368Y-131896633D01*
X101569368Y-131896635D01*
X101566162Y-131927137D01*
X101550096Y-132080000D01*
X101550786Y-132086565D01*
X101561347Y-132187043D01*
X101570058Y-132269928D01*
X101629073Y-132451556D01*
X101676350Y-132533441D01*
X101688235Y-132554027D01*
X101704973Y-132623022D01*
X101681753Y-132690114D01*
X101672752Y-132701337D01*
X101577633Y-132806978D01*
X101572160Y-132813056D01*
X101476673Y-132978444D01*
X101417658Y-133160072D01*
X101416968Y-133166633D01*
X101416968Y-133166635D01*
X101405101Y-133279546D01*
X101397696Y-133350000D01*
X101417658Y-133539928D01*
X101419697Y-133546205D01*
X101421071Y-133552666D01*
X101418517Y-133553209D01*
X101420225Y-133612502D01*
X101383577Y-133673309D01*
X101319872Y-133704649D01*
X101298357Y-133706500D01*
X101153913Y-133706500D01*
X101147461Y-133707872D01*
X101147456Y-133707872D01*
X101096888Y-133718621D01*
X100967112Y-133746206D01*
X100961082Y-133748891D01*
X100961081Y-133748891D01*
X100798678Y-133821197D01*
X100798676Y-133821198D01*
X100792648Y-133823882D01*
X100638147Y-133936134D01*
X100510360Y-134078056D01*
X100508665Y-134080991D01*
X100498609Y-134092766D01*
X100203876Y-134387500D01*
X99868000Y-134723376D01*
X99480505Y-135110870D01*
X99480504Y-135110871D01*
X99454185Y-135137191D01*
X99446574Y-135151129D01*
X98763193Y-135151129D01*
X98764427Y-135148870D01*
X98764295Y-135147034D01*
X98760046Y-135140422D01*
X98382130Y-134762505D01*
X98382128Y-134762503D01*
X98355809Y-134736185D01*
X98341871Y-134728574D01*
X98340033Y-134728705D01*
X98333421Y-134732955D01*
X97955505Y-135110870D01*
X97955503Y-135110872D01*
X97929185Y-135137191D01*
X97921574Y-135151129D01*
X97238193Y-135151129D01*
X97239427Y-135148870D01*
X97239295Y-135147034D01*
X97235046Y-135140422D01*
X96857130Y-134762505D01*
X96857128Y-134762503D01*
X96830809Y-134736185D01*
X96816871Y-134728574D01*
X96815033Y-134728705D01*
X96808421Y-134732955D01*
X96495834Y-135045541D01*
X96489075Y-135057920D01*
X94950082Y-135057920D01*
X95017727Y-134940756D01*
X95076742Y-134759128D01*
X95079154Y-134736185D01*
X95096014Y-134575765D01*
X95096704Y-134569200D01*
X95081720Y-134426631D01*
X95077432Y-134385835D01*
X95077432Y-134385833D01*
X95077243Y-134384037D01*
X96068544Y-134384037D01*
X96083490Y-134536470D01*
X96086401Y-134550164D01*
X96134746Y-134695493D01*
X96139713Y-134706243D01*
X96149488Y-134715180D01*
X96158107Y-134711518D01*
X96469316Y-134400308D01*
X96475693Y-134388629D01*
X97159074Y-134388629D01*
X97159205Y-134390468D01*
X97163453Y-134397077D01*
X97193005Y-134426630D01*
X97193004Y-134426630D01*
X97193005Y-134426631D01*
X97567690Y-134801315D01*
X97581630Y-134808927D01*
X97583466Y-134808795D01*
X97590078Y-134804546D01*
X97967995Y-134426630D01*
X97967997Y-134426628D01*
X97994315Y-134400309D01*
X98000693Y-134388629D01*
X98684074Y-134388629D01*
X98684205Y-134390468D01*
X98688453Y-134397077D01*
X98718005Y-134426630D01*
X98718004Y-134426630D01*
X98718005Y-134426631D01*
X99092690Y-134801315D01*
X99106630Y-134808927D01*
X99108466Y-134808795D01*
X99115078Y-134804546D01*
X99492995Y-134426630D01*
X99492997Y-134426628D01*
X99519315Y-134400309D01*
X99526926Y-134386371D01*
X99526795Y-134384533D01*
X99522545Y-134377921D01*
X99144630Y-134000005D01*
X99144628Y-134000003D01*
X99118309Y-133973685D01*
X99104371Y-133966074D01*
X99102533Y-133966205D01*
X99095921Y-133970455D01*
X98718005Y-134348370D01*
X98718003Y-134348372D01*
X98691685Y-134374691D01*
X98684074Y-134388629D01*
X98000693Y-134388629D01*
X98001926Y-134386371D01*
X98001795Y-134384533D01*
X97997545Y-134377921D01*
X97619630Y-134000005D01*
X97619628Y-134000003D01*
X97593309Y-133973685D01*
X97579371Y-133966074D01*
X97577533Y-133966205D01*
X97570921Y-133970455D01*
X97193005Y-134348370D01*
X97193003Y-134348372D01*
X97166685Y-134374691D01*
X97159074Y-134388629D01*
X96475693Y-134388629D01*
X96476927Y-134386370D01*
X96476795Y-134384534D01*
X96472546Y-134377922D01*
X96159825Y-134065201D01*
X96147445Y-134058441D01*
X96143231Y-134061596D01*
X96091227Y-134204473D01*
X96087935Y-134218081D01*
X96068740Y-134370031D01*
X96068544Y-134384037D01*
X95077243Y-134384037D01*
X95076742Y-134379272D01*
X95017727Y-134197644D01*
X94922240Y-134032256D01*
X94869503Y-133973685D01*
X94798875Y-133895245D01*
X94798874Y-133895244D01*
X94794453Y-133890334D01*
X94639952Y-133778082D01*
X94633924Y-133775398D01*
X94633922Y-133775397D01*
X94471519Y-133703091D01*
X94471518Y-133703091D01*
X94465488Y-133700406D01*
X94372087Y-133680553D01*
X94285144Y-133662072D01*
X94285139Y-133662072D01*
X94278687Y-133660700D01*
X94087713Y-133660700D01*
X94081261Y-133662072D01*
X94081256Y-133662072D01*
X93994313Y-133680553D01*
X93900912Y-133700406D01*
X93894882Y-133703091D01*
X93894881Y-133703091D01*
X93732478Y-133775397D01*
X93732476Y-133775398D01*
X93726448Y-133778082D01*
X93571947Y-133890334D01*
X93567526Y-133895244D01*
X93567525Y-133895245D01*
X93496898Y-133973685D01*
X93444160Y-134032256D01*
X93348673Y-134197644D01*
X93289658Y-134379272D01*
X93288968Y-134385833D01*
X93288968Y-134385835D01*
X93284680Y-134426631D01*
X93269696Y-134569200D01*
X87376500Y-134569200D01*
X87376500Y-133532920D01*
X96489075Y-133532920D01*
X96503362Y-133552005D01*
X96528173Y-133618525D01*
X96513082Y-133687899D01*
X96496075Y-133711886D01*
X96490003Y-133718621D01*
X96493827Y-133727451D01*
X96805188Y-134038812D01*
X96819132Y-134046426D01*
X96820967Y-134046295D01*
X96827577Y-134042047D01*
X97205495Y-133664130D01*
X97205497Y-133664128D01*
X97231815Y-133637809D01*
X97238193Y-133626129D01*
X97921574Y-133626129D01*
X97921705Y-133627968D01*
X97925953Y-133634577D01*
X97955505Y-133664130D01*
X97955504Y-133664130D01*
X97955505Y-133664131D01*
X98330190Y-134038815D01*
X98344130Y-134046427D01*
X98345966Y-134046295D01*
X98352578Y-134042046D01*
X98730495Y-133664130D01*
X98730497Y-133664128D01*
X98756815Y-133637809D01*
X98763193Y-133626129D01*
X99446574Y-133626129D01*
X99446705Y-133627968D01*
X99450953Y-133634577D01*
X99480505Y-133664130D01*
X99480504Y-133664130D01*
X99480505Y-133664131D01*
X99855190Y-134038815D01*
X99869130Y-134046427D01*
X99870966Y-134046295D01*
X99877578Y-134042046D01*
X100189900Y-133729725D01*
X100196659Y-133717347D01*
X100181745Y-133697425D01*
X100156934Y-133630905D01*
X100172025Y-133561530D01*
X100190218Y-133536246D01*
X100195387Y-133530671D01*
X100191881Y-133522257D01*
X99880812Y-133211188D01*
X99866868Y-133203574D01*
X99865033Y-133203705D01*
X99858423Y-133207953D01*
X99480505Y-133585870D01*
X99480503Y-133585872D01*
X99454185Y-133612191D01*
X99446574Y-133626129D01*
X98763193Y-133626129D01*
X98764426Y-133623871D01*
X98764295Y-133622033D01*
X98760045Y-133615421D01*
X98382130Y-133237505D01*
X98382128Y-133237503D01*
X98355809Y-133211185D01*
X98341871Y-133203574D01*
X98340033Y-133203705D01*
X98333421Y-133207955D01*
X97955505Y-133585870D01*
X97955503Y-133585872D01*
X97929185Y-133612191D01*
X97921574Y-133626129D01*
X97238193Y-133626129D01*
X97239426Y-133623871D01*
X97239295Y-133622033D01*
X97235045Y-133615421D01*
X96857130Y-133237505D01*
X96857128Y-133237503D01*
X96830809Y-133211185D01*
X96816871Y-133203574D01*
X96815033Y-133203705D01*
X96808421Y-133207955D01*
X96495834Y-133520541D01*
X96489075Y-133532920D01*
X87376500Y-133532920D01*
X87376500Y-128270000D01*
X91237696Y-128270000D01*
X91238386Y-128276565D01*
X91256063Y-128444749D01*
X91257658Y-128459928D01*
X91316673Y-128641556D01*
X91412160Y-128806944D01*
X91416578Y-128811851D01*
X91416579Y-128811852D01*
X91491938Y-128895547D01*
X91539947Y-128948866D01*
X91694448Y-129061118D01*
X91700477Y-129063802D01*
X91700480Y-129063804D01*
X91711859Y-129068870D01*
X91720616Y-129072769D01*
X91774712Y-129118747D01*
X91795363Y-129186674D01*
X91789203Y-129226810D01*
X91765658Y-129299272D01*
X91764968Y-129305833D01*
X91764968Y-129305835D01*
X91760439Y-129348928D01*
X91745696Y-129489200D01*
X91765658Y-129679128D01*
X91824673Y-129860756D01*
X91920160Y-130026144D01*
X91924578Y-130031051D01*
X91924579Y-130031052D01*
X92007869Y-130123555D01*
X92038587Y-130187562D01*
X92029822Y-130258016D01*
X92021364Y-130272827D01*
X92021760Y-130273056D01*
X91926273Y-130438444D01*
X91867258Y-130620072D01*
X91847296Y-130810000D01*
X91867258Y-130999928D01*
X91926273Y-131181556D01*
X92021760Y-131346944D01*
X92026178Y-131351851D01*
X92026179Y-131351852D01*
X92090551Y-131423344D01*
X92149547Y-131488866D01*
X92304048Y-131601118D01*
X92310076Y-131603802D01*
X92310078Y-131603803D01*
X92357104Y-131624740D01*
X92478512Y-131678794D01*
X92571913Y-131698647D01*
X92658856Y-131717128D01*
X92658861Y-131717128D01*
X92665313Y-131718500D01*
X92714781Y-131718500D01*
X92782902Y-131738502D01*
X92829395Y-131792158D01*
X92839499Y-131862432D01*
X92834613Y-131883439D01*
X92832458Y-131890072D01*
X92831768Y-131896635D01*
X92831767Y-131896642D01*
X92828562Y-131927137D01*
X92812496Y-132080000D01*
X92813186Y-132086565D01*
X92823747Y-132187043D01*
X92832458Y-132269928D01*
X92891473Y-132451556D01*
X92986960Y-132616944D01*
X92991378Y-132621851D01*
X92991379Y-132621852D01*
X93006723Y-132638893D01*
X93114747Y-132758866D01*
X93159123Y-132791107D01*
X93261469Y-132865466D01*
X93269248Y-132871118D01*
X93275276Y-132873802D01*
X93275278Y-132873803D01*
X93437681Y-132946109D01*
X93443712Y-132948794D01*
X93537113Y-132968647D01*
X93624056Y-132987128D01*
X93624061Y-132987128D01*
X93630513Y-132988500D01*
X93821487Y-132988500D01*
X93827939Y-132987128D01*
X93827944Y-132987128D01*
X93914887Y-132968647D01*
X94008288Y-132948794D01*
X94014319Y-132946109D01*
X94176722Y-132873803D01*
X94176724Y-132873802D01*
X94182752Y-132871118D01*
X94190532Y-132865466D01*
X94199381Y-132859037D01*
X96068544Y-132859037D01*
X96083490Y-133011470D01*
X96086401Y-133025164D01*
X96134746Y-133170493D01*
X96139713Y-133181243D01*
X96149488Y-133190180D01*
X96158107Y-133186518D01*
X96469316Y-132875308D01*
X96475693Y-132863629D01*
X97159074Y-132863629D01*
X97159205Y-132865468D01*
X97163453Y-132872077D01*
X97193005Y-132901630D01*
X97193004Y-132901630D01*
X97193005Y-132901631D01*
X97567690Y-133276315D01*
X97581630Y-133283927D01*
X97583466Y-133283795D01*
X97590078Y-133279546D01*
X97967995Y-132901630D01*
X97967997Y-132901628D01*
X97994315Y-132875309D01*
X98000693Y-132863629D01*
X98684074Y-132863629D01*
X98684205Y-132865468D01*
X98688453Y-132872077D01*
X98718005Y-132901630D01*
X98718004Y-132901630D01*
X98718005Y-132901631D01*
X99092690Y-133276315D01*
X99106630Y-133283927D01*
X99108466Y-133283795D01*
X99115078Y-133279546D01*
X99492995Y-132901630D01*
X99492997Y-132901628D01*
X99519315Y-132875309D01*
X99525692Y-132863630D01*
X100209073Y-132863630D01*
X100209205Y-132865466D01*
X100213454Y-132872078D01*
X100525622Y-133184247D01*
X100538001Y-133191006D01*
X100541817Y-133188149D01*
X100592146Y-133055657D01*
X100595628Y-133042096D01*
X100617374Y-132887369D01*
X100617980Y-132879487D01*
X100618162Y-132866447D01*
X100617777Y-132858577D01*
X100600359Y-132703290D01*
X100597257Y-132689637D01*
X100546889Y-132545000D01*
X100544976Y-132541009D01*
X100537271Y-132534159D01*
X100528220Y-132538155D01*
X100216684Y-132849692D01*
X100209073Y-132863630D01*
X99525692Y-132863630D01*
X99526926Y-132861371D01*
X99526795Y-132859533D01*
X99522545Y-132852921D01*
X99144630Y-132475005D01*
X99144628Y-132475003D01*
X99118309Y-132448685D01*
X99104371Y-132441074D01*
X99102533Y-132441205D01*
X99095921Y-132445455D01*
X98718005Y-132823370D01*
X98718003Y-132823372D01*
X98691685Y-132849691D01*
X98684074Y-132863629D01*
X98000693Y-132863629D01*
X98001926Y-132861371D01*
X98001795Y-132859533D01*
X97997545Y-132852921D01*
X97619630Y-132475005D01*
X97619628Y-132475003D01*
X97593309Y-132448685D01*
X97579371Y-132441074D01*
X97577533Y-132441205D01*
X97570921Y-132445455D01*
X97193005Y-132823370D01*
X97193003Y-132823372D01*
X97166685Y-132849691D01*
X97159074Y-132863629D01*
X96475693Y-132863629D01*
X96476927Y-132861370D01*
X96476795Y-132859534D01*
X96472546Y-132852922D01*
X96159825Y-132540201D01*
X96147445Y-132533441D01*
X96143231Y-132536596D01*
X96091227Y-132679473D01*
X96087935Y-132693081D01*
X96068740Y-132845031D01*
X96068544Y-132859037D01*
X94199381Y-132859037D01*
X94292877Y-132791107D01*
X94337253Y-132758866D01*
X94445277Y-132638893D01*
X94460621Y-132621852D01*
X94460622Y-132621851D01*
X94465040Y-132616944D01*
X94560527Y-132451556D01*
X94619542Y-132269928D01*
X94627563Y-132193621D01*
X96490003Y-132193621D01*
X96493827Y-132202451D01*
X96805188Y-132513812D01*
X96819132Y-132521426D01*
X96820967Y-132521295D01*
X96827577Y-132517047D01*
X97205495Y-132139130D01*
X97205497Y-132139128D01*
X97231815Y-132112809D01*
X97238192Y-132101130D01*
X97921573Y-132101130D01*
X97921705Y-132102966D01*
X97925954Y-132109578D01*
X97955505Y-132139130D01*
X97955504Y-132139130D01*
X97955505Y-132139131D01*
X98330190Y-132513815D01*
X98344130Y-132521427D01*
X98345966Y-132521295D01*
X98352578Y-132517046D01*
X98730495Y-132139130D01*
X98730497Y-132139128D01*
X98756815Y-132112809D01*
X98763192Y-132101130D01*
X99446573Y-132101130D01*
X99446705Y-132102966D01*
X99450954Y-132109578D01*
X99480505Y-132139130D01*
X99480504Y-132139130D01*
X99480505Y-132139131D01*
X99855190Y-132513815D01*
X99869130Y-132521427D01*
X99870966Y-132521295D01*
X99877578Y-132517046D01*
X100189900Y-132204725D01*
X100196659Y-132192346D01*
X100192689Y-132187043D01*
X100190232Y-132185844D01*
X100045948Y-132134467D01*
X100032323Y-132131272D01*
X99956041Y-132122175D01*
X99890768Y-132094247D01*
X99850956Y-132035464D01*
X99845746Y-132011106D01*
X99837859Y-131940790D01*
X99834757Y-131927137D01*
X99784389Y-131782500D01*
X99782476Y-131778509D01*
X99774771Y-131771659D01*
X99765720Y-131775655D01*
X99454184Y-132087192D01*
X99446573Y-132101130D01*
X98763192Y-132101130D01*
X98764426Y-132098871D01*
X98764295Y-132097034D01*
X98760044Y-132090420D01*
X98447325Y-131777701D01*
X98434945Y-131770941D01*
X98416329Y-131784877D01*
X98349809Y-131809688D01*
X98280435Y-131794597D01*
X98257110Y-131778183D01*
X98249771Y-131771659D01*
X98240720Y-131775655D01*
X97929184Y-132087192D01*
X97921573Y-132101130D01*
X97238192Y-132101130D01*
X97239426Y-132098871D01*
X97239295Y-132097034D01*
X97235044Y-132090420D01*
X96922325Y-131777701D01*
X96909945Y-131770941D01*
X96905731Y-131774096D01*
X96853727Y-131916973D01*
X96850435Y-131930582D01*
X96840052Y-132012770D01*
X96811670Y-132077847D01*
X96752610Y-132117248D01*
X96728217Y-132122288D01*
X96663902Y-132129048D01*
X96650238Y-132132053D01*
X96505243Y-132181412D01*
X96497889Y-132184873D01*
X96490003Y-132193621D01*
X94627563Y-132193621D01*
X94628254Y-132187043D01*
X94638814Y-132086565D01*
X94639504Y-132080000D01*
X94623438Y-131927137D01*
X94620232Y-131896635D01*
X94620232Y-131896633D01*
X94619542Y-131890072D01*
X94560527Y-131708444D01*
X94465040Y-131543056D01*
X94419744Y-131492749D01*
X94364254Y-131431121D01*
X97252503Y-131431121D01*
X97256327Y-131439951D01*
X97567688Y-131751312D01*
X97581632Y-131758926D01*
X97583467Y-131758795D01*
X97590077Y-131754547D01*
X97902400Y-131442225D01*
X97908463Y-131431121D01*
X98777503Y-131431121D01*
X98781327Y-131439951D01*
X99092688Y-131751312D01*
X99106632Y-131758926D01*
X99108467Y-131758795D01*
X99115077Y-131754547D01*
X99427400Y-131442225D01*
X99434159Y-131429846D01*
X99430189Y-131424543D01*
X99427732Y-131423344D01*
X99283448Y-131371967D01*
X99269822Y-131368771D01*
X99117729Y-131350635D01*
X99103733Y-131350537D01*
X98951402Y-131366548D01*
X98937738Y-131369553D01*
X98792743Y-131418912D01*
X98785389Y-131422373D01*
X98777503Y-131431121D01*
X97908463Y-131431121D01*
X97909159Y-131429846D01*
X97905189Y-131424543D01*
X97902732Y-131423344D01*
X97758448Y-131371967D01*
X97744822Y-131368771D01*
X97592729Y-131350635D01*
X97578733Y-131350537D01*
X97426402Y-131366548D01*
X97412738Y-131369553D01*
X97267743Y-131418912D01*
X97260389Y-131422373D01*
X97252503Y-131431121D01*
X94364254Y-131431121D01*
X94341675Y-131406045D01*
X94341673Y-131406043D01*
X94337253Y-131401134D01*
X94182752Y-131288882D01*
X94176724Y-131286198D01*
X94176722Y-131286197D01*
X94014319Y-131213891D01*
X94014318Y-131213891D01*
X94008288Y-131211206D01*
X93895721Y-131187279D01*
X93827944Y-131172872D01*
X93827939Y-131172872D01*
X93821487Y-131171500D01*
X93772019Y-131171500D01*
X93703898Y-131151498D01*
X93657405Y-131097842D01*
X93647301Y-131027568D01*
X93652187Y-131006561D01*
X93652300Y-131006213D01*
X93652300Y-131006212D01*
X93654342Y-130999928D01*
X93674304Y-130810000D01*
X93654342Y-130620072D01*
X93595327Y-130438444D01*
X93499840Y-130273056D01*
X93454544Y-130222749D01*
X93412131Y-130175645D01*
X93381413Y-130111638D01*
X93390178Y-130041184D01*
X93398636Y-130026373D01*
X93398240Y-130026144D01*
X93490423Y-129866479D01*
X93490424Y-129866478D01*
X93493727Y-129860756D01*
X93552742Y-129679128D01*
X93572704Y-129489200D01*
X93557961Y-129348928D01*
X93553432Y-129305835D01*
X93553432Y-129305833D01*
X93552742Y-129299272D01*
X93507164Y-129159000D01*
X95860496Y-129159000D01*
X95880458Y-129348928D01*
X95939473Y-129530556D01*
X95942776Y-129536278D01*
X95942777Y-129536279D01*
X95948716Y-129546565D01*
X96034960Y-129695944D01*
X96162747Y-129837866D01*
X96317248Y-129950118D01*
X96323276Y-129952802D01*
X96323278Y-129952803D01*
X96471695Y-130018882D01*
X96491712Y-130027794D01*
X96585112Y-130047647D01*
X96672056Y-130066128D01*
X96672061Y-130066128D01*
X96678513Y-130067500D01*
X96869487Y-130067500D01*
X96875939Y-130066128D01*
X96875944Y-130066128D01*
X96962888Y-130047647D01*
X97056288Y-130027794D01*
X97076305Y-130018882D01*
X97224722Y-129952803D01*
X97224724Y-129952802D01*
X97230752Y-129950118D01*
X97385253Y-129837866D01*
X97513040Y-129695944D01*
X97599284Y-129546565D01*
X97605223Y-129536279D01*
X97605224Y-129536278D01*
X97608527Y-129530556D01*
X97667542Y-129348928D01*
X97687504Y-129159000D01*
X97677216Y-129061118D01*
X97668232Y-128975635D01*
X97668232Y-128975633D01*
X97667542Y-128969072D01*
X97637558Y-128876790D01*
X97617711Y-128815708D01*
X97615683Y-128744741D01*
X97652346Y-128683943D01*
X97711347Y-128653525D01*
X97818288Y-128630794D01*
X97949161Y-128572526D01*
X97986722Y-128555803D01*
X97986724Y-128555802D01*
X97992752Y-128553118D01*
X98147253Y-128440866D01*
X98275040Y-128298944D01*
X98370527Y-128133556D01*
X98429542Y-127951928D01*
X98449504Y-127762000D01*
X98439121Y-127663210D01*
X98430232Y-127578635D01*
X98430232Y-127578633D01*
X98429542Y-127572072D01*
X98370527Y-127390444D01*
X98275040Y-127225056D01*
X98249064Y-127196206D01*
X98151675Y-127088045D01*
X98151674Y-127088044D01*
X98147253Y-127083134D01*
X98032829Y-127000000D01*
X97998094Y-126974763D01*
X97998093Y-126974762D01*
X97992752Y-126970882D01*
X97986724Y-126968198D01*
X97986722Y-126968197D01*
X97824319Y-126895891D01*
X97824318Y-126895891D01*
X97818288Y-126893206D01*
X97724888Y-126873353D01*
X97637944Y-126854872D01*
X97637939Y-126854872D01*
X97631487Y-126853500D01*
X97440513Y-126853500D01*
X97434061Y-126854872D01*
X97434056Y-126854872D01*
X97347112Y-126873353D01*
X97253712Y-126893206D01*
X97247682Y-126895891D01*
X97247681Y-126895891D01*
X97085278Y-126968197D01*
X97085276Y-126968198D01*
X97079248Y-126970882D01*
X97073907Y-126974762D01*
X97073906Y-126974763D01*
X97039171Y-127000000D01*
X96924747Y-127083134D01*
X96920326Y-127088044D01*
X96920325Y-127088045D01*
X96822937Y-127196206D01*
X96796960Y-127225056D01*
X96701473Y-127390444D01*
X96642458Y-127572072D01*
X96641768Y-127578633D01*
X96641768Y-127578635D01*
X96632879Y-127663210D01*
X96622496Y-127762000D01*
X96642458Y-127951928D01*
X96644498Y-127958206D01*
X96692289Y-128105292D01*
X96694317Y-128176259D01*
X96657654Y-128237057D01*
X96598653Y-128267475D01*
X96491712Y-128290206D01*
X96485682Y-128292891D01*
X96485681Y-128292891D01*
X96323278Y-128365197D01*
X96323276Y-128365198D01*
X96317248Y-128367882D01*
X96162747Y-128480134D01*
X96034960Y-128622056D01*
X95939473Y-128787444D01*
X95880458Y-128969072D01*
X95879768Y-128975633D01*
X95879768Y-128975635D01*
X95870784Y-129061118D01*
X95860496Y-129159000D01*
X93507164Y-129159000D01*
X93493727Y-129117644D01*
X93398240Y-128952256D01*
X93270453Y-128810334D01*
X93115952Y-128698082D01*
X93109923Y-128695398D01*
X93109920Y-128695396D01*
X93098541Y-128690330D01*
X93089784Y-128686431D01*
X93035688Y-128640453D01*
X93015037Y-128572526D01*
X93021197Y-128532390D01*
X93044742Y-128459928D01*
X93046338Y-128444749D01*
X93064014Y-128276565D01*
X93064704Y-128270000D01*
X93064014Y-128263435D01*
X93045432Y-128086635D01*
X93045432Y-128086633D01*
X93044742Y-128080072D01*
X92985727Y-127898444D01*
X92890240Y-127733056D01*
X92827351Y-127663210D01*
X92766875Y-127596045D01*
X92766874Y-127596044D01*
X92762453Y-127591134D01*
X92607952Y-127478882D01*
X92601924Y-127476198D01*
X92601922Y-127476197D01*
X92439519Y-127403891D01*
X92439518Y-127403891D01*
X92433488Y-127401206D01*
X92320921Y-127377279D01*
X92253144Y-127362872D01*
X92253139Y-127362872D01*
X92246687Y-127361500D01*
X92055713Y-127361500D01*
X92049261Y-127362872D01*
X92049256Y-127362872D01*
X91981479Y-127377279D01*
X91868912Y-127401206D01*
X91862882Y-127403891D01*
X91862881Y-127403891D01*
X91700478Y-127476197D01*
X91700476Y-127476198D01*
X91694448Y-127478882D01*
X91539947Y-127591134D01*
X91535526Y-127596044D01*
X91535525Y-127596045D01*
X91475050Y-127663210D01*
X91412160Y-127733056D01*
X91316673Y-127898444D01*
X91257658Y-128080072D01*
X91256968Y-128086633D01*
X91256968Y-128086635D01*
X91238386Y-128263435D01*
X91237696Y-128270000D01*
X87376500Y-128270000D01*
X87376500Y-126542800D01*
X89866096Y-126542800D01*
X89886058Y-126732728D01*
X89945073Y-126914356D01*
X90040560Y-127079744D01*
X90168347Y-127221666D01*
X90322848Y-127333918D01*
X90328876Y-127336602D01*
X90328878Y-127336603D01*
X90491281Y-127408909D01*
X90497312Y-127411594D01*
X90590712Y-127431447D01*
X90677656Y-127449928D01*
X90677661Y-127449928D01*
X90684113Y-127451300D01*
X90875087Y-127451300D01*
X90881539Y-127449928D01*
X90881544Y-127449928D01*
X90968488Y-127431447D01*
X91061888Y-127411594D01*
X91067919Y-127408909D01*
X91230322Y-127336603D01*
X91230324Y-127336602D01*
X91236352Y-127333918D01*
X91390853Y-127221666D01*
X91518640Y-127079744D01*
X91614127Y-126914356D01*
X91673142Y-126732728D01*
X91693104Y-126542800D01*
X91673142Y-126352872D01*
X91614127Y-126171244D01*
X91518640Y-126005856D01*
X91390853Y-125863934D01*
X91236352Y-125751682D01*
X91230324Y-125748998D01*
X91230322Y-125748997D01*
X91067919Y-125676691D01*
X91067918Y-125676691D01*
X91061888Y-125674006D01*
X90968487Y-125654153D01*
X90881544Y-125635672D01*
X90881539Y-125635672D01*
X90875087Y-125634300D01*
X90684113Y-125634300D01*
X90677661Y-125635672D01*
X90677656Y-125635672D01*
X90590713Y-125654153D01*
X90497312Y-125674006D01*
X90491282Y-125676691D01*
X90491281Y-125676691D01*
X90328878Y-125748997D01*
X90328876Y-125748998D01*
X90322848Y-125751682D01*
X90168347Y-125863934D01*
X90040560Y-126005856D01*
X89945073Y-126171244D01*
X89886058Y-126352872D01*
X89866096Y-126542800D01*
X87376500Y-126542800D01*
X87376500Y-125349000D01*
X103607496Y-125349000D01*
X103627458Y-125538928D01*
X103686473Y-125720556D01*
X103781960Y-125885944D01*
X103909747Y-126027866D01*
X103997331Y-126091500D01*
X104051982Y-126131206D01*
X104064248Y-126140118D01*
X104070276Y-126142802D01*
X104070278Y-126142803D01*
X104218695Y-126208882D01*
X104238712Y-126217794D01*
X104332112Y-126237647D01*
X104419056Y-126256128D01*
X104419061Y-126256128D01*
X104425513Y-126257500D01*
X104616487Y-126257500D01*
X104622939Y-126256128D01*
X104622944Y-126256128D01*
X104709888Y-126237647D01*
X104803288Y-126217794D01*
X104823305Y-126208882D01*
X104971722Y-126142803D01*
X104971724Y-126142802D01*
X104977752Y-126140118D01*
X104990019Y-126131206D01*
X105044669Y-126091500D01*
X105132253Y-126027866D01*
X105260040Y-125885944D01*
X105355527Y-125720556D01*
X105414542Y-125538928D01*
X105434504Y-125349000D01*
X105414542Y-125159072D01*
X105355527Y-124977444D01*
X105260040Y-124812056D01*
X105132253Y-124670134D01*
X104977752Y-124557882D01*
X104971724Y-124555198D01*
X104971722Y-124555197D01*
X104809319Y-124482891D01*
X104809318Y-124482891D01*
X104803288Y-124480206D01*
X104709887Y-124460353D01*
X104622944Y-124441872D01*
X104622939Y-124441872D01*
X104616487Y-124440500D01*
X104425513Y-124440500D01*
X104419061Y-124441872D01*
X104419056Y-124441872D01*
X104332113Y-124460353D01*
X104238712Y-124480206D01*
X104232682Y-124482891D01*
X104232681Y-124482891D01*
X104070278Y-124555197D01*
X104070276Y-124555198D01*
X104064248Y-124557882D01*
X103909747Y-124670134D01*
X103781960Y-124812056D01*
X103686473Y-124977444D01*
X103627458Y-125159072D01*
X103607496Y-125349000D01*
X87376500Y-125349000D01*
X87376500Y-119888000D01*
X88113496Y-119888000D01*
X88114186Y-119894565D01*
X88124192Y-119989763D01*
X88133458Y-120077928D01*
X88192473Y-120259556D01*
X88287960Y-120424944D01*
X88292378Y-120429851D01*
X88292379Y-120429852D01*
X88411325Y-120561955D01*
X88415747Y-120566866D01*
X88570248Y-120679118D01*
X88576276Y-120681802D01*
X88576278Y-120681803D01*
X88738681Y-120754109D01*
X88744712Y-120756794D01*
X88808888Y-120770435D01*
X88925056Y-120795128D01*
X88925061Y-120795128D01*
X88931513Y-120796500D01*
X89122487Y-120796500D01*
X89128939Y-120795128D01*
X89128944Y-120795128D01*
X89214227Y-120777000D01*
X90653496Y-120777000D01*
X90654186Y-120783565D01*
X90670187Y-120935803D01*
X90673458Y-120966928D01*
X90732473Y-121148556D01*
X90827960Y-121313944D01*
X90955747Y-121455866D01*
X91110248Y-121568118D01*
X91116276Y-121570802D01*
X91116278Y-121570803D01*
X91278681Y-121643109D01*
X91284712Y-121645794D01*
X91378112Y-121665647D01*
X91465056Y-121684128D01*
X91465061Y-121684128D01*
X91471513Y-121685500D01*
X91662487Y-121685500D01*
X91668939Y-121684128D01*
X91668944Y-121684128D01*
X91755888Y-121665647D01*
X91849288Y-121645794D01*
X91855319Y-121643109D01*
X92017722Y-121570803D01*
X92017724Y-121570802D01*
X92023752Y-121568118D01*
X92178253Y-121455866D01*
X92306040Y-121313944D01*
X92401527Y-121148556D01*
X92460542Y-120966928D01*
X92463814Y-120935803D01*
X92479814Y-120783565D01*
X92480504Y-120777000D01*
X92479814Y-120770435D01*
X92461232Y-120593635D01*
X92461232Y-120593633D01*
X92460542Y-120587072D01*
X92401527Y-120405444D01*
X92306040Y-120240056D01*
X92217750Y-120142000D01*
X96876496Y-120142000D01*
X96896458Y-120331928D01*
X96955473Y-120513556D01*
X97050960Y-120678944D01*
X97178747Y-120820866D01*
X97333248Y-120933118D01*
X97339276Y-120935802D01*
X97339278Y-120935803D01*
X97501681Y-121008109D01*
X97507712Y-121010794D01*
X97601112Y-121030647D01*
X97688056Y-121049128D01*
X97688061Y-121049128D01*
X97694513Y-121050500D01*
X97885487Y-121050500D01*
X97891939Y-121049128D01*
X97891944Y-121049128D01*
X97978888Y-121030647D01*
X98072288Y-121010794D01*
X98078319Y-121008109D01*
X98240722Y-120935803D01*
X98240724Y-120935802D01*
X98246752Y-120933118D01*
X98401253Y-120820866D01*
X98529040Y-120678944D01*
X98624527Y-120513556D01*
X98683542Y-120331928D01*
X98703504Y-120142000D01*
X98696080Y-120071365D01*
X98684232Y-119958635D01*
X98684232Y-119958633D01*
X98683542Y-119952072D01*
X98624527Y-119770444D01*
X98529040Y-119605056D01*
X98449254Y-119516444D01*
X98405675Y-119468045D01*
X98405674Y-119468044D01*
X98401253Y-119463134D01*
X98246752Y-119350882D01*
X98240724Y-119348198D01*
X98240722Y-119348197D01*
X98078319Y-119275891D01*
X98078318Y-119275891D01*
X98072288Y-119273206D01*
X97978887Y-119253353D01*
X97891944Y-119234872D01*
X97891939Y-119234872D01*
X97885487Y-119233500D01*
X97694513Y-119233500D01*
X97688061Y-119234872D01*
X97688056Y-119234872D01*
X97601113Y-119253353D01*
X97507712Y-119273206D01*
X97501682Y-119275891D01*
X97501681Y-119275891D01*
X97339278Y-119348197D01*
X97339276Y-119348198D01*
X97333248Y-119350882D01*
X97178747Y-119463134D01*
X97174326Y-119468044D01*
X97174325Y-119468045D01*
X97130747Y-119516444D01*
X97050960Y-119605056D01*
X96955473Y-119770444D01*
X96896458Y-119952072D01*
X96895768Y-119958633D01*
X96895768Y-119958635D01*
X96883920Y-120071365D01*
X96876496Y-120142000D01*
X92217750Y-120142000D01*
X92178253Y-120098134D01*
X92023752Y-119985882D01*
X92017724Y-119983198D01*
X92017722Y-119983197D01*
X91855319Y-119910891D01*
X91855318Y-119910891D01*
X91849288Y-119908206D01*
X91754227Y-119888000D01*
X91668944Y-119869872D01*
X91668939Y-119869872D01*
X91662487Y-119868500D01*
X91471513Y-119868500D01*
X91465061Y-119869872D01*
X91465056Y-119869872D01*
X91379773Y-119888000D01*
X91284712Y-119908206D01*
X91278682Y-119910891D01*
X91278681Y-119910891D01*
X91116278Y-119983197D01*
X91116276Y-119983198D01*
X91110248Y-119985882D01*
X90955747Y-120098134D01*
X90827960Y-120240056D01*
X90732473Y-120405444D01*
X90673458Y-120587072D01*
X90672768Y-120593633D01*
X90672768Y-120593635D01*
X90654186Y-120770435D01*
X90653496Y-120777000D01*
X89214227Y-120777000D01*
X89245112Y-120770435D01*
X89309288Y-120756794D01*
X89315319Y-120754109D01*
X89477722Y-120681803D01*
X89477724Y-120681802D01*
X89483752Y-120679118D01*
X89638253Y-120566866D01*
X89642675Y-120561955D01*
X89761621Y-120429852D01*
X89761622Y-120429851D01*
X89766040Y-120424944D01*
X89861527Y-120259556D01*
X89920542Y-120077928D01*
X89929809Y-119989763D01*
X89939814Y-119894565D01*
X89940504Y-119888000D01*
X89938599Y-119869872D01*
X89921232Y-119704635D01*
X89921232Y-119704633D01*
X89920542Y-119698072D01*
X89861527Y-119516444D01*
X89766040Y-119351056D01*
X89638253Y-119209134D01*
X89483752Y-119096882D01*
X89477724Y-119094198D01*
X89477722Y-119094197D01*
X89315319Y-119021891D01*
X89315318Y-119021891D01*
X89309288Y-119019206D01*
X89215888Y-118999353D01*
X89128944Y-118980872D01*
X89128939Y-118980872D01*
X89122487Y-118979500D01*
X88931513Y-118979500D01*
X88925061Y-118980872D01*
X88925056Y-118980872D01*
X88838112Y-118999353D01*
X88744712Y-119019206D01*
X88738682Y-119021891D01*
X88738681Y-119021891D01*
X88576278Y-119094197D01*
X88576276Y-119094198D01*
X88570248Y-119096882D01*
X88415747Y-119209134D01*
X88287960Y-119351056D01*
X88192473Y-119516444D01*
X88133458Y-119698072D01*
X88132768Y-119704633D01*
X88132768Y-119704635D01*
X88115401Y-119869872D01*
X88113496Y-119888000D01*
X87376500Y-119888000D01*
X87376500Y-116806695D01*
X90077251Y-116806695D01*
X90077548Y-116811848D01*
X90077548Y-116811851D01*
X90083011Y-116906590D01*
X90090110Y-117029715D01*
X90091247Y-117034761D01*
X90091248Y-117034767D01*
X90111119Y-117122939D01*
X90139222Y-117247639D01*
X90223266Y-117454616D01*
X90339987Y-117645088D01*
X90486250Y-117813938D01*
X90658126Y-117956632D01*
X90851000Y-118069338D01*
X91059692Y-118149030D01*
X91064760Y-118150061D01*
X91064763Y-118150062D01*
X91172017Y-118171883D01*
X91278597Y-118193567D01*
X91283772Y-118193757D01*
X91283774Y-118193757D01*
X91496673Y-118201564D01*
X91496677Y-118201564D01*
X91501837Y-118201753D01*
X91506957Y-118201097D01*
X91506959Y-118201097D01*
X91718288Y-118174025D01*
X91718289Y-118174025D01*
X91723416Y-118173368D01*
X91728366Y-118171883D01*
X91932429Y-118110661D01*
X91932434Y-118110659D01*
X91937384Y-118109174D01*
X92137994Y-118010896D01*
X92319860Y-117881173D01*
X92478096Y-117723489D01*
X92537594Y-117640689D01*
X92605435Y-117546277D01*
X92608453Y-117542077D01*
X92707430Y-117341811D01*
X92772370Y-117128069D01*
X92801529Y-116906590D01*
X92802445Y-116869118D01*
X92803074Y-116843365D01*
X92803074Y-116843361D01*
X92803156Y-116840000D01*
X92784852Y-116617361D01*
X92730431Y-116400702D01*
X92641354Y-116195840D01*
X92565120Y-116078000D01*
X97470796Y-116078000D01*
X97471486Y-116084565D01*
X97483681Y-116200590D01*
X97490758Y-116267928D01*
X97549773Y-116449556D01*
X97645260Y-116614944D01*
X97773047Y-116756866D01*
X97927548Y-116869118D01*
X97933576Y-116871802D01*
X97933578Y-116871803D01*
X98019164Y-116909908D01*
X98102012Y-116946794D01*
X98195412Y-116966647D01*
X98282356Y-116985128D01*
X98282361Y-116985128D01*
X98288813Y-116986500D01*
X98479787Y-116986500D01*
X98486239Y-116985128D01*
X98486244Y-116985128D01*
X98573188Y-116966647D01*
X98666588Y-116946794D01*
X98749436Y-116909908D01*
X98835022Y-116871803D01*
X98835024Y-116871802D01*
X98841052Y-116869118D01*
X98926970Y-116806695D01*
X102777251Y-116806695D01*
X102777548Y-116811848D01*
X102777548Y-116811851D01*
X102783011Y-116906590D01*
X102790110Y-117029715D01*
X102791247Y-117034761D01*
X102791248Y-117034767D01*
X102811119Y-117122939D01*
X102839222Y-117247639D01*
X102923266Y-117454616D01*
X103039987Y-117645088D01*
X103186250Y-117813938D01*
X103358126Y-117956632D01*
X103551000Y-118069338D01*
X103759692Y-118149030D01*
X103764760Y-118150061D01*
X103764763Y-118150062D01*
X103872017Y-118171883D01*
X103978597Y-118193567D01*
X103983772Y-118193757D01*
X103983774Y-118193757D01*
X104196673Y-118201564D01*
X104196677Y-118201564D01*
X104201837Y-118201753D01*
X104206957Y-118201097D01*
X104206959Y-118201097D01*
X104418288Y-118174025D01*
X104418289Y-118174025D01*
X104423416Y-118173368D01*
X104428366Y-118171883D01*
X104632429Y-118110661D01*
X104632434Y-118110659D01*
X104637384Y-118109174D01*
X104837994Y-118010896D01*
X105019860Y-117881173D01*
X105178096Y-117723489D01*
X105237594Y-117640689D01*
X105305435Y-117546277D01*
X105308453Y-117542077D01*
X105407430Y-117341811D01*
X105472370Y-117128069D01*
X105501529Y-116906590D01*
X105502445Y-116869118D01*
X105503074Y-116843365D01*
X105503074Y-116843361D01*
X105503156Y-116840000D01*
X105484852Y-116617361D01*
X105430431Y-116400702D01*
X105341354Y-116195840D01*
X105220014Y-116008277D01*
X105069670Y-115843051D01*
X105065619Y-115839852D01*
X105065615Y-115839848D01*
X104898414Y-115707800D01*
X104898410Y-115707798D01*
X104894359Y-115704598D01*
X104853053Y-115681796D01*
X104803084Y-115631364D01*
X104788312Y-115561921D01*
X104813428Y-115495516D01*
X104840780Y-115468909D01*
X104884603Y-115437650D01*
X105019860Y-115341173D01*
X105070447Y-115290763D01*
X105101209Y-115260107D01*
X105178096Y-115183489D01*
X105237594Y-115100689D01*
X105305435Y-115006277D01*
X105308453Y-115002077D01*
X105407430Y-114801811D01*
X105472370Y-114588069D01*
X105501529Y-114366590D01*
X105503156Y-114300000D01*
X105484852Y-114077361D01*
X105430431Y-113860702D01*
X105341354Y-113655840D01*
X105220014Y-113468277D01*
X105069670Y-113303051D01*
X105065619Y-113299852D01*
X105065615Y-113299848D01*
X104898414Y-113167800D01*
X104898410Y-113167798D01*
X104894359Y-113164598D01*
X104853053Y-113141796D01*
X104803084Y-113091364D01*
X104788312Y-113021921D01*
X104813428Y-112955516D01*
X104840780Y-112928909D01*
X104884603Y-112897650D01*
X105019860Y-112801173D01*
X105178096Y-112643489D01*
X105237594Y-112560689D01*
X105305435Y-112466277D01*
X105308453Y-112462077D01*
X105407430Y-112261811D01*
X105472370Y-112048069D01*
X105501529Y-111826590D01*
X105503156Y-111760000D01*
X105484852Y-111537361D01*
X105430431Y-111320702D01*
X105341354Y-111115840D01*
X105220014Y-110928277D01*
X105069670Y-110763051D01*
X105065619Y-110759852D01*
X105065615Y-110759848D01*
X104898414Y-110627800D01*
X104898410Y-110627798D01*
X104894359Y-110624598D01*
X104853053Y-110601796D01*
X104803084Y-110551364D01*
X104788312Y-110481921D01*
X104813428Y-110415516D01*
X104840780Y-110388909D01*
X104884603Y-110357650D01*
X105019860Y-110261173D01*
X105178096Y-110103489D01*
X105237594Y-110020689D01*
X105305435Y-109926277D01*
X105308453Y-109922077D01*
X105407430Y-109721811D01*
X105472370Y-109508069D01*
X105501529Y-109286590D01*
X105503156Y-109220000D01*
X105484852Y-108997361D01*
X105430431Y-108780702D01*
X105341354Y-108575840D01*
X105220014Y-108388277D01*
X105069670Y-108223051D01*
X105065619Y-108219852D01*
X105065615Y-108219848D01*
X104898414Y-108087800D01*
X104898410Y-108087798D01*
X104894359Y-108084598D01*
X104853053Y-108061796D01*
X104803084Y-108011364D01*
X104788312Y-107941921D01*
X104813428Y-107875516D01*
X104840780Y-107848909D01*
X104884603Y-107817650D01*
X105019860Y-107721173D01*
X105178096Y-107563489D01*
X105237594Y-107480689D01*
X105305435Y-107386277D01*
X105308453Y-107382077D01*
X105407430Y-107181811D01*
X105472370Y-106968069D01*
X105501529Y-106746590D01*
X105503156Y-106680000D01*
X105484852Y-106457361D01*
X105430431Y-106240702D01*
X105341354Y-106035840D01*
X105220014Y-105848277D01*
X105069670Y-105683051D01*
X105065619Y-105679852D01*
X105065615Y-105679848D01*
X104898414Y-105547800D01*
X104898410Y-105547798D01*
X104894359Y-105544598D01*
X104853053Y-105521796D01*
X104803084Y-105471364D01*
X104788312Y-105401921D01*
X104813428Y-105335516D01*
X104840780Y-105308909D01*
X104884603Y-105277650D01*
X105019860Y-105181173D01*
X105178096Y-105023489D01*
X105237594Y-104940689D01*
X105305435Y-104846277D01*
X105308453Y-104842077D01*
X105407430Y-104641811D01*
X105472370Y-104428069D01*
X105501529Y-104206590D01*
X105503156Y-104140000D01*
X105484852Y-103917361D01*
X105430431Y-103700702D01*
X105341354Y-103495840D01*
X105220014Y-103308277D01*
X105069670Y-103143051D01*
X105065619Y-103139852D01*
X105065615Y-103139848D01*
X104898414Y-103007800D01*
X104898410Y-103007798D01*
X104894359Y-103004598D01*
X104853053Y-102981796D01*
X104803084Y-102931364D01*
X104788312Y-102861921D01*
X104813428Y-102795516D01*
X104840780Y-102768909D01*
X104884603Y-102737650D01*
X105019860Y-102641173D01*
X105178096Y-102483489D01*
X105237594Y-102400689D01*
X105305435Y-102306277D01*
X105308453Y-102302077D01*
X105407430Y-102101811D01*
X105472370Y-101888069D01*
X105501529Y-101666590D01*
X105503156Y-101600000D01*
X105484852Y-101377361D01*
X105430431Y-101160702D01*
X105341354Y-100955840D01*
X105220014Y-100768277D01*
X105069670Y-100603051D01*
X105065619Y-100599852D01*
X105065615Y-100599848D01*
X104898414Y-100467800D01*
X104898410Y-100467798D01*
X104894359Y-100464598D01*
X104853053Y-100441796D01*
X104803084Y-100391364D01*
X104788312Y-100321921D01*
X104813428Y-100255516D01*
X104840780Y-100228909D01*
X104884603Y-100197650D01*
X105019860Y-100101173D01*
X105178096Y-99943489D01*
X105237594Y-99860689D01*
X105305435Y-99766277D01*
X105308453Y-99762077D01*
X105407430Y-99561811D01*
X105472370Y-99348069D01*
X105501529Y-99126590D01*
X105503156Y-99060000D01*
X105484852Y-98837361D01*
X105430431Y-98620702D01*
X105341354Y-98415840D01*
X105220014Y-98228277D01*
X105069670Y-98063051D01*
X105065619Y-98059852D01*
X105065615Y-98059848D01*
X104898414Y-97927800D01*
X104898410Y-97927798D01*
X104894359Y-97924598D01*
X104853053Y-97901796D01*
X104803084Y-97851364D01*
X104788312Y-97781921D01*
X104813428Y-97715516D01*
X104840780Y-97688909D01*
X104884603Y-97657650D01*
X105019860Y-97561173D01*
X105178096Y-97403489D01*
X105237594Y-97320689D01*
X105305435Y-97226277D01*
X105308453Y-97222077D01*
X105407430Y-97021811D01*
X105472370Y-96808069D01*
X105501529Y-96586590D01*
X105503156Y-96520000D01*
X105484852Y-96297361D01*
X105430431Y-96080702D01*
X105341354Y-95875840D01*
X105220014Y-95688277D01*
X105216532Y-95684450D01*
X105072798Y-95526488D01*
X105041746Y-95462642D01*
X105050141Y-95392143D01*
X105095317Y-95337375D01*
X105121761Y-95323706D01*
X105228297Y-95283767D01*
X105236705Y-95280615D01*
X105353261Y-95193261D01*
X105440615Y-95076705D01*
X105491745Y-94940316D01*
X105498500Y-94878134D01*
X105498500Y-93081866D01*
X105491745Y-93019684D01*
X105440615Y-92883295D01*
X105367370Y-92785564D01*
X105342522Y-92719059D01*
X105357575Y-92649676D01*
X105367370Y-92634435D01*
X105372002Y-92628255D01*
X105440615Y-92536705D01*
X105491745Y-92400316D01*
X105498500Y-92338134D01*
X105498500Y-90541866D01*
X105491745Y-90479684D01*
X105440615Y-90343295D01*
X105353261Y-90226739D01*
X105236705Y-90139385D01*
X105117687Y-90094767D01*
X105060923Y-90052125D01*
X105036223Y-89985564D01*
X105051430Y-89916215D01*
X105072977Y-89887535D01*
X105174052Y-89786812D01*
X105180730Y-89778965D01*
X105305003Y-89606020D01*
X105310313Y-89597183D01*
X105404670Y-89406267D01*
X105408469Y-89396672D01*
X105470377Y-89192910D01*
X105472555Y-89182837D01*
X105473986Y-89171962D01*
X105471775Y-89157778D01*
X105458617Y-89154000D01*
X102823225Y-89154000D01*
X102809694Y-89157973D01*
X102808257Y-89167966D01*
X102838565Y-89302446D01*
X102841645Y-89312275D01*
X102921770Y-89509603D01*
X102926413Y-89518794D01*
X103037694Y-89700388D01*
X103043777Y-89708699D01*
X103183213Y-89869667D01*
X103190577Y-89876879D01*
X103195522Y-89880985D01*
X103235156Y-89939889D01*
X103236653Y-90010870D01*
X103199537Y-90071392D01*
X103159264Y-90095910D01*
X103051705Y-90136232D01*
X103051704Y-90136233D01*
X103043295Y-90139385D01*
X102926739Y-90226739D01*
X102839385Y-90343295D01*
X102788255Y-90479684D01*
X102781500Y-90541866D01*
X102781500Y-92338134D01*
X102788255Y-92400316D01*
X102839385Y-92536705D01*
X102907998Y-92628255D01*
X102912630Y-92634435D01*
X102937478Y-92700941D01*
X102922425Y-92770324D01*
X102912632Y-92785562D01*
X102839385Y-92883295D01*
X102788255Y-93019684D01*
X102781500Y-93081866D01*
X102781500Y-94878134D01*
X102788255Y-94940316D01*
X102839385Y-95076705D01*
X102926739Y-95193261D01*
X103043295Y-95280615D01*
X103051704Y-95283767D01*
X103051705Y-95283768D01*
X103160451Y-95324535D01*
X103217216Y-95367176D01*
X103241916Y-95433738D01*
X103226709Y-95503087D01*
X103207316Y-95529568D01*
X103080629Y-95662138D01*
X102954743Y-95846680D01*
X102860688Y-96049305D01*
X102800989Y-96264570D01*
X102777251Y-96486695D01*
X102777548Y-96491848D01*
X102777548Y-96491851D01*
X102783011Y-96586590D01*
X102790110Y-96709715D01*
X102791247Y-96714761D01*
X102791248Y-96714767D01*
X102811119Y-96802939D01*
X102839222Y-96927639D01*
X102923266Y-97134616D01*
X103039987Y-97325088D01*
X103186250Y-97493938D01*
X103358126Y-97636632D01*
X103428595Y-97677811D01*
X103431445Y-97679476D01*
X103480169Y-97731114D01*
X103493240Y-97800897D01*
X103466509Y-97866669D01*
X103426055Y-97900027D01*
X103413607Y-97906507D01*
X103409474Y-97909610D01*
X103409471Y-97909612D01*
X103385247Y-97927800D01*
X103234965Y-98040635D01*
X103080629Y-98202138D01*
X102954743Y-98386680D01*
X102860688Y-98589305D01*
X102800989Y-98804570D01*
X102777251Y-99026695D01*
X102777548Y-99031848D01*
X102777548Y-99031851D01*
X102783011Y-99126590D01*
X102790110Y-99249715D01*
X102791247Y-99254761D01*
X102791248Y-99254767D01*
X102811119Y-99342939D01*
X102839222Y-99467639D01*
X102923266Y-99674616D01*
X103039987Y-99865088D01*
X103186250Y-100033938D01*
X103358126Y-100176632D01*
X103428595Y-100217811D01*
X103431445Y-100219476D01*
X103480169Y-100271114D01*
X103493240Y-100340897D01*
X103466509Y-100406669D01*
X103426055Y-100440027D01*
X103413607Y-100446507D01*
X103409474Y-100449610D01*
X103409471Y-100449612D01*
X103385247Y-100467800D01*
X103234965Y-100580635D01*
X103080629Y-100742138D01*
X102954743Y-100926680D01*
X102860688Y-101129305D01*
X102800989Y-101344570D01*
X102777251Y-101566695D01*
X102777548Y-101571848D01*
X102777548Y-101571851D01*
X102783011Y-101666590D01*
X102790110Y-101789715D01*
X102791247Y-101794761D01*
X102791248Y-101794767D01*
X102811119Y-101882939D01*
X102839222Y-102007639D01*
X102923266Y-102214616D01*
X103039987Y-102405088D01*
X103186250Y-102573938D01*
X103358126Y-102716632D01*
X103428595Y-102757811D01*
X103431445Y-102759476D01*
X103480169Y-102811114D01*
X103493240Y-102880897D01*
X103466509Y-102946669D01*
X103426055Y-102980027D01*
X103413607Y-102986507D01*
X103409474Y-102989610D01*
X103409471Y-102989612D01*
X103385247Y-103007800D01*
X103234965Y-103120635D01*
X103080629Y-103282138D01*
X102954743Y-103466680D01*
X102860688Y-103669305D01*
X102800989Y-103884570D01*
X102777251Y-104106695D01*
X102777548Y-104111848D01*
X102777548Y-104111851D01*
X102783011Y-104206590D01*
X102790110Y-104329715D01*
X102791247Y-104334761D01*
X102791248Y-104334767D01*
X102811119Y-104422939D01*
X102839222Y-104547639D01*
X102923266Y-104754616D01*
X103039987Y-104945088D01*
X103186250Y-105113938D01*
X103358126Y-105256632D01*
X103428595Y-105297811D01*
X103431445Y-105299476D01*
X103480169Y-105351114D01*
X103493240Y-105420897D01*
X103466509Y-105486669D01*
X103426055Y-105520027D01*
X103413607Y-105526507D01*
X103409474Y-105529610D01*
X103409471Y-105529612D01*
X103385247Y-105547800D01*
X103234965Y-105660635D01*
X103080629Y-105822138D01*
X102954743Y-106006680D01*
X102860688Y-106209305D01*
X102800989Y-106424570D01*
X102777251Y-106646695D01*
X102777548Y-106651848D01*
X102777548Y-106651851D01*
X102783011Y-106746590D01*
X102790110Y-106869715D01*
X102791247Y-106874761D01*
X102791248Y-106874767D01*
X102811119Y-106962939D01*
X102839222Y-107087639D01*
X102923266Y-107294616D01*
X103039987Y-107485088D01*
X103186250Y-107653938D01*
X103358126Y-107796632D01*
X103428595Y-107837811D01*
X103431445Y-107839476D01*
X103480169Y-107891114D01*
X103493240Y-107960897D01*
X103466509Y-108026669D01*
X103426055Y-108060027D01*
X103413607Y-108066507D01*
X103409474Y-108069610D01*
X103409471Y-108069612D01*
X103385247Y-108087800D01*
X103234965Y-108200635D01*
X103080629Y-108362138D01*
X102954743Y-108546680D01*
X102860688Y-108749305D01*
X102800989Y-108964570D01*
X102777251Y-109186695D01*
X102777548Y-109191848D01*
X102777548Y-109191851D01*
X102783011Y-109286590D01*
X102790110Y-109409715D01*
X102791247Y-109414761D01*
X102791248Y-109414767D01*
X102811119Y-109502939D01*
X102839222Y-109627639D01*
X102923266Y-109834616D01*
X103039987Y-110025088D01*
X103186250Y-110193938D01*
X103358126Y-110336632D01*
X103428595Y-110377811D01*
X103431445Y-110379476D01*
X103480169Y-110431114D01*
X103493240Y-110500897D01*
X103466509Y-110566669D01*
X103426055Y-110600027D01*
X103413607Y-110606507D01*
X103409474Y-110609610D01*
X103409471Y-110609612D01*
X103385247Y-110627800D01*
X103234965Y-110740635D01*
X103080629Y-110902138D01*
X102954743Y-111086680D01*
X102860688Y-111289305D01*
X102800989Y-111504570D01*
X102777251Y-111726695D01*
X102777548Y-111731848D01*
X102777548Y-111731851D01*
X102783011Y-111826590D01*
X102790110Y-111949715D01*
X102791247Y-111954761D01*
X102791248Y-111954767D01*
X102811119Y-112042939D01*
X102839222Y-112167639D01*
X102923266Y-112374616D01*
X103039987Y-112565088D01*
X103186250Y-112733938D01*
X103358126Y-112876632D01*
X103428595Y-112917811D01*
X103431445Y-112919476D01*
X103480169Y-112971114D01*
X103493240Y-113040897D01*
X103466509Y-113106669D01*
X103426055Y-113140027D01*
X103413607Y-113146507D01*
X103409474Y-113149610D01*
X103409471Y-113149612D01*
X103385247Y-113167800D01*
X103234965Y-113280635D01*
X103080629Y-113442138D01*
X102954743Y-113626680D01*
X102860688Y-113829305D01*
X102800989Y-114044570D01*
X102777251Y-114266695D01*
X102777548Y-114271848D01*
X102777548Y-114271851D01*
X102783011Y-114366590D01*
X102790110Y-114489715D01*
X102791247Y-114494761D01*
X102791248Y-114494767D01*
X102811119Y-114582939D01*
X102839222Y-114707639D01*
X102923266Y-114914616D01*
X103039987Y-115105088D01*
X103186250Y-115273938D01*
X103358126Y-115416632D01*
X103428595Y-115457811D01*
X103431445Y-115459476D01*
X103480169Y-115511114D01*
X103493240Y-115580897D01*
X103466509Y-115646669D01*
X103426055Y-115680027D01*
X103413607Y-115686507D01*
X103409474Y-115689610D01*
X103409471Y-115689612D01*
X103239100Y-115817530D01*
X103234965Y-115820635D01*
X103080629Y-115982138D01*
X102954743Y-116166680D01*
X102860688Y-116369305D01*
X102800989Y-116584570D01*
X102777251Y-116806695D01*
X98926970Y-116806695D01*
X98995553Y-116756866D01*
X99123340Y-116614944D01*
X99218827Y-116449556D01*
X99277842Y-116267928D01*
X99284920Y-116200590D01*
X99297114Y-116084565D01*
X99297804Y-116078000D01*
X99277842Y-115888072D01*
X99218827Y-115706444D01*
X99123340Y-115541056D01*
X99008333Y-115413327D01*
X98999975Y-115404045D01*
X98999974Y-115404044D01*
X98995553Y-115399134D01*
X98841052Y-115286882D01*
X98835024Y-115284198D01*
X98835022Y-115284197D01*
X98672619Y-115211891D01*
X98672618Y-115211891D01*
X98666588Y-115209206D01*
X98545600Y-115183489D01*
X98486244Y-115170872D01*
X98486239Y-115170872D01*
X98479787Y-115169500D01*
X98288813Y-115169500D01*
X98282361Y-115170872D01*
X98282356Y-115170872D01*
X98223000Y-115183489D01*
X98102012Y-115209206D01*
X98095982Y-115211891D01*
X98095981Y-115211891D01*
X97933578Y-115284197D01*
X97933576Y-115284198D01*
X97927548Y-115286882D01*
X97773047Y-115399134D01*
X97768626Y-115404044D01*
X97768625Y-115404045D01*
X97760268Y-115413327D01*
X97645260Y-115541056D01*
X97549773Y-115706444D01*
X97490758Y-115888072D01*
X97470796Y-116078000D01*
X92565120Y-116078000D01*
X92520014Y-116008277D01*
X92369670Y-115843051D01*
X92365619Y-115839852D01*
X92365615Y-115839848D01*
X92198414Y-115707800D01*
X92198410Y-115707798D01*
X92194359Y-115704598D01*
X92153053Y-115681796D01*
X92103084Y-115631364D01*
X92088312Y-115561921D01*
X92113428Y-115495516D01*
X92140780Y-115468909D01*
X92184603Y-115437650D01*
X92319860Y-115341173D01*
X92370447Y-115290763D01*
X92401209Y-115260107D01*
X92478096Y-115183489D01*
X92537594Y-115100689D01*
X92605435Y-115006277D01*
X92608453Y-115002077D01*
X92707430Y-114801811D01*
X92772370Y-114588069D01*
X92801529Y-114366590D01*
X92803156Y-114300000D01*
X92784852Y-114077361D01*
X92730431Y-113860702D01*
X92641354Y-113655840D01*
X92520014Y-113468277D01*
X92369670Y-113303051D01*
X92365619Y-113299852D01*
X92365615Y-113299848D01*
X92198414Y-113167800D01*
X92198410Y-113167798D01*
X92194359Y-113164598D01*
X92153053Y-113141796D01*
X92103084Y-113091364D01*
X92088312Y-113021921D01*
X92113428Y-112955516D01*
X92140780Y-112928909D01*
X92184603Y-112897650D01*
X92319860Y-112801173D01*
X92478096Y-112643489D01*
X92537594Y-112560689D01*
X92605435Y-112466277D01*
X92608453Y-112462077D01*
X92707430Y-112261811D01*
X92772370Y-112048069D01*
X92801529Y-111826590D01*
X92803156Y-111760000D01*
X92784852Y-111537361D01*
X92730431Y-111320702D01*
X92641354Y-111115840D01*
X92520014Y-110928277D01*
X92369670Y-110763051D01*
X92365619Y-110759852D01*
X92365615Y-110759848D01*
X92198414Y-110627800D01*
X92198410Y-110627798D01*
X92194359Y-110624598D01*
X92153053Y-110601796D01*
X92103084Y-110551364D01*
X92088312Y-110481921D01*
X92113428Y-110415516D01*
X92140780Y-110388909D01*
X92184603Y-110357650D01*
X92319860Y-110261173D01*
X92478096Y-110103489D01*
X92537594Y-110020689D01*
X92605435Y-109926277D01*
X92608453Y-109922077D01*
X92707430Y-109721811D01*
X92772370Y-109508069D01*
X92801529Y-109286590D01*
X92803156Y-109220000D01*
X92784852Y-108997361D01*
X92730431Y-108780702D01*
X92641354Y-108575840D01*
X92520014Y-108388277D01*
X92369670Y-108223051D01*
X92365619Y-108219852D01*
X92365615Y-108219848D01*
X92198414Y-108087800D01*
X92198410Y-108087798D01*
X92194359Y-108084598D01*
X92153053Y-108061796D01*
X92103084Y-108011364D01*
X92088312Y-107941921D01*
X92113428Y-107875516D01*
X92140780Y-107848909D01*
X92184603Y-107817650D01*
X92319860Y-107721173D01*
X92478096Y-107563489D01*
X92537594Y-107480689D01*
X92605435Y-107386277D01*
X92608453Y-107382077D01*
X92707430Y-107181811D01*
X92772370Y-106968069D01*
X92801529Y-106746590D01*
X92803156Y-106680000D01*
X92784852Y-106457361D01*
X92730431Y-106240702D01*
X92641354Y-106035840D01*
X92520014Y-105848277D01*
X92369670Y-105683051D01*
X92365619Y-105679852D01*
X92365615Y-105679848D01*
X92198414Y-105547800D01*
X92198410Y-105547798D01*
X92194359Y-105544598D01*
X92153053Y-105521796D01*
X92103084Y-105471364D01*
X92088312Y-105401921D01*
X92113428Y-105335516D01*
X92140780Y-105308909D01*
X92184603Y-105277650D01*
X92319860Y-105181173D01*
X92478096Y-105023489D01*
X92537594Y-104940689D01*
X92605435Y-104846277D01*
X92608453Y-104842077D01*
X92707430Y-104641811D01*
X92772370Y-104428069D01*
X92801529Y-104206590D01*
X92803156Y-104140000D01*
X92784852Y-103917361D01*
X92730431Y-103700702D01*
X92641354Y-103495840D01*
X92520014Y-103308277D01*
X92369670Y-103143051D01*
X92365619Y-103139852D01*
X92365615Y-103139848D01*
X92198414Y-103007800D01*
X92198410Y-103007798D01*
X92194359Y-103004598D01*
X92153053Y-102981796D01*
X92103084Y-102931364D01*
X92088312Y-102861921D01*
X92113428Y-102795516D01*
X92140780Y-102768909D01*
X92184603Y-102737650D01*
X92319860Y-102641173D01*
X92478096Y-102483489D01*
X92537594Y-102400689D01*
X92605435Y-102306277D01*
X92608453Y-102302077D01*
X92707430Y-102101811D01*
X92772370Y-101888069D01*
X92801529Y-101666590D01*
X92803156Y-101600000D01*
X92784852Y-101377361D01*
X92730431Y-101160702D01*
X92641354Y-100955840D01*
X92520014Y-100768277D01*
X92369670Y-100603051D01*
X92365619Y-100599852D01*
X92365615Y-100599848D01*
X92198414Y-100467800D01*
X92198410Y-100467798D01*
X92194359Y-100464598D01*
X92153053Y-100441796D01*
X92103084Y-100391364D01*
X92088312Y-100321921D01*
X92113428Y-100255516D01*
X92140780Y-100228909D01*
X92184603Y-100197650D01*
X92319860Y-100101173D01*
X92478096Y-99943489D01*
X92537594Y-99860689D01*
X92605435Y-99766277D01*
X92608453Y-99762077D01*
X92707430Y-99561811D01*
X92772370Y-99348069D01*
X92801529Y-99126590D01*
X92803156Y-99060000D01*
X92784852Y-98837361D01*
X92730431Y-98620702D01*
X92641354Y-98415840D01*
X92520014Y-98228277D01*
X92369670Y-98063051D01*
X92365619Y-98059852D01*
X92365615Y-98059848D01*
X92198414Y-97927800D01*
X92198410Y-97927798D01*
X92194359Y-97924598D01*
X92153053Y-97901796D01*
X92103084Y-97851364D01*
X92088312Y-97781921D01*
X92113428Y-97715516D01*
X92140780Y-97688909D01*
X92184603Y-97657650D01*
X92319860Y-97561173D01*
X92478096Y-97403489D01*
X92537594Y-97320689D01*
X92605435Y-97226277D01*
X92608453Y-97222077D01*
X92707430Y-97021811D01*
X92772370Y-96808069D01*
X92801529Y-96586590D01*
X92803156Y-96520000D01*
X92784852Y-96297361D01*
X92730431Y-96080702D01*
X92641354Y-95875840D01*
X92520014Y-95688277D01*
X92516532Y-95684450D01*
X92372798Y-95526488D01*
X92341746Y-95462642D01*
X92350141Y-95392143D01*
X92395317Y-95337375D01*
X92421761Y-95323706D01*
X92528297Y-95283767D01*
X92536705Y-95280615D01*
X92653261Y-95193261D01*
X92740615Y-95076705D01*
X92791745Y-94940316D01*
X92798500Y-94878134D01*
X92798500Y-93081866D01*
X92791745Y-93019684D01*
X92740615Y-92883295D01*
X92653261Y-92766739D01*
X92536705Y-92679385D01*
X92467019Y-92653261D01*
X92417687Y-92634767D01*
X92360923Y-92592125D01*
X92336223Y-92525564D01*
X92351430Y-92456215D01*
X92372977Y-92427535D01*
X92474052Y-92326812D01*
X92480730Y-92318965D01*
X92605003Y-92146020D01*
X92610313Y-92137183D01*
X92704670Y-91946267D01*
X92708469Y-91936672D01*
X92770377Y-91732910D01*
X92772555Y-91722837D01*
X92773986Y-91711962D01*
X92771775Y-91697778D01*
X92758617Y-91694000D01*
X90123225Y-91694000D01*
X90109694Y-91697973D01*
X90108257Y-91707966D01*
X90138565Y-91842446D01*
X90141645Y-91852275D01*
X90221770Y-92049603D01*
X90226413Y-92058794D01*
X90337694Y-92240388D01*
X90343777Y-92248699D01*
X90483213Y-92409667D01*
X90490577Y-92416879D01*
X90495522Y-92420985D01*
X90535156Y-92479889D01*
X90536653Y-92550870D01*
X90499537Y-92611392D01*
X90459264Y-92635910D01*
X90351705Y-92676232D01*
X90351704Y-92676233D01*
X90343295Y-92679385D01*
X90226739Y-92766739D01*
X90139385Y-92883295D01*
X90088255Y-93019684D01*
X90081500Y-93081866D01*
X90081500Y-94878134D01*
X90088255Y-94940316D01*
X90139385Y-95076705D01*
X90226739Y-95193261D01*
X90343295Y-95280615D01*
X90351704Y-95283767D01*
X90351705Y-95283768D01*
X90460451Y-95324535D01*
X90517216Y-95367176D01*
X90541916Y-95433738D01*
X90526709Y-95503087D01*
X90507316Y-95529568D01*
X90380629Y-95662138D01*
X90254743Y-95846680D01*
X90160688Y-96049305D01*
X90100989Y-96264570D01*
X90077251Y-96486695D01*
X90077548Y-96491848D01*
X90077548Y-96491851D01*
X90083011Y-96586590D01*
X90090110Y-96709715D01*
X90091247Y-96714761D01*
X90091248Y-96714767D01*
X90111119Y-96802939D01*
X90139222Y-96927639D01*
X90223266Y-97134616D01*
X90339987Y-97325088D01*
X90486250Y-97493938D01*
X90658126Y-97636632D01*
X90728595Y-97677811D01*
X90731445Y-97679476D01*
X90780169Y-97731114D01*
X90793240Y-97800897D01*
X90766509Y-97866669D01*
X90726055Y-97900027D01*
X90713607Y-97906507D01*
X90709474Y-97909610D01*
X90709471Y-97909612D01*
X90685247Y-97927800D01*
X90534965Y-98040635D01*
X90380629Y-98202138D01*
X90254743Y-98386680D01*
X90160688Y-98589305D01*
X90100989Y-98804570D01*
X90077251Y-99026695D01*
X90077548Y-99031848D01*
X90077548Y-99031851D01*
X90083011Y-99126590D01*
X90090110Y-99249715D01*
X90091247Y-99254761D01*
X90091248Y-99254767D01*
X90111119Y-99342939D01*
X90139222Y-99467639D01*
X90223266Y-99674616D01*
X90339987Y-99865088D01*
X90486250Y-100033938D01*
X90658126Y-100176632D01*
X90728595Y-100217811D01*
X90731445Y-100219476D01*
X90780169Y-100271114D01*
X90793240Y-100340897D01*
X90766509Y-100406669D01*
X90726055Y-100440027D01*
X90713607Y-100446507D01*
X90709474Y-100449610D01*
X90709471Y-100449612D01*
X90685247Y-100467800D01*
X90534965Y-100580635D01*
X90380629Y-100742138D01*
X90254743Y-100926680D01*
X90160688Y-101129305D01*
X90100989Y-101344570D01*
X90077251Y-101566695D01*
X90077548Y-101571848D01*
X90077548Y-101571851D01*
X90083011Y-101666590D01*
X90090110Y-101789715D01*
X90091247Y-101794761D01*
X90091248Y-101794767D01*
X90111119Y-101882939D01*
X90139222Y-102007639D01*
X90223266Y-102214616D01*
X90339987Y-102405088D01*
X90486250Y-102573938D01*
X90658126Y-102716632D01*
X90728595Y-102757811D01*
X90731445Y-102759476D01*
X90780169Y-102811114D01*
X90793240Y-102880897D01*
X90766509Y-102946669D01*
X90726055Y-102980027D01*
X90713607Y-102986507D01*
X90709474Y-102989610D01*
X90709471Y-102989612D01*
X90685247Y-103007800D01*
X90534965Y-103120635D01*
X90380629Y-103282138D01*
X90254743Y-103466680D01*
X90160688Y-103669305D01*
X90100989Y-103884570D01*
X90077251Y-104106695D01*
X90077548Y-104111848D01*
X90077548Y-104111851D01*
X90083011Y-104206590D01*
X90090110Y-104329715D01*
X90091247Y-104334761D01*
X90091248Y-104334767D01*
X90111119Y-104422939D01*
X90139222Y-104547639D01*
X90223266Y-104754616D01*
X90339987Y-104945088D01*
X90486250Y-105113938D01*
X90658126Y-105256632D01*
X90728595Y-105297811D01*
X90731445Y-105299476D01*
X90780169Y-105351114D01*
X90793240Y-105420897D01*
X90766509Y-105486669D01*
X90726055Y-105520027D01*
X90713607Y-105526507D01*
X90709474Y-105529610D01*
X90709471Y-105529612D01*
X90685247Y-105547800D01*
X90534965Y-105660635D01*
X90380629Y-105822138D01*
X90254743Y-106006680D01*
X90160688Y-106209305D01*
X90100989Y-106424570D01*
X90077251Y-106646695D01*
X90077548Y-106651848D01*
X90077548Y-106651851D01*
X90083011Y-106746590D01*
X90090110Y-106869715D01*
X90091247Y-106874761D01*
X90091248Y-106874767D01*
X90111119Y-106962939D01*
X90139222Y-107087639D01*
X90223266Y-107294616D01*
X90339987Y-107485088D01*
X90486250Y-107653938D01*
X90658126Y-107796632D01*
X90728595Y-107837811D01*
X90731445Y-107839476D01*
X90780169Y-107891114D01*
X90793240Y-107960897D01*
X90766509Y-108026669D01*
X90726055Y-108060027D01*
X90713607Y-108066507D01*
X90709474Y-108069610D01*
X90709471Y-108069612D01*
X90685247Y-108087800D01*
X90534965Y-108200635D01*
X90380629Y-108362138D01*
X90254743Y-108546680D01*
X90160688Y-108749305D01*
X90100989Y-108964570D01*
X90077251Y-109186695D01*
X90077548Y-109191848D01*
X90077548Y-109191851D01*
X90083011Y-109286590D01*
X90090110Y-109409715D01*
X90091247Y-109414761D01*
X90091248Y-109414767D01*
X90111119Y-109502939D01*
X90139222Y-109627639D01*
X90223266Y-109834616D01*
X90339987Y-110025088D01*
X90486250Y-110193938D01*
X90658126Y-110336632D01*
X90728595Y-110377811D01*
X90731445Y-110379476D01*
X90780169Y-110431114D01*
X90793240Y-110500897D01*
X90766509Y-110566669D01*
X90726055Y-110600027D01*
X90713607Y-110606507D01*
X90709474Y-110609610D01*
X90709471Y-110609612D01*
X90685247Y-110627800D01*
X90534965Y-110740635D01*
X90380629Y-110902138D01*
X90254743Y-111086680D01*
X90160688Y-111289305D01*
X90100989Y-111504570D01*
X90077251Y-111726695D01*
X90077548Y-111731848D01*
X90077548Y-111731851D01*
X90083011Y-111826590D01*
X90090110Y-111949715D01*
X90091247Y-111954761D01*
X90091248Y-111954767D01*
X90111119Y-112042939D01*
X90139222Y-112167639D01*
X90223266Y-112374616D01*
X90339987Y-112565088D01*
X90486250Y-112733938D01*
X90658126Y-112876632D01*
X90728595Y-112917811D01*
X90731445Y-112919476D01*
X90780169Y-112971114D01*
X90793240Y-113040897D01*
X90766509Y-113106669D01*
X90726055Y-113140027D01*
X90713607Y-113146507D01*
X90709474Y-113149610D01*
X90709471Y-113149612D01*
X90685247Y-113167800D01*
X90534965Y-113280635D01*
X90380629Y-113442138D01*
X90254743Y-113626680D01*
X90160688Y-113829305D01*
X90100989Y-114044570D01*
X90077251Y-114266695D01*
X90077548Y-114271848D01*
X90077548Y-114271851D01*
X90083011Y-114366590D01*
X90090110Y-114489715D01*
X90091247Y-114494761D01*
X90091248Y-114494767D01*
X90111119Y-114582939D01*
X90139222Y-114707639D01*
X90223266Y-114914616D01*
X90339987Y-115105088D01*
X90486250Y-115273938D01*
X90658126Y-115416632D01*
X90728595Y-115457811D01*
X90731445Y-115459476D01*
X90780169Y-115511114D01*
X90793240Y-115580897D01*
X90766509Y-115646669D01*
X90726055Y-115680027D01*
X90713607Y-115686507D01*
X90709474Y-115689610D01*
X90709471Y-115689612D01*
X90539100Y-115817530D01*
X90534965Y-115820635D01*
X90380629Y-115982138D01*
X90254743Y-116166680D01*
X90160688Y-116369305D01*
X90100989Y-116584570D01*
X90077251Y-116806695D01*
X87376500Y-116806695D01*
X87376500Y-89798134D01*
X90081500Y-89798134D01*
X90088255Y-89860316D01*
X90139385Y-89996705D01*
X90226739Y-90113261D01*
X90343295Y-90200615D01*
X90351704Y-90203767D01*
X90351705Y-90203768D01*
X90460960Y-90244726D01*
X90517725Y-90287367D01*
X90542425Y-90353929D01*
X90527218Y-90423278D01*
X90507825Y-90449759D01*
X90384590Y-90578717D01*
X90378104Y-90586727D01*
X90258098Y-90762649D01*
X90253000Y-90771623D01*
X90163338Y-90964783D01*
X90159775Y-90974470D01*
X90104389Y-91174183D01*
X90105912Y-91182607D01*
X90118292Y-91186000D01*
X92758344Y-91186000D01*
X92771875Y-91182027D01*
X92773180Y-91172947D01*
X92731214Y-91005875D01*
X92727894Y-90996124D01*
X92642972Y-90800814D01*
X92638105Y-90791739D01*
X92522426Y-90612926D01*
X92516136Y-90604757D01*
X92372293Y-90446677D01*
X92341241Y-90382831D01*
X92349635Y-90312333D01*
X92394812Y-90257564D01*
X92421256Y-90243895D01*
X92528297Y-90203767D01*
X92536705Y-90200615D01*
X92653261Y-90113261D01*
X92740615Y-89996705D01*
X92791745Y-89860316D01*
X92798500Y-89798134D01*
X92798500Y-88634183D01*
X102804389Y-88634183D01*
X102805912Y-88642607D01*
X102818292Y-88646000D01*
X103867885Y-88646000D01*
X103883124Y-88641525D01*
X103884329Y-88640135D01*
X103886000Y-88632452D01*
X103886000Y-88627885D01*
X104394000Y-88627885D01*
X104398475Y-88643124D01*
X104399865Y-88644329D01*
X104407548Y-88646000D01*
X105458344Y-88646000D01*
X105471875Y-88642027D01*
X105473180Y-88632947D01*
X105431214Y-88465875D01*
X105427894Y-88456124D01*
X105342972Y-88260814D01*
X105338105Y-88251739D01*
X105222426Y-88072926D01*
X105216136Y-88064757D01*
X105072806Y-87907240D01*
X105065273Y-87900215D01*
X104898139Y-87768222D01*
X104889552Y-87762517D01*
X104703117Y-87659599D01*
X104693705Y-87655369D01*
X104492959Y-87584280D01*
X104482988Y-87581646D01*
X104411837Y-87568972D01*
X104398540Y-87570432D01*
X104394000Y-87584989D01*
X104394000Y-88627885D01*
X103886000Y-88627885D01*
X103886000Y-87583102D01*
X103882082Y-87569758D01*
X103867806Y-87567771D01*
X103829324Y-87573660D01*
X103819288Y-87576051D01*
X103616868Y-87642212D01*
X103607359Y-87646209D01*
X103418463Y-87744542D01*
X103409738Y-87750036D01*
X103239433Y-87877905D01*
X103231726Y-87884748D01*
X103084590Y-88038717D01*
X103078104Y-88046727D01*
X102958098Y-88222649D01*
X102953000Y-88231623D01*
X102863338Y-88424783D01*
X102859775Y-88434470D01*
X102804389Y-88634183D01*
X92798500Y-88634183D01*
X92798500Y-88001866D01*
X92791745Y-87939684D01*
X92740615Y-87803295D01*
X92653261Y-87686739D01*
X92536705Y-87599385D01*
X92400316Y-87548255D01*
X92338134Y-87541500D01*
X90541866Y-87541500D01*
X90479684Y-87548255D01*
X90343295Y-87599385D01*
X90226739Y-87686739D01*
X90139385Y-87803295D01*
X90088255Y-87939684D01*
X90081500Y-88001866D01*
X90081500Y-89798134D01*
X87376500Y-89798134D01*
X87376500Y-85987623D01*
X87376502Y-85986853D01*
X87376931Y-85916600D01*
X87376976Y-85909279D01*
X87376262Y-85906780D01*
X87376000Y-85902940D01*
X87376000Y-85344000D01*
X83872190Y-85344000D01*
X83804069Y-85323998D01*
X83783095Y-85307095D01*
X82804000Y-84328000D01*
X99289496Y-84328000D01*
X99290186Y-84334565D01*
X99301248Y-84439810D01*
X99309458Y-84517928D01*
X99368473Y-84699556D01*
X99463960Y-84864944D01*
X99468378Y-84869851D01*
X99468379Y-84869852D01*
X99480892Y-84883749D01*
X99591747Y-85006866D01*
X99667357Y-85061800D01*
X99731122Y-85108128D01*
X99746248Y-85119118D01*
X99752276Y-85121802D01*
X99752278Y-85121803D01*
X99914681Y-85194109D01*
X99920712Y-85196794D01*
X100008340Y-85215420D01*
X100101056Y-85235128D01*
X100101061Y-85235128D01*
X100107513Y-85236500D01*
X100298487Y-85236500D01*
X100304939Y-85235128D01*
X100304944Y-85235128D01*
X100397660Y-85215420D01*
X100485288Y-85196794D01*
X100491319Y-85194109D01*
X100653722Y-85121803D01*
X100653724Y-85121802D01*
X100659752Y-85119118D01*
X100674879Y-85108128D01*
X100738643Y-85061800D01*
X100814253Y-85006866D01*
X100925108Y-84883749D01*
X100937621Y-84869852D01*
X100937622Y-84869851D01*
X100942040Y-84864944D01*
X101037527Y-84699556D01*
X101096542Y-84517928D01*
X101104753Y-84439810D01*
X101115814Y-84334565D01*
X101116504Y-84328000D01*
X101105490Y-84223210D01*
X101103156Y-84201000D01*
X102972496Y-84201000D01*
X102992458Y-84390928D01*
X103051473Y-84572556D01*
X103146960Y-84737944D01*
X103151378Y-84742851D01*
X103151379Y-84742852D01*
X103256163Y-84859226D01*
X103274747Y-84879866D01*
X103429248Y-84992118D01*
X103435276Y-84994802D01*
X103435278Y-84994803D01*
X103471094Y-85010749D01*
X103603712Y-85069794D01*
X103697112Y-85089647D01*
X103784056Y-85108128D01*
X103784061Y-85108128D01*
X103790513Y-85109500D01*
X103981487Y-85109500D01*
X103987939Y-85108128D01*
X103987944Y-85108128D01*
X104074888Y-85089647D01*
X104168288Y-85069794D01*
X104300906Y-85010749D01*
X104336722Y-84994803D01*
X104336724Y-84994802D01*
X104342752Y-84992118D01*
X104497253Y-84879866D01*
X104515837Y-84859226D01*
X104620621Y-84742852D01*
X104620622Y-84742851D01*
X104625040Y-84737944D01*
X104720527Y-84572556D01*
X104779542Y-84390928D01*
X104799504Y-84201000D01*
X104779542Y-84011072D01*
X104720527Y-83829444D01*
X104716370Y-83822243D01*
X104669551Y-83741151D01*
X104625040Y-83664056D01*
X104497253Y-83522134D01*
X104398157Y-83450136D01*
X104348094Y-83413763D01*
X104348093Y-83413762D01*
X104342752Y-83409882D01*
X104336724Y-83407198D01*
X104336722Y-83407197D01*
X104174319Y-83334891D01*
X104174318Y-83334891D01*
X104168288Y-83332206D01*
X104074888Y-83312353D01*
X103987944Y-83293872D01*
X103987939Y-83293872D01*
X103981487Y-83292500D01*
X103790513Y-83292500D01*
X103784061Y-83293872D01*
X103784056Y-83293872D01*
X103697112Y-83312353D01*
X103603712Y-83332206D01*
X103597682Y-83334891D01*
X103597681Y-83334891D01*
X103435278Y-83407197D01*
X103435276Y-83407198D01*
X103429248Y-83409882D01*
X103423907Y-83413762D01*
X103423906Y-83413763D01*
X103373843Y-83450136D01*
X103274747Y-83522134D01*
X103146960Y-83664056D01*
X103102449Y-83741151D01*
X103055631Y-83822243D01*
X103051473Y-83829444D01*
X102992458Y-84011072D01*
X102972496Y-84201000D01*
X101103156Y-84201000D01*
X101097232Y-84144635D01*
X101097232Y-84144633D01*
X101096542Y-84138072D01*
X101037527Y-83956444D01*
X100942040Y-83791056D01*
X100921560Y-83768310D01*
X100818675Y-83654045D01*
X100818674Y-83654044D01*
X100814253Y-83649134D01*
X100659752Y-83536882D01*
X100653724Y-83534198D01*
X100653722Y-83534197D01*
X100491319Y-83461891D01*
X100491318Y-83461891D01*
X100485288Y-83459206D01*
X100391888Y-83439353D01*
X100304944Y-83420872D01*
X100304939Y-83420872D01*
X100298487Y-83419500D01*
X100107513Y-83419500D01*
X100101061Y-83420872D01*
X100101056Y-83420872D01*
X100014112Y-83439353D01*
X99920712Y-83459206D01*
X99914682Y-83461891D01*
X99914681Y-83461891D01*
X99752278Y-83534197D01*
X99752276Y-83534198D01*
X99746248Y-83536882D01*
X99591747Y-83649134D01*
X99587326Y-83654044D01*
X99587325Y-83654045D01*
X99484441Y-83768310D01*
X99463960Y-83791056D01*
X99368473Y-83956444D01*
X99309458Y-84138072D01*
X99308768Y-84144633D01*
X99308768Y-84144635D01*
X99300510Y-84223210D01*
X99289496Y-84328000D01*
X82804000Y-84328000D01*
X82333405Y-83857405D01*
X82299379Y-83795093D01*
X82296500Y-83768310D01*
X82296500Y-77089000D01*
X102972496Y-77089000D01*
X102992458Y-77278928D01*
X103051473Y-77460556D01*
X103146960Y-77625944D01*
X103274747Y-77767866D01*
X103429248Y-77880118D01*
X103435276Y-77882802D01*
X103435278Y-77882803D01*
X103597681Y-77955109D01*
X103603712Y-77957794D01*
X103697113Y-77977647D01*
X103784056Y-77996128D01*
X103784061Y-77996128D01*
X103790513Y-77997500D01*
X103981487Y-77997500D01*
X103987939Y-77996128D01*
X103987944Y-77996128D01*
X104074887Y-77977647D01*
X104168288Y-77957794D01*
X104174319Y-77955109D01*
X104336722Y-77882803D01*
X104336724Y-77882802D01*
X104342752Y-77880118D01*
X104497253Y-77767866D01*
X104625040Y-77625944D01*
X104720527Y-77460556D01*
X104779542Y-77278928D01*
X104799504Y-77089000D01*
X104779542Y-76899072D01*
X104720527Y-76717444D01*
X104625040Y-76552056D01*
X104497253Y-76410134D01*
X104342752Y-76297882D01*
X104336724Y-76295198D01*
X104336722Y-76295197D01*
X104174319Y-76222891D01*
X104174318Y-76222891D01*
X104168288Y-76220206D01*
X104074887Y-76200353D01*
X103987944Y-76181872D01*
X103987939Y-76181872D01*
X103981487Y-76180500D01*
X103790513Y-76180500D01*
X103784061Y-76181872D01*
X103784056Y-76181872D01*
X103697113Y-76200353D01*
X103603712Y-76220206D01*
X103597682Y-76222891D01*
X103597681Y-76222891D01*
X103435278Y-76295197D01*
X103435276Y-76295198D01*
X103429248Y-76297882D01*
X103274747Y-76410134D01*
X103146960Y-76552056D01*
X103051473Y-76717444D01*
X102992458Y-76899072D01*
X102972496Y-77089000D01*
X82296500Y-77089000D01*
X82296500Y-74250000D01*
X106086496Y-74250000D01*
X106087186Y-74256565D01*
X106099532Y-74374026D01*
X106106458Y-74439928D01*
X106165473Y-74621556D01*
X106168776Y-74627278D01*
X106168777Y-74627279D01*
X106172610Y-74633918D01*
X106260960Y-74786944D01*
X106265378Y-74791851D01*
X106265379Y-74791852D01*
X106384325Y-74923955D01*
X106388747Y-74928866D01*
X106543248Y-75041118D01*
X106549276Y-75043802D01*
X106549278Y-75043803D01*
X106711681Y-75116109D01*
X106717712Y-75118794D01*
X106811113Y-75138647D01*
X106898056Y-75157128D01*
X106898061Y-75157128D01*
X106904513Y-75158500D01*
X107095487Y-75158500D01*
X107101939Y-75157128D01*
X107101944Y-75157128D01*
X107188887Y-75138647D01*
X107282288Y-75118794D01*
X107288319Y-75116109D01*
X107450722Y-75043803D01*
X107450724Y-75043802D01*
X107456752Y-75041118D01*
X107611253Y-74928866D01*
X107615675Y-74923955D01*
X107734621Y-74791852D01*
X107734622Y-74791851D01*
X107739040Y-74786944D01*
X107827390Y-74633918D01*
X107831223Y-74627279D01*
X107831224Y-74627278D01*
X107834527Y-74621556D01*
X107893542Y-74439928D01*
X107900469Y-74374026D01*
X107912814Y-74256565D01*
X107913504Y-74250000D01*
X107893542Y-74060072D01*
X107834527Y-73878444D01*
X107813948Y-73842800D01*
X108326896Y-73842800D01*
X108346858Y-74032728D01*
X108405873Y-74214356D01*
X108501360Y-74379744D01*
X108505778Y-74384651D01*
X108505779Y-74384652D01*
X108624725Y-74516755D01*
X108629147Y-74521666D01*
X108783648Y-74633918D01*
X108789676Y-74636602D01*
X108789678Y-74636603D01*
X108952081Y-74708909D01*
X108958112Y-74711594D01*
X109051512Y-74731447D01*
X109138456Y-74749928D01*
X109138461Y-74749928D01*
X109144913Y-74751300D01*
X109335887Y-74751300D01*
X109342339Y-74749928D01*
X109342344Y-74749928D01*
X109429288Y-74731447D01*
X109522688Y-74711594D01*
X109528719Y-74708909D01*
X109691122Y-74636603D01*
X109691124Y-74636602D01*
X109697152Y-74633918D01*
X109851653Y-74521666D01*
X109856075Y-74516755D01*
X109975021Y-74384652D01*
X109975022Y-74384651D01*
X109979440Y-74379744D01*
X110074927Y-74214356D01*
X110133942Y-74032728D01*
X110148565Y-73893600D01*
X111476496Y-73893600D01*
X111477186Y-73900165D01*
X111491779Y-74039006D01*
X111496458Y-74083528D01*
X111555473Y-74265156D01*
X111650960Y-74430544D01*
X111655378Y-74435451D01*
X111655379Y-74435452D01*
X111736503Y-74525549D01*
X111778747Y-74572466D01*
X111933248Y-74684718D01*
X111939276Y-74687402D01*
X111939278Y-74687403D01*
X112082794Y-74751300D01*
X112107712Y-74762394D01*
X112196309Y-74781226D01*
X112288056Y-74800728D01*
X112288061Y-74800728D01*
X112294513Y-74802100D01*
X112485487Y-74802100D01*
X112491939Y-74800728D01*
X112491944Y-74800728D01*
X112583691Y-74781226D01*
X112672288Y-74762394D01*
X112697206Y-74751300D01*
X112840722Y-74687403D01*
X112840724Y-74687402D01*
X112846752Y-74684718D01*
X113001253Y-74572466D01*
X113043497Y-74525549D01*
X113124621Y-74435452D01*
X113124622Y-74435451D01*
X113129040Y-74430544D01*
X113224527Y-74265156D01*
X113283542Y-74083528D01*
X113288222Y-74039006D01*
X113302814Y-73900165D01*
X113303504Y-73893600D01*
X113283542Y-73703672D01*
X113224527Y-73522044D01*
X113129040Y-73356656D01*
X113115394Y-73341500D01*
X113005675Y-73219645D01*
X113005674Y-73219644D01*
X113001253Y-73214734D01*
X112846752Y-73102482D01*
X112840724Y-73099798D01*
X112840722Y-73099797D01*
X112678319Y-73027491D01*
X112678318Y-73027491D01*
X112672288Y-73024806D01*
X112578887Y-73004953D01*
X112491944Y-72986472D01*
X112491939Y-72986472D01*
X112485487Y-72985100D01*
X112294513Y-72985100D01*
X112288061Y-72986472D01*
X112288056Y-72986472D01*
X112201113Y-73004953D01*
X112107712Y-73024806D01*
X112101682Y-73027491D01*
X112101681Y-73027491D01*
X111939278Y-73099797D01*
X111939276Y-73099798D01*
X111933248Y-73102482D01*
X111778747Y-73214734D01*
X111774326Y-73219644D01*
X111774325Y-73219645D01*
X111664607Y-73341500D01*
X111650960Y-73356656D01*
X111555473Y-73522044D01*
X111496458Y-73703672D01*
X111476496Y-73893600D01*
X110148565Y-73893600D01*
X110153904Y-73842800D01*
X110153214Y-73836235D01*
X110134632Y-73659435D01*
X110134632Y-73659433D01*
X110133942Y-73652872D01*
X110074927Y-73471244D01*
X110070031Y-73462763D01*
X109982741Y-73311574D01*
X109979440Y-73305856D01*
X109897394Y-73214734D01*
X109856075Y-73168845D01*
X109856074Y-73168844D01*
X109851653Y-73163934D01*
X109697152Y-73051682D01*
X109691124Y-73048998D01*
X109691122Y-73048997D01*
X109528719Y-72976691D01*
X109528718Y-72976691D01*
X109522688Y-72974006D01*
X109429287Y-72954153D01*
X109342344Y-72935672D01*
X109342339Y-72935672D01*
X109335887Y-72934300D01*
X109144913Y-72934300D01*
X109138461Y-72935672D01*
X109138456Y-72935672D01*
X109051513Y-72954153D01*
X108958112Y-72974006D01*
X108952082Y-72976691D01*
X108952081Y-72976691D01*
X108789678Y-73048997D01*
X108789676Y-73048998D01*
X108783648Y-73051682D01*
X108629147Y-73163934D01*
X108624726Y-73168844D01*
X108624725Y-73168845D01*
X108583407Y-73214734D01*
X108501360Y-73305856D01*
X108498059Y-73311574D01*
X108410770Y-73462763D01*
X108405873Y-73471244D01*
X108346858Y-73652872D01*
X108346168Y-73659433D01*
X108346168Y-73659435D01*
X108327586Y-73836235D01*
X108326896Y-73842800D01*
X107813948Y-73842800D01*
X107739040Y-73713056D01*
X107690760Y-73659435D01*
X107615675Y-73576045D01*
X107615674Y-73576044D01*
X107611253Y-73571134D01*
X107456752Y-73458882D01*
X107450724Y-73456198D01*
X107450722Y-73456197D01*
X107288319Y-73383891D01*
X107288318Y-73383891D01*
X107282288Y-73381206D01*
X107188888Y-73361353D01*
X107101944Y-73342872D01*
X107101939Y-73342872D01*
X107095487Y-73341500D01*
X106904513Y-73341500D01*
X106898061Y-73342872D01*
X106898056Y-73342872D01*
X106811112Y-73361353D01*
X106717712Y-73381206D01*
X106711682Y-73383891D01*
X106711681Y-73383891D01*
X106549278Y-73456197D01*
X106549276Y-73456198D01*
X106543248Y-73458882D01*
X106388747Y-73571134D01*
X106384326Y-73576044D01*
X106384325Y-73576045D01*
X106309241Y-73659435D01*
X106260960Y-73713056D01*
X106165473Y-73878444D01*
X106106458Y-74060072D01*
X106086496Y-74250000D01*
X82296500Y-74250000D01*
X82296500Y-68864400D01*
X88718096Y-68864400D01*
X88718786Y-68870965D01*
X88735509Y-69030072D01*
X88738058Y-69054328D01*
X88797073Y-69235956D01*
X88892560Y-69401344D01*
X89020347Y-69543266D01*
X89078162Y-69585271D01*
X89146546Y-69634955D01*
X89174848Y-69655518D01*
X89180876Y-69658202D01*
X89180878Y-69658203D01*
X89343281Y-69730509D01*
X89349312Y-69733194D01*
X89438342Y-69752118D01*
X89529656Y-69771528D01*
X89529661Y-69771528D01*
X89536113Y-69772900D01*
X89727087Y-69772900D01*
X89733539Y-69771528D01*
X89733544Y-69771528D01*
X89824858Y-69752118D01*
X89913888Y-69733194D01*
X89919919Y-69730509D01*
X90082322Y-69658203D01*
X90082324Y-69658202D01*
X90088352Y-69655518D01*
X90116655Y-69634955D01*
X90185038Y-69585271D01*
X90242853Y-69543266D01*
X90370640Y-69401344D01*
X90466127Y-69235956D01*
X90525142Y-69054328D01*
X90527692Y-69030072D01*
X90534951Y-68961000D01*
X99543496Y-68961000D01*
X99563458Y-69150928D01*
X99622473Y-69332556D01*
X99717960Y-69497944D01*
X99722378Y-69502851D01*
X99722379Y-69502852D01*
X99841325Y-69634955D01*
X99845747Y-69639866D01*
X100000248Y-69752118D01*
X100006276Y-69754802D01*
X100006278Y-69754803D01*
X100046925Y-69772900D01*
X100174712Y-69829794D01*
X100268112Y-69849647D01*
X100355056Y-69868128D01*
X100355061Y-69868128D01*
X100361513Y-69869500D01*
X100552487Y-69869500D01*
X100558939Y-69868128D01*
X100558944Y-69868128D01*
X100645888Y-69849647D01*
X100739288Y-69829794D01*
X100867075Y-69772900D01*
X100907722Y-69754803D01*
X100907724Y-69754802D01*
X100913752Y-69752118D01*
X101068253Y-69639866D01*
X101072675Y-69634955D01*
X101191621Y-69502852D01*
X101191622Y-69502851D01*
X101196040Y-69497944D01*
X101291527Y-69332556D01*
X101350542Y-69150928D01*
X101370504Y-68961000D01*
X101829496Y-68961000D01*
X101849458Y-69150928D01*
X101908473Y-69332556D01*
X102003960Y-69497944D01*
X102008378Y-69502851D01*
X102008379Y-69502852D01*
X102127325Y-69634955D01*
X102131747Y-69639866D01*
X102286248Y-69752118D01*
X102292276Y-69754802D01*
X102292278Y-69754803D01*
X102332925Y-69772900D01*
X102460712Y-69829794D01*
X102554112Y-69849647D01*
X102641056Y-69868128D01*
X102641061Y-69868128D01*
X102647513Y-69869500D01*
X102838487Y-69869500D01*
X102844939Y-69868128D01*
X102844944Y-69868128D01*
X102931888Y-69849647D01*
X103025288Y-69829794D01*
X103153075Y-69772900D01*
X103193722Y-69754803D01*
X103193724Y-69754802D01*
X103199752Y-69752118D01*
X103354253Y-69639866D01*
X103358675Y-69634955D01*
X103477621Y-69502852D01*
X103477622Y-69502851D01*
X103482040Y-69497944D01*
X103577527Y-69332556D01*
X103614099Y-69220000D01*
X109038096Y-69220000D01*
X109058058Y-69409928D01*
X109117073Y-69591556D01*
X109212560Y-69756944D01*
X109340347Y-69898866D01*
X109494848Y-70011118D01*
X109500876Y-70013802D01*
X109500878Y-70013803D01*
X109663281Y-70086109D01*
X109669312Y-70088794D01*
X109762712Y-70108647D01*
X109849656Y-70127128D01*
X109849661Y-70127128D01*
X109856113Y-70128500D01*
X110047087Y-70128500D01*
X110053539Y-70127128D01*
X110053544Y-70127128D01*
X110140488Y-70108647D01*
X110233888Y-70088794D01*
X110239919Y-70086109D01*
X110402322Y-70013803D01*
X110402324Y-70013802D01*
X110408352Y-70011118D01*
X110562853Y-69898866D01*
X110690640Y-69756944D01*
X110786127Y-69591556D01*
X110845142Y-69409928D01*
X110865104Y-69220000D01*
X110848351Y-69060606D01*
X110845832Y-69036635D01*
X110845832Y-69036633D01*
X110845142Y-69030072D01*
X110786127Y-68848444D01*
X110690640Y-68683056D01*
X110640842Y-68627749D01*
X110567275Y-68546045D01*
X110567274Y-68546044D01*
X110562853Y-68541134D01*
X110408352Y-68428882D01*
X110402324Y-68426198D01*
X110402322Y-68426197D01*
X110239919Y-68353891D01*
X110239918Y-68353891D01*
X110233888Y-68351206D01*
X110122154Y-68327456D01*
X110053544Y-68312872D01*
X110053539Y-68312872D01*
X110047087Y-68311500D01*
X109856113Y-68311500D01*
X109849661Y-68312872D01*
X109849656Y-68312872D01*
X109781046Y-68327456D01*
X109669312Y-68351206D01*
X109663282Y-68353891D01*
X109663281Y-68353891D01*
X109500878Y-68426197D01*
X109500876Y-68426198D01*
X109494848Y-68428882D01*
X109340347Y-68541134D01*
X109335926Y-68546044D01*
X109335925Y-68546045D01*
X109262359Y-68627749D01*
X109212560Y-68683056D01*
X109117073Y-68848444D01*
X109058058Y-69030072D01*
X109057368Y-69036633D01*
X109057368Y-69036635D01*
X109054849Y-69060606D01*
X109038096Y-69220000D01*
X103614099Y-69220000D01*
X103636542Y-69150928D01*
X103656504Y-68961000D01*
X103645335Y-68854729D01*
X103637232Y-68777635D01*
X103637232Y-68777633D01*
X103636542Y-68771072D01*
X103577527Y-68589444D01*
X103482040Y-68424056D01*
X103354253Y-68282134D01*
X103255157Y-68210136D01*
X103205094Y-68173763D01*
X103205093Y-68173762D01*
X103199752Y-68169882D01*
X103193724Y-68167198D01*
X103193722Y-68167197D01*
X103031319Y-68094891D01*
X103031318Y-68094891D01*
X103025288Y-68092206D01*
X102923626Y-68070597D01*
X102844944Y-68053872D01*
X102844939Y-68053872D01*
X102838487Y-68052500D01*
X102647513Y-68052500D01*
X102641061Y-68053872D01*
X102641056Y-68053872D01*
X102562374Y-68070597D01*
X102460712Y-68092206D01*
X102454682Y-68094891D01*
X102454681Y-68094891D01*
X102292278Y-68167197D01*
X102292276Y-68167198D01*
X102286248Y-68169882D01*
X102280907Y-68173762D01*
X102280906Y-68173763D01*
X102230843Y-68210136D01*
X102131747Y-68282134D01*
X102003960Y-68424056D01*
X101908473Y-68589444D01*
X101849458Y-68771072D01*
X101848768Y-68777633D01*
X101848768Y-68777635D01*
X101840665Y-68854729D01*
X101829496Y-68961000D01*
X101370504Y-68961000D01*
X101359335Y-68854729D01*
X101351232Y-68777635D01*
X101351232Y-68777633D01*
X101350542Y-68771072D01*
X101291527Y-68589444D01*
X101196040Y-68424056D01*
X101068253Y-68282134D01*
X100969157Y-68210136D01*
X100919094Y-68173763D01*
X100919093Y-68173762D01*
X100913752Y-68169882D01*
X100907724Y-68167198D01*
X100907722Y-68167197D01*
X100745319Y-68094891D01*
X100745318Y-68094891D01*
X100739288Y-68092206D01*
X100637626Y-68070597D01*
X100558944Y-68053872D01*
X100558939Y-68053872D01*
X100552487Y-68052500D01*
X100361513Y-68052500D01*
X100355061Y-68053872D01*
X100355056Y-68053872D01*
X100276374Y-68070597D01*
X100174712Y-68092206D01*
X100168682Y-68094891D01*
X100168681Y-68094891D01*
X100006278Y-68167197D01*
X100006276Y-68167198D01*
X100000248Y-68169882D01*
X99994907Y-68173762D01*
X99994906Y-68173763D01*
X99944843Y-68210136D01*
X99845747Y-68282134D01*
X99717960Y-68424056D01*
X99622473Y-68589444D01*
X99563458Y-68771072D01*
X99562768Y-68777633D01*
X99562768Y-68777635D01*
X99554665Y-68854729D01*
X99543496Y-68961000D01*
X90534951Y-68961000D01*
X90544414Y-68870965D01*
X90545104Y-68864400D01*
X90534635Y-68764794D01*
X90525832Y-68681035D01*
X90525832Y-68681033D01*
X90525142Y-68674472D01*
X90466127Y-68492844D01*
X90370640Y-68327456D01*
X90242853Y-68185534D01*
X90088352Y-68073282D01*
X90082324Y-68070598D01*
X90082322Y-68070597D01*
X89919919Y-67998291D01*
X89919918Y-67998291D01*
X89913888Y-67995606D01*
X89820488Y-67975753D01*
X89733544Y-67957272D01*
X89733539Y-67957272D01*
X89727087Y-67955900D01*
X89536113Y-67955900D01*
X89529661Y-67957272D01*
X89529656Y-67957272D01*
X89442712Y-67975753D01*
X89349312Y-67995606D01*
X89343282Y-67998291D01*
X89343281Y-67998291D01*
X89180878Y-68070597D01*
X89180876Y-68070598D01*
X89174848Y-68073282D01*
X89020347Y-68185534D01*
X88892560Y-68327456D01*
X88797073Y-68492844D01*
X88738058Y-68674472D01*
X88737368Y-68681033D01*
X88737368Y-68681035D01*
X88728565Y-68764794D01*
X88718096Y-68864400D01*
X82296500Y-68864400D01*
X82296500Y-67945000D01*
X86335496Y-67945000D01*
X86336186Y-67951565D01*
X86350824Y-68090834D01*
X86355458Y-68134928D01*
X86414473Y-68316556D01*
X86509960Y-68481944D01*
X86514378Y-68486851D01*
X86514379Y-68486852D01*
X86563255Y-68541134D01*
X86637747Y-68623866D01*
X86792248Y-68736118D01*
X86798276Y-68738802D01*
X86798278Y-68738803D01*
X86870756Y-68771072D01*
X86966712Y-68813794D01*
X87060113Y-68833647D01*
X87147056Y-68852128D01*
X87147061Y-68852128D01*
X87153513Y-68853500D01*
X87344487Y-68853500D01*
X87350939Y-68852128D01*
X87350944Y-68852128D01*
X87437887Y-68833647D01*
X87531288Y-68813794D01*
X87627244Y-68771072D01*
X87699722Y-68738803D01*
X87699724Y-68738802D01*
X87705752Y-68736118D01*
X87860253Y-68623866D01*
X87934745Y-68541134D01*
X87983621Y-68486852D01*
X87983622Y-68486851D01*
X87988040Y-68481944D01*
X88083527Y-68316556D01*
X88142542Y-68134928D01*
X88147177Y-68090834D01*
X88161814Y-67951565D01*
X88162504Y-67945000D01*
X88142542Y-67755072D01*
X88083527Y-67573444D01*
X87988040Y-67408056D01*
X87860253Y-67266134D01*
X87705752Y-67153882D01*
X87699724Y-67151198D01*
X87699722Y-67151197D01*
X87537319Y-67078891D01*
X87537318Y-67078891D01*
X87531288Y-67076206D01*
X87437887Y-67056353D01*
X87350944Y-67037872D01*
X87350939Y-67037872D01*
X87344487Y-67036500D01*
X87153513Y-67036500D01*
X87147061Y-67037872D01*
X87147056Y-67037872D01*
X87060113Y-67056353D01*
X86966712Y-67076206D01*
X86960682Y-67078891D01*
X86960681Y-67078891D01*
X86798278Y-67151197D01*
X86798276Y-67151198D01*
X86792248Y-67153882D01*
X86637747Y-67266134D01*
X86509960Y-67408056D01*
X86414473Y-67573444D01*
X86355458Y-67755072D01*
X86335496Y-67945000D01*
X82296500Y-67945000D01*
X82296500Y-64902000D01*
X108174496Y-64902000D01*
X108194458Y-65091928D01*
X108253473Y-65273556D01*
X108348960Y-65438944D01*
X108476747Y-65580866D01*
X108631248Y-65693118D01*
X108637276Y-65695802D01*
X108637278Y-65695803D01*
X108799681Y-65768109D01*
X108805712Y-65770794D01*
X108899112Y-65790647D01*
X108986056Y-65809128D01*
X108986061Y-65809128D01*
X108992513Y-65810500D01*
X109183487Y-65810500D01*
X109189939Y-65809128D01*
X109189944Y-65809128D01*
X109276888Y-65790647D01*
X109370288Y-65770794D01*
X109376319Y-65768109D01*
X109538722Y-65695803D01*
X109538724Y-65695802D01*
X109544752Y-65693118D01*
X109699253Y-65580866D01*
X109827040Y-65438944D01*
X109922527Y-65273556D01*
X109981542Y-65091928D01*
X110001504Y-64902000D01*
X109981542Y-64712072D01*
X109922527Y-64530444D01*
X109827040Y-64365056D01*
X109699253Y-64223134D01*
X109544752Y-64110882D01*
X109538724Y-64108198D01*
X109538722Y-64108197D01*
X109376319Y-64035891D01*
X109376318Y-64035891D01*
X109370288Y-64033206D01*
X109363832Y-64031834D01*
X109361983Y-64031233D01*
X109303378Y-63991159D01*
X109275741Y-63925762D01*
X109287848Y-63855805D01*
X109335855Y-63803500D01*
X109361983Y-63791567D01*
X109363832Y-63790966D01*
X109370288Y-63789594D01*
X109376319Y-63786909D01*
X109538722Y-63714603D01*
X109538724Y-63714602D01*
X109544752Y-63711918D01*
X109699253Y-63599666D01*
X109827040Y-63457744D01*
X109922527Y-63292356D01*
X109981542Y-63110728D01*
X110001504Y-62920800D01*
X109981542Y-62730872D01*
X109922527Y-62549244D01*
X109827040Y-62383856D01*
X109768921Y-62319309D01*
X109738205Y-62255302D01*
X109746970Y-62184849D01*
X109768921Y-62150692D01*
X109827040Y-62086144D01*
X109922527Y-61920756D01*
X109981542Y-61739128D01*
X110001504Y-61549200D01*
X109981542Y-61359272D01*
X109922527Y-61177644D01*
X109827040Y-61012256D01*
X109699253Y-60870334D01*
X109544752Y-60758082D01*
X109538724Y-60755398D01*
X109538722Y-60755397D01*
X109376319Y-60683091D01*
X109376318Y-60683091D01*
X109370288Y-60680406D01*
X109276887Y-60660553D01*
X109189944Y-60642072D01*
X109189939Y-60642072D01*
X109183487Y-60640700D01*
X108992513Y-60640700D01*
X108986061Y-60642072D01*
X108986056Y-60642072D01*
X108899113Y-60660553D01*
X108805712Y-60680406D01*
X108799682Y-60683091D01*
X108799681Y-60683091D01*
X108637278Y-60755397D01*
X108637276Y-60755398D01*
X108631248Y-60758082D01*
X108476747Y-60870334D01*
X108348960Y-61012256D01*
X108253473Y-61177644D01*
X108194458Y-61359272D01*
X108174496Y-61549200D01*
X108194458Y-61739128D01*
X108253473Y-61920756D01*
X108348960Y-62086144D01*
X108407079Y-62150691D01*
X108437795Y-62214698D01*
X108429030Y-62285151D01*
X108407079Y-62319308D01*
X108348960Y-62383856D01*
X108253473Y-62549244D01*
X108194458Y-62730872D01*
X108174496Y-62920800D01*
X108194458Y-63110728D01*
X108253473Y-63292356D01*
X108348960Y-63457744D01*
X108476747Y-63599666D01*
X108631248Y-63711918D01*
X108637276Y-63714602D01*
X108637278Y-63714603D01*
X108799681Y-63786909D01*
X108805712Y-63789594D01*
X108812168Y-63790966D01*
X108814017Y-63791567D01*
X108872622Y-63831641D01*
X108900259Y-63897038D01*
X108888152Y-63966995D01*
X108840145Y-64019300D01*
X108814017Y-64031233D01*
X108812168Y-64031834D01*
X108805712Y-64033206D01*
X108799682Y-64035891D01*
X108799681Y-64035891D01*
X108637278Y-64108197D01*
X108637276Y-64108198D01*
X108631248Y-64110882D01*
X108476747Y-64223134D01*
X108348960Y-64365056D01*
X108253473Y-64530444D01*
X108194458Y-64712072D01*
X108174496Y-64902000D01*
X82296500Y-64902000D01*
X82296500Y-59888800D01*
X100538496Y-59888800D01*
X100558458Y-60078728D01*
X100617473Y-60260356D01*
X100712960Y-60425744D01*
X100840747Y-60567666D01*
X100995248Y-60679918D01*
X101001276Y-60682602D01*
X101001278Y-60682603D01*
X101163681Y-60754909D01*
X101169712Y-60757594D01*
X101263112Y-60777447D01*
X101350056Y-60795928D01*
X101350061Y-60795928D01*
X101356513Y-60797300D01*
X101547487Y-60797300D01*
X101553939Y-60795928D01*
X101553944Y-60795928D01*
X101640888Y-60777447D01*
X101734288Y-60757594D01*
X101740319Y-60754909D01*
X101902722Y-60682603D01*
X101902724Y-60682602D01*
X101908752Y-60679918D01*
X102063253Y-60567666D01*
X102191040Y-60425744D01*
X102286527Y-60260356D01*
X102345542Y-60078728D01*
X102365504Y-59888800D01*
X102345542Y-59698872D01*
X102286527Y-59517244D01*
X102280981Y-59507637D01*
X102194341Y-59357574D01*
X102191040Y-59351856D01*
X102063253Y-59209934D01*
X101908752Y-59097682D01*
X101902724Y-59094998D01*
X101902722Y-59094997D01*
X101740319Y-59022691D01*
X101740318Y-59022691D01*
X101734288Y-59020006D01*
X101640888Y-59000153D01*
X101553944Y-58981672D01*
X101553939Y-58981672D01*
X101547487Y-58980300D01*
X101356513Y-58980300D01*
X101350061Y-58981672D01*
X101350056Y-58981672D01*
X101263112Y-59000153D01*
X101169712Y-59020006D01*
X101163682Y-59022691D01*
X101163681Y-59022691D01*
X101001278Y-59094997D01*
X101001276Y-59094998D01*
X100995248Y-59097682D01*
X100840747Y-59209934D01*
X100712960Y-59351856D01*
X100709659Y-59357574D01*
X100623020Y-59507637D01*
X100617473Y-59517244D01*
X100558458Y-59698872D01*
X100538496Y-59888800D01*
X82296500Y-59888800D01*
X82296500Y-58720400D01*
X103450096Y-58720400D01*
X103470058Y-58910328D01*
X103529073Y-59091956D01*
X103532376Y-59097678D01*
X103532377Y-59097679D01*
X103566286Y-59156410D01*
X103624560Y-59257344D01*
X103752347Y-59399266D01*
X103906848Y-59511518D01*
X103912876Y-59514202D01*
X103912878Y-59514203D01*
X103933825Y-59523529D01*
X104081312Y-59589194D01*
X104174713Y-59609047D01*
X104261656Y-59627528D01*
X104261661Y-59627528D01*
X104268113Y-59628900D01*
X104459087Y-59628900D01*
X104465539Y-59627528D01*
X104465544Y-59627528D01*
X104552487Y-59609047D01*
X104645888Y-59589194D01*
X104793375Y-59523529D01*
X104814322Y-59514203D01*
X104814324Y-59514202D01*
X104820352Y-59511518D01*
X104974853Y-59399266D01*
X105102640Y-59257344D01*
X105160914Y-59156410D01*
X105194823Y-59097679D01*
X105194824Y-59097678D01*
X105198127Y-59091956D01*
X105257142Y-58910328D01*
X105277104Y-58720400D01*
X105257142Y-58530472D01*
X105198127Y-58348844D01*
X105102640Y-58183456D01*
X104974853Y-58041534D01*
X104820352Y-57929282D01*
X104814324Y-57926598D01*
X104814322Y-57926597D01*
X104651919Y-57854291D01*
X104651918Y-57854291D01*
X104645888Y-57851606D01*
X104552488Y-57831753D01*
X104465544Y-57813272D01*
X104465539Y-57813272D01*
X104459087Y-57811900D01*
X104268113Y-57811900D01*
X104261661Y-57813272D01*
X104261656Y-57813272D01*
X104174712Y-57831753D01*
X104081312Y-57851606D01*
X104075282Y-57854291D01*
X104075281Y-57854291D01*
X103912878Y-57926597D01*
X103912876Y-57926598D01*
X103906848Y-57929282D01*
X103752347Y-58041534D01*
X103624560Y-58183456D01*
X103529073Y-58348844D01*
X103470058Y-58530472D01*
X103450096Y-58720400D01*
X82296500Y-58720400D01*
X82296500Y-53721000D01*
X102337496Y-53721000D01*
X102357458Y-53910928D01*
X102416473Y-54092556D01*
X102419776Y-54098278D01*
X102419777Y-54098279D01*
X102437898Y-54129665D01*
X102511960Y-54257944D01*
X102516378Y-54262851D01*
X102516379Y-54262852D01*
X102629668Y-54388672D01*
X102639747Y-54399866D01*
X102682076Y-54430620D01*
X102780318Y-54501997D01*
X102794248Y-54512118D01*
X102800276Y-54514802D01*
X102800278Y-54514803D01*
X102962681Y-54587109D01*
X102968712Y-54589794D01*
X103062112Y-54609647D01*
X103149056Y-54628128D01*
X103149061Y-54628128D01*
X103155513Y-54629500D01*
X103346487Y-54629500D01*
X103352939Y-54628128D01*
X103352944Y-54628128D01*
X103439888Y-54609647D01*
X103533288Y-54589794D01*
X103539319Y-54587109D01*
X103701722Y-54514803D01*
X103701724Y-54514802D01*
X103707752Y-54512118D01*
X103721683Y-54501997D01*
X103819924Y-54430620D01*
X103862253Y-54399866D01*
X103872332Y-54388672D01*
X103985621Y-54262852D01*
X103985622Y-54262851D01*
X103990040Y-54257944D01*
X104064102Y-54129665D01*
X104082223Y-54098279D01*
X104082224Y-54098278D01*
X104085527Y-54092556D01*
X104144542Y-53910928D01*
X104164504Y-53721000D01*
X104979096Y-53721000D01*
X104999058Y-53910928D01*
X105058073Y-54092556D01*
X105061376Y-54098278D01*
X105061377Y-54098279D01*
X105079498Y-54129665D01*
X105153560Y-54257944D01*
X105157978Y-54262851D01*
X105157979Y-54262852D01*
X105271268Y-54388672D01*
X105281347Y-54399866D01*
X105323676Y-54430620D01*
X105421918Y-54501997D01*
X105435848Y-54512118D01*
X105441876Y-54514802D01*
X105441878Y-54514803D01*
X105604281Y-54587109D01*
X105610312Y-54589794D01*
X105703712Y-54609647D01*
X105790656Y-54628128D01*
X105790661Y-54628128D01*
X105797113Y-54629500D01*
X105988087Y-54629500D01*
X105994539Y-54628128D01*
X105994544Y-54628128D01*
X106081488Y-54609647D01*
X106174888Y-54589794D01*
X106180919Y-54587109D01*
X106343322Y-54514803D01*
X106343324Y-54514802D01*
X106349352Y-54512118D01*
X106359587Y-54504682D01*
X106450819Y-54438398D01*
X106517687Y-54414539D01*
X106586838Y-54430620D01*
X106636319Y-54481534D01*
X106650418Y-54551117D01*
X106634000Y-54603331D01*
X106612573Y-54640444D01*
X106553558Y-54822072D01*
X106533596Y-55012000D01*
X106553558Y-55201928D01*
X106612573Y-55383556D01*
X106708060Y-55548944D01*
X106712478Y-55553851D01*
X106712479Y-55553852D01*
X106831425Y-55685955D01*
X106835847Y-55690866D01*
X106990348Y-55803118D01*
X106996376Y-55805802D01*
X106996378Y-55805803D01*
X107158781Y-55878109D01*
X107164812Y-55880794D01*
X107258212Y-55900647D01*
X107345156Y-55919128D01*
X107345161Y-55919128D01*
X107351613Y-55920500D01*
X107542587Y-55920500D01*
X107549039Y-55919128D01*
X107549044Y-55919128D01*
X107635987Y-55900647D01*
X107729388Y-55880794D01*
X107735419Y-55878109D01*
X107897822Y-55805803D01*
X107897824Y-55805802D01*
X107903852Y-55803118D01*
X108058353Y-55690866D01*
X108062775Y-55685955D01*
X108181721Y-55553852D01*
X108181722Y-55553851D01*
X108186140Y-55548944D01*
X108281627Y-55383556D01*
X108310141Y-55295800D01*
X108890696Y-55295800D01*
X108910658Y-55485728D01*
X108969673Y-55667356D01*
X108972976Y-55673078D01*
X108972977Y-55673079D01*
X108985488Y-55694749D01*
X109065160Y-55832744D01*
X109192947Y-55974666D01*
X109347448Y-56086918D01*
X109353476Y-56089602D01*
X109353478Y-56089603D01*
X109515881Y-56161909D01*
X109521912Y-56164594D01*
X109615312Y-56184447D01*
X109702256Y-56202928D01*
X109702261Y-56202928D01*
X109708713Y-56204300D01*
X109899687Y-56204300D01*
X109906139Y-56202928D01*
X109906144Y-56202928D01*
X109993087Y-56184447D01*
X110086488Y-56164594D01*
X110092519Y-56161909D01*
X110254922Y-56089603D01*
X110254924Y-56089602D01*
X110260952Y-56086918D01*
X110415453Y-55974666D01*
X110543240Y-55832744D01*
X110622912Y-55694749D01*
X110635423Y-55673079D01*
X110635424Y-55673078D01*
X110638727Y-55667356D01*
X110697742Y-55485728D01*
X110717704Y-55295800D01*
X110697742Y-55105872D01*
X110638727Y-54924244D01*
X110543240Y-54758856D01*
X110436622Y-54640444D01*
X110419875Y-54621845D01*
X110419874Y-54621844D01*
X110415453Y-54616934D01*
X110316357Y-54544936D01*
X110266294Y-54508563D01*
X110266293Y-54508562D01*
X110260952Y-54504682D01*
X110254924Y-54501998D01*
X110254922Y-54501997D01*
X110092519Y-54429691D01*
X110092518Y-54429691D01*
X110086488Y-54427006D01*
X109977073Y-54403749D01*
X109906144Y-54388672D01*
X109906139Y-54388672D01*
X109899687Y-54387300D01*
X109708713Y-54387300D01*
X109702261Y-54388672D01*
X109702256Y-54388672D01*
X109631327Y-54403749D01*
X109521912Y-54427006D01*
X109515882Y-54429691D01*
X109515881Y-54429691D01*
X109353478Y-54501997D01*
X109353476Y-54501998D01*
X109347448Y-54504682D01*
X109342107Y-54508562D01*
X109342106Y-54508563D01*
X109292043Y-54544936D01*
X109192947Y-54616934D01*
X109188526Y-54621844D01*
X109188525Y-54621845D01*
X109171779Y-54640444D01*
X109065160Y-54758856D01*
X108969673Y-54924244D01*
X108910658Y-55105872D01*
X108890696Y-55295800D01*
X108310141Y-55295800D01*
X108340642Y-55201928D01*
X108360604Y-55012000D01*
X108340642Y-54822072D01*
X108281627Y-54640444D01*
X108275309Y-54629500D01*
X108205297Y-54508237D01*
X108186140Y-54475056D01*
X108058353Y-54333134D01*
X107903852Y-54220882D01*
X107897824Y-54218198D01*
X107897822Y-54218197D01*
X107735419Y-54145891D01*
X107735418Y-54145891D01*
X107729388Y-54143206D01*
X107635987Y-54123353D01*
X107549044Y-54104872D01*
X107549039Y-54104872D01*
X107542587Y-54103500D01*
X107351613Y-54103500D01*
X107345161Y-54104872D01*
X107345156Y-54104872D01*
X107258213Y-54123353D01*
X107164812Y-54143206D01*
X107158782Y-54145891D01*
X107158781Y-54145891D01*
X106996378Y-54218197D01*
X106996376Y-54218198D01*
X106990348Y-54220882D01*
X106985007Y-54224762D01*
X106985006Y-54224763D01*
X106888881Y-54294602D01*
X106822013Y-54318461D01*
X106752862Y-54302380D01*
X106703381Y-54251466D01*
X106689282Y-54181883D01*
X106705700Y-54129669D01*
X106727127Y-54092556D01*
X106786142Y-53910928D01*
X106806104Y-53721000D01*
X106786142Y-53531072D01*
X106727127Y-53349444D01*
X106631640Y-53184056D01*
X106503853Y-53042134D01*
X106349352Y-52929882D01*
X106343324Y-52927198D01*
X106343322Y-52927197D01*
X106180919Y-52854891D01*
X106180918Y-52854891D01*
X106174888Y-52852206D01*
X106081487Y-52832353D01*
X105994544Y-52813872D01*
X105994539Y-52813872D01*
X105988087Y-52812500D01*
X105797113Y-52812500D01*
X105790661Y-52813872D01*
X105790656Y-52813872D01*
X105703712Y-52832353D01*
X105610312Y-52852206D01*
X105604282Y-52854891D01*
X105604281Y-52854891D01*
X105441878Y-52927197D01*
X105441876Y-52927198D01*
X105435848Y-52929882D01*
X105281347Y-53042134D01*
X105153560Y-53184056D01*
X105058073Y-53349444D01*
X104999058Y-53531072D01*
X104979096Y-53721000D01*
X104164504Y-53721000D01*
X104144542Y-53531072D01*
X104085527Y-53349444D01*
X103990040Y-53184056D01*
X103862253Y-53042134D01*
X103707752Y-52929882D01*
X103701724Y-52927198D01*
X103701722Y-52927197D01*
X103539319Y-52854891D01*
X103539318Y-52854891D01*
X103533288Y-52852206D01*
X103439887Y-52832353D01*
X103352944Y-52813872D01*
X103352939Y-52813872D01*
X103346487Y-52812500D01*
X103155513Y-52812500D01*
X103149061Y-52813872D01*
X103149056Y-52813872D01*
X103062112Y-52832353D01*
X102968712Y-52852206D01*
X102962682Y-52854891D01*
X102962681Y-52854891D01*
X102800278Y-52927197D01*
X102800276Y-52927198D01*
X102794248Y-52929882D01*
X102639747Y-53042134D01*
X102511960Y-53184056D01*
X102416473Y-53349444D01*
X102357458Y-53531072D01*
X102337496Y-53721000D01*
X82296500Y-53721000D01*
X82296500Y-51859657D01*
X99320000Y-51859657D01*
X99320301Y-51865805D01*
X99333812Y-52003603D01*
X99336195Y-52015638D01*
X99389767Y-52193076D01*
X99394441Y-52204416D01*
X99481460Y-52368077D01*
X99488249Y-52378294D01*
X99605397Y-52521933D01*
X99614041Y-52530637D01*
X99756856Y-52648784D01*
X99767027Y-52655644D01*
X99930076Y-52743804D01*
X99941381Y-52748556D01*
X100056692Y-52784250D01*
X100070795Y-52784456D01*
X100074000Y-52777701D01*
X100074000Y-52770924D01*
X100582000Y-52770924D01*
X100585973Y-52784455D01*
X100593768Y-52785575D01*
X100701521Y-52753862D01*
X100712889Y-52749269D01*
X100877154Y-52663393D01*
X100887415Y-52656679D01*
X101031873Y-52540532D01*
X101040632Y-52531954D01*
X101159778Y-52389961D01*
X101166708Y-52379841D01*
X101256002Y-52217415D01*
X101260834Y-52206142D01*
X101316880Y-52029462D01*
X101319430Y-52017468D01*
X101335607Y-51873239D01*
X101336000Y-51866215D01*
X101336000Y-51650026D01*
X101356002Y-51581905D01*
X101409658Y-51535412D01*
X101479932Y-51525308D01*
X101489486Y-51527061D01*
X101659494Y-51565062D01*
X101659501Y-51565063D01*
X101664543Y-51566190D01*
X101670088Y-51566500D01*
X101803244Y-51566500D01*
X101938037Y-51551857D01*
X102056190Y-51512094D01*
X102103204Y-51496272D01*
X102103206Y-51496271D01*
X102109675Y-51494094D01*
X102264905Y-51400823D01*
X102269862Y-51396135D01*
X102269865Y-51396133D01*
X102391527Y-51281082D01*
X102391529Y-51281080D01*
X102396485Y-51276393D01*
X102400317Y-51270755D01*
X102400320Y-51270751D01*
X102494442Y-51132255D01*
X102498277Y-51126612D01*
X102565530Y-50958466D01*
X102566644Y-50951738D01*
X102566645Y-50951734D01*
X102593993Y-50786539D01*
X102593993Y-50786536D01*
X102595108Y-50779802D01*
X102590203Y-50686198D01*
X106700892Y-50686198D01*
X106701249Y-50693015D01*
X106701249Y-50693019D01*
X106706151Y-50786539D01*
X106710370Y-50867047D01*
X106712181Y-50873620D01*
X106712181Y-50873623D01*
X106745738Y-50995452D01*
X106758461Y-51041641D01*
X106842922Y-51201836D01*
X106847327Y-51207049D01*
X106847330Y-51207053D01*
X106955406Y-51334943D01*
X106955410Y-51334947D01*
X106959813Y-51340157D01*
X106965237Y-51344304D01*
X106965238Y-51344305D01*
X107098257Y-51446006D01*
X107098261Y-51446009D01*
X107103678Y-51450150D01*
X107190372Y-51490576D01*
X107261631Y-51523805D01*
X107261634Y-51523806D01*
X107267808Y-51526685D01*
X107274456Y-51528171D01*
X107274459Y-51528172D01*
X107370686Y-51549681D01*
X107444543Y-51566190D01*
X107450088Y-51566500D01*
X107583244Y-51566500D01*
X107718037Y-51551857D01*
X107724501Y-51549682D01*
X107724504Y-51549681D01*
X107791716Y-51527061D01*
X107793811Y-51526356D01*
X107864753Y-51523586D01*
X107925932Y-51559609D01*
X107957923Y-51622990D01*
X107960000Y-51645775D01*
X107960000Y-51859657D01*
X107960301Y-51865805D01*
X107973812Y-52003603D01*
X107976195Y-52015638D01*
X108029767Y-52193076D01*
X108034441Y-52204416D01*
X108121460Y-52368077D01*
X108128249Y-52378294D01*
X108245397Y-52521933D01*
X108254041Y-52530637D01*
X108396856Y-52648784D01*
X108407027Y-52655644D01*
X108570076Y-52743804D01*
X108581381Y-52748556D01*
X108696692Y-52784250D01*
X108710795Y-52784456D01*
X108714000Y-52777701D01*
X108714000Y-52770924D01*
X109222000Y-52770924D01*
X109225973Y-52784455D01*
X109233768Y-52785575D01*
X109341521Y-52753862D01*
X109352889Y-52749269D01*
X109517154Y-52663393D01*
X109527415Y-52656679D01*
X109671873Y-52540532D01*
X109680632Y-52531954D01*
X109799778Y-52389961D01*
X109806708Y-52379841D01*
X109896002Y-52217415D01*
X109900834Y-52206142D01*
X109956880Y-52029462D01*
X109959430Y-52017468D01*
X109975607Y-51873239D01*
X109976000Y-51866215D01*
X109976000Y-51535115D01*
X109971525Y-51519876D01*
X109970135Y-51518671D01*
X109962452Y-51517000D01*
X109240115Y-51517000D01*
X109224876Y-51521475D01*
X109223671Y-51522865D01*
X109222000Y-51530548D01*
X109222000Y-52770924D01*
X108714000Y-52770924D01*
X108714000Y-50990885D01*
X109222000Y-50990885D01*
X109226475Y-51006124D01*
X109227865Y-51007329D01*
X109235548Y-51009000D01*
X109957885Y-51009000D01*
X109973124Y-51004525D01*
X109974329Y-51003135D01*
X109976000Y-50995452D01*
X109976000Y-50666343D01*
X109975699Y-50660195D01*
X109962188Y-50522397D01*
X109959805Y-50510362D01*
X109906233Y-50332924D01*
X109901559Y-50321584D01*
X109814540Y-50157923D01*
X109807751Y-50147706D01*
X109690603Y-50004067D01*
X109681959Y-49995363D01*
X109539144Y-49877216D01*
X109528973Y-49870356D01*
X109365924Y-49782196D01*
X109354619Y-49777444D01*
X109239308Y-49741750D01*
X109225205Y-49741544D01*
X109222000Y-49748299D01*
X109222000Y-50990885D01*
X108714000Y-50990885D01*
X108714000Y-49755076D01*
X108710027Y-49741545D01*
X108702232Y-49740425D01*
X108594479Y-49772138D01*
X108583111Y-49776731D01*
X108418846Y-49862607D01*
X108408585Y-49869321D01*
X108264127Y-49985468D01*
X108255368Y-49994046D01*
X108211000Y-50046921D01*
X108151890Y-50086248D01*
X108080902Y-50087374D01*
X108037952Y-50066028D01*
X107972322Y-50015850D01*
X107867186Y-49966825D01*
X107814369Y-49942195D01*
X107814366Y-49942194D01*
X107808192Y-49939315D01*
X107801544Y-49937829D01*
X107801541Y-49937828D01*
X107653213Y-49904673D01*
X107631457Y-49899810D01*
X107625912Y-49899500D01*
X107492756Y-49899500D01*
X107357963Y-49914143D01*
X107274609Y-49942195D01*
X107192796Y-49969728D01*
X107192794Y-49969729D01*
X107186325Y-49971906D01*
X107031095Y-50065177D01*
X107026138Y-50069865D01*
X107026135Y-50069867D01*
X106905036Y-50184386D01*
X106899515Y-50189607D01*
X106895683Y-50195245D01*
X106895680Y-50195249D01*
X106844740Y-50270205D01*
X106797723Y-50339388D01*
X106730470Y-50507534D01*
X106729356Y-50514262D01*
X106729355Y-50514266D01*
X106704179Y-50666343D01*
X106700892Y-50686198D01*
X102590203Y-50686198D01*
X102585987Y-50605766D01*
X102585630Y-50598953D01*
X102562304Y-50514266D01*
X102539352Y-50430941D01*
X102537539Y-50424359D01*
X102453078Y-50264164D01*
X102448673Y-50258951D01*
X102448670Y-50258947D01*
X102340594Y-50131057D01*
X102340590Y-50131053D01*
X102336187Y-50125843D01*
X102296270Y-50095324D01*
X102197743Y-50019994D01*
X102197739Y-50019991D01*
X102192322Y-50015850D01*
X102087186Y-49966825D01*
X102034369Y-49942195D01*
X102034366Y-49942194D01*
X102028192Y-49939315D01*
X102021544Y-49937829D01*
X102021541Y-49937828D01*
X101873213Y-49904673D01*
X101851457Y-49899810D01*
X101845912Y-49899500D01*
X101712756Y-49899500D01*
X101577963Y-49914143D01*
X101494609Y-49942195D01*
X101412796Y-49969728D01*
X101412794Y-49969729D01*
X101406325Y-49971906D01*
X101254349Y-50063222D01*
X101254346Y-50063223D01*
X101251095Y-50065177D01*
X101250745Y-50064594D01*
X101189083Y-50088065D01*
X101119609Y-50073439D01*
X101081609Y-50042085D01*
X101050603Y-50004067D01*
X101041959Y-49995363D01*
X100899144Y-49877216D01*
X100888973Y-49870356D01*
X100725924Y-49782196D01*
X100714619Y-49777444D01*
X100599308Y-49741750D01*
X100585205Y-49741544D01*
X100582000Y-49748299D01*
X100582000Y-52770924D01*
X100074000Y-52770924D01*
X100074000Y-51535115D01*
X100069525Y-51519876D01*
X100068135Y-51518671D01*
X100060452Y-51517000D01*
X99338115Y-51517000D01*
X99322876Y-51521475D01*
X99321671Y-51522865D01*
X99320000Y-51530548D01*
X99320000Y-51859657D01*
X82296500Y-51859657D01*
X82296500Y-50990885D01*
X99320000Y-50990885D01*
X99324475Y-51006124D01*
X99325865Y-51007329D01*
X99333548Y-51009000D01*
X100055885Y-51009000D01*
X100071124Y-51004525D01*
X100072329Y-51003135D01*
X100074000Y-50995452D01*
X100074000Y-49755076D01*
X100070027Y-49741545D01*
X100062232Y-49740425D01*
X99954479Y-49772138D01*
X99943111Y-49776731D01*
X99778846Y-49862607D01*
X99768585Y-49869321D01*
X99624127Y-49985468D01*
X99615368Y-49994046D01*
X99496222Y-50136039D01*
X99489292Y-50146159D01*
X99399998Y-50308585D01*
X99395166Y-50319858D01*
X99339120Y-50496538D01*
X99336570Y-50508532D01*
X99320393Y-50652761D01*
X99320000Y-50659785D01*
X99320000Y-50990885D01*
X82296500Y-50990885D01*
X82296500Y-49784269D01*
X84474001Y-49784269D01*
X84474371Y-49791090D01*
X84479895Y-49841952D01*
X84483521Y-49857204D01*
X84528676Y-49977654D01*
X84537214Y-49993249D01*
X84613715Y-50095324D01*
X84626276Y-50107885D01*
X84728351Y-50184386D01*
X84743946Y-50192924D01*
X84864394Y-50238078D01*
X84879649Y-50241705D01*
X84930514Y-50247231D01*
X84937328Y-50247600D01*
X86209885Y-50247600D01*
X86225124Y-50243125D01*
X86226329Y-50241735D01*
X86228000Y-50234052D01*
X86228000Y-50229484D01*
X86736000Y-50229484D01*
X86740475Y-50244723D01*
X86741865Y-50245928D01*
X86749548Y-50247599D01*
X88026669Y-50247599D01*
X88033490Y-50247229D01*
X88084352Y-50241705D01*
X88099604Y-50238079D01*
X88220054Y-50192924D01*
X88235649Y-50184386D01*
X88337724Y-50107885D01*
X88350285Y-50095324D01*
X88426786Y-49993249D01*
X88435324Y-49977654D01*
X88480478Y-49857206D01*
X88484105Y-49841951D01*
X88489631Y-49791086D01*
X88490000Y-49784272D01*
X88490000Y-48511715D01*
X88485525Y-48496476D01*
X88484135Y-48495271D01*
X88476452Y-48493600D01*
X86754115Y-48493600D01*
X86738876Y-48498075D01*
X86737671Y-48499465D01*
X86736000Y-48507148D01*
X86736000Y-50229484D01*
X86228000Y-50229484D01*
X86228000Y-48511715D01*
X86223525Y-48496476D01*
X86222135Y-48495271D01*
X86214452Y-48493600D01*
X84492116Y-48493600D01*
X84476877Y-48498075D01*
X84475672Y-48499465D01*
X84474001Y-48507148D01*
X84474001Y-49784269D01*
X82296500Y-49784269D01*
X82296500Y-48218518D01*
X89548917Y-48218518D01*
X89564682Y-48491920D01*
X89565507Y-48496125D01*
X89565508Y-48496133D01*
X89576127Y-48550257D01*
X89617405Y-48760653D01*
X89618792Y-48764703D01*
X89618793Y-48764708D01*
X89639605Y-48825495D01*
X89706112Y-49019744D01*
X89829160Y-49264399D01*
X89831586Y-49267928D01*
X89831589Y-49267934D01*
X89981843Y-49486553D01*
X89984274Y-49490090D01*
X90168582Y-49692643D01*
X90171877Y-49695398D01*
X90171878Y-49695399D01*
X90269151Y-49776731D01*
X90378675Y-49868307D01*
X90382316Y-49870591D01*
X90607024Y-50011551D01*
X90607028Y-50011553D01*
X90610664Y-50013834D01*
X90716584Y-50061659D01*
X90856345Y-50124764D01*
X90856349Y-50124766D01*
X90860257Y-50126530D01*
X90864377Y-50127750D01*
X90864376Y-50127750D01*
X91118723Y-50203091D01*
X91118727Y-50203092D01*
X91122836Y-50204309D01*
X91127070Y-50204957D01*
X91127075Y-50204958D01*
X91389298Y-50245083D01*
X91389300Y-50245083D01*
X91393540Y-50245732D01*
X91532912Y-50247922D01*
X91663071Y-50249967D01*
X91663077Y-50249967D01*
X91667362Y-50250034D01*
X91939235Y-50217134D01*
X92204127Y-50147641D01*
X92208087Y-50146001D01*
X92208092Y-50145999D01*
X92383266Y-50073439D01*
X92457136Y-50042841D01*
X92693582Y-49904673D01*
X92909089Y-49735694D01*
X92950809Y-49692643D01*
X93096686Y-49542109D01*
X93099669Y-49539031D01*
X93102202Y-49535583D01*
X93102206Y-49535578D01*
X93259257Y-49321778D01*
X93261795Y-49318323D01*
X93289154Y-49267934D01*
X93390418Y-49081430D01*
X93390419Y-49081428D01*
X93392468Y-49077654D01*
X93489269Y-48821477D01*
X93550407Y-48554533D01*
X93554229Y-48511715D01*
X93574531Y-48284227D01*
X93574531Y-48284225D01*
X93574751Y-48281761D01*
X93575193Y-48239600D01*
X93566394Y-48110532D01*
X93556859Y-47970655D01*
X93556858Y-47970649D01*
X93556567Y-47966378D01*
X93501032Y-47698212D01*
X93409617Y-47440065D01*
X93404245Y-47429657D01*
X99320000Y-47429657D01*
X99320301Y-47435805D01*
X99333812Y-47573603D01*
X99336195Y-47585638D01*
X99389767Y-47763076D01*
X99394441Y-47774416D01*
X99481460Y-47938077D01*
X99488249Y-47948294D01*
X99605397Y-48091933D01*
X99614041Y-48100637D01*
X99756856Y-48218784D01*
X99767027Y-48225644D01*
X99930076Y-48313804D01*
X99941381Y-48318556D01*
X100056692Y-48354250D01*
X100070795Y-48354456D01*
X100074000Y-48347701D01*
X100074000Y-48340924D01*
X100582000Y-48340924D01*
X100585973Y-48354455D01*
X100593768Y-48355575D01*
X100701521Y-48323862D01*
X100712889Y-48319269D01*
X100877154Y-48233393D01*
X100887415Y-48226679D01*
X101031873Y-48110532D01*
X101040632Y-48101954D01*
X101159778Y-47959961D01*
X101166708Y-47949841D01*
X101256002Y-47787415D01*
X101260834Y-47776142D01*
X101316880Y-47599462D01*
X101319430Y-47587468D01*
X101335607Y-47443239D01*
X101336000Y-47436215D01*
X101336000Y-47429657D01*
X107960000Y-47429657D01*
X107960301Y-47435805D01*
X107973812Y-47573603D01*
X107976195Y-47585638D01*
X108029767Y-47763076D01*
X108034441Y-47774416D01*
X108121460Y-47938077D01*
X108128249Y-47948294D01*
X108245397Y-48091933D01*
X108254041Y-48100637D01*
X108396856Y-48218784D01*
X108407027Y-48225644D01*
X108570076Y-48313804D01*
X108581381Y-48318556D01*
X108696692Y-48354250D01*
X108710795Y-48354456D01*
X108714000Y-48347701D01*
X108714000Y-48340924D01*
X109222000Y-48340924D01*
X109225973Y-48354455D01*
X109233768Y-48355575D01*
X109341521Y-48323862D01*
X109352889Y-48319269D01*
X109517154Y-48233393D01*
X109527415Y-48226679D01*
X109671873Y-48110532D01*
X109680632Y-48101954D01*
X109799778Y-47959961D01*
X109806708Y-47949841D01*
X109896002Y-47787415D01*
X109900834Y-47776142D01*
X109956880Y-47599462D01*
X109959430Y-47587468D01*
X109975607Y-47443239D01*
X109976000Y-47436215D01*
X109976000Y-47355115D01*
X109971525Y-47339876D01*
X109970135Y-47338671D01*
X109962452Y-47337000D01*
X109240115Y-47337000D01*
X109224876Y-47341475D01*
X109223671Y-47342865D01*
X109222000Y-47350548D01*
X109222000Y-48340924D01*
X108714000Y-48340924D01*
X108714000Y-47355115D01*
X108709525Y-47339876D01*
X108708135Y-47338671D01*
X108700452Y-47337000D01*
X107978115Y-47337000D01*
X107962876Y-47341475D01*
X107961671Y-47342865D01*
X107960000Y-47350548D01*
X107960000Y-47429657D01*
X101336000Y-47429657D01*
X101336000Y-47355115D01*
X101331525Y-47339876D01*
X101330135Y-47338671D01*
X101322452Y-47337000D01*
X100600115Y-47337000D01*
X100584876Y-47341475D01*
X100583671Y-47342865D01*
X100582000Y-47350548D01*
X100582000Y-48340924D01*
X100074000Y-48340924D01*
X100074000Y-47355115D01*
X100069525Y-47339876D01*
X100068135Y-47338671D01*
X100060452Y-47337000D01*
X99338115Y-47337000D01*
X99322876Y-47341475D01*
X99321671Y-47342865D01*
X99320000Y-47350548D01*
X99320000Y-47429657D01*
X93404245Y-47429657D01*
X93284013Y-47196712D01*
X93274040Y-47182521D01*
X93129008Y-46976162D01*
X93126545Y-46972657D01*
X92990378Y-46826124D01*
X92976217Y-46810885D01*
X99320000Y-46810885D01*
X99324475Y-46826124D01*
X99325865Y-46827329D01*
X99333548Y-46829000D01*
X100055885Y-46829000D01*
X100071124Y-46824525D01*
X100072329Y-46823135D01*
X100074000Y-46815452D01*
X100074000Y-46810885D01*
X100582000Y-46810885D01*
X100586475Y-46826124D01*
X100587865Y-46827329D01*
X100595548Y-46829000D01*
X101317885Y-46829000D01*
X101333124Y-46824525D01*
X101334329Y-46823135D01*
X101336000Y-46815452D01*
X101336000Y-46810885D01*
X107960000Y-46810885D01*
X107964475Y-46826124D01*
X107965865Y-46827329D01*
X107973548Y-46829000D01*
X108695885Y-46829000D01*
X108711124Y-46824525D01*
X108712329Y-46823135D01*
X108714000Y-46815452D01*
X108714000Y-46810885D01*
X109222000Y-46810885D01*
X109226475Y-46826124D01*
X109227865Y-46827329D01*
X109235548Y-46829000D01*
X109957885Y-46829000D01*
X109973124Y-46824525D01*
X109974329Y-46823135D01*
X109976000Y-46815452D01*
X109976000Y-46736343D01*
X109975699Y-46730195D01*
X109962188Y-46592397D01*
X109959805Y-46580362D01*
X109906233Y-46402924D01*
X109901559Y-46391584D01*
X109814540Y-46227923D01*
X109807751Y-46217706D01*
X109690603Y-46074067D01*
X109681959Y-46065363D01*
X109539144Y-45947216D01*
X109528973Y-45940356D01*
X109365924Y-45852196D01*
X109354619Y-45847444D01*
X109239308Y-45811750D01*
X109225205Y-45811544D01*
X109222000Y-45818299D01*
X109222000Y-46810885D01*
X108714000Y-46810885D01*
X108714000Y-45825076D01*
X108710027Y-45811545D01*
X108702232Y-45810425D01*
X108594479Y-45842138D01*
X108583111Y-45846731D01*
X108418846Y-45932607D01*
X108408585Y-45939321D01*
X108264127Y-46055468D01*
X108255368Y-46064046D01*
X108136222Y-46206039D01*
X108129292Y-46216159D01*
X108039998Y-46378585D01*
X108035166Y-46389858D01*
X107979120Y-46566538D01*
X107976570Y-46578532D01*
X107960393Y-46722761D01*
X107960000Y-46729785D01*
X107960000Y-46810885D01*
X101336000Y-46810885D01*
X101336000Y-46736343D01*
X101335699Y-46730195D01*
X101322188Y-46592397D01*
X101319805Y-46580362D01*
X101266233Y-46402924D01*
X101261559Y-46391584D01*
X101174540Y-46227923D01*
X101167751Y-46217706D01*
X101050603Y-46074067D01*
X101041959Y-46065363D01*
X100899144Y-45947216D01*
X100888973Y-45940356D01*
X100725924Y-45852196D01*
X100714619Y-45847444D01*
X100599308Y-45811750D01*
X100585205Y-45811544D01*
X100582000Y-45818299D01*
X100582000Y-46810885D01*
X100074000Y-46810885D01*
X100074000Y-45825076D01*
X100070027Y-45811545D01*
X100062232Y-45810425D01*
X99954479Y-45842138D01*
X99943111Y-45846731D01*
X99778846Y-45932607D01*
X99768585Y-45939321D01*
X99624127Y-46055468D01*
X99615368Y-46064046D01*
X99496222Y-46206039D01*
X99489292Y-46216159D01*
X99399998Y-46378585D01*
X99395166Y-46389858D01*
X99339120Y-46566538D01*
X99336570Y-46578532D01*
X99320393Y-46722761D01*
X99320000Y-46729785D01*
X99320000Y-46810885D01*
X92976217Y-46810885D01*
X92943046Y-46775188D01*
X92943043Y-46775185D01*
X92940125Y-46772045D01*
X92936810Y-46769331D01*
X92936806Y-46769328D01*
X92731523Y-46601306D01*
X92728205Y-46598590D01*
X92494704Y-46455501D01*
X92490768Y-46453773D01*
X92247873Y-46347149D01*
X92247869Y-46347148D01*
X92243945Y-46345425D01*
X91980566Y-46270400D01*
X91976324Y-46269796D01*
X91976318Y-46269795D01*
X91749366Y-46237495D01*
X91709443Y-46231813D01*
X91565589Y-46231060D01*
X91439877Y-46230402D01*
X91439871Y-46230402D01*
X91435591Y-46230380D01*
X91431347Y-46230939D01*
X91431343Y-46230939D01*
X91323416Y-46245148D01*
X91164078Y-46266125D01*
X91159938Y-46267258D01*
X91159936Y-46267258D01*
X91090418Y-46286276D01*
X90899928Y-46338388D01*
X90895980Y-46340072D01*
X90651982Y-46444146D01*
X90651978Y-46444148D01*
X90648030Y-46445832D01*
X90628125Y-46457745D01*
X90416725Y-46584264D01*
X90416721Y-46584267D01*
X90413043Y-46586468D01*
X90199318Y-46757694D01*
X90010808Y-46956342D01*
X89851002Y-47178736D01*
X89722857Y-47420761D01*
X89721385Y-47424784D01*
X89721383Y-47424788D01*
X89714631Y-47443239D01*
X89628743Y-47677937D01*
X89570404Y-47945507D01*
X89548917Y-48218518D01*
X82296500Y-48218518D01*
X82296500Y-47967485D01*
X84474000Y-47967485D01*
X84478475Y-47982724D01*
X84479865Y-47983929D01*
X84487548Y-47985600D01*
X86209885Y-47985600D01*
X86225124Y-47981125D01*
X86226329Y-47979735D01*
X86228000Y-47972052D01*
X86228000Y-47967485D01*
X86736000Y-47967485D01*
X86740475Y-47982724D01*
X86741865Y-47983929D01*
X86749548Y-47985600D01*
X88471884Y-47985600D01*
X88487123Y-47981125D01*
X88488328Y-47979735D01*
X88489999Y-47972052D01*
X88489999Y-46694931D01*
X88489629Y-46688110D01*
X88484105Y-46637248D01*
X88480479Y-46621996D01*
X88435324Y-46501546D01*
X88426786Y-46485951D01*
X88350285Y-46383876D01*
X88337724Y-46371315D01*
X88235649Y-46294814D01*
X88220054Y-46286276D01*
X88099606Y-46241122D01*
X88084351Y-46237495D01*
X88033486Y-46231969D01*
X88026672Y-46231600D01*
X86754115Y-46231600D01*
X86738876Y-46236075D01*
X86737671Y-46237465D01*
X86736000Y-46245148D01*
X86736000Y-47967485D01*
X86228000Y-47967485D01*
X86228000Y-46249716D01*
X86223525Y-46234477D01*
X86222135Y-46233272D01*
X86214452Y-46231601D01*
X84937331Y-46231601D01*
X84930510Y-46231971D01*
X84879648Y-46237495D01*
X84864396Y-46241121D01*
X84743946Y-46286276D01*
X84728351Y-46294814D01*
X84626276Y-46371315D01*
X84613715Y-46383876D01*
X84537214Y-46485951D01*
X84528676Y-46501546D01*
X84483522Y-46621994D01*
X84479895Y-46637249D01*
X84474369Y-46688114D01*
X84474000Y-46694928D01*
X84474000Y-47967485D01*
X82296500Y-47967485D01*
X82296500Y-45741104D01*
X82296762Y-45732981D01*
X82299599Y-45689066D01*
X82300178Y-45680106D01*
X82298219Y-45671345D01*
X82297522Y-45662394D01*
X82297644Y-45662385D01*
X82296000Y-45647504D01*
X82296000Y-45445764D01*
X82297153Y-45428760D01*
X82317611Y-45278557D01*
X82321562Y-45260063D01*
X82322813Y-45255805D01*
X82373557Y-45082980D01*
X82380230Y-45065289D01*
X82458143Y-44897975D01*
X82467389Y-44881481D01*
X82495343Y-44839370D01*
X82569461Y-44727715D01*
X82581068Y-44712794D01*
X82705003Y-44576033D01*
X82718717Y-44563014D01*
X82861721Y-44446342D01*
X82877228Y-44435521D01*
X83036083Y-44341562D01*
X83053033Y-44333186D01*
X83224159Y-44264060D01*
X83242166Y-44258315D01*
X83421723Y-44215573D01*
X83440384Y-44212589D01*
X83592272Y-44199880D01*
X83609662Y-44200425D01*
X83609662Y-44200385D01*
X83618644Y-44200420D01*
X83627522Y-44201726D01*
X83636410Y-44200488D01*
X83636413Y-44200488D01*
X83656391Y-44197705D01*
X83673773Y-44196500D01*
X112409133Y-44196500D01*
X112428518Y-44198000D01*
G37*
%TD.AperFunction*%
%TD*%
M02*
