%TF.GenerationSoftware,KiCad,Pcbnew,(6.0.11-0)*%
%TF.CreationDate,2023-11-09T08:58:22+01:00*%
%TF.ProjectId,ZESP32,5a455350-3332-42e6-9b69-6361645f7063,rev?*%
%TF.SameCoordinates,Original*%
%TF.FileFunction,Drillmap*%
%TF.FilePolarity,Positive*%
%FSLAX45Y45*%
G04 Gerber Fmt 4.5, Leading zero omitted, Abs format (unit mm)*
G04 Created by KiCad (PCBNEW (6.0.11-0)) date 2023-11-09 08:58:22*
%MOMM*%
%LPD*%
G01*
G04 APERTURE LIST*
%ADD10C,0.100000*%
%ADD11C,0.200000*%
%ADD12C,0.065000*%
G04 APERTURE END LIST*
D10*
X8178800Y-4572000D02*
X8178800Y-8382000D01*
X11430000Y-4572000D02*
X11430000Y-8356600D01*
X8362950Y-4368800D02*
X11245850Y-4368800D01*
X11176000Y-8572500D02*
X10934700Y-8572500D01*
X11176000Y-8572498D02*
G75*
G03*
X11430000Y-8356600I-260J257668D01*
G01*
X8178800Y-8382000D02*
G75*
G03*
X8394700Y-8597900I215900J0D01*
G01*
X11429997Y-4572000D02*
G75*
G03*
X11245850Y-4368800I-184147J18160D01*
G01*
X10934700Y-14884400D02*
X8686800Y-14884400D01*
X10934700Y-8572500D02*
X10934700Y-14884400D01*
X8362950Y-4368793D02*
G75*
G03*
X8178800Y-4572000I1560J-186457D01*
G01*
X8686800Y-14884400D02*
X8686800Y-8597900D01*
X8394700Y-8597900D02*
X8686800Y-8597900D01*
D11*
D12*
X10143300Y-5040800D02*
X10208300Y-5105800D01*
X10208300Y-5040800D02*
X10143300Y-5105800D01*
X10721300Y-5040800D02*
X10786300Y-5105800D01*
X10786300Y-5040800D02*
X10721300Y-5105800D01*
D11*
X8430665Y-15199876D02*
X8430665Y-14999876D01*
X8478284Y-14999876D01*
X8506856Y-15009400D01*
X8525903Y-15028448D01*
X8535427Y-15047495D01*
X8544951Y-15085590D01*
X8544951Y-15114162D01*
X8535427Y-15152257D01*
X8525903Y-15171305D01*
X8506856Y-15190352D01*
X8478284Y-15199876D01*
X8430665Y-15199876D01*
X8630665Y-15199876D02*
X8630665Y-15066543D01*
X8630665Y-15104638D02*
X8640189Y-15085590D01*
X8649713Y-15076067D01*
X8668760Y-15066543D01*
X8687808Y-15066543D01*
X8754475Y-15199876D02*
X8754475Y-15066543D01*
X8754475Y-14999876D02*
X8744951Y-15009400D01*
X8754475Y-15018924D01*
X8763999Y-15009400D01*
X8754475Y-14999876D01*
X8754475Y-15018924D01*
X8878284Y-15199876D02*
X8859237Y-15190352D01*
X8849713Y-15171305D01*
X8849713Y-14999876D01*
X8983046Y-15199876D02*
X8963999Y-15190352D01*
X8954475Y-15171305D01*
X8954475Y-14999876D01*
X9211618Y-15199876D02*
X9211618Y-14999876D01*
X9278284Y-15142733D01*
X9344951Y-14999876D01*
X9344951Y-15199876D01*
X9525903Y-15199876D02*
X9525903Y-15095114D01*
X9516380Y-15076067D01*
X9497332Y-15066543D01*
X9459237Y-15066543D01*
X9440189Y-15076067D01*
X9525903Y-15190352D02*
X9506856Y-15199876D01*
X9459237Y-15199876D01*
X9440189Y-15190352D01*
X9430665Y-15171305D01*
X9430665Y-15152257D01*
X9440189Y-15133209D01*
X9459237Y-15123686D01*
X9506856Y-15123686D01*
X9525903Y-15114162D01*
X9621141Y-15066543D02*
X9621141Y-15266543D01*
X9621141Y-15076067D02*
X9640189Y-15066543D01*
X9678284Y-15066543D01*
X9697332Y-15076067D01*
X9706856Y-15085590D01*
X9716380Y-15104638D01*
X9716380Y-15161781D01*
X9706856Y-15180828D01*
X9697332Y-15190352D01*
X9678284Y-15199876D01*
X9640189Y-15199876D01*
X9621141Y-15190352D01*
X9802094Y-15180828D02*
X9811618Y-15190352D01*
X9802094Y-15199876D01*
X9792570Y-15190352D01*
X9802094Y-15180828D01*
X9802094Y-15199876D01*
X9802094Y-15076067D02*
X9811618Y-15085590D01*
X9802094Y-15095114D01*
X9792570Y-15085590D01*
X9802094Y-15076067D01*
X9802094Y-15095114D01*
D12*
X8108046Y-15496900D02*
X8173046Y-15561900D01*
X8173046Y-15496900D02*
X8108046Y-15561900D01*
D11*
X8468760Y-15419876D02*
X8487808Y-15419876D01*
X8506856Y-15429400D01*
X8516380Y-15438924D01*
X8525903Y-15457971D01*
X8535427Y-15496067D01*
X8535427Y-15543686D01*
X8525903Y-15581781D01*
X8516380Y-15600828D01*
X8506856Y-15610352D01*
X8487808Y-15619876D01*
X8468760Y-15619876D01*
X8449713Y-15610352D01*
X8440189Y-15600828D01*
X8430665Y-15581781D01*
X8421141Y-15543686D01*
X8421141Y-15496067D01*
X8430665Y-15457971D01*
X8440189Y-15438924D01*
X8449713Y-15429400D01*
X8468760Y-15419876D01*
X8621141Y-15600828D02*
X8630665Y-15610352D01*
X8621141Y-15619876D01*
X8611618Y-15610352D01*
X8621141Y-15600828D01*
X8621141Y-15619876D01*
X8802094Y-15419876D02*
X8763999Y-15419876D01*
X8744951Y-15429400D01*
X8735427Y-15438924D01*
X8716380Y-15467495D01*
X8706856Y-15505590D01*
X8706856Y-15581781D01*
X8716380Y-15600828D01*
X8725903Y-15610352D01*
X8744951Y-15619876D01*
X8783046Y-15619876D01*
X8802094Y-15610352D01*
X8811618Y-15600828D01*
X8821141Y-15581781D01*
X8821141Y-15534162D01*
X8811618Y-15515114D01*
X8802094Y-15505590D01*
X8783046Y-15496067D01*
X8744951Y-15496067D01*
X8725903Y-15505590D01*
X8716380Y-15515114D01*
X8706856Y-15534162D01*
X9002094Y-15419876D02*
X8906856Y-15419876D01*
X8897332Y-15515114D01*
X8906856Y-15505590D01*
X8925903Y-15496067D01*
X8973522Y-15496067D01*
X8992570Y-15505590D01*
X9002094Y-15515114D01*
X9011618Y-15534162D01*
X9011618Y-15581781D01*
X9002094Y-15600828D01*
X8992570Y-15610352D01*
X8973522Y-15619876D01*
X8925903Y-15619876D01*
X8906856Y-15610352D01*
X8897332Y-15600828D01*
X9135427Y-15419876D02*
X9154475Y-15419876D01*
X9173522Y-15429400D01*
X9183046Y-15438924D01*
X9192570Y-15457971D01*
X9202094Y-15496067D01*
X9202094Y-15543686D01*
X9192570Y-15581781D01*
X9183046Y-15600828D01*
X9173522Y-15610352D01*
X9154475Y-15619876D01*
X9135427Y-15619876D01*
X9116380Y-15610352D01*
X9106856Y-15600828D01*
X9097332Y-15581781D01*
X9087808Y-15543686D01*
X9087808Y-15496067D01*
X9097332Y-15457971D01*
X9106856Y-15438924D01*
X9116380Y-15429400D01*
X9135427Y-15419876D01*
X9287808Y-15619876D02*
X9287808Y-15486543D01*
X9287808Y-15505590D02*
X9297332Y-15496067D01*
X9316380Y-15486543D01*
X9344951Y-15486543D01*
X9363999Y-15496067D01*
X9373522Y-15515114D01*
X9373522Y-15619876D01*
X9373522Y-15515114D02*
X9383046Y-15496067D01*
X9402094Y-15486543D01*
X9430665Y-15486543D01*
X9449713Y-15496067D01*
X9459237Y-15515114D01*
X9459237Y-15619876D01*
X9554475Y-15619876D02*
X9554475Y-15486543D01*
X9554475Y-15505590D02*
X9563999Y-15496067D01*
X9583046Y-15486543D01*
X9611618Y-15486543D01*
X9630665Y-15496067D01*
X9640189Y-15515114D01*
X9640189Y-15619876D01*
X9640189Y-15515114D02*
X9649713Y-15496067D01*
X9668760Y-15486543D01*
X9697332Y-15486543D01*
X9716380Y-15496067D01*
X9725903Y-15515114D01*
X9725903Y-15619876D01*
X10116380Y-15410352D02*
X9944951Y-15667495D01*
X10373522Y-15419876D02*
X10392570Y-15419876D01*
X10411618Y-15429400D01*
X10421141Y-15438924D01*
X10430665Y-15457971D01*
X10440189Y-15496067D01*
X10440189Y-15543686D01*
X10430665Y-15581781D01*
X10421141Y-15600828D01*
X10411618Y-15610352D01*
X10392570Y-15619876D01*
X10373522Y-15619876D01*
X10354475Y-15610352D01*
X10344951Y-15600828D01*
X10335427Y-15581781D01*
X10325903Y-15543686D01*
X10325903Y-15496067D01*
X10335427Y-15457971D01*
X10344951Y-15438924D01*
X10354475Y-15429400D01*
X10373522Y-15419876D01*
X10525903Y-15600828D02*
X10535427Y-15610352D01*
X10525903Y-15619876D01*
X10516380Y-15610352D01*
X10525903Y-15600828D01*
X10525903Y-15619876D01*
X10659237Y-15419876D02*
X10678284Y-15419876D01*
X10697332Y-15429400D01*
X10706856Y-15438924D01*
X10716380Y-15457971D01*
X10725903Y-15496067D01*
X10725903Y-15543686D01*
X10716380Y-15581781D01*
X10706856Y-15600828D01*
X10697332Y-15610352D01*
X10678284Y-15619876D01*
X10659237Y-15619876D01*
X10640189Y-15610352D01*
X10630665Y-15600828D01*
X10621141Y-15581781D01*
X10611618Y-15543686D01*
X10611618Y-15496067D01*
X10621141Y-15457971D01*
X10630665Y-15438924D01*
X10640189Y-15429400D01*
X10659237Y-15419876D01*
X10802094Y-15438924D02*
X10811618Y-15429400D01*
X10830665Y-15419876D01*
X10878284Y-15419876D01*
X10897332Y-15429400D01*
X10906856Y-15438924D01*
X10916380Y-15457971D01*
X10916380Y-15477019D01*
X10906856Y-15505590D01*
X10792570Y-15619876D01*
X10916380Y-15619876D01*
X11097332Y-15419876D02*
X11002094Y-15419876D01*
X10992570Y-15515114D01*
X11002094Y-15505590D01*
X11021141Y-15496067D01*
X11068760Y-15496067D01*
X11087808Y-15505590D01*
X11097332Y-15515114D01*
X11106856Y-15534162D01*
X11106856Y-15581781D01*
X11097332Y-15600828D01*
X11087808Y-15610352D01*
X11068760Y-15619876D01*
X11021141Y-15619876D01*
X11002094Y-15610352D01*
X10992570Y-15600828D01*
X11278284Y-15419876D02*
X11240189Y-15419876D01*
X11221141Y-15429400D01*
X11211618Y-15438924D01*
X11192570Y-15467495D01*
X11183046Y-15505590D01*
X11183046Y-15581781D01*
X11192570Y-15600828D01*
X11202094Y-15610352D01*
X11221141Y-15619876D01*
X11259237Y-15619876D01*
X11278284Y-15610352D01*
X11287808Y-15600828D01*
X11297332Y-15581781D01*
X11297332Y-15534162D01*
X11287808Y-15515114D01*
X11278284Y-15505590D01*
X11259237Y-15496067D01*
X11221141Y-15496067D01*
X11202094Y-15505590D01*
X11192570Y-15515114D01*
X11183046Y-15534162D01*
X11373522Y-15419876D02*
X11373522Y-15457971D01*
X11449713Y-15419876D02*
X11449713Y-15457971D01*
X11744951Y-15696067D02*
X11735427Y-15686543D01*
X11716379Y-15657971D01*
X11706856Y-15638924D01*
X11697332Y-15610352D01*
X11687808Y-15562733D01*
X11687808Y-15524638D01*
X11697332Y-15477019D01*
X11706856Y-15448448D01*
X11716379Y-15429400D01*
X11735427Y-15400828D01*
X11744951Y-15391305D01*
X11811618Y-15438924D02*
X11821141Y-15429400D01*
X11840189Y-15419876D01*
X11887808Y-15419876D01*
X11906856Y-15429400D01*
X11916379Y-15438924D01*
X11925903Y-15457971D01*
X11925903Y-15477019D01*
X11916379Y-15505590D01*
X11802094Y-15619876D01*
X11925903Y-15619876D01*
X12163998Y-15619876D02*
X12163998Y-15419876D01*
X12249713Y-15619876D02*
X12249713Y-15515114D01*
X12240189Y-15496067D01*
X12221141Y-15486543D01*
X12192570Y-15486543D01*
X12173522Y-15496067D01*
X12163998Y-15505590D01*
X12373522Y-15619876D02*
X12354475Y-15610352D01*
X12344951Y-15600828D01*
X12335427Y-15581781D01*
X12335427Y-15524638D01*
X12344951Y-15505590D01*
X12354475Y-15496067D01*
X12373522Y-15486543D01*
X12402094Y-15486543D01*
X12421141Y-15496067D01*
X12430665Y-15505590D01*
X12440189Y-15524638D01*
X12440189Y-15581781D01*
X12430665Y-15600828D01*
X12421141Y-15610352D01*
X12402094Y-15619876D01*
X12373522Y-15619876D01*
X12554475Y-15619876D02*
X12535427Y-15610352D01*
X12525903Y-15591305D01*
X12525903Y-15419876D01*
X12706856Y-15610352D02*
X12687808Y-15619876D01*
X12649713Y-15619876D01*
X12630665Y-15610352D01*
X12621141Y-15591305D01*
X12621141Y-15515114D01*
X12630665Y-15496067D01*
X12649713Y-15486543D01*
X12687808Y-15486543D01*
X12706856Y-15496067D01*
X12716379Y-15515114D01*
X12716379Y-15534162D01*
X12621141Y-15553209D01*
X12792570Y-15610352D02*
X12811618Y-15619876D01*
X12849713Y-15619876D01*
X12868760Y-15610352D01*
X12878284Y-15591305D01*
X12878284Y-15581781D01*
X12868760Y-15562733D01*
X12849713Y-15553209D01*
X12821141Y-15553209D01*
X12802094Y-15543686D01*
X12792570Y-15524638D01*
X12792570Y-15515114D01*
X12802094Y-15496067D01*
X12821141Y-15486543D01*
X12849713Y-15486543D01*
X12868760Y-15496067D01*
X12944951Y-15696067D02*
X12954475Y-15686543D01*
X12973522Y-15657971D01*
X12983046Y-15638924D01*
X12992570Y-15610352D01*
X13002094Y-15562733D01*
X13002094Y-15524638D01*
X12992570Y-15477019D01*
X12983046Y-15448448D01*
X12973522Y-15429400D01*
X12954475Y-15400828D01*
X12944951Y-15391305D01*
X13306856Y-15696067D02*
X13297332Y-15686543D01*
X13278284Y-15657971D01*
X13268760Y-15638924D01*
X13259237Y-15610352D01*
X13249713Y-15562733D01*
X13249713Y-15524638D01*
X13259237Y-15477019D01*
X13268760Y-15448448D01*
X13278284Y-15429400D01*
X13297332Y-15400828D01*
X13306856Y-15391305D01*
X13383046Y-15486543D02*
X13383046Y-15619876D01*
X13383046Y-15505590D02*
X13392570Y-15496067D01*
X13411618Y-15486543D01*
X13440189Y-15486543D01*
X13459237Y-15496067D01*
X13468760Y-15515114D01*
X13468760Y-15619876D01*
X13592570Y-15619876D02*
X13573522Y-15610352D01*
X13563998Y-15600828D01*
X13554475Y-15581781D01*
X13554475Y-15524638D01*
X13563998Y-15505590D01*
X13573522Y-15496067D01*
X13592570Y-15486543D01*
X13621141Y-15486543D01*
X13640189Y-15496067D01*
X13649713Y-15505590D01*
X13659237Y-15524638D01*
X13659237Y-15581781D01*
X13649713Y-15600828D01*
X13640189Y-15610352D01*
X13621141Y-15619876D01*
X13592570Y-15619876D01*
X13716379Y-15486543D02*
X13792570Y-15486543D01*
X13744951Y-15419876D02*
X13744951Y-15591305D01*
X13754475Y-15610352D01*
X13773522Y-15619876D01*
X13792570Y-15619876D01*
X14011618Y-15486543D02*
X14011618Y-15686543D01*
X14011618Y-15496067D02*
X14030665Y-15486543D01*
X14068760Y-15486543D01*
X14087808Y-15496067D01*
X14097332Y-15505590D01*
X14106856Y-15524638D01*
X14106856Y-15581781D01*
X14097332Y-15600828D01*
X14087808Y-15610352D01*
X14068760Y-15619876D01*
X14030665Y-15619876D01*
X14011618Y-15610352D01*
X14221141Y-15619876D02*
X14202094Y-15610352D01*
X14192570Y-15591305D01*
X14192570Y-15419876D01*
X14383046Y-15619876D02*
X14383046Y-15515114D01*
X14373522Y-15496067D01*
X14354475Y-15486543D01*
X14316379Y-15486543D01*
X14297332Y-15496067D01*
X14383046Y-15610352D02*
X14363998Y-15619876D01*
X14316379Y-15619876D01*
X14297332Y-15610352D01*
X14287808Y-15591305D01*
X14287808Y-15572257D01*
X14297332Y-15553209D01*
X14316379Y-15543686D01*
X14363998Y-15543686D01*
X14383046Y-15534162D01*
X14449713Y-15486543D02*
X14525903Y-15486543D01*
X14478284Y-15419876D02*
X14478284Y-15591305D01*
X14487808Y-15610352D01*
X14506856Y-15619876D01*
X14525903Y-15619876D01*
X14668760Y-15610352D02*
X14649713Y-15619876D01*
X14611618Y-15619876D01*
X14592570Y-15610352D01*
X14583046Y-15591305D01*
X14583046Y-15515114D01*
X14592570Y-15496067D01*
X14611618Y-15486543D01*
X14649713Y-15486543D01*
X14668760Y-15496067D01*
X14678284Y-15515114D01*
X14678284Y-15534162D01*
X14583046Y-15553209D01*
X14849713Y-15619876D02*
X14849713Y-15419876D01*
X14849713Y-15610352D02*
X14830665Y-15619876D01*
X14792570Y-15619876D01*
X14773522Y-15610352D01*
X14763998Y-15600828D01*
X14754475Y-15581781D01*
X14754475Y-15524638D01*
X14763998Y-15505590D01*
X14773522Y-15496067D01*
X14792570Y-15486543D01*
X14830665Y-15486543D01*
X14849713Y-15496067D01*
X14925903Y-15696067D02*
X14935427Y-15686543D01*
X14954475Y-15657971D01*
X14963998Y-15638924D01*
X14973522Y-15610352D01*
X14983046Y-15562733D01*
X14983046Y-15524638D01*
X14973522Y-15477019D01*
X14963998Y-15448448D01*
X14954475Y-15429400D01*
X14935427Y-15400828D01*
X14925903Y-15391305D01*
M02*
