G04 #@! TF.GenerationSoftware,KiCad,Pcbnew,(5.1.4-0-10_14)*
G04 #@! TF.CreationDate,2022-05-28T07:52:33+02:00*
G04 #@! TF.ProjectId,new_rele,6e65775f-7265-46c6-952e-6b696361645f,rev?*
G04 #@! TF.SameCoordinates,Original*
G04 #@! TF.FileFunction,Other,ECO1*
%FSLAX46Y46*%
G04 Gerber Fmt 4.6, Leading zero omitted, Abs format (unit mm)*
G04 Created by KiCad (PCBNEW (5.1.4-0-10_14)) date 2022-05-28 07:52:33*
%MOMM*%
%LPD*%
G04 APERTURE LIST*
%ADD10C,0.150000*%
G04 APERTURE END LIST*
D10*
X108686380Y-57198142D02*
X108734000Y-57245761D01*
X108781619Y-57341000D01*
X108781619Y-57579095D01*
X108734000Y-57674333D01*
X108686380Y-57721952D01*
X108591142Y-57769571D01*
X108495904Y-57769571D01*
X108353047Y-57721952D01*
X107781619Y-57150523D01*
X107781619Y-57769571D01*
X108353047Y-58341000D02*
X108400666Y-58245761D01*
X108448285Y-58198142D01*
X108543523Y-58150523D01*
X108591142Y-58150523D01*
X108686380Y-58198142D01*
X108734000Y-58245761D01*
X108781619Y-58341000D01*
X108781619Y-58531476D01*
X108734000Y-58626714D01*
X108686380Y-58674333D01*
X108591142Y-58721952D01*
X108543523Y-58721952D01*
X108448285Y-58674333D01*
X108400666Y-58626714D01*
X108353047Y-58531476D01*
X108353047Y-58341000D01*
X108305428Y-58245761D01*
X108257809Y-58198142D01*
X108162571Y-58150523D01*
X107972095Y-58150523D01*
X107876857Y-58198142D01*
X107829238Y-58245761D01*
X107781619Y-58341000D01*
X107781619Y-58531476D01*
X107829238Y-58626714D01*
X107876857Y-58674333D01*
X107972095Y-58721952D01*
X108162571Y-58721952D01*
X108257809Y-58674333D01*
X108305428Y-58626714D01*
X108353047Y-58531476D01*
X107876857Y-59150523D02*
X107829238Y-59198142D01*
X107781619Y-59150523D01*
X107829238Y-59102904D01*
X107876857Y-59150523D01*
X107781619Y-59150523D01*
X108781619Y-59531476D02*
X108781619Y-60198142D01*
X107781619Y-59769571D01*
X108781619Y-60769571D02*
X108781619Y-60864809D01*
X108734000Y-60960047D01*
X108686380Y-61007666D01*
X108591142Y-61055285D01*
X108400666Y-61102904D01*
X108162571Y-61102904D01*
X107972095Y-61055285D01*
X107876857Y-61007666D01*
X107829238Y-60960047D01*
X107781619Y-60864809D01*
X107781619Y-60769571D01*
X107829238Y-60674333D01*
X107876857Y-60626714D01*
X107972095Y-60579095D01*
X108162571Y-60531476D01*
X108400666Y-60531476D01*
X108591142Y-60579095D01*
X108686380Y-60626714D01*
X108734000Y-60674333D01*
X108781619Y-60769571D01*
X108686380Y-61483857D02*
X108734000Y-61531476D01*
X108781619Y-61626714D01*
X108781619Y-61864809D01*
X108734000Y-61960047D01*
X108686380Y-62007666D01*
X108591142Y-62055285D01*
X108495904Y-62055285D01*
X108353047Y-62007666D01*
X107781619Y-61436238D01*
X107781619Y-62055285D01*
X107781619Y-63245761D02*
X108448285Y-63245761D01*
X108353047Y-63245761D02*
X108400666Y-63293380D01*
X108448285Y-63388619D01*
X108448285Y-63531476D01*
X108400666Y-63626714D01*
X108305428Y-63674333D01*
X107781619Y-63674333D01*
X108305428Y-63674333D02*
X108400666Y-63721952D01*
X108448285Y-63817190D01*
X108448285Y-63960047D01*
X108400666Y-64055285D01*
X108305428Y-64102904D01*
X107781619Y-64102904D01*
X107781619Y-64579095D02*
X108448285Y-64579095D01*
X108353047Y-64579095D02*
X108400666Y-64626714D01*
X108448285Y-64721952D01*
X108448285Y-64864809D01*
X108400666Y-64960047D01*
X108305428Y-65007666D01*
X107781619Y-65007666D01*
X108305428Y-65007666D02*
X108400666Y-65055285D01*
X108448285Y-65150523D01*
X108448285Y-65293380D01*
X108400666Y-65388619D01*
X108305428Y-65436238D01*
X107781619Y-65436238D01*
X106934000Y-46990000D02*
X106934000Y-75692000D01*
X99568000Y-46990000D02*
X107520421Y-46990000D01*
X99568000Y-75692000D02*
X107520421Y-75692000D01*
X106934000Y-75692000D02*
X106347579Y-74565496D01*
X106934000Y-75692000D02*
X107520421Y-74565496D01*
X106934000Y-46990000D02*
X106347579Y-48116504D01*
X106934000Y-46990000D02*
X107520421Y-48116504D01*
X64960952Y-36506380D02*
X64484761Y-36506380D01*
X64437142Y-36982571D01*
X64484761Y-36934952D01*
X64580000Y-36887333D01*
X64818095Y-36887333D01*
X64913333Y-36934952D01*
X64960952Y-36982571D01*
X65008571Y-37077809D01*
X65008571Y-37315904D01*
X64960952Y-37411142D01*
X64913333Y-37458761D01*
X64818095Y-37506380D01*
X64580000Y-37506380D01*
X64484761Y-37458761D01*
X64437142Y-37411142D01*
X65580000Y-36934952D02*
X65484761Y-36887333D01*
X65437142Y-36839714D01*
X65389523Y-36744476D01*
X65389523Y-36696857D01*
X65437142Y-36601619D01*
X65484761Y-36554000D01*
X65580000Y-36506380D01*
X65770476Y-36506380D01*
X65865714Y-36554000D01*
X65913333Y-36601619D01*
X65960952Y-36696857D01*
X65960952Y-36744476D01*
X65913333Y-36839714D01*
X65865714Y-36887333D01*
X65770476Y-36934952D01*
X65580000Y-36934952D01*
X65484761Y-36982571D01*
X65437142Y-37030190D01*
X65389523Y-37125428D01*
X65389523Y-37315904D01*
X65437142Y-37411142D01*
X65484761Y-37458761D01*
X65580000Y-37506380D01*
X65770476Y-37506380D01*
X65865714Y-37458761D01*
X65913333Y-37411142D01*
X65960952Y-37315904D01*
X65960952Y-37125428D01*
X65913333Y-37030190D01*
X65865714Y-36982571D01*
X65770476Y-36934952D01*
X66389523Y-37411142D02*
X66437142Y-37458761D01*
X66389523Y-37506380D01*
X66341904Y-37458761D01*
X66389523Y-37411142D01*
X66389523Y-37506380D01*
X67294285Y-36839714D02*
X67294285Y-37506380D01*
X67056190Y-36458761D02*
X66818095Y-37173047D01*
X67437142Y-37173047D01*
X67770476Y-36601619D02*
X67818095Y-36554000D01*
X67913333Y-36506380D01*
X68151428Y-36506380D01*
X68246666Y-36554000D01*
X68294285Y-36601619D01*
X68341904Y-36696857D01*
X68341904Y-36792095D01*
X68294285Y-36934952D01*
X67722857Y-37506380D01*
X68341904Y-37506380D01*
X68960952Y-36506380D02*
X69056190Y-36506380D01*
X69151428Y-36554000D01*
X69199047Y-36601619D01*
X69246666Y-36696857D01*
X69294285Y-36887333D01*
X69294285Y-37125428D01*
X69246666Y-37315904D01*
X69199047Y-37411142D01*
X69151428Y-37458761D01*
X69056190Y-37506380D01*
X68960952Y-37506380D01*
X68865714Y-37458761D01*
X68818095Y-37411142D01*
X68770476Y-37315904D01*
X68722857Y-37125428D01*
X68722857Y-36887333D01*
X68770476Y-36696857D01*
X68818095Y-36601619D01*
X68865714Y-36554000D01*
X68960952Y-36506380D01*
X70484761Y-37506380D02*
X70484761Y-36839714D01*
X70484761Y-36934952D02*
X70532380Y-36887333D01*
X70627619Y-36839714D01*
X70770476Y-36839714D01*
X70865714Y-36887333D01*
X70913333Y-36982571D01*
X70913333Y-37506380D01*
X70913333Y-36982571D02*
X70960952Y-36887333D01*
X71056190Y-36839714D01*
X71199047Y-36839714D01*
X71294285Y-36887333D01*
X71341904Y-36982571D01*
X71341904Y-37506380D01*
X71818095Y-37506380D02*
X71818095Y-36839714D01*
X71818095Y-36934952D02*
X71865714Y-36887333D01*
X71960952Y-36839714D01*
X72103809Y-36839714D01*
X72199047Y-36887333D01*
X72246666Y-36982571D01*
X72246666Y-37506380D01*
X72246666Y-36982571D02*
X72294285Y-36887333D01*
X72389523Y-36839714D01*
X72532380Y-36839714D01*
X72627619Y-36887333D01*
X72675238Y-36982571D01*
X72675238Y-37506380D01*
X39370000Y-38354000D02*
X97790000Y-38354000D01*
X39370000Y-42926000D02*
X39370000Y-37767579D01*
X97790000Y-42926000D02*
X97790000Y-37767579D01*
X97790000Y-38354000D02*
X96663496Y-38940421D01*
X97790000Y-38354000D02*
X96663496Y-37767579D01*
X39370000Y-38354000D02*
X40496504Y-38940421D01*
X39370000Y-38354000D02*
X40496504Y-37767579D01*
M02*
