G04 #@! TF.GenerationSoftware,KiCad,Pcbnew,(5.1.4-0-10_14)*
G04 #@! TF.CreationDate,2022-05-28T07:52:33+02:00*
G04 #@! TF.ProjectId,new_rele,6e65775f-7265-46c6-952e-6b696361645f,rev?*
G04 #@! TF.SameCoordinates,Original*
G04 #@! TF.FileFunction,Copper,L2,Bot*
G04 #@! TF.FilePolarity,Positive*
%FSLAX46Y46*%
G04 Gerber Fmt 4.6, Leading zero omitted, Abs format (unit mm)*
G04 Created by KiCad (PCBNEW (5.1.4-0-10_14)) date 2022-05-28 07:52:33*
%MOMM*%
%LPD*%
G04 APERTURE LIST*
%ADD10C,2.000000*%
%ADD11R,1.800000X1.800000*%
%ADD12C,1.800000*%
%ADD13R,2.200000X2.200000*%
%ADD14O,2.200000X2.200000*%
%ADD15R,1.700000X1.700000*%
%ADD16O,1.700000X1.700000*%
%ADD17R,3.000000X3.000000*%
%ADD18C,3.000000*%
%ADD19C,0.100000*%
%ADD20C,1.100000*%
%ADD21R,1.100000X1.800000*%
%ADD22O,1.600000X1.600000*%
%ADD23C,1.600000*%
%ADD24R,2.300000X2.300000*%
%ADD25C,2.300000*%
%ADD26C,0.508000*%
%ADD27C,0.250000*%
%ADD28C,0.406400*%
G04 APERTURE END LIST*
D10*
X69850000Y-67945000D03*
X69850000Y-62945000D03*
X64135000Y-62945000D03*
X64135000Y-67945000D03*
D11*
X43815000Y-68580000D03*
D12*
X46355000Y-68580000D03*
D13*
X60960000Y-48260000D03*
D14*
X50800000Y-48260000D03*
D15*
X35560000Y-60960000D03*
D16*
X35560000Y-58420000D03*
X35560000Y-55880000D03*
D17*
X86995000Y-54610000D03*
D18*
X86995000Y-59690000D03*
X86995000Y-64770000D03*
D16*
X78740000Y-61595000D03*
X78740000Y-59055000D03*
D15*
X78740000Y-56515000D03*
D19*
G36*
X45386955Y-52841324D02*
G01*
X45413650Y-52845284D01*
X45439828Y-52851841D01*
X45465238Y-52860933D01*
X45489634Y-52872472D01*
X45512782Y-52886346D01*
X45534458Y-52902422D01*
X45554454Y-52920546D01*
X45572578Y-52940542D01*
X45588654Y-52962218D01*
X45602528Y-52985366D01*
X45614067Y-53009762D01*
X45623159Y-53035172D01*
X45629716Y-53061350D01*
X45633676Y-53088045D01*
X45635000Y-53115000D01*
X45635000Y-54365000D01*
X45633676Y-54391955D01*
X45629716Y-54418650D01*
X45623159Y-54444828D01*
X45614067Y-54470238D01*
X45602528Y-54494634D01*
X45588654Y-54517782D01*
X45572578Y-54539458D01*
X45554454Y-54559454D01*
X45534458Y-54577578D01*
X45512782Y-54593654D01*
X45489634Y-54607528D01*
X45465238Y-54619067D01*
X45439828Y-54628159D01*
X45413650Y-54634716D01*
X45386955Y-54638676D01*
X45360000Y-54640000D01*
X44810000Y-54640000D01*
X44783045Y-54638676D01*
X44756350Y-54634716D01*
X44730172Y-54628159D01*
X44704762Y-54619067D01*
X44680366Y-54607528D01*
X44657218Y-54593654D01*
X44635542Y-54577578D01*
X44615546Y-54559454D01*
X44597422Y-54539458D01*
X44581346Y-54517782D01*
X44567472Y-54494634D01*
X44555933Y-54470238D01*
X44546841Y-54444828D01*
X44540284Y-54418650D01*
X44536324Y-54391955D01*
X44535000Y-54365000D01*
X44535000Y-53115000D01*
X44536324Y-53088045D01*
X44540284Y-53061350D01*
X44546841Y-53035172D01*
X44555933Y-53009762D01*
X44567472Y-52985366D01*
X44581346Y-52962218D01*
X44597422Y-52940542D01*
X44615546Y-52920546D01*
X44635542Y-52902422D01*
X44657218Y-52886346D01*
X44680366Y-52872472D01*
X44704762Y-52860933D01*
X44730172Y-52851841D01*
X44756350Y-52845284D01*
X44783045Y-52841324D01*
X44810000Y-52840000D01*
X45360000Y-52840000D01*
X45386955Y-52841324D01*
X45386955Y-52841324D01*
G37*
D20*
X45085000Y-53740000D03*
D19*
G36*
X44116955Y-50771324D02*
G01*
X44143650Y-50775284D01*
X44169828Y-50781841D01*
X44195238Y-50790933D01*
X44219634Y-50802472D01*
X44242782Y-50816346D01*
X44264458Y-50832422D01*
X44284454Y-50850546D01*
X44302578Y-50870542D01*
X44318654Y-50892218D01*
X44332528Y-50915366D01*
X44344067Y-50939762D01*
X44353159Y-50965172D01*
X44359716Y-50991350D01*
X44363676Y-51018045D01*
X44365000Y-51045000D01*
X44365000Y-52295000D01*
X44363676Y-52321955D01*
X44359716Y-52348650D01*
X44353159Y-52374828D01*
X44344067Y-52400238D01*
X44332528Y-52424634D01*
X44318654Y-52447782D01*
X44302578Y-52469458D01*
X44284454Y-52489454D01*
X44264458Y-52507578D01*
X44242782Y-52523654D01*
X44219634Y-52537528D01*
X44195238Y-52549067D01*
X44169828Y-52558159D01*
X44143650Y-52564716D01*
X44116955Y-52568676D01*
X44090000Y-52570000D01*
X43540000Y-52570000D01*
X43513045Y-52568676D01*
X43486350Y-52564716D01*
X43460172Y-52558159D01*
X43434762Y-52549067D01*
X43410366Y-52537528D01*
X43387218Y-52523654D01*
X43365542Y-52507578D01*
X43345546Y-52489454D01*
X43327422Y-52469458D01*
X43311346Y-52447782D01*
X43297472Y-52424634D01*
X43285933Y-52400238D01*
X43276841Y-52374828D01*
X43270284Y-52348650D01*
X43266324Y-52321955D01*
X43265000Y-52295000D01*
X43265000Y-51045000D01*
X43266324Y-51018045D01*
X43270284Y-50991350D01*
X43276841Y-50965172D01*
X43285933Y-50939762D01*
X43297472Y-50915366D01*
X43311346Y-50892218D01*
X43327422Y-50870542D01*
X43345546Y-50850546D01*
X43365542Y-50832422D01*
X43387218Y-50816346D01*
X43410366Y-50802472D01*
X43434762Y-50790933D01*
X43460172Y-50781841D01*
X43486350Y-50775284D01*
X43513045Y-50771324D01*
X43540000Y-50770000D01*
X44090000Y-50770000D01*
X44116955Y-50771324D01*
X44116955Y-50771324D01*
G37*
D20*
X43815000Y-51670000D03*
D21*
X46355000Y-51670000D03*
D22*
X47625000Y-62865000D03*
D23*
X40005000Y-62865000D03*
X47625000Y-59055000D03*
D22*
X40005000Y-59055000D03*
D23*
X74930000Y-60960000D03*
D22*
X74930000Y-68580000D03*
X64135000Y-52070000D03*
D23*
X64135000Y-59690000D03*
X67945000Y-57150000D03*
X69745000Y-52150000D03*
X75460000Y-52150000D03*
X73660000Y-57150000D03*
D24*
X52070000Y-52705000D03*
D25*
X52070000Y-62865000D03*
X52070000Y-70485000D03*
X59690000Y-67945000D03*
X59690000Y-52705000D03*
D26*
X52070000Y-70485000D02*
X69215000Y-70485000D01*
X69850000Y-69850000D02*
X69850000Y-67945000D01*
X69215000Y-70485000D02*
X69850000Y-69850000D01*
X67945000Y-66040000D02*
X69850000Y-67945000D01*
X67945000Y-57150000D02*
X67945000Y-66040000D01*
X83820000Y-61595000D02*
X86995000Y-64770000D01*
D27*
X80010000Y-61595000D02*
X78740000Y-61595000D01*
D26*
X80391000Y-61595000D02*
X78740000Y-61595000D01*
X80010000Y-61595000D02*
X80391000Y-61595000D01*
X80391000Y-61595000D02*
X83820000Y-61595000D01*
X69850000Y-61530787D02*
X70420787Y-60960000D01*
X69850000Y-62945000D02*
X69850000Y-61530787D01*
X70420787Y-60960000D02*
X74930000Y-60960000D01*
X64135000Y-59690000D02*
X64135000Y-62945000D01*
X59690000Y-67945000D02*
X64135000Y-67945000D01*
X64135000Y-67945000D02*
X66040000Y-66040000D01*
X66040000Y-66040000D02*
X66040000Y-55245000D01*
X66040000Y-55245000D02*
X66675000Y-54610000D01*
X66675000Y-54610000D02*
X69850000Y-54610000D01*
X69850000Y-54610000D02*
X70485000Y-55245000D01*
X70485000Y-55245000D02*
X70485000Y-56515000D01*
X71120000Y-57150000D02*
X73660000Y-57150000D01*
X70485000Y-56515000D02*
X71120000Y-57150000D01*
X73660000Y-57150000D02*
X75565000Y-57150000D01*
X76200000Y-56515000D02*
X80010000Y-56515000D01*
X75565000Y-57150000D02*
X76200000Y-56515000D01*
X80010000Y-56515000D02*
X81915000Y-56515000D01*
X83820000Y-54610000D02*
X86995000Y-54610000D01*
X81915000Y-56515000D02*
X83820000Y-54610000D01*
D28*
X47625000Y-67310000D02*
X46355000Y-68580000D01*
X47625000Y-62865000D02*
X47625000Y-67310000D01*
X60960000Y-51435000D02*
X59690000Y-52705000D01*
X60960000Y-48260000D02*
X60960000Y-51435000D01*
X46355000Y-52070000D02*
X48260000Y-52070000D01*
X48260000Y-52070000D02*
X48895000Y-52705000D01*
X48895000Y-52705000D02*
X48895000Y-54610000D01*
X48895000Y-54610000D02*
X50165000Y-55880000D01*
X50165000Y-55880000D02*
X59055000Y-55880000D01*
X59690000Y-55245000D02*
X59690000Y-52705000D01*
X59055000Y-55880000D02*
X59690000Y-55245000D01*
X35560000Y-58420000D02*
X37465000Y-58420000D01*
X38100000Y-59055000D02*
X40005000Y-59055000D01*
X37465000Y-58420000D02*
X38100000Y-59055000D01*
X40005000Y-59055000D02*
X40005000Y-62865000D01*
X35560000Y-55880000D02*
X38100000Y-55880000D01*
X41910000Y-52070000D02*
X43815000Y-52070000D01*
X38100000Y-55880000D02*
X41910000Y-52070000D01*
D26*
X64135000Y-52070000D02*
X64135000Y-55880000D01*
X64135000Y-55880000D02*
X62230000Y-57785000D01*
X62230000Y-57785000D02*
X53340000Y-57785000D01*
X52070000Y-59055000D02*
X52070000Y-62865000D01*
X53340000Y-57785000D02*
X52070000Y-59055000D01*
X69665000Y-52070000D02*
X69745000Y-52150000D01*
X64135000Y-52070000D02*
X69665000Y-52070000D01*
X69745000Y-52150000D02*
X75460000Y-52150000D01*
X80010000Y-59055000D02*
X82550000Y-59055000D01*
X83185000Y-59690000D02*
X86995000Y-59690000D01*
X82550000Y-59055000D02*
X83185000Y-59690000D01*
X75729999Y-67780001D02*
X75729999Y-63970001D01*
X74930000Y-68580000D02*
X75729999Y-67780001D01*
X75729999Y-63970001D02*
X77470000Y-62230000D01*
X77470000Y-62230000D02*
X77470000Y-59690000D01*
X78807919Y-59055000D02*
X80010000Y-59055000D01*
X78105000Y-59055000D02*
X78807919Y-59055000D01*
X77470000Y-59690000D02*
X78105000Y-59055000D01*
D28*
X45085000Y-53340000D02*
X45085000Y-58420000D01*
X45720000Y-59055000D02*
X47625000Y-59055000D01*
X45085000Y-58420000D02*
X45720000Y-59055000D01*
M02*
