G04 #@! TF.GenerationSoftware,KiCad,Pcbnew,(5.1.4-0-10_14)*
G04 #@! TF.CreationDate,2022-05-28T07:52:33+02:00*
G04 #@! TF.ProjectId,new_rele,6e65775f-7265-46c6-952e-6b696361645f,rev?*
G04 #@! TF.SameCoordinates,Original*
G04 #@! TF.FileFunction,Legend,Top*
G04 #@! TF.FilePolarity,Positive*
%FSLAX46Y46*%
G04 Gerber Fmt 4.6, Leading zero omitted, Abs format (unit mm)*
G04 Created by KiCad (PCBNEW (5.1.4-0-10_14)) date 2022-05-28 07:52:33*
%MOMM*%
%LPD*%
G04 APERTURE LIST*
%ADD10C,0.150000*%
%ADD11C,0.120000*%
G04 APERTURE END LIST*
D10*
X68175333Y-47950380D02*
X68175333Y-46950380D01*
X68556285Y-46950380D01*
X68651523Y-46998000D01*
X68699142Y-47045619D01*
X68746761Y-47140857D01*
X68746761Y-47283714D01*
X68699142Y-47378952D01*
X68651523Y-47426571D01*
X68556285Y-47474190D01*
X68175333Y-47474190D01*
X69175333Y-47855142D02*
X69222952Y-47902761D01*
X69175333Y-47950380D01*
X69127714Y-47902761D01*
X69175333Y-47855142D01*
X69175333Y-47950380D01*
X69603904Y-47664666D02*
X70080095Y-47664666D01*
X69508666Y-47950380D02*
X69842000Y-46950380D01*
X70175333Y-47950380D01*
X70508666Y-47855142D02*
X70556285Y-47902761D01*
X70508666Y-47950380D01*
X70461047Y-47902761D01*
X70508666Y-47855142D01*
X70508666Y-47950380D01*
X43602761Y-45251714D02*
X43602761Y-45918380D01*
X43602761Y-45346952D02*
X43650380Y-45299333D01*
X43745619Y-45251714D01*
X43888476Y-45251714D01*
X43983714Y-45299333D01*
X44031333Y-45394571D01*
X44031333Y-45918380D01*
X44888476Y-45870761D02*
X44793238Y-45918380D01*
X44602761Y-45918380D01*
X44507523Y-45870761D01*
X44459904Y-45775523D01*
X44459904Y-45394571D01*
X44507523Y-45299333D01*
X44602761Y-45251714D01*
X44793238Y-45251714D01*
X44888476Y-45299333D01*
X44936095Y-45394571D01*
X44936095Y-45489809D01*
X44459904Y-45585047D01*
X45269428Y-45251714D02*
X45459904Y-45918380D01*
X45650380Y-45442190D01*
X45840857Y-45918380D01*
X46031333Y-45251714D01*
X46412285Y-45537428D02*
X47174190Y-45537428D01*
X47650380Y-45918380D02*
X47650380Y-45251714D01*
X47650380Y-45442190D02*
X47698000Y-45346952D01*
X47745619Y-45299333D01*
X47840857Y-45251714D01*
X47936095Y-45251714D01*
X48650380Y-45870761D02*
X48555142Y-45918380D01*
X48364666Y-45918380D01*
X48269428Y-45870761D01*
X48221809Y-45775523D01*
X48221809Y-45394571D01*
X48269428Y-45299333D01*
X48364666Y-45251714D01*
X48555142Y-45251714D01*
X48650380Y-45299333D01*
X48698000Y-45394571D01*
X48698000Y-45489809D01*
X48221809Y-45585047D01*
X49269428Y-45918380D02*
X49174190Y-45870761D01*
X49126571Y-45775523D01*
X49126571Y-44918380D01*
X50078952Y-45918380D02*
X50078952Y-45394571D01*
X50031333Y-45299333D01*
X49936095Y-45251714D01*
X49745619Y-45251714D01*
X49650380Y-45299333D01*
X50078952Y-45870761D02*
X49983714Y-45918380D01*
X49745619Y-45918380D01*
X49650380Y-45870761D01*
X49602761Y-45775523D01*
X49602761Y-45680285D01*
X49650380Y-45585047D01*
X49745619Y-45537428D01*
X49983714Y-45537428D01*
X50078952Y-45489809D01*
X50459904Y-45251714D02*
X50698000Y-45918380D01*
X50936095Y-45251714D02*
X50698000Y-45918380D01*
X50602761Y-46156476D01*
X50555142Y-46204095D01*
X50459904Y-46251714D01*
X51317047Y-45537428D02*
X52078952Y-45537428D01*
X52507523Y-45870761D02*
X52602761Y-45918380D01*
X52793238Y-45918380D01*
X52888476Y-45870761D01*
X52936095Y-45775523D01*
X52936095Y-45727904D01*
X52888476Y-45632666D01*
X52793238Y-45585047D01*
X52650380Y-45585047D01*
X52555142Y-45537428D01*
X52507523Y-45442190D01*
X52507523Y-45394571D01*
X52555142Y-45299333D01*
X52650380Y-45251714D01*
X52793238Y-45251714D01*
X52888476Y-45299333D01*
X53364666Y-45918380D02*
X53364666Y-44918380D01*
X53793238Y-45918380D02*
X53793238Y-45394571D01*
X53745619Y-45299333D01*
X53650380Y-45251714D01*
X53507523Y-45251714D01*
X53412285Y-45299333D01*
X53364666Y-45346952D01*
X54269428Y-45918380D02*
X54269428Y-45251714D01*
X54269428Y-44918380D02*
X54221809Y-44966000D01*
X54269428Y-45013619D01*
X54317047Y-44966000D01*
X54269428Y-44918380D01*
X54269428Y-45013619D01*
X55126571Y-45870761D02*
X55031333Y-45918380D01*
X54840857Y-45918380D01*
X54745619Y-45870761D01*
X54698000Y-45775523D01*
X54698000Y-45394571D01*
X54745619Y-45299333D01*
X54840857Y-45251714D01*
X55031333Y-45251714D01*
X55126571Y-45299333D01*
X55174190Y-45394571D01*
X55174190Y-45489809D01*
X54698000Y-45585047D01*
X55745619Y-45918380D02*
X55650380Y-45870761D01*
X55602761Y-45775523D01*
X55602761Y-44918380D01*
X56555142Y-45918380D02*
X56555142Y-44918380D01*
X56555142Y-45870761D02*
X56459904Y-45918380D01*
X56269428Y-45918380D01*
X56174190Y-45870761D01*
X56126571Y-45823142D01*
X56078952Y-45727904D01*
X56078952Y-45442190D01*
X56126571Y-45346952D01*
X56174190Y-45299333D01*
X56269428Y-45251714D01*
X56459904Y-45251714D01*
X56555142Y-45299333D01*
X57793238Y-45537428D02*
X58555142Y-45537428D01*
X59698000Y-44918380D02*
X60364666Y-44918380D01*
X59698000Y-45918380D01*
X60364666Y-45918380D01*
X61126571Y-45870761D02*
X61031333Y-45918380D01*
X60840857Y-45918380D01*
X60745619Y-45870761D01*
X60698000Y-45775523D01*
X60698000Y-45394571D01*
X60745619Y-45299333D01*
X60840857Y-45251714D01*
X61031333Y-45251714D01*
X61126571Y-45299333D01*
X61174190Y-45394571D01*
X61174190Y-45489809D01*
X60698000Y-45585047D01*
X61602761Y-45251714D02*
X61602761Y-46251714D01*
X61602761Y-45299333D02*
X61698000Y-45251714D01*
X61888476Y-45251714D01*
X61983714Y-45299333D01*
X62031333Y-45346952D01*
X62078952Y-45442190D01*
X62078952Y-45727904D01*
X62031333Y-45823142D01*
X61983714Y-45870761D01*
X61888476Y-45918380D01*
X61698000Y-45918380D01*
X61602761Y-45870761D01*
X62507523Y-45251714D02*
X62507523Y-46251714D01*
X62507523Y-45299333D02*
X62602761Y-45251714D01*
X62793238Y-45251714D01*
X62888476Y-45299333D01*
X62936095Y-45346952D01*
X62983714Y-45442190D01*
X62983714Y-45727904D01*
X62936095Y-45823142D01*
X62888476Y-45870761D01*
X62793238Y-45918380D01*
X62602761Y-45918380D01*
X62507523Y-45870761D01*
X63793238Y-45870761D02*
X63698000Y-45918380D01*
X63507523Y-45918380D01*
X63412285Y-45870761D01*
X63364666Y-45775523D01*
X63364666Y-45394571D01*
X63412285Y-45299333D01*
X63507523Y-45251714D01*
X63698000Y-45251714D01*
X63793238Y-45299333D01*
X63840857Y-45394571D01*
X63840857Y-45489809D01*
X63364666Y-45585047D01*
X64412285Y-45918380D02*
X64317047Y-45870761D01*
X64269428Y-45775523D01*
X64269428Y-44918380D01*
X64793238Y-45918380D02*
X64793238Y-45251714D01*
X64793238Y-44918380D02*
X64745619Y-44966000D01*
X64793238Y-45013619D01*
X64840857Y-44966000D01*
X64793238Y-44918380D01*
X64793238Y-45013619D01*
X65269428Y-45251714D02*
X65269428Y-45918380D01*
X65269428Y-45346952D02*
X65317047Y-45299333D01*
X65412285Y-45251714D01*
X65555142Y-45251714D01*
X65650380Y-45299333D01*
X65698000Y-45394571D01*
X65698000Y-45918380D01*
X66174190Y-45918380D02*
X66174190Y-45251714D01*
X66174190Y-45346952D02*
X66221809Y-45299333D01*
X66317047Y-45251714D01*
X66459904Y-45251714D01*
X66555142Y-45299333D01*
X66602761Y-45394571D01*
X66602761Y-45918380D01*
X66602761Y-45394571D02*
X66650380Y-45299333D01*
X66745619Y-45251714D01*
X66888476Y-45251714D01*
X66983714Y-45299333D01*
X67031333Y-45394571D01*
X67031333Y-45918380D01*
X67936095Y-45918380D02*
X67936095Y-45394571D01*
X67888476Y-45299333D01*
X67793238Y-45251714D01*
X67602761Y-45251714D01*
X67507523Y-45299333D01*
X67936095Y-45870761D02*
X67840857Y-45918380D01*
X67602761Y-45918380D01*
X67507523Y-45870761D01*
X67459904Y-45775523D01*
X67459904Y-45680285D01*
X67507523Y-45585047D01*
X67602761Y-45537428D01*
X67840857Y-45537428D01*
X67936095Y-45489809D01*
X68412285Y-45918380D02*
X68412285Y-44918380D01*
X68507523Y-45537428D02*
X68793238Y-45918380D01*
X68793238Y-45251714D02*
X68412285Y-45632666D01*
X69602761Y-45870761D02*
X69507523Y-45918380D01*
X69317047Y-45918380D01*
X69221809Y-45870761D01*
X69174190Y-45775523D01*
X69174190Y-45394571D01*
X69221809Y-45299333D01*
X69317047Y-45251714D01*
X69507523Y-45251714D01*
X69602761Y-45299333D01*
X69650380Y-45394571D01*
X69650380Y-45489809D01*
X69174190Y-45585047D01*
X70078952Y-45918380D02*
X70078952Y-45251714D01*
X70078952Y-45442190D02*
X70126571Y-45346952D01*
X70174190Y-45299333D01*
X70269428Y-45251714D01*
X70364666Y-45251714D01*
X71459904Y-45537428D02*
X72221809Y-45537428D01*
X73412285Y-45013619D02*
X73459904Y-44966000D01*
X73555142Y-44918380D01*
X73793238Y-44918380D01*
X73888476Y-44966000D01*
X73936095Y-45013619D01*
X73983714Y-45108857D01*
X73983714Y-45204095D01*
X73936095Y-45346952D01*
X73364666Y-45918380D01*
X73983714Y-45918380D01*
X74602761Y-44918380D02*
X74698000Y-44918380D01*
X74793238Y-44966000D01*
X74840857Y-45013619D01*
X74888476Y-45108857D01*
X74936095Y-45299333D01*
X74936095Y-45537428D01*
X74888476Y-45727904D01*
X74840857Y-45823142D01*
X74793238Y-45870761D01*
X74698000Y-45918380D01*
X74602761Y-45918380D01*
X74507523Y-45870761D01*
X74459904Y-45823142D01*
X74412285Y-45727904D01*
X74364666Y-45537428D01*
X74364666Y-45299333D01*
X74412285Y-45108857D01*
X74459904Y-45013619D01*
X74507523Y-44966000D01*
X74602761Y-44918380D01*
X75317047Y-45013619D02*
X75364666Y-44966000D01*
X75459904Y-44918380D01*
X75698000Y-44918380D01*
X75793238Y-44966000D01*
X75840857Y-45013619D01*
X75888476Y-45108857D01*
X75888476Y-45204095D01*
X75840857Y-45346952D01*
X75269428Y-45918380D01*
X75888476Y-45918380D01*
X76269428Y-45013619D02*
X76317047Y-44966000D01*
X76412285Y-44918380D01*
X76650380Y-44918380D01*
X76745619Y-44966000D01*
X76793238Y-45013619D01*
X76840857Y-45108857D01*
X76840857Y-45204095D01*
X76793238Y-45346952D01*
X76221809Y-45918380D01*
X76840857Y-45918380D01*
X86082285Y-51252380D02*
X86082285Y-50252380D01*
X86653714Y-51252380D01*
X86653714Y-50252380D01*
X87701333Y-51157142D02*
X87653714Y-51204761D01*
X87510857Y-51252380D01*
X87415619Y-51252380D01*
X87272761Y-51204761D01*
X87177523Y-51109523D01*
X87129904Y-51014285D01*
X87082285Y-50823809D01*
X87082285Y-50680952D01*
X87129904Y-50490476D01*
X87177523Y-50395238D01*
X87272761Y-50300000D01*
X87415619Y-50252380D01*
X87510857Y-50252380D01*
X87653714Y-50300000D01*
X87701333Y-50347619D01*
X86058476Y-69032380D02*
X86058476Y-68032380D01*
X86629904Y-69032380D01*
X86629904Y-68032380D01*
X87296571Y-68032380D02*
X87487047Y-68032380D01*
X87582285Y-68080000D01*
X87677523Y-68175238D01*
X87725142Y-68365714D01*
X87725142Y-68699047D01*
X87677523Y-68889523D01*
X87582285Y-68984761D01*
X87487047Y-69032380D01*
X87296571Y-69032380D01*
X87201333Y-68984761D01*
X87106095Y-68889523D01*
X87058476Y-68699047D01*
X87058476Y-68365714D01*
X87106095Y-68175238D01*
X87201333Y-68080000D01*
X87296571Y-68032380D01*
X82653142Y-60475714D02*
X82700761Y-60523333D01*
X82748380Y-60666190D01*
X82748380Y-60761428D01*
X82700761Y-60904285D01*
X82605523Y-60999523D01*
X82510285Y-61047142D01*
X82319809Y-61094761D01*
X82176952Y-61094761D01*
X81986476Y-61047142D01*
X81891238Y-60999523D01*
X81796000Y-60904285D01*
X81748380Y-60761428D01*
X81748380Y-60666190D01*
X81796000Y-60523333D01*
X81843619Y-60475714D01*
X81748380Y-59856666D02*
X81748380Y-59666190D01*
X81796000Y-59570952D01*
X81891238Y-59475714D01*
X82081714Y-59428095D01*
X82415047Y-59428095D01*
X82605523Y-59475714D01*
X82700761Y-59570952D01*
X82748380Y-59666190D01*
X82748380Y-59856666D01*
X82700761Y-59951904D01*
X82605523Y-60047142D01*
X82415047Y-60094761D01*
X82081714Y-60094761D01*
X81891238Y-60047142D01*
X81796000Y-59951904D01*
X81748380Y-59856666D01*
X82748380Y-58999523D02*
X81748380Y-58999523D01*
X82462666Y-58666190D01*
X81748380Y-58332857D01*
X82748380Y-58332857D01*
X37695238Y-57110476D02*
X37647619Y-57253333D01*
X37647619Y-57491428D01*
X37695238Y-57586666D01*
X37742857Y-57634285D01*
X37838095Y-57681904D01*
X37933333Y-57681904D01*
X38028571Y-57634285D01*
X38076190Y-57586666D01*
X38123809Y-57491428D01*
X38171428Y-57300952D01*
X38219047Y-57205714D01*
X38266666Y-57158095D01*
X38361904Y-57110476D01*
X38457142Y-57110476D01*
X38552380Y-57158095D01*
X38600000Y-57205714D01*
X38647619Y-57300952D01*
X38647619Y-57539047D01*
X38600000Y-57681904D01*
X38600000Y-58634285D02*
X38647619Y-58539047D01*
X38647619Y-58396190D01*
X38600000Y-58253333D01*
X38504761Y-58158095D01*
X38409523Y-58110476D01*
X38219047Y-58062857D01*
X38076190Y-58062857D01*
X37885714Y-58110476D01*
X37790476Y-58158095D01*
X37695238Y-58253333D01*
X37647619Y-58396190D01*
X37647619Y-58491428D01*
X37695238Y-58634285D01*
X37742857Y-58681904D01*
X38076190Y-58681904D01*
X38076190Y-58491428D01*
X37647619Y-59110476D02*
X38647619Y-59110476D01*
X37647619Y-59681904D01*
X38647619Y-59681904D01*
X35369523Y-52792380D02*
X34893333Y-52792380D01*
X34845714Y-53268571D01*
X34893333Y-53220952D01*
X34988571Y-53173333D01*
X35226666Y-53173333D01*
X35321904Y-53220952D01*
X35369523Y-53268571D01*
X35417142Y-53363809D01*
X35417142Y-53601904D01*
X35369523Y-53697142D01*
X35321904Y-53744761D01*
X35226666Y-53792380D01*
X34988571Y-53792380D01*
X34893333Y-53744761D01*
X34845714Y-53697142D01*
X35702857Y-52792380D02*
X36036190Y-53792380D01*
X36369523Y-52792380D01*
X34798095Y-63635000D02*
X34702857Y-63587380D01*
X34560000Y-63587380D01*
X34417142Y-63635000D01*
X34321904Y-63730238D01*
X34274285Y-63825476D01*
X34226666Y-64015952D01*
X34226666Y-64158809D01*
X34274285Y-64349285D01*
X34321904Y-64444523D01*
X34417142Y-64539761D01*
X34560000Y-64587380D01*
X34655238Y-64587380D01*
X34798095Y-64539761D01*
X34845714Y-64492142D01*
X34845714Y-64158809D01*
X34655238Y-64158809D01*
X35274285Y-64587380D02*
X35274285Y-63587380D01*
X35845714Y-64587380D01*
X35845714Y-63587380D01*
X36321904Y-64587380D02*
X36321904Y-63587380D01*
X36560000Y-63587380D01*
X36702857Y-63635000D01*
X36798095Y-63730238D01*
X36845714Y-63825476D01*
X36893333Y-64015952D01*
X36893333Y-64158809D01*
X36845714Y-64349285D01*
X36798095Y-64444523D01*
X36702857Y-64539761D01*
X36560000Y-64587380D01*
X36321904Y-64587380D01*
D11*
X68480000Y-69315000D02*
X68480000Y-61575000D01*
X71220000Y-69315000D02*
X71220000Y-61575000D01*
X68480000Y-69315000D02*
X71220000Y-69315000D01*
X68480000Y-61575000D02*
X71220000Y-61575000D01*
X62765000Y-61575000D02*
X65505000Y-61575000D01*
X62765000Y-69315000D02*
X65505000Y-69315000D01*
X65505000Y-69315000D02*
X65505000Y-61575000D01*
X62765000Y-69315000D02*
X62765000Y-61575000D01*
X48075000Y-68580462D02*
G75*
G03X42525000Y-67035170I-2990000J462D01*
G01*
X48075000Y-68579538D02*
G75*
G02X42525000Y-70124830I-2990000J-462D01*
G01*
X47585000Y-68580000D02*
G75*
G03X47585000Y-68580000I-2500000J0D01*
G01*
X42525000Y-67035000D02*
X42525000Y-70125000D01*
X58600000Y-49730000D02*
X58600000Y-46790000D01*
X58600000Y-46790000D02*
X53160000Y-46790000D01*
X53160000Y-46790000D02*
X53160000Y-49730000D01*
X53160000Y-49730000D02*
X58600000Y-49730000D01*
X59620000Y-48260000D02*
X58600000Y-48260000D01*
X52140000Y-48260000D02*
X53160000Y-48260000D01*
X57700000Y-49730000D02*
X57700000Y-46790000D01*
X57580000Y-49730000D02*
X57580000Y-46790000D01*
X57820000Y-49730000D02*
X57820000Y-46790000D01*
X36890000Y-59690000D02*
X34230000Y-59690000D01*
X36890000Y-59690000D02*
X36890000Y-54550000D01*
X36890000Y-54550000D02*
X34230000Y-54550000D01*
X34230000Y-59690000D02*
X34230000Y-54550000D01*
X34230000Y-62290000D02*
X34230000Y-60960000D01*
X35560000Y-62290000D02*
X34230000Y-62290000D01*
X83185000Y-52070000D02*
X90805000Y-52070000D01*
X83185000Y-67310000D02*
X90805000Y-67310000D01*
X84455000Y-52070000D02*
X84455000Y-67310000D01*
X90805000Y-52070000D02*
X90805000Y-67310000D01*
X83185000Y-52070000D02*
X83185000Y-67310000D01*
X78740000Y-55185000D02*
X80070000Y-55185000D01*
X80070000Y-55185000D02*
X80070000Y-56515000D01*
X80070000Y-57785000D02*
X80070000Y-62925000D01*
X77410000Y-62925000D02*
X80070000Y-62925000D01*
X77410000Y-57785000D02*
X77410000Y-62925000D01*
X77410000Y-57785000D02*
X80070000Y-57785000D01*
X46885000Y-50220000D02*
X43285000Y-50220000D01*
X46896875Y-50228259D02*
G75*
G02X45905000Y-54520000I-1811875J-1841741D01*
G01*
X43276555Y-50242316D02*
G75*
G03X44305000Y-54520000I1808445J-1827684D01*
G01*
X47085000Y-64235000D02*
X47085000Y-63905000D01*
X40545000Y-64235000D02*
X47085000Y-64235000D01*
X40545000Y-63905000D02*
X40545000Y-64235000D01*
X47085000Y-61495000D02*
X47085000Y-61825000D01*
X40545000Y-61495000D02*
X47085000Y-61495000D01*
X40545000Y-61825000D02*
X40545000Y-61495000D01*
X47085000Y-60095000D02*
X47085000Y-60425000D01*
X47085000Y-60425000D02*
X40545000Y-60425000D01*
X40545000Y-60425000D02*
X40545000Y-60095000D01*
X47085000Y-58015000D02*
X47085000Y-57685000D01*
X47085000Y-57685000D02*
X40545000Y-57685000D01*
X40545000Y-57685000D02*
X40545000Y-58015000D01*
X75970000Y-61500000D02*
X76300000Y-61500000D01*
X76300000Y-61500000D02*
X76300000Y-68040000D01*
X76300000Y-68040000D02*
X75970000Y-68040000D01*
X73890000Y-61500000D02*
X73560000Y-61500000D01*
X73560000Y-61500000D02*
X73560000Y-68040000D01*
X73560000Y-68040000D02*
X73890000Y-68040000D01*
X65505000Y-52610000D02*
X65175000Y-52610000D01*
X65505000Y-59150000D02*
X65505000Y-52610000D01*
X65175000Y-59150000D02*
X65505000Y-59150000D01*
X62765000Y-52610000D02*
X63095000Y-52610000D01*
X62765000Y-59150000D02*
X62765000Y-52610000D01*
X63095000Y-59150000D02*
X62765000Y-59150000D01*
D10*
X70945000Y-58150000D02*
X70945000Y-51150000D01*
X66745000Y-58150000D02*
X66745000Y-51150000D01*
X66745000Y-51150000D02*
X70945000Y-51150000D01*
X66745000Y-58150000D02*
X70945000Y-58150000D01*
X72460000Y-58150000D02*
X76660000Y-58150000D01*
X72460000Y-51150000D02*
X76660000Y-51150000D01*
X72460000Y-58150000D02*
X72460000Y-51150000D01*
X76660000Y-58150000D02*
X76660000Y-51150000D01*
D11*
X53340000Y-70485000D02*
X55880000Y-70485000D01*
X55880000Y-66040000D02*
X58420000Y-69850000D01*
X58420000Y-67945000D02*
X57150000Y-67945000D01*
X53340000Y-62865000D02*
X55880000Y-62865000D01*
X55880000Y-62865000D02*
X55880000Y-66040000D01*
X55120000Y-54735000D02*
X56130000Y-55755000D01*
X59690000Y-55245000D02*
X59690000Y-53975000D01*
X56900000Y-55245000D02*
X59690000Y-55245000D01*
X52070000Y-55245000D02*
X54360000Y-55245000D01*
X52070000Y-53975000D02*
X52070000Y-55245000D01*
X54360000Y-55245000D02*
X54360000Y-54735000D01*
X54360000Y-54735000D02*
X56900000Y-54735000D01*
X56900000Y-54735000D02*
X56900000Y-55245000D01*
X56900000Y-55245000D02*
X56900000Y-55755000D01*
X56900000Y-55755000D02*
X54360000Y-55755000D01*
X54360000Y-55755000D02*
X54360000Y-55245000D01*
X50380000Y-51025000D02*
X50380000Y-72165000D01*
X50380000Y-72165000D02*
X61380000Y-72165000D01*
X50380000Y-51025000D02*
X61380000Y-51025000D01*
X61380000Y-51025000D02*
X61380000Y-72165000D01*
X56007000Y-66040000D02*
G75*
G03X56007000Y-66040000I-127000J0D01*
G01*
D10*
X70207142Y-65571666D02*
X70254761Y-65619285D01*
X70302380Y-65762142D01*
X70302380Y-65857380D01*
X70254761Y-66000238D01*
X70159523Y-66095476D01*
X70064285Y-66143095D01*
X69873809Y-66190714D01*
X69730952Y-66190714D01*
X69540476Y-66143095D01*
X69445238Y-66095476D01*
X69350000Y-66000238D01*
X69302380Y-65857380D01*
X69302380Y-65762142D01*
X69350000Y-65619285D01*
X69397619Y-65571666D01*
X70302380Y-64619285D02*
X70302380Y-65190714D01*
X70302380Y-64905000D02*
X69302380Y-64905000D01*
X69445238Y-65000238D01*
X69540476Y-65095476D01*
X69588095Y-65190714D01*
X64492142Y-65571666D02*
X64539761Y-65619285D01*
X64587380Y-65762142D01*
X64587380Y-65857380D01*
X64539761Y-66000238D01*
X64444523Y-66095476D01*
X64349285Y-66143095D01*
X64158809Y-66190714D01*
X64015952Y-66190714D01*
X63825476Y-66143095D01*
X63730238Y-66095476D01*
X63635000Y-66000238D01*
X63587380Y-65857380D01*
X63587380Y-65762142D01*
X63635000Y-65619285D01*
X63682619Y-65571666D01*
X63682619Y-65190714D02*
X63635000Y-65143095D01*
X63587380Y-65047857D01*
X63587380Y-64809761D01*
X63635000Y-64714523D01*
X63682619Y-64666904D01*
X63777857Y-64619285D01*
X63873095Y-64619285D01*
X64015952Y-64666904D01*
X64587380Y-65238333D01*
X64587380Y-64619285D01*
X46886904Y-72207380D02*
X46886904Y-71207380D01*
X47125000Y-71207380D01*
X47267857Y-71255000D01*
X47363095Y-71350238D01*
X47410714Y-71445476D01*
X47458333Y-71635952D01*
X47458333Y-71778809D01*
X47410714Y-71969285D01*
X47363095Y-72064523D01*
X47267857Y-72159761D01*
X47125000Y-72207380D01*
X46886904Y-72207380D01*
X48410714Y-72207380D02*
X47839285Y-72207380D01*
X48125000Y-72207380D02*
X48125000Y-71207380D01*
X48029761Y-71350238D01*
X47934523Y-71445476D01*
X47839285Y-71493095D01*
X54506904Y-48712380D02*
X54506904Y-47712380D01*
X54745000Y-47712380D01*
X54887857Y-47760000D01*
X54983095Y-47855238D01*
X55030714Y-47950476D01*
X55078333Y-48140952D01*
X55078333Y-48283809D01*
X55030714Y-48474285D01*
X54983095Y-48569523D01*
X54887857Y-48664761D01*
X54745000Y-48712380D01*
X54506904Y-48712380D01*
X55459285Y-47807619D02*
X55506904Y-47760000D01*
X55602142Y-47712380D01*
X55840238Y-47712380D01*
X55935476Y-47760000D01*
X55983095Y-47807619D01*
X56030714Y-47902857D01*
X56030714Y-47998095D01*
X55983095Y-48140952D01*
X55411666Y-48712380D01*
X56030714Y-48712380D01*
X63238095Y-48712380D02*
X63238095Y-47712380D01*
X63809523Y-48712380D02*
X63380952Y-48140952D01*
X63809523Y-47712380D02*
X63238095Y-48283809D01*
X37766666Y-53427380D02*
X37766666Y-54141666D01*
X37719047Y-54284523D01*
X37623809Y-54379761D01*
X37480952Y-54427380D01*
X37385714Y-54427380D01*
X38766666Y-54427380D02*
X38195238Y-54427380D01*
X38480952Y-54427380D02*
X38480952Y-53427380D01*
X38385714Y-53570238D01*
X38290476Y-53665476D01*
X38195238Y-53713095D01*
X88987380Y-58118333D02*
X89701666Y-58118333D01*
X89844523Y-58165952D01*
X89939761Y-58261190D01*
X89987380Y-58404047D01*
X89987380Y-58499285D01*
X89082619Y-57689761D02*
X89035000Y-57642142D01*
X88987380Y-57546904D01*
X88987380Y-57308809D01*
X89035000Y-57213571D01*
X89082619Y-57165952D01*
X89177857Y-57118333D01*
X89273095Y-57118333D01*
X89415952Y-57165952D01*
X89987380Y-57737380D01*
X89987380Y-57118333D01*
X78406666Y-53197380D02*
X78406666Y-53911666D01*
X78359047Y-54054523D01*
X78263809Y-54149761D01*
X78120952Y-54197380D01*
X78025714Y-54197380D01*
X78787619Y-53197380D02*
X79406666Y-53197380D01*
X79073333Y-53578333D01*
X79216190Y-53578333D01*
X79311428Y-53625952D01*
X79359047Y-53673571D01*
X79406666Y-53768809D01*
X79406666Y-54006904D01*
X79359047Y-54102142D01*
X79311428Y-54149761D01*
X79216190Y-54197380D01*
X78930476Y-54197380D01*
X78835238Y-54149761D01*
X78787619Y-54102142D01*
X43092619Y-54705238D02*
X43045000Y-54800476D01*
X42949761Y-54895714D01*
X42806904Y-55038571D01*
X42759285Y-55133809D01*
X42759285Y-55229047D01*
X42997380Y-55181428D02*
X42949761Y-55276666D01*
X42854523Y-55371904D01*
X42664047Y-55419523D01*
X42330714Y-55419523D01*
X42140238Y-55371904D01*
X42045000Y-55276666D01*
X41997380Y-55181428D01*
X41997380Y-54990952D01*
X42045000Y-54895714D01*
X42140238Y-54800476D01*
X42330714Y-54752857D01*
X42664047Y-54752857D01*
X42854523Y-54800476D01*
X42949761Y-54895714D01*
X42997380Y-54990952D01*
X42997380Y-55181428D01*
X42997380Y-53800476D02*
X42997380Y-54371904D01*
X42997380Y-54086190D02*
X41997380Y-54086190D01*
X42140238Y-54181428D01*
X42235476Y-54276666D01*
X42283095Y-54371904D01*
X43648333Y-63317380D02*
X43315000Y-62841190D01*
X43076904Y-63317380D02*
X43076904Y-62317380D01*
X43457857Y-62317380D01*
X43553095Y-62365000D01*
X43600714Y-62412619D01*
X43648333Y-62507857D01*
X43648333Y-62650714D01*
X43600714Y-62745952D01*
X43553095Y-62793571D01*
X43457857Y-62841190D01*
X43076904Y-62841190D01*
X44600714Y-63317380D02*
X44029285Y-63317380D01*
X44315000Y-63317380D02*
X44315000Y-62317380D01*
X44219761Y-62460238D01*
X44124523Y-62555476D01*
X44029285Y-62603095D01*
X43648333Y-59507380D02*
X43315000Y-59031190D01*
X43076904Y-59507380D02*
X43076904Y-58507380D01*
X43457857Y-58507380D01*
X43553095Y-58555000D01*
X43600714Y-58602619D01*
X43648333Y-58697857D01*
X43648333Y-58840714D01*
X43600714Y-58935952D01*
X43553095Y-58983571D01*
X43457857Y-59031190D01*
X43076904Y-59031190D01*
X44029285Y-58602619D02*
X44076904Y-58555000D01*
X44172142Y-58507380D01*
X44410238Y-58507380D01*
X44505476Y-58555000D01*
X44553095Y-58602619D01*
X44600714Y-58697857D01*
X44600714Y-58793095D01*
X44553095Y-58935952D01*
X43981666Y-59507380D01*
X44600714Y-59507380D01*
X75382380Y-64936666D02*
X74906190Y-65270000D01*
X75382380Y-65508095D02*
X74382380Y-65508095D01*
X74382380Y-65127142D01*
X74430000Y-65031904D01*
X74477619Y-64984285D01*
X74572857Y-64936666D01*
X74715714Y-64936666D01*
X74810952Y-64984285D01*
X74858571Y-65031904D01*
X74906190Y-65127142D01*
X74906190Y-65508095D01*
X74382380Y-64603333D02*
X74382380Y-63984285D01*
X74763333Y-64317619D01*
X74763333Y-64174761D01*
X74810952Y-64079523D01*
X74858571Y-64031904D01*
X74953809Y-63984285D01*
X75191904Y-63984285D01*
X75287142Y-64031904D01*
X75334761Y-64079523D01*
X75382380Y-64174761D01*
X75382380Y-64460476D01*
X75334761Y-64555714D01*
X75287142Y-64603333D01*
X64587380Y-56046666D02*
X64111190Y-56380000D01*
X64587380Y-56618095D02*
X63587380Y-56618095D01*
X63587380Y-56237142D01*
X63635000Y-56141904D01*
X63682619Y-56094285D01*
X63777857Y-56046666D01*
X63920714Y-56046666D01*
X64015952Y-56094285D01*
X64063571Y-56141904D01*
X64111190Y-56237142D01*
X64111190Y-56618095D01*
X63920714Y-55189523D02*
X64587380Y-55189523D01*
X63539761Y-55427619D02*
X64254047Y-55665714D01*
X64254047Y-55046666D01*
X69667380Y-55245238D02*
X69191190Y-55578571D01*
X69667380Y-55816666D02*
X68667380Y-55816666D01*
X68667380Y-55435714D01*
X68715000Y-55340476D01*
X68762619Y-55292857D01*
X68857857Y-55245238D01*
X69000714Y-55245238D01*
X69095952Y-55292857D01*
X69143571Y-55340476D01*
X69191190Y-55435714D01*
X69191190Y-55816666D01*
X68667380Y-54959523D02*
X69667380Y-54626190D01*
X68667380Y-54292857D01*
X69667380Y-53435714D02*
X69667380Y-54007142D01*
X69667380Y-53721428D02*
X68667380Y-53721428D01*
X68810238Y-53816666D01*
X68905476Y-53911904D01*
X68953095Y-54007142D01*
X74747380Y-55205238D02*
X74271190Y-55538571D01*
X74747380Y-55776666D02*
X73747380Y-55776666D01*
X73747380Y-55395714D01*
X73795000Y-55300476D01*
X73842619Y-55252857D01*
X73937857Y-55205238D01*
X74080714Y-55205238D01*
X74175952Y-55252857D01*
X74223571Y-55300476D01*
X74271190Y-55395714D01*
X74271190Y-55776666D01*
X73747380Y-54919523D02*
X74747380Y-54586190D01*
X73747380Y-54252857D01*
X73842619Y-53967142D02*
X73795000Y-53919523D01*
X73747380Y-53824285D01*
X73747380Y-53586190D01*
X73795000Y-53490952D01*
X73842619Y-53443333D01*
X73937857Y-53395714D01*
X74033095Y-53395714D01*
X74175952Y-53443333D01*
X74747380Y-54014761D01*
X74747380Y-53395714D01*
X55141904Y-59507380D02*
X55141904Y-58507380D01*
X55713333Y-59507380D02*
X55284761Y-58935952D01*
X55713333Y-58507380D02*
X55141904Y-59078809D01*
X56665714Y-59507380D02*
X56094285Y-59507380D01*
X56380000Y-59507380D02*
X56380000Y-58507380D01*
X56284761Y-58650238D01*
X56189523Y-58745476D01*
X56094285Y-58793095D01*
X79248095Y-64832380D02*
X79248095Y-63832380D01*
X79248095Y-64308571D02*
X79819523Y-64308571D01*
X79819523Y-64832380D02*
X79819523Y-63832380D01*
X80819523Y-64832380D02*
X80248095Y-64832380D01*
X80533809Y-64832380D02*
X80533809Y-63832380D01*
X80438571Y-63975238D01*
X80343333Y-64070476D01*
X80248095Y-64118095D01*
X39878095Y-72207380D02*
X39878095Y-71207380D01*
X39878095Y-71683571D02*
X40449523Y-71683571D01*
X40449523Y-72207380D02*
X40449523Y-71207380D01*
X40878095Y-71302619D02*
X40925714Y-71255000D01*
X41020952Y-71207380D01*
X41259047Y-71207380D01*
X41354285Y-71255000D01*
X41401904Y-71302619D01*
X41449523Y-71397857D01*
X41449523Y-71493095D01*
X41401904Y-71635952D01*
X40830476Y-72207380D01*
X41449523Y-72207380D01*
X74168095Y-49347380D02*
X74168095Y-48347380D01*
X74168095Y-48823571D02*
X74739523Y-48823571D01*
X74739523Y-49347380D02*
X74739523Y-48347380D01*
X75120476Y-48347380D02*
X75739523Y-48347380D01*
X75406190Y-48728333D01*
X75549047Y-48728333D01*
X75644285Y-48775952D01*
X75691904Y-48823571D01*
X75739523Y-48918809D01*
X75739523Y-49156904D01*
X75691904Y-49252142D01*
X75644285Y-49299761D01*
X75549047Y-49347380D01*
X75263333Y-49347380D01*
X75168095Y-49299761D01*
X75120476Y-49252142D01*
X40513095Y-46807380D02*
X40513095Y-45807380D01*
X40513095Y-46283571D02*
X41084523Y-46283571D01*
X41084523Y-46807380D02*
X41084523Y-45807380D01*
X41989285Y-46140714D02*
X41989285Y-46807380D01*
X41751190Y-45759761D02*
X41513095Y-46474047D01*
X42132142Y-46474047D01*
M02*
