G04 #@! TF.GenerationSoftware,KiCad,Pcbnew,(5.1.4-0-10_14)*
G04 #@! TF.CreationDate,2022-05-28T07:52:33+02:00*
G04 #@! TF.ProjectId,new_rele,6e65775f-7265-46c6-952e-6b696361645f,rev?*
G04 #@! TF.SameCoordinates,Original*
G04 #@! TF.FileFunction,Soldermask,Top*
G04 #@! TF.FilePolarity,Negative*
%FSLAX46Y46*%
G04 Gerber Fmt 4.6, Leading zero omitted, Abs format (unit mm)*
G04 Created by KiCad (PCBNEW (5.1.4-0-10_14)) date 2022-05-28 07:52:33*
%MOMM*%
%LPD*%
G04 APERTURE LIST*
%ADD10C,0.100000*%
G04 APERTURE END LIST*
D10*
G36*
X52420318Y-69330153D02*
G01*
X52638885Y-69420687D01*
X52638887Y-69420688D01*
X52835593Y-69552122D01*
X53002878Y-69719407D01*
X53098432Y-69862415D01*
X53134313Y-69916115D01*
X53224847Y-70134682D01*
X53271000Y-70366710D01*
X53271000Y-70603290D01*
X53224847Y-70835318D01*
X53134313Y-71053885D01*
X53134312Y-71053887D01*
X53002878Y-71250593D01*
X52835593Y-71417878D01*
X52638887Y-71549312D01*
X52638886Y-71549313D01*
X52638885Y-71549313D01*
X52420318Y-71639847D01*
X52188290Y-71686000D01*
X51951710Y-71686000D01*
X51719682Y-71639847D01*
X51501115Y-71549313D01*
X51501114Y-71549313D01*
X51501113Y-71549312D01*
X51304407Y-71417878D01*
X51137122Y-71250593D01*
X51005688Y-71053887D01*
X51005687Y-71053885D01*
X50915153Y-70835318D01*
X50869000Y-70603290D01*
X50869000Y-70366710D01*
X50915153Y-70134682D01*
X51005687Y-69916115D01*
X51041568Y-69862415D01*
X51137122Y-69719407D01*
X51304407Y-69552122D01*
X51501113Y-69420688D01*
X51501115Y-69420687D01*
X51719682Y-69330153D01*
X51951710Y-69284000D01*
X52188290Y-69284000D01*
X52420318Y-69330153D01*
X52420318Y-69330153D01*
G37*
G36*
X80385256Y-66971298D02*
G01*
X80491579Y-66992447D01*
X80792042Y-67116903D01*
X81062451Y-67297585D01*
X81292415Y-67527549D01*
X81473097Y-67797958D01*
X81473098Y-67797960D01*
X81485007Y-67826712D01*
X81597553Y-68098421D01*
X81603742Y-68129534D01*
X81661000Y-68417389D01*
X81661000Y-68742611D01*
X81628253Y-68907239D01*
X81597553Y-69061579D01*
X81545923Y-69186225D01*
X81486306Y-69330154D01*
X81473097Y-69362042D01*
X81292415Y-69632451D01*
X81062451Y-69862415D01*
X80792042Y-70043097D01*
X80491579Y-70167553D01*
X80385256Y-70188702D01*
X80172611Y-70231000D01*
X79847389Y-70231000D01*
X79634744Y-70188702D01*
X79528421Y-70167553D01*
X79227958Y-70043097D01*
X78957549Y-69862415D01*
X78727585Y-69632451D01*
X78546903Y-69362042D01*
X78533695Y-69330154D01*
X78474077Y-69186225D01*
X78422447Y-69061579D01*
X78391747Y-68907239D01*
X78359000Y-68742611D01*
X78359000Y-68417389D01*
X78416258Y-68129534D01*
X78422447Y-68098421D01*
X78534993Y-67826712D01*
X78546902Y-67797960D01*
X78546903Y-67797958D01*
X78727585Y-67527549D01*
X78957549Y-67297585D01*
X79227958Y-67116903D01*
X79528421Y-66992447D01*
X79634744Y-66971298D01*
X79847389Y-66929000D01*
X80172611Y-66929000D01*
X80385256Y-66971298D01*
X80385256Y-66971298D01*
G37*
G36*
X37840256Y-66971298D02*
G01*
X37946579Y-66992447D01*
X38247042Y-67116903D01*
X38517451Y-67297585D01*
X38747415Y-67527549D01*
X38928097Y-67797958D01*
X38928098Y-67797960D01*
X38940007Y-67826712D01*
X39052553Y-68098421D01*
X39058742Y-68129534D01*
X39116000Y-68417389D01*
X39116000Y-68742611D01*
X39083253Y-68907239D01*
X39052553Y-69061579D01*
X39000923Y-69186225D01*
X38941306Y-69330154D01*
X38928097Y-69362042D01*
X38747415Y-69632451D01*
X38517451Y-69862415D01*
X38247042Y-70043097D01*
X37946579Y-70167553D01*
X37840256Y-70188702D01*
X37627611Y-70231000D01*
X37302389Y-70231000D01*
X37089744Y-70188702D01*
X36983421Y-70167553D01*
X36682958Y-70043097D01*
X36412549Y-69862415D01*
X36182585Y-69632451D01*
X36001903Y-69362042D01*
X35988695Y-69330154D01*
X35929077Y-69186225D01*
X35877447Y-69061579D01*
X35846747Y-68907239D01*
X35814000Y-68742611D01*
X35814000Y-68417389D01*
X35871258Y-68129534D01*
X35877447Y-68098421D01*
X35989993Y-67826712D01*
X36001902Y-67797960D01*
X36001903Y-67797958D01*
X36182585Y-67527549D01*
X36412549Y-67297585D01*
X36682958Y-67116903D01*
X36983421Y-66992447D01*
X37089744Y-66971298D01*
X37302389Y-66929000D01*
X37627611Y-66929000D01*
X37840256Y-66971298D01*
X37840256Y-66971298D01*
G37*
G36*
X46632395Y-67665546D02*
G01*
X46805466Y-67737234D01*
X46811572Y-67741314D01*
X46961227Y-67841310D01*
X47093690Y-67973773D01*
X47143630Y-68048514D01*
X47197766Y-68129534D01*
X47269454Y-68302605D01*
X47306000Y-68486333D01*
X47306000Y-68673667D01*
X47269454Y-68857395D01*
X47197766Y-69030466D01*
X47176977Y-69061579D01*
X47093690Y-69186227D01*
X46961227Y-69318690D01*
X46896349Y-69362040D01*
X46805466Y-69422766D01*
X46632395Y-69494454D01*
X46448667Y-69531000D01*
X46261333Y-69531000D01*
X46077605Y-69494454D01*
X45904534Y-69422766D01*
X45813651Y-69362040D01*
X45748773Y-69318690D01*
X45616310Y-69186227D01*
X45533023Y-69061579D01*
X45512234Y-69030466D01*
X45440546Y-68857395D01*
X45404000Y-68673667D01*
X45404000Y-68486333D01*
X45440546Y-68302605D01*
X45512234Y-68129534D01*
X45566370Y-68048514D01*
X45616310Y-67973773D01*
X45748773Y-67841310D01*
X45898428Y-67741314D01*
X45904534Y-67737234D01*
X46077605Y-67665546D01*
X46261333Y-67629000D01*
X46448667Y-67629000D01*
X46632395Y-67665546D01*
X46632395Y-67665546D01*
G37*
G36*
X44766000Y-69531000D02*
G01*
X42864000Y-69531000D01*
X42864000Y-67629000D01*
X44766000Y-67629000D01*
X44766000Y-69531000D01*
X44766000Y-69531000D01*
G37*
G36*
X75096823Y-67741313D02*
G01*
X75257242Y-67789976D01*
X75353610Y-67841486D01*
X75405078Y-67868996D01*
X75534659Y-67975341D01*
X75641004Y-68104922D01*
X75641005Y-68104924D01*
X75720024Y-68252758D01*
X75768687Y-68413177D01*
X75785117Y-68580000D01*
X75768687Y-68746823D01*
X75720024Y-68907242D01*
X75694170Y-68955611D01*
X75641004Y-69055078D01*
X75534659Y-69184659D01*
X75405078Y-69291004D01*
X75405076Y-69291005D01*
X75257242Y-69370024D01*
X75096823Y-69418687D01*
X74971804Y-69431000D01*
X74888196Y-69431000D01*
X74763177Y-69418687D01*
X74602758Y-69370024D01*
X74454924Y-69291005D01*
X74454922Y-69291004D01*
X74325341Y-69184659D01*
X74218996Y-69055078D01*
X74165830Y-68955611D01*
X74139976Y-68907242D01*
X74091313Y-68746823D01*
X74074883Y-68580000D01*
X74091313Y-68413177D01*
X74139976Y-68252758D01*
X74218995Y-68104924D01*
X74218996Y-68104922D01*
X74325341Y-67975341D01*
X74454922Y-67868996D01*
X74506390Y-67841486D01*
X74602758Y-67789976D01*
X74763177Y-67741313D01*
X74888196Y-67729000D01*
X74971804Y-67729000D01*
X75096823Y-67741313D01*
X75096823Y-67741313D01*
G37*
G36*
X60040318Y-66790153D02*
G01*
X60258885Y-66880687D01*
X60258887Y-66880688D01*
X60455593Y-67012122D01*
X60622878Y-67179407D01*
X60754312Y-67376113D01*
X60754313Y-67376115D01*
X60844847Y-67594682D01*
X60891000Y-67826710D01*
X60891000Y-68063290D01*
X60844847Y-68295318D01*
X60754313Y-68513885D01*
X60754312Y-68513887D01*
X60622878Y-68710593D01*
X60455593Y-68877878D01*
X60258887Y-69009312D01*
X60258886Y-69009313D01*
X60258885Y-69009313D01*
X60040318Y-69099847D01*
X59808290Y-69146000D01*
X59571710Y-69146000D01*
X59339682Y-69099847D01*
X59121115Y-69009313D01*
X59121114Y-69009313D01*
X59121113Y-69009312D01*
X58924407Y-68877878D01*
X58757122Y-68710593D01*
X58625688Y-68513887D01*
X58625687Y-68513885D01*
X58535153Y-68295318D01*
X58489000Y-68063290D01*
X58489000Y-67826710D01*
X58535153Y-67594682D01*
X58625687Y-67376115D01*
X58625688Y-67376113D01*
X58757122Y-67179407D01*
X58924407Y-67012122D01*
X59121113Y-66880688D01*
X59121115Y-66880687D01*
X59339682Y-66790153D01*
X59571710Y-66744000D01*
X59808290Y-66744000D01*
X60040318Y-66790153D01*
X60040318Y-66790153D01*
G37*
G36*
X70156564Y-66934389D02*
G01*
X70347833Y-67013615D01*
X70347835Y-67013616D01*
X70519973Y-67128635D01*
X70666365Y-67275027D01*
X70733909Y-67376113D01*
X70781385Y-67447167D01*
X70860611Y-67638436D01*
X70901000Y-67841484D01*
X70901000Y-68048516D01*
X70860611Y-68251564D01*
X70793669Y-68413177D01*
X70781384Y-68442835D01*
X70666365Y-68614973D01*
X70519973Y-68761365D01*
X70347835Y-68876384D01*
X70347834Y-68876385D01*
X70347833Y-68876385D01*
X70156564Y-68955611D01*
X69953516Y-68996000D01*
X69746484Y-68996000D01*
X69543436Y-68955611D01*
X69352167Y-68876385D01*
X69352166Y-68876385D01*
X69352165Y-68876384D01*
X69180027Y-68761365D01*
X69033635Y-68614973D01*
X68918616Y-68442835D01*
X68906331Y-68413177D01*
X68839389Y-68251564D01*
X68799000Y-68048516D01*
X68799000Y-67841484D01*
X68839389Y-67638436D01*
X68918615Y-67447167D01*
X68966092Y-67376113D01*
X69033635Y-67275027D01*
X69180027Y-67128635D01*
X69352165Y-67013616D01*
X69352167Y-67013615D01*
X69543436Y-66934389D01*
X69746484Y-66894000D01*
X69953516Y-66894000D01*
X70156564Y-66934389D01*
X70156564Y-66934389D01*
G37*
G36*
X64441564Y-66934389D02*
G01*
X64632833Y-67013615D01*
X64632835Y-67013616D01*
X64804973Y-67128635D01*
X64951365Y-67275027D01*
X65018909Y-67376113D01*
X65066385Y-67447167D01*
X65145611Y-67638436D01*
X65186000Y-67841484D01*
X65186000Y-68048516D01*
X65145611Y-68251564D01*
X65078669Y-68413177D01*
X65066384Y-68442835D01*
X64951365Y-68614973D01*
X64804973Y-68761365D01*
X64632835Y-68876384D01*
X64632834Y-68876385D01*
X64632833Y-68876385D01*
X64441564Y-68955611D01*
X64238516Y-68996000D01*
X64031484Y-68996000D01*
X63828436Y-68955611D01*
X63637167Y-68876385D01*
X63637166Y-68876385D01*
X63637165Y-68876384D01*
X63465027Y-68761365D01*
X63318635Y-68614973D01*
X63203616Y-68442835D01*
X63191331Y-68413177D01*
X63124389Y-68251564D01*
X63084000Y-68048516D01*
X63084000Y-67841484D01*
X63124389Y-67638436D01*
X63203615Y-67447167D01*
X63251092Y-67376113D01*
X63318635Y-67275027D01*
X63465027Y-67128635D01*
X63637165Y-67013616D01*
X63637167Y-67013615D01*
X63828436Y-66934389D01*
X64031484Y-66894000D01*
X64238516Y-66894000D01*
X64441564Y-66934389D01*
X64441564Y-66934389D01*
G37*
G36*
X87297585Y-63248802D02*
G01*
X87447410Y-63278604D01*
X87729674Y-63395521D01*
X87983705Y-63565259D01*
X88199741Y-63781295D01*
X88369479Y-64035326D01*
X88486396Y-64317590D01*
X88546000Y-64617240D01*
X88546000Y-64922760D01*
X88486396Y-65222410D01*
X88369479Y-65504674D01*
X88199741Y-65758705D01*
X87983705Y-65974741D01*
X87729674Y-66144479D01*
X87447410Y-66261396D01*
X87297585Y-66291198D01*
X87147761Y-66321000D01*
X86842239Y-66321000D01*
X86692415Y-66291198D01*
X86542590Y-66261396D01*
X86260326Y-66144479D01*
X86006295Y-65974741D01*
X85790259Y-65758705D01*
X85620521Y-65504674D01*
X85503604Y-65222410D01*
X85444000Y-64922760D01*
X85444000Y-64617240D01*
X85503604Y-64317590D01*
X85620521Y-64035326D01*
X85790259Y-63781295D01*
X86006295Y-63565259D01*
X86260326Y-63395521D01*
X86542590Y-63278604D01*
X86692415Y-63248802D01*
X86842239Y-63219000D01*
X87147761Y-63219000D01*
X87297585Y-63248802D01*
X87297585Y-63248802D01*
G37*
G36*
X52420318Y-61710153D02*
G01*
X52638885Y-61800687D01*
X52638887Y-61800688D01*
X52835593Y-61932122D01*
X53002878Y-62099407D01*
X53134312Y-62296113D01*
X53134313Y-62296115D01*
X53224847Y-62514682D01*
X53271000Y-62746710D01*
X53271000Y-62983290D01*
X53224847Y-63215318D01*
X53173170Y-63340076D01*
X53134312Y-63433887D01*
X53002878Y-63630593D01*
X52835593Y-63797878D01*
X52638887Y-63929312D01*
X52638886Y-63929313D01*
X52638885Y-63929313D01*
X52420318Y-64019847D01*
X52188290Y-64066000D01*
X51951710Y-64066000D01*
X51719682Y-64019847D01*
X51501115Y-63929313D01*
X51501114Y-63929313D01*
X51501113Y-63929312D01*
X51304407Y-63797878D01*
X51137122Y-63630593D01*
X51005688Y-63433887D01*
X50966830Y-63340076D01*
X50915153Y-63215318D01*
X50869000Y-62983290D01*
X50869000Y-62746710D01*
X50915153Y-62514682D01*
X51005687Y-62296115D01*
X51005688Y-62296113D01*
X51137122Y-62099407D01*
X51304407Y-61932122D01*
X51501113Y-61800688D01*
X51501115Y-61800687D01*
X51719682Y-61710153D01*
X51951710Y-61664000D01*
X52188290Y-61664000D01*
X52420318Y-61710153D01*
X52420318Y-61710153D01*
G37*
G36*
X70156564Y-61934389D02*
G01*
X70347833Y-62013615D01*
X70347835Y-62013616D01*
X70474108Y-62097989D01*
X70519973Y-62128635D01*
X70666365Y-62275027D01*
X70781385Y-62447167D01*
X70860611Y-62638436D01*
X70901000Y-62841484D01*
X70901000Y-63048516D01*
X70860611Y-63251564D01*
X70781385Y-63442833D01*
X70781384Y-63442835D01*
X70666365Y-63614973D01*
X70519973Y-63761365D01*
X70347835Y-63876384D01*
X70347834Y-63876385D01*
X70347833Y-63876385D01*
X70156564Y-63955611D01*
X69953516Y-63996000D01*
X69746484Y-63996000D01*
X69543436Y-63955611D01*
X69352167Y-63876385D01*
X69352166Y-63876385D01*
X69352165Y-63876384D01*
X69180027Y-63761365D01*
X69033635Y-63614973D01*
X68918616Y-63442835D01*
X68918615Y-63442833D01*
X68839389Y-63251564D01*
X68799000Y-63048516D01*
X68799000Y-62841484D01*
X68839389Y-62638436D01*
X68918615Y-62447167D01*
X69033635Y-62275027D01*
X69180027Y-62128635D01*
X69225892Y-62097989D01*
X69352165Y-62013616D01*
X69352167Y-62013615D01*
X69543436Y-61934389D01*
X69746484Y-61894000D01*
X69953516Y-61894000D01*
X70156564Y-61934389D01*
X70156564Y-61934389D01*
G37*
G36*
X64441564Y-61934389D02*
G01*
X64632833Y-62013615D01*
X64632835Y-62013616D01*
X64759108Y-62097989D01*
X64804973Y-62128635D01*
X64951365Y-62275027D01*
X65066385Y-62447167D01*
X65145611Y-62638436D01*
X65186000Y-62841484D01*
X65186000Y-63048516D01*
X65145611Y-63251564D01*
X65066385Y-63442833D01*
X65066384Y-63442835D01*
X64951365Y-63614973D01*
X64804973Y-63761365D01*
X64632835Y-63876384D01*
X64632834Y-63876385D01*
X64632833Y-63876385D01*
X64441564Y-63955611D01*
X64238516Y-63996000D01*
X64031484Y-63996000D01*
X63828436Y-63955611D01*
X63637167Y-63876385D01*
X63637166Y-63876385D01*
X63637165Y-63876384D01*
X63465027Y-63761365D01*
X63318635Y-63614973D01*
X63203616Y-63442835D01*
X63203615Y-63442833D01*
X63124389Y-63251564D01*
X63084000Y-63048516D01*
X63084000Y-62841484D01*
X63124389Y-62638436D01*
X63203615Y-62447167D01*
X63318635Y-62275027D01*
X63465027Y-62128635D01*
X63510892Y-62097989D01*
X63637165Y-62013616D01*
X63637167Y-62013615D01*
X63828436Y-61934389D01*
X64031484Y-61894000D01*
X64238516Y-61894000D01*
X64441564Y-61934389D01*
X64441564Y-61934389D01*
G37*
G36*
X40253228Y-62046703D02*
G01*
X40408100Y-62110853D01*
X40547481Y-62203985D01*
X40666015Y-62322519D01*
X40759147Y-62461900D01*
X40823297Y-62616772D01*
X40856000Y-62781184D01*
X40856000Y-62948816D01*
X40823297Y-63113228D01*
X40759147Y-63268100D01*
X40666015Y-63407481D01*
X40547481Y-63526015D01*
X40408100Y-63619147D01*
X40253228Y-63683297D01*
X40088816Y-63716000D01*
X39921184Y-63716000D01*
X39756772Y-63683297D01*
X39601900Y-63619147D01*
X39462519Y-63526015D01*
X39343985Y-63407481D01*
X39250853Y-63268100D01*
X39186703Y-63113228D01*
X39154000Y-62948816D01*
X39154000Y-62781184D01*
X39186703Y-62616772D01*
X39250853Y-62461900D01*
X39343985Y-62322519D01*
X39462519Y-62203985D01*
X39601900Y-62110853D01*
X39756772Y-62046703D01*
X39921184Y-62014000D01*
X40088816Y-62014000D01*
X40253228Y-62046703D01*
X40253228Y-62046703D01*
G37*
G36*
X47791823Y-62026313D02*
G01*
X47952242Y-62074976D01*
X48019361Y-62110852D01*
X48100078Y-62153996D01*
X48229659Y-62260341D01*
X48336004Y-62389922D01*
X48336005Y-62389924D01*
X48415024Y-62537758D01*
X48463687Y-62698177D01*
X48480117Y-62865000D01*
X48463687Y-63031823D01*
X48415024Y-63192242D01*
X48344114Y-63324906D01*
X48336004Y-63340078D01*
X48229659Y-63469659D01*
X48100078Y-63576004D01*
X48100076Y-63576005D01*
X47952242Y-63655024D01*
X47791823Y-63703687D01*
X47666804Y-63716000D01*
X47583196Y-63716000D01*
X47458177Y-63703687D01*
X47297758Y-63655024D01*
X47149924Y-63576005D01*
X47149922Y-63576004D01*
X47020341Y-63469659D01*
X46913996Y-63340078D01*
X46905886Y-63324906D01*
X46834976Y-63192242D01*
X46786313Y-63031823D01*
X46769883Y-62865000D01*
X46786313Y-62698177D01*
X46834976Y-62537758D01*
X46913995Y-62389924D01*
X46913996Y-62389922D01*
X47020341Y-62260341D01*
X47149922Y-62153996D01*
X47230639Y-62110852D01*
X47297758Y-62074976D01*
X47458177Y-62026313D01*
X47583196Y-62014000D01*
X47666804Y-62014000D01*
X47791823Y-62026313D01*
X47791823Y-62026313D01*
G37*
G36*
X78850443Y-60700519D02*
G01*
X78916627Y-60707037D01*
X79086466Y-60758557D01*
X79242991Y-60842222D01*
X79278729Y-60871552D01*
X79380186Y-60954814D01*
X79453226Y-61043815D01*
X79492778Y-61092009D01*
X79576443Y-61248534D01*
X79627963Y-61418373D01*
X79645359Y-61595000D01*
X79627963Y-61771627D01*
X79576443Y-61941466D01*
X79492778Y-62097991D01*
X79482223Y-62110852D01*
X79380186Y-62235186D01*
X79278729Y-62318448D01*
X79242991Y-62347778D01*
X79086466Y-62431443D01*
X78916627Y-62482963D01*
X78850443Y-62489481D01*
X78784260Y-62496000D01*
X78695740Y-62496000D01*
X78629557Y-62489481D01*
X78563373Y-62482963D01*
X78393534Y-62431443D01*
X78237009Y-62347778D01*
X78201271Y-62318448D01*
X78099814Y-62235186D01*
X77997777Y-62110852D01*
X77987222Y-62097991D01*
X77903557Y-61941466D01*
X77852037Y-61771627D01*
X77834641Y-61595000D01*
X77852037Y-61418373D01*
X77903557Y-61248534D01*
X77987222Y-61092009D01*
X78026774Y-61043815D01*
X78099814Y-60954814D01*
X78201271Y-60871552D01*
X78237009Y-60842222D01*
X78393534Y-60758557D01*
X78563373Y-60707037D01*
X78629557Y-60700519D01*
X78695740Y-60694000D01*
X78784260Y-60694000D01*
X78850443Y-60700519D01*
X78850443Y-60700519D01*
G37*
G36*
X36461000Y-61861000D02*
G01*
X34659000Y-61861000D01*
X34659000Y-60059000D01*
X36461000Y-60059000D01*
X36461000Y-61861000D01*
X36461000Y-61861000D01*
G37*
G36*
X75178228Y-60141703D02*
G01*
X75333100Y-60205853D01*
X75472481Y-60298985D01*
X75591015Y-60417519D01*
X75684147Y-60556900D01*
X75748297Y-60711772D01*
X75781000Y-60876184D01*
X75781000Y-61043816D01*
X75748297Y-61208228D01*
X75684147Y-61363100D01*
X75591015Y-61502481D01*
X75472481Y-61621015D01*
X75333100Y-61714147D01*
X75178228Y-61778297D01*
X75013816Y-61811000D01*
X74846184Y-61811000D01*
X74681772Y-61778297D01*
X74526900Y-61714147D01*
X74387519Y-61621015D01*
X74268985Y-61502481D01*
X74175853Y-61363100D01*
X74111703Y-61208228D01*
X74079000Y-61043816D01*
X74079000Y-60876184D01*
X74111703Y-60711772D01*
X74175853Y-60556900D01*
X74268985Y-60417519D01*
X74387519Y-60298985D01*
X74526900Y-60205853D01*
X74681772Y-60141703D01*
X74846184Y-60109000D01*
X75013816Y-60109000D01*
X75178228Y-60141703D01*
X75178228Y-60141703D01*
G37*
G36*
X87288712Y-58167037D02*
G01*
X87447410Y-58198604D01*
X87729674Y-58315521D01*
X87983705Y-58485259D01*
X88199741Y-58701295D01*
X88369479Y-58955326D01*
X88479865Y-59221823D01*
X88486396Y-59237591D01*
X88546000Y-59537239D01*
X88546000Y-59842761D01*
X88539926Y-59873295D01*
X88486396Y-60142410D01*
X88369479Y-60424674D01*
X88199741Y-60678705D01*
X87983705Y-60894741D01*
X87729674Y-61064479D01*
X87447410Y-61181396D01*
X87312516Y-61208228D01*
X87147761Y-61241000D01*
X86842239Y-61241000D01*
X86677484Y-61208228D01*
X86542590Y-61181396D01*
X86260326Y-61064479D01*
X86006295Y-60894741D01*
X85790259Y-60678705D01*
X85620521Y-60424674D01*
X85503604Y-60142410D01*
X85450074Y-59873295D01*
X85444000Y-59842761D01*
X85444000Y-59537239D01*
X85503604Y-59237591D01*
X85510135Y-59221823D01*
X85620521Y-58955326D01*
X85790259Y-58701295D01*
X86006295Y-58485259D01*
X86260326Y-58315521D01*
X86542590Y-58198604D01*
X86701288Y-58167037D01*
X86842239Y-58139000D01*
X87147761Y-58139000D01*
X87288712Y-58167037D01*
X87288712Y-58167037D01*
G37*
G36*
X64383228Y-58871703D02*
G01*
X64538100Y-58935853D01*
X64677481Y-59028985D01*
X64796015Y-59147519D01*
X64889147Y-59286900D01*
X64953297Y-59441772D01*
X64986000Y-59606184D01*
X64986000Y-59773816D01*
X64953297Y-59938228D01*
X64889147Y-60093100D01*
X64796015Y-60232481D01*
X64677481Y-60351015D01*
X64538100Y-60444147D01*
X64383228Y-60508297D01*
X64218816Y-60541000D01*
X64051184Y-60541000D01*
X63886772Y-60508297D01*
X63731900Y-60444147D01*
X63592519Y-60351015D01*
X63473985Y-60232481D01*
X63380853Y-60093100D01*
X63316703Y-59938228D01*
X63284000Y-59773816D01*
X63284000Y-59606184D01*
X63316703Y-59441772D01*
X63380853Y-59286900D01*
X63473985Y-59147519D01*
X63592519Y-59028985D01*
X63731900Y-58935853D01*
X63886772Y-58871703D01*
X64051184Y-58839000D01*
X64218816Y-58839000D01*
X64383228Y-58871703D01*
X64383228Y-58871703D01*
G37*
G36*
X78850442Y-58160518D02*
G01*
X78916627Y-58167037D01*
X79086466Y-58218557D01*
X79242991Y-58302222D01*
X79278729Y-58331552D01*
X79380186Y-58414814D01*
X79460369Y-58512519D01*
X79492778Y-58552009D01*
X79576443Y-58708534D01*
X79627963Y-58878373D01*
X79645359Y-59055000D01*
X79627963Y-59231627D01*
X79576443Y-59401466D01*
X79492778Y-59557991D01*
X79463448Y-59593729D01*
X79380186Y-59695186D01*
X79284375Y-59773815D01*
X79242991Y-59807778D01*
X79086466Y-59891443D01*
X78916627Y-59942963D01*
X78850442Y-59949482D01*
X78784260Y-59956000D01*
X78695740Y-59956000D01*
X78629558Y-59949482D01*
X78563373Y-59942963D01*
X78393534Y-59891443D01*
X78237009Y-59807778D01*
X78195625Y-59773815D01*
X78099814Y-59695186D01*
X78016552Y-59593729D01*
X77987222Y-59557991D01*
X77903557Y-59401466D01*
X77852037Y-59231627D01*
X77834641Y-59055000D01*
X77852037Y-58878373D01*
X77903557Y-58708534D01*
X77987222Y-58552009D01*
X78019631Y-58512519D01*
X78099814Y-58414814D01*
X78201271Y-58331552D01*
X78237009Y-58302222D01*
X78393534Y-58218557D01*
X78563373Y-58167037D01*
X78629558Y-58160518D01*
X78695740Y-58154000D01*
X78784260Y-58154000D01*
X78850442Y-58160518D01*
X78850442Y-58160518D01*
G37*
G36*
X40171823Y-58216313D02*
G01*
X40332242Y-58264976D01*
X40399361Y-58300852D01*
X40480078Y-58343996D01*
X40609659Y-58450341D01*
X40716004Y-58579922D01*
X40716005Y-58579924D01*
X40795024Y-58727758D01*
X40843687Y-58888177D01*
X40860117Y-59055000D01*
X40843687Y-59221823D01*
X40795024Y-59382242D01*
X40754477Y-59458100D01*
X40716004Y-59530078D01*
X40609659Y-59659659D01*
X40480078Y-59766004D01*
X40480076Y-59766005D01*
X40332242Y-59845024D01*
X40171823Y-59893687D01*
X40046804Y-59906000D01*
X39963196Y-59906000D01*
X39838177Y-59893687D01*
X39677758Y-59845024D01*
X39529924Y-59766005D01*
X39529922Y-59766004D01*
X39400341Y-59659659D01*
X39293996Y-59530078D01*
X39255523Y-59458100D01*
X39214976Y-59382242D01*
X39166313Y-59221823D01*
X39149883Y-59055000D01*
X39166313Y-58888177D01*
X39214976Y-58727758D01*
X39293995Y-58579924D01*
X39293996Y-58579922D01*
X39400341Y-58450341D01*
X39529922Y-58343996D01*
X39610639Y-58300852D01*
X39677758Y-58264976D01*
X39838177Y-58216313D01*
X39963196Y-58204000D01*
X40046804Y-58204000D01*
X40171823Y-58216313D01*
X40171823Y-58216313D01*
G37*
G36*
X47873228Y-58236703D02*
G01*
X48028100Y-58300853D01*
X48167481Y-58393985D01*
X48286015Y-58512519D01*
X48379147Y-58651900D01*
X48443297Y-58806772D01*
X48476000Y-58971184D01*
X48476000Y-59138816D01*
X48443297Y-59303228D01*
X48379147Y-59458100D01*
X48286015Y-59597481D01*
X48167481Y-59716015D01*
X48028100Y-59809147D01*
X47873228Y-59873297D01*
X47708816Y-59906000D01*
X47541184Y-59906000D01*
X47376772Y-59873297D01*
X47221900Y-59809147D01*
X47082519Y-59716015D01*
X46963985Y-59597481D01*
X46870853Y-59458100D01*
X46806703Y-59303228D01*
X46774000Y-59138816D01*
X46774000Y-58971184D01*
X46806703Y-58806772D01*
X46870853Y-58651900D01*
X46963985Y-58512519D01*
X47082519Y-58393985D01*
X47221900Y-58300853D01*
X47376772Y-58236703D01*
X47541184Y-58204000D01*
X47708816Y-58204000D01*
X47873228Y-58236703D01*
X47873228Y-58236703D01*
G37*
G36*
X35670443Y-57525519D02*
G01*
X35736627Y-57532037D01*
X35906466Y-57583557D01*
X36062991Y-57667222D01*
X36093768Y-57692480D01*
X36200186Y-57779814D01*
X36283448Y-57881271D01*
X36312778Y-57917009D01*
X36396443Y-58073534D01*
X36447963Y-58243373D01*
X36465359Y-58420000D01*
X36447963Y-58596627D01*
X36396443Y-58766466D01*
X36312778Y-58922991D01*
X36283448Y-58958729D01*
X36200186Y-59060186D01*
X36104375Y-59138815D01*
X36062991Y-59172778D01*
X35906466Y-59256443D01*
X35736627Y-59307963D01*
X35670442Y-59314482D01*
X35604260Y-59321000D01*
X35515740Y-59321000D01*
X35449558Y-59314482D01*
X35383373Y-59307963D01*
X35213534Y-59256443D01*
X35057009Y-59172778D01*
X35015625Y-59138815D01*
X34919814Y-59060186D01*
X34836552Y-58958729D01*
X34807222Y-58922991D01*
X34723557Y-58766466D01*
X34672037Y-58596627D01*
X34654641Y-58420000D01*
X34672037Y-58243373D01*
X34723557Y-58073534D01*
X34807222Y-57917009D01*
X34836552Y-57881271D01*
X34919814Y-57779814D01*
X35026232Y-57692480D01*
X35057009Y-57667222D01*
X35213534Y-57583557D01*
X35383373Y-57532037D01*
X35449557Y-57525519D01*
X35515740Y-57519000D01*
X35604260Y-57519000D01*
X35670443Y-57525519D01*
X35670443Y-57525519D01*
G37*
G36*
X73908228Y-56331703D02*
G01*
X74063100Y-56395853D01*
X74202481Y-56488985D01*
X74321015Y-56607519D01*
X74414147Y-56746900D01*
X74478297Y-56901772D01*
X74511000Y-57066184D01*
X74511000Y-57233816D01*
X74478297Y-57398228D01*
X74414147Y-57553100D01*
X74321015Y-57692481D01*
X74202481Y-57811015D01*
X74063100Y-57904147D01*
X73908228Y-57968297D01*
X73743816Y-58001000D01*
X73576184Y-58001000D01*
X73411772Y-57968297D01*
X73256900Y-57904147D01*
X73117519Y-57811015D01*
X72998985Y-57692481D01*
X72905853Y-57553100D01*
X72841703Y-57398228D01*
X72809000Y-57233816D01*
X72809000Y-57066184D01*
X72841703Y-56901772D01*
X72905853Y-56746900D01*
X72998985Y-56607519D01*
X73117519Y-56488985D01*
X73256900Y-56395853D01*
X73411772Y-56331703D01*
X73576184Y-56299000D01*
X73743816Y-56299000D01*
X73908228Y-56331703D01*
X73908228Y-56331703D01*
G37*
G36*
X68193228Y-56331703D02*
G01*
X68348100Y-56395853D01*
X68487481Y-56488985D01*
X68606015Y-56607519D01*
X68699147Y-56746900D01*
X68763297Y-56901772D01*
X68796000Y-57066184D01*
X68796000Y-57233816D01*
X68763297Y-57398228D01*
X68699147Y-57553100D01*
X68606015Y-57692481D01*
X68487481Y-57811015D01*
X68348100Y-57904147D01*
X68193228Y-57968297D01*
X68028816Y-58001000D01*
X67861184Y-58001000D01*
X67696772Y-57968297D01*
X67541900Y-57904147D01*
X67402519Y-57811015D01*
X67283985Y-57692481D01*
X67190853Y-57553100D01*
X67126703Y-57398228D01*
X67094000Y-57233816D01*
X67094000Y-57066184D01*
X67126703Y-56901772D01*
X67190853Y-56746900D01*
X67283985Y-56607519D01*
X67402519Y-56488985D01*
X67541900Y-56395853D01*
X67696772Y-56331703D01*
X67861184Y-56299000D01*
X68028816Y-56299000D01*
X68193228Y-56331703D01*
X68193228Y-56331703D01*
G37*
G36*
X79641000Y-57416000D02*
G01*
X77839000Y-57416000D01*
X77839000Y-55614000D01*
X79641000Y-55614000D01*
X79641000Y-57416000D01*
X79641000Y-57416000D01*
G37*
G36*
X35670443Y-54985519D02*
G01*
X35736627Y-54992037D01*
X35906466Y-55043557D01*
X36062991Y-55127222D01*
X36098729Y-55156552D01*
X36200186Y-55239814D01*
X36283448Y-55341271D01*
X36312778Y-55377009D01*
X36396443Y-55533534D01*
X36447963Y-55703373D01*
X36465359Y-55880000D01*
X36447963Y-56056627D01*
X36396443Y-56226466D01*
X36312778Y-56382991D01*
X36302223Y-56395852D01*
X36200186Y-56520186D01*
X36098729Y-56603448D01*
X36062991Y-56632778D01*
X35906466Y-56716443D01*
X35736627Y-56767963D01*
X35670443Y-56774481D01*
X35604260Y-56781000D01*
X35515740Y-56781000D01*
X35449557Y-56774481D01*
X35383373Y-56767963D01*
X35213534Y-56716443D01*
X35057009Y-56632778D01*
X35021271Y-56603448D01*
X34919814Y-56520186D01*
X34817777Y-56395852D01*
X34807222Y-56382991D01*
X34723557Y-56226466D01*
X34672037Y-56056627D01*
X34654641Y-55880000D01*
X34672037Y-55703373D01*
X34723557Y-55533534D01*
X34807222Y-55377009D01*
X34836552Y-55341271D01*
X34919814Y-55239814D01*
X35021271Y-55156552D01*
X35057009Y-55127222D01*
X35213534Y-55043557D01*
X35383373Y-54992037D01*
X35449557Y-54985519D01*
X35515740Y-54979000D01*
X35604260Y-54979000D01*
X35670443Y-54985519D01*
X35670443Y-54985519D01*
G37*
G36*
X88546000Y-56161000D02*
G01*
X85444000Y-56161000D01*
X85444000Y-53059000D01*
X88546000Y-53059000D01*
X88546000Y-56161000D01*
X88546000Y-56161000D01*
G37*
G36*
X45494315Y-52794166D02*
G01*
X45538847Y-52807675D01*
X45570077Y-52824368D01*
X45584680Y-52830417D01*
X45595744Y-52842624D01*
X45615864Y-52859136D01*
X45645385Y-52895108D01*
X45667326Y-52936157D01*
X45680834Y-52980685D01*
X45686000Y-53033140D01*
X45686000Y-54446860D01*
X45680834Y-54499315D01*
X45667326Y-54543843D01*
X45645385Y-54584892D01*
X45615864Y-54620864D01*
X45579892Y-54650385D01*
X45538843Y-54672326D01*
X45494315Y-54685834D01*
X45441860Y-54691000D01*
X44728140Y-54691000D01*
X44675685Y-54685834D01*
X44631157Y-54672326D01*
X44590108Y-54650385D01*
X44554136Y-54620864D01*
X44524615Y-54584892D01*
X44502674Y-54543843D01*
X44489166Y-54499315D01*
X44484000Y-54446860D01*
X44484000Y-53033140D01*
X44489166Y-52980685D01*
X44502674Y-52936157D01*
X44524615Y-52895108D01*
X44554136Y-52859136D01*
X44590108Y-52829615D01*
X44631157Y-52807674D01*
X44675685Y-52794166D01*
X44728140Y-52789000D01*
X45441860Y-52789000D01*
X45494315Y-52794166D01*
X45494315Y-52794166D01*
G37*
G36*
X53271000Y-53906000D02*
G01*
X50869000Y-53906000D01*
X50869000Y-51504000D01*
X53271000Y-51504000D01*
X53271000Y-53906000D01*
X53271000Y-53906000D01*
G37*
G36*
X60040318Y-51550153D02*
G01*
X60178813Y-51607520D01*
X60258887Y-51640688D01*
X60455593Y-51772122D01*
X60622878Y-51939407D01*
X60710137Y-52070000D01*
X60754313Y-52136115D01*
X60844847Y-52354682D01*
X60891000Y-52586710D01*
X60891000Y-52823290D01*
X60844847Y-53055318D01*
X60830688Y-53089500D01*
X60754312Y-53273887D01*
X60622878Y-53470593D01*
X60455593Y-53637878D01*
X60258887Y-53769312D01*
X60258886Y-53769313D01*
X60258885Y-53769313D01*
X60040318Y-53859847D01*
X59808290Y-53906000D01*
X59571710Y-53906000D01*
X59339682Y-53859847D01*
X59121115Y-53769313D01*
X59121114Y-53769313D01*
X59121113Y-53769312D01*
X58924407Y-53637878D01*
X58757122Y-53470593D01*
X58625688Y-53273887D01*
X58549312Y-53089500D01*
X58535153Y-53055318D01*
X58489000Y-52823290D01*
X58489000Y-52586710D01*
X58535153Y-52354682D01*
X58625687Y-52136115D01*
X58669863Y-52070000D01*
X58757122Y-51939407D01*
X58924407Y-51772122D01*
X59121113Y-51640688D01*
X59201187Y-51607520D01*
X59339682Y-51550153D01*
X59571710Y-51504000D01*
X59808290Y-51504000D01*
X60040318Y-51550153D01*
X60040318Y-51550153D01*
G37*
G36*
X69993228Y-51331703D02*
G01*
X70148100Y-51395853D01*
X70287481Y-51488985D01*
X70406015Y-51607519D01*
X70499147Y-51746900D01*
X70563297Y-51901772D01*
X70596000Y-52066184D01*
X70596000Y-52233816D01*
X70563297Y-52398228D01*
X70499147Y-52553100D01*
X70406015Y-52692481D01*
X70287481Y-52811015D01*
X70148100Y-52904147D01*
X69993228Y-52968297D01*
X69828816Y-53001000D01*
X69661184Y-53001000D01*
X69496772Y-52968297D01*
X69341900Y-52904147D01*
X69202519Y-52811015D01*
X69083985Y-52692481D01*
X68990853Y-52553100D01*
X68926703Y-52398228D01*
X68894000Y-52233816D01*
X68894000Y-52066184D01*
X68926703Y-51901772D01*
X68990853Y-51746900D01*
X69083985Y-51607519D01*
X69202519Y-51488985D01*
X69341900Y-51395853D01*
X69496772Y-51331703D01*
X69661184Y-51299000D01*
X69828816Y-51299000D01*
X69993228Y-51331703D01*
X69993228Y-51331703D01*
G37*
G36*
X75708228Y-51331703D02*
G01*
X75863100Y-51395853D01*
X76002481Y-51488985D01*
X76121015Y-51607519D01*
X76214147Y-51746900D01*
X76278297Y-51901772D01*
X76311000Y-52066184D01*
X76311000Y-52233816D01*
X76278297Y-52398228D01*
X76214147Y-52553100D01*
X76121015Y-52692481D01*
X76002481Y-52811015D01*
X75863100Y-52904147D01*
X75708228Y-52968297D01*
X75543816Y-53001000D01*
X75376184Y-53001000D01*
X75211772Y-52968297D01*
X75056900Y-52904147D01*
X74917519Y-52811015D01*
X74798985Y-52692481D01*
X74705853Y-52553100D01*
X74641703Y-52398228D01*
X74609000Y-52233816D01*
X74609000Y-52066184D01*
X74641703Y-51901772D01*
X74705853Y-51746900D01*
X74798985Y-51607519D01*
X74917519Y-51488985D01*
X75056900Y-51395853D01*
X75211772Y-51331703D01*
X75376184Y-51299000D01*
X75543816Y-51299000D01*
X75708228Y-51331703D01*
X75708228Y-51331703D01*
G37*
G36*
X64301823Y-51231313D02*
G01*
X64462242Y-51279976D01*
X64497833Y-51299000D01*
X64610078Y-51358996D01*
X64739659Y-51465341D01*
X64846004Y-51594922D01*
X64846005Y-51594924D01*
X64925024Y-51742758D01*
X64925025Y-51742761D01*
X64926281Y-51746903D01*
X64973687Y-51903177D01*
X64990117Y-52070000D01*
X64973687Y-52236823D01*
X64925024Y-52397242D01*
X64884080Y-52473843D01*
X64846004Y-52545078D01*
X64739659Y-52674659D01*
X64610078Y-52781004D01*
X64610076Y-52781005D01*
X64462242Y-52860024D01*
X64301823Y-52908687D01*
X64176804Y-52921000D01*
X64093196Y-52921000D01*
X63968177Y-52908687D01*
X63807758Y-52860024D01*
X63659924Y-52781005D01*
X63659922Y-52781004D01*
X63530341Y-52674659D01*
X63423996Y-52545078D01*
X63385920Y-52473843D01*
X63344976Y-52397242D01*
X63296313Y-52236823D01*
X63279883Y-52070000D01*
X63296313Y-51903177D01*
X63343719Y-51746903D01*
X63344975Y-51742761D01*
X63344976Y-51742758D01*
X63423995Y-51594924D01*
X63423996Y-51594922D01*
X63530341Y-51465341D01*
X63659922Y-51358996D01*
X63772167Y-51299000D01*
X63807758Y-51279976D01*
X63968177Y-51231313D01*
X64093196Y-51219000D01*
X64176804Y-51219000D01*
X64301823Y-51231313D01*
X64301823Y-51231313D01*
G37*
G36*
X44224315Y-50724166D02*
G01*
X44268843Y-50737674D01*
X44309892Y-50759615D01*
X44345864Y-50789136D01*
X44375385Y-50825108D01*
X44397326Y-50866157D01*
X44410834Y-50910685D01*
X44416000Y-50963140D01*
X44416000Y-52376860D01*
X44410834Y-52429315D01*
X44397326Y-52473843D01*
X44375385Y-52514892D01*
X44345864Y-52550864D01*
X44309892Y-52580385D01*
X44268843Y-52602326D01*
X44224315Y-52615834D01*
X44171860Y-52621000D01*
X43458140Y-52621000D01*
X43405685Y-52615834D01*
X43361157Y-52602326D01*
X43320108Y-52580385D01*
X43284136Y-52550864D01*
X43254615Y-52514892D01*
X43232674Y-52473843D01*
X43219166Y-52429315D01*
X43214000Y-52376860D01*
X43214000Y-50963140D01*
X43219166Y-50910685D01*
X43232674Y-50866157D01*
X43254615Y-50825108D01*
X43284136Y-50789136D01*
X43320108Y-50759615D01*
X43361157Y-50737674D01*
X43405685Y-50724166D01*
X43458140Y-50719000D01*
X44171860Y-50719000D01*
X44224315Y-50724166D01*
X44224315Y-50724166D01*
G37*
G36*
X46956000Y-52621000D02*
G01*
X45754000Y-52621000D01*
X45754000Y-50719000D01*
X46956000Y-50719000D01*
X46956000Y-52621000D01*
X46956000Y-52621000D01*
G37*
G36*
X37840256Y-47286298D02*
G01*
X37946579Y-47307447D01*
X38247042Y-47431903D01*
X38517451Y-47612585D01*
X38747415Y-47842549D01*
X38875583Y-48034366D01*
X38928098Y-48112960D01*
X39052553Y-48413422D01*
X39116000Y-48732389D01*
X39116000Y-49057611D01*
X39083370Y-49221652D01*
X39052553Y-49376579D01*
X38928097Y-49677042D01*
X38747415Y-49947451D01*
X38517451Y-50177415D01*
X38247042Y-50358097D01*
X37946579Y-50482553D01*
X37840256Y-50503702D01*
X37627611Y-50546000D01*
X37302389Y-50546000D01*
X37089744Y-50503702D01*
X36983421Y-50482553D01*
X36682958Y-50358097D01*
X36412549Y-50177415D01*
X36182585Y-49947451D01*
X36001903Y-49677042D01*
X35877447Y-49376579D01*
X35846630Y-49221652D01*
X35814000Y-49057611D01*
X35814000Y-48732389D01*
X35877447Y-48413422D01*
X36001902Y-48112960D01*
X36054417Y-48034366D01*
X36182585Y-47842549D01*
X36412549Y-47612585D01*
X36682958Y-47431903D01*
X36983421Y-47307447D01*
X37089744Y-47286298D01*
X37302389Y-47244000D01*
X37627611Y-47244000D01*
X37840256Y-47286298D01*
X37840256Y-47286298D01*
G37*
G36*
X80385256Y-47286298D02*
G01*
X80491579Y-47307447D01*
X80792042Y-47431903D01*
X81062451Y-47612585D01*
X81292415Y-47842549D01*
X81420583Y-48034366D01*
X81473098Y-48112960D01*
X81597553Y-48413422D01*
X81661000Y-48732389D01*
X81661000Y-49057611D01*
X81628370Y-49221652D01*
X81597553Y-49376579D01*
X81473097Y-49677042D01*
X81292415Y-49947451D01*
X81062451Y-50177415D01*
X80792042Y-50358097D01*
X80491579Y-50482553D01*
X80385256Y-50503702D01*
X80172611Y-50546000D01*
X79847389Y-50546000D01*
X79634744Y-50503702D01*
X79528421Y-50482553D01*
X79227958Y-50358097D01*
X78957549Y-50177415D01*
X78727585Y-49947451D01*
X78546903Y-49677042D01*
X78422447Y-49376579D01*
X78391630Y-49221652D01*
X78359000Y-49057611D01*
X78359000Y-48732389D01*
X78422447Y-48413422D01*
X78546902Y-48112960D01*
X78599417Y-48034366D01*
X78727585Y-47842549D01*
X78957549Y-47612585D01*
X79227958Y-47431903D01*
X79528421Y-47307447D01*
X79634744Y-47286298D01*
X79847389Y-47244000D01*
X80172611Y-47244000D01*
X80385256Y-47286298D01*
X80385256Y-47286298D01*
G37*
G36*
X62111000Y-49411000D02*
G01*
X59809000Y-49411000D01*
X59809000Y-47109000D01*
X62111000Y-47109000D01*
X62111000Y-49411000D01*
X62111000Y-49411000D01*
G37*
G36*
X50969271Y-47120103D02*
G01*
X51025635Y-47125654D01*
X51242600Y-47191470D01*
X51242602Y-47191471D01*
X51442555Y-47298347D01*
X51617818Y-47442182D01*
X51761653Y-47617445D01*
X51868529Y-47817398D01*
X51868530Y-47817400D01*
X51934346Y-48034365D01*
X51934346Y-48034366D01*
X51956569Y-48260000D01*
X51934346Y-48485634D01*
X51868529Y-48702602D01*
X51761653Y-48902555D01*
X51617818Y-49077818D01*
X51442555Y-49221653D01*
X51242602Y-49328529D01*
X51242600Y-49328530D01*
X51025635Y-49394346D01*
X50969271Y-49399897D01*
X50856545Y-49411000D01*
X50743455Y-49411000D01*
X50630729Y-49399897D01*
X50574365Y-49394346D01*
X50357400Y-49328530D01*
X50357398Y-49328529D01*
X50157445Y-49221653D01*
X49982182Y-49077818D01*
X49838347Y-48902555D01*
X49731471Y-48702602D01*
X49665654Y-48485634D01*
X49643431Y-48260000D01*
X49665654Y-48034366D01*
X49665654Y-48034365D01*
X49731470Y-47817400D01*
X49731471Y-47817398D01*
X49838347Y-47617445D01*
X49982182Y-47442182D01*
X50157445Y-47298347D01*
X50357398Y-47191471D01*
X50357400Y-47191470D01*
X50574365Y-47125654D01*
X50630729Y-47120103D01*
X50743455Y-47109000D01*
X50856545Y-47109000D01*
X50969271Y-47120103D01*
X50969271Y-47120103D01*
G37*
M02*
