M48
; DRILL file {KiCad (5.1.4-0-10_14)} date 2022 May 28, Saturday 07:52:36
; FORMAT={-:-/ absolute / metric / decimal}
; #@! TF.CreationDate,2022-05-28T07:52:36+02:00
; #@! TF.GenerationSoftware,Kicad,Pcbnew,(5.1.4-0-10_14)
; #@! TF.FileFunction,Plated,1,2,PTH
FMAT,2
METRIC
T1C0.600
T2C0.750
T3C0.800
T4C0.900
T5C1.000
T6C1.100
T7C1.300
T8C1.520
%
G90
G05
T1
X73.66Y-57.15
X75.46Y-52.15
X67.945Y-57.15
X69.745Y-52.15
T2
X43.815Y-52.07
X45.085Y-53.34
X46.355Y-52.07
T3
X74.93Y-60.96
X74.93Y-68.58
X40.005Y-62.865
X47.625Y-62.865
X64.135Y-52.07
X64.135Y-59.69
X40.005Y-59.055
X47.625Y-59.055
T4
X43.815Y-68.58
X46.355Y-68.58
T5
X64.135Y-62.945
X64.135Y-67.945
X78.74Y-56.515
X78.74Y-59.055
X78.74Y-61.595
X69.85Y-62.945
X69.85Y-67.945
X35.56Y-55.88
X35.56Y-58.42
X35.56Y-60.96
T6
X50.8Y-48.26
X60.96Y-48.26
T7
X52.07Y-52.705
X52.07Y-62.865
X52.07Y-70.485
X59.69Y-52.705
X59.69Y-67.945
T8
X86.995Y-54.61
X86.995Y-59.69
X86.995Y-64.77
T0
M30
