G04 #@! TF.GenerationSoftware,KiCad,Pcbnew,(5.1.4-0-10_14)*
G04 #@! TF.CreationDate,2020-06-11T20:45:34+02:00*
G04 #@! TF.ProjectId,zArduino,7a417264-7569-46e6-9f2e-6b696361645f,rev?*
G04 #@! TF.SameCoordinates,Original*
G04 #@! TF.FileFunction,Legend,Top*
G04 #@! TF.FilePolarity,Positive*
%FSLAX46Y46*%
G04 Gerber Fmt 4.6, Leading zero omitted, Abs format (unit mm)*
G04 Created by KiCad (PCBNEW (5.1.4-0-10_14)) date 2020-06-11 20:45:34*
%MOMM*%
%LPD*%
G04 APERTURE LIST*
%ADD10C,0.150000*%
%ADD11C,0.375000*%
%ADD12C,0.120000*%
G04 APERTURE END LIST*
D10*
X156623428Y-86082142D02*
X156575809Y-86129761D01*
X156432952Y-86177380D01*
X156337714Y-86177380D01*
X156194857Y-86129761D01*
X156099619Y-86034523D01*
X156052000Y-85939285D01*
X156004380Y-85748809D01*
X156004380Y-85605952D01*
X156052000Y-85415476D01*
X156099619Y-85320238D01*
X156194857Y-85225000D01*
X156337714Y-85177380D01*
X156432952Y-85177380D01*
X156575809Y-85225000D01*
X156623428Y-85272619D01*
X157194857Y-86177380D02*
X157099619Y-86129761D01*
X157052000Y-86082142D01*
X157004380Y-85986904D01*
X157004380Y-85701190D01*
X157052000Y-85605952D01*
X157099619Y-85558333D01*
X157194857Y-85510714D01*
X157337714Y-85510714D01*
X157432952Y-85558333D01*
X157480571Y-85605952D01*
X157528190Y-85701190D01*
X157528190Y-85986904D01*
X157480571Y-86082142D01*
X157432952Y-86129761D01*
X157337714Y-86177380D01*
X157194857Y-86177380D01*
X157956761Y-85510714D02*
X157956761Y-86510714D01*
X157956761Y-85558333D02*
X158052000Y-85510714D01*
X158242476Y-85510714D01*
X158337714Y-85558333D01*
X158385333Y-85605952D01*
X158432952Y-85701190D01*
X158432952Y-85986904D01*
X158385333Y-86082142D01*
X158337714Y-86129761D01*
X158242476Y-86177380D01*
X158052000Y-86177380D01*
X157956761Y-86129761D01*
X158766285Y-85510714D02*
X159004380Y-86177380D01*
X159242476Y-85510714D02*
X159004380Y-86177380D01*
X158909142Y-86415476D01*
X158861523Y-86463095D01*
X158766285Y-86510714D01*
X160861523Y-86177380D02*
X160385333Y-86177380D01*
X160385333Y-85177380D01*
X161575809Y-86129761D02*
X161480571Y-86177380D01*
X161290095Y-86177380D01*
X161194857Y-86129761D01*
X161147238Y-86034523D01*
X161147238Y-85653571D01*
X161194857Y-85558333D01*
X161290095Y-85510714D01*
X161480571Y-85510714D01*
X161575809Y-85558333D01*
X161623428Y-85653571D01*
X161623428Y-85748809D01*
X161147238Y-85844047D01*
X161909142Y-85510714D02*
X162290095Y-85510714D01*
X162052000Y-86177380D02*
X162052000Y-85320238D01*
X162099619Y-85225000D01*
X162194857Y-85177380D01*
X162290095Y-85177380D01*
X162480571Y-85510714D02*
X162861523Y-85510714D01*
X162623428Y-85177380D02*
X162623428Y-86034523D01*
X162671047Y-86129761D01*
X162766285Y-86177380D01*
X162861523Y-86177380D01*
X163909142Y-85272619D02*
X163956761Y-85225000D01*
X164052000Y-85177380D01*
X164290095Y-85177380D01*
X164385333Y-85225000D01*
X164432952Y-85272619D01*
X164480571Y-85367857D01*
X164480571Y-85463095D01*
X164432952Y-85605952D01*
X163861523Y-86177380D01*
X164480571Y-86177380D01*
X165099619Y-85177380D02*
X165194857Y-85177380D01*
X165290095Y-85225000D01*
X165337714Y-85272619D01*
X165385333Y-85367857D01*
X165432952Y-85558333D01*
X165432952Y-85796428D01*
X165385333Y-85986904D01*
X165337714Y-86082142D01*
X165290095Y-86129761D01*
X165194857Y-86177380D01*
X165099619Y-86177380D01*
X165004380Y-86129761D01*
X164956761Y-86082142D01*
X164909142Y-85986904D01*
X164861523Y-85796428D01*
X164861523Y-85558333D01*
X164909142Y-85367857D01*
X164956761Y-85272619D01*
X165004380Y-85225000D01*
X165099619Y-85177380D01*
X165813904Y-85272619D02*
X165861523Y-85225000D01*
X165956761Y-85177380D01*
X166194857Y-85177380D01*
X166290095Y-85225000D01*
X166337714Y-85272619D01*
X166385333Y-85367857D01*
X166385333Y-85463095D01*
X166337714Y-85605952D01*
X165766285Y-86177380D01*
X166385333Y-86177380D01*
X167004380Y-85177380D02*
X167099619Y-85177380D01*
X167194857Y-85225000D01*
X167242476Y-85272619D01*
X167290095Y-85367857D01*
X167337714Y-85558333D01*
X167337714Y-85796428D01*
X167290095Y-85986904D01*
X167242476Y-86082142D01*
X167194857Y-86129761D01*
X167099619Y-86177380D01*
X167004380Y-86177380D01*
X166909142Y-86129761D01*
X166861523Y-86082142D01*
X166813904Y-85986904D01*
X166766285Y-85796428D01*
X166766285Y-85558333D01*
X166813904Y-85367857D01*
X166861523Y-85272619D01*
X166909142Y-85225000D01*
X167004380Y-85177380D01*
X156020476Y-83605714D02*
X156210952Y-84272380D01*
X156401428Y-83796190D01*
X156591904Y-84272380D01*
X156782380Y-83605714D01*
X157068095Y-83605714D02*
X157258571Y-84272380D01*
X157449047Y-83796190D01*
X157639523Y-84272380D01*
X157830000Y-83605714D01*
X158115714Y-83605714D02*
X158306190Y-84272380D01*
X158496666Y-83796190D01*
X158687142Y-84272380D01*
X158877619Y-83605714D01*
X159258571Y-84177142D02*
X159306190Y-84224761D01*
X159258571Y-84272380D01*
X159210952Y-84224761D01*
X159258571Y-84177142D01*
X159258571Y-84272380D01*
X159639523Y-83605714D02*
X160163333Y-83605714D01*
X159639523Y-84272380D01*
X160163333Y-84272380D01*
X160925238Y-84224761D02*
X160830000Y-84272380D01*
X160639523Y-84272380D01*
X160544285Y-84224761D01*
X160496666Y-84129523D01*
X160496666Y-83748571D01*
X160544285Y-83653333D01*
X160639523Y-83605714D01*
X160830000Y-83605714D01*
X160925238Y-83653333D01*
X160972857Y-83748571D01*
X160972857Y-83843809D01*
X160496666Y-83939047D01*
X161401428Y-83605714D02*
X161401428Y-84605714D01*
X161401428Y-83653333D02*
X161496666Y-83605714D01*
X161687142Y-83605714D01*
X161782380Y-83653333D01*
X161830000Y-83700952D01*
X161877619Y-83796190D01*
X161877619Y-84081904D01*
X161830000Y-84177142D01*
X161782380Y-84224761D01*
X161687142Y-84272380D01*
X161496666Y-84272380D01*
X161401428Y-84224761D01*
X162306190Y-83605714D02*
X162306190Y-84605714D01*
X162306190Y-83653333D02*
X162401428Y-83605714D01*
X162591904Y-83605714D01*
X162687142Y-83653333D01*
X162734761Y-83700952D01*
X162782380Y-83796190D01*
X162782380Y-84081904D01*
X162734761Y-84177142D01*
X162687142Y-84224761D01*
X162591904Y-84272380D01*
X162401428Y-84272380D01*
X162306190Y-84224761D01*
X163591904Y-84224761D02*
X163496666Y-84272380D01*
X163306190Y-84272380D01*
X163210952Y-84224761D01*
X163163333Y-84129523D01*
X163163333Y-83748571D01*
X163210952Y-83653333D01*
X163306190Y-83605714D01*
X163496666Y-83605714D01*
X163591904Y-83653333D01*
X163639523Y-83748571D01*
X163639523Y-83843809D01*
X163163333Y-83939047D01*
X164210952Y-84272380D02*
X164115714Y-84224761D01*
X164068095Y-84129523D01*
X164068095Y-83272380D01*
X164591904Y-84272380D02*
X164591904Y-83605714D01*
X164591904Y-83272380D02*
X164544285Y-83320000D01*
X164591904Y-83367619D01*
X164639523Y-83320000D01*
X164591904Y-83272380D01*
X164591904Y-83367619D01*
X165068095Y-83605714D02*
X165068095Y-84272380D01*
X165068095Y-83700952D02*
X165115714Y-83653333D01*
X165210952Y-83605714D01*
X165353809Y-83605714D01*
X165449047Y-83653333D01*
X165496666Y-83748571D01*
X165496666Y-84272380D01*
X165972857Y-84272380D02*
X165972857Y-83605714D01*
X165972857Y-83700952D02*
X166020476Y-83653333D01*
X166115714Y-83605714D01*
X166258571Y-83605714D01*
X166353809Y-83653333D01*
X166401428Y-83748571D01*
X166401428Y-84272380D01*
X166401428Y-83748571D02*
X166449047Y-83653333D01*
X166544285Y-83605714D01*
X166687142Y-83605714D01*
X166782380Y-83653333D01*
X166830000Y-83748571D01*
X166830000Y-84272380D01*
X167734761Y-84272380D02*
X167734761Y-83748571D01*
X167687142Y-83653333D01*
X167591904Y-83605714D01*
X167401428Y-83605714D01*
X167306190Y-83653333D01*
X167734761Y-84224761D02*
X167639523Y-84272380D01*
X167401428Y-84272380D01*
X167306190Y-84224761D01*
X167258571Y-84129523D01*
X167258571Y-84034285D01*
X167306190Y-83939047D01*
X167401428Y-83891428D01*
X167639523Y-83891428D01*
X167734761Y-83843809D01*
X168210952Y-84272380D02*
X168210952Y-83272380D01*
X168306190Y-83891428D02*
X168591904Y-84272380D01*
X168591904Y-83605714D02*
X168210952Y-83986666D01*
X169401428Y-84224761D02*
X169306190Y-84272380D01*
X169115714Y-84272380D01*
X169020476Y-84224761D01*
X168972857Y-84129523D01*
X168972857Y-83748571D01*
X169020476Y-83653333D01*
X169115714Y-83605714D01*
X169306190Y-83605714D01*
X169401428Y-83653333D01*
X169449047Y-83748571D01*
X169449047Y-83843809D01*
X168972857Y-83939047D01*
X169877619Y-84272380D02*
X169877619Y-83605714D01*
X169877619Y-83796190D02*
X169925238Y-83700952D01*
X169972857Y-83653333D01*
X170068095Y-83605714D01*
X170163333Y-83605714D01*
X170496666Y-84177142D02*
X170544285Y-84224761D01*
X170496666Y-84272380D01*
X170449047Y-84224761D01*
X170496666Y-84177142D01*
X170496666Y-84272380D01*
X170972857Y-84272380D02*
X170972857Y-83605714D01*
X170972857Y-83272380D02*
X170925238Y-83320000D01*
X170972857Y-83367619D01*
X171020476Y-83320000D01*
X170972857Y-83272380D01*
X170972857Y-83367619D01*
X171306190Y-83605714D02*
X171687142Y-83605714D01*
X171449047Y-83272380D02*
X171449047Y-84129523D01*
X171496666Y-84224761D01*
X171591904Y-84272380D01*
X171687142Y-84272380D01*
X144653095Y-77478000D02*
X144557857Y-77430380D01*
X144415000Y-77430380D01*
X144272142Y-77478000D01*
X144176904Y-77573238D01*
X144129285Y-77668476D01*
X144081666Y-77858952D01*
X144081666Y-78001809D01*
X144129285Y-78192285D01*
X144176904Y-78287523D01*
X144272142Y-78382761D01*
X144415000Y-78430380D01*
X144510238Y-78430380D01*
X144653095Y-78382761D01*
X144700714Y-78335142D01*
X144700714Y-78001809D01*
X144510238Y-78001809D01*
X145129285Y-78430380D02*
X145129285Y-77430380D01*
X145700714Y-78430380D01*
X145700714Y-77430380D01*
X146176904Y-78430380D02*
X146176904Y-77430380D01*
X146415000Y-77430380D01*
X146557857Y-77478000D01*
X146653095Y-77573238D01*
X146700714Y-77668476D01*
X146748333Y-77858952D01*
X146748333Y-78001809D01*
X146700714Y-78192285D01*
X146653095Y-78287523D01*
X146557857Y-78382761D01*
X146415000Y-78430380D01*
X146176904Y-78430380D01*
X152471380Y-120943619D02*
X151995190Y-121276952D01*
X152471380Y-121515047D02*
X151471380Y-121515047D01*
X151471380Y-121134095D01*
X151519000Y-121038857D01*
X151566619Y-120991238D01*
X151661857Y-120943619D01*
X151804714Y-120943619D01*
X151899952Y-120991238D01*
X151947571Y-121038857D01*
X151995190Y-121134095D01*
X151995190Y-121515047D01*
X152423761Y-120562666D02*
X152471380Y-120419809D01*
X152471380Y-120181714D01*
X152423761Y-120086476D01*
X152376142Y-120038857D01*
X152280904Y-119991238D01*
X152185666Y-119991238D01*
X152090428Y-120038857D01*
X152042809Y-120086476D01*
X151995190Y-120181714D01*
X151947571Y-120372190D01*
X151899952Y-120467428D01*
X151852333Y-120515047D01*
X151757095Y-120562666D01*
X151661857Y-120562666D01*
X151566619Y-120515047D01*
X151519000Y-120467428D01*
X151471380Y-120372190D01*
X151471380Y-120134095D01*
X151519000Y-119991238D01*
X151471380Y-119705523D02*
X151471380Y-119134095D01*
X152471380Y-119419809D02*
X151471380Y-119419809D01*
X164171380Y-121546809D02*
X165171380Y-121213476D01*
X164171380Y-120880142D01*
X165171380Y-120546809D02*
X164504714Y-120546809D01*
X164171380Y-120546809D02*
X164219000Y-120594428D01*
X164266619Y-120546809D01*
X164219000Y-120499190D01*
X164171380Y-120546809D01*
X164266619Y-120546809D01*
X164504714Y-120070619D02*
X165171380Y-120070619D01*
X164599952Y-120070619D02*
X164552333Y-120023000D01*
X164504714Y-119927761D01*
X164504714Y-119784904D01*
X164552333Y-119689666D01*
X164647571Y-119642047D01*
X165171380Y-119642047D01*
X154011380Y-121745190D02*
X154011380Y-121126142D01*
X154392333Y-121459476D01*
X154392333Y-121316619D01*
X154439952Y-121221380D01*
X154487571Y-121173761D01*
X154582809Y-121126142D01*
X154820904Y-121126142D01*
X154916142Y-121173761D01*
X154963761Y-121221380D01*
X155011380Y-121316619D01*
X155011380Y-121602333D01*
X154963761Y-121697571D01*
X154916142Y-121745190D01*
X154916142Y-120697571D02*
X154963761Y-120649952D01*
X155011380Y-120697571D01*
X154963761Y-120745190D01*
X154916142Y-120697571D01*
X155011380Y-120697571D01*
X154011380Y-120316619D02*
X154011380Y-119697571D01*
X154392333Y-120030904D01*
X154392333Y-119888047D01*
X154439952Y-119792809D01*
X154487571Y-119745190D01*
X154582809Y-119697571D01*
X154820904Y-119697571D01*
X154916142Y-119745190D01*
X154963761Y-119792809D01*
X155011380Y-119888047D01*
X155011380Y-120173761D01*
X154963761Y-120269000D01*
X154916142Y-120316619D01*
X154011380Y-119411857D02*
X155011380Y-119078523D01*
X154011380Y-118745190D01*
X156678380Y-120332476D02*
X156678380Y-120808666D01*
X157154571Y-120856285D01*
X157106952Y-120808666D01*
X157059333Y-120713428D01*
X157059333Y-120475333D01*
X157106952Y-120380095D01*
X157154571Y-120332476D01*
X157249809Y-120284857D01*
X157487904Y-120284857D01*
X157583142Y-120332476D01*
X157630761Y-120380095D01*
X157678380Y-120475333D01*
X157678380Y-120713428D01*
X157630761Y-120808666D01*
X157583142Y-120856285D01*
X156678380Y-119999142D02*
X157678380Y-119665809D01*
X156678380Y-119332476D01*
X161552000Y-120903904D02*
X161504380Y-120999142D01*
X161504380Y-121142000D01*
X161552000Y-121284857D01*
X161647238Y-121380095D01*
X161742476Y-121427714D01*
X161932952Y-121475333D01*
X162075809Y-121475333D01*
X162266285Y-121427714D01*
X162361523Y-121380095D01*
X162456761Y-121284857D01*
X162504380Y-121142000D01*
X162504380Y-121046761D01*
X162456761Y-120903904D01*
X162409142Y-120856285D01*
X162075809Y-120856285D01*
X162075809Y-121046761D01*
X162504380Y-120427714D02*
X161504380Y-120427714D01*
X162504380Y-119856285D01*
X161504380Y-119856285D01*
X162504380Y-119380095D02*
X161504380Y-119380095D01*
X161504380Y-119142000D01*
X161552000Y-118999142D01*
X161647238Y-118903904D01*
X161742476Y-118856285D01*
X161932952Y-118808666D01*
X162075809Y-118808666D01*
X162266285Y-118856285D01*
X162361523Y-118903904D01*
X162456761Y-118999142D01*
X162504380Y-119142000D01*
X162504380Y-119380095D01*
X159139000Y-120903904D02*
X159091380Y-120999142D01*
X159091380Y-121142000D01*
X159139000Y-121284857D01*
X159234238Y-121380095D01*
X159329476Y-121427714D01*
X159519952Y-121475333D01*
X159662809Y-121475333D01*
X159853285Y-121427714D01*
X159948523Y-121380095D01*
X160043761Y-121284857D01*
X160091380Y-121142000D01*
X160091380Y-121046761D01*
X160043761Y-120903904D01*
X159996142Y-120856285D01*
X159662809Y-120856285D01*
X159662809Y-121046761D01*
X160091380Y-120427714D02*
X159091380Y-120427714D01*
X160091380Y-119856285D01*
X159091380Y-119856285D01*
X160091380Y-119380095D02*
X159091380Y-119380095D01*
X159091380Y-119142000D01*
X159139000Y-118999142D01*
X159234238Y-118903904D01*
X159329476Y-118856285D01*
X159519952Y-118808666D01*
X159662809Y-118808666D01*
X159853285Y-118856285D01*
X159948523Y-118903904D01*
X160043761Y-118999142D01*
X160091380Y-119142000D01*
X160091380Y-119380095D01*
X183348380Y-94432380D02*
X183015047Y-93956190D01*
X182776952Y-94432380D02*
X182776952Y-93432380D01*
X183157904Y-93432380D01*
X183253142Y-93480000D01*
X183300761Y-93527619D01*
X183348380Y-93622857D01*
X183348380Y-93765714D01*
X183300761Y-93860952D01*
X183253142Y-93908571D01*
X183157904Y-93956190D01*
X182776952Y-93956190D01*
X183729333Y-94384761D02*
X183872190Y-94432380D01*
X184110285Y-94432380D01*
X184205523Y-94384761D01*
X184253142Y-94337142D01*
X184300761Y-94241904D01*
X184300761Y-94146666D01*
X184253142Y-94051428D01*
X184205523Y-94003809D01*
X184110285Y-93956190D01*
X183919809Y-93908571D01*
X183824571Y-93860952D01*
X183776952Y-93813333D01*
X183729333Y-93718095D01*
X183729333Y-93622857D01*
X183776952Y-93527619D01*
X183824571Y-93480000D01*
X183919809Y-93432380D01*
X184157904Y-93432380D01*
X184300761Y-93480000D01*
X184586476Y-93432380D02*
X185157904Y-93432380D01*
X184872190Y-94432380D02*
X184872190Y-93432380D01*
X149606095Y-92416380D02*
X150177523Y-92416380D01*
X149891809Y-93416380D02*
X149891809Y-92416380D01*
X150415619Y-92416380D02*
X151082285Y-93416380D01*
X151082285Y-92416380D02*
X150415619Y-93416380D01*
X150201333Y-88336380D02*
X149868000Y-87860190D01*
X149629904Y-88336380D02*
X149629904Y-87336380D01*
X150010857Y-87336380D01*
X150106095Y-87384000D01*
X150153714Y-87431619D01*
X150201333Y-87526857D01*
X150201333Y-87669714D01*
X150153714Y-87764952D01*
X150106095Y-87812571D01*
X150010857Y-87860190D01*
X149629904Y-87860190D01*
X150534666Y-87336380D02*
X151201333Y-88336380D01*
X151201333Y-87336380D02*
X150534666Y-88336380D01*
X150423523Y-80208380D02*
X149947333Y-80208380D01*
X149947333Y-79208380D01*
X149748952Y-100544380D02*
X149939428Y-100544380D01*
X150034666Y-100592000D01*
X150129904Y-100687238D01*
X150177523Y-100877714D01*
X150177523Y-101211047D01*
X150129904Y-101401523D01*
X150034666Y-101496761D01*
X149939428Y-101544380D01*
X149748952Y-101544380D01*
X149653714Y-101496761D01*
X149558476Y-101401523D01*
X149510857Y-101211047D01*
X149510857Y-100877714D01*
X149558476Y-100687238D01*
X149653714Y-100592000D01*
X149748952Y-100544380D01*
X150606095Y-101544380D02*
X150606095Y-100544380D01*
X151177523Y-101544380D01*
X151177523Y-100544380D01*
X179371809Y-88844380D02*
X179371809Y-87844380D01*
X180419428Y-88749142D02*
X180371809Y-88796761D01*
X180228952Y-88844380D01*
X180133714Y-88844380D01*
X179990857Y-88796761D01*
X179895619Y-88701523D01*
X179848000Y-88606285D01*
X179800380Y-88415809D01*
X179800380Y-88272952D01*
X179848000Y-88082476D01*
X179895619Y-87987238D01*
X179990857Y-87892000D01*
X180133714Y-87844380D01*
X180228952Y-87844380D01*
X180371809Y-87892000D01*
X180419428Y-87939619D01*
X180800380Y-88796761D02*
X180943238Y-88844380D01*
X181181333Y-88844380D01*
X181276571Y-88796761D01*
X181324190Y-88749142D01*
X181371809Y-88653904D01*
X181371809Y-88558666D01*
X181324190Y-88463428D01*
X181276571Y-88415809D01*
X181181333Y-88368190D01*
X180990857Y-88320571D01*
X180895619Y-88272952D01*
X180848000Y-88225333D01*
X180800380Y-88130095D01*
X180800380Y-88034857D01*
X180848000Y-87939619D01*
X180895619Y-87892000D01*
X180990857Y-87844380D01*
X181228952Y-87844380D01*
X181371809Y-87892000D01*
X181800380Y-88844380D02*
X181800380Y-87844380D01*
X182181333Y-87844380D01*
X182276571Y-87892000D01*
X182324190Y-87939619D01*
X182371809Y-88034857D01*
X182371809Y-88177714D01*
X182324190Y-88272952D01*
X182276571Y-88320571D01*
X182181333Y-88368190D01*
X181800380Y-88368190D01*
D11*
X156070904Y-80966571D02*
X156070904Y-82180857D01*
X156167666Y-82323714D01*
X156264428Y-82395142D01*
X156457952Y-82466571D01*
X156845000Y-82466571D01*
X157038523Y-82395142D01*
X157135285Y-82323714D01*
X157232047Y-82180857D01*
X157232047Y-80966571D01*
X158199666Y-82466571D02*
X158199666Y-80966571D01*
X159360809Y-82466571D01*
X159360809Y-80966571D01*
X160715476Y-80966571D02*
X161102523Y-80966571D01*
X161296047Y-81038000D01*
X161489571Y-81180857D01*
X161586333Y-81466571D01*
X161586333Y-81966571D01*
X161489571Y-82252285D01*
X161296047Y-82395142D01*
X161102523Y-82466571D01*
X160715476Y-82466571D01*
X160521952Y-82395142D01*
X160328428Y-82252285D01*
X160231666Y-81966571D01*
X160231666Y-81466571D01*
X160328428Y-81180857D01*
X160521952Y-81038000D01*
X160715476Y-80966571D01*
X164005380Y-82466571D02*
X164005380Y-80966571D01*
X164489190Y-80966571D01*
X164779476Y-81038000D01*
X164972999Y-81180857D01*
X165069761Y-81323714D01*
X165166523Y-81609428D01*
X165166523Y-81823714D01*
X165069761Y-82109428D01*
X164972999Y-82252285D01*
X164779476Y-82395142D01*
X164489190Y-82466571D01*
X164005380Y-82466571D01*
X166037380Y-82466571D02*
X166037380Y-80966571D01*
X167392047Y-81752285D02*
X167392047Y-82466571D01*
X166714714Y-80966571D02*
X167392047Y-81752285D01*
X168069380Y-80966571D01*
D12*
X183702000Y-79442000D02*
X178502000Y-79442000D01*
X183702000Y-84582000D02*
X183702000Y-79442000D01*
X178502000Y-87182000D02*
X178502000Y-79442000D01*
X183702000Y-84582000D02*
X181102000Y-84582000D01*
X181102000Y-84582000D02*
X181102000Y-87182000D01*
X181102000Y-87182000D02*
X178502000Y-87182000D01*
X183702000Y-85852000D02*
X183702000Y-87182000D01*
X183702000Y-87182000D02*
X182372000Y-87182000D01*
X142108000Y-113918000D02*
X142108000Y-110618000D01*
X142108000Y-110618000D02*
X135208000Y-110618000D01*
X142108000Y-113918000D02*
X135208000Y-113918000D01*
X183778200Y-74463600D02*
X183778200Y-75793600D01*
X182448200Y-74463600D02*
X183778200Y-74463600D01*
X181178200Y-74463600D02*
X181178200Y-77123600D01*
X181178200Y-77123600D02*
X163338200Y-77123600D01*
X181178200Y-74463600D02*
X163338200Y-74463600D01*
X163338200Y-74463600D02*
X163338200Y-77123600D01*
X141519600Y-74463600D02*
X141519600Y-77123600D01*
X159359600Y-74463600D02*
X141519600Y-74463600D01*
X159359600Y-77123600D02*
X141519600Y-77123600D01*
X159359600Y-74463600D02*
X159359600Y-77123600D01*
X160629600Y-74463600D02*
X161959600Y-74463600D01*
X161959600Y-74463600D02*
X161959600Y-75793600D01*
D10*
X142993000Y-82570600D02*
X142418000Y-82570600D01*
X142993000Y-88320600D02*
X142343000Y-88320600D01*
X132343000Y-88320600D02*
X132993000Y-88320600D01*
X132343000Y-82570600D02*
X132993000Y-82570600D01*
X142993000Y-82570600D02*
X142993000Y-88320600D01*
X132343000Y-82570600D02*
X132343000Y-88320600D01*
X142418000Y-82570600D02*
X142418000Y-80970600D01*
D12*
X142442000Y-108202252D02*
X142442000Y-107679748D01*
X141022000Y-108202252D02*
X141022000Y-107679748D01*
X132282000Y-98314252D02*
X132282000Y-97791748D01*
X130862000Y-98314252D02*
X130862000Y-97791748D01*
X136396252Y-94794000D02*
X135873748Y-94794000D01*
X136396252Y-96214000D02*
X135873748Y-96214000D01*
X135891748Y-91746000D02*
X136414252Y-91746000D01*
X135891748Y-93166000D02*
X136414252Y-93166000D01*
X140717748Y-78665000D02*
X141240252Y-78665000D01*
X140717748Y-80085000D02*
X141240252Y-80085000D01*
X145499000Y-112656252D02*
X145499000Y-112133748D01*
X144079000Y-112656252D02*
X144079000Y-112133748D01*
X146565252Y-104342000D02*
X146042748Y-104342000D01*
X146565252Y-102922000D02*
X146042748Y-102922000D01*
X167656252Y-104215000D02*
X167133748Y-104215000D01*
X167656252Y-102795000D02*
X167133748Y-102795000D01*
X165337748Y-89561600D02*
X165860252Y-89561600D01*
X165337748Y-90981600D02*
X165860252Y-90981600D01*
X160823652Y-89612400D02*
X160301148Y-89612400D01*
X160823652Y-91032400D02*
X160301148Y-91032400D01*
X167006748Y-117146000D02*
X167529252Y-117146000D01*
X167006748Y-118566000D02*
X167529252Y-118566000D01*
X144315500Y-102227000D02*
X148375500Y-102227000D01*
X144315500Y-99957000D02*
X144315500Y-102227000D01*
X148375500Y-99957000D02*
X144315500Y-99957000D01*
X148448500Y-86749000D02*
X144388500Y-86749000D01*
X144388500Y-86749000D02*
X144388500Y-89019000D01*
X144388500Y-89019000D02*
X148448500Y-89019000D01*
X148448500Y-91829000D02*
X144388500Y-91829000D01*
X144388500Y-91829000D02*
X144388500Y-94099000D01*
X144388500Y-94099000D02*
X148448500Y-94099000D01*
X149235500Y-78621000D02*
X145175500Y-78621000D01*
X149235500Y-80891000D02*
X149235500Y-78621000D01*
X145175500Y-80891000D02*
X149235500Y-80891000D01*
X125279800Y-95130800D02*
X129539800Y-95130800D01*
X129539800Y-95130800D02*
X129539800Y-82810800D01*
X129539800Y-82810800D02*
X125279800Y-82810800D01*
X121179800Y-95130800D02*
X112819800Y-95130800D01*
X112819800Y-95130800D02*
X112819800Y-82810800D01*
X112819800Y-82810800D02*
X121179800Y-82810800D01*
X129759800Y-90220800D02*
X130259800Y-90720800D01*
X130259800Y-90720800D02*
X130259800Y-89720800D01*
X130259800Y-89720800D02*
X129759800Y-90220800D01*
X131886000Y-78038000D02*
X131886000Y-75378000D01*
X124206000Y-78038000D02*
X131886000Y-78038000D01*
X124206000Y-75378000D02*
X131886000Y-75378000D01*
X124206000Y-78038000D02*
X124206000Y-75378000D01*
X122936000Y-78038000D02*
X121606000Y-78038000D01*
X121606000Y-78038000D02*
X121606000Y-76708000D01*
X165998200Y-125383600D02*
X165998200Y-122723600D01*
X153238200Y-125383600D02*
X165998200Y-125383600D01*
X153238200Y-122723600D02*
X165998200Y-122723600D01*
X153238200Y-125383600D02*
X153238200Y-122723600D01*
X151968200Y-125383600D02*
X150638200Y-125383600D01*
X150638200Y-125383600D02*
X150638200Y-124053600D01*
X168443600Y-125383600D02*
X168443600Y-124053600D01*
X169773600Y-125383600D02*
X168443600Y-125383600D01*
X171043600Y-125383600D02*
X171043600Y-122723600D01*
X171043600Y-122723600D02*
X183803600Y-122723600D01*
X171043600Y-125383600D02*
X183803600Y-125383600D01*
X183803600Y-125383600D02*
X183803600Y-122723600D01*
X139894000Y-96834000D02*
X142554000Y-96834000D01*
X139894000Y-94234000D02*
X139894000Y-96834000D01*
X142554000Y-94234000D02*
X142554000Y-96834000D01*
X139894000Y-94234000D02*
X142554000Y-94234000D01*
X139894000Y-92964000D02*
X139894000Y-91634000D01*
X139894000Y-91634000D02*
X141224000Y-91634000D01*
X122550000Y-98190000D02*
X122550000Y-99450000D01*
X122550000Y-105010000D02*
X122550000Y-103750000D01*
X126310000Y-98190000D02*
X122550000Y-98190000D01*
X128560000Y-105010000D02*
X122550000Y-105010000D01*
X140469252Y-97842000D02*
X139946748Y-97842000D01*
X140469252Y-99262000D02*
X139946748Y-99262000D01*
X136414252Y-99262000D02*
X135891748Y-99262000D01*
X136414252Y-97842000D02*
X135891748Y-97842000D01*
X146574252Y-97334000D02*
X146051748Y-97334000D01*
X146574252Y-98754000D02*
X146051748Y-98754000D01*
X146574252Y-96214000D02*
X146051748Y-96214000D01*
X146574252Y-94794000D02*
X146051748Y-94794000D01*
X146042748Y-84634000D02*
X146565252Y-84634000D01*
X146042748Y-86054000D02*
X146565252Y-86054000D01*
X146033748Y-91134000D02*
X146556252Y-91134000D01*
X146033748Y-89714000D02*
X146556252Y-89714000D01*
X179907000Y-102360252D02*
X179907000Y-101837748D01*
X178487000Y-102360252D02*
X178487000Y-101837748D01*
X176328000Y-101855748D02*
X176328000Y-102378252D01*
X177748000Y-101855748D02*
X177748000Y-102378252D01*
X175589000Y-101855748D02*
X175589000Y-102378252D01*
X174169000Y-101855748D02*
X174169000Y-102378252D01*
X146051748Y-82094000D02*
X146574252Y-82094000D01*
X146051748Y-83514000D02*
X146574252Y-83514000D01*
X181096000Y-96358000D02*
X180686000Y-96358000D01*
X180686000Y-96358000D02*
X180686000Y-102778000D01*
X180686000Y-102778000D02*
X180966000Y-102778000D01*
X182696000Y-102778000D02*
X185096000Y-102778000D01*
X186696000Y-102778000D02*
X187106000Y-102778000D01*
X187106000Y-102778000D02*
X187106000Y-96358000D01*
X187106000Y-96358000D02*
X186696000Y-96358000D01*
X185096000Y-96358000D02*
X182696000Y-96358000D01*
X134539500Y-105200000D02*
X134539500Y-107947500D01*
X134539500Y-107947500D02*
X134822000Y-107947500D01*
X134539500Y-105200000D02*
X134539500Y-102452500D01*
X134539500Y-102452500D02*
X134822000Y-102452500D01*
X140034500Y-105200000D02*
X140034500Y-107947500D01*
X140034500Y-107947500D02*
X139752000Y-107947500D01*
X140034500Y-105200000D02*
X140034500Y-102452500D01*
X140034500Y-102452500D02*
X139752000Y-102452500D01*
X139752000Y-102452500D02*
X139752000Y-100800000D01*
X185226000Y-111845600D02*
G75*
G02X185226000Y-109845600I0J1000000D01*
G01*
X185226000Y-109845600D02*
X185226000Y-108195600D01*
X185226000Y-108195600D02*
X149546000Y-108195600D01*
X149546000Y-108195600D02*
X149546000Y-113495600D01*
X149546000Y-113495600D02*
X185226000Y-113495600D01*
X185226000Y-113495600D02*
X185226000Y-111845600D01*
X157574400Y-98028600D02*
X170174400Y-98028600D01*
X170174400Y-98028600D02*
X170174400Y-92928600D01*
X170174400Y-92928600D02*
X157574400Y-92928600D01*
X130662000Y-93566064D02*
X130662000Y-92361936D01*
X132482000Y-93566064D02*
X132482000Y-92361936D01*
X136439600Y-74463600D02*
X136439600Y-77123600D01*
X139039600Y-74463600D02*
X136439600Y-74463600D01*
X139039600Y-77123600D02*
X136439600Y-77123600D01*
X139039600Y-74463600D02*
X139039600Y-77123600D01*
X140309600Y-74463600D02*
X141639600Y-74463600D01*
X141639600Y-74463600D02*
X141639600Y-75793600D01*
X124086000Y-123751400D02*
X115586000Y-123751400D01*
X115586000Y-123751400D02*
X115586000Y-114551400D01*
X115586000Y-114551400D02*
X130286000Y-114551400D01*
X130286000Y-121651400D02*
X130286000Y-123751400D01*
X130286000Y-123751400D02*
X128486000Y-123751400D01*
X130586000Y-115951400D02*
X130586000Y-114251400D01*
X130586000Y-114251400D02*
X128986000Y-114251400D01*
X130286000Y-114551400D02*
X130286000Y-116651400D01*
X126446000Y-112670000D02*
X127946000Y-112670000D01*
X127946000Y-112670000D02*
X127946000Y-112400000D01*
X127946000Y-112400000D02*
X130776000Y-112400000D01*
X126446000Y-105770000D02*
X127946000Y-105770000D01*
X127946000Y-105770000D02*
X127946000Y-106040000D01*
X127946000Y-106040000D02*
X129046000Y-106040000D01*
X140520000Y-124656000D02*
X143270000Y-124656000D01*
X149040000Y-124656000D02*
X146290000Y-124656000D01*
X149040000Y-117200437D02*
X149040000Y-124656000D01*
X140520000Y-117200437D02*
X140520000Y-124656000D01*
X141584437Y-116136000D02*
X143270000Y-116136000D01*
X147975563Y-116136000D02*
X146290000Y-116136000D01*
X147975563Y-116136000D02*
X149040000Y-117200437D01*
X141584437Y-116136000D02*
X140520000Y-117200437D01*
X147290000Y-114896000D02*
X147290000Y-115896000D01*
X147790000Y-115396000D02*
X146790000Y-115396000D01*
X138646000Y-115394000D02*
X137646000Y-115394000D01*
X138146000Y-114894000D02*
X138146000Y-115894000D01*
X132440437Y-116134000D02*
X131376000Y-117198437D01*
X138831563Y-116134000D02*
X139896000Y-117198437D01*
X138831563Y-116134000D02*
X137146000Y-116134000D01*
X132440437Y-116134000D02*
X134126000Y-116134000D01*
X131376000Y-117198437D02*
X131376000Y-124654000D01*
X139896000Y-117198437D02*
X139896000Y-124654000D01*
X139896000Y-124654000D02*
X137146000Y-124654000D01*
X131376000Y-124654000D02*
X134126000Y-124654000D01*
D10*
X176450666Y-79208380D02*
X176450666Y-79922666D01*
X176403047Y-80065523D01*
X176307809Y-80160761D01*
X176164952Y-80208380D01*
X176069714Y-80208380D01*
X177355428Y-79208380D02*
X177164952Y-79208380D01*
X177069714Y-79256000D01*
X177022095Y-79303619D01*
X176926857Y-79446476D01*
X176879238Y-79636952D01*
X176879238Y-80017904D01*
X176926857Y-80113142D01*
X176974476Y-80160761D01*
X177069714Y-80208380D01*
X177260190Y-80208380D01*
X177355428Y-80160761D01*
X177403047Y-80113142D01*
X177450666Y-80017904D01*
X177450666Y-79779809D01*
X177403047Y-79684571D01*
X177355428Y-79636952D01*
X177260190Y-79589333D01*
X177069714Y-79589333D01*
X176974476Y-79636952D01*
X176926857Y-79684571D01*
X176879238Y-79779809D01*
X132786380Y-112752095D02*
X131786380Y-112752095D01*
X131786380Y-112514000D01*
X131834000Y-112371142D01*
X131929238Y-112275904D01*
X132024476Y-112228285D01*
X132214952Y-112180666D01*
X132357809Y-112180666D01*
X132548285Y-112228285D01*
X132643523Y-112275904D01*
X132738761Y-112371142D01*
X132786380Y-112514000D01*
X132786380Y-112752095D01*
X132786380Y-111228285D02*
X132786380Y-111799714D01*
X132786380Y-111514000D02*
X131786380Y-111514000D01*
X131929238Y-111609238D01*
X132024476Y-111704476D01*
X132072095Y-111799714D01*
X183054666Y-77938380D02*
X183054666Y-78652666D01*
X183007047Y-78795523D01*
X182911809Y-78890761D01*
X182768952Y-78938380D01*
X182673714Y-78938380D01*
X183435619Y-77938380D02*
X184102285Y-77938380D01*
X183673714Y-78938380D01*
X161464666Y-78192380D02*
X161464666Y-78906666D01*
X161417047Y-79049523D01*
X161321809Y-79144761D01*
X161178952Y-79192380D01*
X161083714Y-79192380D01*
X162083714Y-78620952D02*
X161988476Y-78573333D01*
X161940857Y-78525714D01*
X161893238Y-78430476D01*
X161893238Y-78382857D01*
X161940857Y-78287619D01*
X161988476Y-78240000D01*
X162083714Y-78192380D01*
X162274190Y-78192380D01*
X162369428Y-78240000D01*
X162417047Y-78287619D01*
X162464666Y-78382857D01*
X162464666Y-78430476D01*
X162417047Y-78525714D01*
X162369428Y-78573333D01*
X162274190Y-78620952D01*
X162083714Y-78620952D01*
X161988476Y-78668571D01*
X161940857Y-78716190D01*
X161893238Y-78811428D01*
X161893238Y-79001904D01*
X161940857Y-79097142D01*
X161988476Y-79144761D01*
X162083714Y-79192380D01*
X162274190Y-79192380D01*
X162369428Y-79144761D01*
X162417047Y-79097142D01*
X162464666Y-79001904D01*
X162464666Y-78811428D01*
X162417047Y-78716190D01*
X162369428Y-78668571D01*
X162274190Y-78620952D01*
X137160095Y-84796380D02*
X137160095Y-85605904D01*
X137207714Y-85701142D01*
X137255333Y-85748761D01*
X137350571Y-85796380D01*
X137541047Y-85796380D01*
X137636285Y-85748761D01*
X137683904Y-85701142D01*
X137731523Y-85605904D01*
X137731523Y-84796380D01*
X138112476Y-84796380D02*
X138731523Y-84796380D01*
X138398190Y-85177333D01*
X138541047Y-85177333D01*
X138636285Y-85224952D01*
X138683904Y-85272571D01*
X138731523Y-85367809D01*
X138731523Y-85605904D01*
X138683904Y-85701142D01*
X138636285Y-85748761D01*
X138541047Y-85796380D01*
X138255333Y-85796380D01*
X138160095Y-85748761D01*
X138112476Y-85701142D01*
X143867142Y-107862666D02*
X143914761Y-107910285D01*
X143962380Y-108053142D01*
X143962380Y-108148380D01*
X143914761Y-108291238D01*
X143819523Y-108386476D01*
X143724285Y-108434095D01*
X143533809Y-108481714D01*
X143390952Y-108481714D01*
X143200476Y-108434095D01*
X143105238Y-108386476D01*
X143010000Y-108291238D01*
X142962380Y-108148380D01*
X142962380Y-108053142D01*
X143010000Y-107910285D01*
X143057619Y-107862666D01*
X143962380Y-106910285D02*
X143962380Y-107481714D01*
X143962380Y-107196000D02*
X142962380Y-107196000D01*
X143105238Y-107291238D01*
X143200476Y-107386476D01*
X143248095Y-107481714D01*
X130279142Y-98219666D02*
X130326761Y-98267285D01*
X130374380Y-98410142D01*
X130374380Y-98505380D01*
X130326761Y-98648238D01*
X130231523Y-98743476D01*
X130136285Y-98791095D01*
X129945809Y-98838714D01*
X129802952Y-98838714D01*
X129612476Y-98791095D01*
X129517238Y-98743476D01*
X129422000Y-98648238D01*
X129374380Y-98505380D01*
X129374380Y-98410142D01*
X129422000Y-98267285D01*
X129469619Y-98219666D01*
X129469619Y-97838714D02*
X129422000Y-97791095D01*
X129374380Y-97695857D01*
X129374380Y-97457761D01*
X129422000Y-97362523D01*
X129469619Y-97314904D01*
X129564857Y-97267285D01*
X129660095Y-97267285D01*
X129802952Y-97314904D01*
X130374380Y-97886333D01*
X130374380Y-97267285D01*
X133961142Y-95670666D02*
X134008761Y-95718285D01*
X134056380Y-95861142D01*
X134056380Y-95956380D01*
X134008761Y-96099238D01*
X133913523Y-96194476D01*
X133818285Y-96242095D01*
X133627809Y-96289714D01*
X133484952Y-96289714D01*
X133294476Y-96242095D01*
X133199238Y-96194476D01*
X133104000Y-96099238D01*
X133056380Y-95956380D01*
X133056380Y-95861142D01*
X133104000Y-95718285D01*
X133151619Y-95670666D01*
X133056380Y-95337333D02*
X133056380Y-94718285D01*
X133437333Y-95051619D01*
X133437333Y-94908761D01*
X133484952Y-94813523D01*
X133532571Y-94765904D01*
X133627809Y-94718285D01*
X133865904Y-94718285D01*
X133961142Y-94765904D01*
X134008761Y-94813523D01*
X134056380Y-94908761D01*
X134056380Y-95194476D01*
X134008761Y-95289714D01*
X133961142Y-95337333D01*
X133961142Y-92622666D02*
X134008761Y-92670285D01*
X134056380Y-92813142D01*
X134056380Y-92908380D01*
X134008761Y-93051238D01*
X133913523Y-93146476D01*
X133818285Y-93194095D01*
X133627809Y-93241714D01*
X133484952Y-93241714D01*
X133294476Y-93194095D01*
X133199238Y-93146476D01*
X133104000Y-93051238D01*
X133056380Y-92908380D01*
X133056380Y-92813142D01*
X133104000Y-92670285D01*
X133151619Y-92622666D01*
X133056380Y-91717904D02*
X133056380Y-92194095D01*
X133532571Y-92241714D01*
X133484952Y-92194095D01*
X133437333Y-92098857D01*
X133437333Y-91860761D01*
X133484952Y-91765523D01*
X133532571Y-91717904D01*
X133627809Y-91670285D01*
X133865904Y-91670285D01*
X133961142Y-91717904D01*
X134008761Y-91765523D01*
X134056380Y-91860761D01*
X134056380Y-92098857D01*
X134008761Y-92194095D01*
X133961142Y-92241714D01*
X137882333Y-79732142D02*
X137834714Y-79779761D01*
X137691857Y-79827380D01*
X137596619Y-79827380D01*
X137453761Y-79779761D01*
X137358523Y-79684523D01*
X137310904Y-79589285D01*
X137263285Y-79398809D01*
X137263285Y-79255952D01*
X137310904Y-79065476D01*
X137358523Y-78970238D01*
X137453761Y-78875000D01*
X137596619Y-78827380D01*
X137691857Y-78827380D01*
X137834714Y-78875000D01*
X137882333Y-78922619D01*
X138739476Y-78827380D02*
X138549000Y-78827380D01*
X138453761Y-78875000D01*
X138406142Y-78922619D01*
X138310904Y-79065476D01*
X138263285Y-79255952D01*
X138263285Y-79636904D01*
X138310904Y-79732142D01*
X138358523Y-79779761D01*
X138453761Y-79827380D01*
X138644238Y-79827380D01*
X138739476Y-79779761D01*
X138787095Y-79732142D01*
X138834714Y-79636904D01*
X138834714Y-79398809D01*
X138787095Y-79303571D01*
X138739476Y-79255952D01*
X138644238Y-79208333D01*
X138453761Y-79208333D01*
X138358523Y-79255952D01*
X138310904Y-79303571D01*
X138263285Y-79398809D01*
X143496142Y-112434666D02*
X143543761Y-112482285D01*
X143591380Y-112625142D01*
X143591380Y-112720380D01*
X143543761Y-112863238D01*
X143448523Y-112958476D01*
X143353285Y-113006095D01*
X143162809Y-113053714D01*
X143019952Y-113053714D01*
X142829476Y-113006095D01*
X142734238Y-112958476D01*
X142639000Y-112863238D01*
X142591380Y-112720380D01*
X142591380Y-112625142D01*
X142639000Y-112482285D01*
X142686619Y-112434666D01*
X142591380Y-112101333D02*
X142591380Y-111434666D01*
X143591380Y-111863238D01*
X146137333Y-105639142D02*
X146089714Y-105686761D01*
X145946857Y-105734380D01*
X145851619Y-105734380D01*
X145708761Y-105686761D01*
X145613523Y-105591523D01*
X145565904Y-105496285D01*
X145518285Y-105305809D01*
X145518285Y-105162952D01*
X145565904Y-104972476D01*
X145613523Y-104877238D01*
X145708761Y-104782000D01*
X145851619Y-104734380D01*
X145946857Y-104734380D01*
X146089714Y-104782000D01*
X146137333Y-104829619D01*
X146613523Y-105734380D02*
X146804000Y-105734380D01*
X146899238Y-105686761D01*
X146946857Y-105639142D01*
X147042095Y-105496285D01*
X147089714Y-105305809D01*
X147089714Y-104924857D01*
X147042095Y-104829619D01*
X146994476Y-104782000D01*
X146899238Y-104734380D01*
X146708761Y-104734380D01*
X146613523Y-104782000D01*
X146565904Y-104829619D01*
X146518285Y-104924857D01*
X146518285Y-105162952D01*
X146565904Y-105258190D01*
X146613523Y-105305809D01*
X146708761Y-105353428D01*
X146899238Y-105353428D01*
X146994476Y-105305809D01*
X147042095Y-105258190D01*
X147089714Y-105162952D01*
X166616142Y-101957142D02*
X166568523Y-102004761D01*
X166425666Y-102052380D01*
X166330428Y-102052380D01*
X166187571Y-102004761D01*
X166092333Y-101909523D01*
X166044714Y-101814285D01*
X165997095Y-101623809D01*
X165997095Y-101480952D01*
X166044714Y-101290476D01*
X166092333Y-101195238D01*
X166187571Y-101100000D01*
X166330428Y-101052380D01*
X166425666Y-101052380D01*
X166568523Y-101100000D01*
X166616142Y-101147619D01*
X167568523Y-102052380D02*
X166997095Y-102052380D01*
X167282809Y-102052380D02*
X167282809Y-101052380D01*
X167187571Y-101195238D01*
X167092333Y-101290476D01*
X166997095Y-101338095D01*
X168187571Y-101052380D02*
X168282809Y-101052380D01*
X168378047Y-101100000D01*
X168425666Y-101147619D01*
X168473285Y-101242857D01*
X168520904Y-101433333D01*
X168520904Y-101671428D01*
X168473285Y-101861904D01*
X168425666Y-101957142D01*
X168378047Y-102004761D01*
X168282809Y-102052380D01*
X168187571Y-102052380D01*
X168092333Y-102004761D01*
X168044714Y-101957142D01*
X167997095Y-101861904D01*
X167949476Y-101671428D01*
X167949476Y-101433333D01*
X167997095Y-101242857D01*
X168044714Y-101147619D01*
X168092333Y-101100000D01*
X168187571Y-101052380D01*
X164956142Y-88978742D02*
X164908523Y-89026361D01*
X164765666Y-89073980D01*
X164670428Y-89073980D01*
X164527571Y-89026361D01*
X164432333Y-88931123D01*
X164384714Y-88835885D01*
X164337095Y-88645409D01*
X164337095Y-88502552D01*
X164384714Y-88312076D01*
X164432333Y-88216838D01*
X164527571Y-88121600D01*
X164670428Y-88073980D01*
X164765666Y-88073980D01*
X164908523Y-88121600D01*
X164956142Y-88169219D01*
X165908523Y-89073980D02*
X165337095Y-89073980D01*
X165622809Y-89073980D02*
X165622809Y-88073980D01*
X165527571Y-88216838D01*
X165432333Y-88312076D01*
X165337095Y-88359695D01*
X166860904Y-89073980D02*
X166289476Y-89073980D01*
X166575190Y-89073980D02*
X166575190Y-88073980D01*
X166479952Y-88216838D01*
X166384714Y-88312076D01*
X166289476Y-88359695D01*
X159885142Y-89003142D02*
X159837523Y-89050761D01*
X159694666Y-89098380D01*
X159599428Y-89098380D01*
X159456571Y-89050761D01*
X159361333Y-88955523D01*
X159313714Y-88860285D01*
X159266095Y-88669809D01*
X159266095Y-88526952D01*
X159313714Y-88336476D01*
X159361333Y-88241238D01*
X159456571Y-88146000D01*
X159599428Y-88098380D01*
X159694666Y-88098380D01*
X159837523Y-88146000D01*
X159885142Y-88193619D01*
X160837523Y-89098380D02*
X160266095Y-89098380D01*
X160551809Y-89098380D02*
X160551809Y-88098380D01*
X160456571Y-88241238D01*
X160361333Y-88336476D01*
X160266095Y-88384095D01*
X161218476Y-88193619D02*
X161266095Y-88146000D01*
X161361333Y-88098380D01*
X161599428Y-88098380D01*
X161694666Y-88146000D01*
X161742285Y-88193619D01*
X161789904Y-88288857D01*
X161789904Y-88384095D01*
X161742285Y-88526952D01*
X161170857Y-89098380D01*
X161789904Y-89098380D01*
X170426142Y-118467142D02*
X170378523Y-118514761D01*
X170235666Y-118562380D01*
X170140428Y-118562380D01*
X169997571Y-118514761D01*
X169902333Y-118419523D01*
X169854714Y-118324285D01*
X169807095Y-118133809D01*
X169807095Y-117990952D01*
X169854714Y-117800476D01*
X169902333Y-117705238D01*
X169997571Y-117610000D01*
X170140428Y-117562380D01*
X170235666Y-117562380D01*
X170378523Y-117610000D01*
X170426142Y-117657619D01*
X171378523Y-118562380D02*
X170807095Y-118562380D01*
X171092809Y-118562380D02*
X171092809Y-117562380D01*
X170997571Y-117705238D01*
X170902333Y-117800476D01*
X170807095Y-117848095D01*
X171711857Y-117562380D02*
X172330904Y-117562380D01*
X171997571Y-117943333D01*
X172140428Y-117943333D01*
X172235666Y-117990952D01*
X172283285Y-118038571D01*
X172330904Y-118133809D01*
X172330904Y-118371904D01*
X172283285Y-118467142D01*
X172235666Y-118514761D01*
X172140428Y-118562380D01*
X171854714Y-118562380D01*
X171759476Y-118514761D01*
X171711857Y-118467142D01*
X143962380Y-101830095D02*
X142962380Y-101830095D01*
X142962380Y-101592000D01*
X143010000Y-101449142D01*
X143105238Y-101353904D01*
X143200476Y-101306285D01*
X143390952Y-101258666D01*
X143533809Y-101258666D01*
X143724285Y-101306285D01*
X143819523Y-101353904D01*
X143914761Y-101449142D01*
X143962380Y-101592000D01*
X143962380Y-101830095D01*
X143057619Y-100877714D02*
X143010000Y-100830095D01*
X142962380Y-100734857D01*
X142962380Y-100496761D01*
X143010000Y-100401523D01*
X143057619Y-100353904D01*
X143152857Y-100306285D01*
X143248095Y-100306285D01*
X143390952Y-100353904D01*
X143962380Y-100925333D01*
X143962380Y-100306285D01*
X144216380Y-88622095D02*
X143216380Y-88622095D01*
X143216380Y-88384000D01*
X143264000Y-88241142D01*
X143359238Y-88145904D01*
X143454476Y-88098285D01*
X143644952Y-88050666D01*
X143787809Y-88050666D01*
X143978285Y-88098285D01*
X144073523Y-88145904D01*
X144168761Y-88241142D01*
X144216380Y-88384000D01*
X144216380Y-88622095D01*
X143216380Y-87717333D02*
X143216380Y-87098285D01*
X143597333Y-87431619D01*
X143597333Y-87288761D01*
X143644952Y-87193523D01*
X143692571Y-87145904D01*
X143787809Y-87098285D01*
X144025904Y-87098285D01*
X144121142Y-87145904D01*
X144168761Y-87193523D01*
X144216380Y-87288761D01*
X144216380Y-87574476D01*
X144168761Y-87669714D01*
X144121142Y-87717333D01*
X144216380Y-93702095D02*
X143216380Y-93702095D01*
X143216380Y-93464000D01*
X143264000Y-93321142D01*
X143359238Y-93225904D01*
X143454476Y-93178285D01*
X143644952Y-93130666D01*
X143787809Y-93130666D01*
X143978285Y-93178285D01*
X144073523Y-93225904D01*
X144168761Y-93321142D01*
X144216380Y-93464000D01*
X144216380Y-93702095D01*
X143549714Y-92273523D02*
X144216380Y-92273523D01*
X143168761Y-92511619D02*
X143883047Y-92749714D01*
X143883047Y-92130666D01*
X144089380Y-80367095D02*
X143089380Y-80367095D01*
X143089380Y-80129000D01*
X143137000Y-79986142D01*
X143232238Y-79890904D01*
X143327476Y-79843285D01*
X143517952Y-79795666D01*
X143660809Y-79795666D01*
X143851285Y-79843285D01*
X143946523Y-79890904D01*
X144041761Y-79986142D01*
X144089380Y-80129000D01*
X144089380Y-80367095D01*
X143089380Y-78890904D02*
X143089380Y-79367095D01*
X143565571Y-79414714D01*
X143517952Y-79367095D01*
X143470333Y-79271857D01*
X143470333Y-79033761D01*
X143517952Y-78938523D01*
X143565571Y-78890904D01*
X143660809Y-78843285D01*
X143898904Y-78843285D01*
X143994142Y-78890904D01*
X144041761Y-78938523D01*
X144089380Y-79033761D01*
X144089380Y-79271857D01*
X144041761Y-79367095D01*
X143994142Y-79414714D01*
X121840666Y-88098380D02*
X121840666Y-88812666D01*
X121793047Y-88955523D01*
X121697809Y-89050761D01*
X121554952Y-89098380D01*
X121459714Y-89098380D01*
X122840666Y-89098380D02*
X122269238Y-89098380D01*
X122554952Y-89098380D02*
X122554952Y-88098380D01*
X122459714Y-88241238D01*
X122364476Y-88336476D01*
X122269238Y-88384095D01*
X119554666Y-76160380D02*
X119554666Y-76874666D01*
X119507047Y-77017523D01*
X119411809Y-77112761D01*
X119268952Y-77160380D01*
X119173714Y-77160380D01*
X119935619Y-76160380D02*
X120554666Y-76160380D01*
X120221333Y-76541333D01*
X120364190Y-76541333D01*
X120459428Y-76588952D01*
X120507047Y-76636571D01*
X120554666Y-76731809D01*
X120554666Y-76969904D01*
X120507047Y-77065142D01*
X120459428Y-77112761D01*
X120364190Y-77160380D01*
X120078476Y-77160380D01*
X119983238Y-77112761D01*
X119935619Y-77065142D01*
X148510666Y-125182380D02*
X148510666Y-125896666D01*
X148463047Y-126039523D01*
X148367809Y-126134761D01*
X148224952Y-126182380D01*
X148129714Y-126182380D01*
X149415428Y-125515714D02*
X149415428Y-126182380D01*
X149177333Y-125134761D02*
X148939238Y-125849047D01*
X149558285Y-125849047D01*
X168322666Y-120864380D02*
X168322666Y-121578666D01*
X168275047Y-121721523D01*
X168179809Y-121816761D01*
X168036952Y-121864380D01*
X167941714Y-121864380D01*
X169275047Y-120864380D02*
X168798857Y-120864380D01*
X168751238Y-121340571D01*
X168798857Y-121292952D01*
X168894095Y-121245333D01*
X169132190Y-121245333D01*
X169227428Y-121292952D01*
X169275047Y-121340571D01*
X169322666Y-121435809D01*
X169322666Y-121673904D01*
X169275047Y-121769142D01*
X169227428Y-121816761D01*
X169132190Y-121864380D01*
X168894095Y-121864380D01*
X168798857Y-121816761D01*
X168751238Y-121769142D01*
X138136380Y-95067333D02*
X138850666Y-95067333D01*
X138993523Y-95114952D01*
X139088761Y-95210190D01*
X139136380Y-95353047D01*
X139136380Y-95448285D01*
X139136380Y-94591142D02*
X138136380Y-94591142D01*
X138136380Y-94210190D01*
X138184000Y-94114952D01*
X138231619Y-94067333D01*
X138326857Y-94019714D01*
X138469714Y-94019714D01*
X138564952Y-94067333D01*
X138612571Y-94114952D01*
X138660190Y-94210190D01*
X138660190Y-94591142D01*
X139136380Y-93067333D02*
X139136380Y-93638761D01*
X139136380Y-93353047D02*
X138136380Y-93353047D01*
X138279238Y-93448285D01*
X138374476Y-93543523D01*
X138422095Y-93638761D01*
X125007619Y-101441238D02*
X124960000Y-101536476D01*
X124864761Y-101631714D01*
X124721904Y-101774571D01*
X124674285Y-101869809D01*
X124674285Y-101965047D01*
X124912380Y-101917428D02*
X124864761Y-102012666D01*
X124769523Y-102107904D01*
X124579047Y-102155523D01*
X124245714Y-102155523D01*
X124055238Y-102107904D01*
X123960000Y-102012666D01*
X123912380Y-101917428D01*
X123912380Y-101726952D01*
X123960000Y-101631714D01*
X124055238Y-101536476D01*
X124245714Y-101488857D01*
X124579047Y-101488857D01*
X124769523Y-101536476D01*
X124864761Y-101631714D01*
X124912380Y-101726952D01*
X124912380Y-101917428D01*
X124912380Y-100536476D02*
X124912380Y-101107904D01*
X124912380Y-100822190D02*
X123912380Y-100822190D01*
X124055238Y-100917428D01*
X124150476Y-101012666D01*
X124198095Y-101107904D01*
X143454380Y-98718666D02*
X142978190Y-99052000D01*
X143454380Y-99290095D02*
X142454380Y-99290095D01*
X142454380Y-98909142D01*
X142502000Y-98813904D01*
X142549619Y-98766285D01*
X142644857Y-98718666D01*
X142787714Y-98718666D01*
X142882952Y-98766285D01*
X142930571Y-98813904D01*
X142978190Y-98909142D01*
X142978190Y-99290095D01*
X143454380Y-97766285D02*
X143454380Y-98337714D01*
X143454380Y-98052000D02*
X142454380Y-98052000D01*
X142597238Y-98147238D01*
X142692476Y-98242476D01*
X142740095Y-98337714D01*
X134056380Y-98718666D02*
X133580190Y-99052000D01*
X134056380Y-99290095D02*
X133056380Y-99290095D01*
X133056380Y-98909142D01*
X133104000Y-98813904D01*
X133151619Y-98766285D01*
X133246857Y-98718666D01*
X133389714Y-98718666D01*
X133484952Y-98766285D01*
X133532571Y-98813904D01*
X133580190Y-98909142D01*
X133580190Y-99290095D01*
X133151619Y-98337714D02*
X133104000Y-98290095D01*
X133056380Y-98194857D01*
X133056380Y-97956761D01*
X133104000Y-97861523D01*
X133151619Y-97813904D01*
X133246857Y-97766285D01*
X133342095Y-97766285D01*
X133484952Y-97813904D01*
X134056380Y-98385333D01*
X134056380Y-97766285D01*
X149550380Y-98210666D02*
X149074190Y-98544000D01*
X149550380Y-98782095D02*
X148550380Y-98782095D01*
X148550380Y-98401142D01*
X148598000Y-98305904D01*
X148645619Y-98258285D01*
X148740857Y-98210666D01*
X148883714Y-98210666D01*
X148978952Y-98258285D01*
X149026571Y-98305904D01*
X149074190Y-98401142D01*
X149074190Y-98782095D01*
X148550380Y-97877333D02*
X148550380Y-97258285D01*
X148931333Y-97591619D01*
X148931333Y-97448761D01*
X148978952Y-97353523D01*
X149026571Y-97305904D01*
X149121809Y-97258285D01*
X149359904Y-97258285D01*
X149455142Y-97305904D01*
X149502761Y-97353523D01*
X149550380Y-97448761D01*
X149550380Y-97734476D01*
X149502761Y-97829714D01*
X149455142Y-97877333D01*
X144216380Y-95670666D02*
X143740190Y-96004000D01*
X144216380Y-96242095D02*
X143216380Y-96242095D01*
X143216380Y-95861142D01*
X143264000Y-95765904D01*
X143311619Y-95718285D01*
X143406857Y-95670666D01*
X143549714Y-95670666D01*
X143644952Y-95718285D01*
X143692571Y-95765904D01*
X143740190Y-95861142D01*
X143740190Y-96242095D01*
X143549714Y-94813523D02*
X144216380Y-94813523D01*
X143168761Y-95051619D02*
X143883047Y-95289714D01*
X143883047Y-94670666D01*
X144216380Y-85510666D02*
X143740190Y-85844000D01*
X144216380Y-86082095D02*
X143216380Y-86082095D01*
X143216380Y-85701142D01*
X143264000Y-85605904D01*
X143311619Y-85558285D01*
X143406857Y-85510666D01*
X143549714Y-85510666D01*
X143644952Y-85558285D01*
X143692571Y-85605904D01*
X143740190Y-85701142D01*
X143740190Y-86082095D01*
X143216380Y-84605904D02*
X143216380Y-85082095D01*
X143692571Y-85129714D01*
X143644952Y-85082095D01*
X143597333Y-84986857D01*
X143597333Y-84748761D01*
X143644952Y-84653523D01*
X143692571Y-84605904D01*
X143787809Y-84558285D01*
X144025904Y-84558285D01*
X144121142Y-84605904D01*
X144168761Y-84653523D01*
X144216380Y-84748761D01*
X144216380Y-84986857D01*
X144168761Y-85082095D01*
X144121142Y-85129714D01*
X144216380Y-90590666D02*
X143740190Y-90924000D01*
X144216380Y-91162095D02*
X143216380Y-91162095D01*
X143216380Y-90781142D01*
X143264000Y-90685904D01*
X143311619Y-90638285D01*
X143406857Y-90590666D01*
X143549714Y-90590666D01*
X143644952Y-90638285D01*
X143692571Y-90685904D01*
X143740190Y-90781142D01*
X143740190Y-91162095D01*
X143216380Y-89733523D02*
X143216380Y-89924000D01*
X143264000Y-90019238D01*
X143311619Y-90066857D01*
X143454476Y-90162095D01*
X143644952Y-90209714D01*
X144025904Y-90209714D01*
X144121142Y-90162095D01*
X144168761Y-90114476D01*
X144216380Y-90019238D01*
X144216380Y-89828761D01*
X144168761Y-89733523D01*
X144121142Y-89685904D01*
X144025904Y-89638285D01*
X143787809Y-89638285D01*
X143692571Y-89685904D01*
X143644952Y-89733523D01*
X143597333Y-89828761D01*
X143597333Y-90019238D01*
X143644952Y-90114476D01*
X143692571Y-90162095D01*
X143787809Y-90209714D01*
X179649380Y-99353666D02*
X179173190Y-99687000D01*
X179649380Y-99925095D02*
X178649380Y-99925095D01*
X178649380Y-99544142D01*
X178697000Y-99448904D01*
X178744619Y-99401285D01*
X178839857Y-99353666D01*
X178982714Y-99353666D01*
X179077952Y-99401285D01*
X179125571Y-99448904D01*
X179173190Y-99544142D01*
X179173190Y-99925095D01*
X178649380Y-99020333D02*
X178649380Y-98353666D01*
X179649380Y-98782238D01*
X177617380Y-99353666D02*
X177141190Y-99687000D01*
X177617380Y-99925095D02*
X176617380Y-99925095D01*
X176617380Y-99544142D01*
X176665000Y-99448904D01*
X176712619Y-99401285D01*
X176807857Y-99353666D01*
X176950714Y-99353666D01*
X177045952Y-99401285D01*
X177093571Y-99448904D01*
X177141190Y-99544142D01*
X177141190Y-99925095D01*
X177045952Y-98782238D02*
X176998333Y-98877476D01*
X176950714Y-98925095D01*
X176855476Y-98972714D01*
X176807857Y-98972714D01*
X176712619Y-98925095D01*
X176665000Y-98877476D01*
X176617380Y-98782238D01*
X176617380Y-98591761D01*
X176665000Y-98496523D01*
X176712619Y-98448904D01*
X176807857Y-98401285D01*
X176855476Y-98401285D01*
X176950714Y-98448904D01*
X176998333Y-98496523D01*
X177045952Y-98591761D01*
X177045952Y-98782238D01*
X177093571Y-98877476D01*
X177141190Y-98925095D01*
X177236428Y-98972714D01*
X177426904Y-98972714D01*
X177522142Y-98925095D01*
X177569761Y-98877476D01*
X177617380Y-98782238D01*
X177617380Y-98591761D01*
X177569761Y-98496523D01*
X177522142Y-98448904D01*
X177426904Y-98401285D01*
X177236428Y-98401285D01*
X177141190Y-98448904D01*
X177093571Y-98496523D01*
X177045952Y-98591761D01*
X175467380Y-99489666D02*
X174991190Y-99823000D01*
X175467380Y-100061095D02*
X174467380Y-100061095D01*
X174467380Y-99680142D01*
X174515000Y-99584904D01*
X174562619Y-99537285D01*
X174657857Y-99489666D01*
X174800714Y-99489666D01*
X174895952Y-99537285D01*
X174943571Y-99584904D01*
X174991190Y-99680142D01*
X174991190Y-100061095D01*
X175467380Y-99013476D02*
X175467380Y-98823000D01*
X175419761Y-98727761D01*
X175372142Y-98680142D01*
X175229285Y-98584904D01*
X175038809Y-98537285D01*
X174657857Y-98537285D01*
X174562619Y-98584904D01*
X174515000Y-98632523D01*
X174467380Y-98727761D01*
X174467380Y-98918238D01*
X174515000Y-99013476D01*
X174562619Y-99061095D01*
X174657857Y-99108714D01*
X174895952Y-99108714D01*
X174991190Y-99061095D01*
X175038809Y-99013476D01*
X175086428Y-98918238D01*
X175086428Y-98727761D01*
X175038809Y-98632523D01*
X174991190Y-98584904D01*
X174895952Y-98537285D01*
X144216380Y-83446857D02*
X143740190Y-83780190D01*
X144216380Y-84018285D02*
X143216380Y-84018285D01*
X143216380Y-83637333D01*
X143264000Y-83542095D01*
X143311619Y-83494476D01*
X143406857Y-83446857D01*
X143549714Y-83446857D01*
X143644952Y-83494476D01*
X143692571Y-83542095D01*
X143740190Y-83637333D01*
X143740190Y-84018285D01*
X144216380Y-82494476D02*
X144216380Y-83065904D01*
X144216380Y-82780190D02*
X143216380Y-82780190D01*
X143359238Y-82875428D01*
X143454476Y-82970666D01*
X143502095Y-83065904D01*
X143216380Y-81875428D02*
X143216380Y-81780190D01*
X143264000Y-81684952D01*
X143311619Y-81637333D01*
X143406857Y-81589714D01*
X143597333Y-81542095D01*
X143835428Y-81542095D01*
X144025904Y-81589714D01*
X144121142Y-81637333D01*
X144168761Y-81684952D01*
X144216380Y-81780190D01*
X144216380Y-81875428D01*
X144168761Y-81970666D01*
X144121142Y-82018285D01*
X144025904Y-82065904D01*
X143835428Y-82113523D01*
X143597333Y-82113523D01*
X143406857Y-82065904D01*
X143311619Y-82018285D01*
X143264000Y-81970666D01*
X143216380Y-81875428D01*
X184173761Y-100647333D02*
X184221380Y-100504476D01*
X184221380Y-100266380D01*
X184173761Y-100171142D01*
X184126142Y-100123523D01*
X184030904Y-100075904D01*
X183935666Y-100075904D01*
X183840428Y-100123523D01*
X183792809Y-100171142D01*
X183745190Y-100266380D01*
X183697571Y-100456857D01*
X183649952Y-100552095D01*
X183602333Y-100599714D01*
X183507095Y-100647333D01*
X183411857Y-100647333D01*
X183316619Y-100599714D01*
X183269000Y-100552095D01*
X183221380Y-100456857D01*
X183221380Y-100218761D01*
X183269000Y-100075904D01*
X183221380Y-99742571D02*
X184221380Y-99504476D01*
X183507095Y-99314000D01*
X184221380Y-99123523D01*
X183221380Y-98885428D01*
X184221380Y-97980666D02*
X184221380Y-98552095D01*
X184221380Y-98266380D02*
X183221380Y-98266380D01*
X183364238Y-98361619D01*
X183459476Y-98456857D01*
X183507095Y-98552095D01*
X136866380Y-105663904D02*
X137675904Y-105663904D01*
X137771142Y-105616285D01*
X137818761Y-105568666D01*
X137866380Y-105473428D01*
X137866380Y-105282952D01*
X137818761Y-105187714D01*
X137771142Y-105140095D01*
X137675904Y-105092476D01*
X136866380Y-105092476D01*
X137866380Y-104092476D02*
X137866380Y-104663904D01*
X137866380Y-104378190D02*
X136866380Y-104378190D01*
X137009238Y-104473428D01*
X137104476Y-104568666D01*
X137152095Y-104663904D01*
X166370095Y-110196380D02*
X166370095Y-111005904D01*
X166417714Y-111101142D01*
X166465333Y-111148761D01*
X166560571Y-111196380D01*
X166751047Y-111196380D01*
X166846285Y-111148761D01*
X166893904Y-111101142D01*
X166941523Y-111005904D01*
X166941523Y-110196380D01*
X167846285Y-110529714D02*
X167846285Y-111196380D01*
X167608190Y-110148761D02*
X167370095Y-110863047D01*
X167989142Y-110863047D01*
X162998209Y-95734190D02*
X162998209Y-96210380D01*
X162664876Y-95210380D02*
X162998209Y-95734190D01*
X163331542Y-95210380D01*
X164188685Y-96210380D02*
X163617257Y-96210380D01*
X163902971Y-96210380D02*
X163902971Y-95210380D01*
X163807733Y-95353238D01*
X163712495Y-95448476D01*
X163617257Y-95496095D01*
X129680571Y-93297333D02*
X129680571Y-93630666D01*
X130204380Y-93630666D02*
X129204380Y-93630666D01*
X129204380Y-93154476D01*
X130204380Y-92249714D02*
X130204380Y-92821142D01*
X130204380Y-92535428D02*
X129204380Y-92535428D01*
X129347238Y-92630666D01*
X129442476Y-92725904D01*
X129490095Y-92821142D01*
X142091980Y-76126933D02*
X142806266Y-76126933D01*
X142949123Y-76174552D01*
X143044361Y-76269790D01*
X143091980Y-76412647D01*
X143091980Y-76507885D01*
X143091980Y-75603123D02*
X143091980Y-75412647D01*
X143044361Y-75317409D01*
X142996742Y-75269790D01*
X142853885Y-75174552D01*
X142663409Y-75126933D01*
X142282457Y-75126933D01*
X142187219Y-75174552D01*
X142139600Y-75222171D01*
X142091980Y-75317409D01*
X142091980Y-75507885D01*
X142139600Y-75603123D01*
X142187219Y-75650742D01*
X142282457Y-75698361D01*
X142520552Y-75698361D01*
X142615790Y-75650742D01*
X142663409Y-75603123D01*
X142711028Y-75507885D01*
X142711028Y-75317409D01*
X142663409Y-75222171D01*
X142615790Y-75174552D01*
X142520552Y-75126933D01*
X125944380Y-119713333D02*
X126658666Y-119713333D01*
X126801523Y-119760952D01*
X126896761Y-119856190D01*
X126944380Y-119999047D01*
X126944380Y-120094285D01*
X126039619Y-119284761D02*
X125992000Y-119237142D01*
X125944380Y-119141904D01*
X125944380Y-118903809D01*
X125992000Y-118808571D01*
X126039619Y-118760952D01*
X126134857Y-118713333D01*
X126230095Y-118713333D01*
X126372952Y-118760952D01*
X126944380Y-119332380D01*
X126944380Y-118713333D01*
X127722380Y-109727904D02*
X128531904Y-109727904D01*
X128627142Y-109680285D01*
X128674761Y-109632666D01*
X128722380Y-109537428D01*
X128722380Y-109346952D01*
X128674761Y-109251714D01*
X128627142Y-109204095D01*
X128531904Y-109156476D01*
X127722380Y-109156476D01*
X127817619Y-108727904D02*
X127770000Y-108680285D01*
X127722380Y-108585047D01*
X127722380Y-108346952D01*
X127770000Y-108251714D01*
X127817619Y-108204095D01*
X127912857Y-108156476D01*
X128008095Y-108156476D01*
X128150952Y-108204095D01*
X128722380Y-108775523D01*
X128722380Y-108156476D01*
X144613333Y-120753142D02*
X144565714Y-120800761D01*
X144422857Y-120848380D01*
X144327619Y-120848380D01*
X144184761Y-120800761D01*
X144089523Y-120705523D01*
X144041904Y-120610285D01*
X143994285Y-120419809D01*
X143994285Y-120276952D01*
X144041904Y-120086476D01*
X144089523Y-119991238D01*
X144184761Y-119896000D01*
X144327619Y-119848380D01*
X144422857Y-119848380D01*
X144565714Y-119896000D01*
X144613333Y-119943619D01*
X145470476Y-120181714D02*
X145470476Y-120848380D01*
X145232380Y-119800761D02*
X144994285Y-120515047D01*
X145613333Y-120515047D01*
X135469333Y-120751142D02*
X135421714Y-120798761D01*
X135278857Y-120846380D01*
X135183619Y-120846380D01*
X135040761Y-120798761D01*
X134945523Y-120703523D01*
X134897904Y-120608285D01*
X134850285Y-120417809D01*
X134850285Y-120274952D01*
X134897904Y-120084476D01*
X134945523Y-119989238D01*
X135040761Y-119894000D01*
X135183619Y-119846380D01*
X135278857Y-119846380D01*
X135421714Y-119894000D01*
X135469333Y-119941619D01*
X136040761Y-120274952D02*
X135945523Y-120227333D01*
X135897904Y-120179714D01*
X135850285Y-120084476D01*
X135850285Y-120036857D01*
X135897904Y-119941619D01*
X135945523Y-119894000D01*
X136040761Y-119846380D01*
X136231238Y-119846380D01*
X136326476Y-119894000D01*
X136374095Y-119941619D01*
X136421714Y-120036857D01*
X136421714Y-120084476D01*
X136374095Y-120179714D01*
X136326476Y-120227333D01*
X136231238Y-120274952D01*
X136040761Y-120274952D01*
X135945523Y-120322571D01*
X135897904Y-120370190D01*
X135850285Y-120465428D01*
X135850285Y-120655904D01*
X135897904Y-120751142D01*
X135945523Y-120798761D01*
X136040761Y-120846380D01*
X136231238Y-120846380D01*
X136326476Y-120798761D01*
X136374095Y-120751142D01*
X136421714Y-120655904D01*
X136421714Y-120465428D01*
X136374095Y-120370190D01*
X136326476Y-120322571D01*
X136231238Y-120274952D01*
M02*
