G04 #@! TF.GenerationSoftware,KiCad,Pcbnew,(5.1.4-0-10_14)*
G04 #@! TF.CreationDate,2020-06-11T20:45:34+02:00*
G04 #@! TF.ProjectId,zArduino,7a417264-7569-46e6-9f2e-6b696361645f,rev?*
G04 #@! TF.SameCoordinates,Original*
G04 #@! TF.FileFunction,Paste,Top*
G04 #@! TF.FilePolarity,Positive*
%FSLAX46Y46*%
G04 Gerber Fmt 4.6, Leading zero omitted, Abs format (unit mm)*
G04 Created by KiCad (PCBNEW (5.1.4-0-10_14)) date 2020-06-11 20:45:34*
%MOMM*%
%LPD*%
G04 APERTURE LIST*
%ADD10R,3.500000X1.800000*%
%ADD11R,0.450000X1.750000*%
%ADD12C,0.100000*%
%ADD13C,1.150000*%
%ADD14C,1.425000*%
%ADD15R,2.000000X3.800000*%
%ADD16R,2.000000X1.500000*%
%ADD17R,1.000000X2.800000*%
%ADD18C,0.600000*%
%ADD19R,4.500000X2.000000*%
%ADD20R,2.200000X1.200000*%
%ADD21R,3.050000X2.750000*%
%ADD22C,2.500000*%
G04 APERTURE END LIST*
D10*
X140208000Y-112268000D03*
X135208000Y-112268000D03*
D11*
X141893000Y-81845600D03*
X141243000Y-81845600D03*
X140593000Y-81845600D03*
X139943000Y-81845600D03*
X139293000Y-81845600D03*
X138643000Y-81845600D03*
X137993000Y-81845600D03*
X137343000Y-81845600D03*
X136693000Y-81845600D03*
X136043000Y-81845600D03*
X135393000Y-81845600D03*
X134743000Y-81845600D03*
X134093000Y-81845600D03*
X133443000Y-81845600D03*
X133443000Y-89045600D03*
X134093000Y-89045600D03*
X134743000Y-89045600D03*
X135393000Y-89045600D03*
X136043000Y-89045600D03*
X136693000Y-89045600D03*
X137343000Y-89045600D03*
X137993000Y-89045600D03*
X138643000Y-89045600D03*
X139293000Y-89045600D03*
X139943000Y-89045600D03*
X140593000Y-89045600D03*
X141243000Y-89045600D03*
X141893000Y-89045600D03*
D12*
G36*
X142206505Y-106342204D02*
G01*
X142230773Y-106345804D01*
X142254572Y-106351765D01*
X142277671Y-106360030D01*
X142299850Y-106370520D01*
X142320893Y-106383132D01*
X142340599Y-106397747D01*
X142358777Y-106414223D01*
X142375253Y-106432401D01*
X142389868Y-106452107D01*
X142402480Y-106473150D01*
X142412970Y-106495329D01*
X142421235Y-106518428D01*
X142427196Y-106542227D01*
X142430796Y-106566495D01*
X142432000Y-106590999D01*
X142432000Y-107241001D01*
X142430796Y-107265505D01*
X142427196Y-107289773D01*
X142421235Y-107313572D01*
X142412970Y-107336671D01*
X142402480Y-107358850D01*
X142389868Y-107379893D01*
X142375253Y-107399599D01*
X142358777Y-107417777D01*
X142340599Y-107434253D01*
X142320893Y-107448868D01*
X142299850Y-107461480D01*
X142277671Y-107471970D01*
X142254572Y-107480235D01*
X142230773Y-107486196D01*
X142206505Y-107489796D01*
X142182001Y-107491000D01*
X141281999Y-107491000D01*
X141257495Y-107489796D01*
X141233227Y-107486196D01*
X141209428Y-107480235D01*
X141186329Y-107471970D01*
X141164150Y-107461480D01*
X141143107Y-107448868D01*
X141123401Y-107434253D01*
X141105223Y-107417777D01*
X141088747Y-107399599D01*
X141074132Y-107379893D01*
X141061520Y-107358850D01*
X141051030Y-107336671D01*
X141042765Y-107313572D01*
X141036804Y-107289773D01*
X141033204Y-107265505D01*
X141032000Y-107241001D01*
X141032000Y-106590999D01*
X141033204Y-106566495D01*
X141036804Y-106542227D01*
X141042765Y-106518428D01*
X141051030Y-106495329D01*
X141061520Y-106473150D01*
X141074132Y-106452107D01*
X141088747Y-106432401D01*
X141105223Y-106414223D01*
X141123401Y-106397747D01*
X141143107Y-106383132D01*
X141164150Y-106370520D01*
X141186329Y-106360030D01*
X141209428Y-106351765D01*
X141233227Y-106345804D01*
X141257495Y-106342204D01*
X141281999Y-106341000D01*
X142182001Y-106341000D01*
X142206505Y-106342204D01*
X142206505Y-106342204D01*
G37*
D13*
X141732000Y-106916000D03*
D12*
G36*
X142206505Y-108392204D02*
G01*
X142230773Y-108395804D01*
X142254572Y-108401765D01*
X142277671Y-108410030D01*
X142299850Y-108420520D01*
X142320893Y-108433132D01*
X142340599Y-108447747D01*
X142358777Y-108464223D01*
X142375253Y-108482401D01*
X142389868Y-108502107D01*
X142402480Y-108523150D01*
X142412970Y-108545329D01*
X142421235Y-108568428D01*
X142427196Y-108592227D01*
X142430796Y-108616495D01*
X142432000Y-108640999D01*
X142432000Y-109291001D01*
X142430796Y-109315505D01*
X142427196Y-109339773D01*
X142421235Y-109363572D01*
X142412970Y-109386671D01*
X142402480Y-109408850D01*
X142389868Y-109429893D01*
X142375253Y-109449599D01*
X142358777Y-109467777D01*
X142340599Y-109484253D01*
X142320893Y-109498868D01*
X142299850Y-109511480D01*
X142277671Y-109521970D01*
X142254572Y-109530235D01*
X142230773Y-109536196D01*
X142206505Y-109539796D01*
X142182001Y-109541000D01*
X141281999Y-109541000D01*
X141257495Y-109539796D01*
X141233227Y-109536196D01*
X141209428Y-109530235D01*
X141186329Y-109521970D01*
X141164150Y-109511480D01*
X141143107Y-109498868D01*
X141123401Y-109484253D01*
X141105223Y-109467777D01*
X141088747Y-109449599D01*
X141074132Y-109429893D01*
X141061520Y-109408850D01*
X141051030Y-109386671D01*
X141042765Y-109363572D01*
X141036804Y-109339773D01*
X141033204Y-109315505D01*
X141032000Y-109291001D01*
X141032000Y-108640999D01*
X141033204Y-108616495D01*
X141036804Y-108592227D01*
X141042765Y-108568428D01*
X141051030Y-108545329D01*
X141061520Y-108523150D01*
X141074132Y-108502107D01*
X141088747Y-108482401D01*
X141105223Y-108464223D01*
X141123401Y-108447747D01*
X141143107Y-108433132D01*
X141164150Y-108420520D01*
X141186329Y-108410030D01*
X141209428Y-108401765D01*
X141233227Y-108395804D01*
X141257495Y-108392204D01*
X141281999Y-108391000D01*
X142182001Y-108391000D01*
X142206505Y-108392204D01*
X142206505Y-108392204D01*
G37*
D13*
X141732000Y-108966000D03*
D12*
G36*
X132046505Y-96454204D02*
G01*
X132070773Y-96457804D01*
X132094572Y-96463765D01*
X132117671Y-96472030D01*
X132139850Y-96482520D01*
X132160893Y-96495132D01*
X132180599Y-96509747D01*
X132198777Y-96526223D01*
X132215253Y-96544401D01*
X132229868Y-96564107D01*
X132242480Y-96585150D01*
X132252970Y-96607329D01*
X132261235Y-96630428D01*
X132267196Y-96654227D01*
X132270796Y-96678495D01*
X132272000Y-96702999D01*
X132272000Y-97353001D01*
X132270796Y-97377505D01*
X132267196Y-97401773D01*
X132261235Y-97425572D01*
X132252970Y-97448671D01*
X132242480Y-97470850D01*
X132229868Y-97491893D01*
X132215253Y-97511599D01*
X132198777Y-97529777D01*
X132180599Y-97546253D01*
X132160893Y-97560868D01*
X132139850Y-97573480D01*
X132117671Y-97583970D01*
X132094572Y-97592235D01*
X132070773Y-97598196D01*
X132046505Y-97601796D01*
X132022001Y-97603000D01*
X131121999Y-97603000D01*
X131097495Y-97601796D01*
X131073227Y-97598196D01*
X131049428Y-97592235D01*
X131026329Y-97583970D01*
X131004150Y-97573480D01*
X130983107Y-97560868D01*
X130963401Y-97546253D01*
X130945223Y-97529777D01*
X130928747Y-97511599D01*
X130914132Y-97491893D01*
X130901520Y-97470850D01*
X130891030Y-97448671D01*
X130882765Y-97425572D01*
X130876804Y-97401773D01*
X130873204Y-97377505D01*
X130872000Y-97353001D01*
X130872000Y-96702999D01*
X130873204Y-96678495D01*
X130876804Y-96654227D01*
X130882765Y-96630428D01*
X130891030Y-96607329D01*
X130901520Y-96585150D01*
X130914132Y-96564107D01*
X130928747Y-96544401D01*
X130945223Y-96526223D01*
X130963401Y-96509747D01*
X130983107Y-96495132D01*
X131004150Y-96482520D01*
X131026329Y-96472030D01*
X131049428Y-96463765D01*
X131073227Y-96457804D01*
X131097495Y-96454204D01*
X131121999Y-96453000D01*
X132022001Y-96453000D01*
X132046505Y-96454204D01*
X132046505Y-96454204D01*
G37*
D13*
X131572000Y-97028000D03*
D12*
G36*
X132046505Y-98504204D02*
G01*
X132070773Y-98507804D01*
X132094572Y-98513765D01*
X132117671Y-98522030D01*
X132139850Y-98532520D01*
X132160893Y-98545132D01*
X132180599Y-98559747D01*
X132198777Y-98576223D01*
X132215253Y-98594401D01*
X132229868Y-98614107D01*
X132242480Y-98635150D01*
X132252970Y-98657329D01*
X132261235Y-98680428D01*
X132267196Y-98704227D01*
X132270796Y-98728495D01*
X132272000Y-98752999D01*
X132272000Y-99403001D01*
X132270796Y-99427505D01*
X132267196Y-99451773D01*
X132261235Y-99475572D01*
X132252970Y-99498671D01*
X132242480Y-99520850D01*
X132229868Y-99541893D01*
X132215253Y-99561599D01*
X132198777Y-99579777D01*
X132180599Y-99596253D01*
X132160893Y-99610868D01*
X132139850Y-99623480D01*
X132117671Y-99633970D01*
X132094572Y-99642235D01*
X132070773Y-99648196D01*
X132046505Y-99651796D01*
X132022001Y-99653000D01*
X131121999Y-99653000D01*
X131097495Y-99651796D01*
X131073227Y-99648196D01*
X131049428Y-99642235D01*
X131026329Y-99633970D01*
X131004150Y-99623480D01*
X130983107Y-99610868D01*
X130963401Y-99596253D01*
X130945223Y-99579777D01*
X130928747Y-99561599D01*
X130914132Y-99541893D01*
X130901520Y-99520850D01*
X130891030Y-99498671D01*
X130882765Y-99475572D01*
X130876804Y-99451773D01*
X130873204Y-99427505D01*
X130872000Y-99403001D01*
X130872000Y-98752999D01*
X130873204Y-98728495D01*
X130876804Y-98704227D01*
X130882765Y-98680428D01*
X130891030Y-98657329D01*
X130901520Y-98635150D01*
X130914132Y-98614107D01*
X130928747Y-98594401D01*
X130945223Y-98576223D01*
X130963401Y-98559747D01*
X130983107Y-98545132D01*
X131004150Y-98532520D01*
X131026329Y-98522030D01*
X131049428Y-98513765D01*
X131073227Y-98507804D01*
X131097495Y-98504204D01*
X131121999Y-98503000D01*
X132022001Y-98503000D01*
X132046505Y-98504204D01*
X132046505Y-98504204D01*
G37*
D13*
X131572000Y-99078000D03*
D12*
G36*
X135459505Y-94805204D02*
G01*
X135483773Y-94808804D01*
X135507572Y-94814765D01*
X135530671Y-94823030D01*
X135552850Y-94833520D01*
X135573893Y-94846132D01*
X135593599Y-94860747D01*
X135611777Y-94877223D01*
X135628253Y-94895401D01*
X135642868Y-94915107D01*
X135655480Y-94936150D01*
X135665970Y-94958329D01*
X135674235Y-94981428D01*
X135680196Y-95005227D01*
X135683796Y-95029495D01*
X135685000Y-95053999D01*
X135685000Y-95954001D01*
X135683796Y-95978505D01*
X135680196Y-96002773D01*
X135674235Y-96026572D01*
X135665970Y-96049671D01*
X135655480Y-96071850D01*
X135642868Y-96092893D01*
X135628253Y-96112599D01*
X135611777Y-96130777D01*
X135593599Y-96147253D01*
X135573893Y-96161868D01*
X135552850Y-96174480D01*
X135530671Y-96184970D01*
X135507572Y-96193235D01*
X135483773Y-96199196D01*
X135459505Y-96202796D01*
X135435001Y-96204000D01*
X134784999Y-96204000D01*
X134760495Y-96202796D01*
X134736227Y-96199196D01*
X134712428Y-96193235D01*
X134689329Y-96184970D01*
X134667150Y-96174480D01*
X134646107Y-96161868D01*
X134626401Y-96147253D01*
X134608223Y-96130777D01*
X134591747Y-96112599D01*
X134577132Y-96092893D01*
X134564520Y-96071850D01*
X134554030Y-96049671D01*
X134545765Y-96026572D01*
X134539804Y-96002773D01*
X134536204Y-95978505D01*
X134535000Y-95954001D01*
X134535000Y-95053999D01*
X134536204Y-95029495D01*
X134539804Y-95005227D01*
X134545765Y-94981428D01*
X134554030Y-94958329D01*
X134564520Y-94936150D01*
X134577132Y-94915107D01*
X134591747Y-94895401D01*
X134608223Y-94877223D01*
X134626401Y-94860747D01*
X134646107Y-94846132D01*
X134667150Y-94833520D01*
X134689329Y-94823030D01*
X134712428Y-94814765D01*
X134736227Y-94808804D01*
X134760495Y-94805204D01*
X134784999Y-94804000D01*
X135435001Y-94804000D01*
X135459505Y-94805204D01*
X135459505Y-94805204D01*
G37*
D13*
X135110000Y-95504000D03*
D12*
G36*
X137509505Y-94805204D02*
G01*
X137533773Y-94808804D01*
X137557572Y-94814765D01*
X137580671Y-94823030D01*
X137602850Y-94833520D01*
X137623893Y-94846132D01*
X137643599Y-94860747D01*
X137661777Y-94877223D01*
X137678253Y-94895401D01*
X137692868Y-94915107D01*
X137705480Y-94936150D01*
X137715970Y-94958329D01*
X137724235Y-94981428D01*
X137730196Y-95005227D01*
X137733796Y-95029495D01*
X137735000Y-95053999D01*
X137735000Y-95954001D01*
X137733796Y-95978505D01*
X137730196Y-96002773D01*
X137724235Y-96026572D01*
X137715970Y-96049671D01*
X137705480Y-96071850D01*
X137692868Y-96092893D01*
X137678253Y-96112599D01*
X137661777Y-96130777D01*
X137643599Y-96147253D01*
X137623893Y-96161868D01*
X137602850Y-96174480D01*
X137580671Y-96184970D01*
X137557572Y-96193235D01*
X137533773Y-96199196D01*
X137509505Y-96202796D01*
X137485001Y-96204000D01*
X136834999Y-96204000D01*
X136810495Y-96202796D01*
X136786227Y-96199196D01*
X136762428Y-96193235D01*
X136739329Y-96184970D01*
X136717150Y-96174480D01*
X136696107Y-96161868D01*
X136676401Y-96147253D01*
X136658223Y-96130777D01*
X136641747Y-96112599D01*
X136627132Y-96092893D01*
X136614520Y-96071850D01*
X136604030Y-96049671D01*
X136595765Y-96026572D01*
X136589804Y-96002773D01*
X136586204Y-95978505D01*
X136585000Y-95954001D01*
X136585000Y-95053999D01*
X136586204Y-95029495D01*
X136589804Y-95005227D01*
X136595765Y-94981428D01*
X136604030Y-94958329D01*
X136614520Y-94936150D01*
X136627132Y-94915107D01*
X136641747Y-94895401D01*
X136658223Y-94877223D01*
X136676401Y-94860747D01*
X136696107Y-94846132D01*
X136717150Y-94833520D01*
X136739329Y-94823030D01*
X136762428Y-94814765D01*
X136786227Y-94808804D01*
X136810495Y-94805204D01*
X136834999Y-94804000D01*
X137485001Y-94804000D01*
X137509505Y-94805204D01*
X137509505Y-94805204D01*
G37*
D13*
X137160000Y-95504000D03*
D12*
G36*
X135477505Y-91757204D02*
G01*
X135501773Y-91760804D01*
X135525572Y-91766765D01*
X135548671Y-91775030D01*
X135570850Y-91785520D01*
X135591893Y-91798132D01*
X135611599Y-91812747D01*
X135629777Y-91829223D01*
X135646253Y-91847401D01*
X135660868Y-91867107D01*
X135673480Y-91888150D01*
X135683970Y-91910329D01*
X135692235Y-91933428D01*
X135698196Y-91957227D01*
X135701796Y-91981495D01*
X135703000Y-92005999D01*
X135703000Y-92906001D01*
X135701796Y-92930505D01*
X135698196Y-92954773D01*
X135692235Y-92978572D01*
X135683970Y-93001671D01*
X135673480Y-93023850D01*
X135660868Y-93044893D01*
X135646253Y-93064599D01*
X135629777Y-93082777D01*
X135611599Y-93099253D01*
X135591893Y-93113868D01*
X135570850Y-93126480D01*
X135548671Y-93136970D01*
X135525572Y-93145235D01*
X135501773Y-93151196D01*
X135477505Y-93154796D01*
X135453001Y-93156000D01*
X134802999Y-93156000D01*
X134778495Y-93154796D01*
X134754227Y-93151196D01*
X134730428Y-93145235D01*
X134707329Y-93136970D01*
X134685150Y-93126480D01*
X134664107Y-93113868D01*
X134644401Y-93099253D01*
X134626223Y-93082777D01*
X134609747Y-93064599D01*
X134595132Y-93044893D01*
X134582520Y-93023850D01*
X134572030Y-93001671D01*
X134563765Y-92978572D01*
X134557804Y-92954773D01*
X134554204Y-92930505D01*
X134553000Y-92906001D01*
X134553000Y-92005999D01*
X134554204Y-91981495D01*
X134557804Y-91957227D01*
X134563765Y-91933428D01*
X134572030Y-91910329D01*
X134582520Y-91888150D01*
X134595132Y-91867107D01*
X134609747Y-91847401D01*
X134626223Y-91829223D01*
X134644401Y-91812747D01*
X134664107Y-91798132D01*
X134685150Y-91785520D01*
X134707329Y-91775030D01*
X134730428Y-91766765D01*
X134754227Y-91760804D01*
X134778495Y-91757204D01*
X134802999Y-91756000D01*
X135453001Y-91756000D01*
X135477505Y-91757204D01*
X135477505Y-91757204D01*
G37*
D13*
X135128000Y-92456000D03*
D12*
G36*
X137527505Y-91757204D02*
G01*
X137551773Y-91760804D01*
X137575572Y-91766765D01*
X137598671Y-91775030D01*
X137620850Y-91785520D01*
X137641893Y-91798132D01*
X137661599Y-91812747D01*
X137679777Y-91829223D01*
X137696253Y-91847401D01*
X137710868Y-91867107D01*
X137723480Y-91888150D01*
X137733970Y-91910329D01*
X137742235Y-91933428D01*
X137748196Y-91957227D01*
X137751796Y-91981495D01*
X137753000Y-92005999D01*
X137753000Y-92906001D01*
X137751796Y-92930505D01*
X137748196Y-92954773D01*
X137742235Y-92978572D01*
X137733970Y-93001671D01*
X137723480Y-93023850D01*
X137710868Y-93044893D01*
X137696253Y-93064599D01*
X137679777Y-93082777D01*
X137661599Y-93099253D01*
X137641893Y-93113868D01*
X137620850Y-93126480D01*
X137598671Y-93136970D01*
X137575572Y-93145235D01*
X137551773Y-93151196D01*
X137527505Y-93154796D01*
X137503001Y-93156000D01*
X136852999Y-93156000D01*
X136828495Y-93154796D01*
X136804227Y-93151196D01*
X136780428Y-93145235D01*
X136757329Y-93136970D01*
X136735150Y-93126480D01*
X136714107Y-93113868D01*
X136694401Y-93099253D01*
X136676223Y-93082777D01*
X136659747Y-93064599D01*
X136645132Y-93044893D01*
X136632520Y-93023850D01*
X136622030Y-93001671D01*
X136613765Y-92978572D01*
X136607804Y-92954773D01*
X136604204Y-92930505D01*
X136603000Y-92906001D01*
X136603000Y-92005999D01*
X136604204Y-91981495D01*
X136607804Y-91957227D01*
X136613765Y-91933428D01*
X136622030Y-91910329D01*
X136632520Y-91888150D01*
X136645132Y-91867107D01*
X136659747Y-91847401D01*
X136676223Y-91829223D01*
X136694401Y-91812747D01*
X136714107Y-91798132D01*
X136735150Y-91785520D01*
X136757329Y-91775030D01*
X136780428Y-91766765D01*
X136804227Y-91760804D01*
X136828495Y-91757204D01*
X136852999Y-91756000D01*
X137503001Y-91756000D01*
X137527505Y-91757204D01*
X137527505Y-91757204D01*
G37*
D13*
X137178000Y-92456000D03*
D12*
G36*
X140303505Y-78676204D02*
G01*
X140327773Y-78679804D01*
X140351572Y-78685765D01*
X140374671Y-78694030D01*
X140396850Y-78704520D01*
X140417893Y-78717132D01*
X140437599Y-78731747D01*
X140455777Y-78748223D01*
X140472253Y-78766401D01*
X140486868Y-78786107D01*
X140499480Y-78807150D01*
X140509970Y-78829329D01*
X140518235Y-78852428D01*
X140524196Y-78876227D01*
X140527796Y-78900495D01*
X140529000Y-78924999D01*
X140529000Y-79825001D01*
X140527796Y-79849505D01*
X140524196Y-79873773D01*
X140518235Y-79897572D01*
X140509970Y-79920671D01*
X140499480Y-79942850D01*
X140486868Y-79963893D01*
X140472253Y-79983599D01*
X140455777Y-80001777D01*
X140437599Y-80018253D01*
X140417893Y-80032868D01*
X140396850Y-80045480D01*
X140374671Y-80055970D01*
X140351572Y-80064235D01*
X140327773Y-80070196D01*
X140303505Y-80073796D01*
X140279001Y-80075000D01*
X139628999Y-80075000D01*
X139604495Y-80073796D01*
X139580227Y-80070196D01*
X139556428Y-80064235D01*
X139533329Y-80055970D01*
X139511150Y-80045480D01*
X139490107Y-80032868D01*
X139470401Y-80018253D01*
X139452223Y-80001777D01*
X139435747Y-79983599D01*
X139421132Y-79963893D01*
X139408520Y-79942850D01*
X139398030Y-79920671D01*
X139389765Y-79897572D01*
X139383804Y-79873773D01*
X139380204Y-79849505D01*
X139379000Y-79825001D01*
X139379000Y-78924999D01*
X139380204Y-78900495D01*
X139383804Y-78876227D01*
X139389765Y-78852428D01*
X139398030Y-78829329D01*
X139408520Y-78807150D01*
X139421132Y-78786107D01*
X139435747Y-78766401D01*
X139452223Y-78748223D01*
X139470401Y-78731747D01*
X139490107Y-78717132D01*
X139511150Y-78704520D01*
X139533329Y-78694030D01*
X139556428Y-78685765D01*
X139580227Y-78679804D01*
X139604495Y-78676204D01*
X139628999Y-78675000D01*
X140279001Y-78675000D01*
X140303505Y-78676204D01*
X140303505Y-78676204D01*
G37*
D13*
X139954000Y-79375000D03*
D12*
G36*
X142353505Y-78676204D02*
G01*
X142377773Y-78679804D01*
X142401572Y-78685765D01*
X142424671Y-78694030D01*
X142446850Y-78704520D01*
X142467893Y-78717132D01*
X142487599Y-78731747D01*
X142505777Y-78748223D01*
X142522253Y-78766401D01*
X142536868Y-78786107D01*
X142549480Y-78807150D01*
X142559970Y-78829329D01*
X142568235Y-78852428D01*
X142574196Y-78876227D01*
X142577796Y-78900495D01*
X142579000Y-78924999D01*
X142579000Y-79825001D01*
X142577796Y-79849505D01*
X142574196Y-79873773D01*
X142568235Y-79897572D01*
X142559970Y-79920671D01*
X142549480Y-79942850D01*
X142536868Y-79963893D01*
X142522253Y-79983599D01*
X142505777Y-80001777D01*
X142487599Y-80018253D01*
X142467893Y-80032868D01*
X142446850Y-80045480D01*
X142424671Y-80055970D01*
X142401572Y-80064235D01*
X142377773Y-80070196D01*
X142353505Y-80073796D01*
X142329001Y-80075000D01*
X141678999Y-80075000D01*
X141654495Y-80073796D01*
X141630227Y-80070196D01*
X141606428Y-80064235D01*
X141583329Y-80055970D01*
X141561150Y-80045480D01*
X141540107Y-80032868D01*
X141520401Y-80018253D01*
X141502223Y-80001777D01*
X141485747Y-79983599D01*
X141471132Y-79963893D01*
X141458520Y-79942850D01*
X141448030Y-79920671D01*
X141439765Y-79897572D01*
X141433804Y-79873773D01*
X141430204Y-79849505D01*
X141429000Y-79825001D01*
X141429000Y-78924999D01*
X141430204Y-78900495D01*
X141433804Y-78876227D01*
X141439765Y-78852428D01*
X141448030Y-78829329D01*
X141458520Y-78807150D01*
X141471132Y-78786107D01*
X141485747Y-78766401D01*
X141502223Y-78748223D01*
X141520401Y-78731747D01*
X141540107Y-78717132D01*
X141561150Y-78704520D01*
X141583329Y-78694030D01*
X141606428Y-78685765D01*
X141630227Y-78679804D01*
X141654495Y-78676204D01*
X141678999Y-78675000D01*
X142329001Y-78675000D01*
X142353505Y-78676204D01*
X142353505Y-78676204D01*
G37*
D13*
X142004000Y-79375000D03*
D12*
G36*
X145263505Y-110796204D02*
G01*
X145287773Y-110799804D01*
X145311572Y-110805765D01*
X145334671Y-110814030D01*
X145356850Y-110824520D01*
X145377893Y-110837132D01*
X145397599Y-110851747D01*
X145415777Y-110868223D01*
X145432253Y-110886401D01*
X145446868Y-110906107D01*
X145459480Y-110927150D01*
X145469970Y-110949329D01*
X145478235Y-110972428D01*
X145484196Y-110996227D01*
X145487796Y-111020495D01*
X145489000Y-111044999D01*
X145489000Y-111695001D01*
X145487796Y-111719505D01*
X145484196Y-111743773D01*
X145478235Y-111767572D01*
X145469970Y-111790671D01*
X145459480Y-111812850D01*
X145446868Y-111833893D01*
X145432253Y-111853599D01*
X145415777Y-111871777D01*
X145397599Y-111888253D01*
X145377893Y-111902868D01*
X145356850Y-111915480D01*
X145334671Y-111925970D01*
X145311572Y-111934235D01*
X145287773Y-111940196D01*
X145263505Y-111943796D01*
X145239001Y-111945000D01*
X144338999Y-111945000D01*
X144314495Y-111943796D01*
X144290227Y-111940196D01*
X144266428Y-111934235D01*
X144243329Y-111925970D01*
X144221150Y-111915480D01*
X144200107Y-111902868D01*
X144180401Y-111888253D01*
X144162223Y-111871777D01*
X144145747Y-111853599D01*
X144131132Y-111833893D01*
X144118520Y-111812850D01*
X144108030Y-111790671D01*
X144099765Y-111767572D01*
X144093804Y-111743773D01*
X144090204Y-111719505D01*
X144089000Y-111695001D01*
X144089000Y-111044999D01*
X144090204Y-111020495D01*
X144093804Y-110996227D01*
X144099765Y-110972428D01*
X144108030Y-110949329D01*
X144118520Y-110927150D01*
X144131132Y-110906107D01*
X144145747Y-110886401D01*
X144162223Y-110868223D01*
X144180401Y-110851747D01*
X144200107Y-110837132D01*
X144221150Y-110824520D01*
X144243329Y-110814030D01*
X144266428Y-110805765D01*
X144290227Y-110799804D01*
X144314495Y-110796204D01*
X144338999Y-110795000D01*
X145239001Y-110795000D01*
X145263505Y-110796204D01*
X145263505Y-110796204D01*
G37*
D13*
X144789000Y-111370000D03*
D12*
G36*
X145263505Y-112846204D02*
G01*
X145287773Y-112849804D01*
X145311572Y-112855765D01*
X145334671Y-112864030D01*
X145356850Y-112874520D01*
X145377893Y-112887132D01*
X145397599Y-112901747D01*
X145415777Y-112918223D01*
X145432253Y-112936401D01*
X145446868Y-112956107D01*
X145459480Y-112977150D01*
X145469970Y-112999329D01*
X145478235Y-113022428D01*
X145484196Y-113046227D01*
X145487796Y-113070495D01*
X145489000Y-113094999D01*
X145489000Y-113745001D01*
X145487796Y-113769505D01*
X145484196Y-113793773D01*
X145478235Y-113817572D01*
X145469970Y-113840671D01*
X145459480Y-113862850D01*
X145446868Y-113883893D01*
X145432253Y-113903599D01*
X145415777Y-113921777D01*
X145397599Y-113938253D01*
X145377893Y-113952868D01*
X145356850Y-113965480D01*
X145334671Y-113975970D01*
X145311572Y-113984235D01*
X145287773Y-113990196D01*
X145263505Y-113993796D01*
X145239001Y-113995000D01*
X144338999Y-113995000D01*
X144314495Y-113993796D01*
X144290227Y-113990196D01*
X144266428Y-113984235D01*
X144243329Y-113975970D01*
X144221150Y-113965480D01*
X144200107Y-113952868D01*
X144180401Y-113938253D01*
X144162223Y-113921777D01*
X144145747Y-113903599D01*
X144131132Y-113883893D01*
X144118520Y-113862850D01*
X144108030Y-113840671D01*
X144099765Y-113817572D01*
X144093804Y-113793773D01*
X144090204Y-113769505D01*
X144089000Y-113745001D01*
X144089000Y-113094999D01*
X144090204Y-113070495D01*
X144093804Y-113046227D01*
X144099765Y-113022428D01*
X144108030Y-112999329D01*
X144118520Y-112977150D01*
X144131132Y-112956107D01*
X144145747Y-112936401D01*
X144162223Y-112918223D01*
X144180401Y-112901747D01*
X144200107Y-112887132D01*
X144221150Y-112874520D01*
X144243329Y-112864030D01*
X144266428Y-112855765D01*
X144290227Y-112849804D01*
X144314495Y-112846204D01*
X144338999Y-112845000D01*
X145239001Y-112845000D01*
X145263505Y-112846204D01*
X145263505Y-112846204D01*
G37*
D13*
X144789000Y-113420000D03*
D12*
G36*
X147678505Y-102933204D02*
G01*
X147702773Y-102936804D01*
X147726572Y-102942765D01*
X147749671Y-102951030D01*
X147771850Y-102961520D01*
X147792893Y-102974132D01*
X147812599Y-102988747D01*
X147830777Y-103005223D01*
X147847253Y-103023401D01*
X147861868Y-103043107D01*
X147874480Y-103064150D01*
X147884970Y-103086329D01*
X147893235Y-103109428D01*
X147899196Y-103133227D01*
X147902796Y-103157495D01*
X147904000Y-103181999D01*
X147904000Y-104082001D01*
X147902796Y-104106505D01*
X147899196Y-104130773D01*
X147893235Y-104154572D01*
X147884970Y-104177671D01*
X147874480Y-104199850D01*
X147861868Y-104220893D01*
X147847253Y-104240599D01*
X147830777Y-104258777D01*
X147812599Y-104275253D01*
X147792893Y-104289868D01*
X147771850Y-104302480D01*
X147749671Y-104312970D01*
X147726572Y-104321235D01*
X147702773Y-104327196D01*
X147678505Y-104330796D01*
X147654001Y-104332000D01*
X147003999Y-104332000D01*
X146979495Y-104330796D01*
X146955227Y-104327196D01*
X146931428Y-104321235D01*
X146908329Y-104312970D01*
X146886150Y-104302480D01*
X146865107Y-104289868D01*
X146845401Y-104275253D01*
X146827223Y-104258777D01*
X146810747Y-104240599D01*
X146796132Y-104220893D01*
X146783520Y-104199850D01*
X146773030Y-104177671D01*
X146764765Y-104154572D01*
X146758804Y-104130773D01*
X146755204Y-104106505D01*
X146754000Y-104082001D01*
X146754000Y-103181999D01*
X146755204Y-103157495D01*
X146758804Y-103133227D01*
X146764765Y-103109428D01*
X146773030Y-103086329D01*
X146783520Y-103064150D01*
X146796132Y-103043107D01*
X146810747Y-103023401D01*
X146827223Y-103005223D01*
X146845401Y-102988747D01*
X146865107Y-102974132D01*
X146886150Y-102961520D01*
X146908329Y-102951030D01*
X146931428Y-102942765D01*
X146955227Y-102936804D01*
X146979495Y-102933204D01*
X147003999Y-102932000D01*
X147654001Y-102932000D01*
X147678505Y-102933204D01*
X147678505Y-102933204D01*
G37*
D13*
X147329000Y-103632000D03*
D12*
G36*
X145628505Y-102933204D02*
G01*
X145652773Y-102936804D01*
X145676572Y-102942765D01*
X145699671Y-102951030D01*
X145721850Y-102961520D01*
X145742893Y-102974132D01*
X145762599Y-102988747D01*
X145780777Y-103005223D01*
X145797253Y-103023401D01*
X145811868Y-103043107D01*
X145824480Y-103064150D01*
X145834970Y-103086329D01*
X145843235Y-103109428D01*
X145849196Y-103133227D01*
X145852796Y-103157495D01*
X145854000Y-103181999D01*
X145854000Y-104082001D01*
X145852796Y-104106505D01*
X145849196Y-104130773D01*
X145843235Y-104154572D01*
X145834970Y-104177671D01*
X145824480Y-104199850D01*
X145811868Y-104220893D01*
X145797253Y-104240599D01*
X145780777Y-104258777D01*
X145762599Y-104275253D01*
X145742893Y-104289868D01*
X145721850Y-104302480D01*
X145699671Y-104312970D01*
X145676572Y-104321235D01*
X145652773Y-104327196D01*
X145628505Y-104330796D01*
X145604001Y-104332000D01*
X144953999Y-104332000D01*
X144929495Y-104330796D01*
X144905227Y-104327196D01*
X144881428Y-104321235D01*
X144858329Y-104312970D01*
X144836150Y-104302480D01*
X144815107Y-104289868D01*
X144795401Y-104275253D01*
X144777223Y-104258777D01*
X144760747Y-104240599D01*
X144746132Y-104220893D01*
X144733520Y-104199850D01*
X144723030Y-104177671D01*
X144714765Y-104154572D01*
X144708804Y-104130773D01*
X144705204Y-104106505D01*
X144704000Y-104082001D01*
X144704000Y-103181999D01*
X144705204Y-103157495D01*
X144708804Y-103133227D01*
X144714765Y-103109428D01*
X144723030Y-103086329D01*
X144733520Y-103064150D01*
X144746132Y-103043107D01*
X144760747Y-103023401D01*
X144777223Y-103005223D01*
X144795401Y-102988747D01*
X144815107Y-102974132D01*
X144836150Y-102961520D01*
X144858329Y-102951030D01*
X144881428Y-102942765D01*
X144905227Y-102936804D01*
X144929495Y-102933204D01*
X144953999Y-102932000D01*
X145604001Y-102932000D01*
X145628505Y-102933204D01*
X145628505Y-102933204D01*
G37*
D13*
X145279000Y-103632000D03*
D12*
G36*
X168769505Y-102806204D02*
G01*
X168793773Y-102809804D01*
X168817572Y-102815765D01*
X168840671Y-102824030D01*
X168862850Y-102834520D01*
X168883893Y-102847132D01*
X168903599Y-102861747D01*
X168921777Y-102878223D01*
X168938253Y-102896401D01*
X168952868Y-102916107D01*
X168965480Y-102937150D01*
X168975970Y-102959329D01*
X168984235Y-102982428D01*
X168990196Y-103006227D01*
X168993796Y-103030495D01*
X168995000Y-103054999D01*
X168995000Y-103955001D01*
X168993796Y-103979505D01*
X168990196Y-104003773D01*
X168984235Y-104027572D01*
X168975970Y-104050671D01*
X168965480Y-104072850D01*
X168952868Y-104093893D01*
X168938253Y-104113599D01*
X168921777Y-104131777D01*
X168903599Y-104148253D01*
X168883893Y-104162868D01*
X168862850Y-104175480D01*
X168840671Y-104185970D01*
X168817572Y-104194235D01*
X168793773Y-104200196D01*
X168769505Y-104203796D01*
X168745001Y-104205000D01*
X168094999Y-104205000D01*
X168070495Y-104203796D01*
X168046227Y-104200196D01*
X168022428Y-104194235D01*
X167999329Y-104185970D01*
X167977150Y-104175480D01*
X167956107Y-104162868D01*
X167936401Y-104148253D01*
X167918223Y-104131777D01*
X167901747Y-104113599D01*
X167887132Y-104093893D01*
X167874520Y-104072850D01*
X167864030Y-104050671D01*
X167855765Y-104027572D01*
X167849804Y-104003773D01*
X167846204Y-103979505D01*
X167845000Y-103955001D01*
X167845000Y-103054999D01*
X167846204Y-103030495D01*
X167849804Y-103006227D01*
X167855765Y-102982428D01*
X167864030Y-102959329D01*
X167874520Y-102937150D01*
X167887132Y-102916107D01*
X167901747Y-102896401D01*
X167918223Y-102878223D01*
X167936401Y-102861747D01*
X167956107Y-102847132D01*
X167977150Y-102834520D01*
X167999329Y-102824030D01*
X168022428Y-102815765D01*
X168046227Y-102809804D01*
X168070495Y-102806204D01*
X168094999Y-102805000D01*
X168745001Y-102805000D01*
X168769505Y-102806204D01*
X168769505Y-102806204D01*
G37*
D13*
X168420000Y-103505000D03*
D12*
G36*
X166719505Y-102806204D02*
G01*
X166743773Y-102809804D01*
X166767572Y-102815765D01*
X166790671Y-102824030D01*
X166812850Y-102834520D01*
X166833893Y-102847132D01*
X166853599Y-102861747D01*
X166871777Y-102878223D01*
X166888253Y-102896401D01*
X166902868Y-102916107D01*
X166915480Y-102937150D01*
X166925970Y-102959329D01*
X166934235Y-102982428D01*
X166940196Y-103006227D01*
X166943796Y-103030495D01*
X166945000Y-103054999D01*
X166945000Y-103955001D01*
X166943796Y-103979505D01*
X166940196Y-104003773D01*
X166934235Y-104027572D01*
X166925970Y-104050671D01*
X166915480Y-104072850D01*
X166902868Y-104093893D01*
X166888253Y-104113599D01*
X166871777Y-104131777D01*
X166853599Y-104148253D01*
X166833893Y-104162868D01*
X166812850Y-104175480D01*
X166790671Y-104185970D01*
X166767572Y-104194235D01*
X166743773Y-104200196D01*
X166719505Y-104203796D01*
X166695001Y-104205000D01*
X166044999Y-104205000D01*
X166020495Y-104203796D01*
X165996227Y-104200196D01*
X165972428Y-104194235D01*
X165949329Y-104185970D01*
X165927150Y-104175480D01*
X165906107Y-104162868D01*
X165886401Y-104148253D01*
X165868223Y-104131777D01*
X165851747Y-104113599D01*
X165837132Y-104093893D01*
X165824520Y-104072850D01*
X165814030Y-104050671D01*
X165805765Y-104027572D01*
X165799804Y-104003773D01*
X165796204Y-103979505D01*
X165795000Y-103955001D01*
X165795000Y-103054999D01*
X165796204Y-103030495D01*
X165799804Y-103006227D01*
X165805765Y-102982428D01*
X165814030Y-102959329D01*
X165824520Y-102937150D01*
X165837132Y-102916107D01*
X165851747Y-102896401D01*
X165868223Y-102878223D01*
X165886401Y-102861747D01*
X165906107Y-102847132D01*
X165927150Y-102834520D01*
X165949329Y-102824030D01*
X165972428Y-102815765D01*
X165996227Y-102809804D01*
X166020495Y-102806204D01*
X166044999Y-102805000D01*
X166695001Y-102805000D01*
X166719505Y-102806204D01*
X166719505Y-102806204D01*
G37*
D13*
X166370000Y-103505000D03*
D12*
G36*
X164923505Y-89572804D02*
G01*
X164947773Y-89576404D01*
X164971572Y-89582365D01*
X164994671Y-89590630D01*
X165016850Y-89601120D01*
X165037893Y-89613732D01*
X165057599Y-89628347D01*
X165075777Y-89644823D01*
X165092253Y-89663001D01*
X165106868Y-89682707D01*
X165119480Y-89703750D01*
X165129970Y-89725929D01*
X165138235Y-89749028D01*
X165144196Y-89772827D01*
X165147796Y-89797095D01*
X165149000Y-89821599D01*
X165149000Y-90721601D01*
X165147796Y-90746105D01*
X165144196Y-90770373D01*
X165138235Y-90794172D01*
X165129970Y-90817271D01*
X165119480Y-90839450D01*
X165106868Y-90860493D01*
X165092253Y-90880199D01*
X165075777Y-90898377D01*
X165057599Y-90914853D01*
X165037893Y-90929468D01*
X165016850Y-90942080D01*
X164994671Y-90952570D01*
X164971572Y-90960835D01*
X164947773Y-90966796D01*
X164923505Y-90970396D01*
X164899001Y-90971600D01*
X164248999Y-90971600D01*
X164224495Y-90970396D01*
X164200227Y-90966796D01*
X164176428Y-90960835D01*
X164153329Y-90952570D01*
X164131150Y-90942080D01*
X164110107Y-90929468D01*
X164090401Y-90914853D01*
X164072223Y-90898377D01*
X164055747Y-90880199D01*
X164041132Y-90860493D01*
X164028520Y-90839450D01*
X164018030Y-90817271D01*
X164009765Y-90794172D01*
X164003804Y-90770373D01*
X164000204Y-90746105D01*
X163999000Y-90721601D01*
X163999000Y-89821599D01*
X164000204Y-89797095D01*
X164003804Y-89772827D01*
X164009765Y-89749028D01*
X164018030Y-89725929D01*
X164028520Y-89703750D01*
X164041132Y-89682707D01*
X164055747Y-89663001D01*
X164072223Y-89644823D01*
X164090401Y-89628347D01*
X164110107Y-89613732D01*
X164131150Y-89601120D01*
X164153329Y-89590630D01*
X164176428Y-89582365D01*
X164200227Y-89576404D01*
X164224495Y-89572804D01*
X164248999Y-89571600D01*
X164899001Y-89571600D01*
X164923505Y-89572804D01*
X164923505Y-89572804D01*
G37*
D13*
X164574000Y-90271600D03*
D12*
G36*
X166973505Y-89572804D02*
G01*
X166997773Y-89576404D01*
X167021572Y-89582365D01*
X167044671Y-89590630D01*
X167066850Y-89601120D01*
X167087893Y-89613732D01*
X167107599Y-89628347D01*
X167125777Y-89644823D01*
X167142253Y-89663001D01*
X167156868Y-89682707D01*
X167169480Y-89703750D01*
X167179970Y-89725929D01*
X167188235Y-89749028D01*
X167194196Y-89772827D01*
X167197796Y-89797095D01*
X167199000Y-89821599D01*
X167199000Y-90721601D01*
X167197796Y-90746105D01*
X167194196Y-90770373D01*
X167188235Y-90794172D01*
X167179970Y-90817271D01*
X167169480Y-90839450D01*
X167156868Y-90860493D01*
X167142253Y-90880199D01*
X167125777Y-90898377D01*
X167107599Y-90914853D01*
X167087893Y-90929468D01*
X167066850Y-90942080D01*
X167044671Y-90952570D01*
X167021572Y-90960835D01*
X166997773Y-90966796D01*
X166973505Y-90970396D01*
X166949001Y-90971600D01*
X166298999Y-90971600D01*
X166274495Y-90970396D01*
X166250227Y-90966796D01*
X166226428Y-90960835D01*
X166203329Y-90952570D01*
X166181150Y-90942080D01*
X166160107Y-90929468D01*
X166140401Y-90914853D01*
X166122223Y-90898377D01*
X166105747Y-90880199D01*
X166091132Y-90860493D01*
X166078520Y-90839450D01*
X166068030Y-90817271D01*
X166059765Y-90794172D01*
X166053804Y-90770373D01*
X166050204Y-90746105D01*
X166049000Y-90721601D01*
X166049000Y-89821599D01*
X166050204Y-89797095D01*
X166053804Y-89772827D01*
X166059765Y-89749028D01*
X166068030Y-89725929D01*
X166078520Y-89703750D01*
X166091132Y-89682707D01*
X166105747Y-89663001D01*
X166122223Y-89644823D01*
X166140401Y-89628347D01*
X166160107Y-89613732D01*
X166181150Y-89601120D01*
X166203329Y-89590630D01*
X166226428Y-89582365D01*
X166250227Y-89576404D01*
X166274495Y-89572804D01*
X166298999Y-89571600D01*
X166949001Y-89571600D01*
X166973505Y-89572804D01*
X166973505Y-89572804D01*
G37*
D13*
X166624000Y-90271600D03*
D12*
G36*
X159886905Y-89623604D02*
G01*
X159911173Y-89627204D01*
X159934972Y-89633165D01*
X159958071Y-89641430D01*
X159980250Y-89651920D01*
X160001293Y-89664532D01*
X160020999Y-89679147D01*
X160039177Y-89695623D01*
X160055653Y-89713801D01*
X160070268Y-89733507D01*
X160082880Y-89754550D01*
X160093370Y-89776729D01*
X160101635Y-89799828D01*
X160107596Y-89823627D01*
X160111196Y-89847895D01*
X160112400Y-89872399D01*
X160112400Y-90772401D01*
X160111196Y-90796905D01*
X160107596Y-90821173D01*
X160101635Y-90844972D01*
X160093370Y-90868071D01*
X160082880Y-90890250D01*
X160070268Y-90911293D01*
X160055653Y-90930999D01*
X160039177Y-90949177D01*
X160020999Y-90965653D01*
X160001293Y-90980268D01*
X159980250Y-90992880D01*
X159958071Y-91003370D01*
X159934972Y-91011635D01*
X159911173Y-91017596D01*
X159886905Y-91021196D01*
X159862401Y-91022400D01*
X159212399Y-91022400D01*
X159187895Y-91021196D01*
X159163627Y-91017596D01*
X159139828Y-91011635D01*
X159116729Y-91003370D01*
X159094550Y-90992880D01*
X159073507Y-90980268D01*
X159053801Y-90965653D01*
X159035623Y-90949177D01*
X159019147Y-90930999D01*
X159004532Y-90911293D01*
X158991920Y-90890250D01*
X158981430Y-90868071D01*
X158973165Y-90844972D01*
X158967204Y-90821173D01*
X158963604Y-90796905D01*
X158962400Y-90772401D01*
X158962400Y-89872399D01*
X158963604Y-89847895D01*
X158967204Y-89823627D01*
X158973165Y-89799828D01*
X158981430Y-89776729D01*
X158991920Y-89754550D01*
X159004532Y-89733507D01*
X159019147Y-89713801D01*
X159035623Y-89695623D01*
X159053801Y-89679147D01*
X159073507Y-89664532D01*
X159094550Y-89651920D01*
X159116729Y-89641430D01*
X159139828Y-89633165D01*
X159163627Y-89627204D01*
X159187895Y-89623604D01*
X159212399Y-89622400D01*
X159862401Y-89622400D01*
X159886905Y-89623604D01*
X159886905Y-89623604D01*
G37*
D13*
X159537400Y-90322400D03*
D12*
G36*
X161936905Y-89623604D02*
G01*
X161961173Y-89627204D01*
X161984972Y-89633165D01*
X162008071Y-89641430D01*
X162030250Y-89651920D01*
X162051293Y-89664532D01*
X162070999Y-89679147D01*
X162089177Y-89695623D01*
X162105653Y-89713801D01*
X162120268Y-89733507D01*
X162132880Y-89754550D01*
X162143370Y-89776729D01*
X162151635Y-89799828D01*
X162157596Y-89823627D01*
X162161196Y-89847895D01*
X162162400Y-89872399D01*
X162162400Y-90772401D01*
X162161196Y-90796905D01*
X162157596Y-90821173D01*
X162151635Y-90844972D01*
X162143370Y-90868071D01*
X162132880Y-90890250D01*
X162120268Y-90911293D01*
X162105653Y-90930999D01*
X162089177Y-90949177D01*
X162070999Y-90965653D01*
X162051293Y-90980268D01*
X162030250Y-90992880D01*
X162008071Y-91003370D01*
X161984972Y-91011635D01*
X161961173Y-91017596D01*
X161936905Y-91021196D01*
X161912401Y-91022400D01*
X161262399Y-91022400D01*
X161237895Y-91021196D01*
X161213627Y-91017596D01*
X161189828Y-91011635D01*
X161166729Y-91003370D01*
X161144550Y-90992880D01*
X161123507Y-90980268D01*
X161103801Y-90965653D01*
X161085623Y-90949177D01*
X161069147Y-90930999D01*
X161054532Y-90911293D01*
X161041920Y-90890250D01*
X161031430Y-90868071D01*
X161023165Y-90844972D01*
X161017204Y-90821173D01*
X161013604Y-90796905D01*
X161012400Y-90772401D01*
X161012400Y-89872399D01*
X161013604Y-89847895D01*
X161017204Y-89823627D01*
X161023165Y-89799828D01*
X161031430Y-89776729D01*
X161041920Y-89754550D01*
X161054532Y-89733507D01*
X161069147Y-89713801D01*
X161085623Y-89695623D01*
X161103801Y-89679147D01*
X161123507Y-89664532D01*
X161144550Y-89651920D01*
X161166729Y-89641430D01*
X161189828Y-89633165D01*
X161213627Y-89627204D01*
X161237895Y-89623604D01*
X161262399Y-89622400D01*
X161912401Y-89622400D01*
X161936905Y-89623604D01*
X161936905Y-89623604D01*
G37*
D13*
X161587400Y-90322400D03*
D12*
G36*
X166592505Y-117157204D02*
G01*
X166616773Y-117160804D01*
X166640572Y-117166765D01*
X166663671Y-117175030D01*
X166685850Y-117185520D01*
X166706893Y-117198132D01*
X166726599Y-117212747D01*
X166744777Y-117229223D01*
X166761253Y-117247401D01*
X166775868Y-117267107D01*
X166788480Y-117288150D01*
X166798970Y-117310329D01*
X166807235Y-117333428D01*
X166813196Y-117357227D01*
X166816796Y-117381495D01*
X166818000Y-117405999D01*
X166818000Y-118306001D01*
X166816796Y-118330505D01*
X166813196Y-118354773D01*
X166807235Y-118378572D01*
X166798970Y-118401671D01*
X166788480Y-118423850D01*
X166775868Y-118444893D01*
X166761253Y-118464599D01*
X166744777Y-118482777D01*
X166726599Y-118499253D01*
X166706893Y-118513868D01*
X166685850Y-118526480D01*
X166663671Y-118536970D01*
X166640572Y-118545235D01*
X166616773Y-118551196D01*
X166592505Y-118554796D01*
X166568001Y-118556000D01*
X165917999Y-118556000D01*
X165893495Y-118554796D01*
X165869227Y-118551196D01*
X165845428Y-118545235D01*
X165822329Y-118536970D01*
X165800150Y-118526480D01*
X165779107Y-118513868D01*
X165759401Y-118499253D01*
X165741223Y-118482777D01*
X165724747Y-118464599D01*
X165710132Y-118444893D01*
X165697520Y-118423850D01*
X165687030Y-118401671D01*
X165678765Y-118378572D01*
X165672804Y-118354773D01*
X165669204Y-118330505D01*
X165668000Y-118306001D01*
X165668000Y-117405999D01*
X165669204Y-117381495D01*
X165672804Y-117357227D01*
X165678765Y-117333428D01*
X165687030Y-117310329D01*
X165697520Y-117288150D01*
X165710132Y-117267107D01*
X165724747Y-117247401D01*
X165741223Y-117229223D01*
X165759401Y-117212747D01*
X165779107Y-117198132D01*
X165800150Y-117185520D01*
X165822329Y-117175030D01*
X165845428Y-117166765D01*
X165869227Y-117160804D01*
X165893495Y-117157204D01*
X165917999Y-117156000D01*
X166568001Y-117156000D01*
X166592505Y-117157204D01*
X166592505Y-117157204D01*
G37*
D13*
X166243000Y-117856000D03*
D12*
G36*
X168642505Y-117157204D02*
G01*
X168666773Y-117160804D01*
X168690572Y-117166765D01*
X168713671Y-117175030D01*
X168735850Y-117185520D01*
X168756893Y-117198132D01*
X168776599Y-117212747D01*
X168794777Y-117229223D01*
X168811253Y-117247401D01*
X168825868Y-117267107D01*
X168838480Y-117288150D01*
X168848970Y-117310329D01*
X168857235Y-117333428D01*
X168863196Y-117357227D01*
X168866796Y-117381495D01*
X168868000Y-117405999D01*
X168868000Y-118306001D01*
X168866796Y-118330505D01*
X168863196Y-118354773D01*
X168857235Y-118378572D01*
X168848970Y-118401671D01*
X168838480Y-118423850D01*
X168825868Y-118444893D01*
X168811253Y-118464599D01*
X168794777Y-118482777D01*
X168776599Y-118499253D01*
X168756893Y-118513868D01*
X168735850Y-118526480D01*
X168713671Y-118536970D01*
X168690572Y-118545235D01*
X168666773Y-118551196D01*
X168642505Y-118554796D01*
X168618001Y-118556000D01*
X167967999Y-118556000D01*
X167943495Y-118554796D01*
X167919227Y-118551196D01*
X167895428Y-118545235D01*
X167872329Y-118536970D01*
X167850150Y-118526480D01*
X167829107Y-118513868D01*
X167809401Y-118499253D01*
X167791223Y-118482777D01*
X167774747Y-118464599D01*
X167760132Y-118444893D01*
X167747520Y-118423850D01*
X167737030Y-118401671D01*
X167728765Y-118378572D01*
X167722804Y-118354773D01*
X167719204Y-118330505D01*
X167718000Y-118306001D01*
X167718000Y-117405999D01*
X167719204Y-117381495D01*
X167722804Y-117357227D01*
X167728765Y-117333428D01*
X167737030Y-117310329D01*
X167747520Y-117288150D01*
X167760132Y-117267107D01*
X167774747Y-117247401D01*
X167791223Y-117229223D01*
X167809401Y-117212747D01*
X167829107Y-117198132D01*
X167850150Y-117185520D01*
X167872329Y-117175030D01*
X167895428Y-117166765D01*
X167919227Y-117160804D01*
X167943495Y-117157204D01*
X167967999Y-117156000D01*
X168618001Y-117156000D01*
X168642505Y-117157204D01*
X168642505Y-117157204D01*
G37*
D13*
X168293000Y-117856000D03*
D12*
G36*
X148750004Y-100218204D02*
G01*
X148774273Y-100221804D01*
X148798071Y-100227765D01*
X148821171Y-100236030D01*
X148843349Y-100246520D01*
X148864393Y-100259133D01*
X148884098Y-100273747D01*
X148902277Y-100290223D01*
X148918753Y-100308402D01*
X148933367Y-100328107D01*
X148945980Y-100349151D01*
X148956470Y-100371329D01*
X148964735Y-100394429D01*
X148970696Y-100418227D01*
X148974296Y-100442496D01*
X148975500Y-100467000D01*
X148975500Y-101717000D01*
X148974296Y-101741504D01*
X148970696Y-101765773D01*
X148964735Y-101789571D01*
X148956470Y-101812671D01*
X148945980Y-101834849D01*
X148933367Y-101855893D01*
X148918753Y-101875598D01*
X148902277Y-101893777D01*
X148884098Y-101910253D01*
X148864393Y-101924867D01*
X148843349Y-101937480D01*
X148821171Y-101947970D01*
X148798071Y-101956235D01*
X148774273Y-101962196D01*
X148750004Y-101965796D01*
X148725500Y-101967000D01*
X147800500Y-101967000D01*
X147775996Y-101965796D01*
X147751727Y-101962196D01*
X147727929Y-101956235D01*
X147704829Y-101947970D01*
X147682651Y-101937480D01*
X147661607Y-101924867D01*
X147641902Y-101910253D01*
X147623723Y-101893777D01*
X147607247Y-101875598D01*
X147592633Y-101855893D01*
X147580020Y-101834849D01*
X147569530Y-101812671D01*
X147561265Y-101789571D01*
X147555304Y-101765773D01*
X147551704Y-101741504D01*
X147550500Y-101717000D01*
X147550500Y-100467000D01*
X147551704Y-100442496D01*
X147555304Y-100418227D01*
X147561265Y-100394429D01*
X147569530Y-100371329D01*
X147580020Y-100349151D01*
X147592633Y-100328107D01*
X147607247Y-100308402D01*
X147623723Y-100290223D01*
X147641902Y-100273747D01*
X147661607Y-100259133D01*
X147682651Y-100246520D01*
X147704829Y-100236030D01*
X147727929Y-100227765D01*
X147751727Y-100221804D01*
X147775996Y-100218204D01*
X147800500Y-100217000D01*
X148725500Y-100217000D01*
X148750004Y-100218204D01*
X148750004Y-100218204D01*
G37*
D14*
X148263000Y-101092000D03*
D12*
G36*
X145775004Y-100218204D02*
G01*
X145799273Y-100221804D01*
X145823071Y-100227765D01*
X145846171Y-100236030D01*
X145868349Y-100246520D01*
X145889393Y-100259133D01*
X145909098Y-100273747D01*
X145927277Y-100290223D01*
X145943753Y-100308402D01*
X145958367Y-100328107D01*
X145970980Y-100349151D01*
X145981470Y-100371329D01*
X145989735Y-100394429D01*
X145995696Y-100418227D01*
X145999296Y-100442496D01*
X146000500Y-100467000D01*
X146000500Y-101717000D01*
X145999296Y-101741504D01*
X145995696Y-101765773D01*
X145989735Y-101789571D01*
X145981470Y-101812671D01*
X145970980Y-101834849D01*
X145958367Y-101855893D01*
X145943753Y-101875598D01*
X145927277Y-101893777D01*
X145909098Y-101910253D01*
X145889393Y-101924867D01*
X145868349Y-101937480D01*
X145846171Y-101947970D01*
X145823071Y-101956235D01*
X145799273Y-101962196D01*
X145775004Y-101965796D01*
X145750500Y-101967000D01*
X144825500Y-101967000D01*
X144800996Y-101965796D01*
X144776727Y-101962196D01*
X144752929Y-101956235D01*
X144729829Y-101947970D01*
X144707651Y-101937480D01*
X144686607Y-101924867D01*
X144666902Y-101910253D01*
X144648723Y-101893777D01*
X144632247Y-101875598D01*
X144617633Y-101855893D01*
X144605020Y-101834849D01*
X144594530Y-101812671D01*
X144586265Y-101789571D01*
X144580304Y-101765773D01*
X144576704Y-101741504D01*
X144575500Y-101717000D01*
X144575500Y-100467000D01*
X144576704Y-100442496D01*
X144580304Y-100418227D01*
X144586265Y-100394429D01*
X144594530Y-100371329D01*
X144605020Y-100349151D01*
X144617633Y-100328107D01*
X144632247Y-100308402D01*
X144648723Y-100290223D01*
X144666902Y-100273747D01*
X144686607Y-100259133D01*
X144707651Y-100246520D01*
X144729829Y-100236030D01*
X144752929Y-100227765D01*
X144776727Y-100221804D01*
X144800996Y-100218204D01*
X144825500Y-100217000D01*
X145750500Y-100217000D01*
X145775004Y-100218204D01*
X145775004Y-100218204D01*
G37*
D14*
X145288000Y-101092000D03*
D12*
G36*
X145848004Y-87010204D02*
G01*
X145872273Y-87013804D01*
X145896071Y-87019765D01*
X145919171Y-87028030D01*
X145941349Y-87038520D01*
X145962393Y-87051133D01*
X145982098Y-87065747D01*
X146000277Y-87082223D01*
X146016753Y-87100402D01*
X146031367Y-87120107D01*
X146043980Y-87141151D01*
X146054470Y-87163329D01*
X146062735Y-87186429D01*
X146068696Y-87210227D01*
X146072296Y-87234496D01*
X146073500Y-87259000D01*
X146073500Y-88509000D01*
X146072296Y-88533504D01*
X146068696Y-88557773D01*
X146062735Y-88581571D01*
X146054470Y-88604671D01*
X146043980Y-88626849D01*
X146031367Y-88647893D01*
X146016753Y-88667598D01*
X146000277Y-88685777D01*
X145982098Y-88702253D01*
X145962393Y-88716867D01*
X145941349Y-88729480D01*
X145919171Y-88739970D01*
X145896071Y-88748235D01*
X145872273Y-88754196D01*
X145848004Y-88757796D01*
X145823500Y-88759000D01*
X144898500Y-88759000D01*
X144873996Y-88757796D01*
X144849727Y-88754196D01*
X144825929Y-88748235D01*
X144802829Y-88739970D01*
X144780651Y-88729480D01*
X144759607Y-88716867D01*
X144739902Y-88702253D01*
X144721723Y-88685777D01*
X144705247Y-88667598D01*
X144690633Y-88647893D01*
X144678020Y-88626849D01*
X144667530Y-88604671D01*
X144659265Y-88581571D01*
X144653304Y-88557773D01*
X144649704Y-88533504D01*
X144648500Y-88509000D01*
X144648500Y-87259000D01*
X144649704Y-87234496D01*
X144653304Y-87210227D01*
X144659265Y-87186429D01*
X144667530Y-87163329D01*
X144678020Y-87141151D01*
X144690633Y-87120107D01*
X144705247Y-87100402D01*
X144721723Y-87082223D01*
X144739902Y-87065747D01*
X144759607Y-87051133D01*
X144780651Y-87038520D01*
X144802829Y-87028030D01*
X144825929Y-87019765D01*
X144849727Y-87013804D01*
X144873996Y-87010204D01*
X144898500Y-87009000D01*
X145823500Y-87009000D01*
X145848004Y-87010204D01*
X145848004Y-87010204D01*
G37*
D14*
X145361000Y-87884000D03*
D12*
G36*
X148823004Y-87010204D02*
G01*
X148847273Y-87013804D01*
X148871071Y-87019765D01*
X148894171Y-87028030D01*
X148916349Y-87038520D01*
X148937393Y-87051133D01*
X148957098Y-87065747D01*
X148975277Y-87082223D01*
X148991753Y-87100402D01*
X149006367Y-87120107D01*
X149018980Y-87141151D01*
X149029470Y-87163329D01*
X149037735Y-87186429D01*
X149043696Y-87210227D01*
X149047296Y-87234496D01*
X149048500Y-87259000D01*
X149048500Y-88509000D01*
X149047296Y-88533504D01*
X149043696Y-88557773D01*
X149037735Y-88581571D01*
X149029470Y-88604671D01*
X149018980Y-88626849D01*
X149006367Y-88647893D01*
X148991753Y-88667598D01*
X148975277Y-88685777D01*
X148957098Y-88702253D01*
X148937393Y-88716867D01*
X148916349Y-88729480D01*
X148894171Y-88739970D01*
X148871071Y-88748235D01*
X148847273Y-88754196D01*
X148823004Y-88757796D01*
X148798500Y-88759000D01*
X147873500Y-88759000D01*
X147848996Y-88757796D01*
X147824727Y-88754196D01*
X147800929Y-88748235D01*
X147777829Y-88739970D01*
X147755651Y-88729480D01*
X147734607Y-88716867D01*
X147714902Y-88702253D01*
X147696723Y-88685777D01*
X147680247Y-88667598D01*
X147665633Y-88647893D01*
X147653020Y-88626849D01*
X147642530Y-88604671D01*
X147634265Y-88581571D01*
X147628304Y-88557773D01*
X147624704Y-88533504D01*
X147623500Y-88509000D01*
X147623500Y-87259000D01*
X147624704Y-87234496D01*
X147628304Y-87210227D01*
X147634265Y-87186429D01*
X147642530Y-87163329D01*
X147653020Y-87141151D01*
X147665633Y-87120107D01*
X147680247Y-87100402D01*
X147696723Y-87082223D01*
X147714902Y-87065747D01*
X147734607Y-87051133D01*
X147755651Y-87038520D01*
X147777829Y-87028030D01*
X147800929Y-87019765D01*
X147824727Y-87013804D01*
X147848996Y-87010204D01*
X147873500Y-87009000D01*
X148798500Y-87009000D01*
X148823004Y-87010204D01*
X148823004Y-87010204D01*
G37*
D14*
X148336000Y-87884000D03*
D12*
G36*
X145848004Y-92090204D02*
G01*
X145872273Y-92093804D01*
X145896071Y-92099765D01*
X145919171Y-92108030D01*
X145941349Y-92118520D01*
X145962393Y-92131133D01*
X145982098Y-92145747D01*
X146000277Y-92162223D01*
X146016753Y-92180402D01*
X146031367Y-92200107D01*
X146043980Y-92221151D01*
X146054470Y-92243329D01*
X146062735Y-92266429D01*
X146068696Y-92290227D01*
X146072296Y-92314496D01*
X146073500Y-92339000D01*
X146073500Y-93589000D01*
X146072296Y-93613504D01*
X146068696Y-93637773D01*
X146062735Y-93661571D01*
X146054470Y-93684671D01*
X146043980Y-93706849D01*
X146031367Y-93727893D01*
X146016753Y-93747598D01*
X146000277Y-93765777D01*
X145982098Y-93782253D01*
X145962393Y-93796867D01*
X145941349Y-93809480D01*
X145919171Y-93819970D01*
X145896071Y-93828235D01*
X145872273Y-93834196D01*
X145848004Y-93837796D01*
X145823500Y-93839000D01*
X144898500Y-93839000D01*
X144873996Y-93837796D01*
X144849727Y-93834196D01*
X144825929Y-93828235D01*
X144802829Y-93819970D01*
X144780651Y-93809480D01*
X144759607Y-93796867D01*
X144739902Y-93782253D01*
X144721723Y-93765777D01*
X144705247Y-93747598D01*
X144690633Y-93727893D01*
X144678020Y-93706849D01*
X144667530Y-93684671D01*
X144659265Y-93661571D01*
X144653304Y-93637773D01*
X144649704Y-93613504D01*
X144648500Y-93589000D01*
X144648500Y-92339000D01*
X144649704Y-92314496D01*
X144653304Y-92290227D01*
X144659265Y-92266429D01*
X144667530Y-92243329D01*
X144678020Y-92221151D01*
X144690633Y-92200107D01*
X144705247Y-92180402D01*
X144721723Y-92162223D01*
X144739902Y-92145747D01*
X144759607Y-92131133D01*
X144780651Y-92118520D01*
X144802829Y-92108030D01*
X144825929Y-92099765D01*
X144849727Y-92093804D01*
X144873996Y-92090204D01*
X144898500Y-92089000D01*
X145823500Y-92089000D01*
X145848004Y-92090204D01*
X145848004Y-92090204D01*
G37*
D14*
X145361000Y-92964000D03*
D12*
G36*
X148823004Y-92090204D02*
G01*
X148847273Y-92093804D01*
X148871071Y-92099765D01*
X148894171Y-92108030D01*
X148916349Y-92118520D01*
X148937393Y-92131133D01*
X148957098Y-92145747D01*
X148975277Y-92162223D01*
X148991753Y-92180402D01*
X149006367Y-92200107D01*
X149018980Y-92221151D01*
X149029470Y-92243329D01*
X149037735Y-92266429D01*
X149043696Y-92290227D01*
X149047296Y-92314496D01*
X149048500Y-92339000D01*
X149048500Y-93589000D01*
X149047296Y-93613504D01*
X149043696Y-93637773D01*
X149037735Y-93661571D01*
X149029470Y-93684671D01*
X149018980Y-93706849D01*
X149006367Y-93727893D01*
X148991753Y-93747598D01*
X148975277Y-93765777D01*
X148957098Y-93782253D01*
X148937393Y-93796867D01*
X148916349Y-93809480D01*
X148894171Y-93819970D01*
X148871071Y-93828235D01*
X148847273Y-93834196D01*
X148823004Y-93837796D01*
X148798500Y-93839000D01*
X147873500Y-93839000D01*
X147848996Y-93837796D01*
X147824727Y-93834196D01*
X147800929Y-93828235D01*
X147777829Y-93819970D01*
X147755651Y-93809480D01*
X147734607Y-93796867D01*
X147714902Y-93782253D01*
X147696723Y-93765777D01*
X147680247Y-93747598D01*
X147665633Y-93727893D01*
X147653020Y-93706849D01*
X147642530Y-93684671D01*
X147634265Y-93661571D01*
X147628304Y-93637773D01*
X147624704Y-93613504D01*
X147623500Y-93589000D01*
X147623500Y-92339000D01*
X147624704Y-92314496D01*
X147628304Y-92290227D01*
X147634265Y-92266429D01*
X147642530Y-92243329D01*
X147653020Y-92221151D01*
X147665633Y-92200107D01*
X147680247Y-92180402D01*
X147696723Y-92162223D01*
X147714902Y-92145747D01*
X147734607Y-92131133D01*
X147755651Y-92118520D01*
X147777829Y-92108030D01*
X147800929Y-92099765D01*
X147824727Y-92093804D01*
X147848996Y-92090204D01*
X147873500Y-92089000D01*
X148798500Y-92089000D01*
X148823004Y-92090204D01*
X148823004Y-92090204D01*
G37*
D14*
X148336000Y-92964000D03*
D12*
G36*
X145775004Y-78882204D02*
G01*
X145799273Y-78885804D01*
X145823071Y-78891765D01*
X145846171Y-78900030D01*
X145868349Y-78910520D01*
X145889393Y-78923133D01*
X145909098Y-78937747D01*
X145927277Y-78954223D01*
X145943753Y-78972402D01*
X145958367Y-78992107D01*
X145970980Y-79013151D01*
X145981470Y-79035329D01*
X145989735Y-79058429D01*
X145995696Y-79082227D01*
X145999296Y-79106496D01*
X146000500Y-79131000D01*
X146000500Y-80381000D01*
X145999296Y-80405504D01*
X145995696Y-80429773D01*
X145989735Y-80453571D01*
X145981470Y-80476671D01*
X145970980Y-80498849D01*
X145958367Y-80519893D01*
X145943753Y-80539598D01*
X145927277Y-80557777D01*
X145909098Y-80574253D01*
X145889393Y-80588867D01*
X145868349Y-80601480D01*
X145846171Y-80611970D01*
X145823071Y-80620235D01*
X145799273Y-80626196D01*
X145775004Y-80629796D01*
X145750500Y-80631000D01*
X144825500Y-80631000D01*
X144800996Y-80629796D01*
X144776727Y-80626196D01*
X144752929Y-80620235D01*
X144729829Y-80611970D01*
X144707651Y-80601480D01*
X144686607Y-80588867D01*
X144666902Y-80574253D01*
X144648723Y-80557777D01*
X144632247Y-80539598D01*
X144617633Y-80519893D01*
X144605020Y-80498849D01*
X144594530Y-80476671D01*
X144586265Y-80453571D01*
X144580304Y-80429773D01*
X144576704Y-80405504D01*
X144575500Y-80381000D01*
X144575500Y-79131000D01*
X144576704Y-79106496D01*
X144580304Y-79082227D01*
X144586265Y-79058429D01*
X144594530Y-79035329D01*
X144605020Y-79013151D01*
X144617633Y-78992107D01*
X144632247Y-78972402D01*
X144648723Y-78954223D01*
X144666902Y-78937747D01*
X144686607Y-78923133D01*
X144707651Y-78910520D01*
X144729829Y-78900030D01*
X144752929Y-78891765D01*
X144776727Y-78885804D01*
X144800996Y-78882204D01*
X144825500Y-78881000D01*
X145750500Y-78881000D01*
X145775004Y-78882204D01*
X145775004Y-78882204D01*
G37*
D14*
X145288000Y-79756000D03*
D12*
G36*
X148750004Y-78882204D02*
G01*
X148774273Y-78885804D01*
X148798071Y-78891765D01*
X148821171Y-78900030D01*
X148843349Y-78910520D01*
X148864393Y-78923133D01*
X148884098Y-78937747D01*
X148902277Y-78954223D01*
X148918753Y-78972402D01*
X148933367Y-78992107D01*
X148945980Y-79013151D01*
X148956470Y-79035329D01*
X148964735Y-79058429D01*
X148970696Y-79082227D01*
X148974296Y-79106496D01*
X148975500Y-79131000D01*
X148975500Y-80381000D01*
X148974296Y-80405504D01*
X148970696Y-80429773D01*
X148964735Y-80453571D01*
X148956470Y-80476671D01*
X148945980Y-80498849D01*
X148933367Y-80519893D01*
X148918753Y-80539598D01*
X148902277Y-80557777D01*
X148884098Y-80574253D01*
X148864393Y-80588867D01*
X148843349Y-80601480D01*
X148821171Y-80611970D01*
X148798071Y-80620235D01*
X148774273Y-80626196D01*
X148750004Y-80629796D01*
X148725500Y-80631000D01*
X147800500Y-80631000D01*
X147775996Y-80629796D01*
X147751727Y-80626196D01*
X147727929Y-80620235D01*
X147704829Y-80611970D01*
X147682651Y-80601480D01*
X147661607Y-80588867D01*
X147641902Y-80574253D01*
X147623723Y-80557777D01*
X147607247Y-80539598D01*
X147592633Y-80519893D01*
X147580020Y-80498849D01*
X147569530Y-80476671D01*
X147561265Y-80453571D01*
X147555304Y-80429773D01*
X147551704Y-80405504D01*
X147550500Y-80381000D01*
X147550500Y-79131000D01*
X147551704Y-79106496D01*
X147555304Y-79082227D01*
X147561265Y-79058429D01*
X147569530Y-79035329D01*
X147580020Y-79013151D01*
X147592633Y-78992107D01*
X147607247Y-78972402D01*
X147623723Y-78954223D01*
X147641902Y-78937747D01*
X147661607Y-78923133D01*
X147682651Y-78910520D01*
X147704829Y-78900030D01*
X147727929Y-78891765D01*
X147751727Y-78885804D01*
X147775996Y-78882204D01*
X147800500Y-78881000D01*
X148725500Y-78881000D01*
X148750004Y-78882204D01*
X148750004Y-78882204D01*
G37*
D14*
X148263000Y-79756000D03*
D15*
X121310000Y-101600000D03*
D16*
X127610000Y-101600000D03*
X127610000Y-99300000D03*
X127610000Y-103900000D03*
D12*
G36*
X139532505Y-97853204D02*
G01*
X139556773Y-97856804D01*
X139580572Y-97862765D01*
X139603671Y-97871030D01*
X139625850Y-97881520D01*
X139646893Y-97894132D01*
X139666599Y-97908747D01*
X139684777Y-97925223D01*
X139701253Y-97943401D01*
X139715868Y-97963107D01*
X139728480Y-97984150D01*
X139738970Y-98006329D01*
X139747235Y-98029428D01*
X139753196Y-98053227D01*
X139756796Y-98077495D01*
X139758000Y-98101999D01*
X139758000Y-99002001D01*
X139756796Y-99026505D01*
X139753196Y-99050773D01*
X139747235Y-99074572D01*
X139738970Y-99097671D01*
X139728480Y-99119850D01*
X139715868Y-99140893D01*
X139701253Y-99160599D01*
X139684777Y-99178777D01*
X139666599Y-99195253D01*
X139646893Y-99209868D01*
X139625850Y-99222480D01*
X139603671Y-99232970D01*
X139580572Y-99241235D01*
X139556773Y-99247196D01*
X139532505Y-99250796D01*
X139508001Y-99252000D01*
X138857999Y-99252000D01*
X138833495Y-99250796D01*
X138809227Y-99247196D01*
X138785428Y-99241235D01*
X138762329Y-99232970D01*
X138740150Y-99222480D01*
X138719107Y-99209868D01*
X138699401Y-99195253D01*
X138681223Y-99178777D01*
X138664747Y-99160599D01*
X138650132Y-99140893D01*
X138637520Y-99119850D01*
X138627030Y-99097671D01*
X138618765Y-99074572D01*
X138612804Y-99050773D01*
X138609204Y-99026505D01*
X138608000Y-99002001D01*
X138608000Y-98101999D01*
X138609204Y-98077495D01*
X138612804Y-98053227D01*
X138618765Y-98029428D01*
X138627030Y-98006329D01*
X138637520Y-97984150D01*
X138650132Y-97963107D01*
X138664747Y-97943401D01*
X138681223Y-97925223D01*
X138699401Y-97908747D01*
X138719107Y-97894132D01*
X138740150Y-97881520D01*
X138762329Y-97871030D01*
X138785428Y-97862765D01*
X138809227Y-97856804D01*
X138833495Y-97853204D01*
X138857999Y-97852000D01*
X139508001Y-97852000D01*
X139532505Y-97853204D01*
X139532505Y-97853204D01*
G37*
D13*
X139183000Y-98552000D03*
D12*
G36*
X141582505Y-97853204D02*
G01*
X141606773Y-97856804D01*
X141630572Y-97862765D01*
X141653671Y-97871030D01*
X141675850Y-97881520D01*
X141696893Y-97894132D01*
X141716599Y-97908747D01*
X141734777Y-97925223D01*
X141751253Y-97943401D01*
X141765868Y-97963107D01*
X141778480Y-97984150D01*
X141788970Y-98006329D01*
X141797235Y-98029428D01*
X141803196Y-98053227D01*
X141806796Y-98077495D01*
X141808000Y-98101999D01*
X141808000Y-99002001D01*
X141806796Y-99026505D01*
X141803196Y-99050773D01*
X141797235Y-99074572D01*
X141788970Y-99097671D01*
X141778480Y-99119850D01*
X141765868Y-99140893D01*
X141751253Y-99160599D01*
X141734777Y-99178777D01*
X141716599Y-99195253D01*
X141696893Y-99209868D01*
X141675850Y-99222480D01*
X141653671Y-99232970D01*
X141630572Y-99241235D01*
X141606773Y-99247196D01*
X141582505Y-99250796D01*
X141558001Y-99252000D01*
X140907999Y-99252000D01*
X140883495Y-99250796D01*
X140859227Y-99247196D01*
X140835428Y-99241235D01*
X140812329Y-99232970D01*
X140790150Y-99222480D01*
X140769107Y-99209868D01*
X140749401Y-99195253D01*
X140731223Y-99178777D01*
X140714747Y-99160599D01*
X140700132Y-99140893D01*
X140687520Y-99119850D01*
X140677030Y-99097671D01*
X140668765Y-99074572D01*
X140662804Y-99050773D01*
X140659204Y-99026505D01*
X140658000Y-99002001D01*
X140658000Y-98101999D01*
X140659204Y-98077495D01*
X140662804Y-98053227D01*
X140668765Y-98029428D01*
X140677030Y-98006329D01*
X140687520Y-97984150D01*
X140700132Y-97963107D01*
X140714747Y-97943401D01*
X140731223Y-97925223D01*
X140749401Y-97908747D01*
X140769107Y-97894132D01*
X140790150Y-97881520D01*
X140812329Y-97871030D01*
X140835428Y-97862765D01*
X140859227Y-97856804D01*
X140883495Y-97853204D01*
X140907999Y-97852000D01*
X141558001Y-97852000D01*
X141582505Y-97853204D01*
X141582505Y-97853204D01*
G37*
D13*
X141233000Y-98552000D03*
D12*
G36*
X137527505Y-97853204D02*
G01*
X137551773Y-97856804D01*
X137575572Y-97862765D01*
X137598671Y-97871030D01*
X137620850Y-97881520D01*
X137641893Y-97894132D01*
X137661599Y-97908747D01*
X137679777Y-97925223D01*
X137696253Y-97943401D01*
X137710868Y-97963107D01*
X137723480Y-97984150D01*
X137733970Y-98006329D01*
X137742235Y-98029428D01*
X137748196Y-98053227D01*
X137751796Y-98077495D01*
X137753000Y-98101999D01*
X137753000Y-99002001D01*
X137751796Y-99026505D01*
X137748196Y-99050773D01*
X137742235Y-99074572D01*
X137733970Y-99097671D01*
X137723480Y-99119850D01*
X137710868Y-99140893D01*
X137696253Y-99160599D01*
X137679777Y-99178777D01*
X137661599Y-99195253D01*
X137641893Y-99209868D01*
X137620850Y-99222480D01*
X137598671Y-99232970D01*
X137575572Y-99241235D01*
X137551773Y-99247196D01*
X137527505Y-99250796D01*
X137503001Y-99252000D01*
X136852999Y-99252000D01*
X136828495Y-99250796D01*
X136804227Y-99247196D01*
X136780428Y-99241235D01*
X136757329Y-99232970D01*
X136735150Y-99222480D01*
X136714107Y-99209868D01*
X136694401Y-99195253D01*
X136676223Y-99178777D01*
X136659747Y-99160599D01*
X136645132Y-99140893D01*
X136632520Y-99119850D01*
X136622030Y-99097671D01*
X136613765Y-99074572D01*
X136607804Y-99050773D01*
X136604204Y-99026505D01*
X136603000Y-99002001D01*
X136603000Y-98101999D01*
X136604204Y-98077495D01*
X136607804Y-98053227D01*
X136613765Y-98029428D01*
X136622030Y-98006329D01*
X136632520Y-97984150D01*
X136645132Y-97963107D01*
X136659747Y-97943401D01*
X136676223Y-97925223D01*
X136694401Y-97908747D01*
X136714107Y-97894132D01*
X136735150Y-97881520D01*
X136757329Y-97871030D01*
X136780428Y-97862765D01*
X136804227Y-97856804D01*
X136828495Y-97853204D01*
X136852999Y-97852000D01*
X137503001Y-97852000D01*
X137527505Y-97853204D01*
X137527505Y-97853204D01*
G37*
D13*
X137178000Y-98552000D03*
D12*
G36*
X135477505Y-97853204D02*
G01*
X135501773Y-97856804D01*
X135525572Y-97862765D01*
X135548671Y-97871030D01*
X135570850Y-97881520D01*
X135591893Y-97894132D01*
X135611599Y-97908747D01*
X135629777Y-97925223D01*
X135646253Y-97943401D01*
X135660868Y-97963107D01*
X135673480Y-97984150D01*
X135683970Y-98006329D01*
X135692235Y-98029428D01*
X135698196Y-98053227D01*
X135701796Y-98077495D01*
X135703000Y-98101999D01*
X135703000Y-99002001D01*
X135701796Y-99026505D01*
X135698196Y-99050773D01*
X135692235Y-99074572D01*
X135683970Y-99097671D01*
X135673480Y-99119850D01*
X135660868Y-99140893D01*
X135646253Y-99160599D01*
X135629777Y-99178777D01*
X135611599Y-99195253D01*
X135591893Y-99209868D01*
X135570850Y-99222480D01*
X135548671Y-99232970D01*
X135525572Y-99241235D01*
X135501773Y-99247196D01*
X135477505Y-99250796D01*
X135453001Y-99252000D01*
X134802999Y-99252000D01*
X134778495Y-99250796D01*
X134754227Y-99247196D01*
X134730428Y-99241235D01*
X134707329Y-99232970D01*
X134685150Y-99222480D01*
X134664107Y-99209868D01*
X134644401Y-99195253D01*
X134626223Y-99178777D01*
X134609747Y-99160599D01*
X134595132Y-99140893D01*
X134582520Y-99119850D01*
X134572030Y-99097671D01*
X134563765Y-99074572D01*
X134557804Y-99050773D01*
X134554204Y-99026505D01*
X134553000Y-99002001D01*
X134553000Y-98101999D01*
X134554204Y-98077495D01*
X134557804Y-98053227D01*
X134563765Y-98029428D01*
X134572030Y-98006329D01*
X134582520Y-97984150D01*
X134595132Y-97963107D01*
X134609747Y-97943401D01*
X134626223Y-97925223D01*
X134644401Y-97908747D01*
X134664107Y-97894132D01*
X134685150Y-97881520D01*
X134707329Y-97871030D01*
X134730428Y-97862765D01*
X134754227Y-97856804D01*
X134778495Y-97853204D01*
X134802999Y-97852000D01*
X135453001Y-97852000D01*
X135477505Y-97853204D01*
X135477505Y-97853204D01*
G37*
D13*
X135128000Y-98552000D03*
D12*
G36*
X145637505Y-97345204D02*
G01*
X145661773Y-97348804D01*
X145685572Y-97354765D01*
X145708671Y-97363030D01*
X145730850Y-97373520D01*
X145751893Y-97386132D01*
X145771599Y-97400747D01*
X145789777Y-97417223D01*
X145806253Y-97435401D01*
X145820868Y-97455107D01*
X145833480Y-97476150D01*
X145843970Y-97498329D01*
X145852235Y-97521428D01*
X145858196Y-97545227D01*
X145861796Y-97569495D01*
X145863000Y-97593999D01*
X145863000Y-98494001D01*
X145861796Y-98518505D01*
X145858196Y-98542773D01*
X145852235Y-98566572D01*
X145843970Y-98589671D01*
X145833480Y-98611850D01*
X145820868Y-98632893D01*
X145806253Y-98652599D01*
X145789777Y-98670777D01*
X145771599Y-98687253D01*
X145751893Y-98701868D01*
X145730850Y-98714480D01*
X145708671Y-98724970D01*
X145685572Y-98733235D01*
X145661773Y-98739196D01*
X145637505Y-98742796D01*
X145613001Y-98744000D01*
X144962999Y-98744000D01*
X144938495Y-98742796D01*
X144914227Y-98739196D01*
X144890428Y-98733235D01*
X144867329Y-98724970D01*
X144845150Y-98714480D01*
X144824107Y-98701868D01*
X144804401Y-98687253D01*
X144786223Y-98670777D01*
X144769747Y-98652599D01*
X144755132Y-98632893D01*
X144742520Y-98611850D01*
X144732030Y-98589671D01*
X144723765Y-98566572D01*
X144717804Y-98542773D01*
X144714204Y-98518505D01*
X144713000Y-98494001D01*
X144713000Y-97593999D01*
X144714204Y-97569495D01*
X144717804Y-97545227D01*
X144723765Y-97521428D01*
X144732030Y-97498329D01*
X144742520Y-97476150D01*
X144755132Y-97455107D01*
X144769747Y-97435401D01*
X144786223Y-97417223D01*
X144804401Y-97400747D01*
X144824107Y-97386132D01*
X144845150Y-97373520D01*
X144867329Y-97363030D01*
X144890428Y-97354765D01*
X144914227Y-97348804D01*
X144938495Y-97345204D01*
X144962999Y-97344000D01*
X145613001Y-97344000D01*
X145637505Y-97345204D01*
X145637505Y-97345204D01*
G37*
D13*
X145288000Y-98044000D03*
D12*
G36*
X147687505Y-97345204D02*
G01*
X147711773Y-97348804D01*
X147735572Y-97354765D01*
X147758671Y-97363030D01*
X147780850Y-97373520D01*
X147801893Y-97386132D01*
X147821599Y-97400747D01*
X147839777Y-97417223D01*
X147856253Y-97435401D01*
X147870868Y-97455107D01*
X147883480Y-97476150D01*
X147893970Y-97498329D01*
X147902235Y-97521428D01*
X147908196Y-97545227D01*
X147911796Y-97569495D01*
X147913000Y-97593999D01*
X147913000Y-98494001D01*
X147911796Y-98518505D01*
X147908196Y-98542773D01*
X147902235Y-98566572D01*
X147893970Y-98589671D01*
X147883480Y-98611850D01*
X147870868Y-98632893D01*
X147856253Y-98652599D01*
X147839777Y-98670777D01*
X147821599Y-98687253D01*
X147801893Y-98701868D01*
X147780850Y-98714480D01*
X147758671Y-98724970D01*
X147735572Y-98733235D01*
X147711773Y-98739196D01*
X147687505Y-98742796D01*
X147663001Y-98744000D01*
X147012999Y-98744000D01*
X146988495Y-98742796D01*
X146964227Y-98739196D01*
X146940428Y-98733235D01*
X146917329Y-98724970D01*
X146895150Y-98714480D01*
X146874107Y-98701868D01*
X146854401Y-98687253D01*
X146836223Y-98670777D01*
X146819747Y-98652599D01*
X146805132Y-98632893D01*
X146792520Y-98611850D01*
X146782030Y-98589671D01*
X146773765Y-98566572D01*
X146767804Y-98542773D01*
X146764204Y-98518505D01*
X146763000Y-98494001D01*
X146763000Y-97593999D01*
X146764204Y-97569495D01*
X146767804Y-97545227D01*
X146773765Y-97521428D01*
X146782030Y-97498329D01*
X146792520Y-97476150D01*
X146805132Y-97455107D01*
X146819747Y-97435401D01*
X146836223Y-97417223D01*
X146854401Y-97400747D01*
X146874107Y-97386132D01*
X146895150Y-97373520D01*
X146917329Y-97363030D01*
X146940428Y-97354765D01*
X146964227Y-97348804D01*
X146988495Y-97345204D01*
X147012999Y-97344000D01*
X147663001Y-97344000D01*
X147687505Y-97345204D01*
X147687505Y-97345204D01*
G37*
D13*
X147338000Y-98044000D03*
D12*
G36*
X147687505Y-94805204D02*
G01*
X147711773Y-94808804D01*
X147735572Y-94814765D01*
X147758671Y-94823030D01*
X147780850Y-94833520D01*
X147801893Y-94846132D01*
X147821599Y-94860747D01*
X147839777Y-94877223D01*
X147856253Y-94895401D01*
X147870868Y-94915107D01*
X147883480Y-94936150D01*
X147893970Y-94958329D01*
X147902235Y-94981428D01*
X147908196Y-95005227D01*
X147911796Y-95029495D01*
X147913000Y-95053999D01*
X147913000Y-95954001D01*
X147911796Y-95978505D01*
X147908196Y-96002773D01*
X147902235Y-96026572D01*
X147893970Y-96049671D01*
X147883480Y-96071850D01*
X147870868Y-96092893D01*
X147856253Y-96112599D01*
X147839777Y-96130777D01*
X147821599Y-96147253D01*
X147801893Y-96161868D01*
X147780850Y-96174480D01*
X147758671Y-96184970D01*
X147735572Y-96193235D01*
X147711773Y-96199196D01*
X147687505Y-96202796D01*
X147663001Y-96204000D01*
X147012999Y-96204000D01*
X146988495Y-96202796D01*
X146964227Y-96199196D01*
X146940428Y-96193235D01*
X146917329Y-96184970D01*
X146895150Y-96174480D01*
X146874107Y-96161868D01*
X146854401Y-96147253D01*
X146836223Y-96130777D01*
X146819747Y-96112599D01*
X146805132Y-96092893D01*
X146792520Y-96071850D01*
X146782030Y-96049671D01*
X146773765Y-96026572D01*
X146767804Y-96002773D01*
X146764204Y-95978505D01*
X146763000Y-95954001D01*
X146763000Y-95053999D01*
X146764204Y-95029495D01*
X146767804Y-95005227D01*
X146773765Y-94981428D01*
X146782030Y-94958329D01*
X146792520Y-94936150D01*
X146805132Y-94915107D01*
X146819747Y-94895401D01*
X146836223Y-94877223D01*
X146854401Y-94860747D01*
X146874107Y-94846132D01*
X146895150Y-94833520D01*
X146917329Y-94823030D01*
X146940428Y-94814765D01*
X146964227Y-94808804D01*
X146988495Y-94805204D01*
X147012999Y-94804000D01*
X147663001Y-94804000D01*
X147687505Y-94805204D01*
X147687505Y-94805204D01*
G37*
D13*
X147338000Y-95504000D03*
D12*
G36*
X145637505Y-94805204D02*
G01*
X145661773Y-94808804D01*
X145685572Y-94814765D01*
X145708671Y-94823030D01*
X145730850Y-94833520D01*
X145751893Y-94846132D01*
X145771599Y-94860747D01*
X145789777Y-94877223D01*
X145806253Y-94895401D01*
X145820868Y-94915107D01*
X145833480Y-94936150D01*
X145843970Y-94958329D01*
X145852235Y-94981428D01*
X145858196Y-95005227D01*
X145861796Y-95029495D01*
X145863000Y-95053999D01*
X145863000Y-95954001D01*
X145861796Y-95978505D01*
X145858196Y-96002773D01*
X145852235Y-96026572D01*
X145843970Y-96049671D01*
X145833480Y-96071850D01*
X145820868Y-96092893D01*
X145806253Y-96112599D01*
X145789777Y-96130777D01*
X145771599Y-96147253D01*
X145751893Y-96161868D01*
X145730850Y-96174480D01*
X145708671Y-96184970D01*
X145685572Y-96193235D01*
X145661773Y-96199196D01*
X145637505Y-96202796D01*
X145613001Y-96204000D01*
X144962999Y-96204000D01*
X144938495Y-96202796D01*
X144914227Y-96199196D01*
X144890428Y-96193235D01*
X144867329Y-96184970D01*
X144845150Y-96174480D01*
X144824107Y-96161868D01*
X144804401Y-96147253D01*
X144786223Y-96130777D01*
X144769747Y-96112599D01*
X144755132Y-96092893D01*
X144742520Y-96071850D01*
X144732030Y-96049671D01*
X144723765Y-96026572D01*
X144717804Y-96002773D01*
X144714204Y-95978505D01*
X144713000Y-95954001D01*
X144713000Y-95053999D01*
X144714204Y-95029495D01*
X144717804Y-95005227D01*
X144723765Y-94981428D01*
X144732030Y-94958329D01*
X144742520Y-94936150D01*
X144755132Y-94915107D01*
X144769747Y-94895401D01*
X144786223Y-94877223D01*
X144804401Y-94860747D01*
X144824107Y-94846132D01*
X144845150Y-94833520D01*
X144867329Y-94823030D01*
X144890428Y-94814765D01*
X144914227Y-94808804D01*
X144938495Y-94805204D01*
X144962999Y-94804000D01*
X145613001Y-94804000D01*
X145637505Y-94805204D01*
X145637505Y-94805204D01*
G37*
D13*
X145288000Y-95504000D03*
D12*
G36*
X145628505Y-84645204D02*
G01*
X145652773Y-84648804D01*
X145676572Y-84654765D01*
X145699671Y-84663030D01*
X145721850Y-84673520D01*
X145742893Y-84686132D01*
X145762599Y-84700747D01*
X145780777Y-84717223D01*
X145797253Y-84735401D01*
X145811868Y-84755107D01*
X145824480Y-84776150D01*
X145834970Y-84798329D01*
X145843235Y-84821428D01*
X145849196Y-84845227D01*
X145852796Y-84869495D01*
X145854000Y-84893999D01*
X145854000Y-85794001D01*
X145852796Y-85818505D01*
X145849196Y-85842773D01*
X145843235Y-85866572D01*
X145834970Y-85889671D01*
X145824480Y-85911850D01*
X145811868Y-85932893D01*
X145797253Y-85952599D01*
X145780777Y-85970777D01*
X145762599Y-85987253D01*
X145742893Y-86001868D01*
X145721850Y-86014480D01*
X145699671Y-86024970D01*
X145676572Y-86033235D01*
X145652773Y-86039196D01*
X145628505Y-86042796D01*
X145604001Y-86044000D01*
X144953999Y-86044000D01*
X144929495Y-86042796D01*
X144905227Y-86039196D01*
X144881428Y-86033235D01*
X144858329Y-86024970D01*
X144836150Y-86014480D01*
X144815107Y-86001868D01*
X144795401Y-85987253D01*
X144777223Y-85970777D01*
X144760747Y-85952599D01*
X144746132Y-85932893D01*
X144733520Y-85911850D01*
X144723030Y-85889671D01*
X144714765Y-85866572D01*
X144708804Y-85842773D01*
X144705204Y-85818505D01*
X144704000Y-85794001D01*
X144704000Y-84893999D01*
X144705204Y-84869495D01*
X144708804Y-84845227D01*
X144714765Y-84821428D01*
X144723030Y-84798329D01*
X144733520Y-84776150D01*
X144746132Y-84755107D01*
X144760747Y-84735401D01*
X144777223Y-84717223D01*
X144795401Y-84700747D01*
X144815107Y-84686132D01*
X144836150Y-84673520D01*
X144858329Y-84663030D01*
X144881428Y-84654765D01*
X144905227Y-84648804D01*
X144929495Y-84645204D01*
X144953999Y-84644000D01*
X145604001Y-84644000D01*
X145628505Y-84645204D01*
X145628505Y-84645204D01*
G37*
D13*
X145279000Y-85344000D03*
D12*
G36*
X147678505Y-84645204D02*
G01*
X147702773Y-84648804D01*
X147726572Y-84654765D01*
X147749671Y-84663030D01*
X147771850Y-84673520D01*
X147792893Y-84686132D01*
X147812599Y-84700747D01*
X147830777Y-84717223D01*
X147847253Y-84735401D01*
X147861868Y-84755107D01*
X147874480Y-84776150D01*
X147884970Y-84798329D01*
X147893235Y-84821428D01*
X147899196Y-84845227D01*
X147902796Y-84869495D01*
X147904000Y-84893999D01*
X147904000Y-85794001D01*
X147902796Y-85818505D01*
X147899196Y-85842773D01*
X147893235Y-85866572D01*
X147884970Y-85889671D01*
X147874480Y-85911850D01*
X147861868Y-85932893D01*
X147847253Y-85952599D01*
X147830777Y-85970777D01*
X147812599Y-85987253D01*
X147792893Y-86001868D01*
X147771850Y-86014480D01*
X147749671Y-86024970D01*
X147726572Y-86033235D01*
X147702773Y-86039196D01*
X147678505Y-86042796D01*
X147654001Y-86044000D01*
X147003999Y-86044000D01*
X146979495Y-86042796D01*
X146955227Y-86039196D01*
X146931428Y-86033235D01*
X146908329Y-86024970D01*
X146886150Y-86014480D01*
X146865107Y-86001868D01*
X146845401Y-85987253D01*
X146827223Y-85970777D01*
X146810747Y-85952599D01*
X146796132Y-85932893D01*
X146783520Y-85911850D01*
X146773030Y-85889671D01*
X146764765Y-85866572D01*
X146758804Y-85842773D01*
X146755204Y-85818505D01*
X146754000Y-85794001D01*
X146754000Y-84893999D01*
X146755204Y-84869495D01*
X146758804Y-84845227D01*
X146764765Y-84821428D01*
X146773030Y-84798329D01*
X146783520Y-84776150D01*
X146796132Y-84755107D01*
X146810747Y-84735401D01*
X146827223Y-84717223D01*
X146845401Y-84700747D01*
X146865107Y-84686132D01*
X146886150Y-84673520D01*
X146908329Y-84663030D01*
X146931428Y-84654765D01*
X146955227Y-84648804D01*
X146979495Y-84645204D01*
X147003999Y-84644000D01*
X147654001Y-84644000D01*
X147678505Y-84645204D01*
X147678505Y-84645204D01*
G37*
D13*
X147329000Y-85344000D03*
D12*
G36*
X147669505Y-89725204D02*
G01*
X147693773Y-89728804D01*
X147717572Y-89734765D01*
X147740671Y-89743030D01*
X147762850Y-89753520D01*
X147783893Y-89766132D01*
X147803599Y-89780747D01*
X147821777Y-89797223D01*
X147838253Y-89815401D01*
X147852868Y-89835107D01*
X147865480Y-89856150D01*
X147875970Y-89878329D01*
X147884235Y-89901428D01*
X147890196Y-89925227D01*
X147893796Y-89949495D01*
X147895000Y-89973999D01*
X147895000Y-90874001D01*
X147893796Y-90898505D01*
X147890196Y-90922773D01*
X147884235Y-90946572D01*
X147875970Y-90969671D01*
X147865480Y-90991850D01*
X147852868Y-91012893D01*
X147838253Y-91032599D01*
X147821777Y-91050777D01*
X147803599Y-91067253D01*
X147783893Y-91081868D01*
X147762850Y-91094480D01*
X147740671Y-91104970D01*
X147717572Y-91113235D01*
X147693773Y-91119196D01*
X147669505Y-91122796D01*
X147645001Y-91124000D01*
X146994999Y-91124000D01*
X146970495Y-91122796D01*
X146946227Y-91119196D01*
X146922428Y-91113235D01*
X146899329Y-91104970D01*
X146877150Y-91094480D01*
X146856107Y-91081868D01*
X146836401Y-91067253D01*
X146818223Y-91050777D01*
X146801747Y-91032599D01*
X146787132Y-91012893D01*
X146774520Y-90991850D01*
X146764030Y-90969671D01*
X146755765Y-90946572D01*
X146749804Y-90922773D01*
X146746204Y-90898505D01*
X146745000Y-90874001D01*
X146745000Y-89973999D01*
X146746204Y-89949495D01*
X146749804Y-89925227D01*
X146755765Y-89901428D01*
X146764030Y-89878329D01*
X146774520Y-89856150D01*
X146787132Y-89835107D01*
X146801747Y-89815401D01*
X146818223Y-89797223D01*
X146836401Y-89780747D01*
X146856107Y-89766132D01*
X146877150Y-89753520D01*
X146899329Y-89743030D01*
X146922428Y-89734765D01*
X146946227Y-89728804D01*
X146970495Y-89725204D01*
X146994999Y-89724000D01*
X147645001Y-89724000D01*
X147669505Y-89725204D01*
X147669505Y-89725204D01*
G37*
D13*
X147320000Y-90424000D03*
D12*
G36*
X145619505Y-89725204D02*
G01*
X145643773Y-89728804D01*
X145667572Y-89734765D01*
X145690671Y-89743030D01*
X145712850Y-89753520D01*
X145733893Y-89766132D01*
X145753599Y-89780747D01*
X145771777Y-89797223D01*
X145788253Y-89815401D01*
X145802868Y-89835107D01*
X145815480Y-89856150D01*
X145825970Y-89878329D01*
X145834235Y-89901428D01*
X145840196Y-89925227D01*
X145843796Y-89949495D01*
X145845000Y-89973999D01*
X145845000Y-90874001D01*
X145843796Y-90898505D01*
X145840196Y-90922773D01*
X145834235Y-90946572D01*
X145825970Y-90969671D01*
X145815480Y-90991850D01*
X145802868Y-91012893D01*
X145788253Y-91032599D01*
X145771777Y-91050777D01*
X145753599Y-91067253D01*
X145733893Y-91081868D01*
X145712850Y-91094480D01*
X145690671Y-91104970D01*
X145667572Y-91113235D01*
X145643773Y-91119196D01*
X145619505Y-91122796D01*
X145595001Y-91124000D01*
X144944999Y-91124000D01*
X144920495Y-91122796D01*
X144896227Y-91119196D01*
X144872428Y-91113235D01*
X144849329Y-91104970D01*
X144827150Y-91094480D01*
X144806107Y-91081868D01*
X144786401Y-91067253D01*
X144768223Y-91050777D01*
X144751747Y-91032599D01*
X144737132Y-91012893D01*
X144724520Y-90991850D01*
X144714030Y-90969671D01*
X144705765Y-90946572D01*
X144699804Y-90922773D01*
X144696204Y-90898505D01*
X144695000Y-90874001D01*
X144695000Y-89973999D01*
X144696204Y-89949495D01*
X144699804Y-89925227D01*
X144705765Y-89901428D01*
X144714030Y-89878329D01*
X144724520Y-89856150D01*
X144737132Y-89835107D01*
X144751747Y-89815401D01*
X144768223Y-89797223D01*
X144786401Y-89780747D01*
X144806107Y-89766132D01*
X144827150Y-89753520D01*
X144849329Y-89743030D01*
X144872428Y-89734765D01*
X144896227Y-89728804D01*
X144920495Y-89725204D01*
X144944999Y-89724000D01*
X145595001Y-89724000D01*
X145619505Y-89725204D01*
X145619505Y-89725204D01*
G37*
D13*
X145270000Y-90424000D03*
D12*
G36*
X179671505Y-100500204D02*
G01*
X179695773Y-100503804D01*
X179719572Y-100509765D01*
X179742671Y-100518030D01*
X179764850Y-100528520D01*
X179785893Y-100541132D01*
X179805599Y-100555747D01*
X179823777Y-100572223D01*
X179840253Y-100590401D01*
X179854868Y-100610107D01*
X179867480Y-100631150D01*
X179877970Y-100653329D01*
X179886235Y-100676428D01*
X179892196Y-100700227D01*
X179895796Y-100724495D01*
X179897000Y-100748999D01*
X179897000Y-101399001D01*
X179895796Y-101423505D01*
X179892196Y-101447773D01*
X179886235Y-101471572D01*
X179877970Y-101494671D01*
X179867480Y-101516850D01*
X179854868Y-101537893D01*
X179840253Y-101557599D01*
X179823777Y-101575777D01*
X179805599Y-101592253D01*
X179785893Y-101606868D01*
X179764850Y-101619480D01*
X179742671Y-101629970D01*
X179719572Y-101638235D01*
X179695773Y-101644196D01*
X179671505Y-101647796D01*
X179647001Y-101649000D01*
X178746999Y-101649000D01*
X178722495Y-101647796D01*
X178698227Y-101644196D01*
X178674428Y-101638235D01*
X178651329Y-101629970D01*
X178629150Y-101619480D01*
X178608107Y-101606868D01*
X178588401Y-101592253D01*
X178570223Y-101575777D01*
X178553747Y-101557599D01*
X178539132Y-101537893D01*
X178526520Y-101516850D01*
X178516030Y-101494671D01*
X178507765Y-101471572D01*
X178501804Y-101447773D01*
X178498204Y-101423505D01*
X178497000Y-101399001D01*
X178497000Y-100748999D01*
X178498204Y-100724495D01*
X178501804Y-100700227D01*
X178507765Y-100676428D01*
X178516030Y-100653329D01*
X178526520Y-100631150D01*
X178539132Y-100610107D01*
X178553747Y-100590401D01*
X178570223Y-100572223D01*
X178588401Y-100555747D01*
X178608107Y-100541132D01*
X178629150Y-100528520D01*
X178651329Y-100518030D01*
X178674428Y-100509765D01*
X178698227Y-100503804D01*
X178722495Y-100500204D01*
X178746999Y-100499000D01*
X179647001Y-100499000D01*
X179671505Y-100500204D01*
X179671505Y-100500204D01*
G37*
D13*
X179197000Y-101074000D03*
D12*
G36*
X179671505Y-102550204D02*
G01*
X179695773Y-102553804D01*
X179719572Y-102559765D01*
X179742671Y-102568030D01*
X179764850Y-102578520D01*
X179785893Y-102591132D01*
X179805599Y-102605747D01*
X179823777Y-102622223D01*
X179840253Y-102640401D01*
X179854868Y-102660107D01*
X179867480Y-102681150D01*
X179877970Y-102703329D01*
X179886235Y-102726428D01*
X179892196Y-102750227D01*
X179895796Y-102774495D01*
X179897000Y-102798999D01*
X179897000Y-103449001D01*
X179895796Y-103473505D01*
X179892196Y-103497773D01*
X179886235Y-103521572D01*
X179877970Y-103544671D01*
X179867480Y-103566850D01*
X179854868Y-103587893D01*
X179840253Y-103607599D01*
X179823777Y-103625777D01*
X179805599Y-103642253D01*
X179785893Y-103656868D01*
X179764850Y-103669480D01*
X179742671Y-103679970D01*
X179719572Y-103688235D01*
X179695773Y-103694196D01*
X179671505Y-103697796D01*
X179647001Y-103699000D01*
X178746999Y-103699000D01*
X178722495Y-103697796D01*
X178698227Y-103694196D01*
X178674428Y-103688235D01*
X178651329Y-103679970D01*
X178629150Y-103669480D01*
X178608107Y-103656868D01*
X178588401Y-103642253D01*
X178570223Y-103625777D01*
X178553747Y-103607599D01*
X178539132Y-103587893D01*
X178526520Y-103566850D01*
X178516030Y-103544671D01*
X178507765Y-103521572D01*
X178501804Y-103497773D01*
X178498204Y-103473505D01*
X178497000Y-103449001D01*
X178497000Y-102798999D01*
X178498204Y-102774495D01*
X178501804Y-102750227D01*
X178507765Y-102726428D01*
X178516030Y-102703329D01*
X178526520Y-102681150D01*
X178539132Y-102660107D01*
X178553747Y-102640401D01*
X178570223Y-102622223D01*
X178588401Y-102605747D01*
X178608107Y-102591132D01*
X178629150Y-102578520D01*
X178651329Y-102568030D01*
X178674428Y-102559765D01*
X178698227Y-102553804D01*
X178722495Y-102550204D01*
X178746999Y-102549000D01*
X179647001Y-102549000D01*
X179671505Y-102550204D01*
X179671505Y-102550204D01*
G37*
D13*
X179197000Y-103124000D03*
D12*
G36*
X177512505Y-102568204D02*
G01*
X177536773Y-102571804D01*
X177560572Y-102577765D01*
X177583671Y-102586030D01*
X177605850Y-102596520D01*
X177626893Y-102609132D01*
X177646599Y-102623747D01*
X177664777Y-102640223D01*
X177681253Y-102658401D01*
X177695868Y-102678107D01*
X177708480Y-102699150D01*
X177718970Y-102721329D01*
X177727235Y-102744428D01*
X177733196Y-102768227D01*
X177736796Y-102792495D01*
X177738000Y-102816999D01*
X177738000Y-103467001D01*
X177736796Y-103491505D01*
X177733196Y-103515773D01*
X177727235Y-103539572D01*
X177718970Y-103562671D01*
X177708480Y-103584850D01*
X177695868Y-103605893D01*
X177681253Y-103625599D01*
X177664777Y-103643777D01*
X177646599Y-103660253D01*
X177626893Y-103674868D01*
X177605850Y-103687480D01*
X177583671Y-103697970D01*
X177560572Y-103706235D01*
X177536773Y-103712196D01*
X177512505Y-103715796D01*
X177488001Y-103717000D01*
X176587999Y-103717000D01*
X176563495Y-103715796D01*
X176539227Y-103712196D01*
X176515428Y-103706235D01*
X176492329Y-103697970D01*
X176470150Y-103687480D01*
X176449107Y-103674868D01*
X176429401Y-103660253D01*
X176411223Y-103643777D01*
X176394747Y-103625599D01*
X176380132Y-103605893D01*
X176367520Y-103584850D01*
X176357030Y-103562671D01*
X176348765Y-103539572D01*
X176342804Y-103515773D01*
X176339204Y-103491505D01*
X176338000Y-103467001D01*
X176338000Y-102816999D01*
X176339204Y-102792495D01*
X176342804Y-102768227D01*
X176348765Y-102744428D01*
X176357030Y-102721329D01*
X176367520Y-102699150D01*
X176380132Y-102678107D01*
X176394747Y-102658401D01*
X176411223Y-102640223D01*
X176429401Y-102623747D01*
X176449107Y-102609132D01*
X176470150Y-102596520D01*
X176492329Y-102586030D01*
X176515428Y-102577765D01*
X176539227Y-102571804D01*
X176563495Y-102568204D01*
X176587999Y-102567000D01*
X177488001Y-102567000D01*
X177512505Y-102568204D01*
X177512505Y-102568204D01*
G37*
D13*
X177038000Y-103142000D03*
D12*
G36*
X177512505Y-100518204D02*
G01*
X177536773Y-100521804D01*
X177560572Y-100527765D01*
X177583671Y-100536030D01*
X177605850Y-100546520D01*
X177626893Y-100559132D01*
X177646599Y-100573747D01*
X177664777Y-100590223D01*
X177681253Y-100608401D01*
X177695868Y-100628107D01*
X177708480Y-100649150D01*
X177718970Y-100671329D01*
X177727235Y-100694428D01*
X177733196Y-100718227D01*
X177736796Y-100742495D01*
X177738000Y-100766999D01*
X177738000Y-101417001D01*
X177736796Y-101441505D01*
X177733196Y-101465773D01*
X177727235Y-101489572D01*
X177718970Y-101512671D01*
X177708480Y-101534850D01*
X177695868Y-101555893D01*
X177681253Y-101575599D01*
X177664777Y-101593777D01*
X177646599Y-101610253D01*
X177626893Y-101624868D01*
X177605850Y-101637480D01*
X177583671Y-101647970D01*
X177560572Y-101656235D01*
X177536773Y-101662196D01*
X177512505Y-101665796D01*
X177488001Y-101667000D01*
X176587999Y-101667000D01*
X176563495Y-101665796D01*
X176539227Y-101662196D01*
X176515428Y-101656235D01*
X176492329Y-101647970D01*
X176470150Y-101637480D01*
X176449107Y-101624868D01*
X176429401Y-101610253D01*
X176411223Y-101593777D01*
X176394747Y-101575599D01*
X176380132Y-101555893D01*
X176367520Y-101534850D01*
X176357030Y-101512671D01*
X176348765Y-101489572D01*
X176342804Y-101465773D01*
X176339204Y-101441505D01*
X176338000Y-101417001D01*
X176338000Y-100766999D01*
X176339204Y-100742495D01*
X176342804Y-100718227D01*
X176348765Y-100694428D01*
X176357030Y-100671329D01*
X176367520Y-100649150D01*
X176380132Y-100628107D01*
X176394747Y-100608401D01*
X176411223Y-100590223D01*
X176429401Y-100573747D01*
X176449107Y-100559132D01*
X176470150Y-100546520D01*
X176492329Y-100536030D01*
X176515428Y-100527765D01*
X176539227Y-100521804D01*
X176563495Y-100518204D01*
X176587999Y-100517000D01*
X177488001Y-100517000D01*
X177512505Y-100518204D01*
X177512505Y-100518204D01*
G37*
D13*
X177038000Y-101092000D03*
D12*
G36*
X175353505Y-100518204D02*
G01*
X175377773Y-100521804D01*
X175401572Y-100527765D01*
X175424671Y-100536030D01*
X175446850Y-100546520D01*
X175467893Y-100559132D01*
X175487599Y-100573747D01*
X175505777Y-100590223D01*
X175522253Y-100608401D01*
X175536868Y-100628107D01*
X175549480Y-100649150D01*
X175559970Y-100671329D01*
X175568235Y-100694428D01*
X175574196Y-100718227D01*
X175577796Y-100742495D01*
X175579000Y-100766999D01*
X175579000Y-101417001D01*
X175577796Y-101441505D01*
X175574196Y-101465773D01*
X175568235Y-101489572D01*
X175559970Y-101512671D01*
X175549480Y-101534850D01*
X175536868Y-101555893D01*
X175522253Y-101575599D01*
X175505777Y-101593777D01*
X175487599Y-101610253D01*
X175467893Y-101624868D01*
X175446850Y-101637480D01*
X175424671Y-101647970D01*
X175401572Y-101656235D01*
X175377773Y-101662196D01*
X175353505Y-101665796D01*
X175329001Y-101667000D01*
X174428999Y-101667000D01*
X174404495Y-101665796D01*
X174380227Y-101662196D01*
X174356428Y-101656235D01*
X174333329Y-101647970D01*
X174311150Y-101637480D01*
X174290107Y-101624868D01*
X174270401Y-101610253D01*
X174252223Y-101593777D01*
X174235747Y-101575599D01*
X174221132Y-101555893D01*
X174208520Y-101534850D01*
X174198030Y-101512671D01*
X174189765Y-101489572D01*
X174183804Y-101465773D01*
X174180204Y-101441505D01*
X174179000Y-101417001D01*
X174179000Y-100766999D01*
X174180204Y-100742495D01*
X174183804Y-100718227D01*
X174189765Y-100694428D01*
X174198030Y-100671329D01*
X174208520Y-100649150D01*
X174221132Y-100628107D01*
X174235747Y-100608401D01*
X174252223Y-100590223D01*
X174270401Y-100573747D01*
X174290107Y-100559132D01*
X174311150Y-100546520D01*
X174333329Y-100536030D01*
X174356428Y-100527765D01*
X174380227Y-100521804D01*
X174404495Y-100518204D01*
X174428999Y-100517000D01*
X175329001Y-100517000D01*
X175353505Y-100518204D01*
X175353505Y-100518204D01*
G37*
D13*
X174879000Y-101092000D03*
D12*
G36*
X175353505Y-102568204D02*
G01*
X175377773Y-102571804D01*
X175401572Y-102577765D01*
X175424671Y-102586030D01*
X175446850Y-102596520D01*
X175467893Y-102609132D01*
X175487599Y-102623747D01*
X175505777Y-102640223D01*
X175522253Y-102658401D01*
X175536868Y-102678107D01*
X175549480Y-102699150D01*
X175559970Y-102721329D01*
X175568235Y-102744428D01*
X175574196Y-102768227D01*
X175577796Y-102792495D01*
X175579000Y-102816999D01*
X175579000Y-103467001D01*
X175577796Y-103491505D01*
X175574196Y-103515773D01*
X175568235Y-103539572D01*
X175559970Y-103562671D01*
X175549480Y-103584850D01*
X175536868Y-103605893D01*
X175522253Y-103625599D01*
X175505777Y-103643777D01*
X175487599Y-103660253D01*
X175467893Y-103674868D01*
X175446850Y-103687480D01*
X175424671Y-103697970D01*
X175401572Y-103706235D01*
X175377773Y-103712196D01*
X175353505Y-103715796D01*
X175329001Y-103717000D01*
X174428999Y-103717000D01*
X174404495Y-103715796D01*
X174380227Y-103712196D01*
X174356428Y-103706235D01*
X174333329Y-103697970D01*
X174311150Y-103687480D01*
X174290107Y-103674868D01*
X174270401Y-103660253D01*
X174252223Y-103643777D01*
X174235747Y-103625599D01*
X174221132Y-103605893D01*
X174208520Y-103584850D01*
X174198030Y-103562671D01*
X174189765Y-103539572D01*
X174183804Y-103515773D01*
X174180204Y-103491505D01*
X174179000Y-103467001D01*
X174179000Y-102816999D01*
X174180204Y-102792495D01*
X174183804Y-102768227D01*
X174189765Y-102744428D01*
X174198030Y-102721329D01*
X174208520Y-102699150D01*
X174221132Y-102678107D01*
X174235747Y-102658401D01*
X174252223Y-102640223D01*
X174270401Y-102623747D01*
X174290107Y-102609132D01*
X174311150Y-102596520D01*
X174333329Y-102586030D01*
X174356428Y-102577765D01*
X174380227Y-102571804D01*
X174404495Y-102568204D01*
X174428999Y-102567000D01*
X175329001Y-102567000D01*
X175353505Y-102568204D01*
X175353505Y-102568204D01*
G37*
D13*
X174879000Y-103142000D03*
D12*
G36*
X145637505Y-82105204D02*
G01*
X145661773Y-82108804D01*
X145685572Y-82114765D01*
X145708671Y-82123030D01*
X145730850Y-82133520D01*
X145751893Y-82146132D01*
X145771599Y-82160747D01*
X145789777Y-82177223D01*
X145806253Y-82195401D01*
X145820868Y-82215107D01*
X145833480Y-82236150D01*
X145843970Y-82258329D01*
X145852235Y-82281428D01*
X145858196Y-82305227D01*
X145861796Y-82329495D01*
X145863000Y-82353999D01*
X145863000Y-83254001D01*
X145861796Y-83278505D01*
X145858196Y-83302773D01*
X145852235Y-83326572D01*
X145843970Y-83349671D01*
X145833480Y-83371850D01*
X145820868Y-83392893D01*
X145806253Y-83412599D01*
X145789777Y-83430777D01*
X145771599Y-83447253D01*
X145751893Y-83461868D01*
X145730850Y-83474480D01*
X145708671Y-83484970D01*
X145685572Y-83493235D01*
X145661773Y-83499196D01*
X145637505Y-83502796D01*
X145613001Y-83504000D01*
X144962999Y-83504000D01*
X144938495Y-83502796D01*
X144914227Y-83499196D01*
X144890428Y-83493235D01*
X144867329Y-83484970D01*
X144845150Y-83474480D01*
X144824107Y-83461868D01*
X144804401Y-83447253D01*
X144786223Y-83430777D01*
X144769747Y-83412599D01*
X144755132Y-83392893D01*
X144742520Y-83371850D01*
X144732030Y-83349671D01*
X144723765Y-83326572D01*
X144717804Y-83302773D01*
X144714204Y-83278505D01*
X144713000Y-83254001D01*
X144713000Y-82353999D01*
X144714204Y-82329495D01*
X144717804Y-82305227D01*
X144723765Y-82281428D01*
X144732030Y-82258329D01*
X144742520Y-82236150D01*
X144755132Y-82215107D01*
X144769747Y-82195401D01*
X144786223Y-82177223D01*
X144804401Y-82160747D01*
X144824107Y-82146132D01*
X144845150Y-82133520D01*
X144867329Y-82123030D01*
X144890428Y-82114765D01*
X144914227Y-82108804D01*
X144938495Y-82105204D01*
X144962999Y-82104000D01*
X145613001Y-82104000D01*
X145637505Y-82105204D01*
X145637505Y-82105204D01*
G37*
D13*
X145288000Y-82804000D03*
D12*
G36*
X147687505Y-82105204D02*
G01*
X147711773Y-82108804D01*
X147735572Y-82114765D01*
X147758671Y-82123030D01*
X147780850Y-82133520D01*
X147801893Y-82146132D01*
X147821599Y-82160747D01*
X147839777Y-82177223D01*
X147856253Y-82195401D01*
X147870868Y-82215107D01*
X147883480Y-82236150D01*
X147893970Y-82258329D01*
X147902235Y-82281428D01*
X147908196Y-82305227D01*
X147911796Y-82329495D01*
X147913000Y-82353999D01*
X147913000Y-83254001D01*
X147911796Y-83278505D01*
X147908196Y-83302773D01*
X147902235Y-83326572D01*
X147893970Y-83349671D01*
X147883480Y-83371850D01*
X147870868Y-83392893D01*
X147856253Y-83412599D01*
X147839777Y-83430777D01*
X147821599Y-83447253D01*
X147801893Y-83461868D01*
X147780850Y-83474480D01*
X147758671Y-83484970D01*
X147735572Y-83493235D01*
X147711773Y-83499196D01*
X147687505Y-83502796D01*
X147663001Y-83504000D01*
X147012999Y-83504000D01*
X146988495Y-83502796D01*
X146964227Y-83499196D01*
X146940428Y-83493235D01*
X146917329Y-83484970D01*
X146895150Y-83474480D01*
X146874107Y-83461868D01*
X146854401Y-83447253D01*
X146836223Y-83430777D01*
X146819747Y-83412599D01*
X146805132Y-83392893D01*
X146792520Y-83371850D01*
X146782030Y-83349671D01*
X146773765Y-83326572D01*
X146767804Y-83302773D01*
X146764204Y-83278505D01*
X146763000Y-83254001D01*
X146763000Y-82353999D01*
X146764204Y-82329495D01*
X146767804Y-82305227D01*
X146773765Y-82281428D01*
X146782030Y-82258329D01*
X146792520Y-82236150D01*
X146805132Y-82215107D01*
X146819747Y-82195401D01*
X146836223Y-82177223D01*
X146854401Y-82160747D01*
X146874107Y-82146132D01*
X146895150Y-82133520D01*
X146917329Y-82123030D01*
X146940428Y-82114765D01*
X146964227Y-82108804D01*
X146988495Y-82105204D01*
X147012999Y-82104000D01*
X147663001Y-82104000D01*
X147687505Y-82105204D01*
X147687505Y-82105204D01*
G37*
D13*
X147338000Y-82804000D03*
D17*
X185896000Y-96668000D03*
X185896000Y-102468000D03*
X181896000Y-96668000D03*
X181896000Y-102468000D03*
D12*
G36*
X139356703Y-100800722D02*
G01*
X139371264Y-100802882D01*
X139385543Y-100806459D01*
X139399403Y-100811418D01*
X139412710Y-100817712D01*
X139425336Y-100825280D01*
X139437159Y-100834048D01*
X139448066Y-100843934D01*
X139457952Y-100854841D01*
X139466720Y-100866664D01*
X139474288Y-100879290D01*
X139480582Y-100892597D01*
X139485541Y-100906457D01*
X139489118Y-100920736D01*
X139491278Y-100935297D01*
X139492000Y-100950000D01*
X139492000Y-102250000D01*
X139491278Y-102264703D01*
X139489118Y-102279264D01*
X139485541Y-102293543D01*
X139480582Y-102307403D01*
X139474288Y-102320710D01*
X139466720Y-102333336D01*
X139457952Y-102345159D01*
X139448066Y-102356066D01*
X139437159Y-102365952D01*
X139425336Y-102374720D01*
X139412710Y-102382288D01*
X139399403Y-102388582D01*
X139385543Y-102393541D01*
X139371264Y-102397118D01*
X139356703Y-102399278D01*
X139342000Y-102400000D01*
X139042000Y-102400000D01*
X139027297Y-102399278D01*
X139012736Y-102397118D01*
X138998457Y-102393541D01*
X138984597Y-102388582D01*
X138971290Y-102382288D01*
X138958664Y-102374720D01*
X138946841Y-102365952D01*
X138935934Y-102356066D01*
X138926048Y-102345159D01*
X138917280Y-102333336D01*
X138909712Y-102320710D01*
X138903418Y-102307403D01*
X138898459Y-102293543D01*
X138894882Y-102279264D01*
X138892722Y-102264703D01*
X138892000Y-102250000D01*
X138892000Y-100950000D01*
X138892722Y-100935297D01*
X138894882Y-100920736D01*
X138898459Y-100906457D01*
X138903418Y-100892597D01*
X138909712Y-100879290D01*
X138917280Y-100866664D01*
X138926048Y-100854841D01*
X138935934Y-100843934D01*
X138946841Y-100834048D01*
X138958664Y-100825280D01*
X138971290Y-100817712D01*
X138984597Y-100811418D01*
X138998457Y-100806459D01*
X139012736Y-100802882D01*
X139027297Y-100800722D01*
X139042000Y-100800000D01*
X139342000Y-100800000D01*
X139356703Y-100800722D01*
X139356703Y-100800722D01*
G37*
D18*
X139192000Y-101600000D03*
D12*
G36*
X138086703Y-100800722D02*
G01*
X138101264Y-100802882D01*
X138115543Y-100806459D01*
X138129403Y-100811418D01*
X138142710Y-100817712D01*
X138155336Y-100825280D01*
X138167159Y-100834048D01*
X138178066Y-100843934D01*
X138187952Y-100854841D01*
X138196720Y-100866664D01*
X138204288Y-100879290D01*
X138210582Y-100892597D01*
X138215541Y-100906457D01*
X138219118Y-100920736D01*
X138221278Y-100935297D01*
X138222000Y-100950000D01*
X138222000Y-102250000D01*
X138221278Y-102264703D01*
X138219118Y-102279264D01*
X138215541Y-102293543D01*
X138210582Y-102307403D01*
X138204288Y-102320710D01*
X138196720Y-102333336D01*
X138187952Y-102345159D01*
X138178066Y-102356066D01*
X138167159Y-102365952D01*
X138155336Y-102374720D01*
X138142710Y-102382288D01*
X138129403Y-102388582D01*
X138115543Y-102393541D01*
X138101264Y-102397118D01*
X138086703Y-102399278D01*
X138072000Y-102400000D01*
X137772000Y-102400000D01*
X137757297Y-102399278D01*
X137742736Y-102397118D01*
X137728457Y-102393541D01*
X137714597Y-102388582D01*
X137701290Y-102382288D01*
X137688664Y-102374720D01*
X137676841Y-102365952D01*
X137665934Y-102356066D01*
X137656048Y-102345159D01*
X137647280Y-102333336D01*
X137639712Y-102320710D01*
X137633418Y-102307403D01*
X137628459Y-102293543D01*
X137624882Y-102279264D01*
X137622722Y-102264703D01*
X137622000Y-102250000D01*
X137622000Y-100950000D01*
X137622722Y-100935297D01*
X137624882Y-100920736D01*
X137628459Y-100906457D01*
X137633418Y-100892597D01*
X137639712Y-100879290D01*
X137647280Y-100866664D01*
X137656048Y-100854841D01*
X137665934Y-100843934D01*
X137676841Y-100834048D01*
X137688664Y-100825280D01*
X137701290Y-100817712D01*
X137714597Y-100811418D01*
X137728457Y-100806459D01*
X137742736Y-100802882D01*
X137757297Y-100800722D01*
X137772000Y-100800000D01*
X138072000Y-100800000D01*
X138086703Y-100800722D01*
X138086703Y-100800722D01*
G37*
D18*
X137922000Y-101600000D03*
D12*
G36*
X136816703Y-100800722D02*
G01*
X136831264Y-100802882D01*
X136845543Y-100806459D01*
X136859403Y-100811418D01*
X136872710Y-100817712D01*
X136885336Y-100825280D01*
X136897159Y-100834048D01*
X136908066Y-100843934D01*
X136917952Y-100854841D01*
X136926720Y-100866664D01*
X136934288Y-100879290D01*
X136940582Y-100892597D01*
X136945541Y-100906457D01*
X136949118Y-100920736D01*
X136951278Y-100935297D01*
X136952000Y-100950000D01*
X136952000Y-102250000D01*
X136951278Y-102264703D01*
X136949118Y-102279264D01*
X136945541Y-102293543D01*
X136940582Y-102307403D01*
X136934288Y-102320710D01*
X136926720Y-102333336D01*
X136917952Y-102345159D01*
X136908066Y-102356066D01*
X136897159Y-102365952D01*
X136885336Y-102374720D01*
X136872710Y-102382288D01*
X136859403Y-102388582D01*
X136845543Y-102393541D01*
X136831264Y-102397118D01*
X136816703Y-102399278D01*
X136802000Y-102400000D01*
X136502000Y-102400000D01*
X136487297Y-102399278D01*
X136472736Y-102397118D01*
X136458457Y-102393541D01*
X136444597Y-102388582D01*
X136431290Y-102382288D01*
X136418664Y-102374720D01*
X136406841Y-102365952D01*
X136395934Y-102356066D01*
X136386048Y-102345159D01*
X136377280Y-102333336D01*
X136369712Y-102320710D01*
X136363418Y-102307403D01*
X136358459Y-102293543D01*
X136354882Y-102279264D01*
X136352722Y-102264703D01*
X136352000Y-102250000D01*
X136352000Y-100950000D01*
X136352722Y-100935297D01*
X136354882Y-100920736D01*
X136358459Y-100906457D01*
X136363418Y-100892597D01*
X136369712Y-100879290D01*
X136377280Y-100866664D01*
X136386048Y-100854841D01*
X136395934Y-100843934D01*
X136406841Y-100834048D01*
X136418664Y-100825280D01*
X136431290Y-100817712D01*
X136444597Y-100811418D01*
X136458457Y-100806459D01*
X136472736Y-100802882D01*
X136487297Y-100800722D01*
X136502000Y-100800000D01*
X136802000Y-100800000D01*
X136816703Y-100800722D01*
X136816703Y-100800722D01*
G37*
D18*
X136652000Y-101600000D03*
D12*
G36*
X135546703Y-100800722D02*
G01*
X135561264Y-100802882D01*
X135575543Y-100806459D01*
X135589403Y-100811418D01*
X135602710Y-100817712D01*
X135615336Y-100825280D01*
X135627159Y-100834048D01*
X135638066Y-100843934D01*
X135647952Y-100854841D01*
X135656720Y-100866664D01*
X135664288Y-100879290D01*
X135670582Y-100892597D01*
X135675541Y-100906457D01*
X135679118Y-100920736D01*
X135681278Y-100935297D01*
X135682000Y-100950000D01*
X135682000Y-102250000D01*
X135681278Y-102264703D01*
X135679118Y-102279264D01*
X135675541Y-102293543D01*
X135670582Y-102307403D01*
X135664288Y-102320710D01*
X135656720Y-102333336D01*
X135647952Y-102345159D01*
X135638066Y-102356066D01*
X135627159Y-102365952D01*
X135615336Y-102374720D01*
X135602710Y-102382288D01*
X135589403Y-102388582D01*
X135575543Y-102393541D01*
X135561264Y-102397118D01*
X135546703Y-102399278D01*
X135532000Y-102400000D01*
X135232000Y-102400000D01*
X135217297Y-102399278D01*
X135202736Y-102397118D01*
X135188457Y-102393541D01*
X135174597Y-102388582D01*
X135161290Y-102382288D01*
X135148664Y-102374720D01*
X135136841Y-102365952D01*
X135125934Y-102356066D01*
X135116048Y-102345159D01*
X135107280Y-102333336D01*
X135099712Y-102320710D01*
X135093418Y-102307403D01*
X135088459Y-102293543D01*
X135084882Y-102279264D01*
X135082722Y-102264703D01*
X135082000Y-102250000D01*
X135082000Y-100950000D01*
X135082722Y-100935297D01*
X135084882Y-100920736D01*
X135088459Y-100906457D01*
X135093418Y-100892597D01*
X135099712Y-100879290D01*
X135107280Y-100866664D01*
X135116048Y-100854841D01*
X135125934Y-100843934D01*
X135136841Y-100834048D01*
X135148664Y-100825280D01*
X135161290Y-100817712D01*
X135174597Y-100811418D01*
X135188457Y-100806459D01*
X135202736Y-100802882D01*
X135217297Y-100800722D01*
X135232000Y-100800000D01*
X135532000Y-100800000D01*
X135546703Y-100800722D01*
X135546703Y-100800722D01*
G37*
D18*
X135382000Y-101600000D03*
D12*
G36*
X135546703Y-108000722D02*
G01*
X135561264Y-108002882D01*
X135575543Y-108006459D01*
X135589403Y-108011418D01*
X135602710Y-108017712D01*
X135615336Y-108025280D01*
X135627159Y-108034048D01*
X135638066Y-108043934D01*
X135647952Y-108054841D01*
X135656720Y-108066664D01*
X135664288Y-108079290D01*
X135670582Y-108092597D01*
X135675541Y-108106457D01*
X135679118Y-108120736D01*
X135681278Y-108135297D01*
X135682000Y-108150000D01*
X135682000Y-109450000D01*
X135681278Y-109464703D01*
X135679118Y-109479264D01*
X135675541Y-109493543D01*
X135670582Y-109507403D01*
X135664288Y-109520710D01*
X135656720Y-109533336D01*
X135647952Y-109545159D01*
X135638066Y-109556066D01*
X135627159Y-109565952D01*
X135615336Y-109574720D01*
X135602710Y-109582288D01*
X135589403Y-109588582D01*
X135575543Y-109593541D01*
X135561264Y-109597118D01*
X135546703Y-109599278D01*
X135532000Y-109600000D01*
X135232000Y-109600000D01*
X135217297Y-109599278D01*
X135202736Y-109597118D01*
X135188457Y-109593541D01*
X135174597Y-109588582D01*
X135161290Y-109582288D01*
X135148664Y-109574720D01*
X135136841Y-109565952D01*
X135125934Y-109556066D01*
X135116048Y-109545159D01*
X135107280Y-109533336D01*
X135099712Y-109520710D01*
X135093418Y-109507403D01*
X135088459Y-109493543D01*
X135084882Y-109479264D01*
X135082722Y-109464703D01*
X135082000Y-109450000D01*
X135082000Y-108150000D01*
X135082722Y-108135297D01*
X135084882Y-108120736D01*
X135088459Y-108106457D01*
X135093418Y-108092597D01*
X135099712Y-108079290D01*
X135107280Y-108066664D01*
X135116048Y-108054841D01*
X135125934Y-108043934D01*
X135136841Y-108034048D01*
X135148664Y-108025280D01*
X135161290Y-108017712D01*
X135174597Y-108011418D01*
X135188457Y-108006459D01*
X135202736Y-108002882D01*
X135217297Y-108000722D01*
X135232000Y-108000000D01*
X135532000Y-108000000D01*
X135546703Y-108000722D01*
X135546703Y-108000722D01*
G37*
D18*
X135382000Y-108800000D03*
D12*
G36*
X136816703Y-108000722D02*
G01*
X136831264Y-108002882D01*
X136845543Y-108006459D01*
X136859403Y-108011418D01*
X136872710Y-108017712D01*
X136885336Y-108025280D01*
X136897159Y-108034048D01*
X136908066Y-108043934D01*
X136917952Y-108054841D01*
X136926720Y-108066664D01*
X136934288Y-108079290D01*
X136940582Y-108092597D01*
X136945541Y-108106457D01*
X136949118Y-108120736D01*
X136951278Y-108135297D01*
X136952000Y-108150000D01*
X136952000Y-109450000D01*
X136951278Y-109464703D01*
X136949118Y-109479264D01*
X136945541Y-109493543D01*
X136940582Y-109507403D01*
X136934288Y-109520710D01*
X136926720Y-109533336D01*
X136917952Y-109545159D01*
X136908066Y-109556066D01*
X136897159Y-109565952D01*
X136885336Y-109574720D01*
X136872710Y-109582288D01*
X136859403Y-109588582D01*
X136845543Y-109593541D01*
X136831264Y-109597118D01*
X136816703Y-109599278D01*
X136802000Y-109600000D01*
X136502000Y-109600000D01*
X136487297Y-109599278D01*
X136472736Y-109597118D01*
X136458457Y-109593541D01*
X136444597Y-109588582D01*
X136431290Y-109582288D01*
X136418664Y-109574720D01*
X136406841Y-109565952D01*
X136395934Y-109556066D01*
X136386048Y-109545159D01*
X136377280Y-109533336D01*
X136369712Y-109520710D01*
X136363418Y-109507403D01*
X136358459Y-109493543D01*
X136354882Y-109479264D01*
X136352722Y-109464703D01*
X136352000Y-109450000D01*
X136352000Y-108150000D01*
X136352722Y-108135297D01*
X136354882Y-108120736D01*
X136358459Y-108106457D01*
X136363418Y-108092597D01*
X136369712Y-108079290D01*
X136377280Y-108066664D01*
X136386048Y-108054841D01*
X136395934Y-108043934D01*
X136406841Y-108034048D01*
X136418664Y-108025280D01*
X136431290Y-108017712D01*
X136444597Y-108011418D01*
X136458457Y-108006459D01*
X136472736Y-108002882D01*
X136487297Y-108000722D01*
X136502000Y-108000000D01*
X136802000Y-108000000D01*
X136816703Y-108000722D01*
X136816703Y-108000722D01*
G37*
D18*
X136652000Y-108800000D03*
D12*
G36*
X138086703Y-108000722D02*
G01*
X138101264Y-108002882D01*
X138115543Y-108006459D01*
X138129403Y-108011418D01*
X138142710Y-108017712D01*
X138155336Y-108025280D01*
X138167159Y-108034048D01*
X138178066Y-108043934D01*
X138187952Y-108054841D01*
X138196720Y-108066664D01*
X138204288Y-108079290D01*
X138210582Y-108092597D01*
X138215541Y-108106457D01*
X138219118Y-108120736D01*
X138221278Y-108135297D01*
X138222000Y-108150000D01*
X138222000Y-109450000D01*
X138221278Y-109464703D01*
X138219118Y-109479264D01*
X138215541Y-109493543D01*
X138210582Y-109507403D01*
X138204288Y-109520710D01*
X138196720Y-109533336D01*
X138187952Y-109545159D01*
X138178066Y-109556066D01*
X138167159Y-109565952D01*
X138155336Y-109574720D01*
X138142710Y-109582288D01*
X138129403Y-109588582D01*
X138115543Y-109593541D01*
X138101264Y-109597118D01*
X138086703Y-109599278D01*
X138072000Y-109600000D01*
X137772000Y-109600000D01*
X137757297Y-109599278D01*
X137742736Y-109597118D01*
X137728457Y-109593541D01*
X137714597Y-109588582D01*
X137701290Y-109582288D01*
X137688664Y-109574720D01*
X137676841Y-109565952D01*
X137665934Y-109556066D01*
X137656048Y-109545159D01*
X137647280Y-109533336D01*
X137639712Y-109520710D01*
X137633418Y-109507403D01*
X137628459Y-109493543D01*
X137624882Y-109479264D01*
X137622722Y-109464703D01*
X137622000Y-109450000D01*
X137622000Y-108150000D01*
X137622722Y-108135297D01*
X137624882Y-108120736D01*
X137628459Y-108106457D01*
X137633418Y-108092597D01*
X137639712Y-108079290D01*
X137647280Y-108066664D01*
X137656048Y-108054841D01*
X137665934Y-108043934D01*
X137676841Y-108034048D01*
X137688664Y-108025280D01*
X137701290Y-108017712D01*
X137714597Y-108011418D01*
X137728457Y-108006459D01*
X137742736Y-108002882D01*
X137757297Y-108000722D01*
X137772000Y-108000000D01*
X138072000Y-108000000D01*
X138086703Y-108000722D01*
X138086703Y-108000722D01*
G37*
D18*
X137922000Y-108800000D03*
D12*
G36*
X139356703Y-108000722D02*
G01*
X139371264Y-108002882D01*
X139385543Y-108006459D01*
X139399403Y-108011418D01*
X139412710Y-108017712D01*
X139425336Y-108025280D01*
X139437159Y-108034048D01*
X139448066Y-108043934D01*
X139457952Y-108054841D01*
X139466720Y-108066664D01*
X139474288Y-108079290D01*
X139480582Y-108092597D01*
X139485541Y-108106457D01*
X139489118Y-108120736D01*
X139491278Y-108135297D01*
X139492000Y-108150000D01*
X139492000Y-109450000D01*
X139491278Y-109464703D01*
X139489118Y-109479264D01*
X139485541Y-109493543D01*
X139480582Y-109507403D01*
X139474288Y-109520710D01*
X139466720Y-109533336D01*
X139457952Y-109545159D01*
X139448066Y-109556066D01*
X139437159Y-109565952D01*
X139425336Y-109574720D01*
X139412710Y-109582288D01*
X139399403Y-109588582D01*
X139385543Y-109593541D01*
X139371264Y-109597118D01*
X139356703Y-109599278D01*
X139342000Y-109600000D01*
X139042000Y-109600000D01*
X139027297Y-109599278D01*
X139012736Y-109597118D01*
X138998457Y-109593541D01*
X138984597Y-109588582D01*
X138971290Y-109582288D01*
X138958664Y-109574720D01*
X138946841Y-109565952D01*
X138935934Y-109556066D01*
X138926048Y-109545159D01*
X138917280Y-109533336D01*
X138909712Y-109520710D01*
X138903418Y-109507403D01*
X138898459Y-109493543D01*
X138894882Y-109479264D01*
X138892722Y-109464703D01*
X138892000Y-109450000D01*
X138892000Y-108150000D01*
X138892722Y-108135297D01*
X138894882Y-108120736D01*
X138898459Y-108106457D01*
X138903418Y-108092597D01*
X138909712Y-108079290D01*
X138917280Y-108066664D01*
X138926048Y-108054841D01*
X138935934Y-108043934D01*
X138946841Y-108034048D01*
X138958664Y-108025280D01*
X138971290Y-108017712D01*
X138984597Y-108011418D01*
X138998457Y-108006459D01*
X139012736Y-108002882D01*
X139027297Y-108000722D01*
X139042000Y-108000000D01*
X139342000Y-108000000D01*
X139356703Y-108000722D01*
X139356703Y-108000722D01*
G37*
D18*
X139192000Y-108800000D03*
D19*
X167724400Y-95478600D03*
X159224400Y-95478600D03*
D12*
G36*
X132221504Y-93740204D02*
G01*
X132245773Y-93743804D01*
X132269571Y-93749765D01*
X132292671Y-93758030D01*
X132314849Y-93768520D01*
X132335893Y-93781133D01*
X132355598Y-93795747D01*
X132373777Y-93812223D01*
X132390253Y-93830402D01*
X132404867Y-93850107D01*
X132417480Y-93871151D01*
X132427970Y-93893329D01*
X132436235Y-93916429D01*
X132442196Y-93940227D01*
X132445796Y-93964496D01*
X132447000Y-93989000D01*
X132447000Y-94914000D01*
X132445796Y-94938504D01*
X132442196Y-94962773D01*
X132436235Y-94986571D01*
X132427970Y-95009671D01*
X132417480Y-95031849D01*
X132404867Y-95052893D01*
X132390253Y-95072598D01*
X132373777Y-95090777D01*
X132355598Y-95107253D01*
X132335893Y-95121867D01*
X132314849Y-95134480D01*
X132292671Y-95144970D01*
X132269571Y-95153235D01*
X132245773Y-95159196D01*
X132221504Y-95162796D01*
X132197000Y-95164000D01*
X130947000Y-95164000D01*
X130922496Y-95162796D01*
X130898227Y-95159196D01*
X130874429Y-95153235D01*
X130851329Y-95144970D01*
X130829151Y-95134480D01*
X130808107Y-95121867D01*
X130788402Y-95107253D01*
X130770223Y-95090777D01*
X130753747Y-95072598D01*
X130739133Y-95052893D01*
X130726520Y-95031849D01*
X130716030Y-95009671D01*
X130707765Y-94986571D01*
X130701804Y-94962773D01*
X130698204Y-94938504D01*
X130697000Y-94914000D01*
X130697000Y-93989000D01*
X130698204Y-93964496D01*
X130701804Y-93940227D01*
X130707765Y-93916429D01*
X130716030Y-93893329D01*
X130726520Y-93871151D01*
X130739133Y-93850107D01*
X130753747Y-93830402D01*
X130770223Y-93812223D01*
X130788402Y-93795747D01*
X130808107Y-93781133D01*
X130829151Y-93768520D01*
X130851329Y-93758030D01*
X130874429Y-93749765D01*
X130898227Y-93743804D01*
X130922496Y-93740204D01*
X130947000Y-93739000D01*
X132197000Y-93739000D01*
X132221504Y-93740204D01*
X132221504Y-93740204D01*
G37*
D14*
X131572000Y-94451500D03*
D12*
G36*
X132221504Y-90765204D02*
G01*
X132245773Y-90768804D01*
X132269571Y-90774765D01*
X132292671Y-90783030D01*
X132314849Y-90793520D01*
X132335893Y-90806133D01*
X132355598Y-90820747D01*
X132373777Y-90837223D01*
X132390253Y-90855402D01*
X132404867Y-90875107D01*
X132417480Y-90896151D01*
X132427970Y-90918329D01*
X132436235Y-90941429D01*
X132442196Y-90965227D01*
X132445796Y-90989496D01*
X132447000Y-91014000D01*
X132447000Y-91939000D01*
X132445796Y-91963504D01*
X132442196Y-91987773D01*
X132436235Y-92011571D01*
X132427970Y-92034671D01*
X132417480Y-92056849D01*
X132404867Y-92077893D01*
X132390253Y-92097598D01*
X132373777Y-92115777D01*
X132355598Y-92132253D01*
X132335893Y-92146867D01*
X132314849Y-92159480D01*
X132292671Y-92169970D01*
X132269571Y-92178235D01*
X132245773Y-92184196D01*
X132221504Y-92187796D01*
X132197000Y-92189000D01*
X130947000Y-92189000D01*
X130922496Y-92187796D01*
X130898227Y-92184196D01*
X130874429Y-92178235D01*
X130851329Y-92169970D01*
X130829151Y-92159480D01*
X130808107Y-92146867D01*
X130788402Y-92132253D01*
X130770223Y-92115777D01*
X130753747Y-92097598D01*
X130739133Y-92077893D01*
X130726520Y-92056849D01*
X130716030Y-92034671D01*
X130707765Y-92011571D01*
X130701804Y-91987773D01*
X130698204Y-91963504D01*
X130697000Y-91939000D01*
X130697000Y-91014000D01*
X130698204Y-90989496D01*
X130701804Y-90965227D01*
X130707765Y-90941429D01*
X130716030Y-90918329D01*
X130726520Y-90896151D01*
X130739133Y-90875107D01*
X130753747Y-90855402D01*
X130770223Y-90837223D01*
X130788402Y-90820747D01*
X130808107Y-90806133D01*
X130829151Y-90793520D01*
X130851329Y-90783030D01*
X130874429Y-90774765D01*
X130898227Y-90768804D01*
X130922496Y-90765204D01*
X130947000Y-90764000D01*
X132197000Y-90764000D01*
X132221504Y-90765204D01*
X132221504Y-90765204D01*
G37*
D14*
X131572000Y-91476500D03*
D20*
X129676000Y-111500000D03*
X129676000Y-106940000D03*
D21*
X121701000Y-107695000D03*
X125051000Y-110745000D03*
X121701000Y-110745000D03*
X125051000Y-107695000D03*
D12*
G36*
X145804504Y-115347204D02*
G01*
X145828773Y-115350804D01*
X145852571Y-115356765D01*
X145875671Y-115365030D01*
X145897849Y-115375520D01*
X145918893Y-115388133D01*
X145938598Y-115402747D01*
X145956777Y-115419223D01*
X145973253Y-115437402D01*
X145987867Y-115457107D01*
X146000480Y-115478151D01*
X146010970Y-115500329D01*
X146019235Y-115523429D01*
X146025196Y-115547227D01*
X146028796Y-115571496D01*
X146030000Y-115596000D01*
X146030000Y-119096000D01*
X146028796Y-119120504D01*
X146025196Y-119144773D01*
X146019235Y-119168571D01*
X146010970Y-119191671D01*
X146000480Y-119213849D01*
X145987867Y-119234893D01*
X145973253Y-119254598D01*
X145956777Y-119272777D01*
X145938598Y-119289253D01*
X145918893Y-119303867D01*
X145897849Y-119316480D01*
X145875671Y-119326970D01*
X145852571Y-119335235D01*
X145828773Y-119341196D01*
X145804504Y-119344796D01*
X145780000Y-119346000D01*
X143780000Y-119346000D01*
X143755496Y-119344796D01*
X143731227Y-119341196D01*
X143707429Y-119335235D01*
X143684329Y-119326970D01*
X143662151Y-119316480D01*
X143641107Y-119303867D01*
X143621402Y-119289253D01*
X143603223Y-119272777D01*
X143586747Y-119254598D01*
X143572133Y-119234893D01*
X143559520Y-119213849D01*
X143549030Y-119191671D01*
X143540765Y-119168571D01*
X143534804Y-119144773D01*
X143531204Y-119120504D01*
X143530000Y-119096000D01*
X143530000Y-115596000D01*
X143531204Y-115571496D01*
X143534804Y-115547227D01*
X143540765Y-115523429D01*
X143549030Y-115500329D01*
X143559520Y-115478151D01*
X143572133Y-115457107D01*
X143586747Y-115437402D01*
X143603223Y-115419223D01*
X143621402Y-115402747D01*
X143641107Y-115388133D01*
X143662151Y-115375520D01*
X143684329Y-115365030D01*
X143707429Y-115356765D01*
X143731227Y-115350804D01*
X143755496Y-115347204D01*
X143780000Y-115346000D01*
X145780000Y-115346000D01*
X145804504Y-115347204D01*
X145804504Y-115347204D01*
G37*
D22*
X144780000Y-117346000D03*
D12*
G36*
X145804504Y-121447204D02*
G01*
X145828773Y-121450804D01*
X145852571Y-121456765D01*
X145875671Y-121465030D01*
X145897849Y-121475520D01*
X145918893Y-121488133D01*
X145938598Y-121502747D01*
X145956777Y-121519223D01*
X145973253Y-121537402D01*
X145987867Y-121557107D01*
X146000480Y-121578151D01*
X146010970Y-121600329D01*
X146019235Y-121623429D01*
X146025196Y-121647227D01*
X146028796Y-121671496D01*
X146030000Y-121696000D01*
X146030000Y-125196000D01*
X146028796Y-125220504D01*
X146025196Y-125244773D01*
X146019235Y-125268571D01*
X146010970Y-125291671D01*
X146000480Y-125313849D01*
X145987867Y-125334893D01*
X145973253Y-125354598D01*
X145956777Y-125372777D01*
X145938598Y-125389253D01*
X145918893Y-125403867D01*
X145897849Y-125416480D01*
X145875671Y-125426970D01*
X145852571Y-125435235D01*
X145828773Y-125441196D01*
X145804504Y-125444796D01*
X145780000Y-125446000D01*
X143780000Y-125446000D01*
X143755496Y-125444796D01*
X143731227Y-125441196D01*
X143707429Y-125435235D01*
X143684329Y-125426970D01*
X143662151Y-125416480D01*
X143641107Y-125403867D01*
X143621402Y-125389253D01*
X143603223Y-125372777D01*
X143586747Y-125354598D01*
X143572133Y-125334893D01*
X143559520Y-125313849D01*
X143549030Y-125291671D01*
X143540765Y-125268571D01*
X143534804Y-125244773D01*
X143531204Y-125220504D01*
X143530000Y-125196000D01*
X143530000Y-121696000D01*
X143531204Y-121671496D01*
X143534804Y-121647227D01*
X143540765Y-121623429D01*
X143549030Y-121600329D01*
X143559520Y-121578151D01*
X143572133Y-121557107D01*
X143586747Y-121537402D01*
X143603223Y-121519223D01*
X143621402Y-121502747D01*
X143641107Y-121488133D01*
X143662151Y-121475520D01*
X143684329Y-121465030D01*
X143707429Y-121456765D01*
X143731227Y-121450804D01*
X143755496Y-121447204D01*
X143780000Y-121446000D01*
X145780000Y-121446000D01*
X145804504Y-121447204D01*
X145804504Y-121447204D01*
G37*
D22*
X144780000Y-123446000D03*
D12*
G36*
X136660504Y-121445204D02*
G01*
X136684773Y-121448804D01*
X136708571Y-121454765D01*
X136731671Y-121463030D01*
X136753849Y-121473520D01*
X136774893Y-121486133D01*
X136794598Y-121500747D01*
X136812777Y-121517223D01*
X136829253Y-121535402D01*
X136843867Y-121555107D01*
X136856480Y-121576151D01*
X136866970Y-121598329D01*
X136875235Y-121621429D01*
X136881196Y-121645227D01*
X136884796Y-121669496D01*
X136886000Y-121694000D01*
X136886000Y-125194000D01*
X136884796Y-125218504D01*
X136881196Y-125242773D01*
X136875235Y-125266571D01*
X136866970Y-125289671D01*
X136856480Y-125311849D01*
X136843867Y-125332893D01*
X136829253Y-125352598D01*
X136812777Y-125370777D01*
X136794598Y-125387253D01*
X136774893Y-125401867D01*
X136753849Y-125414480D01*
X136731671Y-125424970D01*
X136708571Y-125433235D01*
X136684773Y-125439196D01*
X136660504Y-125442796D01*
X136636000Y-125444000D01*
X134636000Y-125444000D01*
X134611496Y-125442796D01*
X134587227Y-125439196D01*
X134563429Y-125433235D01*
X134540329Y-125424970D01*
X134518151Y-125414480D01*
X134497107Y-125401867D01*
X134477402Y-125387253D01*
X134459223Y-125370777D01*
X134442747Y-125352598D01*
X134428133Y-125332893D01*
X134415520Y-125311849D01*
X134405030Y-125289671D01*
X134396765Y-125266571D01*
X134390804Y-125242773D01*
X134387204Y-125218504D01*
X134386000Y-125194000D01*
X134386000Y-121694000D01*
X134387204Y-121669496D01*
X134390804Y-121645227D01*
X134396765Y-121621429D01*
X134405030Y-121598329D01*
X134415520Y-121576151D01*
X134428133Y-121555107D01*
X134442747Y-121535402D01*
X134459223Y-121517223D01*
X134477402Y-121500747D01*
X134497107Y-121486133D01*
X134518151Y-121473520D01*
X134540329Y-121463030D01*
X134563429Y-121454765D01*
X134587227Y-121448804D01*
X134611496Y-121445204D01*
X134636000Y-121444000D01*
X136636000Y-121444000D01*
X136660504Y-121445204D01*
X136660504Y-121445204D01*
G37*
D22*
X135636000Y-123444000D03*
D12*
G36*
X136660504Y-115345204D02*
G01*
X136684773Y-115348804D01*
X136708571Y-115354765D01*
X136731671Y-115363030D01*
X136753849Y-115373520D01*
X136774893Y-115386133D01*
X136794598Y-115400747D01*
X136812777Y-115417223D01*
X136829253Y-115435402D01*
X136843867Y-115455107D01*
X136856480Y-115476151D01*
X136866970Y-115498329D01*
X136875235Y-115521429D01*
X136881196Y-115545227D01*
X136884796Y-115569496D01*
X136886000Y-115594000D01*
X136886000Y-119094000D01*
X136884796Y-119118504D01*
X136881196Y-119142773D01*
X136875235Y-119166571D01*
X136866970Y-119189671D01*
X136856480Y-119211849D01*
X136843867Y-119232893D01*
X136829253Y-119252598D01*
X136812777Y-119270777D01*
X136794598Y-119287253D01*
X136774893Y-119301867D01*
X136753849Y-119314480D01*
X136731671Y-119324970D01*
X136708571Y-119333235D01*
X136684773Y-119339196D01*
X136660504Y-119342796D01*
X136636000Y-119344000D01*
X134636000Y-119344000D01*
X134611496Y-119342796D01*
X134587227Y-119339196D01*
X134563429Y-119333235D01*
X134540329Y-119324970D01*
X134518151Y-119314480D01*
X134497107Y-119301867D01*
X134477402Y-119287253D01*
X134459223Y-119270777D01*
X134442747Y-119252598D01*
X134428133Y-119232893D01*
X134415520Y-119211849D01*
X134405030Y-119189671D01*
X134396765Y-119166571D01*
X134390804Y-119142773D01*
X134387204Y-119118504D01*
X134386000Y-119094000D01*
X134386000Y-115594000D01*
X134387204Y-115569496D01*
X134390804Y-115545227D01*
X134396765Y-115521429D01*
X134405030Y-115498329D01*
X134415520Y-115476151D01*
X134428133Y-115455107D01*
X134442747Y-115435402D01*
X134459223Y-115417223D01*
X134477402Y-115400747D01*
X134497107Y-115386133D01*
X134518151Y-115373520D01*
X134540329Y-115363030D01*
X134563429Y-115354765D01*
X134587227Y-115348804D01*
X134611496Y-115345204D01*
X134636000Y-115344000D01*
X136636000Y-115344000D01*
X136660504Y-115345204D01*
X136660504Y-115345204D01*
G37*
D22*
X135636000Y-117344000D03*
M02*
