G04 #@! TF.GenerationSoftware,KiCad,Pcbnew,(5.1.4-0-10_14)*
G04 #@! TF.CreationDate,2020-06-11T20:45:35+02:00*
G04 #@! TF.ProjectId,zArduino,7a417264-7569-46e6-9f2e-6b696361645f,rev?*
G04 #@! TF.SameCoordinates,Original*
G04 #@! TF.FileFunction,Soldermask,Top*
G04 #@! TF.FilePolarity,Negative*
%FSLAX46Y46*%
G04 Gerber Fmt 4.6, Leading zero omitted, Abs format (unit mm)*
G04 Created by KiCad (PCBNEW (5.1.4-0-10_14)) date 2020-06-11 20:45:35*
%MOMM*%
%LPD*%
G04 APERTURE LIST*
%ADD10C,0.100000*%
G04 APERTURE END LIST*
D10*
G36*
X145951934Y-121398671D02*
G01*
X145981877Y-121407754D01*
X146009465Y-121422500D01*
X146033651Y-121442349D01*
X146053500Y-121466535D01*
X146068246Y-121494123D01*
X146077329Y-121524066D01*
X146081000Y-121561340D01*
X146081000Y-125330660D01*
X146077329Y-125367934D01*
X146068246Y-125397877D01*
X146053500Y-125425465D01*
X146033651Y-125449651D01*
X146009465Y-125469500D01*
X145981877Y-125484246D01*
X145951934Y-125493329D01*
X145914660Y-125497000D01*
X143645340Y-125497000D01*
X143608066Y-125493329D01*
X143578123Y-125484246D01*
X143550535Y-125469500D01*
X143526349Y-125449651D01*
X143506500Y-125425465D01*
X143491754Y-125397877D01*
X143482671Y-125367934D01*
X143479000Y-125330660D01*
X143479000Y-121561340D01*
X143482671Y-121524066D01*
X143491754Y-121494123D01*
X143506500Y-121466535D01*
X143526349Y-121442349D01*
X143550535Y-121422500D01*
X143578123Y-121407754D01*
X143608066Y-121398671D01*
X143645340Y-121395000D01*
X145914660Y-121395000D01*
X145951934Y-121398671D01*
X145951934Y-121398671D01*
G37*
G36*
X136807934Y-121396671D02*
G01*
X136837877Y-121405754D01*
X136865465Y-121420500D01*
X136889651Y-121440349D01*
X136909500Y-121464535D01*
X136924246Y-121492123D01*
X136933329Y-121522066D01*
X136937000Y-121559340D01*
X136937000Y-125328660D01*
X136933329Y-125365934D01*
X136924246Y-125395877D01*
X136909500Y-125423465D01*
X136889651Y-125447651D01*
X136865465Y-125467500D01*
X136837877Y-125482246D01*
X136807934Y-125491329D01*
X136770660Y-125495000D01*
X134501340Y-125495000D01*
X134464066Y-125491329D01*
X134434123Y-125482246D01*
X134406535Y-125467500D01*
X134382349Y-125447651D01*
X134362500Y-125423465D01*
X134347754Y-125395877D01*
X134338671Y-125365934D01*
X134335000Y-125328660D01*
X134335000Y-121559340D01*
X134338671Y-121522066D01*
X134347754Y-121492123D01*
X134362500Y-121464535D01*
X134382349Y-121440349D01*
X134406535Y-121420500D01*
X134434123Y-121405754D01*
X134464066Y-121396671D01*
X134501340Y-121393000D01*
X136770660Y-121393000D01*
X136807934Y-121396671D01*
X136807934Y-121396671D01*
G37*
G36*
X177504042Y-123159118D02*
G01*
X177570227Y-123165637D01*
X177740066Y-123217157D01*
X177896591Y-123300822D01*
X177932329Y-123330152D01*
X178033786Y-123413414D01*
X178117048Y-123514871D01*
X178146378Y-123550609D01*
X178230043Y-123707134D01*
X178281563Y-123876973D01*
X178298959Y-124053600D01*
X178281563Y-124230227D01*
X178230043Y-124400066D01*
X178146378Y-124556591D01*
X178117048Y-124592329D01*
X178033786Y-124693786D01*
X177932329Y-124777048D01*
X177896591Y-124806378D01*
X177740066Y-124890043D01*
X177570227Y-124941563D01*
X177504043Y-124948081D01*
X177437860Y-124954600D01*
X177349340Y-124954600D01*
X177283157Y-124948081D01*
X177216973Y-124941563D01*
X177047134Y-124890043D01*
X176890609Y-124806378D01*
X176854871Y-124777048D01*
X176753414Y-124693786D01*
X176670152Y-124592329D01*
X176640822Y-124556591D01*
X176557157Y-124400066D01*
X176505637Y-124230227D01*
X176488241Y-124053600D01*
X176505637Y-123876973D01*
X176557157Y-123707134D01*
X176640822Y-123550609D01*
X176670152Y-123514871D01*
X176753414Y-123413414D01*
X176854871Y-123330152D01*
X176890609Y-123300822D01*
X177047134Y-123217157D01*
X177216973Y-123165637D01*
X177283158Y-123159118D01*
X177349340Y-123152600D01*
X177437860Y-123152600D01*
X177504042Y-123159118D01*
X177504042Y-123159118D01*
G37*
G36*
X174964042Y-123159118D02*
G01*
X175030227Y-123165637D01*
X175200066Y-123217157D01*
X175356591Y-123300822D01*
X175392329Y-123330152D01*
X175493786Y-123413414D01*
X175577048Y-123514871D01*
X175606378Y-123550609D01*
X175690043Y-123707134D01*
X175741563Y-123876973D01*
X175758959Y-124053600D01*
X175741563Y-124230227D01*
X175690043Y-124400066D01*
X175606378Y-124556591D01*
X175577048Y-124592329D01*
X175493786Y-124693786D01*
X175392329Y-124777048D01*
X175356591Y-124806378D01*
X175200066Y-124890043D01*
X175030227Y-124941563D01*
X174964043Y-124948081D01*
X174897860Y-124954600D01*
X174809340Y-124954600D01*
X174743157Y-124948081D01*
X174676973Y-124941563D01*
X174507134Y-124890043D01*
X174350609Y-124806378D01*
X174314871Y-124777048D01*
X174213414Y-124693786D01*
X174130152Y-124592329D01*
X174100822Y-124556591D01*
X174017157Y-124400066D01*
X173965637Y-124230227D01*
X173948241Y-124053600D01*
X173965637Y-123876973D01*
X174017157Y-123707134D01*
X174100822Y-123550609D01*
X174130152Y-123514871D01*
X174213414Y-123413414D01*
X174314871Y-123330152D01*
X174350609Y-123300822D01*
X174507134Y-123217157D01*
X174676973Y-123165637D01*
X174743158Y-123159118D01*
X174809340Y-123152600D01*
X174897860Y-123152600D01*
X174964042Y-123159118D01*
X174964042Y-123159118D01*
G37*
G36*
X172424042Y-123159118D02*
G01*
X172490227Y-123165637D01*
X172660066Y-123217157D01*
X172816591Y-123300822D01*
X172852329Y-123330152D01*
X172953786Y-123413414D01*
X173037048Y-123514871D01*
X173066378Y-123550609D01*
X173150043Y-123707134D01*
X173201563Y-123876973D01*
X173218959Y-124053600D01*
X173201563Y-124230227D01*
X173150043Y-124400066D01*
X173066378Y-124556591D01*
X173037048Y-124592329D01*
X172953786Y-124693786D01*
X172852329Y-124777048D01*
X172816591Y-124806378D01*
X172660066Y-124890043D01*
X172490227Y-124941563D01*
X172424043Y-124948081D01*
X172357860Y-124954600D01*
X172269340Y-124954600D01*
X172203157Y-124948081D01*
X172136973Y-124941563D01*
X171967134Y-124890043D01*
X171810609Y-124806378D01*
X171774871Y-124777048D01*
X171673414Y-124693786D01*
X171590152Y-124592329D01*
X171560822Y-124556591D01*
X171477157Y-124400066D01*
X171425637Y-124230227D01*
X171408241Y-124053600D01*
X171425637Y-123876973D01*
X171477157Y-123707134D01*
X171560822Y-123550609D01*
X171590152Y-123514871D01*
X171673414Y-123413414D01*
X171774871Y-123330152D01*
X171810609Y-123300822D01*
X171967134Y-123217157D01*
X172136973Y-123165637D01*
X172203158Y-123159118D01*
X172269340Y-123152600D01*
X172357860Y-123152600D01*
X172424042Y-123159118D01*
X172424042Y-123159118D01*
G37*
G36*
X170674600Y-124954600D02*
G01*
X168872600Y-124954600D01*
X168872600Y-123152600D01*
X170674600Y-123152600D01*
X170674600Y-124954600D01*
X170674600Y-124954600D01*
G37*
G36*
X164778642Y-123159118D02*
G01*
X164844827Y-123165637D01*
X165014666Y-123217157D01*
X165171191Y-123300822D01*
X165206929Y-123330152D01*
X165308386Y-123413414D01*
X165391648Y-123514871D01*
X165420978Y-123550609D01*
X165504643Y-123707134D01*
X165556163Y-123876973D01*
X165573559Y-124053600D01*
X165556163Y-124230227D01*
X165504643Y-124400066D01*
X165420978Y-124556591D01*
X165391648Y-124592329D01*
X165308386Y-124693786D01*
X165206929Y-124777048D01*
X165171191Y-124806378D01*
X165014666Y-124890043D01*
X164844827Y-124941563D01*
X164778643Y-124948081D01*
X164712460Y-124954600D01*
X164623940Y-124954600D01*
X164557757Y-124948081D01*
X164491573Y-124941563D01*
X164321734Y-124890043D01*
X164165209Y-124806378D01*
X164129471Y-124777048D01*
X164028014Y-124693786D01*
X163944752Y-124592329D01*
X163915422Y-124556591D01*
X163831757Y-124400066D01*
X163780237Y-124230227D01*
X163762841Y-124053600D01*
X163780237Y-123876973D01*
X163831757Y-123707134D01*
X163915422Y-123550609D01*
X163944752Y-123514871D01*
X164028014Y-123413414D01*
X164129471Y-123330152D01*
X164165209Y-123300822D01*
X164321734Y-123217157D01*
X164491573Y-123165637D01*
X164557758Y-123159118D01*
X164623940Y-123152600D01*
X164712460Y-123152600D01*
X164778642Y-123159118D01*
X164778642Y-123159118D01*
G37*
G36*
X162238642Y-123159118D02*
G01*
X162304827Y-123165637D01*
X162474666Y-123217157D01*
X162631191Y-123300822D01*
X162666929Y-123330152D01*
X162768386Y-123413414D01*
X162851648Y-123514871D01*
X162880978Y-123550609D01*
X162964643Y-123707134D01*
X163016163Y-123876973D01*
X163033559Y-124053600D01*
X163016163Y-124230227D01*
X162964643Y-124400066D01*
X162880978Y-124556591D01*
X162851648Y-124592329D01*
X162768386Y-124693786D01*
X162666929Y-124777048D01*
X162631191Y-124806378D01*
X162474666Y-124890043D01*
X162304827Y-124941563D01*
X162238643Y-124948081D01*
X162172460Y-124954600D01*
X162083940Y-124954600D01*
X162017757Y-124948081D01*
X161951573Y-124941563D01*
X161781734Y-124890043D01*
X161625209Y-124806378D01*
X161589471Y-124777048D01*
X161488014Y-124693786D01*
X161404752Y-124592329D01*
X161375422Y-124556591D01*
X161291757Y-124400066D01*
X161240237Y-124230227D01*
X161222841Y-124053600D01*
X161240237Y-123876973D01*
X161291757Y-123707134D01*
X161375422Y-123550609D01*
X161404752Y-123514871D01*
X161488014Y-123413414D01*
X161589471Y-123330152D01*
X161625209Y-123300822D01*
X161781734Y-123217157D01*
X161951573Y-123165637D01*
X162017758Y-123159118D01*
X162083940Y-123152600D01*
X162172460Y-123152600D01*
X162238642Y-123159118D01*
X162238642Y-123159118D01*
G37*
G36*
X159698642Y-123159118D02*
G01*
X159764827Y-123165637D01*
X159934666Y-123217157D01*
X160091191Y-123300822D01*
X160126929Y-123330152D01*
X160228386Y-123413414D01*
X160311648Y-123514871D01*
X160340978Y-123550609D01*
X160424643Y-123707134D01*
X160476163Y-123876973D01*
X160493559Y-124053600D01*
X160476163Y-124230227D01*
X160424643Y-124400066D01*
X160340978Y-124556591D01*
X160311648Y-124592329D01*
X160228386Y-124693786D01*
X160126929Y-124777048D01*
X160091191Y-124806378D01*
X159934666Y-124890043D01*
X159764827Y-124941563D01*
X159698643Y-124948081D01*
X159632460Y-124954600D01*
X159543940Y-124954600D01*
X159477757Y-124948081D01*
X159411573Y-124941563D01*
X159241734Y-124890043D01*
X159085209Y-124806378D01*
X159049471Y-124777048D01*
X158948014Y-124693786D01*
X158864752Y-124592329D01*
X158835422Y-124556591D01*
X158751757Y-124400066D01*
X158700237Y-124230227D01*
X158682841Y-124053600D01*
X158700237Y-123876973D01*
X158751757Y-123707134D01*
X158835422Y-123550609D01*
X158864752Y-123514871D01*
X158948014Y-123413414D01*
X159049471Y-123330152D01*
X159085209Y-123300822D01*
X159241734Y-123217157D01*
X159411573Y-123165637D01*
X159477758Y-123159118D01*
X159543940Y-123152600D01*
X159632460Y-123152600D01*
X159698642Y-123159118D01*
X159698642Y-123159118D01*
G37*
G36*
X157158642Y-123159118D02*
G01*
X157224827Y-123165637D01*
X157394666Y-123217157D01*
X157551191Y-123300822D01*
X157586929Y-123330152D01*
X157688386Y-123413414D01*
X157771648Y-123514871D01*
X157800978Y-123550609D01*
X157884643Y-123707134D01*
X157936163Y-123876973D01*
X157953559Y-124053600D01*
X157936163Y-124230227D01*
X157884643Y-124400066D01*
X157800978Y-124556591D01*
X157771648Y-124592329D01*
X157688386Y-124693786D01*
X157586929Y-124777048D01*
X157551191Y-124806378D01*
X157394666Y-124890043D01*
X157224827Y-124941563D01*
X157158643Y-124948081D01*
X157092460Y-124954600D01*
X157003940Y-124954600D01*
X156937757Y-124948081D01*
X156871573Y-124941563D01*
X156701734Y-124890043D01*
X156545209Y-124806378D01*
X156509471Y-124777048D01*
X156408014Y-124693786D01*
X156324752Y-124592329D01*
X156295422Y-124556591D01*
X156211757Y-124400066D01*
X156160237Y-124230227D01*
X156142841Y-124053600D01*
X156160237Y-123876973D01*
X156211757Y-123707134D01*
X156295422Y-123550609D01*
X156324752Y-123514871D01*
X156408014Y-123413414D01*
X156509471Y-123330152D01*
X156545209Y-123300822D01*
X156701734Y-123217157D01*
X156871573Y-123165637D01*
X156937758Y-123159118D01*
X157003940Y-123152600D01*
X157092460Y-123152600D01*
X157158642Y-123159118D01*
X157158642Y-123159118D01*
G37*
G36*
X154618642Y-123159118D02*
G01*
X154684827Y-123165637D01*
X154854666Y-123217157D01*
X155011191Y-123300822D01*
X155046929Y-123330152D01*
X155148386Y-123413414D01*
X155231648Y-123514871D01*
X155260978Y-123550609D01*
X155344643Y-123707134D01*
X155396163Y-123876973D01*
X155413559Y-124053600D01*
X155396163Y-124230227D01*
X155344643Y-124400066D01*
X155260978Y-124556591D01*
X155231648Y-124592329D01*
X155148386Y-124693786D01*
X155046929Y-124777048D01*
X155011191Y-124806378D01*
X154854666Y-124890043D01*
X154684827Y-124941563D01*
X154618643Y-124948081D01*
X154552460Y-124954600D01*
X154463940Y-124954600D01*
X154397757Y-124948081D01*
X154331573Y-124941563D01*
X154161734Y-124890043D01*
X154005209Y-124806378D01*
X153969471Y-124777048D01*
X153868014Y-124693786D01*
X153784752Y-124592329D01*
X153755422Y-124556591D01*
X153671757Y-124400066D01*
X153620237Y-124230227D01*
X153602841Y-124053600D01*
X153620237Y-123876973D01*
X153671757Y-123707134D01*
X153755422Y-123550609D01*
X153784752Y-123514871D01*
X153868014Y-123413414D01*
X153969471Y-123330152D01*
X154005209Y-123300822D01*
X154161734Y-123217157D01*
X154331573Y-123165637D01*
X154397758Y-123159118D01*
X154463940Y-123152600D01*
X154552460Y-123152600D01*
X154618642Y-123159118D01*
X154618642Y-123159118D01*
G37*
G36*
X152869200Y-124954600D02*
G01*
X151067200Y-124954600D01*
X151067200Y-123152600D01*
X152869200Y-123152600D01*
X152869200Y-124954600D01*
X152869200Y-124954600D01*
G37*
G36*
X182584042Y-123159118D02*
G01*
X182650227Y-123165637D01*
X182820066Y-123217157D01*
X182976591Y-123300822D01*
X183012329Y-123330152D01*
X183113786Y-123413414D01*
X183197048Y-123514871D01*
X183226378Y-123550609D01*
X183310043Y-123707134D01*
X183361563Y-123876973D01*
X183378959Y-124053600D01*
X183361563Y-124230227D01*
X183310043Y-124400066D01*
X183226378Y-124556591D01*
X183197048Y-124592329D01*
X183113786Y-124693786D01*
X183012329Y-124777048D01*
X182976591Y-124806378D01*
X182820066Y-124890043D01*
X182650227Y-124941563D01*
X182584043Y-124948081D01*
X182517860Y-124954600D01*
X182429340Y-124954600D01*
X182363157Y-124948081D01*
X182296973Y-124941563D01*
X182127134Y-124890043D01*
X181970609Y-124806378D01*
X181934871Y-124777048D01*
X181833414Y-124693786D01*
X181750152Y-124592329D01*
X181720822Y-124556591D01*
X181637157Y-124400066D01*
X181585637Y-124230227D01*
X181568241Y-124053600D01*
X181585637Y-123876973D01*
X181637157Y-123707134D01*
X181720822Y-123550609D01*
X181750152Y-123514871D01*
X181833414Y-123413414D01*
X181934871Y-123330152D01*
X181970609Y-123300822D01*
X182127134Y-123217157D01*
X182296973Y-123165637D01*
X182363158Y-123159118D01*
X182429340Y-123152600D01*
X182517860Y-123152600D01*
X182584042Y-123159118D01*
X182584042Y-123159118D01*
G37*
G36*
X180044042Y-123159118D02*
G01*
X180110227Y-123165637D01*
X180280066Y-123217157D01*
X180436591Y-123300822D01*
X180472329Y-123330152D01*
X180573786Y-123413414D01*
X180657048Y-123514871D01*
X180686378Y-123550609D01*
X180770043Y-123707134D01*
X180821563Y-123876973D01*
X180838959Y-124053600D01*
X180821563Y-124230227D01*
X180770043Y-124400066D01*
X180686378Y-124556591D01*
X180657048Y-124592329D01*
X180573786Y-124693786D01*
X180472329Y-124777048D01*
X180436591Y-124806378D01*
X180280066Y-124890043D01*
X180110227Y-124941563D01*
X180044043Y-124948081D01*
X179977860Y-124954600D01*
X179889340Y-124954600D01*
X179823157Y-124948081D01*
X179756973Y-124941563D01*
X179587134Y-124890043D01*
X179430609Y-124806378D01*
X179394871Y-124777048D01*
X179293414Y-124693786D01*
X179210152Y-124592329D01*
X179180822Y-124556591D01*
X179097157Y-124400066D01*
X179045637Y-124230227D01*
X179028241Y-124053600D01*
X179045637Y-123876973D01*
X179097157Y-123707134D01*
X179180822Y-123550609D01*
X179210152Y-123514871D01*
X179293414Y-123413414D01*
X179394871Y-123330152D01*
X179430609Y-123300822D01*
X179587134Y-123217157D01*
X179756973Y-123165637D01*
X179823158Y-123159118D01*
X179889340Y-123152600D01*
X179977860Y-123152600D01*
X180044042Y-123159118D01*
X180044042Y-123159118D01*
G37*
G36*
X127572425Y-123014160D02*
G01*
X127572428Y-123014161D01*
X127572429Y-123014161D01*
X127751693Y-123068540D01*
X127751696Y-123068542D01*
X127751697Y-123068542D01*
X127916903Y-123156846D01*
X128061712Y-123275688D01*
X128180554Y-123420497D01*
X128250100Y-123550609D01*
X128268860Y-123585707D01*
X128305694Y-123707134D01*
X128323240Y-123764975D01*
X128341601Y-123951400D01*
X128323240Y-124137825D01*
X128323239Y-124137828D01*
X128323239Y-124137829D01*
X128268860Y-124317093D01*
X128268858Y-124317096D01*
X128268858Y-124317097D01*
X128180554Y-124482303D01*
X128061712Y-124627112D01*
X127916903Y-124745954D01*
X127751697Y-124834258D01*
X127751693Y-124834260D01*
X127572429Y-124888639D01*
X127572428Y-124888639D01*
X127572425Y-124888640D01*
X127432718Y-124902400D01*
X125139282Y-124902400D01*
X124999575Y-124888640D01*
X124999572Y-124888639D01*
X124999571Y-124888639D01*
X124820307Y-124834260D01*
X124820303Y-124834258D01*
X124655097Y-124745954D01*
X124510288Y-124627112D01*
X124391446Y-124482303D01*
X124303142Y-124317097D01*
X124303142Y-124317096D01*
X124303140Y-124317093D01*
X124248761Y-124137829D01*
X124248761Y-124137828D01*
X124248760Y-124137825D01*
X124230399Y-123951400D01*
X124248760Y-123764975D01*
X124266306Y-123707134D01*
X124303140Y-123585707D01*
X124321900Y-123550609D01*
X124391446Y-123420497D01*
X124510288Y-123275688D01*
X124655097Y-123156846D01*
X124820303Y-123068542D01*
X124820304Y-123068542D01*
X124820307Y-123068540D01*
X124999571Y-123014161D01*
X124999572Y-123014161D01*
X124999575Y-123014160D01*
X125139282Y-123000400D01*
X127432718Y-123000400D01*
X127572425Y-123014160D01*
X127572425Y-123014160D01*
G37*
G36*
X130237000Y-121402400D02*
G01*
X128335000Y-121402400D01*
X128335000Y-116900400D01*
X130237000Y-116900400D01*
X130237000Y-121402400D01*
X130237000Y-121402400D01*
G37*
G36*
X123672425Y-117114160D02*
G01*
X123672428Y-117114161D01*
X123672429Y-117114161D01*
X123851693Y-117168540D01*
X123851696Y-117168542D01*
X123851697Y-117168542D01*
X124016903Y-117256846D01*
X124161712Y-117375688D01*
X124280554Y-117520497D01*
X124368858Y-117685703D01*
X124368860Y-117685707D01*
X124423239Y-117864971D01*
X124423240Y-117864975D01*
X124437000Y-118004682D01*
X124437000Y-120298118D01*
X124423240Y-120437825D01*
X124423239Y-120437828D01*
X124423239Y-120437829D01*
X124368860Y-120617093D01*
X124368858Y-120617096D01*
X124368858Y-120617097D01*
X124280554Y-120782303D01*
X124161712Y-120927112D01*
X124016903Y-121045954D01*
X123851696Y-121134258D01*
X123851692Y-121134260D01*
X123672428Y-121188639D01*
X123672427Y-121188639D01*
X123672424Y-121188640D01*
X123486000Y-121207001D01*
X123299575Y-121188640D01*
X123299572Y-121188639D01*
X123299571Y-121188639D01*
X123120307Y-121134260D01*
X123120303Y-121134258D01*
X122955097Y-121045954D01*
X122810288Y-120927112D01*
X122691446Y-120782303D01*
X122603142Y-120617096D01*
X122603141Y-120617093D01*
X122603140Y-120617092D01*
X122548761Y-120437828D01*
X122548761Y-120437827D01*
X122548760Y-120437824D01*
X122535000Y-120298117D01*
X122535001Y-118004682D01*
X122548761Y-117864975D01*
X122548762Y-117864971D01*
X122603141Y-117685707D01*
X122603143Y-117685703D01*
X122691447Y-117520497D01*
X122810289Y-117375688D01*
X122955098Y-117256846D01*
X123120304Y-117168542D01*
X123120305Y-117168542D01*
X123120308Y-117168540D01*
X123299572Y-117114161D01*
X123299573Y-117114161D01*
X123299576Y-117114160D01*
X123486000Y-117095799D01*
X123672425Y-117114160D01*
X123672425Y-117114160D01*
G37*
G36*
X145951934Y-115298671D02*
G01*
X145981877Y-115307754D01*
X146009465Y-115322500D01*
X146033651Y-115342349D01*
X146053500Y-115366535D01*
X146068246Y-115394123D01*
X146077329Y-115424066D01*
X146081000Y-115461340D01*
X146081000Y-119230660D01*
X146077329Y-119267934D01*
X146068246Y-119297877D01*
X146053500Y-119325465D01*
X146033651Y-119349651D01*
X146009465Y-119369500D01*
X145981877Y-119384246D01*
X145951934Y-119393329D01*
X145914660Y-119397000D01*
X143645340Y-119397000D01*
X143608066Y-119393329D01*
X143578123Y-119384246D01*
X143550535Y-119369500D01*
X143526349Y-119349651D01*
X143506500Y-119325465D01*
X143491754Y-119297877D01*
X143482671Y-119267934D01*
X143479000Y-119230660D01*
X143479000Y-115461340D01*
X143482671Y-115424066D01*
X143491754Y-115394123D01*
X143506500Y-115366535D01*
X143526349Y-115342349D01*
X143550535Y-115322500D01*
X143578123Y-115307754D01*
X143608066Y-115298671D01*
X143645340Y-115295000D01*
X145914660Y-115295000D01*
X145951934Y-115298671D01*
X145951934Y-115298671D01*
G37*
G36*
X136807934Y-115296671D02*
G01*
X136837877Y-115305754D01*
X136865465Y-115320500D01*
X136889651Y-115340349D01*
X136909500Y-115364535D01*
X136924246Y-115392123D01*
X136933329Y-115422066D01*
X136937000Y-115459340D01*
X136937000Y-119228660D01*
X136933329Y-119265934D01*
X136924246Y-119295877D01*
X136909500Y-119323465D01*
X136889651Y-119347651D01*
X136865465Y-119367500D01*
X136837877Y-119382246D01*
X136807934Y-119391329D01*
X136770660Y-119395000D01*
X134501340Y-119395000D01*
X134464066Y-119391329D01*
X134434123Y-119382246D01*
X134406535Y-119367500D01*
X134382349Y-119347651D01*
X134362500Y-119323465D01*
X134347754Y-119295877D01*
X134338671Y-119265934D01*
X134335000Y-119228660D01*
X134335000Y-115459340D01*
X134338671Y-115422066D01*
X134347754Y-115392123D01*
X134362500Y-115364535D01*
X134382349Y-115340349D01*
X134406535Y-115320500D01*
X134434123Y-115305754D01*
X134464066Y-115296671D01*
X134501340Y-115293000D01*
X136770660Y-115293000D01*
X136807934Y-115296671D01*
X136807934Y-115296671D01*
G37*
G36*
X168756674Y-117109465D02*
G01*
X168794367Y-117120899D01*
X168829103Y-117139466D01*
X168859548Y-117164452D01*
X168884534Y-117194897D01*
X168903101Y-117229633D01*
X168914535Y-117267326D01*
X168919000Y-117312661D01*
X168919000Y-118399339D01*
X168914535Y-118444674D01*
X168903101Y-118482367D01*
X168884534Y-118517103D01*
X168859548Y-118547548D01*
X168829103Y-118572534D01*
X168794367Y-118591101D01*
X168756674Y-118602535D01*
X168711339Y-118607000D01*
X167874661Y-118607000D01*
X167829326Y-118602535D01*
X167791633Y-118591101D01*
X167756897Y-118572534D01*
X167726452Y-118547548D01*
X167701466Y-118517103D01*
X167682899Y-118482367D01*
X167671465Y-118444674D01*
X167667000Y-118399339D01*
X167667000Y-117312661D01*
X167671465Y-117267326D01*
X167682899Y-117229633D01*
X167701466Y-117194897D01*
X167726452Y-117164452D01*
X167756897Y-117139466D01*
X167791633Y-117120899D01*
X167829326Y-117109465D01*
X167874661Y-117105000D01*
X168711339Y-117105000D01*
X168756674Y-117109465D01*
X168756674Y-117109465D01*
G37*
G36*
X166706674Y-117109465D02*
G01*
X166744367Y-117120899D01*
X166779103Y-117139466D01*
X166809548Y-117164452D01*
X166834534Y-117194897D01*
X166853101Y-117229633D01*
X166864535Y-117267326D01*
X166869000Y-117312661D01*
X166869000Y-118399339D01*
X166864535Y-118444674D01*
X166853101Y-118482367D01*
X166834534Y-118517103D01*
X166809548Y-118547548D01*
X166779103Y-118572534D01*
X166744367Y-118591101D01*
X166706674Y-118602535D01*
X166661339Y-118607000D01*
X165824661Y-118607000D01*
X165779326Y-118602535D01*
X165741633Y-118591101D01*
X165706897Y-118572534D01*
X165676452Y-118547548D01*
X165651466Y-118517103D01*
X165632899Y-118482367D01*
X165621465Y-118444674D01*
X165617000Y-118399339D01*
X165617000Y-117312661D01*
X165621465Y-117267326D01*
X165632899Y-117229633D01*
X165651466Y-117194897D01*
X165676452Y-117164452D01*
X165706897Y-117139466D01*
X165741633Y-117120899D01*
X165779326Y-117109465D01*
X165824661Y-117105000D01*
X166661339Y-117105000D01*
X166706674Y-117109465D01*
X166706674Y-117109465D01*
G37*
G36*
X178982823Y-113816913D02*
G01*
X179143242Y-113865576D01*
X179254487Y-113925038D01*
X179291078Y-113944596D01*
X179420659Y-114050941D01*
X179527004Y-114180522D01*
X179527005Y-114180524D01*
X179606024Y-114328358D01*
X179654687Y-114488777D01*
X179671117Y-114655600D01*
X179654687Y-114822423D01*
X179606024Y-114982842D01*
X179535114Y-115115506D01*
X179527004Y-115130678D01*
X179420659Y-115260259D01*
X179291078Y-115366604D01*
X179291076Y-115366605D01*
X179143242Y-115445624D01*
X178982823Y-115494287D01*
X178857804Y-115506600D01*
X178774196Y-115506600D01*
X178649177Y-115494287D01*
X178488758Y-115445624D01*
X178340924Y-115366605D01*
X178340922Y-115366604D01*
X178211341Y-115260259D01*
X178104996Y-115130678D01*
X178096886Y-115115506D01*
X178025976Y-114982842D01*
X177977313Y-114822423D01*
X177960883Y-114655600D01*
X177977313Y-114488777D01*
X178025976Y-114328358D01*
X178104995Y-114180524D01*
X178104996Y-114180522D01*
X178211341Y-114050941D01*
X178340922Y-113944596D01*
X178377513Y-113925038D01*
X178488758Y-113865576D01*
X178649177Y-113816913D01*
X178774196Y-113804600D01*
X178857804Y-113804600D01*
X178982823Y-113816913D01*
X178982823Y-113816913D01*
G37*
G36*
X184062823Y-113816913D02*
G01*
X184223242Y-113865576D01*
X184334487Y-113925038D01*
X184371078Y-113944596D01*
X184500659Y-114050941D01*
X184607004Y-114180522D01*
X184607005Y-114180524D01*
X184686024Y-114328358D01*
X184734687Y-114488777D01*
X184751117Y-114655600D01*
X184734687Y-114822423D01*
X184686024Y-114982842D01*
X184615114Y-115115506D01*
X184607004Y-115130678D01*
X184500659Y-115260259D01*
X184371078Y-115366604D01*
X184371076Y-115366605D01*
X184223242Y-115445624D01*
X184062823Y-115494287D01*
X183937804Y-115506600D01*
X183854196Y-115506600D01*
X183729177Y-115494287D01*
X183568758Y-115445624D01*
X183420924Y-115366605D01*
X183420922Y-115366604D01*
X183291341Y-115260259D01*
X183184996Y-115130678D01*
X183176886Y-115115506D01*
X183105976Y-114982842D01*
X183057313Y-114822423D01*
X183040883Y-114655600D01*
X183057313Y-114488777D01*
X183105976Y-114328358D01*
X183184995Y-114180524D01*
X183184996Y-114180522D01*
X183291341Y-114050941D01*
X183420922Y-113944596D01*
X183457513Y-113925038D01*
X183568758Y-113865576D01*
X183729177Y-113816913D01*
X183854196Y-113804600D01*
X183937804Y-113804600D01*
X184062823Y-113816913D01*
X184062823Y-113816913D01*
G37*
G36*
X181522823Y-113816913D02*
G01*
X181683242Y-113865576D01*
X181794487Y-113925038D01*
X181831078Y-113944596D01*
X181960659Y-114050941D01*
X182067004Y-114180522D01*
X182067005Y-114180524D01*
X182146024Y-114328358D01*
X182194687Y-114488777D01*
X182211117Y-114655600D01*
X182194687Y-114822423D01*
X182146024Y-114982842D01*
X182075114Y-115115506D01*
X182067004Y-115130678D01*
X181960659Y-115260259D01*
X181831078Y-115366604D01*
X181831076Y-115366605D01*
X181683242Y-115445624D01*
X181522823Y-115494287D01*
X181397804Y-115506600D01*
X181314196Y-115506600D01*
X181189177Y-115494287D01*
X181028758Y-115445624D01*
X180880924Y-115366605D01*
X180880922Y-115366604D01*
X180751341Y-115260259D01*
X180644996Y-115130678D01*
X180636886Y-115115506D01*
X180565976Y-114982842D01*
X180517313Y-114822423D01*
X180500883Y-114655600D01*
X180517313Y-114488777D01*
X180565976Y-114328358D01*
X180644995Y-114180524D01*
X180644996Y-114180522D01*
X180751341Y-114050941D01*
X180880922Y-113944596D01*
X180917513Y-113925038D01*
X181028758Y-113865576D01*
X181189177Y-113816913D01*
X181314196Y-113804600D01*
X181397804Y-113804600D01*
X181522823Y-113816913D01*
X181522823Y-113816913D01*
G37*
G36*
X176442823Y-113816913D02*
G01*
X176603242Y-113865576D01*
X176714487Y-113925038D01*
X176751078Y-113944596D01*
X176880659Y-114050941D01*
X176987004Y-114180522D01*
X176987005Y-114180524D01*
X177066024Y-114328358D01*
X177114687Y-114488777D01*
X177131117Y-114655600D01*
X177114687Y-114822423D01*
X177066024Y-114982842D01*
X176995114Y-115115506D01*
X176987004Y-115130678D01*
X176880659Y-115260259D01*
X176751078Y-115366604D01*
X176751076Y-115366605D01*
X176603242Y-115445624D01*
X176442823Y-115494287D01*
X176317804Y-115506600D01*
X176234196Y-115506600D01*
X176109177Y-115494287D01*
X175948758Y-115445624D01*
X175800924Y-115366605D01*
X175800922Y-115366604D01*
X175671341Y-115260259D01*
X175564996Y-115130678D01*
X175556886Y-115115506D01*
X175485976Y-114982842D01*
X175437313Y-114822423D01*
X175420883Y-114655600D01*
X175437313Y-114488777D01*
X175485976Y-114328358D01*
X175564995Y-114180524D01*
X175564996Y-114180522D01*
X175671341Y-114050941D01*
X175800922Y-113944596D01*
X175837513Y-113925038D01*
X175948758Y-113865576D01*
X176109177Y-113816913D01*
X176234196Y-113804600D01*
X176317804Y-113804600D01*
X176442823Y-113816913D01*
X176442823Y-113816913D01*
G37*
G36*
X173902823Y-113816913D02*
G01*
X174063242Y-113865576D01*
X174174487Y-113925038D01*
X174211078Y-113944596D01*
X174340659Y-114050941D01*
X174447004Y-114180522D01*
X174447005Y-114180524D01*
X174526024Y-114328358D01*
X174574687Y-114488777D01*
X174591117Y-114655600D01*
X174574687Y-114822423D01*
X174526024Y-114982842D01*
X174455114Y-115115506D01*
X174447004Y-115130678D01*
X174340659Y-115260259D01*
X174211078Y-115366604D01*
X174211076Y-115366605D01*
X174063242Y-115445624D01*
X173902823Y-115494287D01*
X173777804Y-115506600D01*
X173694196Y-115506600D01*
X173569177Y-115494287D01*
X173408758Y-115445624D01*
X173260924Y-115366605D01*
X173260922Y-115366604D01*
X173131341Y-115260259D01*
X173024996Y-115130678D01*
X173016886Y-115115506D01*
X172945976Y-114982842D01*
X172897313Y-114822423D01*
X172880883Y-114655600D01*
X172897313Y-114488777D01*
X172945976Y-114328358D01*
X173024995Y-114180524D01*
X173024996Y-114180522D01*
X173131341Y-114050941D01*
X173260922Y-113944596D01*
X173297513Y-113925038D01*
X173408758Y-113865576D01*
X173569177Y-113816913D01*
X173694196Y-113804600D01*
X173777804Y-113804600D01*
X173902823Y-113816913D01*
X173902823Y-113816913D01*
G37*
G36*
X171362823Y-113816913D02*
G01*
X171523242Y-113865576D01*
X171634487Y-113925038D01*
X171671078Y-113944596D01*
X171800659Y-114050941D01*
X171907004Y-114180522D01*
X171907005Y-114180524D01*
X171986024Y-114328358D01*
X172034687Y-114488777D01*
X172051117Y-114655600D01*
X172034687Y-114822423D01*
X171986024Y-114982842D01*
X171915114Y-115115506D01*
X171907004Y-115130678D01*
X171800659Y-115260259D01*
X171671078Y-115366604D01*
X171671076Y-115366605D01*
X171523242Y-115445624D01*
X171362823Y-115494287D01*
X171237804Y-115506600D01*
X171154196Y-115506600D01*
X171029177Y-115494287D01*
X170868758Y-115445624D01*
X170720924Y-115366605D01*
X170720922Y-115366604D01*
X170591341Y-115260259D01*
X170484996Y-115130678D01*
X170476886Y-115115506D01*
X170405976Y-114982842D01*
X170357313Y-114822423D01*
X170340883Y-114655600D01*
X170357313Y-114488777D01*
X170405976Y-114328358D01*
X170484995Y-114180524D01*
X170484996Y-114180522D01*
X170591341Y-114050941D01*
X170720922Y-113944596D01*
X170757513Y-113925038D01*
X170868758Y-113865576D01*
X171029177Y-113816913D01*
X171154196Y-113804600D01*
X171237804Y-113804600D01*
X171362823Y-113816913D01*
X171362823Y-113816913D01*
G37*
G36*
X168822823Y-113816913D02*
G01*
X168983242Y-113865576D01*
X169094487Y-113925038D01*
X169131078Y-113944596D01*
X169260659Y-114050941D01*
X169367004Y-114180522D01*
X169367005Y-114180524D01*
X169446024Y-114328358D01*
X169494687Y-114488777D01*
X169511117Y-114655600D01*
X169494687Y-114822423D01*
X169446024Y-114982842D01*
X169375114Y-115115506D01*
X169367004Y-115130678D01*
X169260659Y-115260259D01*
X169131078Y-115366604D01*
X169131076Y-115366605D01*
X168983242Y-115445624D01*
X168822823Y-115494287D01*
X168697804Y-115506600D01*
X168614196Y-115506600D01*
X168489177Y-115494287D01*
X168328758Y-115445624D01*
X168180924Y-115366605D01*
X168180922Y-115366604D01*
X168051341Y-115260259D01*
X167944996Y-115130678D01*
X167936886Y-115115506D01*
X167865976Y-114982842D01*
X167817313Y-114822423D01*
X167800883Y-114655600D01*
X167817313Y-114488777D01*
X167865976Y-114328358D01*
X167944995Y-114180524D01*
X167944996Y-114180522D01*
X168051341Y-114050941D01*
X168180922Y-113944596D01*
X168217513Y-113925038D01*
X168328758Y-113865576D01*
X168489177Y-113816913D01*
X168614196Y-113804600D01*
X168697804Y-113804600D01*
X168822823Y-113816913D01*
X168822823Y-113816913D01*
G37*
G36*
X166282823Y-113816913D02*
G01*
X166443242Y-113865576D01*
X166554487Y-113925038D01*
X166591078Y-113944596D01*
X166720659Y-114050941D01*
X166827004Y-114180522D01*
X166827005Y-114180524D01*
X166906024Y-114328358D01*
X166954687Y-114488777D01*
X166971117Y-114655600D01*
X166954687Y-114822423D01*
X166906024Y-114982842D01*
X166835114Y-115115506D01*
X166827004Y-115130678D01*
X166720659Y-115260259D01*
X166591078Y-115366604D01*
X166591076Y-115366605D01*
X166443242Y-115445624D01*
X166282823Y-115494287D01*
X166157804Y-115506600D01*
X166074196Y-115506600D01*
X165949177Y-115494287D01*
X165788758Y-115445624D01*
X165640924Y-115366605D01*
X165640922Y-115366604D01*
X165511341Y-115260259D01*
X165404996Y-115130678D01*
X165396886Y-115115506D01*
X165325976Y-114982842D01*
X165277313Y-114822423D01*
X165260883Y-114655600D01*
X165277313Y-114488777D01*
X165325976Y-114328358D01*
X165404995Y-114180524D01*
X165404996Y-114180522D01*
X165511341Y-114050941D01*
X165640922Y-113944596D01*
X165677513Y-113925038D01*
X165788758Y-113865576D01*
X165949177Y-113816913D01*
X166074196Y-113804600D01*
X166157804Y-113804600D01*
X166282823Y-113816913D01*
X166282823Y-113816913D01*
G37*
G36*
X163742823Y-113816913D02*
G01*
X163903242Y-113865576D01*
X164014487Y-113925038D01*
X164051078Y-113944596D01*
X164180659Y-114050941D01*
X164287004Y-114180522D01*
X164287005Y-114180524D01*
X164366024Y-114328358D01*
X164414687Y-114488777D01*
X164431117Y-114655600D01*
X164414687Y-114822423D01*
X164366024Y-114982842D01*
X164295114Y-115115506D01*
X164287004Y-115130678D01*
X164180659Y-115260259D01*
X164051078Y-115366604D01*
X164051076Y-115366605D01*
X163903242Y-115445624D01*
X163742823Y-115494287D01*
X163617804Y-115506600D01*
X163534196Y-115506600D01*
X163409177Y-115494287D01*
X163248758Y-115445624D01*
X163100924Y-115366605D01*
X163100922Y-115366604D01*
X162971341Y-115260259D01*
X162864996Y-115130678D01*
X162856886Y-115115506D01*
X162785976Y-114982842D01*
X162737313Y-114822423D01*
X162720883Y-114655600D01*
X162737313Y-114488777D01*
X162785976Y-114328358D01*
X162864995Y-114180524D01*
X162864996Y-114180522D01*
X162971341Y-114050941D01*
X163100922Y-113944596D01*
X163137513Y-113925038D01*
X163248758Y-113865576D01*
X163409177Y-113816913D01*
X163534196Y-113804600D01*
X163617804Y-113804600D01*
X163742823Y-113816913D01*
X163742823Y-113816913D01*
G37*
G36*
X161202823Y-113816913D02*
G01*
X161363242Y-113865576D01*
X161474487Y-113925038D01*
X161511078Y-113944596D01*
X161640659Y-114050941D01*
X161747004Y-114180522D01*
X161747005Y-114180524D01*
X161826024Y-114328358D01*
X161874687Y-114488777D01*
X161891117Y-114655600D01*
X161874687Y-114822423D01*
X161826024Y-114982842D01*
X161755114Y-115115506D01*
X161747004Y-115130678D01*
X161640659Y-115260259D01*
X161511078Y-115366604D01*
X161511076Y-115366605D01*
X161363242Y-115445624D01*
X161202823Y-115494287D01*
X161077804Y-115506600D01*
X160994196Y-115506600D01*
X160869177Y-115494287D01*
X160708758Y-115445624D01*
X160560924Y-115366605D01*
X160560922Y-115366604D01*
X160431341Y-115260259D01*
X160324996Y-115130678D01*
X160316886Y-115115506D01*
X160245976Y-114982842D01*
X160197313Y-114822423D01*
X160180883Y-114655600D01*
X160197313Y-114488777D01*
X160245976Y-114328358D01*
X160324995Y-114180524D01*
X160324996Y-114180522D01*
X160431341Y-114050941D01*
X160560922Y-113944596D01*
X160597513Y-113925038D01*
X160708758Y-113865576D01*
X160869177Y-113816913D01*
X160994196Y-113804600D01*
X161077804Y-113804600D01*
X161202823Y-113816913D01*
X161202823Y-113816913D01*
G37*
G36*
X158662823Y-113816913D02*
G01*
X158823242Y-113865576D01*
X158934487Y-113925038D01*
X158971078Y-113944596D01*
X159100659Y-114050941D01*
X159207004Y-114180522D01*
X159207005Y-114180524D01*
X159286024Y-114328358D01*
X159334687Y-114488777D01*
X159351117Y-114655600D01*
X159334687Y-114822423D01*
X159286024Y-114982842D01*
X159215114Y-115115506D01*
X159207004Y-115130678D01*
X159100659Y-115260259D01*
X158971078Y-115366604D01*
X158971076Y-115366605D01*
X158823242Y-115445624D01*
X158662823Y-115494287D01*
X158537804Y-115506600D01*
X158454196Y-115506600D01*
X158329177Y-115494287D01*
X158168758Y-115445624D01*
X158020924Y-115366605D01*
X158020922Y-115366604D01*
X157891341Y-115260259D01*
X157784996Y-115130678D01*
X157776886Y-115115506D01*
X157705976Y-114982842D01*
X157657313Y-114822423D01*
X157640883Y-114655600D01*
X157657313Y-114488777D01*
X157705976Y-114328358D01*
X157784995Y-114180524D01*
X157784996Y-114180522D01*
X157891341Y-114050941D01*
X158020922Y-113944596D01*
X158057513Y-113925038D01*
X158168758Y-113865576D01*
X158329177Y-113816913D01*
X158454196Y-113804600D01*
X158537804Y-113804600D01*
X158662823Y-113816913D01*
X158662823Y-113816913D01*
G37*
G36*
X156122823Y-113816913D02*
G01*
X156283242Y-113865576D01*
X156394487Y-113925038D01*
X156431078Y-113944596D01*
X156560659Y-114050941D01*
X156667004Y-114180522D01*
X156667005Y-114180524D01*
X156746024Y-114328358D01*
X156794687Y-114488777D01*
X156811117Y-114655600D01*
X156794687Y-114822423D01*
X156746024Y-114982842D01*
X156675114Y-115115506D01*
X156667004Y-115130678D01*
X156560659Y-115260259D01*
X156431078Y-115366604D01*
X156431076Y-115366605D01*
X156283242Y-115445624D01*
X156122823Y-115494287D01*
X155997804Y-115506600D01*
X155914196Y-115506600D01*
X155789177Y-115494287D01*
X155628758Y-115445624D01*
X155480924Y-115366605D01*
X155480922Y-115366604D01*
X155351341Y-115260259D01*
X155244996Y-115130678D01*
X155236886Y-115115506D01*
X155165976Y-114982842D01*
X155117313Y-114822423D01*
X155100883Y-114655600D01*
X155117313Y-114488777D01*
X155165976Y-114328358D01*
X155244995Y-114180524D01*
X155244996Y-114180522D01*
X155351341Y-114050941D01*
X155480922Y-113944596D01*
X155517513Y-113925038D01*
X155628758Y-113865576D01*
X155789177Y-113816913D01*
X155914196Y-113804600D01*
X155997804Y-113804600D01*
X156122823Y-113816913D01*
X156122823Y-113816913D01*
G37*
G36*
X153582823Y-113816913D02*
G01*
X153743242Y-113865576D01*
X153854487Y-113925038D01*
X153891078Y-113944596D01*
X154020659Y-114050941D01*
X154127004Y-114180522D01*
X154127005Y-114180524D01*
X154206024Y-114328358D01*
X154254687Y-114488777D01*
X154271117Y-114655600D01*
X154254687Y-114822423D01*
X154206024Y-114982842D01*
X154135114Y-115115506D01*
X154127004Y-115130678D01*
X154020659Y-115260259D01*
X153891078Y-115366604D01*
X153891076Y-115366605D01*
X153743242Y-115445624D01*
X153582823Y-115494287D01*
X153457804Y-115506600D01*
X153374196Y-115506600D01*
X153249177Y-115494287D01*
X153088758Y-115445624D01*
X152940924Y-115366605D01*
X152940922Y-115366604D01*
X152811341Y-115260259D01*
X152704996Y-115130678D01*
X152696886Y-115115506D01*
X152625976Y-114982842D01*
X152577313Y-114822423D01*
X152560883Y-114655600D01*
X152577313Y-114488777D01*
X152625976Y-114328358D01*
X152704995Y-114180524D01*
X152704996Y-114180522D01*
X152811341Y-114050941D01*
X152940922Y-113944596D01*
X152977513Y-113925038D01*
X153088758Y-113865576D01*
X153249177Y-113816913D01*
X153374196Y-113804600D01*
X153457804Y-113804600D01*
X153582823Y-113816913D01*
X153582823Y-113816913D01*
G37*
G36*
X151042823Y-113816913D02*
G01*
X151203242Y-113865576D01*
X151314487Y-113925038D01*
X151351078Y-113944596D01*
X151480659Y-114050941D01*
X151587004Y-114180522D01*
X151587005Y-114180524D01*
X151666024Y-114328358D01*
X151714687Y-114488777D01*
X151731117Y-114655600D01*
X151714687Y-114822423D01*
X151666024Y-114982842D01*
X151595114Y-115115506D01*
X151587004Y-115130678D01*
X151480659Y-115260259D01*
X151351078Y-115366604D01*
X151351076Y-115366605D01*
X151203242Y-115445624D01*
X151042823Y-115494287D01*
X150917804Y-115506600D01*
X150834196Y-115506600D01*
X150709177Y-115494287D01*
X150548758Y-115445624D01*
X150400924Y-115366605D01*
X150400922Y-115366604D01*
X150271341Y-115260259D01*
X150164996Y-115130678D01*
X150156886Y-115115506D01*
X150085976Y-114982842D01*
X150037313Y-114822423D01*
X150020883Y-114655600D01*
X150037313Y-114488777D01*
X150085976Y-114328358D01*
X150164995Y-114180524D01*
X150164996Y-114180522D01*
X150271341Y-114050941D01*
X150400922Y-113944596D01*
X150437513Y-113925038D01*
X150548758Y-113865576D01*
X150709177Y-113816913D01*
X150834196Y-113804600D01*
X150917804Y-113804600D01*
X151042823Y-113816913D01*
X151042823Y-113816913D01*
G37*
G36*
X145377674Y-112798465D02*
G01*
X145415367Y-112809899D01*
X145450103Y-112828466D01*
X145480548Y-112853452D01*
X145505534Y-112883897D01*
X145524101Y-112918633D01*
X145535535Y-112956326D01*
X145540000Y-113001661D01*
X145540000Y-113838339D01*
X145535535Y-113883674D01*
X145524101Y-113921367D01*
X145505534Y-113956103D01*
X145480548Y-113986548D01*
X145450103Y-114011534D01*
X145415367Y-114030101D01*
X145377674Y-114041535D01*
X145332339Y-114046000D01*
X144245661Y-114046000D01*
X144200326Y-114041535D01*
X144162633Y-114030101D01*
X144127897Y-114011534D01*
X144097452Y-113986548D01*
X144072466Y-113956103D01*
X144053899Y-113921367D01*
X144042465Y-113883674D01*
X144038000Y-113838339D01*
X144038000Y-113001661D01*
X144042465Y-112956326D01*
X144053899Y-112918633D01*
X144072466Y-112883897D01*
X144097452Y-112853452D01*
X144127897Y-112828466D01*
X144162633Y-112809899D01*
X144200326Y-112798465D01*
X144245661Y-112794000D01*
X145332339Y-112794000D01*
X145377674Y-112798465D01*
X145377674Y-112798465D01*
G37*
G36*
X142009000Y-113219000D02*
G01*
X138407000Y-113219000D01*
X138407000Y-111317000D01*
X142009000Y-111317000D01*
X142009000Y-113219000D01*
X142009000Y-113219000D01*
G37*
G36*
X137009000Y-113219000D02*
G01*
X133407000Y-113219000D01*
X133407000Y-111317000D01*
X137009000Y-111317000D01*
X137009000Y-113219000D01*
X137009000Y-113219000D01*
G37*
G36*
X126627000Y-112171000D02*
G01*
X120125000Y-112171000D01*
X120125000Y-106269000D01*
X126627000Y-106269000D01*
X126627000Y-112171000D01*
X126627000Y-112171000D01*
G37*
G36*
X130827000Y-112151000D02*
G01*
X128525000Y-112151000D01*
X128525000Y-110849000D01*
X130827000Y-110849000D01*
X130827000Y-112151000D01*
X130827000Y-112151000D01*
G37*
G36*
X145377674Y-110748465D02*
G01*
X145415367Y-110759899D01*
X145450103Y-110778466D01*
X145480548Y-110803452D01*
X145505534Y-110833897D01*
X145524101Y-110868633D01*
X145535535Y-110906326D01*
X145540000Y-110951661D01*
X145540000Y-111788339D01*
X145535535Y-111833674D01*
X145524101Y-111871367D01*
X145505534Y-111906103D01*
X145480548Y-111936548D01*
X145450103Y-111961534D01*
X145415367Y-111980101D01*
X145377674Y-111991535D01*
X145332339Y-111996000D01*
X144245661Y-111996000D01*
X144200326Y-111991535D01*
X144162633Y-111980101D01*
X144127897Y-111961534D01*
X144097452Y-111936548D01*
X144072466Y-111906103D01*
X144053899Y-111871367D01*
X144042465Y-111833674D01*
X144038000Y-111788339D01*
X144038000Y-110951661D01*
X144042465Y-110906326D01*
X144053899Y-110868633D01*
X144072466Y-110833897D01*
X144097452Y-110803452D01*
X144127897Y-110778466D01*
X144162633Y-110759899D01*
X144200326Y-110748465D01*
X144245661Y-110744000D01*
X145332339Y-110744000D01*
X145377674Y-110748465D01*
X145377674Y-110748465D01*
G37*
G36*
X139451928Y-107951764D02*
G01*
X139473009Y-107958160D01*
X139492445Y-107968548D01*
X139509476Y-107982524D01*
X139523452Y-107999555D01*
X139533840Y-108018991D01*
X139540236Y-108040072D01*
X139543000Y-108068140D01*
X139543000Y-109531860D01*
X139540236Y-109559928D01*
X139533840Y-109581009D01*
X139523452Y-109600445D01*
X139509476Y-109617476D01*
X139492445Y-109631452D01*
X139473009Y-109641840D01*
X139451928Y-109648236D01*
X139423860Y-109651000D01*
X138960140Y-109651000D01*
X138932072Y-109648236D01*
X138910991Y-109641840D01*
X138891555Y-109631452D01*
X138874524Y-109617476D01*
X138860548Y-109600445D01*
X138850160Y-109581009D01*
X138843764Y-109559928D01*
X138841000Y-109531860D01*
X138841000Y-108068140D01*
X138843764Y-108040072D01*
X138850160Y-108018991D01*
X138860548Y-107999555D01*
X138874524Y-107982524D01*
X138891555Y-107968548D01*
X138910991Y-107958160D01*
X138932072Y-107951764D01*
X138960140Y-107949000D01*
X139423860Y-107949000D01*
X139451928Y-107951764D01*
X139451928Y-107951764D01*
G37*
G36*
X138181928Y-107951764D02*
G01*
X138203009Y-107958160D01*
X138222445Y-107968548D01*
X138239476Y-107982524D01*
X138253452Y-107999555D01*
X138263840Y-108018991D01*
X138270236Y-108040072D01*
X138273000Y-108068140D01*
X138273000Y-109531860D01*
X138270236Y-109559928D01*
X138263840Y-109581009D01*
X138253452Y-109600445D01*
X138239476Y-109617476D01*
X138222445Y-109631452D01*
X138203009Y-109641840D01*
X138181928Y-109648236D01*
X138153860Y-109651000D01*
X137690140Y-109651000D01*
X137662072Y-109648236D01*
X137640991Y-109641840D01*
X137621555Y-109631452D01*
X137604524Y-109617476D01*
X137590548Y-109600445D01*
X137580160Y-109581009D01*
X137573764Y-109559928D01*
X137571000Y-109531860D01*
X137571000Y-108068140D01*
X137573764Y-108040072D01*
X137580160Y-108018991D01*
X137590548Y-107999555D01*
X137604524Y-107982524D01*
X137621555Y-107968548D01*
X137640991Y-107958160D01*
X137662072Y-107951764D01*
X137690140Y-107949000D01*
X138153860Y-107949000D01*
X138181928Y-107951764D01*
X138181928Y-107951764D01*
G37*
G36*
X135641928Y-107951764D02*
G01*
X135663009Y-107958160D01*
X135682445Y-107968548D01*
X135699476Y-107982524D01*
X135713452Y-107999555D01*
X135723840Y-108018991D01*
X135730236Y-108040072D01*
X135733000Y-108068140D01*
X135733000Y-109531860D01*
X135730236Y-109559928D01*
X135723840Y-109581009D01*
X135713452Y-109600445D01*
X135699476Y-109617476D01*
X135682445Y-109631452D01*
X135663009Y-109641840D01*
X135641928Y-109648236D01*
X135613860Y-109651000D01*
X135150140Y-109651000D01*
X135122072Y-109648236D01*
X135100991Y-109641840D01*
X135081555Y-109631452D01*
X135064524Y-109617476D01*
X135050548Y-109600445D01*
X135040160Y-109581009D01*
X135033764Y-109559928D01*
X135031000Y-109531860D01*
X135031000Y-108068140D01*
X135033764Y-108040072D01*
X135040160Y-108018991D01*
X135050548Y-107999555D01*
X135064524Y-107982524D01*
X135081555Y-107968548D01*
X135100991Y-107958160D01*
X135122072Y-107951764D01*
X135150140Y-107949000D01*
X135613860Y-107949000D01*
X135641928Y-107951764D01*
X135641928Y-107951764D01*
G37*
G36*
X136911928Y-107951764D02*
G01*
X136933009Y-107958160D01*
X136952445Y-107968548D01*
X136969476Y-107982524D01*
X136983452Y-107999555D01*
X136993840Y-108018991D01*
X137000236Y-108040072D01*
X137003000Y-108068140D01*
X137003000Y-109531860D01*
X137000236Y-109559928D01*
X136993840Y-109581009D01*
X136983452Y-109600445D01*
X136969476Y-109617476D01*
X136952445Y-109631452D01*
X136933009Y-109641840D01*
X136911928Y-109648236D01*
X136883860Y-109651000D01*
X136420140Y-109651000D01*
X136392072Y-109648236D01*
X136370991Y-109641840D01*
X136351555Y-109631452D01*
X136334524Y-109617476D01*
X136320548Y-109600445D01*
X136310160Y-109581009D01*
X136303764Y-109559928D01*
X136301000Y-109531860D01*
X136301000Y-108068140D01*
X136303764Y-108040072D01*
X136310160Y-108018991D01*
X136320548Y-107999555D01*
X136334524Y-107982524D01*
X136351555Y-107968548D01*
X136370991Y-107958160D01*
X136392072Y-107951764D01*
X136420140Y-107949000D01*
X136883860Y-107949000D01*
X136911928Y-107951764D01*
X136911928Y-107951764D01*
G37*
G36*
X142320674Y-108344465D02*
G01*
X142358367Y-108355899D01*
X142393103Y-108374466D01*
X142423548Y-108399452D01*
X142448534Y-108429897D01*
X142467101Y-108464633D01*
X142478535Y-108502326D01*
X142483000Y-108547661D01*
X142483000Y-109384339D01*
X142478535Y-109429674D01*
X142467101Y-109467367D01*
X142448534Y-109502103D01*
X142423548Y-109532548D01*
X142393103Y-109557534D01*
X142358367Y-109576101D01*
X142320674Y-109587535D01*
X142275339Y-109592000D01*
X141188661Y-109592000D01*
X141143326Y-109587535D01*
X141105633Y-109576101D01*
X141070897Y-109557534D01*
X141040452Y-109532548D01*
X141015466Y-109502103D01*
X140996899Y-109467367D01*
X140985465Y-109429674D01*
X140981000Y-109384339D01*
X140981000Y-108547661D01*
X140985465Y-108502326D01*
X140996899Y-108464633D01*
X141015466Y-108429897D01*
X141040452Y-108399452D01*
X141070897Y-108374466D01*
X141105633Y-108355899D01*
X141143326Y-108344465D01*
X141188661Y-108340000D01*
X142275339Y-108340000D01*
X142320674Y-108344465D01*
X142320674Y-108344465D01*
G37*
G36*
X163742823Y-106196913D02*
G01*
X163903242Y-106245576D01*
X163996138Y-106295230D01*
X164051078Y-106324596D01*
X164180659Y-106430941D01*
X164287004Y-106560522D01*
X164287005Y-106560524D01*
X164366024Y-106708358D01*
X164414687Y-106868777D01*
X164431117Y-107035600D01*
X164414687Y-107202423D01*
X164366024Y-107362842D01*
X164318313Y-107452103D01*
X164287004Y-107510678D01*
X164180659Y-107640259D01*
X164051078Y-107746604D01*
X164051076Y-107746605D01*
X163903242Y-107825624D01*
X163742823Y-107874287D01*
X163617804Y-107886600D01*
X163534196Y-107886600D01*
X163409177Y-107874287D01*
X163248758Y-107825624D01*
X163100924Y-107746605D01*
X163100922Y-107746604D01*
X162971341Y-107640259D01*
X162864996Y-107510678D01*
X162833687Y-107452103D01*
X162785976Y-107362842D01*
X162737313Y-107202423D01*
X162720883Y-107035600D01*
X162737313Y-106868777D01*
X162785976Y-106708358D01*
X162864995Y-106560524D01*
X162864996Y-106560522D01*
X162971341Y-106430941D01*
X163100922Y-106324596D01*
X163155862Y-106295230D01*
X163248758Y-106245576D01*
X163409177Y-106196913D01*
X163534196Y-106184600D01*
X163617804Y-106184600D01*
X163742823Y-106196913D01*
X163742823Y-106196913D01*
G37*
G36*
X161202823Y-106196913D02*
G01*
X161363242Y-106245576D01*
X161456138Y-106295230D01*
X161511078Y-106324596D01*
X161640659Y-106430941D01*
X161747004Y-106560522D01*
X161747005Y-106560524D01*
X161826024Y-106708358D01*
X161874687Y-106868777D01*
X161891117Y-107035600D01*
X161874687Y-107202423D01*
X161826024Y-107362842D01*
X161778313Y-107452103D01*
X161747004Y-107510678D01*
X161640659Y-107640259D01*
X161511078Y-107746604D01*
X161511076Y-107746605D01*
X161363242Y-107825624D01*
X161202823Y-107874287D01*
X161077804Y-107886600D01*
X160994196Y-107886600D01*
X160869177Y-107874287D01*
X160708758Y-107825624D01*
X160560924Y-107746605D01*
X160560922Y-107746604D01*
X160431341Y-107640259D01*
X160324996Y-107510678D01*
X160293687Y-107452103D01*
X160245976Y-107362842D01*
X160197313Y-107202423D01*
X160180883Y-107035600D01*
X160197313Y-106868777D01*
X160245976Y-106708358D01*
X160324995Y-106560524D01*
X160324996Y-106560522D01*
X160431341Y-106430941D01*
X160560922Y-106324596D01*
X160615862Y-106295230D01*
X160708758Y-106245576D01*
X160869177Y-106196913D01*
X160994196Y-106184600D01*
X161077804Y-106184600D01*
X161202823Y-106196913D01*
X161202823Y-106196913D01*
G37*
G36*
X178982823Y-106196913D02*
G01*
X179143242Y-106245576D01*
X179236138Y-106295230D01*
X179291078Y-106324596D01*
X179420659Y-106430941D01*
X179527004Y-106560522D01*
X179527005Y-106560524D01*
X179606024Y-106708358D01*
X179654687Y-106868777D01*
X179671117Y-107035600D01*
X179654687Y-107202423D01*
X179606024Y-107362842D01*
X179558313Y-107452103D01*
X179527004Y-107510678D01*
X179420659Y-107640259D01*
X179291078Y-107746604D01*
X179291076Y-107746605D01*
X179143242Y-107825624D01*
X178982823Y-107874287D01*
X178857804Y-107886600D01*
X178774196Y-107886600D01*
X178649177Y-107874287D01*
X178488758Y-107825624D01*
X178340924Y-107746605D01*
X178340922Y-107746604D01*
X178211341Y-107640259D01*
X178104996Y-107510678D01*
X178073687Y-107452103D01*
X178025976Y-107362842D01*
X177977313Y-107202423D01*
X177960883Y-107035600D01*
X177977313Y-106868777D01*
X178025976Y-106708358D01*
X178104995Y-106560524D01*
X178104996Y-106560522D01*
X178211341Y-106430941D01*
X178340922Y-106324596D01*
X178395862Y-106295230D01*
X178488758Y-106245576D01*
X178649177Y-106196913D01*
X178774196Y-106184600D01*
X178857804Y-106184600D01*
X178982823Y-106196913D01*
X178982823Y-106196913D01*
G37*
G36*
X168822823Y-106196913D02*
G01*
X168983242Y-106245576D01*
X169076138Y-106295230D01*
X169131078Y-106324596D01*
X169260659Y-106430941D01*
X169367004Y-106560522D01*
X169367005Y-106560524D01*
X169446024Y-106708358D01*
X169494687Y-106868777D01*
X169511117Y-107035600D01*
X169494687Y-107202423D01*
X169446024Y-107362842D01*
X169398313Y-107452103D01*
X169367004Y-107510678D01*
X169260659Y-107640259D01*
X169131078Y-107746604D01*
X169131076Y-107746605D01*
X168983242Y-107825624D01*
X168822823Y-107874287D01*
X168697804Y-107886600D01*
X168614196Y-107886600D01*
X168489177Y-107874287D01*
X168328758Y-107825624D01*
X168180924Y-107746605D01*
X168180922Y-107746604D01*
X168051341Y-107640259D01*
X167944996Y-107510678D01*
X167913687Y-107452103D01*
X167865976Y-107362842D01*
X167817313Y-107202423D01*
X167800883Y-107035600D01*
X167817313Y-106868777D01*
X167865976Y-106708358D01*
X167944995Y-106560524D01*
X167944996Y-106560522D01*
X168051341Y-106430941D01*
X168180922Y-106324596D01*
X168235862Y-106295230D01*
X168328758Y-106245576D01*
X168489177Y-106196913D01*
X168614196Y-106184600D01*
X168697804Y-106184600D01*
X168822823Y-106196913D01*
X168822823Y-106196913D01*
G37*
G36*
X151042823Y-106196913D02*
G01*
X151203242Y-106245576D01*
X151296138Y-106295230D01*
X151351078Y-106324596D01*
X151480659Y-106430941D01*
X151587004Y-106560522D01*
X151587005Y-106560524D01*
X151666024Y-106708358D01*
X151714687Y-106868777D01*
X151731117Y-107035600D01*
X151714687Y-107202423D01*
X151666024Y-107362842D01*
X151618313Y-107452103D01*
X151587004Y-107510678D01*
X151480659Y-107640259D01*
X151351078Y-107746604D01*
X151351076Y-107746605D01*
X151203242Y-107825624D01*
X151042823Y-107874287D01*
X150917804Y-107886600D01*
X150834196Y-107886600D01*
X150709177Y-107874287D01*
X150548758Y-107825624D01*
X150400924Y-107746605D01*
X150400922Y-107746604D01*
X150271341Y-107640259D01*
X150164996Y-107510678D01*
X150133687Y-107452103D01*
X150085976Y-107362842D01*
X150037313Y-107202423D01*
X150020883Y-107035600D01*
X150037313Y-106868777D01*
X150085976Y-106708358D01*
X150164995Y-106560524D01*
X150164996Y-106560522D01*
X150271341Y-106430941D01*
X150400922Y-106324596D01*
X150455862Y-106295230D01*
X150548758Y-106245576D01*
X150709177Y-106196913D01*
X150834196Y-106184600D01*
X150917804Y-106184600D01*
X151042823Y-106196913D01*
X151042823Y-106196913D01*
G37*
G36*
X176442823Y-106196913D02*
G01*
X176603242Y-106245576D01*
X176696138Y-106295230D01*
X176751078Y-106324596D01*
X176880659Y-106430941D01*
X176987004Y-106560522D01*
X176987005Y-106560524D01*
X177066024Y-106708358D01*
X177114687Y-106868777D01*
X177131117Y-107035600D01*
X177114687Y-107202423D01*
X177066024Y-107362842D01*
X177018313Y-107452103D01*
X176987004Y-107510678D01*
X176880659Y-107640259D01*
X176751078Y-107746604D01*
X176751076Y-107746605D01*
X176603242Y-107825624D01*
X176442823Y-107874287D01*
X176317804Y-107886600D01*
X176234196Y-107886600D01*
X176109177Y-107874287D01*
X175948758Y-107825624D01*
X175800924Y-107746605D01*
X175800922Y-107746604D01*
X175671341Y-107640259D01*
X175564996Y-107510678D01*
X175533687Y-107452103D01*
X175485976Y-107362842D01*
X175437313Y-107202423D01*
X175420883Y-107035600D01*
X175437313Y-106868777D01*
X175485976Y-106708358D01*
X175564995Y-106560524D01*
X175564996Y-106560522D01*
X175671341Y-106430941D01*
X175800922Y-106324596D01*
X175855862Y-106295230D01*
X175948758Y-106245576D01*
X176109177Y-106196913D01*
X176234196Y-106184600D01*
X176317804Y-106184600D01*
X176442823Y-106196913D01*
X176442823Y-106196913D01*
G37*
G36*
X166282823Y-106196913D02*
G01*
X166443242Y-106245576D01*
X166536138Y-106295230D01*
X166591078Y-106324596D01*
X166720659Y-106430941D01*
X166827004Y-106560522D01*
X166827005Y-106560524D01*
X166906024Y-106708358D01*
X166954687Y-106868777D01*
X166971117Y-107035600D01*
X166954687Y-107202423D01*
X166906024Y-107362842D01*
X166858313Y-107452103D01*
X166827004Y-107510678D01*
X166720659Y-107640259D01*
X166591078Y-107746604D01*
X166591076Y-107746605D01*
X166443242Y-107825624D01*
X166282823Y-107874287D01*
X166157804Y-107886600D01*
X166074196Y-107886600D01*
X165949177Y-107874287D01*
X165788758Y-107825624D01*
X165640924Y-107746605D01*
X165640922Y-107746604D01*
X165511341Y-107640259D01*
X165404996Y-107510678D01*
X165373687Y-107452103D01*
X165325976Y-107362842D01*
X165277313Y-107202423D01*
X165260883Y-107035600D01*
X165277313Y-106868777D01*
X165325976Y-106708358D01*
X165404995Y-106560524D01*
X165404996Y-106560522D01*
X165511341Y-106430941D01*
X165640922Y-106324596D01*
X165695862Y-106295230D01*
X165788758Y-106245576D01*
X165949177Y-106196913D01*
X166074196Y-106184600D01*
X166157804Y-106184600D01*
X166282823Y-106196913D01*
X166282823Y-106196913D01*
G37*
G36*
X153582823Y-106196913D02*
G01*
X153743242Y-106245576D01*
X153836138Y-106295230D01*
X153891078Y-106324596D01*
X154020659Y-106430941D01*
X154127004Y-106560522D01*
X154127005Y-106560524D01*
X154206024Y-106708358D01*
X154254687Y-106868777D01*
X154271117Y-107035600D01*
X154254687Y-107202423D01*
X154206024Y-107362842D01*
X154158313Y-107452103D01*
X154127004Y-107510678D01*
X154020659Y-107640259D01*
X153891078Y-107746604D01*
X153891076Y-107746605D01*
X153743242Y-107825624D01*
X153582823Y-107874287D01*
X153457804Y-107886600D01*
X153374196Y-107886600D01*
X153249177Y-107874287D01*
X153088758Y-107825624D01*
X152940924Y-107746605D01*
X152940922Y-107746604D01*
X152811341Y-107640259D01*
X152704996Y-107510678D01*
X152673687Y-107452103D01*
X152625976Y-107362842D01*
X152577313Y-107202423D01*
X152560883Y-107035600D01*
X152577313Y-106868777D01*
X152625976Y-106708358D01*
X152704995Y-106560524D01*
X152704996Y-106560522D01*
X152811341Y-106430941D01*
X152940922Y-106324596D01*
X152995862Y-106295230D01*
X153088758Y-106245576D01*
X153249177Y-106196913D01*
X153374196Y-106184600D01*
X153457804Y-106184600D01*
X153582823Y-106196913D01*
X153582823Y-106196913D01*
G37*
G36*
X173902823Y-106196913D02*
G01*
X174063242Y-106245576D01*
X174156138Y-106295230D01*
X174211078Y-106324596D01*
X174340659Y-106430941D01*
X174447004Y-106560522D01*
X174447005Y-106560524D01*
X174526024Y-106708358D01*
X174574687Y-106868777D01*
X174591117Y-107035600D01*
X174574687Y-107202423D01*
X174526024Y-107362842D01*
X174478313Y-107452103D01*
X174447004Y-107510678D01*
X174340659Y-107640259D01*
X174211078Y-107746604D01*
X174211076Y-107746605D01*
X174063242Y-107825624D01*
X173902823Y-107874287D01*
X173777804Y-107886600D01*
X173694196Y-107886600D01*
X173569177Y-107874287D01*
X173408758Y-107825624D01*
X173260924Y-107746605D01*
X173260922Y-107746604D01*
X173131341Y-107640259D01*
X173024996Y-107510678D01*
X172993687Y-107452103D01*
X172945976Y-107362842D01*
X172897313Y-107202423D01*
X172880883Y-107035600D01*
X172897313Y-106868777D01*
X172945976Y-106708358D01*
X173024995Y-106560524D01*
X173024996Y-106560522D01*
X173131341Y-106430941D01*
X173260922Y-106324596D01*
X173315862Y-106295230D01*
X173408758Y-106245576D01*
X173569177Y-106196913D01*
X173694196Y-106184600D01*
X173777804Y-106184600D01*
X173902823Y-106196913D01*
X173902823Y-106196913D01*
G37*
G36*
X156122823Y-106196913D02*
G01*
X156283242Y-106245576D01*
X156376138Y-106295230D01*
X156431078Y-106324596D01*
X156560659Y-106430941D01*
X156667004Y-106560522D01*
X156667005Y-106560524D01*
X156746024Y-106708358D01*
X156794687Y-106868777D01*
X156811117Y-107035600D01*
X156794687Y-107202423D01*
X156746024Y-107362842D01*
X156698313Y-107452103D01*
X156667004Y-107510678D01*
X156560659Y-107640259D01*
X156431078Y-107746604D01*
X156431076Y-107746605D01*
X156283242Y-107825624D01*
X156122823Y-107874287D01*
X155997804Y-107886600D01*
X155914196Y-107886600D01*
X155789177Y-107874287D01*
X155628758Y-107825624D01*
X155480924Y-107746605D01*
X155480922Y-107746604D01*
X155351341Y-107640259D01*
X155244996Y-107510678D01*
X155213687Y-107452103D01*
X155165976Y-107362842D01*
X155117313Y-107202423D01*
X155100883Y-107035600D01*
X155117313Y-106868777D01*
X155165976Y-106708358D01*
X155244995Y-106560524D01*
X155244996Y-106560522D01*
X155351341Y-106430941D01*
X155480922Y-106324596D01*
X155535862Y-106295230D01*
X155628758Y-106245576D01*
X155789177Y-106196913D01*
X155914196Y-106184600D01*
X155997804Y-106184600D01*
X156122823Y-106196913D01*
X156122823Y-106196913D01*
G37*
G36*
X184747000Y-107886600D02*
G01*
X183045000Y-107886600D01*
X183045000Y-106184600D01*
X184747000Y-106184600D01*
X184747000Y-107886600D01*
X184747000Y-107886600D01*
G37*
G36*
X181522823Y-106196913D02*
G01*
X181683242Y-106245576D01*
X181776138Y-106295230D01*
X181831078Y-106324596D01*
X181960659Y-106430941D01*
X182067004Y-106560522D01*
X182067005Y-106560524D01*
X182146024Y-106708358D01*
X182194687Y-106868777D01*
X182211117Y-107035600D01*
X182194687Y-107202423D01*
X182146024Y-107362842D01*
X182098313Y-107452103D01*
X182067004Y-107510678D01*
X181960659Y-107640259D01*
X181831078Y-107746604D01*
X181831076Y-107746605D01*
X181683242Y-107825624D01*
X181522823Y-107874287D01*
X181397804Y-107886600D01*
X181314196Y-107886600D01*
X181189177Y-107874287D01*
X181028758Y-107825624D01*
X180880924Y-107746605D01*
X180880922Y-107746604D01*
X180751341Y-107640259D01*
X180644996Y-107510678D01*
X180613687Y-107452103D01*
X180565976Y-107362842D01*
X180517313Y-107202423D01*
X180500883Y-107035600D01*
X180517313Y-106868777D01*
X180565976Y-106708358D01*
X180644995Y-106560524D01*
X180644996Y-106560522D01*
X180751341Y-106430941D01*
X180880922Y-106324596D01*
X180935862Y-106295230D01*
X181028758Y-106245576D01*
X181189177Y-106196913D01*
X181314196Y-106184600D01*
X181397804Y-106184600D01*
X181522823Y-106196913D01*
X181522823Y-106196913D01*
G37*
G36*
X171362823Y-106196913D02*
G01*
X171523242Y-106245576D01*
X171616138Y-106295230D01*
X171671078Y-106324596D01*
X171800659Y-106430941D01*
X171907004Y-106560522D01*
X171907005Y-106560524D01*
X171986024Y-106708358D01*
X172034687Y-106868777D01*
X172051117Y-107035600D01*
X172034687Y-107202423D01*
X171986024Y-107362842D01*
X171938313Y-107452103D01*
X171907004Y-107510678D01*
X171800659Y-107640259D01*
X171671078Y-107746604D01*
X171671076Y-107746605D01*
X171523242Y-107825624D01*
X171362823Y-107874287D01*
X171237804Y-107886600D01*
X171154196Y-107886600D01*
X171029177Y-107874287D01*
X170868758Y-107825624D01*
X170720924Y-107746605D01*
X170720922Y-107746604D01*
X170591341Y-107640259D01*
X170484996Y-107510678D01*
X170453687Y-107452103D01*
X170405976Y-107362842D01*
X170357313Y-107202423D01*
X170340883Y-107035600D01*
X170357313Y-106868777D01*
X170405976Y-106708358D01*
X170484995Y-106560524D01*
X170484996Y-106560522D01*
X170591341Y-106430941D01*
X170720922Y-106324596D01*
X170775862Y-106295230D01*
X170868758Y-106245576D01*
X171029177Y-106196913D01*
X171154196Y-106184600D01*
X171237804Y-106184600D01*
X171362823Y-106196913D01*
X171362823Y-106196913D01*
G37*
G36*
X158662823Y-106196913D02*
G01*
X158823242Y-106245576D01*
X158916138Y-106295230D01*
X158971078Y-106324596D01*
X159100659Y-106430941D01*
X159207004Y-106560522D01*
X159207005Y-106560524D01*
X159286024Y-106708358D01*
X159334687Y-106868777D01*
X159351117Y-107035600D01*
X159334687Y-107202423D01*
X159286024Y-107362842D01*
X159238313Y-107452103D01*
X159207004Y-107510678D01*
X159100659Y-107640259D01*
X158971078Y-107746604D01*
X158971076Y-107746605D01*
X158823242Y-107825624D01*
X158662823Y-107874287D01*
X158537804Y-107886600D01*
X158454196Y-107886600D01*
X158329177Y-107874287D01*
X158168758Y-107825624D01*
X158020924Y-107746605D01*
X158020922Y-107746604D01*
X157891341Y-107640259D01*
X157784996Y-107510678D01*
X157753687Y-107452103D01*
X157705976Y-107362842D01*
X157657313Y-107202423D01*
X157640883Y-107035600D01*
X157657313Y-106868777D01*
X157705976Y-106708358D01*
X157784995Y-106560524D01*
X157784996Y-106560522D01*
X157891341Y-106430941D01*
X158020922Y-106324596D01*
X158075862Y-106295230D01*
X158168758Y-106245576D01*
X158329177Y-106196913D01*
X158454196Y-106184600D01*
X158537804Y-106184600D01*
X158662823Y-106196913D01*
X158662823Y-106196913D01*
G37*
G36*
X130827000Y-107591000D02*
G01*
X128525000Y-107591000D01*
X128525000Y-106289000D01*
X130827000Y-106289000D01*
X130827000Y-107591000D01*
X130827000Y-107591000D01*
G37*
G36*
X142320674Y-106294465D02*
G01*
X142358367Y-106305899D01*
X142393103Y-106324466D01*
X142423548Y-106349452D01*
X142448534Y-106379897D01*
X142467101Y-106414633D01*
X142478535Y-106452326D01*
X142483000Y-106497661D01*
X142483000Y-107334339D01*
X142478535Y-107379674D01*
X142467101Y-107417367D01*
X142448534Y-107452103D01*
X142423548Y-107482548D01*
X142393103Y-107507534D01*
X142358367Y-107526101D01*
X142320674Y-107537535D01*
X142275339Y-107542000D01*
X141188661Y-107542000D01*
X141143326Y-107537535D01*
X141105633Y-107526101D01*
X141070897Y-107507534D01*
X141040452Y-107482548D01*
X141015466Y-107452103D01*
X140996899Y-107417367D01*
X140985465Y-107379674D01*
X140981000Y-107334339D01*
X140981000Y-106497661D01*
X140985465Y-106452326D01*
X140996899Y-106414633D01*
X141015466Y-106379897D01*
X141040452Y-106349452D01*
X141070897Y-106324466D01*
X141105633Y-106305899D01*
X141143326Y-106294465D01*
X141188661Y-106290000D01*
X142275339Y-106290000D01*
X142320674Y-106294465D01*
X142320674Y-106294465D01*
G37*
G36*
X128661000Y-104701000D02*
G01*
X126559000Y-104701000D01*
X126559000Y-103099000D01*
X128661000Y-103099000D01*
X128661000Y-104701000D01*
X128661000Y-104701000D01*
G37*
G36*
X145742674Y-102885465D02*
G01*
X145780367Y-102896899D01*
X145815103Y-102915466D01*
X145845548Y-102940452D01*
X145870534Y-102970897D01*
X145889101Y-103005633D01*
X145900535Y-103043326D01*
X145905000Y-103088661D01*
X145905000Y-104175339D01*
X145900535Y-104220674D01*
X145889101Y-104258367D01*
X145870534Y-104293103D01*
X145845548Y-104323548D01*
X145815103Y-104348534D01*
X145780367Y-104367101D01*
X145742674Y-104378535D01*
X145697339Y-104383000D01*
X144860661Y-104383000D01*
X144815326Y-104378535D01*
X144777633Y-104367101D01*
X144742897Y-104348534D01*
X144712452Y-104323548D01*
X144687466Y-104293103D01*
X144668899Y-104258367D01*
X144657465Y-104220674D01*
X144653000Y-104175339D01*
X144653000Y-103088661D01*
X144657465Y-103043326D01*
X144668899Y-103005633D01*
X144687466Y-102970897D01*
X144712452Y-102940452D01*
X144742897Y-102915466D01*
X144777633Y-102896899D01*
X144815326Y-102885465D01*
X144860661Y-102881000D01*
X145697339Y-102881000D01*
X145742674Y-102885465D01*
X145742674Y-102885465D01*
G37*
G36*
X147792674Y-102885465D02*
G01*
X147830367Y-102896899D01*
X147865103Y-102915466D01*
X147895548Y-102940452D01*
X147920534Y-102970897D01*
X147939101Y-103005633D01*
X147950535Y-103043326D01*
X147955000Y-103088661D01*
X147955000Y-104175339D01*
X147950535Y-104220674D01*
X147939101Y-104258367D01*
X147920534Y-104293103D01*
X147895548Y-104323548D01*
X147865103Y-104348534D01*
X147830367Y-104367101D01*
X147792674Y-104378535D01*
X147747339Y-104383000D01*
X146910661Y-104383000D01*
X146865326Y-104378535D01*
X146827633Y-104367101D01*
X146792897Y-104348534D01*
X146762452Y-104323548D01*
X146737466Y-104293103D01*
X146718899Y-104258367D01*
X146707465Y-104220674D01*
X146703000Y-104175339D01*
X146703000Y-103088661D01*
X146707465Y-103043326D01*
X146718899Y-103005633D01*
X146737466Y-102970897D01*
X146762452Y-102940452D01*
X146792897Y-102915466D01*
X146827633Y-102896899D01*
X146865326Y-102885465D01*
X146910661Y-102881000D01*
X147747339Y-102881000D01*
X147792674Y-102885465D01*
X147792674Y-102885465D01*
G37*
G36*
X168883674Y-102758465D02*
G01*
X168921367Y-102769899D01*
X168956103Y-102788466D01*
X168986548Y-102813452D01*
X169011534Y-102843897D01*
X169030101Y-102878633D01*
X169041535Y-102916326D01*
X169046000Y-102961661D01*
X169046000Y-104048339D01*
X169041535Y-104093674D01*
X169030101Y-104131367D01*
X169011534Y-104166103D01*
X168986548Y-104196548D01*
X168956103Y-104221534D01*
X168921367Y-104240101D01*
X168883674Y-104251535D01*
X168838339Y-104256000D01*
X168001661Y-104256000D01*
X167956326Y-104251535D01*
X167918633Y-104240101D01*
X167883897Y-104221534D01*
X167853452Y-104196548D01*
X167828466Y-104166103D01*
X167809899Y-104131367D01*
X167798465Y-104093674D01*
X167794000Y-104048339D01*
X167794000Y-102961661D01*
X167798465Y-102916326D01*
X167809899Y-102878633D01*
X167828466Y-102843897D01*
X167853452Y-102813452D01*
X167883897Y-102788466D01*
X167918633Y-102769899D01*
X167956326Y-102758465D01*
X168001661Y-102754000D01*
X168838339Y-102754000D01*
X168883674Y-102758465D01*
X168883674Y-102758465D01*
G37*
G36*
X166833674Y-102758465D02*
G01*
X166871367Y-102769899D01*
X166906103Y-102788466D01*
X166936548Y-102813452D01*
X166961534Y-102843897D01*
X166980101Y-102878633D01*
X166991535Y-102916326D01*
X166996000Y-102961661D01*
X166996000Y-104048339D01*
X166991535Y-104093674D01*
X166980101Y-104131367D01*
X166961534Y-104166103D01*
X166936548Y-104196548D01*
X166906103Y-104221534D01*
X166871367Y-104240101D01*
X166833674Y-104251535D01*
X166788339Y-104256000D01*
X165951661Y-104256000D01*
X165906326Y-104251535D01*
X165868633Y-104240101D01*
X165833897Y-104221534D01*
X165803452Y-104196548D01*
X165778466Y-104166103D01*
X165759899Y-104131367D01*
X165748465Y-104093674D01*
X165744000Y-104048339D01*
X165744000Y-102961661D01*
X165748465Y-102916326D01*
X165759899Y-102878633D01*
X165778466Y-102843897D01*
X165803452Y-102813452D01*
X165833897Y-102788466D01*
X165868633Y-102769899D01*
X165906326Y-102758465D01*
X165951661Y-102754000D01*
X166788339Y-102754000D01*
X166833674Y-102758465D01*
X166833674Y-102758465D01*
G37*
G36*
X186447000Y-103919000D02*
G01*
X185345000Y-103919000D01*
X185345000Y-101017000D01*
X186447000Y-101017000D01*
X186447000Y-103919000D01*
X186447000Y-103919000D01*
G37*
G36*
X182447000Y-103919000D02*
G01*
X181345000Y-103919000D01*
X181345000Y-101017000D01*
X182447000Y-101017000D01*
X182447000Y-103919000D01*
X182447000Y-103919000D01*
G37*
G36*
X175467674Y-102520465D02*
G01*
X175505367Y-102531899D01*
X175540103Y-102550466D01*
X175570548Y-102575452D01*
X175595534Y-102605897D01*
X175614101Y-102640633D01*
X175625535Y-102678326D01*
X175630000Y-102723661D01*
X175630000Y-103560339D01*
X175625535Y-103605674D01*
X175614101Y-103643367D01*
X175595534Y-103678103D01*
X175570548Y-103708548D01*
X175540103Y-103733534D01*
X175505367Y-103752101D01*
X175467674Y-103763535D01*
X175422339Y-103768000D01*
X174335661Y-103768000D01*
X174290326Y-103763535D01*
X174252633Y-103752101D01*
X174217897Y-103733534D01*
X174187452Y-103708548D01*
X174162466Y-103678103D01*
X174143899Y-103643367D01*
X174132465Y-103605674D01*
X174128000Y-103560339D01*
X174128000Y-102723661D01*
X174132465Y-102678326D01*
X174143899Y-102640633D01*
X174162466Y-102605897D01*
X174187452Y-102575452D01*
X174217897Y-102550466D01*
X174252633Y-102531899D01*
X174290326Y-102520465D01*
X174335661Y-102516000D01*
X175422339Y-102516000D01*
X175467674Y-102520465D01*
X175467674Y-102520465D01*
G37*
G36*
X177626674Y-102520465D02*
G01*
X177664367Y-102531899D01*
X177699103Y-102550466D01*
X177729548Y-102575452D01*
X177754534Y-102605897D01*
X177773101Y-102640633D01*
X177784535Y-102678326D01*
X177789000Y-102723661D01*
X177789000Y-103560339D01*
X177784535Y-103605674D01*
X177773101Y-103643367D01*
X177754534Y-103678103D01*
X177729548Y-103708548D01*
X177699103Y-103733534D01*
X177664367Y-103752101D01*
X177626674Y-103763535D01*
X177581339Y-103768000D01*
X176494661Y-103768000D01*
X176449326Y-103763535D01*
X176411633Y-103752101D01*
X176376897Y-103733534D01*
X176346452Y-103708548D01*
X176321466Y-103678103D01*
X176302899Y-103643367D01*
X176291465Y-103605674D01*
X176287000Y-103560339D01*
X176287000Y-102723661D01*
X176291465Y-102678326D01*
X176302899Y-102640633D01*
X176321466Y-102605897D01*
X176346452Y-102575452D01*
X176376897Y-102550466D01*
X176411633Y-102531899D01*
X176449326Y-102520465D01*
X176494661Y-102516000D01*
X177581339Y-102516000D01*
X177626674Y-102520465D01*
X177626674Y-102520465D01*
G37*
G36*
X179785674Y-102502465D02*
G01*
X179823367Y-102513899D01*
X179858103Y-102532466D01*
X179888548Y-102557452D01*
X179913534Y-102587897D01*
X179932101Y-102622633D01*
X179943535Y-102660326D01*
X179948000Y-102705661D01*
X179948000Y-103542339D01*
X179943535Y-103587674D01*
X179932101Y-103625367D01*
X179913534Y-103660103D01*
X179888548Y-103690548D01*
X179858103Y-103715534D01*
X179823367Y-103734101D01*
X179785674Y-103745535D01*
X179740339Y-103750000D01*
X178653661Y-103750000D01*
X178608326Y-103745535D01*
X178570633Y-103734101D01*
X178535897Y-103715534D01*
X178505452Y-103690548D01*
X178480466Y-103660103D01*
X178461899Y-103625367D01*
X178450465Y-103587674D01*
X178446000Y-103542339D01*
X178446000Y-102705661D01*
X178450465Y-102660326D01*
X178461899Y-102622633D01*
X178480466Y-102587897D01*
X178505452Y-102557452D01*
X178535897Y-102532466D01*
X178570633Y-102513899D01*
X178608326Y-102502465D01*
X178653661Y-102498000D01*
X179740339Y-102498000D01*
X179785674Y-102502465D01*
X179785674Y-102502465D01*
G37*
G36*
X122361000Y-103551000D02*
G01*
X120259000Y-103551000D01*
X120259000Y-99649000D01*
X122361000Y-99649000D01*
X122361000Y-103551000D01*
X122361000Y-103551000D01*
G37*
G36*
X135641928Y-100751764D02*
G01*
X135663009Y-100758160D01*
X135682445Y-100768548D01*
X135699476Y-100782524D01*
X135713452Y-100799555D01*
X135723840Y-100818991D01*
X135730236Y-100840072D01*
X135733000Y-100868140D01*
X135733000Y-102331860D01*
X135730236Y-102359928D01*
X135723840Y-102381009D01*
X135713452Y-102400445D01*
X135699476Y-102417476D01*
X135682445Y-102431452D01*
X135663009Y-102441840D01*
X135641928Y-102448236D01*
X135613860Y-102451000D01*
X135150140Y-102451000D01*
X135122072Y-102448236D01*
X135100991Y-102441840D01*
X135081555Y-102431452D01*
X135064524Y-102417476D01*
X135050548Y-102400445D01*
X135040160Y-102381009D01*
X135033764Y-102359928D01*
X135031000Y-102331860D01*
X135031000Y-100868140D01*
X135033764Y-100840072D01*
X135040160Y-100818991D01*
X135050548Y-100799555D01*
X135064524Y-100782524D01*
X135081555Y-100768548D01*
X135100991Y-100758160D01*
X135122072Y-100751764D01*
X135150140Y-100749000D01*
X135613860Y-100749000D01*
X135641928Y-100751764D01*
X135641928Y-100751764D01*
G37*
G36*
X136911928Y-100751764D02*
G01*
X136933009Y-100758160D01*
X136952445Y-100768548D01*
X136969476Y-100782524D01*
X136983452Y-100799555D01*
X136993840Y-100818991D01*
X137000236Y-100840072D01*
X137003000Y-100868140D01*
X137003000Y-102331860D01*
X137000236Y-102359928D01*
X136993840Y-102381009D01*
X136983452Y-102400445D01*
X136969476Y-102417476D01*
X136952445Y-102431452D01*
X136933009Y-102441840D01*
X136911928Y-102448236D01*
X136883860Y-102451000D01*
X136420140Y-102451000D01*
X136392072Y-102448236D01*
X136370991Y-102441840D01*
X136351555Y-102431452D01*
X136334524Y-102417476D01*
X136320548Y-102400445D01*
X136310160Y-102381009D01*
X136303764Y-102359928D01*
X136301000Y-102331860D01*
X136301000Y-100868140D01*
X136303764Y-100840072D01*
X136310160Y-100818991D01*
X136320548Y-100799555D01*
X136334524Y-100782524D01*
X136351555Y-100768548D01*
X136370991Y-100758160D01*
X136392072Y-100751764D01*
X136420140Y-100749000D01*
X136883860Y-100749000D01*
X136911928Y-100751764D01*
X136911928Y-100751764D01*
G37*
G36*
X139451928Y-100751764D02*
G01*
X139473009Y-100758160D01*
X139492445Y-100768548D01*
X139509476Y-100782524D01*
X139523452Y-100799555D01*
X139533840Y-100818991D01*
X139540236Y-100840072D01*
X139543000Y-100868140D01*
X139543000Y-102331860D01*
X139540236Y-102359928D01*
X139533840Y-102381009D01*
X139523452Y-102400445D01*
X139509476Y-102417476D01*
X139492445Y-102431452D01*
X139473009Y-102441840D01*
X139451928Y-102448236D01*
X139423860Y-102451000D01*
X138960140Y-102451000D01*
X138932072Y-102448236D01*
X138910991Y-102441840D01*
X138891555Y-102431452D01*
X138874524Y-102417476D01*
X138860548Y-102400445D01*
X138850160Y-102381009D01*
X138843764Y-102359928D01*
X138841000Y-102331860D01*
X138841000Y-100868140D01*
X138843764Y-100840072D01*
X138850160Y-100818991D01*
X138860548Y-100799555D01*
X138874524Y-100782524D01*
X138891555Y-100768548D01*
X138910991Y-100758160D01*
X138932072Y-100751764D01*
X138960140Y-100749000D01*
X139423860Y-100749000D01*
X139451928Y-100751764D01*
X139451928Y-100751764D01*
G37*
G36*
X138181928Y-100751764D02*
G01*
X138203009Y-100758160D01*
X138222445Y-100768548D01*
X138239476Y-100782524D01*
X138253452Y-100799555D01*
X138263840Y-100818991D01*
X138270236Y-100840072D01*
X138273000Y-100868140D01*
X138273000Y-102331860D01*
X138270236Y-102359928D01*
X138263840Y-102381009D01*
X138253452Y-102400445D01*
X138239476Y-102417476D01*
X138222445Y-102431452D01*
X138203009Y-102441840D01*
X138181928Y-102448236D01*
X138153860Y-102451000D01*
X137690140Y-102451000D01*
X137662072Y-102448236D01*
X137640991Y-102441840D01*
X137621555Y-102431452D01*
X137604524Y-102417476D01*
X137590548Y-102400445D01*
X137580160Y-102381009D01*
X137573764Y-102359928D01*
X137571000Y-102331860D01*
X137571000Y-100868140D01*
X137573764Y-100840072D01*
X137580160Y-100818991D01*
X137590548Y-100799555D01*
X137604524Y-100782524D01*
X137621555Y-100768548D01*
X137640991Y-100758160D01*
X137662072Y-100751764D01*
X137690140Y-100749000D01*
X138153860Y-100749000D01*
X138181928Y-100751764D01*
X138181928Y-100751764D01*
G37*
G36*
X128661000Y-102401000D02*
G01*
X126559000Y-102401000D01*
X126559000Y-100799000D01*
X128661000Y-100799000D01*
X128661000Y-102401000D01*
X128661000Y-102401000D01*
G37*
G36*
X145901062Y-100170181D02*
G01*
X145935981Y-100180774D01*
X145968163Y-100197976D01*
X145996373Y-100221127D01*
X146019524Y-100249337D01*
X146036726Y-100281519D01*
X146047319Y-100316438D01*
X146051500Y-100358895D01*
X146051500Y-101825105D01*
X146047319Y-101867562D01*
X146036726Y-101902481D01*
X146019524Y-101934663D01*
X145996373Y-101962873D01*
X145968163Y-101986024D01*
X145935981Y-102003226D01*
X145901062Y-102013819D01*
X145858605Y-102018000D01*
X144717395Y-102018000D01*
X144674938Y-102013819D01*
X144640019Y-102003226D01*
X144607837Y-101986024D01*
X144579627Y-101962873D01*
X144556476Y-101934663D01*
X144539274Y-101902481D01*
X144528681Y-101867562D01*
X144524500Y-101825105D01*
X144524500Y-100358895D01*
X144528681Y-100316438D01*
X144539274Y-100281519D01*
X144556476Y-100249337D01*
X144579627Y-100221127D01*
X144607837Y-100197976D01*
X144640019Y-100180774D01*
X144674938Y-100170181D01*
X144717395Y-100166000D01*
X145858605Y-100166000D01*
X145901062Y-100170181D01*
X145901062Y-100170181D01*
G37*
G36*
X148876062Y-100170181D02*
G01*
X148910981Y-100180774D01*
X148943163Y-100197976D01*
X148971373Y-100221127D01*
X148994524Y-100249337D01*
X149011726Y-100281519D01*
X149022319Y-100316438D01*
X149026500Y-100358895D01*
X149026500Y-101825105D01*
X149022319Y-101867562D01*
X149011726Y-101902481D01*
X148994524Y-101934663D01*
X148971373Y-101962873D01*
X148943163Y-101986024D01*
X148910981Y-102003226D01*
X148876062Y-102013819D01*
X148833605Y-102018000D01*
X147692395Y-102018000D01*
X147649938Y-102013819D01*
X147615019Y-102003226D01*
X147582837Y-101986024D01*
X147554627Y-101962873D01*
X147531476Y-101934663D01*
X147514274Y-101902481D01*
X147503681Y-101867562D01*
X147499500Y-101825105D01*
X147499500Y-100358895D01*
X147503681Y-100316438D01*
X147514274Y-100281519D01*
X147531476Y-100249337D01*
X147554627Y-100221127D01*
X147582837Y-100197976D01*
X147615019Y-100180774D01*
X147649938Y-100170181D01*
X147692395Y-100166000D01*
X148833605Y-100166000D01*
X148876062Y-100170181D01*
X148876062Y-100170181D01*
G37*
G36*
X177626674Y-100470465D02*
G01*
X177664367Y-100481899D01*
X177699103Y-100500466D01*
X177729548Y-100525452D01*
X177754534Y-100555897D01*
X177773101Y-100590633D01*
X177784535Y-100628326D01*
X177789000Y-100673661D01*
X177789000Y-101510339D01*
X177784535Y-101555674D01*
X177773101Y-101593367D01*
X177754534Y-101628103D01*
X177729548Y-101658548D01*
X177699103Y-101683534D01*
X177664367Y-101702101D01*
X177626674Y-101713535D01*
X177581339Y-101718000D01*
X176494661Y-101718000D01*
X176449326Y-101713535D01*
X176411633Y-101702101D01*
X176376897Y-101683534D01*
X176346452Y-101658548D01*
X176321466Y-101628103D01*
X176302899Y-101593367D01*
X176291465Y-101555674D01*
X176287000Y-101510339D01*
X176287000Y-100673661D01*
X176291465Y-100628326D01*
X176302899Y-100590633D01*
X176321466Y-100555897D01*
X176346452Y-100525452D01*
X176376897Y-100500466D01*
X176411633Y-100481899D01*
X176449326Y-100470465D01*
X176494661Y-100466000D01*
X177581339Y-100466000D01*
X177626674Y-100470465D01*
X177626674Y-100470465D01*
G37*
G36*
X175467674Y-100470465D02*
G01*
X175505367Y-100481899D01*
X175540103Y-100500466D01*
X175570548Y-100525452D01*
X175595534Y-100555897D01*
X175614101Y-100590633D01*
X175625535Y-100628326D01*
X175630000Y-100673661D01*
X175630000Y-101510339D01*
X175625535Y-101555674D01*
X175614101Y-101593367D01*
X175595534Y-101628103D01*
X175570548Y-101658548D01*
X175540103Y-101683534D01*
X175505367Y-101702101D01*
X175467674Y-101713535D01*
X175422339Y-101718000D01*
X174335661Y-101718000D01*
X174290326Y-101713535D01*
X174252633Y-101702101D01*
X174217897Y-101683534D01*
X174187452Y-101658548D01*
X174162466Y-101628103D01*
X174143899Y-101593367D01*
X174132465Y-101555674D01*
X174128000Y-101510339D01*
X174128000Y-100673661D01*
X174132465Y-100628326D01*
X174143899Y-100590633D01*
X174162466Y-100555897D01*
X174187452Y-100525452D01*
X174217897Y-100500466D01*
X174252633Y-100481899D01*
X174290326Y-100470465D01*
X174335661Y-100466000D01*
X175422339Y-100466000D01*
X175467674Y-100470465D01*
X175467674Y-100470465D01*
G37*
G36*
X179785674Y-100452465D02*
G01*
X179823367Y-100463899D01*
X179858103Y-100482466D01*
X179888548Y-100507452D01*
X179913534Y-100537897D01*
X179932101Y-100572633D01*
X179943535Y-100610326D01*
X179948000Y-100655661D01*
X179948000Y-101492339D01*
X179943535Y-101537674D01*
X179932101Y-101575367D01*
X179913534Y-101610103D01*
X179888548Y-101640548D01*
X179858103Y-101665534D01*
X179823367Y-101684101D01*
X179785674Y-101695535D01*
X179740339Y-101700000D01*
X178653661Y-101700000D01*
X178608326Y-101695535D01*
X178570633Y-101684101D01*
X178535897Y-101665534D01*
X178505452Y-101640548D01*
X178480466Y-101610103D01*
X178461899Y-101575367D01*
X178450465Y-101537674D01*
X178446000Y-101492339D01*
X178446000Y-100655661D01*
X178450465Y-100610326D01*
X178461899Y-100572633D01*
X178480466Y-100537897D01*
X178505452Y-100507452D01*
X178535897Y-100482466D01*
X178570633Y-100463899D01*
X178608326Y-100452465D01*
X178653661Y-100448000D01*
X179740339Y-100448000D01*
X179785674Y-100452465D01*
X179785674Y-100452465D01*
G37*
G36*
X128661000Y-100101000D02*
G01*
X126559000Y-100101000D01*
X126559000Y-98499000D01*
X128661000Y-98499000D01*
X128661000Y-100101000D01*
X128661000Y-100101000D01*
G37*
G36*
X132160674Y-98456465D02*
G01*
X132198367Y-98467899D01*
X132233103Y-98486466D01*
X132263548Y-98511452D01*
X132288534Y-98541897D01*
X132307101Y-98576633D01*
X132318535Y-98614326D01*
X132323000Y-98659661D01*
X132323000Y-99496339D01*
X132318535Y-99541674D01*
X132307101Y-99579367D01*
X132288534Y-99614103D01*
X132263548Y-99644548D01*
X132233103Y-99669534D01*
X132198367Y-99688101D01*
X132160674Y-99699535D01*
X132115339Y-99704000D01*
X131028661Y-99704000D01*
X130983326Y-99699535D01*
X130945633Y-99688101D01*
X130910897Y-99669534D01*
X130880452Y-99644548D01*
X130855466Y-99614103D01*
X130836899Y-99579367D01*
X130825465Y-99541674D01*
X130821000Y-99496339D01*
X130821000Y-98659661D01*
X130825465Y-98614326D01*
X130836899Y-98576633D01*
X130855466Y-98541897D01*
X130880452Y-98511452D01*
X130910897Y-98486466D01*
X130945633Y-98467899D01*
X130983326Y-98456465D01*
X131028661Y-98452000D01*
X132115339Y-98452000D01*
X132160674Y-98456465D01*
X132160674Y-98456465D01*
G37*
G36*
X139646674Y-97805465D02*
G01*
X139684367Y-97816899D01*
X139719103Y-97835466D01*
X139749548Y-97860452D01*
X139774534Y-97890897D01*
X139793101Y-97925633D01*
X139804535Y-97963326D01*
X139809000Y-98008661D01*
X139809000Y-99095339D01*
X139804535Y-99140674D01*
X139793101Y-99178367D01*
X139774534Y-99213103D01*
X139749548Y-99243548D01*
X139719103Y-99268534D01*
X139684367Y-99287101D01*
X139646674Y-99298535D01*
X139601339Y-99303000D01*
X138764661Y-99303000D01*
X138719326Y-99298535D01*
X138681633Y-99287101D01*
X138646897Y-99268534D01*
X138616452Y-99243548D01*
X138591466Y-99213103D01*
X138572899Y-99178367D01*
X138561465Y-99140674D01*
X138557000Y-99095339D01*
X138557000Y-98008661D01*
X138561465Y-97963326D01*
X138572899Y-97925633D01*
X138591466Y-97890897D01*
X138616452Y-97860452D01*
X138646897Y-97835466D01*
X138681633Y-97816899D01*
X138719326Y-97805465D01*
X138764661Y-97801000D01*
X139601339Y-97801000D01*
X139646674Y-97805465D01*
X139646674Y-97805465D01*
G37*
G36*
X137641674Y-97805465D02*
G01*
X137679367Y-97816899D01*
X137714103Y-97835466D01*
X137744548Y-97860452D01*
X137769534Y-97890897D01*
X137788101Y-97925633D01*
X137799535Y-97963326D01*
X137804000Y-98008661D01*
X137804000Y-99095339D01*
X137799535Y-99140674D01*
X137788101Y-99178367D01*
X137769534Y-99213103D01*
X137744548Y-99243548D01*
X137714103Y-99268534D01*
X137679367Y-99287101D01*
X137641674Y-99298535D01*
X137596339Y-99303000D01*
X136759661Y-99303000D01*
X136714326Y-99298535D01*
X136676633Y-99287101D01*
X136641897Y-99268534D01*
X136611452Y-99243548D01*
X136586466Y-99213103D01*
X136567899Y-99178367D01*
X136556465Y-99140674D01*
X136552000Y-99095339D01*
X136552000Y-98008661D01*
X136556465Y-97963326D01*
X136567899Y-97925633D01*
X136586466Y-97890897D01*
X136611452Y-97860452D01*
X136641897Y-97835466D01*
X136676633Y-97816899D01*
X136714326Y-97805465D01*
X136759661Y-97801000D01*
X137596339Y-97801000D01*
X137641674Y-97805465D01*
X137641674Y-97805465D01*
G37*
G36*
X135591674Y-97805465D02*
G01*
X135629367Y-97816899D01*
X135664103Y-97835466D01*
X135694548Y-97860452D01*
X135719534Y-97890897D01*
X135738101Y-97925633D01*
X135749535Y-97963326D01*
X135754000Y-98008661D01*
X135754000Y-99095339D01*
X135749535Y-99140674D01*
X135738101Y-99178367D01*
X135719534Y-99213103D01*
X135694548Y-99243548D01*
X135664103Y-99268534D01*
X135629367Y-99287101D01*
X135591674Y-99298535D01*
X135546339Y-99303000D01*
X134709661Y-99303000D01*
X134664326Y-99298535D01*
X134626633Y-99287101D01*
X134591897Y-99268534D01*
X134561452Y-99243548D01*
X134536466Y-99213103D01*
X134517899Y-99178367D01*
X134506465Y-99140674D01*
X134502000Y-99095339D01*
X134502000Y-98008661D01*
X134506465Y-97963326D01*
X134517899Y-97925633D01*
X134536466Y-97890897D01*
X134561452Y-97860452D01*
X134591897Y-97835466D01*
X134626633Y-97816899D01*
X134664326Y-97805465D01*
X134709661Y-97801000D01*
X135546339Y-97801000D01*
X135591674Y-97805465D01*
X135591674Y-97805465D01*
G37*
G36*
X141696674Y-97805465D02*
G01*
X141734367Y-97816899D01*
X141769103Y-97835466D01*
X141799548Y-97860452D01*
X141824534Y-97890897D01*
X141843101Y-97925633D01*
X141854535Y-97963326D01*
X141859000Y-98008661D01*
X141859000Y-99095339D01*
X141854535Y-99140674D01*
X141843101Y-99178367D01*
X141824534Y-99213103D01*
X141799548Y-99243548D01*
X141769103Y-99268534D01*
X141734367Y-99287101D01*
X141696674Y-99298535D01*
X141651339Y-99303000D01*
X140814661Y-99303000D01*
X140769326Y-99298535D01*
X140731633Y-99287101D01*
X140696897Y-99268534D01*
X140666452Y-99243548D01*
X140641466Y-99213103D01*
X140622899Y-99178367D01*
X140611465Y-99140674D01*
X140607000Y-99095339D01*
X140607000Y-98008661D01*
X140611465Y-97963326D01*
X140622899Y-97925633D01*
X140641466Y-97890897D01*
X140666452Y-97860452D01*
X140696897Y-97835466D01*
X140731633Y-97816899D01*
X140769326Y-97805465D01*
X140814661Y-97801000D01*
X141651339Y-97801000D01*
X141696674Y-97805465D01*
X141696674Y-97805465D01*
G37*
G36*
X145751674Y-97297465D02*
G01*
X145789367Y-97308899D01*
X145824103Y-97327466D01*
X145854548Y-97352452D01*
X145879534Y-97382897D01*
X145898101Y-97417633D01*
X145909535Y-97455326D01*
X145914000Y-97500661D01*
X145914000Y-98587339D01*
X145909535Y-98632674D01*
X145898101Y-98670367D01*
X145879534Y-98705103D01*
X145854548Y-98735548D01*
X145824103Y-98760534D01*
X145789367Y-98779101D01*
X145751674Y-98790535D01*
X145706339Y-98795000D01*
X144869661Y-98795000D01*
X144824326Y-98790535D01*
X144786633Y-98779101D01*
X144751897Y-98760534D01*
X144721452Y-98735548D01*
X144696466Y-98705103D01*
X144677899Y-98670367D01*
X144666465Y-98632674D01*
X144662000Y-98587339D01*
X144662000Y-97500661D01*
X144666465Y-97455326D01*
X144677899Y-97417633D01*
X144696466Y-97382897D01*
X144721452Y-97352452D01*
X144751897Y-97327466D01*
X144786633Y-97308899D01*
X144824326Y-97297465D01*
X144869661Y-97293000D01*
X145706339Y-97293000D01*
X145751674Y-97297465D01*
X145751674Y-97297465D01*
G37*
G36*
X147801674Y-97297465D02*
G01*
X147839367Y-97308899D01*
X147874103Y-97327466D01*
X147904548Y-97352452D01*
X147929534Y-97382897D01*
X147948101Y-97417633D01*
X147959535Y-97455326D01*
X147964000Y-97500661D01*
X147964000Y-98587339D01*
X147959535Y-98632674D01*
X147948101Y-98670367D01*
X147929534Y-98705103D01*
X147904548Y-98735548D01*
X147874103Y-98760534D01*
X147839367Y-98779101D01*
X147801674Y-98790535D01*
X147756339Y-98795000D01*
X146919661Y-98795000D01*
X146874326Y-98790535D01*
X146836633Y-98779101D01*
X146801897Y-98760534D01*
X146771452Y-98735548D01*
X146746466Y-98705103D01*
X146727899Y-98670367D01*
X146716465Y-98632674D01*
X146712000Y-98587339D01*
X146712000Y-97500661D01*
X146716465Y-97455326D01*
X146727899Y-97417633D01*
X146746466Y-97382897D01*
X146771452Y-97352452D01*
X146801897Y-97327466D01*
X146836633Y-97308899D01*
X146874326Y-97297465D01*
X146919661Y-97293000D01*
X147756339Y-97293000D01*
X147801674Y-97297465D01*
X147801674Y-97297465D01*
G37*
G36*
X182447000Y-98119000D02*
G01*
X181345000Y-98119000D01*
X181345000Y-95217000D01*
X182447000Y-95217000D01*
X182447000Y-98119000D01*
X182447000Y-98119000D01*
G37*
G36*
X186447000Y-98119000D02*
G01*
X185345000Y-98119000D01*
X185345000Y-95217000D01*
X186447000Y-95217000D01*
X186447000Y-98119000D01*
X186447000Y-98119000D01*
G37*
G36*
X132160674Y-96406465D02*
G01*
X132198367Y-96417899D01*
X132233103Y-96436466D01*
X132263548Y-96461452D01*
X132288534Y-96491897D01*
X132307101Y-96526633D01*
X132318535Y-96564326D01*
X132323000Y-96609661D01*
X132323000Y-97446339D01*
X132318535Y-97491674D01*
X132307101Y-97529367D01*
X132288534Y-97564103D01*
X132263548Y-97594548D01*
X132233103Y-97619534D01*
X132198367Y-97638101D01*
X132160674Y-97649535D01*
X132115339Y-97654000D01*
X131028661Y-97654000D01*
X130983326Y-97649535D01*
X130945633Y-97638101D01*
X130910897Y-97619534D01*
X130880452Y-97594548D01*
X130855466Y-97564103D01*
X130836899Y-97529367D01*
X130825465Y-97491674D01*
X130821000Y-97446339D01*
X130821000Y-96609661D01*
X130825465Y-96564326D01*
X130836899Y-96526633D01*
X130855466Y-96491897D01*
X130880452Y-96461452D01*
X130910897Y-96436466D01*
X130945633Y-96417899D01*
X130983326Y-96406465D01*
X131028661Y-96402000D01*
X132115339Y-96402000D01*
X132160674Y-96406465D01*
X132160674Y-96406465D01*
G37*
G36*
X123755131Y-93259011D02*
G01*
X124082892Y-93394774D01*
X124377870Y-93591872D01*
X124628728Y-93842730D01*
X124825826Y-94137708D01*
X124961589Y-94465469D01*
X125030800Y-94813416D01*
X125030800Y-95168184D01*
X124961589Y-95516131D01*
X124825826Y-95843892D01*
X124628728Y-96138870D01*
X124377870Y-96389728D01*
X124082892Y-96586826D01*
X123755131Y-96722589D01*
X123407184Y-96791800D01*
X123052416Y-96791800D01*
X122704469Y-96722589D01*
X122376708Y-96586826D01*
X122081730Y-96389728D01*
X121830872Y-96138870D01*
X121633774Y-95843892D01*
X121498011Y-95516131D01*
X121428800Y-95168184D01*
X121428800Y-94813416D01*
X121498011Y-94465469D01*
X121633774Y-94137708D01*
X121830872Y-93842730D01*
X122081730Y-93591872D01*
X122376708Y-93394774D01*
X122704469Y-93259011D01*
X123052416Y-93189800D01*
X123407184Y-93189800D01*
X123755131Y-93259011D01*
X123755131Y-93259011D01*
G37*
G36*
X170025400Y-96529600D02*
G01*
X165423400Y-96529600D01*
X165423400Y-94427600D01*
X170025400Y-94427600D01*
X170025400Y-96529600D01*
X170025400Y-96529600D01*
G37*
G36*
X161525400Y-96529600D02*
G01*
X156923400Y-96529600D01*
X156923400Y-94427600D01*
X161525400Y-94427600D01*
X161525400Y-96529600D01*
X161525400Y-96529600D01*
G37*
G36*
X141334442Y-94609518D02*
G01*
X141400627Y-94616037D01*
X141570466Y-94667557D01*
X141726991Y-94751222D01*
X141735530Y-94758230D01*
X141864186Y-94863814D01*
X141932540Y-94947105D01*
X141976778Y-95001009D01*
X142060443Y-95157534D01*
X142111963Y-95327373D01*
X142129359Y-95504000D01*
X142111963Y-95680627D01*
X142060443Y-95850466D01*
X141976778Y-96006991D01*
X141953032Y-96035925D01*
X141864186Y-96144186D01*
X141785049Y-96209131D01*
X141726991Y-96256778D01*
X141570466Y-96340443D01*
X141400627Y-96391963D01*
X141334442Y-96398482D01*
X141268260Y-96405000D01*
X141179740Y-96405000D01*
X141113558Y-96398482D01*
X141047373Y-96391963D01*
X140877534Y-96340443D01*
X140721009Y-96256778D01*
X140662951Y-96209131D01*
X140583814Y-96144186D01*
X140494968Y-96035925D01*
X140471222Y-96006991D01*
X140387557Y-95850466D01*
X140336037Y-95680627D01*
X140318641Y-95504000D01*
X140336037Y-95327373D01*
X140387557Y-95157534D01*
X140471222Y-95001009D01*
X140515460Y-94947105D01*
X140583814Y-94863814D01*
X140712470Y-94758230D01*
X140721009Y-94751222D01*
X140877534Y-94667557D01*
X141047373Y-94616037D01*
X141113558Y-94609518D01*
X141179740Y-94603000D01*
X141268260Y-94603000D01*
X141334442Y-94609518D01*
X141334442Y-94609518D01*
G37*
G36*
X137623674Y-94757465D02*
G01*
X137661367Y-94768899D01*
X137696103Y-94787466D01*
X137726548Y-94812452D01*
X137751534Y-94842897D01*
X137770101Y-94877633D01*
X137781535Y-94915326D01*
X137786000Y-94960661D01*
X137786000Y-96047339D01*
X137781535Y-96092674D01*
X137770101Y-96130367D01*
X137751534Y-96165103D01*
X137726548Y-96195548D01*
X137696103Y-96220534D01*
X137661367Y-96239101D01*
X137623674Y-96250535D01*
X137578339Y-96255000D01*
X136741661Y-96255000D01*
X136696326Y-96250535D01*
X136658633Y-96239101D01*
X136623897Y-96220534D01*
X136593452Y-96195548D01*
X136568466Y-96165103D01*
X136549899Y-96130367D01*
X136538465Y-96092674D01*
X136534000Y-96047339D01*
X136534000Y-94960661D01*
X136538465Y-94915326D01*
X136549899Y-94877633D01*
X136568466Y-94842897D01*
X136593452Y-94812452D01*
X136623897Y-94787466D01*
X136658633Y-94768899D01*
X136696326Y-94757465D01*
X136741661Y-94753000D01*
X137578339Y-94753000D01*
X137623674Y-94757465D01*
X137623674Y-94757465D01*
G37*
G36*
X135573674Y-94757465D02*
G01*
X135611367Y-94768899D01*
X135646103Y-94787466D01*
X135676548Y-94812452D01*
X135701534Y-94842897D01*
X135720101Y-94877633D01*
X135731535Y-94915326D01*
X135736000Y-94960661D01*
X135736000Y-96047339D01*
X135731535Y-96092674D01*
X135720101Y-96130367D01*
X135701534Y-96165103D01*
X135676548Y-96195548D01*
X135646103Y-96220534D01*
X135611367Y-96239101D01*
X135573674Y-96250535D01*
X135528339Y-96255000D01*
X134691661Y-96255000D01*
X134646326Y-96250535D01*
X134608633Y-96239101D01*
X134573897Y-96220534D01*
X134543452Y-96195548D01*
X134518466Y-96165103D01*
X134499899Y-96130367D01*
X134488465Y-96092674D01*
X134484000Y-96047339D01*
X134484000Y-94960661D01*
X134488465Y-94915326D01*
X134499899Y-94877633D01*
X134518466Y-94842897D01*
X134543452Y-94812452D01*
X134573897Y-94787466D01*
X134608633Y-94768899D01*
X134646326Y-94757465D01*
X134691661Y-94753000D01*
X135528339Y-94753000D01*
X135573674Y-94757465D01*
X135573674Y-94757465D01*
G37*
G36*
X145751674Y-94757465D02*
G01*
X145789367Y-94768899D01*
X145824103Y-94787466D01*
X145854548Y-94812452D01*
X145879534Y-94842897D01*
X145898101Y-94877633D01*
X145909535Y-94915326D01*
X145914000Y-94960661D01*
X145914000Y-96047339D01*
X145909535Y-96092674D01*
X145898101Y-96130367D01*
X145879534Y-96165103D01*
X145854548Y-96195548D01*
X145824103Y-96220534D01*
X145789367Y-96239101D01*
X145751674Y-96250535D01*
X145706339Y-96255000D01*
X144869661Y-96255000D01*
X144824326Y-96250535D01*
X144786633Y-96239101D01*
X144751897Y-96220534D01*
X144721452Y-96195548D01*
X144696466Y-96165103D01*
X144677899Y-96130367D01*
X144666465Y-96092674D01*
X144662000Y-96047339D01*
X144662000Y-94960661D01*
X144666465Y-94915326D01*
X144677899Y-94877633D01*
X144696466Y-94842897D01*
X144721452Y-94812452D01*
X144751897Y-94787466D01*
X144786633Y-94768899D01*
X144824326Y-94757465D01*
X144869661Y-94753000D01*
X145706339Y-94753000D01*
X145751674Y-94757465D01*
X145751674Y-94757465D01*
G37*
G36*
X147801674Y-94757465D02*
G01*
X147839367Y-94768899D01*
X147874103Y-94787466D01*
X147904548Y-94812452D01*
X147929534Y-94842897D01*
X147948101Y-94877633D01*
X147959535Y-94915326D01*
X147964000Y-94960661D01*
X147964000Y-96047339D01*
X147959535Y-96092674D01*
X147948101Y-96130367D01*
X147929534Y-96165103D01*
X147904548Y-96195548D01*
X147874103Y-96220534D01*
X147839367Y-96239101D01*
X147801674Y-96250535D01*
X147756339Y-96255000D01*
X146919661Y-96255000D01*
X146874326Y-96250535D01*
X146836633Y-96239101D01*
X146801897Y-96220534D01*
X146771452Y-96195548D01*
X146746466Y-96165103D01*
X146727899Y-96130367D01*
X146716465Y-96092674D01*
X146712000Y-96047339D01*
X146712000Y-94960661D01*
X146716465Y-94915326D01*
X146727899Y-94877633D01*
X146746466Y-94842897D01*
X146771452Y-94812452D01*
X146801897Y-94787466D01*
X146836633Y-94768899D01*
X146874326Y-94757465D01*
X146919661Y-94753000D01*
X147756339Y-94753000D01*
X147801674Y-94757465D01*
X147801674Y-94757465D01*
G37*
G36*
X132347562Y-93692181D02*
G01*
X132382481Y-93702774D01*
X132414663Y-93719976D01*
X132442873Y-93743127D01*
X132466024Y-93771337D01*
X132483226Y-93803519D01*
X132493819Y-93838438D01*
X132498000Y-93880895D01*
X132498000Y-95022105D01*
X132493819Y-95064562D01*
X132483226Y-95099481D01*
X132466024Y-95131663D01*
X132442873Y-95159873D01*
X132414663Y-95183024D01*
X132382481Y-95200226D01*
X132347562Y-95210819D01*
X132305105Y-95215000D01*
X130838895Y-95215000D01*
X130796438Y-95210819D01*
X130761519Y-95200226D01*
X130729337Y-95183024D01*
X130701127Y-95159873D01*
X130677976Y-95131663D01*
X130660774Y-95099481D01*
X130650181Y-95064562D01*
X130646000Y-95022105D01*
X130646000Y-93880895D01*
X130650181Y-93838438D01*
X130660774Y-93803519D01*
X130677976Y-93771337D01*
X130701127Y-93743127D01*
X130729337Y-93719976D01*
X130761519Y-93702774D01*
X130796438Y-93692181D01*
X130838895Y-93688000D01*
X132305105Y-93688000D01*
X132347562Y-93692181D01*
X132347562Y-93692181D01*
G37*
G36*
X148949062Y-92042181D02*
G01*
X148983981Y-92052774D01*
X149016163Y-92069976D01*
X149044373Y-92093127D01*
X149067524Y-92121337D01*
X149084726Y-92153519D01*
X149095319Y-92188438D01*
X149099500Y-92230895D01*
X149099500Y-93697105D01*
X149095319Y-93739562D01*
X149084726Y-93774481D01*
X149067524Y-93806663D01*
X149044373Y-93834873D01*
X149016163Y-93858024D01*
X148983981Y-93875226D01*
X148949062Y-93885819D01*
X148906605Y-93890000D01*
X147765395Y-93890000D01*
X147722938Y-93885819D01*
X147688019Y-93875226D01*
X147655837Y-93858024D01*
X147627627Y-93834873D01*
X147604476Y-93806663D01*
X147587274Y-93774481D01*
X147576681Y-93739562D01*
X147572500Y-93697105D01*
X147572500Y-92230895D01*
X147576681Y-92188438D01*
X147587274Y-92153519D01*
X147604476Y-92121337D01*
X147627627Y-92093127D01*
X147655837Y-92069976D01*
X147688019Y-92052774D01*
X147722938Y-92042181D01*
X147765395Y-92038000D01*
X148906605Y-92038000D01*
X148949062Y-92042181D01*
X148949062Y-92042181D01*
G37*
G36*
X145974062Y-92042181D02*
G01*
X146008981Y-92052774D01*
X146041163Y-92069976D01*
X146069373Y-92093127D01*
X146092524Y-92121337D01*
X146109726Y-92153519D01*
X146120319Y-92188438D01*
X146124500Y-92230895D01*
X146124500Y-93697105D01*
X146120319Y-93739562D01*
X146109726Y-93774481D01*
X146092524Y-93806663D01*
X146069373Y-93834873D01*
X146041163Y-93858024D01*
X146008981Y-93875226D01*
X145974062Y-93885819D01*
X145931605Y-93890000D01*
X144790395Y-93890000D01*
X144747938Y-93885819D01*
X144713019Y-93875226D01*
X144680837Y-93858024D01*
X144652627Y-93834873D01*
X144629476Y-93806663D01*
X144612274Y-93774481D01*
X144601681Y-93739562D01*
X144597500Y-93697105D01*
X144597500Y-92230895D01*
X144601681Y-92188438D01*
X144612274Y-92153519D01*
X144629476Y-92121337D01*
X144652627Y-92093127D01*
X144680837Y-92069976D01*
X144713019Y-92052774D01*
X144747938Y-92042181D01*
X144790395Y-92038000D01*
X145931605Y-92038000D01*
X145974062Y-92042181D01*
X145974062Y-92042181D01*
G37*
G36*
X142125000Y-93865000D02*
G01*
X140323000Y-93865000D01*
X140323000Y-92063000D01*
X142125000Y-92063000D01*
X142125000Y-93865000D01*
X142125000Y-93865000D01*
G37*
G36*
X135591674Y-91709465D02*
G01*
X135629367Y-91720899D01*
X135664103Y-91739466D01*
X135694548Y-91764452D01*
X135719534Y-91794897D01*
X135738101Y-91829633D01*
X135749535Y-91867326D01*
X135754000Y-91912661D01*
X135754000Y-92999339D01*
X135749535Y-93044674D01*
X135738101Y-93082367D01*
X135719534Y-93117103D01*
X135694548Y-93147548D01*
X135664103Y-93172534D01*
X135629367Y-93191101D01*
X135591674Y-93202535D01*
X135546339Y-93207000D01*
X134709661Y-93207000D01*
X134664326Y-93202535D01*
X134626633Y-93191101D01*
X134591897Y-93172534D01*
X134561452Y-93147548D01*
X134536466Y-93117103D01*
X134517899Y-93082367D01*
X134506465Y-93044674D01*
X134502000Y-92999339D01*
X134502000Y-91912661D01*
X134506465Y-91867326D01*
X134517899Y-91829633D01*
X134536466Y-91794897D01*
X134561452Y-91764452D01*
X134591897Y-91739466D01*
X134626633Y-91720899D01*
X134664326Y-91709465D01*
X134709661Y-91705000D01*
X135546339Y-91705000D01*
X135591674Y-91709465D01*
X135591674Y-91709465D01*
G37*
G36*
X137641674Y-91709465D02*
G01*
X137679367Y-91720899D01*
X137714103Y-91739466D01*
X137744548Y-91764452D01*
X137769534Y-91794897D01*
X137788101Y-91829633D01*
X137799535Y-91867326D01*
X137804000Y-91912661D01*
X137804000Y-92999339D01*
X137799535Y-93044674D01*
X137788101Y-93082367D01*
X137769534Y-93117103D01*
X137744548Y-93147548D01*
X137714103Y-93172534D01*
X137679367Y-93191101D01*
X137641674Y-93202535D01*
X137596339Y-93207000D01*
X136759661Y-93207000D01*
X136714326Y-93202535D01*
X136676633Y-93191101D01*
X136641897Y-93172534D01*
X136611452Y-93147548D01*
X136586466Y-93117103D01*
X136567899Y-93082367D01*
X136556465Y-93044674D01*
X136552000Y-92999339D01*
X136552000Y-91912661D01*
X136556465Y-91867326D01*
X136567899Y-91829633D01*
X136586466Y-91794897D01*
X136611452Y-91764452D01*
X136641897Y-91739466D01*
X136676633Y-91720899D01*
X136714326Y-91709465D01*
X136759661Y-91705000D01*
X137596339Y-91705000D01*
X137641674Y-91709465D01*
X137641674Y-91709465D01*
G37*
G36*
X132347562Y-90717181D02*
G01*
X132382481Y-90727774D01*
X132414663Y-90744976D01*
X132442873Y-90768127D01*
X132466024Y-90796337D01*
X132483226Y-90828519D01*
X132493819Y-90863438D01*
X132498000Y-90905895D01*
X132498000Y-92047105D01*
X132493819Y-92089562D01*
X132483226Y-92124481D01*
X132466024Y-92156663D01*
X132442873Y-92184873D01*
X132414663Y-92208024D01*
X132382481Y-92225226D01*
X132347562Y-92235819D01*
X132305105Y-92240000D01*
X130838895Y-92240000D01*
X130796438Y-92235819D01*
X130761519Y-92225226D01*
X130729337Y-92208024D01*
X130701127Y-92184873D01*
X130677976Y-92156663D01*
X130660774Y-92124481D01*
X130650181Y-92089562D01*
X130646000Y-92047105D01*
X130646000Y-90905895D01*
X130650181Y-90863438D01*
X130660774Y-90828519D01*
X130677976Y-90796337D01*
X130701127Y-90768127D01*
X130729337Y-90744976D01*
X130761519Y-90727774D01*
X130796438Y-90717181D01*
X130838895Y-90713000D01*
X132305105Y-90713000D01*
X132347562Y-90717181D01*
X132347562Y-90717181D01*
G37*
G36*
X145733674Y-89677465D02*
G01*
X145771367Y-89688899D01*
X145806103Y-89707466D01*
X145836548Y-89732452D01*
X145861534Y-89762897D01*
X145880101Y-89797633D01*
X145891535Y-89835326D01*
X145896000Y-89880661D01*
X145896000Y-90967339D01*
X145891535Y-91012674D01*
X145880101Y-91050367D01*
X145861534Y-91085103D01*
X145836548Y-91115548D01*
X145806103Y-91140534D01*
X145771367Y-91159101D01*
X145733674Y-91170535D01*
X145688339Y-91175000D01*
X144851661Y-91175000D01*
X144806326Y-91170535D01*
X144768633Y-91159101D01*
X144733897Y-91140534D01*
X144703452Y-91115548D01*
X144678466Y-91085103D01*
X144659899Y-91050367D01*
X144648465Y-91012674D01*
X144644000Y-90967339D01*
X144644000Y-89880661D01*
X144648465Y-89835326D01*
X144659899Y-89797633D01*
X144678466Y-89762897D01*
X144703452Y-89732452D01*
X144733897Y-89707466D01*
X144768633Y-89688899D01*
X144806326Y-89677465D01*
X144851661Y-89673000D01*
X145688339Y-89673000D01*
X145733674Y-89677465D01*
X145733674Y-89677465D01*
G37*
G36*
X147783674Y-89677465D02*
G01*
X147821367Y-89688899D01*
X147856103Y-89707466D01*
X147886548Y-89732452D01*
X147911534Y-89762897D01*
X147930101Y-89797633D01*
X147941535Y-89835326D01*
X147946000Y-89880661D01*
X147946000Y-90967339D01*
X147941535Y-91012674D01*
X147930101Y-91050367D01*
X147911534Y-91085103D01*
X147886548Y-91115548D01*
X147856103Y-91140534D01*
X147821367Y-91159101D01*
X147783674Y-91170535D01*
X147738339Y-91175000D01*
X146901661Y-91175000D01*
X146856326Y-91170535D01*
X146818633Y-91159101D01*
X146783897Y-91140534D01*
X146753452Y-91115548D01*
X146728466Y-91085103D01*
X146709899Y-91050367D01*
X146698465Y-91012674D01*
X146694000Y-90967339D01*
X146694000Y-89880661D01*
X146698465Y-89835326D01*
X146709899Y-89797633D01*
X146728466Y-89762897D01*
X146753452Y-89732452D01*
X146783897Y-89707466D01*
X146818633Y-89688899D01*
X146856326Y-89677465D01*
X146901661Y-89673000D01*
X147738339Y-89673000D01*
X147783674Y-89677465D01*
X147783674Y-89677465D01*
G37*
G36*
X126053312Y-89324727D02*
G01*
X126202612Y-89354424D01*
X126366584Y-89422344D01*
X126514154Y-89520947D01*
X126639653Y-89646446D01*
X126738256Y-89794016D01*
X126798323Y-89939029D01*
X126809868Y-89960629D01*
X126825413Y-89979571D01*
X126844355Y-89995116D01*
X126865966Y-90006667D01*
X126889415Y-90013780D01*
X126913801Y-90016182D01*
X126938187Y-90013780D01*
X126961636Y-90006667D01*
X126983247Y-89995116D01*
X127002189Y-89979571D01*
X127017734Y-89960629D01*
X127029285Y-89939018D01*
X127036398Y-89915569D01*
X127038800Y-89891183D01*
X127038800Y-89319800D01*
X128840800Y-89319800D01*
X128840800Y-91121800D01*
X127038800Y-91121800D01*
X127038800Y-90550417D01*
X127036398Y-90526031D01*
X127029285Y-90502582D01*
X127017734Y-90480971D01*
X127002189Y-90462029D01*
X126983247Y-90446484D01*
X126961636Y-90434933D01*
X126938187Y-90427820D01*
X126913801Y-90425418D01*
X126889415Y-90427820D01*
X126865966Y-90434933D01*
X126844355Y-90446484D01*
X126825413Y-90462029D01*
X126809868Y-90480971D01*
X126798323Y-90502571D01*
X126738256Y-90647584D01*
X126639653Y-90795154D01*
X126514154Y-90920653D01*
X126366584Y-91019256D01*
X126202612Y-91087176D01*
X126053312Y-91116873D01*
X126028542Y-91121800D01*
X125851058Y-91121800D01*
X125826288Y-91116873D01*
X125676988Y-91087176D01*
X125513016Y-91019256D01*
X125365446Y-90920653D01*
X125239947Y-90795154D01*
X125141344Y-90647584D01*
X125073424Y-90483612D01*
X125038800Y-90309541D01*
X125038800Y-90132059D01*
X125073424Y-89957988D01*
X125141344Y-89794016D01*
X125239947Y-89646446D01*
X125365446Y-89520947D01*
X125513016Y-89422344D01*
X125676988Y-89354424D01*
X125826288Y-89324727D01*
X125851058Y-89319800D01*
X126028542Y-89319800D01*
X126053312Y-89324727D01*
X126053312Y-89324727D01*
G37*
G36*
X162051074Y-89575865D02*
G01*
X162088767Y-89587299D01*
X162123503Y-89605866D01*
X162153948Y-89630852D01*
X162178934Y-89661297D01*
X162197501Y-89696033D01*
X162208935Y-89733726D01*
X162213400Y-89779061D01*
X162213400Y-90865739D01*
X162208935Y-90911074D01*
X162197501Y-90948767D01*
X162178934Y-90983503D01*
X162153948Y-91013948D01*
X162123503Y-91038934D01*
X162088767Y-91057501D01*
X162051074Y-91068935D01*
X162005739Y-91073400D01*
X161169061Y-91073400D01*
X161123726Y-91068935D01*
X161086033Y-91057501D01*
X161051297Y-91038934D01*
X161020852Y-91013948D01*
X160995866Y-90983503D01*
X160977299Y-90948767D01*
X160965865Y-90911074D01*
X160961400Y-90865739D01*
X160961400Y-89779061D01*
X160965865Y-89733726D01*
X160977299Y-89696033D01*
X160995866Y-89661297D01*
X161020852Y-89630852D01*
X161051297Y-89605866D01*
X161086033Y-89587299D01*
X161123726Y-89575865D01*
X161169061Y-89571400D01*
X162005739Y-89571400D01*
X162051074Y-89575865D01*
X162051074Y-89575865D01*
G37*
G36*
X160001074Y-89575865D02*
G01*
X160038767Y-89587299D01*
X160073503Y-89605866D01*
X160103948Y-89630852D01*
X160128934Y-89661297D01*
X160147501Y-89696033D01*
X160158935Y-89733726D01*
X160163400Y-89779061D01*
X160163400Y-90865739D01*
X160158935Y-90911074D01*
X160147501Y-90948767D01*
X160128934Y-90983503D01*
X160103948Y-91013948D01*
X160073503Y-91038934D01*
X160038767Y-91057501D01*
X160001074Y-91068935D01*
X159955739Y-91073400D01*
X159119061Y-91073400D01*
X159073726Y-91068935D01*
X159036033Y-91057501D01*
X159001297Y-91038934D01*
X158970852Y-91013948D01*
X158945866Y-90983503D01*
X158927299Y-90948767D01*
X158915865Y-90911074D01*
X158911400Y-90865739D01*
X158911400Y-89779061D01*
X158915865Y-89733726D01*
X158927299Y-89696033D01*
X158945866Y-89661297D01*
X158970852Y-89630852D01*
X159001297Y-89605866D01*
X159036033Y-89587299D01*
X159073726Y-89575865D01*
X159119061Y-89571400D01*
X159955739Y-89571400D01*
X160001074Y-89575865D01*
X160001074Y-89575865D01*
G37*
G36*
X165037674Y-89525065D02*
G01*
X165075367Y-89536499D01*
X165110103Y-89555066D01*
X165140548Y-89580052D01*
X165165534Y-89610497D01*
X165184101Y-89645233D01*
X165195535Y-89682926D01*
X165200000Y-89728261D01*
X165200000Y-90814939D01*
X165195535Y-90860274D01*
X165184101Y-90897967D01*
X165165534Y-90932703D01*
X165140548Y-90963148D01*
X165110103Y-90988134D01*
X165075367Y-91006701D01*
X165037674Y-91018135D01*
X164992339Y-91022600D01*
X164155661Y-91022600D01*
X164110326Y-91018135D01*
X164072633Y-91006701D01*
X164037897Y-90988134D01*
X164007452Y-90963148D01*
X163982466Y-90932703D01*
X163963899Y-90897967D01*
X163952465Y-90860274D01*
X163948000Y-90814939D01*
X163948000Y-89728261D01*
X163952465Y-89682926D01*
X163963899Y-89645233D01*
X163982466Y-89610497D01*
X164007452Y-89580052D01*
X164037897Y-89555066D01*
X164072633Y-89536499D01*
X164110326Y-89525065D01*
X164155661Y-89520600D01*
X164992339Y-89520600D01*
X165037674Y-89525065D01*
X165037674Y-89525065D01*
G37*
G36*
X167087674Y-89525065D02*
G01*
X167125367Y-89536499D01*
X167160103Y-89555066D01*
X167190548Y-89580052D01*
X167215534Y-89610497D01*
X167234101Y-89645233D01*
X167245535Y-89682926D01*
X167250000Y-89728261D01*
X167250000Y-90814939D01*
X167245535Y-90860274D01*
X167234101Y-90897967D01*
X167215534Y-90932703D01*
X167190548Y-90963148D01*
X167160103Y-90988134D01*
X167125367Y-91006701D01*
X167087674Y-91018135D01*
X167042339Y-91022600D01*
X166205661Y-91022600D01*
X166160326Y-91018135D01*
X166122633Y-91006701D01*
X166087897Y-90988134D01*
X166057452Y-90963148D01*
X166032466Y-90932703D01*
X166013899Y-90897967D01*
X166002465Y-90860274D01*
X165998000Y-90814939D01*
X165998000Y-89728261D01*
X166002465Y-89682926D01*
X166013899Y-89645233D01*
X166032466Y-89610497D01*
X166057452Y-89580052D01*
X166087897Y-89555066D01*
X166122633Y-89536499D01*
X166160326Y-89525065D01*
X166205661Y-89520600D01*
X167042339Y-89520600D01*
X167087674Y-89525065D01*
X167087674Y-89525065D01*
G37*
G36*
X142169000Y-89971600D02*
G01*
X133167000Y-89971600D01*
X133167000Y-88119600D01*
X142169000Y-88119600D01*
X142169000Y-89971600D01*
X142169000Y-89971600D01*
G37*
G36*
X148949062Y-86962181D02*
G01*
X148983981Y-86972774D01*
X149016163Y-86989976D01*
X149044373Y-87013127D01*
X149067524Y-87041337D01*
X149084726Y-87073519D01*
X149095319Y-87108438D01*
X149099500Y-87150895D01*
X149099500Y-88617105D01*
X149095319Y-88659562D01*
X149084726Y-88694481D01*
X149067524Y-88726663D01*
X149044373Y-88754873D01*
X149016163Y-88778024D01*
X148983981Y-88795226D01*
X148949062Y-88805819D01*
X148906605Y-88810000D01*
X147765395Y-88810000D01*
X147722938Y-88805819D01*
X147688019Y-88795226D01*
X147655837Y-88778024D01*
X147627627Y-88754873D01*
X147604476Y-88726663D01*
X147587274Y-88694481D01*
X147576681Y-88659562D01*
X147572500Y-88617105D01*
X147572500Y-87150895D01*
X147576681Y-87108438D01*
X147587274Y-87073519D01*
X147604476Y-87041337D01*
X147627627Y-87013127D01*
X147655837Y-86989976D01*
X147688019Y-86972774D01*
X147722938Y-86962181D01*
X147765395Y-86958000D01*
X148906605Y-86958000D01*
X148949062Y-86962181D01*
X148949062Y-86962181D01*
G37*
G36*
X145974062Y-86962181D02*
G01*
X146008981Y-86972774D01*
X146041163Y-86989976D01*
X146069373Y-87013127D01*
X146092524Y-87041337D01*
X146109726Y-87073519D01*
X146120319Y-87108438D01*
X146124500Y-87150895D01*
X146124500Y-88617105D01*
X146120319Y-88659562D01*
X146109726Y-88694481D01*
X146092524Y-88726663D01*
X146069373Y-88754873D01*
X146041163Y-88778024D01*
X146008981Y-88795226D01*
X145974062Y-88805819D01*
X145931605Y-88810000D01*
X144790395Y-88810000D01*
X144747938Y-88805819D01*
X144713019Y-88795226D01*
X144680837Y-88778024D01*
X144652627Y-88754873D01*
X144629476Y-88726663D01*
X144612274Y-88694481D01*
X144601681Y-88659562D01*
X144597500Y-88617105D01*
X144597500Y-87150895D01*
X144601681Y-87108438D01*
X144612274Y-87073519D01*
X144629476Y-87041337D01*
X144652627Y-87013127D01*
X144680837Y-86989976D01*
X144713019Y-86972774D01*
X144747938Y-86962181D01*
X144790395Y-86958000D01*
X145931605Y-86958000D01*
X145974062Y-86962181D01*
X145974062Y-86962181D01*
G37*
G36*
X126053312Y-86824727D02*
G01*
X126202612Y-86854424D01*
X126366584Y-86922344D01*
X126514154Y-87020947D01*
X126639653Y-87146446D01*
X126738256Y-87294016D01*
X126806176Y-87457988D01*
X126817205Y-87513438D01*
X126824316Y-87536878D01*
X126835867Y-87558489D01*
X126851413Y-87577431D01*
X126870355Y-87592976D01*
X126891965Y-87604527D01*
X126915414Y-87611640D01*
X126939800Y-87614042D01*
X126964187Y-87611640D01*
X126987635Y-87604527D01*
X127009246Y-87592976D01*
X127028188Y-87577430D01*
X127043733Y-87558488D01*
X127055284Y-87536878D01*
X127062395Y-87513438D01*
X127073424Y-87457988D01*
X127141344Y-87294016D01*
X127239947Y-87146446D01*
X127365446Y-87020947D01*
X127513016Y-86922344D01*
X127676988Y-86854424D01*
X127826288Y-86824727D01*
X127851058Y-86819800D01*
X128028542Y-86819800D01*
X128053312Y-86824727D01*
X128202612Y-86854424D01*
X128366584Y-86922344D01*
X128514154Y-87020947D01*
X128639653Y-87146446D01*
X128738256Y-87294016D01*
X128806176Y-87457988D01*
X128840800Y-87632059D01*
X128840800Y-87809541D01*
X128806176Y-87983612D01*
X128738256Y-88147584D01*
X128639653Y-88295154D01*
X128514154Y-88420653D01*
X128366584Y-88519256D01*
X128202612Y-88587176D01*
X128053312Y-88616873D01*
X128028542Y-88621800D01*
X127851058Y-88621800D01*
X127826288Y-88616873D01*
X127676988Y-88587176D01*
X127513016Y-88519256D01*
X127365446Y-88420653D01*
X127239947Y-88295154D01*
X127141344Y-88147584D01*
X127073424Y-87983612D01*
X127062395Y-87928162D01*
X127055284Y-87904722D01*
X127043733Y-87883111D01*
X127028187Y-87864169D01*
X127009245Y-87848624D01*
X126987635Y-87837073D01*
X126964186Y-87829960D01*
X126939800Y-87827558D01*
X126915413Y-87829960D01*
X126891965Y-87837073D01*
X126870354Y-87848624D01*
X126851412Y-87864170D01*
X126835867Y-87883112D01*
X126824316Y-87904722D01*
X126817205Y-87928162D01*
X126806176Y-87983612D01*
X126738256Y-88147584D01*
X126639653Y-88295154D01*
X126514154Y-88420653D01*
X126366584Y-88519256D01*
X126202612Y-88587176D01*
X126053312Y-88616873D01*
X126028542Y-88621800D01*
X125851058Y-88621800D01*
X125826288Y-88616873D01*
X125676988Y-88587176D01*
X125513016Y-88519256D01*
X125365446Y-88420653D01*
X125239947Y-88295154D01*
X125141344Y-88147584D01*
X125073424Y-87983612D01*
X125038800Y-87809541D01*
X125038800Y-87632059D01*
X125073424Y-87457988D01*
X125141344Y-87294016D01*
X125239947Y-87146446D01*
X125365446Y-87020947D01*
X125513016Y-86922344D01*
X125676988Y-86854424D01*
X125826288Y-86824727D01*
X125851058Y-86819800D01*
X126028542Y-86819800D01*
X126053312Y-86824727D01*
X126053312Y-86824727D01*
G37*
G36*
X183273000Y-86753000D02*
G01*
X181471000Y-86753000D01*
X181471000Y-84951000D01*
X183273000Y-84951000D01*
X183273000Y-86753000D01*
X183273000Y-86753000D01*
G37*
G36*
X179942442Y-84957518D02*
G01*
X180008627Y-84964037D01*
X180178466Y-85015557D01*
X180334991Y-85099222D01*
X180370729Y-85128552D01*
X180472186Y-85211814D01*
X180555448Y-85313271D01*
X180584778Y-85349009D01*
X180668443Y-85505534D01*
X180719963Y-85675373D01*
X180737359Y-85852000D01*
X180719963Y-86028627D01*
X180668443Y-86198466D01*
X180584778Y-86354991D01*
X180555448Y-86390729D01*
X180472186Y-86492186D01*
X180370729Y-86575448D01*
X180334991Y-86604778D01*
X180178466Y-86688443D01*
X180008627Y-86739963D01*
X179942443Y-86746481D01*
X179876260Y-86753000D01*
X179787740Y-86753000D01*
X179721557Y-86746481D01*
X179655373Y-86739963D01*
X179485534Y-86688443D01*
X179329009Y-86604778D01*
X179293271Y-86575448D01*
X179191814Y-86492186D01*
X179108552Y-86390729D01*
X179079222Y-86354991D01*
X178995557Y-86198466D01*
X178944037Y-86028627D01*
X178926641Y-85852000D01*
X178944037Y-85675373D01*
X178995557Y-85505534D01*
X179079222Y-85349009D01*
X179108552Y-85313271D01*
X179191814Y-85211814D01*
X179293271Y-85128552D01*
X179329009Y-85099222D01*
X179485534Y-85015557D01*
X179655373Y-84964037D01*
X179721558Y-84957518D01*
X179787740Y-84951000D01*
X179876260Y-84951000D01*
X179942442Y-84957518D01*
X179942442Y-84957518D01*
G37*
G36*
X147792674Y-84597465D02*
G01*
X147830367Y-84608899D01*
X147865103Y-84627466D01*
X147895548Y-84652452D01*
X147920534Y-84682897D01*
X147939101Y-84717633D01*
X147950535Y-84755326D01*
X147955000Y-84800661D01*
X147955000Y-85887339D01*
X147950535Y-85932674D01*
X147939101Y-85970367D01*
X147920534Y-86005103D01*
X147895548Y-86035548D01*
X147865103Y-86060534D01*
X147830367Y-86079101D01*
X147792674Y-86090535D01*
X147747339Y-86095000D01*
X146910661Y-86095000D01*
X146865326Y-86090535D01*
X146827633Y-86079101D01*
X146792897Y-86060534D01*
X146762452Y-86035548D01*
X146737466Y-86005103D01*
X146718899Y-85970367D01*
X146707465Y-85932674D01*
X146703000Y-85887339D01*
X146703000Y-84800661D01*
X146707465Y-84755326D01*
X146718899Y-84717633D01*
X146737466Y-84682897D01*
X146762452Y-84652452D01*
X146792897Y-84627466D01*
X146827633Y-84608899D01*
X146865326Y-84597465D01*
X146910661Y-84593000D01*
X147747339Y-84593000D01*
X147792674Y-84597465D01*
X147792674Y-84597465D01*
G37*
G36*
X145742674Y-84597465D02*
G01*
X145780367Y-84608899D01*
X145815103Y-84627466D01*
X145845548Y-84652452D01*
X145870534Y-84682897D01*
X145889101Y-84717633D01*
X145900535Y-84755326D01*
X145905000Y-84800661D01*
X145905000Y-85887339D01*
X145900535Y-85932674D01*
X145889101Y-85970367D01*
X145870534Y-86005103D01*
X145845548Y-86035548D01*
X145815103Y-86060534D01*
X145780367Y-86079101D01*
X145742674Y-86090535D01*
X145697339Y-86095000D01*
X144860661Y-86095000D01*
X144815326Y-86090535D01*
X144777633Y-86079101D01*
X144742897Y-86060534D01*
X144712452Y-86035548D01*
X144687466Y-86005103D01*
X144668899Y-85970367D01*
X144657465Y-85932674D01*
X144653000Y-85887339D01*
X144653000Y-84800661D01*
X144657465Y-84755326D01*
X144668899Y-84717633D01*
X144687466Y-84682897D01*
X144712452Y-84652452D01*
X144742897Y-84627466D01*
X144777633Y-84608899D01*
X144815326Y-84597465D01*
X144860661Y-84593000D01*
X145697339Y-84593000D01*
X145742674Y-84597465D01*
X145742674Y-84597465D01*
G37*
G36*
X123755131Y-81219011D02*
G01*
X124082892Y-81354774D01*
X124377870Y-81551872D01*
X124628728Y-81802730D01*
X124825826Y-82097708D01*
X124961589Y-82425469D01*
X125030800Y-82773416D01*
X125030800Y-83128184D01*
X124961589Y-83476131D01*
X124825826Y-83803892D01*
X124628728Y-84098870D01*
X124377870Y-84349728D01*
X124082892Y-84546826D01*
X123755131Y-84682589D01*
X123407184Y-84751800D01*
X123052416Y-84751800D01*
X122704469Y-84682589D01*
X122376708Y-84546826D01*
X122081730Y-84349728D01*
X121830872Y-84098870D01*
X121633774Y-83803892D01*
X121498011Y-83476131D01*
X121428800Y-83128184D01*
X121428800Y-82773416D01*
X121498011Y-82425469D01*
X121633774Y-82097708D01*
X121830872Y-81802730D01*
X122081730Y-81551872D01*
X122376708Y-81354774D01*
X122704469Y-81219011D01*
X123052416Y-81149800D01*
X123407184Y-81149800D01*
X123755131Y-81219011D01*
X123755131Y-81219011D01*
G37*
G36*
X182482443Y-82417519D02*
G01*
X182548627Y-82424037D01*
X182718466Y-82475557D01*
X182874991Y-82559222D01*
X182910729Y-82588552D01*
X183012186Y-82671814D01*
X183094077Y-82771600D01*
X183124778Y-82809009D01*
X183208443Y-82965534D01*
X183259963Y-83135373D01*
X183277359Y-83312000D01*
X183259963Y-83488627D01*
X183208443Y-83658466D01*
X183124778Y-83814991D01*
X183095448Y-83850729D01*
X183012186Y-83952186D01*
X182910729Y-84035448D01*
X182874991Y-84064778D01*
X182718466Y-84148443D01*
X182548627Y-84199963D01*
X182482442Y-84206482D01*
X182416260Y-84213000D01*
X182327740Y-84213000D01*
X182261558Y-84206482D01*
X182195373Y-84199963D01*
X182025534Y-84148443D01*
X181869009Y-84064778D01*
X181833271Y-84035448D01*
X181731814Y-83952186D01*
X181648552Y-83850729D01*
X181619222Y-83814991D01*
X181535557Y-83658466D01*
X181484037Y-83488627D01*
X181466641Y-83312000D01*
X181484037Y-83135373D01*
X181535557Y-82965534D01*
X181619222Y-82809009D01*
X181649923Y-82771600D01*
X181731814Y-82671814D01*
X181833271Y-82588552D01*
X181869009Y-82559222D01*
X182025534Y-82475557D01*
X182195373Y-82424037D01*
X182261557Y-82417519D01*
X182327740Y-82411000D01*
X182416260Y-82411000D01*
X182482443Y-82417519D01*
X182482443Y-82417519D01*
G37*
G36*
X179942443Y-82417519D02*
G01*
X180008627Y-82424037D01*
X180178466Y-82475557D01*
X180334991Y-82559222D01*
X180370729Y-82588552D01*
X180472186Y-82671814D01*
X180554077Y-82771600D01*
X180584778Y-82809009D01*
X180668443Y-82965534D01*
X180719963Y-83135373D01*
X180737359Y-83312000D01*
X180719963Y-83488627D01*
X180668443Y-83658466D01*
X180584778Y-83814991D01*
X180555448Y-83850729D01*
X180472186Y-83952186D01*
X180370729Y-84035448D01*
X180334991Y-84064778D01*
X180178466Y-84148443D01*
X180008627Y-84199963D01*
X179942442Y-84206482D01*
X179876260Y-84213000D01*
X179787740Y-84213000D01*
X179721558Y-84206482D01*
X179655373Y-84199963D01*
X179485534Y-84148443D01*
X179329009Y-84064778D01*
X179293271Y-84035448D01*
X179191814Y-83952186D01*
X179108552Y-83850729D01*
X179079222Y-83814991D01*
X178995557Y-83658466D01*
X178944037Y-83488627D01*
X178926641Y-83312000D01*
X178944037Y-83135373D01*
X178995557Y-82965534D01*
X179079222Y-82809009D01*
X179109923Y-82771600D01*
X179191814Y-82671814D01*
X179293271Y-82588552D01*
X179329009Y-82559222D01*
X179485534Y-82475557D01*
X179655373Y-82424037D01*
X179721557Y-82417519D01*
X179787740Y-82411000D01*
X179876260Y-82411000D01*
X179942443Y-82417519D01*
X179942443Y-82417519D01*
G37*
G36*
X147801674Y-82057465D02*
G01*
X147839367Y-82068899D01*
X147874103Y-82087466D01*
X147904548Y-82112452D01*
X147929534Y-82142897D01*
X147948101Y-82177633D01*
X147959535Y-82215326D01*
X147964000Y-82260661D01*
X147964000Y-83347339D01*
X147959535Y-83392674D01*
X147948101Y-83430367D01*
X147929534Y-83465103D01*
X147904548Y-83495548D01*
X147874103Y-83520534D01*
X147839367Y-83539101D01*
X147801674Y-83550535D01*
X147756339Y-83555000D01*
X146919661Y-83555000D01*
X146874326Y-83550535D01*
X146836633Y-83539101D01*
X146801897Y-83520534D01*
X146771452Y-83495548D01*
X146746466Y-83465103D01*
X146727899Y-83430367D01*
X146716465Y-83392674D01*
X146712000Y-83347339D01*
X146712000Y-82260661D01*
X146716465Y-82215326D01*
X146727899Y-82177633D01*
X146746466Y-82142897D01*
X146771452Y-82112452D01*
X146801897Y-82087466D01*
X146836633Y-82068899D01*
X146874326Y-82057465D01*
X146919661Y-82053000D01*
X147756339Y-82053000D01*
X147801674Y-82057465D01*
X147801674Y-82057465D01*
G37*
G36*
X145751674Y-82057465D02*
G01*
X145789367Y-82068899D01*
X145824103Y-82087466D01*
X145854548Y-82112452D01*
X145879534Y-82142897D01*
X145898101Y-82177633D01*
X145909535Y-82215326D01*
X145914000Y-82260661D01*
X145914000Y-83347339D01*
X145909535Y-83392674D01*
X145898101Y-83430367D01*
X145879534Y-83465103D01*
X145854548Y-83495548D01*
X145824103Y-83520534D01*
X145789367Y-83539101D01*
X145751674Y-83550535D01*
X145706339Y-83555000D01*
X144869661Y-83555000D01*
X144824326Y-83550535D01*
X144786633Y-83539101D01*
X144751897Y-83520534D01*
X144721452Y-83495548D01*
X144696466Y-83465103D01*
X144677899Y-83430367D01*
X144666465Y-83392674D01*
X144662000Y-83347339D01*
X144662000Y-82260661D01*
X144666465Y-82215326D01*
X144677899Y-82177633D01*
X144696466Y-82142897D01*
X144721452Y-82112452D01*
X144751897Y-82087466D01*
X144786633Y-82068899D01*
X144824326Y-82057465D01*
X144869661Y-82053000D01*
X145706339Y-82053000D01*
X145751674Y-82057465D01*
X145751674Y-82057465D01*
G37*
G36*
X142169000Y-82771600D02*
G01*
X133167000Y-82771600D01*
X133167000Y-80919600D01*
X142169000Y-80919600D01*
X142169000Y-82771600D01*
X142169000Y-82771600D01*
G37*
G36*
X179942442Y-79877518D02*
G01*
X180008627Y-79884037D01*
X180178466Y-79935557D01*
X180334991Y-80019222D01*
X180355560Y-80036103D01*
X180472186Y-80131814D01*
X180555448Y-80233271D01*
X180584778Y-80269009D01*
X180668443Y-80425534D01*
X180719963Y-80595373D01*
X180737359Y-80772000D01*
X180719963Y-80948627D01*
X180668443Y-81118466D01*
X180668442Y-81118468D01*
X180626610Y-81196729D01*
X180584778Y-81274991D01*
X180555448Y-81310729D01*
X180472186Y-81412186D01*
X180370729Y-81495448D01*
X180334991Y-81524778D01*
X180178466Y-81608443D01*
X180008627Y-81659963D01*
X179942442Y-81666482D01*
X179876260Y-81673000D01*
X179787740Y-81673000D01*
X179721558Y-81666482D01*
X179655373Y-81659963D01*
X179485534Y-81608443D01*
X179329009Y-81524778D01*
X179293271Y-81495448D01*
X179191814Y-81412186D01*
X179108552Y-81310729D01*
X179079222Y-81274991D01*
X179037390Y-81196729D01*
X178995558Y-81118468D01*
X178995557Y-81118466D01*
X178944037Y-80948627D01*
X178926641Y-80772000D01*
X178944037Y-80595373D01*
X178995557Y-80425534D01*
X179079222Y-80269009D01*
X179108552Y-80233271D01*
X179191814Y-80131814D01*
X179308440Y-80036103D01*
X179329009Y-80019222D01*
X179485534Y-79935557D01*
X179655373Y-79884037D01*
X179721558Y-79877518D01*
X179787740Y-79871000D01*
X179876260Y-79871000D01*
X179942442Y-79877518D01*
X179942442Y-79877518D01*
G37*
G36*
X182482442Y-79877518D02*
G01*
X182548627Y-79884037D01*
X182718466Y-79935557D01*
X182874991Y-80019222D01*
X182895560Y-80036103D01*
X183012186Y-80131814D01*
X183095448Y-80233271D01*
X183124778Y-80269009D01*
X183208443Y-80425534D01*
X183259963Y-80595373D01*
X183277359Y-80772000D01*
X183259963Y-80948627D01*
X183208443Y-81118466D01*
X183208442Y-81118468D01*
X183166610Y-81196729D01*
X183124778Y-81274991D01*
X183095448Y-81310729D01*
X183012186Y-81412186D01*
X182910729Y-81495448D01*
X182874991Y-81524778D01*
X182718466Y-81608443D01*
X182548627Y-81659963D01*
X182482442Y-81666482D01*
X182416260Y-81673000D01*
X182327740Y-81673000D01*
X182261558Y-81666482D01*
X182195373Y-81659963D01*
X182025534Y-81608443D01*
X181869009Y-81524778D01*
X181833271Y-81495448D01*
X181731814Y-81412186D01*
X181648552Y-81310729D01*
X181619222Y-81274991D01*
X181577390Y-81196729D01*
X181535558Y-81118468D01*
X181535557Y-81118466D01*
X181484037Y-80948627D01*
X181466641Y-80772000D01*
X181484037Y-80595373D01*
X181535557Y-80425534D01*
X181619222Y-80269009D01*
X181648552Y-80233271D01*
X181731814Y-80131814D01*
X181848440Y-80036103D01*
X181869009Y-80019222D01*
X182025534Y-79935557D01*
X182195373Y-79884037D01*
X182261558Y-79877518D01*
X182327740Y-79871000D01*
X182416260Y-79871000D01*
X182482442Y-79877518D01*
X182482442Y-79877518D01*
G37*
G36*
X145901062Y-78834181D02*
G01*
X145935981Y-78844774D01*
X145968163Y-78861976D01*
X145996373Y-78885127D01*
X146019524Y-78913337D01*
X146036726Y-78945519D01*
X146047319Y-78980438D01*
X146051500Y-79022895D01*
X146051500Y-80489105D01*
X146047319Y-80531562D01*
X146036726Y-80566481D01*
X146019524Y-80598663D01*
X145996373Y-80626873D01*
X145968163Y-80650024D01*
X145935981Y-80667226D01*
X145901062Y-80677819D01*
X145858605Y-80682000D01*
X144717395Y-80682000D01*
X144674938Y-80677819D01*
X144640019Y-80667226D01*
X144607837Y-80650024D01*
X144579627Y-80626873D01*
X144556476Y-80598663D01*
X144539274Y-80566481D01*
X144528681Y-80531562D01*
X144524500Y-80489105D01*
X144524500Y-79022895D01*
X144528681Y-78980438D01*
X144539274Y-78945519D01*
X144556476Y-78913337D01*
X144579627Y-78885127D01*
X144607837Y-78861976D01*
X144640019Y-78844774D01*
X144674938Y-78834181D01*
X144717395Y-78830000D01*
X145858605Y-78830000D01*
X145901062Y-78834181D01*
X145901062Y-78834181D01*
G37*
G36*
X148876062Y-78834181D02*
G01*
X148910981Y-78844774D01*
X148943163Y-78861976D01*
X148971373Y-78885127D01*
X148994524Y-78913337D01*
X149011726Y-78945519D01*
X149022319Y-78980438D01*
X149026500Y-79022895D01*
X149026500Y-80489105D01*
X149022319Y-80531562D01*
X149011726Y-80566481D01*
X148994524Y-80598663D01*
X148971373Y-80626873D01*
X148943163Y-80650024D01*
X148910981Y-80667226D01*
X148876062Y-80677819D01*
X148833605Y-80682000D01*
X147692395Y-80682000D01*
X147649938Y-80677819D01*
X147615019Y-80667226D01*
X147582837Y-80650024D01*
X147554627Y-80626873D01*
X147531476Y-80598663D01*
X147514274Y-80566481D01*
X147503681Y-80531562D01*
X147499500Y-80489105D01*
X147499500Y-79022895D01*
X147503681Y-78980438D01*
X147514274Y-78945519D01*
X147531476Y-78913337D01*
X147554627Y-78885127D01*
X147582837Y-78861976D01*
X147615019Y-78844774D01*
X147649938Y-78834181D01*
X147692395Y-78830000D01*
X148833605Y-78830000D01*
X148876062Y-78834181D01*
X148876062Y-78834181D01*
G37*
G36*
X140417674Y-78628465D02*
G01*
X140455367Y-78639899D01*
X140490103Y-78658466D01*
X140520548Y-78683452D01*
X140545534Y-78713897D01*
X140564101Y-78748633D01*
X140575535Y-78786326D01*
X140580000Y-78831661D01*
X140580000Y-79918339D01*
X140575535Y-79963674D01*
X140564101Y-80001367D01*
X140545534Y-80036103D01*
X140520548Y-80066548D01*
X140490103Y-80091534D01*
X140455367Y-80110101D01*
X140417674Y-80121535D01*
X140372339Y-80126000D01*
X139535661Y-80126000D01*
X139490326Y-80121535D01*
X139452633Y-80110101D01*
X139417897Y-80091534D01*
X139387452Y-80066548D01*
X139362466Y-80036103D01*
X139343899Y-80001367D01*
X139332465Y-79963674D01*
X139328000Y-79918339D01*
X139328000Y-78831661D01*
X139332465Y-78786326D01*
X139343899Y-78748633D01*
X139362466Y-78713897D01*
X139387452Y-78683452D01*
X139417897Y-78658466D01*
X139452633Y-78639899D01*
X139490326Y-78628465D01*
X139535661Y-78624000D01*
X140372339Y-78624000D01*
X140417674Y-78628465D01*
X140417674Y-78628465D01*
G37*
G36*
X142467674Y-78628465D02*
G01*
X142505367Y-78639899D01*
X142540103Y-78658466D01*
X142570548Y-78683452D01*
X142595534Y-78713897D01*
X142614101Y-78748633D01*
X142625535Y-78786326D01*
X142630000Y-78831661D01*
X142630000Y-79918339D01*
X142625535Y-79963674D01*
X142614101Y-80001367D01*
X142595534Y-80036103D01*
X142570548Y-80066548D01*
X142540103Y-80091534D01*
X142505367Y-80110101D01*
X142467674Y-80121535D01*
X142422339Y-80126000D01*
X141585661Y-80126000D01*
X141540326Y-80121535D01*
X141502633Y-80110101D01*
X141467897Y-80091534D01*
X141437452Y-80066548D01*
X141412466Y-80036103D01*
X141393899Y-80001367D01*
X141382465Y-79963674D01*
X141378000Y-79918339D01*
X141378000Y-78831661D01*
X141382465Y-78786326D01*
X141393899Y-78748633D01*
X141412466Y-78713897D01*
X141437452Y-78683452D01*
X141467897Y-78658466D01*
X141502633Y-78639899D01*
X141540326Y-78628465D01*
X141585661Y-78624000D01*
X142422339Y-78624000D01*
X142467674Y-78628465D01*
X142467674Y-78628465D01*
G37*
G36*
X130666442Y-75813518D02*
G01*
X130732627Y-75820037D01*
X130902466Y-75871557D01*
X131058991Y-75955222D01*
X131094729Y-75984552D01*
X131196186Y-76067814D01*
X131255482Y-76140068D01*
X131308778Y-76205009D01*
X131392443Y-76361534D01*
X131443963Y-76531373D01*
X131461359Y-76708000D01*
X131443963Y-76884627D01*
X131392443Y-77054466D01*
X131308778Y-77210991D01*
X131279448Y-77246729D01*
X131196186Y-77348186D01*
X131094729Y-77431448D01*
X131058991Y-77460778D01*
X130902466Y-77544443D01*
X130732627Y-77595963D01*
X130666443Y-77602481D01*
X130600260Y-77609000D01*
X130511740Y-77609000D01*
X130445557Y-77602481D01*
X130379373Y-77595963D01*
X130209534Y-77544443D01*
X130053009Y-77460778D01*
X130017271Y-77431448D01*
X129915814Y-77348186D01*
X129832552Y-77246729D01*
X129803222Y-77210991D01*
X129719557Y-77054466D01*
X129668037Y-76884627D01*
X129650641Y-76708000D01*
X129668037Y-76531373D01*
X129719557Y-76361534D01*
X129803222Y-76205009D01*
X129856518Y-76140068D01*
X129915814Y-76067814D01*
X130017271Y-75984552D01*
X130053009Y-75955222D01*
X130209534Y-75871557D01*
X130379373Y-75820037D01*
X130445558Y-75813518D01*
X130511740Y-75807000D01*
X130600260Y-75807000D01*
X130666442Y-75813518D01*
X130666442Y-75813518D01*
G37*
G36*
X123837000Y-77609000D02*
G01*
X122035000Y-77609000D01*
X122035000Y-75807000D01*
X123837000Y-75807000D01*
X123837000Y-77609000D01*
X123837000Y-77609000D01*
G37*
G36*
X125586442Y-75813518D02*
G01*
X125652627Y-75820037D01*
X125822466Y-75871557D01*
X125978991Y-75955222D01*
X126014729Y-75984552D01*
X126116186Y-76067814D01*
X126175482Y-76140068D01*
X126228778Y-76205009D01*
X126312443Y-76361534D01*
X126363963Y-76531373D01*
X126381359Y-76708000D01*
X126363963Y-76884627D01*
X126312443Y-77054466D01*
X126228778Y-77210991D01*
X126199448Y-77246729D01*
X126116186Y-77348186D01*
X126014729Y-77431448D01*
X125978991Y-77460778D01*
X125822466Y-77544443D01*
X125652627Y-77595963D01*
X125586443Y-77602481D01*
X125520260Y-77609000D01*
X125431740Y-77609000D01*
X125365557Y-77602481D01*
X125299373Y-77595963D01*
X125129534Y-77544443D01*
X124973009Y-77460778D01*
X124937271Y-77431448D01*
X124835814Y-77348186D01*
X124752552Y-77246729D01*
X124723222Y-77210991D01*
X124639557Y-77054466D01*
X124588037Y-76884627D01*
X124570641Y-76708000D01*
X124588037Y-76531373D01*
X124639557Y-76361534D01*
X124723222Y-76205009D01*
X124776518Y-76140068D01*
X124835814Y-76067814D01*
X124937271Y-75984552D01*
X124973009Y-75955222D01*
X125129534Y-75871557D01*
X125299373Y-75820037D01*
X125365558Y-75813518D01*
X125431740Y-75807000D01*
X125520260Y-75807000D01*
X125586442Y-75813518D01*
X125586442Y-75813518D01*
G37*
G36*
X128126442Y-75813518D02*
G01*
X128192627Y-75820037D01*
X128362466Y-75871557D01*
X128518991Y-75955222D01*
X128554729Y-75984552D01*
X128656186Y-76067814D01*
X128715482Y-76140068D01*
X128768778Y-76205009D01*
X128852443Y-76361534D01*
X128903963Y-76531373D01*
X128921359Y-76708000D01*
X128903963Y-76884627D01*
X128852443Y-77054466D01*
X128768778Y-77210991D01*
X128739448Y-77246729D01*
X128656186Y-77348186D01*
X128554729Y-77431448D01*
X128518991Y-77460778D01*
X128362466Y-77544443D01*
X128192627Y-77595963D01*
X128126443Y-77602481D01*
X128060260Y-77609000D01*
X127971740Y-77609000D01*
X127905557Y-77602481D01*
X127839373Y-77595963D01*
X127669534Y-77544443D01*
X127513009Y-77460778D01*
X127477271Y-77431448D01*
X127375814Y-77348186D01*
X127292552Y-77246729D01*
X127263222Y-77210991D01*
X127179557Y-77054466D01*
X127128037Y-76884627D01*
X127110641Y-76708000D01*
X127128037Y-76531373D01*
X127179557Y-76361534D01*
X127263222Y-76205009D01*
X127316518Y-76140068D01*
X127375814Y-76067814D01*
X127477271Y-75984552D01*
X127513009Y-75955222D01*
X127669534Y-75871557D01*
X127839373Y-75820037D01*
X127905558Y-75813518D01*
X127971740Y-75807000D01*
X128060260Y-75807000D01*
X128126442Y-75813518D01*
X128126442Y-75813518D01*
G37*
G36*
X167318642Y-74899118D02*
G01*
X167384827Y-74905637D01*
X167554666Y-74957157D01*
X167711191Y-75040822D01*
X167746929Y-75070152D01*
X167848386Y-75153414D01*
X167931648Y-75254871D01*
X167960978Y-75290609D01*
X168044643Y-75447134D01*
X168096163Y-75616973D01*
X168113559Y-75793600D01*
X168096163Y-75970227D01*
X168044643Y-76140066D01*
X167960978Y-76296591D01*
X167931648Y-76332329D01*
X167848386Y-76433786D01*
X167746929Y-76517048D01*
X167711191Y-76546378D01*
X167554666Y-76630043D01*
X167384827Y-76681563D01*
X167318642Y-76688082D01*
X167252460Y-76694600D01*
X167163940Y-76694600D01*
X167097758Y-76688082D01*
X167031573Y-76681563D01*
X166861734Y-76630043D01*
X166705209Y-76546378D01*
X166669471Y-76517048D01*
X166568014Y-76433786D01*
X166484752Y-76332329D01*
X166455422Y-76296591D01*
X166371757Y-76140066D01*
X166320237Y-75970227D01*
X166302841Y-75793600D01*
X166320237Y-75616973D01*
X166371757Y-75447134D01*
X166455422Y-75290609D01*
X166484752Y-75254871D01*
X166568014Y-75153414D01*
X166669471Y-75070152D01*
X166705209Y-75040822D01*
X166861734Y-74957157D01*
X167031573Y-74905637D01*
X167097758Y-74899118D01*
X167163940Y-74892600D01*
X167252460Y-74892600D01*
X167318642Y-74899118D01*
X167318642Y-74899118D01*
G37*
G36*
X164778642Y-74899118D02*
G01*
X164844827Y-74905637D01*
X165014666Y-74957157D01*
X165171191Y-75040822D01*
X165206929Y-75070152D01*
X165308386Y-75153414D01*
X165391648Y-75254871D01*
X165420978Y-75290609D01*
X165504643Y-75447134D01*
X165556163Y-75616973D01*
X165573559Y-75793600D01*
X165556163Y-75970227D01*
X165504643Y-76140066D01*
X165420978Y-76296591D01*
X165391648Y-76332329D01*
X165308386Y-76433786D01*
X165206929Y-76517048D01*
X165171191Y-76546378D01*
X165014666Y-76630043D01*
X164844827Y-76681563D01*
X164778642Y-76688082D01*
X164712460Y-76694600D01*
X164623940Y-76694600D01*
X164557758Y-76688082D01*
X164491573Y-76681563D01*
X164321734Y-76630043D01*
X164165209Y-76546378D01*
X164129471Y-76517048D01*
X164028014Y-76433786D01*
X163944752Y-76332329D01*
X163915422Y-76296591D01*
X163831757Y-76140066D01*
X163780237Y-75970227D01*
X163762841Y-75793600D01*
X163780237Y-75616973D01*
X163831757Y-75447134D01*
X163915422Y-75290609D01*
X163944752Y-75254871D01*
X164028014Y-75153414D01*
X164129471Y-75070152D01*
X164165209Y-75040822D01*
X164321734Y-74957157D01*
X164491573Y-74905637D01*
X164557758Y-74899118D01*
X164623940Y-74892600D01*
X164712460Y-74892600D01*
X164778642Y-74899118D01*
X164778642Y-74899118D01*
G37*
G36*
X169858642Y-74899118D02*
G01*
X169924827Y-74905637D01*
X170094666Y-74957157D01*
X170251191Y-75040822D01*
X170286929Y-75070152D01*
X170388386Y-75153414D01*
X170471648Y-75254871D01*
X170500978Y-75290609D01*
X170584643Y-75447134D01*
X170636163Y-75616973D01*
X170653559Y-75793600D01*
X170636163Y-75970227D01*
X170584643Y-76140066D01*
X170500978Y-76296591D01*
X170471648Y-76332329D01*
X170388386Y-76433786D01*
X170286929Y-76517048D01*
X170251191Y-76546378D01*
X170094666Y-76630043D01*
X169924827Y-76681563D01*
X169858642Y-76688082D01*
X169792460Y-76694600D01*
X169703940Y-76694600D01*
X169637758Y-76688082D01*
X169571573Y-76681563D01*
X169401734Y-76630043D01*
X169245209Y-76546378D01*
X169209471Y-76517048D01*
X169108014Y-76433786D01*
X169024752Y-76332329D01*
X168995422Y-76296591D01*
X168911757Y-76140066D01*
X168860237Y-75970227D01*
X168842841Y-75793600D01*
X168860237Y-75616973D01*
X168911757Y-75447134D01*
X168995422Y-75290609D01*
X169024752Y-75254871D01*
X169108014Y-75153414D01*
X169209471Y-75070152D01*
X169245209Y-75040822D01*
X169401734Y-74957157D01*
X169571573Y-74905637D01*
X169637758Y-74899118D01*
X169703940Y-74892600D01*
X169792460Y-74892600D01*
X169858642Y-74899118D01*
X169858642Y-74899118D01*
G37*
G36*
X172398642Y-74899118D02*
G01*
X172464827Y-74905637D01*
X172634666Y-74957157D01*
X172791191Y-75040822D01*
X172826929Y-75070152D01*
X172928386Y-75153414D01*
X173011648Y-75254871D01*
X173040978Y-75290609D01*
X173124643Y-75447134D01*
X173176163Y-75616973D01*
X173193559Y-75793600D01*
X173176163Y-75970227D01*
X173124643Y-76140066D01*
X173040978Y-76296591D01*
X173011648Y-76332329D01*
X172928386Y-76433786D01*
X172826929Y-76517048D01*
X172791191Y-76546378D01*
X172634666Y-76630043D01*
X172464827Y-76681563D01*
X172398642Y-76688082D01*
X172332460Y-76694600D01*
X172243940Y-76694600D01*
X172177758Y-76688082D01*
X172111573Y-76681563D01*
X171941734Y-76630043D01*
X171785209Y-76546378D01*
X171749471Y-76517048D01*
X171648014Y-76433786D01*
X171564752Y-76332329D01*
X171535422Y-76296591D01*
X171451757Y-76140066D01*
X171400237Y-75970227D01*
X171382841Y-75793600D01*
X171400237Y-75616973D01*
X171451757Y-75447134D01*
X171535422Y-75290609D01*
X171564752Y-75254871D01*
X171648014Y-75153414D01*
X171749471Y-75070152D01*
X171785209Y-75040822D01*
X171941734Y-74957157D01*
X172111573Y-74905637D01*
X172177758Y-74899118D01*
X172243940Y-74892600D01*
X172332460Y-74892600D01*
X172398642Y-74899118D01*
X172398642Y-74899118D01*
G37*
G36*
X137880042Y-74899118D02*
G01*
X137946227Y-74905637D01*
X138116066Y-74957157D01*
X138272591Y-75040822D01*
X138308329Y-75070152D01*
X138409786Y-75153414D01*
X138493048Y-75254871D01*
X138522378Y-75290609D01*
X138606043Y-75447134D01*
X138657563Y-75616973D01*
X138674959Y-75793600D01*
X138657563Y-75970227D01*
X138606043Y-76140066D01*
X138522378Y-76296591D01*
X138493048Y-76332329D01*
X138409786Y-76433786D01*
X138308329Y-76517048D01*
X138272591Y-76546378D01*
X138116066Y-76630043D01*
X137946227Y-76681563D01*
X137880042Y-76688082D01*
X137813860Y-76694600D01*
X137725340Y-76694600D01*
X137659158Y-76688082D01*
X137592973Y-76681563D01*
X137423134Y-76630043D01*
X137266609Y-76546378D01*
X137230871Y-76517048D01*
X137129414Y-76433786D01*
X137046152Y-76332329D01*
X137016822Y-76296591D01*
X136933157Y-76140066D01*
X136881637Y-75970227D01*
X136864241Y-75793600D01*
X136881637Y-75616973D01*
X136933157Y-75447134D01*
X137016822Y-75290609D01*
X137046152Y-75254871D01*
X137129414Y-75153414D01*
X137230871Y-75070152D01*
X137266609Y-75040822D01*
X137423134Y-74957157D01*
X137592973Y-74905637D01*
X137659158Y-74899118D01*
X137725340Y-74892600D01*
X137813860Y-74892600D01*
X137880042Y-74899118D01*
X137880042Y-74899118D01*
G37*
G36*
X141210600Y-76694600D02*
G01*
X139408600Y-76694600D01*
X139408600Y-74892600D01*
X141210600Y-74892600D01*
X141210600Y-76694600D01*
X141210600Y-76694600D01*
G37*
G36*
X142960042Y-74899118D02*
G01*
X143026227Y-74905637D01*
X143196066Y-74957157D01*
X143352591Y-75040822D01*
X143388329Y-75070152D01*
X143489786Y-75153414D01*
X143573048Y-75254871D01*
X143602378Y-75290609D01*
X143686043Y-75447134D01*
X143737563Y-75616973D01*
X143754959Y-75793600D01*
X143737563Y-75970227D01*
X143686043Y-76140066D01*
X143602378Y-76296591D01*
X143573048Y-76332329D01*
X143489786Y-76433786D01*
X143388329Y-76517048D01*
X143352591Y-76546378D01*
X143196066Y-76630043D01*
X143026227Y-76681563D01*
X142960042Y-76688082D01*
X142893860Y-76694600D01*
X142805340Y-76694600D01*
X142739158Y-76688082D01*
X142672973Y-76681563D01*
X142503134Y-76630043D01*
X142346609Y-76546378D01*
X142310871Y-76517048D01*
X142209414Y-76433786D01*
X142126152Y-76332329D01*
X142096822Y-76296591D01*
X142013157Y-76140066D01*
X141961637Y-75970227D01*
X141944241Y-75793600D01*
X141961637Y-75616973D01*
X142013157Y-75447134D01*
X142096822Y-75290609D01*
X142126152Y-75254871D01*
X142209414Y-75153414D01*
X142310871Y-75070152D01*
X142346609Y-75040822D01*
X142503134Y-74957157D01*
X142672973Y-74905637D01*
X142739158Y-74899118D01*
X142805340Y-74892600D01*
X142893860Y-74892600D01*
X142960042Y-74899118D01*
X142960042Y-74899118D01*
G37*
G36*
X145500042Y-74899118D02*
G01*
X145566227Y-74905637D01*
X145736066Y-74957157D01*
X145892591Y-75040822D01*
X145928329Y-75070152D01*
X146029786Y-75153414D01*
X146113048Y-75254871D01*
X146142378Y-75290609D01*
X146226043Y-75447134D01*
X146277563Y-75616973D01*
X146294959Y-75793600D01*
X146277563Y-75970227D01*
X146226043Y-76140066D01*
X146142378Y-76296591D01*
X146113048Y-76332329D01*
X146029786Y-76433786D01*
X145928329Y-76517048D01*
X145892591Y-76546378D01*
X145736066Y-76630043D01*
X145566227Y-76681563D01*
X145500042Y-76688082D01*
X145433860Y-76694600D01*
X145345340Y-76694600D01*
X145279158Y-76688082D01*
X145212973Y-76681563D01*
X145043134Y-76630043D01*
X144886609Y-76546378D01*
X144850871Y-76517048D01*
X144749414Y-76433786D01*
X144666152Y-76332329D01*
X144636822Y-76296591D01*
X144553157Y-76140066D01*
X144501637Y-75970227D01*
X144484241Y-75793600D01*
X144501637Y-75616973D01*
X144553157Y-75447134D01*
X144636822Y-75290609D01*
X144666152Y-75254871D01*
X144749414Y-75153414D01*
X144850871Y-75070152D01*
X144886609Y-75040822D01*
X145043134Y-74957157D01*
X145212973Y-74905637D01*
X145279158Y-74899118D01*
X145345340Y-74892600D01*
X145433860Y-74892600D01*
X145500042Y-74899118D01*
X145500042Y-74899118D01*
G37*
G36*
X148040042Y-74899118D02*
G01*
X148106227Y-74905637D01*
X148276066Y-74957157D01*
X148432591Y-75040822D01*
X148468329Y-75070152D01*
X148569786Y-75153414D01*
X148653048Y-75254871D01*
X148682378Y-75290609D01*
X148766043Y-75447134D01*
X148817563Y-75616973D01*
X148834959Y-75793600D01*
X148817563Y-75970227D01*
X148766043Y-76140066D01*
X148682378Y-76296591D01*
X148653048Y-76332329D01*
X148569786Y-76433786D01*
X148468329Y-76517048D01*
X148432591Y-76546378D01*
X148276066Y-76630043D01*
X148106227Y-76681563D01*
X148040042Y-76688082D01*
X147973860Y-76694600D01*
X147885340Y-76694600D01*
X147819158Y-76688082D01*
X147752973Y-76681563D01*
X147583134Y-76630043D01*
X147426609Y-76546378D01*
X147390871Y-76517048D01*
X147289414Y-76433786D01*
X147206152Y-76332329D01*
X147176822Y-76296591D01*
X147093157Y-76140066D01*
X147041637Y-75970227D01*
X147024241Y-75793600D01*
X147041637Y-75616973D01*
X147093157Y-75447134D01*
X147176822Y-75290609D01*
X147206152Y-75254871D01*
X147289414Y-75153414D01*
X147390871Y-75070152D01*
X147426609Y-75040822D01*
X147583134Y-74957157D01*
X147752973Y-74905637D01*
X147819158Y-74899118D01*
X147885340Y-74892600D01*
X147973860Y-74892600D01*
X148040042Y-74899118D01*
X148040042Y-74899118D01*
G37*
G36*
X150580042Y-74899118D02*
G01*
X150646227Y-74905637D01*
X150816066Y-74957157D01*
X150972591Y-75040822D01*
X151008329Y-75070152D01*
X151109786Y-75153414D01*
X151193048Y-75254871D01*
X151222378Y-75290609D01*
X151306043Y-75447134D01*
X151357563Y-75616973D01*
X151374959Y-75793600D01*
X151357563Y-75970227D01*
X151306043Y-76140066D01*
X151222378Y-76296591D01*
X151193048Y-76332329D01*
X151109786Y-76433786D01*
X151008329Y-76517048D01*
X150972591Y-76546378D01*
X150816066Y-76630043D01*
X150646227Y-76681563D01*
X150580042Y-76688082D01*
X150513860Y-76694600D01*
X150425340Y-76694600D01*
X150359158Y-76688082D01*
X150292973Y-76681563D01*
X150123134Y-76630043D01*
X149966609Y-76546378D01*
X149930871Y-76517048D01*
X149829414Y-76433786D01*
X149746152Y-76332329D01*
X149716822Y-76296591D01*
X149633157Y-76140066D01*
X149581637Y-75970227D01*
X149564241Y-75793600D01*
X149581637Y-75616973D01*
X149633157Y-75447134D01*
X149716822Y-75290609D01*
X149746152Y-75254871D01*
X149829414Y-75153414D01*
X149930871Y-75070152D01*
X149966609Y-75040822D01*
X150123134Y-74957157D01*
X150292973Y-74905637D01*
X150359158Y-74899118D01*
X150425340Y-74892600D01*
X150513860Y-74892600D01*
X150580042Y-74899118D01*
X150580042Y-74899118D01*
G37*
G36*
X153120042Y-74899118D02*
G01*
X153186227Y-74905637D01*
X153356066Y-74957157D01*
X153512591Y-75040822D01*
X153548329Y-75070152D01*
X153649786Y-75153414D01*
X153733048Y-75254871D01*
X153762378Y-75290609D01*
X153846043Y-75447134D01*
X153897563Y-75616973D01*
X153914959Y-75793600D01*
X153897563Y-75970227D01*
X153846043Y-76140066D01*
X153762378Y-76296591D01*
X153733048Y-76332329D01*
X153649786Y-76433786D01*
X153548329Y-76517048D01*
X153512591Y-76546378D01*
X153356066Y-76630043D01*
X153186227Y-76681563D01*
X153120042Y-76688082D01*
X153053860Y-76694600D01*
X152965340Y-76694600D01*
X152899158Y-76688082D01*
X152832973Y-76681563D01*
X152663134Y-76630043D01*
X152506609Y-76546378D01*
X152470871Y-76517048D01*
X152369414Y-76433786D01*
X152286152Y-76332329D01*
X152256822Y-76296591D01*
X152173157Y-76140066D01*
X152121637Y-75970227D01*
X152104241Y-75793600D01*
X152121637Y-75616973D01*
X152173157Y-75447134D01*
X152256822Y-75290609D01*
X152286152Y-75254871D01*
X152369414Y-75153414D01*
X152470871Y-75070152D01*
X152506609Y-75040822D01*
X152663134Y-74957157D01*
X152832973Y-74905637D01*
X152899158Y-74899118D01*
X152965340Y-74892600D01*
X153053860Y-74892600D01*
X153120042Y-74899118D01*
X153120042Y-74899118D01*
G37*
G36*
X155660042Y-74899118D02*
G01*
X155726227Y-74905637D01*
X155896066Y-74957157D01*
X156052591Y-75040822D01*
X156088329Y-75070152D01*
X156189786Y-75153414D01*
X156273048Y-75254871D01*
X156302378Y-75290609D01*
X156386043Y-75447134D01*
X156437563Y-75616973D01*
X156454959Y-75793600D01*
X156437563Y-75970227D01*
X156386043Y-76140066D01*
X156302378Y-76296591D01*
X156273048Y-76332329D01*
X156189786Y-76433786D01*
X156088329Y-76517048D01*
X156052591Y-76546378D01*
X155896066Y-76630043D01*
X155726227Y-76681563D01*
X155660042Y-76688082D01*
X155593860Y-76694600D01*
X155505340Y-76694600D01*
X155439158Y-76688082D01*
X155372973Y-76681563D01*
X155203134Y-76630043D01*
X155046609Y-76546378D01*
X155010871Y-76517048D01*
X154909414Y-76433786D01*
X154826152Y-76332329D01*
X154796822Y-76296591D01*
X154713157Y-76140066D01*
X154661637Y-75970227D01*
X154644241Y-75793600D01*
X154661637Y-75616973D01*
X154713157Y-75447134D01*
X154796822Y-75290609D01*
X154826152Y-75254871D01*
X154909414Y-75153414D01*
X155010871Y-75070152D01*
X155046609Y-75040822D01*
X155203134Y-74957157D01*
X155372973Y-74905637D01*
X155439158Y-74899118D01*
X155505340Y-74892600D01*
X155593860Y-74892600D01*
X155660042Y-74899118D01*
X155660042Y-74899118D01*
G37*
G36*
X158200042Y-74899118D02*
G01*
X158266227Y-74905637D01*
X158436066Y-74957157D01*
X158592591Y-75040822D01*
X158628329Y-75070152D01*
X158729786Y-75153414D01*
X158813048Y-75254871D01*
X158842378Y-75290609D01*
X158926043Y-75447134D01*
X158977563Y-75616973D01*
X158994959Y-75793600D01*
X158977563Y-75970227D01*
X158926043Y-76140066D01*
X158842378Y-76296591D01*
X158813048Y-76332329D01*
X158729786Y-76433786D01*
X158628329Y-76517048D01*
X158592591Y-76546378D01*
X158436066Y-76630043D01*
X158266227Y-76681563D01*
X158200042Y-76688082D01*
X158133860Y-76694600D01*
X158045340Y-76694600D01*
X157979158Y-76688082D01*
X157912973Y-76681563D01*
X157743134Y-76630043D01*
X157586609Y-76546378D01*
X157550871Y-76517048D01*
X157449414Y-76433786D01*
X157366152Y-76332329D01*
X157336822Y-76296591D01*
X157253157Y-76140066D01*
X157201637Y-75970227D01*
X157184241Y-75793600D01*
X157201637Y-75616973D01*
X157253157Y-75447134D01*
X157336822Y-75290609D01*
X157366152Y-75254871D01*
X157449414Y-75153414D01*
X157550871Y-75070152D01*
X157586609Y-75040822D01*
X157743134Y-74957157D01*
X157912973Y-74905637D01*
X157979158Y-74899118D01*
X158045340Y-74892600D01*
X158133860Y-74892600D01*
X158200042Y-74899118D01*
X158200042Y-74899118D01*
G37*
G36*
X161530600Y-76694600D02*
G01*
X159728600Y-76694600D01*
X159728600Y-74892600D01*
X161530600Y-74892600D01*
X161530600Y-76694600D01*
X161530600Y-76694600D01*
G37*
G36*
X174938642Y-74899118D02*
G01*
X175004827Y-74905637D01*
X175174666Y-74957157D01*
X175331191Y-75040822D01*
X175366929Y-75070152D01*
X175468386Y-75153414D01*
X175551648Y-75254871D01*
X175580978Y-75290609D01*
X175664643Y-75447134D01*
X175716163Y-75616973D01*
X175733559Y-75793600D01*
X175716163Y-75970227D01*
X175664643Y-76140066D01*
X175580978Y-76296591D01*
X175551648Y-76332329D01*
X175468386Y-76433786D01*
X175366929Y-76517048D01*
X175331191Y-76546378D01*
X175174666Y-76630043D01*
X175004827Y-76681563D01*
X174938642Y-76688082D01*
X174872460Y-76694600D01*
X174783940Y-76694600D01*
X174717758Y-76688082D01*
X174651573Y-76681563D01*
X174481734Y-76630043D01*
X174325209Y-76546378D01*
X174289471Y-76517048D01*
X174188014Y-76433786D01*
X174104752Y-76332329D01*
X174075422Y-76296591D01*
X173991757Y-76140066D01*
X173940237Y-75970227D01*
X173922841Y-75793600D01*
X173940237Y-75616973D01*
X173991757Y-75447134D01*
X174075422Y-75290609D01*
X174104752Y-75254871D01*
X174188014Y-75153414D01*
X174289471Y-75070152D01*
X174325209Y-75040822D01*
X174481734Y-74957157D01*
X174651573Y-74905637D01*
X174717758Y-74899118D01*
X174783940Y-74892600D01*
X174872460Y-74892600D01*
X174938642Y-74899118D01*
X174938642Y-74899118D01*
G37*
G36*
X177478642Y-74899118D02*
G01*
X177544827Y-74905637D01*
X177714666Y-74957157D01*
X177871191Y-75040822D01*
X177906929Y-75070152D01*
X178008386Y-75153414D01*
X178091648Y-75254871D01*
X178120978Y-75290609D01*
X178204643Y-75447134D01*
X178256163Y-75616973D01*
X178273559Y-75793600D01*
X178256163Y-75970227D01*
X178204643Y-76140066D01*
X178120978Y-76296591D01*
X178091648Y-76332329D01*
X178008386Y-76433786D01*
X177906929Y-76517048D01*
X177871191Y-76546378D01*
X177714666Y-76630043D01*
X177544827Y-76681563D01*
X177478642Y-76688082D01*
X177412460Y-76694600D01*
X177323940Y-76694600D01*
X177257758Y-76688082D01*
X177191573Y-76681563D01*
X177021734Y-76630043D01*
X176865209Y-76546378D01*
X176829471Y-76517048D01*
X176728014Y-76433786D01*
X176644752Y-76332329D01*
X176615422Y-76296591D01*
X176531757Y-76140066D01*
X176480237Y-75970227D01*
X176462841Y-75793600D01*
X176480237Y-75616973D01*
X176531757Y-75447134D01*
X176615422Y-75290609D01*
X176644752Y-75254871D01*
X176728014Y-75153414D01*
X176829471Y-75070152D01*
X176865209Y-75040822D01*
X177021734Y-74957157D01*
X177191573Y-74905637D01*
X177257758Y-74899118D01*
X177323940Y-74892600D01*
X177412460Y-74892600D01*
X177478642Y-74899118D01*
X177478642Y-74899118D01*
G37*
G36*
X180018642Y-74899118D02*
G01*
X180084827Y-74905637D01*
X180254666Y-74957157D01*
X180411191Y-75040822D01*
X180446929Y-75070152D01*
X180548386Y-75153414D01*
X180631648Y-75254871D01*
X180660978Y-75290609D01*
X180744643Y-75447134D01*
X180796163Y-75616973D01*
X180813559Y-75793600D01*
X180796163Y-75970227D01*
X180744643Y-76140066D01*
X180660978Y-76296591D01*
X180631648Y-76332329D01*
X180548386Y-76433786D01*
X180446929Y-76517048D01*
X180411191Y-76546378D01*
X180254666Y-76630043D01*
X180084827Y-76681563D01*
X180018642Y-76688082D01*
X179952460Y-76694600D01*
X179863940Y-76694600D01*
X179797758Y-76688082D01*
X179731573Y-76681563D01*
X179561734Y-76630043D01*
X179405209Y-76546378D01*
X179369471Y-76517048D01*
X179268014Y-76433786D01*
X179184752Y-76332329D01*
X179155422Y-76296591D01*
X179071757Y-76140066D01*
X179020237Y-75970227D01*
X179002841Y-75793600D01*
X179020237Y-75616973D01*
X179071757Y-75447134D01*
X179155422Y-75290609D01*
X179184752Y-75254871D01*
X179268014Y-75153414D01*
X179369471Y-75070152D01*
X179405209Y-75040822D01*
X179561734Y-74957157D01*
X179731573Y-74905637D01*
X179797758Y-74899118D01*
X179863940Y-74892600D01*
X179952460Y-74892600D01*
X180018642Y-74899118D01*
X180018642Y-74899118D01*
G37*
G36*
X183349200Y-76694600D02*
G01*
X181547200Y-76694600D01*
X181547200Y-74892600D01*
X183349200Y-74892600D01*
X183349200Y-76694600D01*
X183349200Y-76694600D01*
G37*
M02*
