G04 #@! TF.GenerationSoftware,KiCad,Pcbnew,(5.1.4-0-10_14)*
G04 #@! TF.CreationDate,2020-06-11T20:45:35+02:00*
G04 #@! TF.ProjectId,zArduino,7a417264-7569-46e6-9f2e-6b696361645f,rev?*
G04 #@! TF.SameCoordinates,Original*
G04 #@! TF.FileFunction,Soldermask,Bot*
G04 #@! TF.FilePolarity,Negative*
%FSLAX46Y46*%
G04 Gerber Fmt 4.6, Leading zero omitted, Abs format (unit mm)*
G04 Created by KiCad (PCBNEW (5.1.4-0-10_14)) date 2020-06-11 20:45:35*
%MOMM*%
%LPD*%
G04 APERTURE LIST*
%ADD10C,0.100000*%
G04 APERTURE END LIST*
D10*
G36*
X182584042Y-123159118D02*
G01*
X182650227Y-123165637D01*
X182820066Y-123217157D01*
X182976591Y-123300822D01*
X183012329Y-123330152D01*
X183113786Y-123413414D01*
X183197048Y-123514871D01*
X183226378Y-123550609D01*
X183310043Y-123707134D01*
X183361563Y-123876973D01*
X183378959Y-124053600D01*
X183361563Y-124230227D01*
X183310043Y-124400066D01*
X183226378Y-124556591D01*
X183197048Y-124592329D01*
X183113786Y-124693786D01*
X183012329Y-124777048D01*
X182976591Y-124806378D01*
X182820066Y-124890043D01*
X182650227Y-124941563D01*
X182584043Y-124948081D01*
X182517860Y-124954600D01*
X182429340Y-124954600D01*
X182363157Y-124948081D01*
X182296973Y-124941563D01*
X182127134Y-124890043D01*
X181970609Y-124806378D01*
X181934871Y-124777048D01*
X181833414Y-124693786D01*
X181750152Y-124592329D01*
X181720822Y-124556591D01*
X181637157Y-124400066D01*
X181585637Y-124230227D01*
X181568241Y-124053600D01*
X181585637Y-123876973D01*
X181637157Y-123707134D01*
X181720822Y-123550609D01*
X181750152Y-123514871D01*
X181833414Y-123413414D01*
X181934871Y-123330152D01*
X181970609Y-123300822D01*
X182127134Y-123217157D01*
X182296973Y-123165637D01*
X182363158Y-123159118D01*
X182429340Y-123152600D01*
X182517860Y-123152600D01*
X182584042Y-123159118D01*
X182584042Y-123159118D01*
G37*
G36*
X180044042Y-123159118D02*
G01*
X180110227Y-123165637D01*
X180280066Y-123217157D01*
X180436591Y-123300822D01*
X180472329Y-123330152D01*
X180573786Y-123413414D01*
X180657048Y-123514871D01*
X180686378Y-123550609D01*
X180770043Y-123707134D01*
X180821563Y-123876973D01*
X180838959Y-124053600D01*
X180821563Y-124230227D01*
X180770043Y-124400066D01*
X180686378Y-124556591D01*
X180657048Y-124592329D01*
X180573786Y-124693786D01*
X180472329Y-124777048D01*
X180436591Y-124806378D01*
X180280066Y-124890043D01*
X180110227Y-124941563D01*
X180044043Y-124948081D01*
X179977860Y-124954600D01*
X179889340Y-124954600D01*
X179823157Y-124948081D01*
X179756973Y-124941563D01*
X179587134Y-124890043D01*
X179430609Y-124806378D01*
X179394871Y-124777048D01*
X179293414Y-124693786D01*
X179210152Y-124592329D01*
X179180822Y-124556591D01*
X179097157Y-124400066D01*
X179045637Y-124230227D01*
X179028241Y-124053600D01*
X179045637Y-123876973D01*
X179097157Y-123707134D01*
X179180822Y-123550609D01*
X179210152Y-123514871D01*
X179293414Y-123413414D01*
X179394871Y-123330152D01*
X179430609Y-123300822D01*
X179587134Y-123217157D01*
X179756973Y-123165637D01*
X179823158Y-123159118D01*
X179889340Y-123152600D01*
X179977860Y-123152600D01*
X180044042Y-123159118D01*
X180044042Y-123159118D01*
G37*
G36*
X177504042Y-123159118D02*
G01*
X177570227Y-123165637D01*
X177740066Y-123217157D01*
X177896591Y-123300822D01*
X177932329Y-123330152D01*
X178033786Y-123413414D01*
X178117048Y-123514871D01*
X178146378Y-123550609D01*
X178230043Y-123707134D01*
X178281563Y-123876973D01*
X178298959Y-124053600D01*
X178281563Y-124230227D01*
X178230043Y-124400066D01*
X178146378Y-124556591D01*
X178117048Y-124592329D01*
X178033786Y-124693786D01*
X177932329Y-124777048D01*
X177896591Y-124806378D01*
X177740066Y-124890043D01*
X177570227Y-124941563D01*
X177504043Y-124948081D01*
X177437860Y-124954600D01*
X177349340Y-124954600D01*
X177283157Y-124948081D01*
X177216973Y-124941563D01*
X177047134Y-124890043D01*
X176890609Y-124806378D01*
X176854871Y-124777048D01*
X176753414Y-124693786D01*
X176670152Y-124592329D01*
X176640822Y-124556591D01*
X176557157Y-124400066D01*
X176505637Y-124230227D01*
X176488241Y-124053600D01*
X176505637Y-123876973D01*
X176557157Y-123707134D01*
X176640822Y-123550609D01*
X176670152Y-123514871D01*
X176753414Y-123413414D01*
X176854871Y-123330152D01*
X176890609Y-123300822D01*
X177047134Y-123217157D01*
X177216973Y-123165637D01*
X177283158Y-123159118D01*
X177349340Y-123152600D01*
X177437860Y-123152600D01*
X177504042Y-123159118D01*
X177504042Y-123159118D01*
G37*
G36*
X174964042Y-123159118D02*
G01*
X175030227Y-123165637D01*
X175200066Y-123217157D01*
X175356591Y-123300822D01*
X175392329Y-123330152D01*
X175493786Y-123413414D01*
X175577048Y-123514871D01*
X175606378Y-123550609D01*
X175690043Y-123707134D01*
X175741563Y-123876973D01*
X175758959Y-124053600D01*
X175741563Y-124230227D01*
X175690043Y-124400066D01*
X175606378Y-124556591D01*
X175577048Y-124592329D01*
X175493786Y-124693786D01*
X175392329Y-124777048D01*
X175356591Y-124806378D01*
X175200066Y-124890043D01*
X175030227Y-124941563D01*
X174964043Y-124948081D01*
X174897860Y-124954600D01*
X174809340Y-124954600D01*
X174743157Y-124948081D01*
X174676973Y-124941563D01*
X174507134Y-124890043D01*
X174350609Y-124806378D01*
X174314871Y-124777048D01*
X174213414Y-124693786D01*
X174130152Y-124592329D01*
X174100822Y-124556591D01*
X174017157Y-124400066D01*
X173965637Y-124230227D01*
X173948241Y-124053600D01*
X173965637Y-123876973D01*
X174017157Y-123707134D01*
X174100822Y-123550609D01*
X174130152Y-123514871D01*
X174213414Y-123413414D01*
X174314871Y-123330152D01*
X174350609Y-123300822D01*
X174507134Y-123217157D01*
X174676973Y-123165637D01*
X174743158Y-123159118D01*
X174809340Y-123152600D01*
X174897860Y-123152600D01*
X174964042Y-123159118D01*
X174964042Y-123159118D01*
G37*
G36*
X172424042Y-123159118D02*
G01*
X172490227Y-123165637D01*
X172660066Y-123217157D01*
X172816591Y-123300822D01*
X172852329Y-123330152D01*
X172953786Y-123413414D01*
X173037048Y-123514871D01*
X173066378Y-123550609D01*
X173150043Y-123707134D01*
X173201563Y-123876973D01*
X173218959Y-124053600D01*
X173201563Y-124230227D01*
X173150043Y-124400066D01*
X173066378Y-124556591D01*
X173037048Y-124592329D01*
X172953786Y-124693786D01*
X172852329Y-124777048D01*
X172816591Y-124806378D01*
X172660066Y-124890043D01*
X172490227Y-124941563D01*
X172424043Y-124948081D01*
X172357860Y-124954600D01*
X172269340Y-124954600D01*
X172203157Y-124948081D01*
X172136973Y-124941563D01*
X171967134Y-124890043D01*
X171810609Y-124806378D01*
X171774871Y-124777048D01*
X171673414Y-124693786D01*
X171590152Y-124592329D01*
X171560822Y-124556591D01*
X171477157Y-124400066D01*
X171425637Y-124230227D01*
X171408241Y-124053600D01*
X171425637Y-123876973D01*
X171477157Y-123707134D01*
X171560822Y-123550609D01*
X171590152Y-123514871D01*
X171673414Y-123413414D01*
X171774871Y-123330152D01*
X171810609Y-123300822D01*
X171967134Y-123217157D01*
X172136973Y-123165637D01*
X172203158Y-123159118D01*
X172269340Y-123152600D01*
X172357860Y-123152600D01*
X172424042Y-123159118D01*
X172424042Y-123159118D01*
G37*
G36*
X170674600Y-124954600D02*
G01*
X168872600Y-124954600D01*
X168872600Y-123152600D01*
X170674600Y-123152600D01*
X170674600Y-124954600D01*
X170674600Y-124954600D01*
G37*
G36*
X164778642Y-123159118D02*
G01*
X164844827Y-123165637D01*
X165014666Y-123217157D01*
X165171191Y-123300822D01*
X165206929Y-123330152D01*
X165308386Y-123413414D01*
X165391648Y-123514871D01*
X165420978Y-123550609D01*
X165504643Y-123707134D01*
X165556163Y-123876973D01*
X165573559Y-124053600D01*
X165556163Y-124230227D01*
X165504643Y-124400066D01*
X165420978Y-124556591D01*
X165391648Y-124592329D01*
X165308386Y-124693786D01*
X165206929Y-124777048D01*
X165171191Y-124806378D01*
X165014666Y-124890043D01*
X164844827Y-124941563D01*
X164778643Y-124948081D01*
X164712460Y-124954600D01*
X164623940Y-124954600D01*
X164557757Y-124948081D01*
X164491573Y-124941563D01*
X164321734Y-124890043D01*
X164165209Y-124806378D01*
X164129471Y-124777048D01*
X164028014Y-124693786D01*
X163944752Y-124592329D01*
X163915422Y-124556591D01*
X163831757Y-124400066D01*
X163780237Y-124230227D01*
X163762841Y-124053600D01*
X163780237Y-123876973D01*
X163831757Y-123707134D01*
X163915422Y-123550609D01*
X163944752Y-123514871D01*
X164028014Y-123413414D01*
X164129471Y-123330152D01*
X164165209Y-123300822D01*
X164321734Y-123217157D01*
X164491573Y-123165637D01*
X164557758Y-123159118D01*
X164623940Y-123152600D01*
X164712460Y-123152600D01*
X164778642Y-123159118D01*
X164778642Y-123159118D01*
G37*
G36*
X162238642Y-123159118D02*
G01*
X162304827Y-123165637D01*
X162474666Y-123217157D01*
X162631191Y-123300822D01*
X162666929Y-123330152D01*
X162768386Y-123413414D01*
X162851648Y-123514871D01*
X162880978Y-123550609D01*
X162964643Y-123707134D01*
X163016163Y-123876973D01*
X163033559Y-124053600D01*
X163016163Y-124230227D01*
X162964643Y-124400066D01*
X162880978Y-124556591D01*
X162851648Y-124592329D01*
X162768386Y-124693786D01*
X162666929Y-124777048D01*
X162631191Y-124806378D01*
X162474666Y-124890043D01*
X162304827Y-124941563D01*
X162238643Y-124948081D01*
X162172460Y-124954600D01*
X162083940Y-124954600D01*
X162017757Y-124948081D01*
X161951573Y-124941563D01*
X161781734Y-124890043D01*
X161625209Y-124806378D01*
X161589471Y-124777048D01*
X161488014Y-124693786D01*
X161404752Y-124592329D01*
X161375422Y-124556591D01*
X161291757Y-124400066D01*
X161240237Y-124230227D01*
X161222841Y-124053600D01*
X161240237Y-123876973D01*
X161291757Y-123707134D01*
X161375422Y-123550609D01*
X161404752Y-123514871D01*
X161488014Y-123413414D01*
X161589471Y-123330152D01*
X161625209Y-123300822D01*
X161781734Y-123217157D01*
X161951573Y-123165637D01*
X162017758Y-123159118D01*
X162083940Y-123152600D01*
X162172460Y-123152600D01*
X162238642Y-123159118D01*
X162238642Y-123159118D01*
G37*
G36*
X159698642Y-123159118D02*
G01*
X159764827Y-123165637D01*
X159934666Y-123217157D01*
X160091191Y-123300822D01*
X160126929Y-123330152D01*
X160228386Y-123413414D01*
X160311648Y-123514871D01*
X160340978Y-123550609D01*
X160424643Y-123707134D01*
X160476163Y-123876973D01*
X160493559Y-124053600D01*
X160476163Y-124230227D01*
X160424643Y-124400066D01*
X160340978Y-124556591D01*
X160311648Y-124592329D01*
X160228386Y-124693786D01*
X160126929Y-124777048D01*
X160091191Y-124806378D01*
X159934666Y-124890043D01*
X159764827Y-124941563D01*
X159698643Y-124948081D01*
X159632460Y-124954600D01*
X159543940Y-124954600D01*
X159477757Y-124948081D01*
X159411573Y-124941563D01*
X159241734Y-124890043D01*
X159085209Y-124806378D01*
X159049471Y-124777048D01*
X158948014Y-124693786D01*
X158864752Y-124592329D01*
X158835422Y-124556591D01*
X158751757Y-124400066D01*
X158700237Y-124230227D01*
X158682841Y-124053600D01*
X158700237Y-123876973D01*
X158751757Y-123707134D01*
X158835422Y-123550609D01*
X158864752Y-123514871D01*
X158948014Y-123413414D01*
X159049471Y-123330152D01*
X159085209Y-123300822D01*
X159241734Y-123217157D01*
X159411573Y-123165637D01*
X159477758Y-123159118D01*
X159543940Y-123152600D01*
X159632460Y-123152600D01*
X159698642Y-123159118D01*
X159698642Y-123159118D01*
G37*
G36*
X157158642Y-123159118D02*
G01*
X157224827Y-123165637D01*
X157394666Y-123217157D01*
X157551191Y-123300822D01*
X157586929Y-123330152D01*
X157688386Y-123413414D01*
X157771648Y-123514871D01*
X157800978Y-123550609D01*
X157884643Y-123707134D01*
X157936163Y-123876973D01*
X157953559Y-124053600D01*
X157936163Y-124230227D01*
X157884643Y-124400066D01*
X157800978Y-124556591D01*
X157771648Y-124592329D01*
X157688386Y-124693786D01*
X157586929Y-124777048D01*
X157551191Y-124806378D01*
X157394666Y-124890043D01*
X157224827Y-124941563D01*
X157158643Y-124948081D01*
X157092460Y-124954600D01*
X157003940Y-124954600D01*
X156937757Y-124948081D01*
X156871573Y-124941563D01*
X156701734Y-124890043D01*
X156545209Y-124806378D01*
X156509471Y-124777048D01*
X156408014Y-124693786D01*
X156324752Y-124592329D01*
X156295422Y-124556591D01*
X156211757Y-124400066D01*
X156160237Y-124230227D01*
X156142841Y-124053600D01*
X156160237Y-123876973D01*
X156211757Y-123707134D01*
X156295422Y-123550609D01*
X156324752Y-123514871D01*
X156408014Y-123413414D01*
X156509471Y-123330152D01*
X156545209Y-123300822D01*
X156701734Y-123217157D01*
X156871573Y-123165637D01*
X156937758Y-123159118D01*
X157003940Y-123152600D01*
X157092460Y-123152600D01*
X157158642Y-123159118D01*
X157158642Y-123159118D01*
G37*
G36*
X154618642Y-123159118D02*
G01*
X154684827Y-123165637D01*
X154854666Y-123217157D01*
X155011191Y-123300822D01*
X155046929Y-123330152D01*
X155148386Y-123413414D01*
X155231648Y-123514871D01*
X155260978Y-123550609D01*
X155344643Y-123707134D01*
X155396163Y-123876973D01*
X155413559Y-124053600D01*
X155396163Y-124230227D01*
X155344643Y-124400066D01*
X155260978Y-124556591D01*
X155231648Y-124592329D01*
X155148386Y-124693786D01*
X155046929Y-124777048D01*
X155011191Y-124806378D01*
X154854666Y-124890043D01*
X154684827Y-124941563D01*
X154618643Y-124948081D01*
X154552460Y-124954600D01*
X154463940Y-124954600D01*
X154397757Y-124948081D01*
X154331573Y-124941563D01*
X154161734Y-124890043D01*
X154005209Y-124806378D01*
X153969471Y-124777048D01*
X153868014Y-124693786D01*
X153784752Y-124592329D01*
X153755422Y-124556591D01*
X153671757Y-124400066D01*
X153620237Y-124230227D01*
X153602841Y-124053600D01*
X153620237Y-123876973D01*
X153671757Y-123707134D01*
X153755422Y-123550609D01*
X153784752Y-123514871D01*
X153868014Y-123413414D01*
X153969471Y-123330152D01*
X154005209Y-123300822D01*
X154161734Y-123217157D01*
X154331573Y-123165637D01*
X154397758Y-123159118D01*
X154463940Y-123152600D01*
X154552460Y-123152600D01*
X154618642Y-123159118D01*
X154618642Y-123159118D01*
G37*
G36*
X152869200Y-124954600D02*
G01*
X151067200Y-124954600D01*
X151067200Y-123152600D01*
X152869200Y-123152600D01*
X152869200Y-124954600D01*
X152869200Y-124954600D01*
G37*
G36*
X127572425Y-123014160D02*
G01*
X127572428Y-123014161D01*
X127572429Y-123014161D01*
X127751693Y-123068540D01*
X127751696Y-123068542D01*
X127751697Y-123068542D01*
X127916903Y-123156846D01*
X128061712Y-123275688D01*
X128180554Y-123420497D01*
X128250100Y-123550609D01*
X128268860Y-123585707D01*
X128305694Y-123707134D01*
X128323240Y-123764975D01*
X128341601Y-123951400D01*
X128323240Y-124137825D01*
X128323239Y-124137828D01*
X128323239Y-124137829D01*
X128268860Y-124317093D01*
X128268858Y-124317096D01*
X128268858Y-124317097D01*
X128180554Y-124482303D01*
X128061712Y-124627112D01*
X127916903Y-124745954D01*
X127751697Y-124834258D01*
X127751693Y-124834260D01*
X127572429Y-124888639D01*
X127572428Y-124888639D01*
X127572425Y-124888640D01*
X127432718Y-124902400D01*
X125139282Y-124902400D01*
X124999575Y-124888640D01*
X124999572Y-124888639D01*
X124999571Y-124888639D01*
X124820307Y-124834260D01*
X124820303Y-124834258D01*
X124655097Y-124745954D01*
X124510288Y-124627112D01*
X124391446Y-124482303D01*
X124303142Y-124317097D01*
X124303142Y-124317096D01*
X124303140Y-124317093D01*
X124248761Y-124137829D01*
X124248761Y-124137828D01*
X124248760Y-124137825D01*
X124230399Y-123951400D01*
X124248760Y-123764975D01*
X124266306Y-123707134D01*
X124303140Y-123585707D01*
X124321900Y-123550609D01*
X124391446Y-123420497D01*
X124510288Y-123275688D01*
X124655097Y-123156846D01*
X124820303Y-123068542D01*
X124820304Y-123068542D01*
X124820307Y-123068540D01*
X124999571Y-123014161D01*
X124999572Y-123014161D01*
X124999575Y-123014160D01*
X125139282Y-123000400D01*
X127432718Y-123000400D01*
X127572425Y-123014160D01*
X127572425Y-123014160D01*
G37*
G36*
X130237000Y-121402400D02*
G01*
X128335000Y-121402400D01*
X128335000Y-116900400D01*
X130237000Y-116900400D01*
X130237000Y-121402400D01*
X130237000Y-121402400D01*
G37*
G36*
X123672425Y-117114160D02*
G01*
X123672428Y-117114161D01*
X123672429Y-117114161D01*
X123851693Y-117168540D01*
X123851696Y-117168542D01*
X123851697Y-117168542D01*
X124016903Y-117256846D01*
X124161712Y-117375688D01*
X124280554Y-117520497D01*
X124368858Y-117685703D01*
X124368860Y-117685707D01*
X124423239Y-117864971D01*
X124423240Y-117864975D01*
X124437000Y-118004682D01*
X124437000Y-120298118D01*
X124423240Y-120437825D01*
X124423239Y-120437828D01*
X124423239Y-120437829D01*
X124368860Y-120617093D01*
X124368858Y-120617096D01*
X124368858Y-120617097D01*
X124280554Y-120782303D01*
X124161712Y-120927112D01*
X124016903Y-121045954D01*
X123851696Y-121134258D01*
X123851692Y-121134260D01*
X123672428Y-121188639D01*
X123672427Y-121188639D01*
X123672424Y-121188640D01*
X123486000Y-121207001D01*
X123299575Y-121188640D01*
X123299572Y-121188639D01*
X123299571Y-121188639D01*
X123120307Y-121134260D01*
X123120303Y-121134258D01*
X122955097Y-121045954D01*
X122810288Y-120927112D01*
X122691446Y-120782303D01*
X122603142Y-120617096D01*
X122603141Y-120617093D01*
X122603140Y-120617092D01*
X122548761Y-120437828D01*
X122548761Y-120437827D01*
X122548760Y-120437824D01*
X122535000Y-120298117D01*
X122535001Y-118004682D01*
X122548761Y-117864975D01*
X122548762Y-117864971D01*
X122603141Y-117685707D01*
X122603143Y-117685703D01*
X122691447Y-117520497D01*
X122810289Y-117375688D01*
X122955098Y-117256846D01*
X123120304Y-117168542D01*
X123120305Y-117168542D01*
X123120308Y-117168540D01*
X123299572Y-117114161D01*
X123299573Y-117114161D01*
X123299576Y-117114160D01*
X123486000Y-117095799D01*
X123672425Y-117114160D01*
X123672425Y-117114160D01*
G37*
G36*
X171362823Y-113816913D02*
G01*
X171523242Y-113865576D01*
X171655906Y-113936486D01*
X171671078Y-113944596D01*
X171800659Y-114050941D01*
X171907004Y-114180522D01*
X171907005Y-114180524D01*
X171986024Y-114328358D01*
X172034687Y-114488777D01*
X172051117Y-114655600D01*
X172034687Y-114822423D01*
X171986024Y-114982842D01*
X171915114Y-115115506D01*
X171907004Y-115130678D01*
X171800659Y-115260259D01*
X171671078Y-115366604D01*
X171671076Y-115366605D01*
X171523242Y-115445624D01*
X171362823Y-115494287D01*
X171237804Y-115506600D01*
X171154196Y-115506600D01*
X171029177Y-115494287D01*
X170868758Y-115445624D01*
X170720924Y-115366605D01*
X170720922Y-115366604D01*
X170591341Y-115260259D01*
X170484996Y-115130678D01*
X170476886Y-115115506D01*
X170405976Y-114982842D01*
X170357313Y-114822423D01*
X170340883Y-114655600D01*
X170357313Y-114488777D01*
X170405976Y-114328358D01*
X170484995Y-114180524D01*
X170484996Y-114180522D01*
X170591341Y-114050941D01*
X170720922Y-113944596D01*
X170736094Y-113936486D01*
X170868758Y-113865576D01*
X171029177Y-113816913D01*
X171154196Y-113804600D01*
X171237804Y-113804600D01*
X171362823Y-113816913D01*
X171362823Y-113816913D01*
G37*
G36*
X168822823Y-113816913D02*
G01*
X168983242Y-113865576D01*
X169115906Y-113936486D01*
X169131078Y-113944596D01*
X169260659Y-114050941D01*
X169367004Y-114180522D01*
X169367005Y-114180524D01*
X169446024Y-114328358D01*
X169494687Y-114488777D01*
X169511117Y-114655600D01*
X169494687Y-114822423D01*
X169446024Y-114982842D01*
X169375114Y-115115506D01*
X169367004Y-115130678D01*
X169260659Y-115260259D01*
X169131078Y-115366604D01*
X169131076Y-115366605D01*
X168983242Y-115445624D01*
X168822823Y-115494287D01*
X168697804Y-115506600D01*
X168614196Y-115506600D01*
X168489177Y-115494287D01*
X168328758Y-115445624D01*
X168180924Y-115366605D01*
X168180922Y-115366604D01*
X168051341Y-115260259D01*
X167944996Y-115130678D01*
X167936886Y-115115506D01*
X167865976Y-114982842D01*
X167817313Y-114822423D01*
X167800883Y-114655600D01*
X167817313Y-114488777D01*
X167865976Y-114328358D01*
X167944995Y-114180524D01*
X167944996Y-114180522D01*
X168051341Y-114050941D01*
X168180922Y-113944596D01*
X168196094Y-113936486D01*
X168328758Y-113865576D01*
X168489177Y-113816913D01*
X168614196Y-113804600D01*
X168697804Y-113804600D01*
X168822823Y-113816913D01*
X168822823Y-113816913D01*
G37*
G36*
X181522823Y-113816913D02*
G01*
X181683242Y-113865576D01*
X181815906Y-113936486D01*
X181831078Y-113944596D01*
X181960659Y-114050941D01*
X182067004Y-114180522D01*
X182067005Y-114180524D01*
X182146024Y-114328358D01*
X182194687Y-114488777D01*
X182211117Y-114655600D01*
X182194687Y-114822423D01*
X182146024Y-114982842D01*
X182075114Y-115115506D01*
X182067004Y-115130678D01*
X181960659Y-115260259D01*
X181831078Y-115366604D01*
X181831076Y-115366605D01*
X181683242Y-115445624D01*
X181522823Y-115494287D01*
X181397804Y-115506600D01*
X181314196Y-115506600D01*
X181189177Y-115494287D01*
X181028758Y-115445624D01*
X180880924Y-115366605D01*
X180880922Y-115366604D01*
X180751341Y-115260259D01*
X180644996Y-115130678D01*
X180636886Y-115115506D01*
X180565976Y-114982842D01*
X180517313Y-114822423D01*
X180500883Y-114655600D01*
X180517313Y-114488777D01*
X180565976Y-114328358D01*
X180644995Y-114180524D01*
X180644996Y-114180522D01*
X180751341Y-114050941D01*
X180880922Y-113944596D01*
X180896094Y-113936486D01*
X181028758Y-113865576D01*
X181189177Y-113816913D01*
X181314196Y-113804600D01*
X181397804Y-113804600D01*
X181522823Y-113816913D01*
X181522823Y-113816913D01*
G37*
G36*
X178982823Y-113816913D02*
G01*
X179143242Y-113865576D01*
X179275906Y-113936486D01*
X179291078Y-113944596D01*
X179420659Y-114050941D01*
X179527004Y-114180522D01*
X179527005Y-114180524D01*
X179606024Y-114328358D01*
X179654687Y-114488777D01*
X179671117Y-114655600D01*
X179654687Y-114822423D01*
X179606024Y-114982842D01*
X179535114Y-115115506D01*
X179527004Y-115130678D01*
X179420659Y-115260259D01*
X179291078Y-115366604D01*
X179291076Y-115366605D01*
X179143242Y-115445624D01*
X178982823Y-115494287D01*
X178857804Y-115506600D01*
X178774196Y-115506600D01*
X178649177Y-115494287D01*
X178488758Y-115445624D01*
X178340924Y-115366605D01*
X178340922Y-115366604D01*
X178211341Y-115260259D01*
X178104996Y-115130678D01*
X178096886Y-115115506D01*
X178025976Y-114982842D01*
X177977313Y-114822423D01*
X177960883Y-114655600D01*
X177977313Y-114488777D01*
X178025976Y-114328358D01*
X178104995Y-114180524D01*
X178104996Y-114180522D01*
X178211341Y-114050941D01*
X178340922Y-113944596D01*
X178356094Y-113936486D01*
X178488758Y-113865576D01*
X178649177Y-113816913D01*
X178774196Y-113804600D01*
X178857804Y-113804600D01*
X178982823Y-113816913D01*
X178982823Y-113816913D01*
G37*
G36*
X176442823Y-113816913D02*
G01*
X176603242Y-113865576D01*
X176735906Y-113936486D01*
X176751078Y-113944596D01*
X176880659Y-114050941D01*
X176987004Y-114180522D01*
X176987005Y-114180524D01*
X177066024Y-114328358D01*
X177114687Y-114488777D01*
X177131117Y-114655600D01*
X177114687Y-114822423D01*
X177066024Y-114982842D01*
X176995114Y-115115506D01*
X176987004Y-115130678D01*
X176880659Y-115260259D01*
X176751078Y-115366604D01*
X176751076Y-115366605D01*
X176603242Y-115445624D01*
X176442823Y-115494287D01*
X176317804Y-115506600D01*
X176234196Y-115506600D01*
X176109177Y-115494287D01*
X175948758Y-115445624D01*
X175800924Y-115366605D01*
X175800922Y-115366604D01*
X175671341Y-115260259D01*
X175564996Y-115130678D01*
X175556886Y-115115506D01*
X175485976Y-114982842D01*
X175437313Y-114822423D01*
X175420883Y-114655600D01*
X175437313Y-114488777D01*
X175485976Y-114328358D01*
X175564995Y-114180524D01*
X175564996Y-114180522D01*
X175671341Y-114050941D01*
X175800922Y-113944596D01*
X175816094Y-113936486D01*
X175948758Y-113865576D01*
X176109177Y-113816913D01*
X176234196Y-113804600D01*
X176317804Y-113804600D01*
X176442823Y-113816913D01*
X176442823Y-113816913D01*
G37*
G36*
X173902823Y-113816913D02*
G01*
X174063242Y-113865576D01*
X174195906Y-113936486D01*
X174211078Y-113944596D01*
X174340659Y-114050941D01*
X174447004Y-114180522D01*
X174447005Y-114180524D01*
X174526024Y-114328358D01*
X174574687Y-114488777D01*
X174591117Y-114655600D01*
X174574687Y-114822423D01*
X174526024Y-114982842D01*
X174455114Y-115115506D01*
X174447004Y-115130678D01*
X174340659Y-115260259D01*
X174211078Y-115366604D01*
X174211076Y-115366605D01*
X174063242Y-115445624D01*
X173902823Y-115494287D01*
X173777804Y-115506600D01*
X173694196Y-115506600D01*
X173569177Y-115494287D01*
X173408758Y-115445624D01*
X173260924Y-115366605D01*
X173260922Y-115366604D01*
X173131341Y-115260259D01*
X173024996Y-115130678D01*
X173016886Y-115115506D01*
X172945976Y-114982842D01*
X172897313Y-114822423D01*
X172880883Y-114655600D01*
X172897313Y-114488777D01*
X172945976Y-114328358D01*
X173024995Y-114180524D01*
X173024996Y-114180522D01*
X173131341Y-114050941D01*
X173260922Y-113944596D01*
X173276094Y-113936486D01*
X173408758Y-113865576D01*
X173569177Y-113816913D01*
X173694196Y-113804600D01*
X173777804Y-113804600D01*
X173902823Y-113816913D01*
X173902823Y-113816913D01*
G37*
G36*
X166282823Y-113816913D02*
G01*
X166443242Y-113865576D01*
X166575906Y-113936486D01*
X166591078Y-113944596D01*
X166720659Y-114050941D01*
X166827004Y-114180522D01*
X166827005Y-114180524D01*
X166906024Y-114328358D01*
X166954687Y-114488777D01*
X166971117Y-114655600D01*
X166954687Y-114822423D01*
X166906024Y-114982842D01*
X166835114Y-115115506D01*
X166827004Y-115130678D01*
X166720659Y-115260259D01*
X166591078Y-115366604D01*
X166591076Y-115366605D01*
X166443242Y-115445624D01*
X166282823Y-115494287D01*
X166157804Y-115506600D01*
X166074196Y-115506600D01*
X165949177Y-115494287D01*
X165788758Y-115445624D01*
X165640924Y-115366605D01*
X165640922Y-115366604D01*
X165511341Y-115260259D01*
X165404996Y-115130678D01*
X165396886Y-115115506D01*
X165325976Y-114982842D01*
X165277313Y-114822423D01*
X165260883Y-114655600D01*
X165277313Y-114488777D01*
X165325976Y-114328358D01*
X165404995Y-114180524D01*
X165404996Y-114180522D01*
X165511341Y-114050941D01*
X165640922Y-113944596D01*
X165656094Y-113936486D01*
X165788758Y-113865576D01*
X165949177Y-113816913D01*
X166074196Y-113804600D01*
X166157804Y-113804600D01*
X166282823Y-113816913D01*
X166282823Y-113816913D01*
G37*
G36*
X163742823Y-113816913D02*
G01*
X163903242Y-113865576D01*
X164035906Y-113936486D01*
X164051078Y-113944596D01*
X164180659Y-114050941D01*
X164287004Y-114180522D01*
X164287005Y-114180524D01*
X164366024Y-114328358D01*
X164414687Y-114488777D01*
X164431117Y-114655600D01*
X164414687Y-114822423D01*
X164366024Y-114982842D01*
X164295114Y-115115506D01*
X164287004Y-115130678D01*
X164180659Y-115260259D01*
X164051078Y-115366604D01*
X164051076Y-115366605D01*
X163903242Y-115445624D01*
X163742823Y-115494287D01*
X163617804Y-115506600D01*
X163534196Y-115506600D01*
X163409177Y-115494287D01*
X163248758Y-115445624D01*
X163100924Y-115366605D01*
X163100922Y-115366604D01*
X162971341Y-115260259D01*
X162864996Y-115130678D01*
X162856886Y-115115506D01*
X162785976Y-114982842D01*
X162737313Y-114822423D01*
X162720883Y-114655600D01*
X162737313Y-114488777D01*
X162785976Y-114328358D01*
X162864995Y-114180524D01*
X162864996Y-114180522D01*
X162971341Y-114050941D01*
X163100922Y-113944596D01*
X163116094Y-113936486D01*
X163248758Y-113865576D01*
X163409177Y-113816913D01*
X163534196Y-113804600D01*
X163617804Y-113804600D01*
X163742823Y-113816913D01*
X163742823Y-113816913D01*
G37*
G36*
X161202823Y-113816913D02*
G01*
X161363242Y-113865576D01*
X161495906Y-113936486D01*
X161511078Y-113944596D01*
X161640659Y-114050941D01*
X161747004Y-114180522D01*
X161747005Y-114180524D01*
X161826024Y-114328358D01*
X161874687Y-114488777D01*
X161891117Y-114655600D01*
X161874687Y-114822423D01*
X161826024Y-114982842D01*
X161755114Y-115115506D01*
X161747004Y-115130678D01*
X161640659Y-115260259D01*
X161511078Y-115366604D01*
X161511076Y-115366605D01*
X161363242Y-115445624D01*
X161202823Y-115494287D01*
X161077804Y-115506600D01*
X160994196Y-115506600D01*
X160869177Y-115494287D01*
X160708758Y-115445624D01*
X160560924Y-115366605D01*
X160560922Y-115366604D01*
X160431341Y-115260259D01*
X160324996Y-115130678D01*
X160316886Y-115115506D01*
X160245976Y-114982842D01*
X160197313Y-114822423D01*
X160180883Y-114655600D01*
X160197313Y-114488777D01*
X160245976Y-114328358D01*
X160324995Y-114180524D01*
X160324996Y-114180522D01*
X160431341Y-114050941D01*
X160560922Y-113944596D01*
X160576094Y-113936486D01*
X160708758Y-113865576D01*
X160869177Y-113816913D01*
X160994196Y-113804600D01*
X161077804Y-113804600D01*
X161202823Y-113816913D01*
X161202823Y-113816913D01*
G37*
G36*
X158662823Y-113816913D02*
G01*
X158823242Y-113865576D01*
X158955906Y-113936486D01*
X158971078Y-113944596D01*
X159100659Y-114050941D01*
X159207004Y-114180522D01*
X159207005Y-114180524D01*
X159286024Y-114328358D01*
X159334687Y-114488777D01*
X159351117Y-114655600D01*
X159334687Y-114822423D01*
X159286024Y-114982842D01*
X159215114Y-115115506D01*
X159207004Y-115130678D01*
X159100659Y-115260259D01*
X158971078Y-115366604D01*
X158971076Y-115366605D01*
X158823242Y-115445624D01*
X158662823Y-115494287D01*
X158537804Y-115506600D01*
X158454196Y-115506600D01*
X158329177Y-115494287D01*
X158168758Y-115445624D01*
X158020924Y-115366605D01*
X158020922Y-115366604D01*
X157891341Y-115260259D01*
X157784996Y-115130678D01*
X157776886Y-115115506D01*
X157705976Y-114982842D01*
X157657313Y-114822423D01*
X157640883Y-114655600D01*
X157657313Y-114488777D01*
X157705976Y-114328358D01*
X157784995Y-114180524D01*
X157784996Y-114180522D01*
X157891341Y-114050941D01*
X158020922Y-113944596D01*
X158036094Y-113936486D01*
X158168758Y-113865576D01*
X158329177Y-113816913D01*
X158454196Y-113804600D01*
X158537804Y-113804600D01*
X158662823Y-113816913D01*
X158662823Y-113816913D01*
G37*
G36*
X153582823Y-113816913D02*
G01*
X153743242Y-113865576D01*
X153875906Y-113936486D01*
X153891078Y-113944596D01*
X154020659Y-114050941D01*
X154127004Y-114180522D01*
X154127005Y-114180524D01*
X154206024Y-114328358D01*
X154254687Y-114488777D01*
X154271117Y-114655600D01*
X154254687Y-114822423D01*
X154206024Y-114982842D01*
X154135114Y-115115506D01*
X154127004Y-115130678D01*
X154020659Y-115260259D01*
X153891078Y-115366604D01*
X153891076Y-115366605D01*
X153743242Y-115445624D01*
X153582823Y-115494287D01*
X153457804Y-115506600D01*
X153374196Y-115506600D01*
X153249177Y-115494287D01*
X153088758Y-115445624D01*
X152940924Y-115366605D01*
X152940922Y-115366604D01*
X152811341Y-115260259D01*
X152704996Y-115130678D01*
X152696886Y-115115506D01*
X152625976Y-114982842D01*
X152577313Y-114822423D01*
X152560883Y-114655600D01*
X152577313Y-114488777D01*
X152625976Y-114328358D01*
X152704995Y-114180524D01*
X152704996Y-114180522D01*
X152811341Y-114050941D01*
X152940922Y-113944596D01*
X152956094Y-113936486D01*
X153088758Y-113865576D01*
X153249177Y-113816913D01*
X153374196Y-113804600D01*
X153457804Y-113804600D01*
X153582823Y-113816913D01*
X153582823Y-113816913D01*
G37*
G36*
X151042823Y-113816913D02*
G01*
X151203242Y-113865576D01*
X151335906Y-113936486D01*
X151351078Y-113944596D01*
X151480659Y-114050941D01*
X151587004Y-114180522D01*
X151587005Y-114180524D01*
X151666024Y-114328358D01*
X151714687Y-114488777D01*
X151731117Y-114655600D01*
X151714687Y-114822423D01*
X151666024Y-114982842D01*
X151595114Y-115115506D01*
X151587004Y-115130678D01*
X151480659Y-115260259D01*
X151351078Y-115366604D01*
X151351076Y-115366605D01*
X151203242Y-115445624D01*
X151042823Y-115494287D01*
X150917804Y-115506600D01*
X150834196Y-115506600D01*
X150709177Y-115494287D01*
X150548758Y-115445624D01*
X150400924Y-115366605D01*
X150400922Y-115366604D01*
X150271341Y-115260259D01*
X150164996Y-115130678D01*
X150156886Y-115115506D01*
X150085976Y-114982842D01*
X150037313Y-114822423D01*
X150020883Y-114655600D01*
X150037313Y-114488777D01*
X150085976Y-114328358D01*
X150164995Y-114180524D01*
X150164996Y-114180522D01*
X150271341Y-114050941D01*
X150400922Y-113944596D01*
X150416094Y-113936486D01*
X150548758Y-113865576D01*
X150709177Y-113816913D01*
X150834196Y-113804600D01*
X150917804Y-113804600D01*
X151042823Y-113816913D01*
X151042823Y-113816913D01*
G37*
G36*
X156122823Y-113816913D02*
G01*
X156283242Y-113865576D01*
X156415906Y-113936486D01*
X156431078Y-113944596D01*
X156560659Y-114050941D01*
X156667004Y-114180522D01*
X156667005Y-114180524D01*
X156746024Y-114328358D01*
X156794687Y-114488777D01*
X156811117Y-114655600D01*
X156794687Y-114822423D01*
X156746024Y-114982842D01*
X156675114Y-115115506D01*
X156667004Y-115130678D01*
X156560659Y-115260259D01*
X156431078Y-115366604D01*
X156431076Y-115366605D01*
X156283242Y-115445624D01*
X156122823Y-115494287D01*
X155997804Y-115506600D01*
X155914196Y-115506600D01*
X155789177Y-115494287D01*
X155628758Y-115445624D01*
X155480924Y-115366605D01*
X155480922Y-115366604D01*
X155351341Y-115260259D01*
X155244996Y-115130678D01*
X155236886Y-115115506D01*
X155165976Y-114982842D01*
X155117313Y-114822423D01*
X155100883Y-114655600D01*
X155117313Y-114488777D01*
X155165976Y-114328358D01*
X155244995Y-114180524D01*
X155244996Y-114180522D01*
X155351341Y-114050941D01*
X155480922Y-113944596D01*
X155496094Y-113936486D01*
X155628758Y-113865576D01*
X155789177Y-113816913D01*
X155914196Y-113804600D01*
X155997804Y-113804600D01*
X156122823Y-113816913D01*
X156122823Y-113816913D01*
G37*
G36*
X184062823Y-113816913D02*
G01*
X184223242Y-113865576D01*
X184355906Y-113936486D01*
X184371078Y-113944596D01*
X184500659Y-114050941D01*
X184607004Y-114180522D01*
X184607005Y-114180524D01*
X184686024Y-114328358D01*
X184734687Y-114488777D01*
X184751117Y-114655600D01*
X184734687Y-114822423D01*
X184686024Y-114982842D01*
X184615114Y-115115506D01*
X184607004Y-115130678D01*
X184500659Y-115260259D01*
X184371078Y-115366604D01*
X184371076Y-115366605D01*
X184223242Y-115445624D01*
X184062823Y-115494287D01*
X183937804Y-115506600D01*
X183854196Y-115506600D01*
X183729177Y-115494287D01*
X183568758Y-115445624D01*
X183420924Y-115366605D01*
X183420922Y-115366604D01*
X183291341Y-115260259D01*
X183184996Y-115130678D01*
X183176886Y-115115506D01*
X183105976Y-114982842D01*
X183057313Y-114822423D01*
X183040883Y-114655600D01*
X183057313Y-114488777D01*
X183105976Y-114328358D01*
X183184995Y-114180524D01*
X183184996Y-114180522D01*
X183291341Y-114050941D01*
X183420922Y-113944596D01*
X183436094Y-113936486D01*
X183568758Y-113865576D01*
X183729177Y-113816913D01*
X183854196Y-113804600D01*
X183937804Y-113804600D01*
X184062823Y-113816913D01*
X184062823Y-113816913D01*
G37*
G36*
X173902823Y-106196913D02*
G01*
X174063242Y-106245576D01*
X174195906Y-106316486D01*
X174211078Y-106324596D01*
X174340659Y-106430941D01*
X174447004Y-106560522D01*
X174447005Y-106560524D01*
X174526024Y-106708358D01*
X174574687Y-106868777D01*
X174591117Y-107035600D01*
X174574687Y-107202423D01*
X174526024Y-107362842D01*
X174455114Y-107495506D01*
X174447004Y-107510678D01*
X174340659Y-107640259D01*
X174211078Y-107746604D01*
X174211076Y-107746605D01*
X174063242Y-107825624D01*
X173902823Y-107874287D01*
X173777804Y-107886600D01*
X173694196Y-107886600D01*
X173569177Y-107874287D01*
X173408758Y-107825624D01*
X173260924Y-107746605D01*
X173260922Y-107746604D01*
X173131341Y-107640259D01*
X173024996Y-107510678D01*
X173016886Y-107495506D01*
X172945976Y-107362842D01*
X172897313Y-107202423D01*
X172880883Y-107035600D01*
X172897313Y-106868777D01*
X172945976Y-106708358D01*
X173024995Y-106560524D01*
X173024996Y-106560522D01*
X173131341Y-106430941D01*
X173260922Y-106324596D01*
X173276094Y-106316486D01*
X173408758Y-106245576D01*
X173569177Y-106196913D01*
X173694196Y-106184600D01*
X173777804Y-106184600D01*
X173902823Y-106196913D01*
X173902823Y-106196913D01*
G37*
G36*
X176442823Y-106196913D02*
G01*
X176603242Y-106245576D01*
X176735906Y-106316486D01*
X176751078Y-106324596D01*
X176880659Y-106430941D01*
X176987004Y-106560522D01*
X176987005Y-106560524D01*
X177066024Y-106708358D01*
X177114687Y-106868777D01*
X177131117Y-107035600D01*
X177114687Y-107202423D01*
X177066024Y-107362842D01*
X176995114Y-107495506D01*
X176987004Y-107510678D01*
X176880659Y-107640259D01*
X176751078Y-107746604D01*
X176751076Y-107746605D01*
X176603242Y-107825624D01*
X176442823Y-107874287D01*
X176317804Y-107886600D01*
X176234196Y-107886600D01*
X176109177Y-107874287D01*
X175948758Y-107825624D01*
X175800924Y-107746605D01*
X175800922Y-107746604D01*
X175671341Y-107640259D01*
X175564996Y-107510678D01*
X175556886Y-107495506D01*
X175485976Y-107362842D01*
X175437313Y-107202423D01*
X175420883Y-107035600D01*
X175437313Y-106868777D01*
X175485976Y-106708358D01*
X175564995Y-106560524D01*
X175564996Y-106560522D01*
X175671341Y-106430941D01*
X175800922Y-106324596D01*
X175816094Y-106316486D01*
X175948758Y-106245576D01*
X176109177Y-106196913D01*
X176234196Y-106184600D01*
X176317804Y-106184600D01*
X176442823Y-106196913D01*
X176442823Y-106196913D01*
G37*
G36*
X171362823Y-106196913D02*
G01*
X171523242Y-106245576D01*
X171655906Y-106316486D01*
X171671078Y-106324596D01*
X171800659Y-106430941D01*
X171907004Y-106560522D01*
X171907005Y-106560524D01*
X171986024Y-106708358D01*
X172034687Y-106868777D01*
X172051117Y-107035600D01*
X172034687Y-107202423D01*
X171986024Y-107362842D01*
X171915114Y-107495506D01*
X171907004Y-107510678D01*
X171800659Y-107640259D01*
X171671078Y-107746604D01*
X171671076Y-107746605D01*
X171523242Y-107825624D01*
X171362823Y-107874287D01*
X171237804Y-107886600D01*
X171154196Y-107886600D01*
X171029177Y-107874287D01*
X170868758Y-107825624D01*
X170720924Y-107746605D01*
X170720922Y-107746604D01*
X170591341Y-107640259D01*
X170484996Y-107510678D01*
X170476886Y-107495506D01*
X170405976Y-107362842D01*
X170357313Y-107202423D01*
X170340883Y-107035600D01*
X170357313Y-106868777D01*
X170405976Y-106708358D01*
X170484995Y-106560524D01*
X170484996Y-106560522D01*
X170591341Y-106430941D01*
X170720922Y-106324596D01*
X170736094Y-106316486D01*
X170868758Y-106245576D01*
X171029177Y-106196913D01*
X171154196Y-106184600D01*
X171237804Y-106184600D01*
X171362823Y-106196913D01*
X171362823Y-106196913D01*
G37*
G36*
X168822823Y-106196913D02*
G01*
X168983242Y-106245576D01*
X169115906Y-106316486D01*
X169131078Y-106324596D01*
X169260659Y-106430941D01*
X169367004Y-106560522D01*
X169367005Y-106560524D01*
X169446024Y-106708358D01*
X169494687Y-106868777D01*
X169511117Y-107035600D01*
X169494687Y-107202423D01*
X169446024Y-107362842D01*
X169375114Y-107495506D01*
X169367004Y-107510678D01*
X169260659Y-107640259D01*
X169131078Y-107746604D01*
X169131076Y-107746605D01*
X168983242Y-107825624D01*
X168822823Y-107874287D01*
X168697804Y-107886600D01*
X168614196Y-107886600D01*
X168489177Y-107874287D01*
X168328758Y-107825624D01*
X168180924Y-107746605D01*
X168180922Y-107746604D01*
X168051341Y-107640259D01*
X167944996Y-107510678D01*
X167936886Y-107495506D01*
X167865976Y-107362842D01*
X167817313Y-107202423D01*
X167800883Y-107035600D01*
X167817313Y-106868777D01*
X167865976Y-106708358D01*
X167944995Y-106560524D01*
X167944996Y-106560522D01*
X168051341Y-106430941D01*
X168180922Y-106324596D01*
X168196094Y-106316486D01*
X168328758Y-106245576D01*
X168489177Y-106196913D01*
X168614196Y-106184600D01*
X168697804Y-106184600D01*
X168822823Y-106196913D01*
X168822823Y-106196913D01*
G37*
G36*
X184747000Y-107886600D02*
G01*
X183045000Y-107886600D01*
X183045000Y-106184600D01*
X184747000Y-106184600D01*
X184747000Y-107886600D01*
X184747000Y-107886600D01*
G37*
G36*
X166282823Y-106196913D02*
G01*
X166443242Y-106245576D01*
X166575906Y-106316486D01*
X166591078Y-106324596D01*
X166720659Y-106430941D01*
X166827004Y-106560522D01*
X166827005Y-106560524D01*
X166906024Y-106708358D01*
X166954687Y-106868777D01*
X166971117Y-107035600D01*
X166954687Y-107202423D01*
X166906024Y-107362842D01*
X166835114Y-107495506D01*
X166827004Y-107510678D01*
X166720659Y-107640259D01*
X166591078Y-107746604D01*
X166591076Y-107746605D01*
X166443242Y-107825624D01*
X166282823Y-107874287D01*
X166157804Y-107886600D01*
X166074196Y-107886600D01*
X165949177Y-107874287D01*
X165788758Y-107825624D01*
X165640924Y-107746605D01*
X165640922Y-107746604D01*
X165511341Y-107640259D01*
X165404996Y-107510678D01*
X165396886Y-107495506D01*
X165325976Y-107362842D01*
X165277313Y-107202423D01*
X165260883Y-107035600D01*
X165277313Y-106868777D01*
X165325976Y-106708358D01*
X165404995Y-106560524D01*
X165404996Y-106560522D01*
X165511341Y-106430941D01*
X165640922Y-106324596D01*
X165656094Y-106316486D01*
X165788758Y-106245576D01*
X165949177Y-106196913D01*
X166074196Y-106184600D01*
X166157804Y-106184600D01*
X166282823Y-106196913D01*
X166282823Y-106196913D01*
G37*
G36*
X163742823Y-106196913D02*
G01*
X163903242Y-106245576D01*
X164035906Y-106316486D01*
X164051078Y-106324596D01*
X164180659Y-106430941D01*
X164287004Y-106560522D01*
X164287005Y-106560524D01*
X164366024Y-106708358D01*
X164414687Y-106868777D01*
X164431117Y-107035600D01*
X164414687Y-107202423D01*
X164366024Y-107362842D01*
X164295114Y-107495506D01*
X164287004Y-107510678D01*
X164180659Y-107640259D01*
X164051078Y-107746604D01*
X164051076Y-107746605D01*
X163903242Y-107825624D01*
X163742823Y-107874287D01*
X163617804Y-107886600D01*
X163534196Y-107886600D01*
X163409177Y-107874287D01*
X163248758Y-107825624D01*
X163100924Y-107746605D01*
X163100922Y-107746604D01*
X162971341Y-107640259D01*
X162864996Y-107510678D01*
X162856886Y-107495506D01*
X162785976Y-107362842D01*
X162737313Y-107202423D01*
X162720883Y-107035600D01*
X162737313Y-106868777D01*
X162785976Y-106708358D01*
X162864995Y-106560524D01*
X162864996Y-106560522D01*
X162971341Y-106430941D01*
X163100922Y-106324596D01*
X163116094Y-106316486D01*
X163248758Y-106245576D01*
X163409177Y-106196913D01*
X163534196Y-106184600D01*
X163617804Y-106184600D01*
X163742823Y-106196913D01*
X163742823Y-106196913D01*
G37*
G36*
X151042823Y-106196913D02*
G01*
X151203242Y-106245576D01*
X151335906Y-106316486D01*
X151351078Y-106324596D01*
X151480659Y-106430941D01*
X151587004Y-106560522D01*
X151587005Y-106560524D01*
X151666024Y-106708358D01*
X151714687Y-106868777D01*
X151731117Y-107035600D01*
X151714687Y-107202423D01*
X151666024Y-107362842D01*
X151595114Y-107495506D01*
X151587004Y-107510678D01*
X151480659Y-107640259D01*
X151351078Y-107746604D01*
X151351076Y-107746605D01*
X151203242Y-107825624D01*
X151042823Y-107874287D01*
X150917804Y-107886600D01*
X150834196Y-107886600D01*
X150709177Y-107874287D01*
X150548758Y-107825624D01*
X150400924Y-107746605D01*
X150400922Y-107746604D01*
X150271341Y-107640259D01*
X150164996Y-107510678D01*
X150156886Y-107495506D01*
X150085976Y-107362842D01*
X150037313Y-107202423D01*
X150020883Y-107035600D01*
X150037313Y-106868777D01*
X150085976Y-106708358D01*
X150164995Y-106560524D01*
X150164996Y-106560522D01*
X150271341Y-106430941D01*
X150400922Y-106324596D01*
X150416094Y-106316486D01*
X150548758Y-106245576D01*
X150709177Y-106196913D01*
X150834196Y-106184600D01*
X150917804Y-106184600D01*
X151042823Y-106196913D01*
X151042823Y-106196913D01*
G37*
G36*
X161202823Y-106196913D02*
G01*
X161363242Y-106245576D01*
X161495906Y-106316486D01*
X161511078Y-106324596D01*
X161640659Y-106430941D01*
X161747004Y-106560522D01*
X161747005Y-106560524D01*
X161826024Y-106708358D01*
X161874687Y-106868777D01*
X161891117Y-107035600D01*
X161874687Y-107202423D01*
X161826024Y-107362842D01*
X161755114Y-107495506D01*
X161747004Y-107510678D01*
X161640659Y-107640259D01*
X161511078Y-107746604D01*
X161511076Y-107746605D01*
X161363242Y-107825624D01*
X161202823Y-107874287D01*
X161077804Y-107886600D01*
X160994196Y-107886600D01*
X160869177Y-107874287D01*
X160708758Y-107825624D01*
X160560924Y-107746605D01*
X160560922Y-107746604D01*
X160431341Y-107640259D01*
X160324996Y-107510678D01*
X160316886Y-107495506D01*
X160245976Y-107362842D01*
X160197313Y-107202423D01*
X160180883Y-107035600D01*
X160197313Y-106868777D01*
X160245976Y-106708358D01*
X160324995Y-106560524D01*
X160324996Y-106560522D01*
X160431341Y-106430941D01*
X160560922Y-106324596D01*
X160576094Y-106316486D01*
X160708758Y-106245576D01*
X160869177Y-106196913D01*
X160994196Y-106184600D01*
X161077804Y-106184600D01*
X161202823Y-106196913D01*
X161202823Y-106196913D01*
G37*
G36*
X153582823Y-106196913D02*
G01*
X153743242Y-106245576D01*
X153875906Y-106316486D01*
X153891078Y-106324596D01*
X154020659Y-106430941D01*
X154127004Y-106560522D01*
X154127005Y-106560524D01*
X154206024Y-106708358D01*
X154254687Y-106868777D01*
X154271117Y-107035600D01*
X154254687Y-107202423D01*
X154206024Y-107362842D01*
X154135114Y-107495506D01*
X154127004Y-107510678D01*
X154020659Y-107640259D01*
X153891078Y-107746604D01*
X153891076Y-107746605D01*
X153743242Y-107825624D01*
X153582823Y-107874287D01*
X153457804Y-107886600D01*
X153374196Y-107886600D01*
X153249177Y-107874287D01*
X153088758Y-107825624D01*
X152940924Y-107746605D01*
X152940922Y-107746604D01*
X152811341Y-107640259D01*
X152704996Y-107510678D01*
X152696886Y-107495506D01*
X152625976Y-107362842D01*
X152577313Y-107202423D01*
X152560883Y-107035600D01*
X152577313Y-106868777D01*
X152625976Y-106708358D01*
X152704995Y-106560524D01*
X152704996Y-106560522D01*
X152811341Y-106430941D01*
X152940922Y-106324596D01*
X152956094Y-106316486D01*
X153088758Y-106245576D01*
X153249177Y-106196913D01*
X153374196Y-106184600D01*
X153457804Y-106184600D01*
X153582823Y-106196913D01*
X153582823Y-106196913D01*
G37*
G36*
X158662823Y-106196913D02*
G01*
X158823242Y-106245576D01*
X158955906Y-106316486D01*
X158971078Y-106324596D01*
X159100659Y-106430941D01*
X159207004Y-106560522D01*
X159207005Y-106560524D01*
X159286024Y-106708358D01*
X159334687Y-106868777D01*
X159351117Y-107035600D01*
X159334687Y-107202423D01*
X159286024Y-107362842D01*
X159215114Y-107495506D01*
X159207004Y-107510678D01*
X159100659Y-107640259D01*
X158971078Y-107746604D01*
X158971076Y-107746605D01*
X158823242Y-107825624D01*
X158662823Y-107874287D01*
X158537804Y-107886600D01*
X158454196Y-107886600D01*
X158329177Y-107874287D01*
X158168758Y-107825624D01*
X158020924Y-107746605D01*
X158020922Y-107746604D01*
X157891341Y-107640259D01*
X157784996Y-107510678D01*
X157776886Y-107495506D01*
X157705976Y-107362842D01*
X157657313Y-107202423D01*
X157640883Y-107035600D01*
X157657313Y-106868777D01*
X157705976Y-106708358D01*
X157784995Y-106560524D01*
X157784996Y-106560522D01*
X157891341Y-106430941D01*
X158020922Y-106324596D01*
X158036094Y-106316486D01*
X158168758Y-106245576D01*
X158329177Y-106196913D01*
X158454196Y-106184600D01*
X158537804Y-106184600D01*
X158662823Y-106196913D01*
X158662823Y-106196913D01*
G37*
G36*
X156122823Y-106196913D02*
G01*
X156283242Y-106245576D01*
X156415906Y-106316486D01*
X156431078Y-106324596D01*
X156560659Y-106430941D01*
X156667004Y-106560522D01*
X156667005Y-106560524D01*
X156746024Y-106708358D01*
X156794687Y-106868777D01*
X156811117Y-107035600D01*
X156794687Y-107202423D01*
X156746024Y-107362842D01*
X156675114Y-107495506D01*
X156667004Y-107510678D01*
X156560659Y-107640259D01*
X156431078Y-107746604D01*
X156431076Y-107746605D01*
X156283242Y-107825624D01*
X156122823Y-107874287D01*
X155997804Y-107886600D01*
X155914196Y-107886600D01*
X155789177Y-107874287D01*
X155628758Y-107825624D01*
X155480924Y-107746605D01*
X155480922Y-107746604D01*
X155351341Y-107640259D01*
X155244996Y-107510678D01*
X155236886Y-107495506D01*
X155165976Y-107362842D01*
X155117313Y-107202423D01*
X155100883Y-107035600D01*
X155117313Y-106868777D01*
X155165976Y-106708358D01*
X155244995Y-106560524D01*
X155244996Y-106560522D01*
X155351341Y-106430941D01*
X155480922Y-106324596D01*
X155496094Y-106316486D01*
X155628758Y-106245576D01*
X155789177Y-106196913D01*
X155914196Y-106184600D01*
X155997804Y-106184600D01*
X156122823Y-106196913D01*
X156122823Y-106196913D01*
G37*
G36*
X181522823Y-106196913D02*
G01*
X181683242Y-106245576D01*
X181815906Y-106316486D01*
X181831078Y-106324596D01*
X181960659Y-106430941D01*
X182067004Y-106560522D01*
X182067005Y-106560524D01*
X182146024Y-106708358D01*
X182194687Y-106868777D01*
X182211117Y-107035600D01*
X182194687Y-107202423D01*
X182146024Y-107362842D01*
X182075114Y-107495506D01*
X182067004Y-107510678D01*
X181960659Y-107640259D01*
X181831078Y-107746604D01*
X181831076Y-107746605D01*
X181683242Y-107825624D01*
X181522823Y-107874287D01*
X181397804Y-107886600D01*
X181314196Y-107886600D01*
X181189177Y-107874287D01*
X181028758Y-107825624D01*
X180880924Y-107746605D01*
X180880922Y-107746604D01*
X180751341Y-107640259D01*
X180644996Y-107510678D01*
X180636886Y-107495506D01*
X180565976Y-107362842D01*
X180517313Y-107202423D01*
X180500883Y-107035600D01*
X180517313Y-106868777D01*
X180565976Y-106708358D01*
X180644995Y-106560524D01*
X180644996Y-106560522D01*
X180751341Y-106430941D01*
X180880922Y-106324596D01*
X180896094Y-106316486D01*
X181028758Y-106245576D01*
X181189177Y-106196913D01*
X181314196Y-106184600D01*
X181397804Y-106184600D01*
X181522823Y-106196913D01*
X181522823Y-106196913D01*
G37*
G36*
X178982823Y-106196913D02*
G01*
X179143242Y-106245576D01*
X179275906Y-106316486D01*
X179291078Y-106324596D01*
X179420659Y-106430941D01*
X179527004Y-106560522D01*
X179527005Y-106560524D01*
X179606024Y-106708358D01*
X179654687Y-106868777D01*
X179671117Y-107035600D01*
X179654687Y-107202423D01*
X179606024Y-107362842D01*
X179535114Y-107495506D01*
X179527004Y-107510678D01*
X179420659Y-107640259D01*
X179291078Y-107746604D01*
X179291076Y-107746605D01*
X179143242Y-107825624D01*
X178982823Y-107874287D01*
X178857804Y-107886600D01*
X178774196Y-107886600D01*
X178649177Y-107874287D01*
X178488758Y-107825624D01*
X178340924Y-107746605D01*
X178340922Y-107746604D01*
X178211341Y-107640259D01*
X178104996Y-107510678D01*
X178096886Y-107495506D01*
X178025976Y-107362842D01*
X177977313Y-107202423D01*
X177960883Y-107035600D01*
X177977313Y-106868777D01*
X178025976Y-106708358D01*
X178104995Y-106560524D01*
X178104996Y-106560522D01*
X178211341Y-106430941D01*
X178340922Y-106324596D01*
X178356094Y-106316486D01*
X178488758Y-106245576D01*
X178649177Y-106196913D01*
X178774196Y-106184600D01*
X178857804Y-106184600D01*
X178982823Y-106196913D01*
X178982823Y-106196913D01*
G37*
G36*
X123755131Y-93259011D02*
G01*
X124082892Y-93394774D01*
X124377870Y-93591872D01*
X124628728Y-93842730D01*
X124825826Y-94137708D01*
X124961589Y-94465469D01*
X125030800Y-94813416D01*
X125030800Y-95168184D01*
X124961589Y-95516131D01*
X124825826Y-95843892D01*
X124628728Y-96138870D01*
X124377870Y-96389728D01*
X124082892Y-96586826D01*
X123755131Y-96722589D01*
X123407184Y-96791800D01*
X123052416Y-96791800D01*
X122704469Y-96722589D01*
X122376708Y-96586826D01*
X122081730Y-96389728D01*
X121830872Y-96138870D01*
X121633774Y-95843892D01*
X121498011Y-95516131D01*
X121428800Y-95168184D01*
X121428800Y-94813416D01*
X121498011Y-94465469D01*
X121633774Y-94137708D01*
X121830872Y-93842730D01*
X122081730Y-93591872D01*
X122376708Y-93394774D01*
X122704469Y-93259011D01*
X123052416Y-93189800D01*
X123407184Y-93189800D01*
X123755131Y-93259011D01*
X123755131Y-93259011D01*
G37*
G36*
X141334442Y-94609518D02*
G01*
X141400627Y-94616037D01*
X141570466Y-94667557D01*
X141726991Y-94751222D01*
X141762729Y-94780552D01*
X141864186Y-94863814D01*
X141947448Y-94965271D01*
X141976778Y-95001009D01*
X142060443Y-95157534D01*
X142111963Y-95327373D01*
X142129359Y-95504000D01*
X142111963Y-95680627D01*
X142060443Y-95850466D01*
X141976778Y-96006991D01*
X141947448Y-96042729D01*
X141864186Y-96144186D01*
X141762729Y-96227448D01*
X141726991Y-96256778D01*
X141570466Y-96340443D01*
X141400627Y-96391963D01*
X141334442Y-96398482D01*
X141268260Y-96405000D01*
X141179740Y-96405000D01*
X141113558Y-96398482D01*
X141047373Y-96391963D01*
X140877534Y-96340443D01*
X140721009Y-96256778D01*
X140685271Y-96227448D01*
X140583814Y-96144186D01*
X140500552Y-96042729D01*
X140471222Y-96006991D01*
X140387557Y-95850466D01*
X140336037Y-95680627D01*
X140318641Y-95504000D01*
X140336037Y-95327373D01*
X140387557Y-95157534D01*
X140471222Y-95001009D01*
X140500552Y-94965271D01*
X140583814Y-94863814D01*
X140685271Y-94780552D01*
X140721009Y-94751222D01*
X140877534Y-94667557D01*
X141047373Y-94616037D01*
X141113558Y-94609518D01*
X141179740Y-94603000D01*
X141268260Y-94603000D01*
X141334442Y-94609518D01*
X141334442Y-94609518D01*
G37*
G36*
X142125000Y-93865000D02*
G01*
X140323000Y-93865000D01*
X140323000Y-92063000D01*
X142125000Y-92063000D01*
X142125000Y-93865000D01*
X142125000Y-93865000D01*
G37*
G36*
X126053312Y-89324727D02*
G01*
X126202612Y-89354424D01*
X126366584Y-89422344D01*
X126514154Y-89520947D01*
X126639653Y-89646446D01*
X126738256Y-89794016D01*
X126798323Y-89939029D01*
X126809868Y-89960629D01*
X126825413Y-89979571D01*
X126844355Y-89995116D01*
X126865966Y-90006667D01*
X126889415Y-90013780D01*
X126913801Y-90016182D01*
X126938187Y-90013780D01*
X126961636Y-90006667D01*
X126983247Y-89995116D01*
X127002189Y-89979571D01*
X127017734Y-89960629D01*
X127029285Y-89939018D01*
X127036398Y-89915569D01*
X127038800Y-89891183D01*
X127038800Y-89319800D01*
X128840800Y-89319800D01*
X128840800Y-91121800D01*
X127038800Y-91121800D01*
X127038800Y-90550417D01*
X127036398Y-90526031D01*
X127029285Y-90502582D01*
X127017734Y-90480971D01*
X127002189Y-90462029D01*
X126983247Y-90446484D01*
X126961636Y-90434933D01*
X126938187Y-90427820D01*
X126913801Y-90425418D01*
X126889415Y-90427820D01*
X126865966Y-90434933D01*
X126844355Y-90446484D01*
X126825413Y-90462029D01*
X126809868Y-90480971D01*
X126798323Y-90502571D01*
X126738256Y-90647584D01*
X126639653Y-90795154D01*
X126514154Y-90920653D01*
X126366584Y-91019256D01*
X126202612Y-91087176D01*
X126053312Y-91116873D01*
X126028542Y-91121800D01*
X125851058Y-91121800D01*
X125826288Y-91116873D01*
X125676988Y-91087176D01*
X125513016Y-91019256D01*
X125365446Y-90920653D01*
X125239947Y-90795154D01*
X125141344Y-90647584D01*
X125073424Y-90483612D01*
X125038800Y-90309541D01*
X125038800Y-90132059D01*
X125073424Y-89957988D01*
X125141344Y-89794016D01*
X125239947Y-89646446D01*
X125365446Y-89520947D01*
X125513016Y-89422344D01*
X125676988Y-89354424D01*
X125826288Y-89324727D01*
X125851058Y-89319800D01*
X126028542Y-89319800D01*
X126053312Y-89324727D01*
X126053312Y-89324727D01*
G37*
G36*
X126053312Y-86824727D02*
G01*
X126202612Y-86854424D01*
X126366584Y-86922344D01*
X126514154Y-87020947D01*
X126639653Y-87146446D01*
X126738256Y-87294016D01*
X126806176Y-87457988D01*
X126817205Y-87513438D01*
X126824316Y-87536878D01*
X126835867Y-87558489D01*
X126851413Y-87577431D01*
X126870355Y-87592976D01*
X126891965Y-87604527D01*
X126915414Y-87611640D01*
X126939800Y-87614042D01*
X126964187Y-87611640D01*
X126987635Y-87604527D01*
X127009246Y-87592976D01*
X127028188Y-87577430D01*
X127043733Y-87558488D01*
X127055284Y-87536878D01*
X127062395Y-87513438D01*
X127073424Y-87457988D01*
X127141344Y-87294016D01*
X127239947Y-87146446D01*
X127365446Y-87020947D01*
X127513016Y-86922344D01*
X127676988Y-86854424D01*
X127826288Y-86824727D01*
X127851058Y-86819800D01*
X128028542Y-86819800D01*
X128053312Y-86824727D01*
X128202612Y-86854424D01*
X128366584Y-86922344D01*
X128514154Y-87020947D01*
X128639653Y-87146446D01*
X128738256Y-87294016D01*
X128806176Y-87457988D01*
X128840800Y-87632059D01*
X128840800Y-87809541D01*
X128806176Y-87983612D01*
X128738256Y-88147584D01*
X128639653Y-88295154D01*
X128514154Y-88420653D01*
X128366584Y-88519256D01*
X128202612Y-88587176D01*
X128053312Y-88616873D01*
X128028542Y-88621800D01*
X127851058Y-88621800D01*
X127826288Y-88616873D01*
X127676988Y-88587176D01*
X127513016Y-88519256D01*
X127365446Y-88420653D01*
X127239947Y-88295154D01*
X127141344Y-88147584D01*
X127073424Y-87983612D01*
X127062395Y-87928162D01*
X127055284Y-87904722D01*
X127043733Y-87883111D01*
X127028187Y-87864169D01*
X127009245Y-87848624D01*
X126987635Y-87837073D01*
X126964186Y-87829960D01*
X126939800Y-87827558D01*
X126915413Y-87829960D01*
X126891965Y-87837073D01*
X126870354Y-87848624D01*
X126851412Y-87864170D01*
X126835867Y-87883112D01*
X126824316Y-87904722D01*
X126817205Y-87928162D01*
X126806176Y-87983612D01*
X126738256Y-88147584D01*
X126639653Y-88295154D01*
X126514154Y-88420653D01*
X126366584Y-88519256D01*
X126202612Y-88587176D01*
X126053312Y-88616873D01*
X126028542Y-88621800D01*
X125851058Y-88621800D01*
X125826288Y-88616873D01*
X125676988Y-88587176D01*
X125513016Y-88519256D01*
X125365446Y-88420653D01*
X125239947Y-88295154D01*
X125141344Y-88147584D01*
X125073424Y-87983612D01*
X125038800Y-87809541D01*
X125038800Y-87632059D01*
X125073424Y-87457988D01*
X125141344Y-87294016D01*
X125239947Y-87146446D01*
X125365446Y-87020947D01*
X125513016Y-86922344D01*
X125676988Y-86854424D01*
X125826288Y-86824727D01*
X125851058Y-86819800D01*
X126028542Y-86819800D01*
X126053312Y-86824727D01*
X126053312Y-86824727D01*
G37*
G36*
X179942442Y-84957518D02*
G01*
X180008627Y-84964037D01*
X180178466Y-85015557D01*
X180334991Y-85099222D01*
X180370729Y-85128552D01*
X180472186Y-85211814D01*
X180555448Y-85313271D01*
X180584778Y-85349009D01*
X180668443Y-85505534D01*
X180719963Y-85675373D01*
X180737359Y-85852000D01*
X180719963Y-86028627D01*
X180668443Y-86198466D01*
X180584778Y-86354991D01*
X180555448Y-86390729D01*
X180472186Y-86492186D01*
X180370729Y-86575448D01*
X180334991Y-86604778D01*
X180178466Y-86688443D01*
X180008627Y-86739963D01*
X179942443Y-86746481D01*
X179876260Y-86753000D01*
X179787740Y-86753000D01*
X179721557Y-86746481D01*
X179655373Y-86739963D01*
X179485534Y-86688443D01*
X179329009Y-86604778D01*
X179293271Y-86575448D01*
X179191814Y-86492186D01*
X179108552Y-86390729D01*
X179079222Y-86354991D01*
X178995557Y-86198466D01*
X178944037Y-86028627D01*
X178926641Y-85852000D01*
X178944037Y-85675373D01*
X178995557Y-85505534D01*
X179079222Y-85349009D01*
X179108552Y-85313271D01*
X179191814Y-85211814D01*
X179293271Y-85128552D01*
X179329009Y-85099222D01*
X179485534Y-85015557D01*
X179655373Y-84964037D01*
X179721558Y-84957518D01*
X179787740Y-84951000D01*
X179876260Y-84951000D01*
X179942442Y-84957518D01*
X179942442Y-84957518D01*
G37*
G36*
X183273000Y-86753000D02*
G01*
X181471000Y-86753000D01*
X181471000Y-84951000D01*
X183273000Y-84951000D01*
X183273000Y-86753000D01*
X183273000Y-86753000D01*
G37*
G36*
X123755131Y-81219011D02*
G01*
X124082892Y-81354774D01*
X124377870Y-81551872D01*
X124628728Y-81802730D01*
X124825826Y-82097708D01*
X124961589Y-82425469D01*
X125030800Y-82773416D01*
X125030800Y-83128184D01*
X124961589Y-83476131D01*
X124825826Y-83803892D01*
X124628728Y-84098870D01*
X124377870Y-84349728D01*
X124082892Y-84546826D01*
X123755131Y-84682589D01*
X123407184Y-84751800D01*
X123052416Y-84751800D01*
X122704469Y-84682589D01*
X122376708Y-84546826D01*
X122081730Y-84349728D01*
X121830872Y-84098870D01*
X121633774Y-83803892D01*
X121498011Y-83476131D01*
X121428800Y-83128184D01*
X121428800Y-82773416D01*
X121498011Y-82425469D01*
X121633774Y-82097708D01*
X121830872Y-81802730D01*
X122081730Y-81551872D01*
X122376708Y-81354774D01*
X122704469Y-81219011D01*
X123052416Y-81149800D01*
X123407184Y-81149800D01*
X123755131Y-81219011D01*
X123755131Y-81219011D01*
G37*
G36*
X179942443Y-82417519D02*
G01*
X180008627Y-82424037D01*
X180178466Y-82475557D01*
X180334991Y-82559222D01*
X180370729Y-82588552D01*
X180472186Y-82671814D01*
X180555448Y-82773271D01*
X180584778Y-82809009D01*
X180668443Y-82965534D01*
X180719963Y-83135373D01*
X180737359Y-83312000D01*
X180719963Y-83488627D01*
X180668443Y-83658466D01*
X180584778Y-83814991D01*
X180555448Y-83850729D01*
X180472186Y-83952186D01*
X180370729Y-84035448D01*
X180334991Y-84064778D01*
X180178466Y-84148443D01*
X180008627Y-84199963D01*
X179942442Y-84206482D01*
X179876260Y-84213000D01*
X179787740Y-84213000D01*
X179721558Y-84206482D01*
X179655373Y-84199963D01*
X179485534Y-84148443D01*
X179329009Y-84064778D01*
X179293271Y-84035448D01*
X179191814Y-83952186D01*
X179108552Y-83850729D01*
X179079222Y-83814991D01*
X178995557Y-83658466D01*
X178944037Y-83488627D01*
X178926641Y-83312000D01*
X178944037Y-83135373D01*
X178995557Y-82965534D01*
X179079222Y-82809009D01*
X179108552Y-82773271D01*
X179191814Y-82671814D01*
X179293271Y-82588552D01*
X179329009Y-82559222D01*
X179485534Y-82475557D01*
X179655373Y-82424037D01*
X179721557Y-82417519D01*
X179787740Y-82411000D01*
X179876260Y-82411000D01*
X179942443Y-82417519D01*
X179942443Y-82417519D01*
G37*
G36*
X182482443Y-82417519D02*
G01*
X182548627Y-82424037D01*
X182718466Y-82475557D01*
X182874991Y-82559222D01*
X182910729Y-82588552D01*
X183012186Y-82671814D01*
X183095448Y-82773271D01*
X183124778Y-82809009D01*
X183208443Y-82965534D01*
X183259963Y-83135373D01*
X183277359Y-83312000D01*
X183259963Y-83488627D01*
X183208443Y-83658466D01*
X183124778Y-83814991D01*
X183095448Y-83850729D01*
X183012186Y-83952186D01*
X182910729Y-84035448D01*
X182874991Y-84064778D01*
X182718466Y-84148443D01*
X182548627Y-84199963D01*
X182482442Y-84206482D01*
X182416260Y-84213000D01*
X182327740Y-84213000D01*
X182261558Y-84206482D01*
X182195373Y-84199963D01*
X182025534Y-84148443D01*
X181869009Y-84064778D01*
X181833271Y-84035448D01*
X181731814Y-83952186D01*
X181648552Y-83850729D01*
X181619222Y-83814991D01*
X181535557Y-83658466D01*
X181484037Y-83488627D01*
X181466641Y-83312000D01*
X181484037Y-83135373D01*
X181535557Y-82965534D01*
X181619222Y-82809009D01*
X181648552Y-82773271D01*
X181731814Y-82671814D01*
X181833271Y-82588552D01*
X181869009Y-82559222D01*
X182025534Y-82475557D01*
X182195373Y-82424037D01*
X182261557Y-82417519D01*
X182327740Y-82411000D01*
X182416260Y-82411000D01*
X182482443Y-82417519D01*
X182482443Y-82417519D01*
G37*
G36*
X179942442Y-79877518D02*
G01*
X180008627Y-79884037D01*
X180178466Y-79935557D01*
X180334991Y-80019222D01*
X180370729Y-80048552D01*
X180472186Y-80131814D01*
X180555448Y-80233271D01*
X180584778Y-80269009D01*
X180668443Y-80425534D01*
X180719963Y-80595373D01*
X180737359Y-80772000D01*
X180719963Y-80948627D01*
X180668443Y-81118466D01*
X180668442Y-81118468D01*
X180626610Y-81196729D01*
X180584778Y-81274991D01*
X180555448Y-81310729D01*
X180472186Y-81412186D01*
X180370729Y-81495448D01*
X180334991Y-81524778D01*
X180178466Y-81608443D01*
X180008627Y-81659963D01*
X179942442Y-81666482D01*
X179876260Y-81673000D01*
X179787740Y-81673000D01*
X179721558Y-81666482D01*
X179655373Y-81659963D01*
X179485534Y-81608443D01*
X179329009Y-81524778D01*
X179293271Y-81495448D01*
X179191814Y-81412186D01*
X179108552Y-81310729D01*
X179079222Y-81274991D01*
X179037390Y-81196729D01*
X178995558Y-81118468D01*
X178995557Y-81118466D01*
X178944037Y-80948627D01*
X178926641Y-80772000D01*
X178944037Y-80595373D01*
X178995557Y-80425534D01*
X179079222Y-80269009D01*
X179108552Y-80233271D01*
X179191814Y-80131814D01*
X179293271Y-80048552D01*
X179329009Y-80019222D01*
X179485534Y-79935557D01*
X179655373Y-79884037D01*
X179721558Y-79877518D01*
X179787740Y-79871000D01*
X179876260Y-79871000D01*
X179942442Y-79877518D01*
X179942442Y-79877518D01*
G37*
G36*
X182482442Y-79877518D02*
G01*
X182548627Y-79884037D01*
X182718466Y-79935557D01*
X182874991Y-80019222D01*
X182910729Y-80048552D01*
X183012186Y-80131814D01*
X183095448Y-80233271D01*
X183124778Y-80269009D01*
X183208443Y-80425534D01*
X183259963Y-80595373D01*
X183277359Y-80772000D01*
X183259963Y-80948627D01*
X183208443Y-81118466D01*
X183208442Y-81118468D01*
X183166610Y-81196729D01*
X183124778Y-81274991D01*
X183095448Y-81310729D01*
X183012186Y-81412186D01*
X182910729Y-81495448D01*
X182874991Y-81524778D01*
X182718466Y-81608443D01*
X182548627Y-81659963D01*
X182482442Y-81666482D01*
X182416260Y-81673000D01*
X182327740Y-81673000D01*
X182261558Y-81666482D01*
X182195373Y-81659963D01*
X182025534Y-81608443D01*
X181869009Y-81524778D01*
X181833271Y-81495448D01*
X181731814Y-81412186D01*
X181648552Y-81310729D01*
X181619222Y-81274991D01*
X181577390Y-81196729D01*
X181535558Y-81118468D01*
X181535557Y-81118466D01*
X181484037Y-80948627D01*
X181466641Y-80772000D01*
X181484037Y-80595373D01*
X181535557Y-80425534D01*
X181619222Y-80269009D01*
X181648552Y-80233271D01*
X181731814Y-80131814D01*
X181833271Y-80048552D01*
X181869009Y-80019222D01*
X182025534Y-79935557D01*
X182195373Y-79884037D01*
X182261558Y-79877518D01*
X182327740Y-79871000D01*
X182416260Y-79871000D01*
X182482442Y-79877518D01*
X182482442Y-79877518D01*
G37*
G36*
X128126442Y-75813518D02*
G01*
X128192627Y-75820037D01*
X128362466Y-75871557D01*
X128518991Y-75955222D01*
X128554729Y-75984552D01*
X128656186Y-76067814D01*
X128715482Y-76140068D01*
X128768778Y-76205009D01*
X128852443Y-76361534D01*
X128903963Y-76531373D01*
X128921359Y-76708000D01*
X128903963Y-76884627D01*
X128852443Y-77054466D01*
X128768778Y-77210991D01*
X128739448Y-77246729D01*
X128656186Y-77348186D01*
X128554729Y-77431448D01*
X128518991Y-77460778D01*
X128362466Y-77544443D01*
X128192627Y-77595963D01*
X128126443Y-77602481D01*
X128060260Y-77609000D01*
X127971740Y-77609000D01*
X127905557Y-77602481D01*
X127839373Y-77595963D01*
X127669534Y-77544443D01*
X127513009Y-77460778D01*
X127477271Y-77431448D01*
X127375814Y-77348186D01*
X127292552Y-77246729D01*
X127263222Y-77210991D01*
X127179557Y-77054466D01*
X127128037Y-76884627D01*
X127110641Y-76708000D01*
X127128037Y-76531373D01*
X127179557Y-76361534D01*
X127263222Y-76205009D01*
X127316518Y-76140068D01*
X127375814Y-76067814D01*
X127477271Y-75984552D01*
X127513009Y-75955222D01*
X127669534Y-75871557D01*
X127839373Y-75820037D01*
X127905558Y-75813518D01*
X127971740Y-75807000D01*
X128060260Y-75807000D01*
X128126442Y-75813518D01*
X128126442Y-75813518D01*
G37*
G36*
X125586442Y-75813518D02*
G01*
X125652627Y-75820037D01*
X125822466Y-75871557D01*
X125978991Y-75955222D01*
X126014729Y-75984552D01*
X126116186Y-76067814D01*
X126175482Y-76140068D01*
X126228778Y-76205009D01*
X126312443Y-76361534D01*
X126363963Y-76531373D01*
X126381359Y-76708000D01*
X126363963Y-76884627D01*
X126312443Y-77054466D01*
X126228778Y-77210991D01*
X126199448Y-77246729D01*
X126116186Y-77348186D01*
X126014729Y-77431448D01*
X125978991Y-77460778D01*
X125822466Y-77544443D01*
X125652627Y-77595963D01*
X125586443Y-77602481D01*
X125520260Y-77609000D01*
X125431740Y-77609000D01*
X125365557Y-77602481D01*
X125299373Y-77595963D01*
X125129534Y-77544443D01*
X124973009Y-77460778D01*
X124937271Y-77431448D01*
X124835814Y-77348186D01*
X124752552Y-77246729D01*
X124723222Y-77210991D01*
X124639557Y-77054466D01*
X124588037Y-76884627D01*
X124570641Y-76708000D01*
X124588037Y-76531373D01*
X124639557Y-76361534D01*
X124723222Y-76205009D01*
X124776518Y-76140068D01*
X124835814Y-76067814D01*
X124937271Y-75984552D01*
X124973009Y-75955222D01*
X125129534Y-75871557D01*
X125299373Y-75820037D01*
X125365558Y-75813518D01*
X125431740Y-75807000D01*
X125520260Y-75807000D01*
X125586442Y-75813518D01*
X125586442Y-75813518D01*
G37*
G36*
X123837000Y-77609000D02*
G01*
X122035000Y-77609000D01*
X122035000Y-75807000D01*
X123837000Y-75807000D01*
X123837000Y-77609000D01*
X123837000Y-77609000D01*
G37*
G36*
X130666442Y-75813518D02*
G01*
X130732627Y-75820037D01*
X130902466Y-75871557D01*
X131058991Y-75955222D01*
X131094729Y-75984552D01*
X131196186Y-76067814D01*
X131255482Y-76140068D01*
X131308778Y-76205009D01*
X131392443Y-76361534D01*
X131443963Y-76531373D01*
X131461359Y-76708000D01*
X131443963Y-76884627D01*
X131392443Y-77054466D01*
X131308778Y-77210991D01*
X131279448Y-77246729D01*
X131196186Y-77348186D01*
X131094729Y-77431448D01*
X131058991Y-77460778D01*
X130902466Y-77544443D01*
X130732627Y-77595963D01*
X130666443Y-77602481D01*
X130600260Y-77609000D01*
X130511740Y-77609000D01*
X130445557Y-77602481D01*
X130379373Y-77595963D01*
X130209534Y-77544443D01*
X130053009Y-77460778D01*
X130017271Y-77431448D01*
X129915814Y-77348186D01*
X129832552Y-77246729D01*
X129803222Y-77210991D01*
X129719557Y-77054466D01*
X129668037Y-76884627D01*
X129650641Y-76708000D01*
X129668037Y-76531373D01*
X129719557Y-76361534D01*
X129803222Y-76205009D01*
X129856518Y-76140068D01*
X129915814Y-76067814D01*
X130017271Y-75984552D01*
X130053009Y-75955222D01*
X130209534Y-75871557D01*
X130379373Y-75820037D01*
X130445558Y-75813518D01*
X130511740Y-75807000D01*
X130600260Y-75807000D01*
X130666442Y-75813518D01*
X130666442Y-75813518D01*
G37*
G36*
X142960042Y-74899118D02*
G01*
X143026227Y-74905637D01*
X143196066Y-74957157D01*
X143352591Y-75040822D01*
X143388329Y-75070152D01*
X143489786Y-75153414D01*
X143573048Y-75254871D01*
X143602378Y-75290609D01*
X143686043Y-75447134D01*
X143737563Y-75616973D01*
X143754959Y-75793600D01*
X143737563Y-75970227D01*
X143686043Y-76140066D01*
X143602378Y-76296591D01*
X143573048Y-76332329D01*
X143489786Y-76433786D01*
X143388329Y-76517048D01*
X143352591Y-76546378D01*
X143196066Y-76630043D01*
X143026227Y-76681563D01*
X142960042Y-76688082D01*
X142893860Y-76694600D01*
X142805340Y-76694600D01*
X142739158Y-76688082D01*
X142672973Y-76681563D01*
X142503134Y-76630043D01*
X142346609Y-76546378D01*
X142310871Y-76517048D01*
X142209414Y-76433786D01*
X142126152Y-76332329D01*
X142096822Y-76296591D01*
X142013157Y-76140066D01*
X141961637Y-75970227D01*
X141944241Y-75793600D01*
X141961637Y-75616973D01*
X142013157Y-75447134D01*
X142096822Y-75290609D01*
X142126152Y-75254871D01*
X142209414Y-75153414D01*
X142310871Y-75070152D01*
X142346609Y-75040822D01*
X142503134Y-74957157D01*
X142672973Y-74905637D01*
X142739158Y-74899118D01*
X142805340Y-74892600D01*
X142893860Y-74892600D01*
X142960042Y-74899118D01*
X142960042Y-74899118D01*
G37*
G36*
X145500042Y-74899118D02*
G01*
X145566227Y-74905637D01*
X145736066Y-74957157D01*
X145892591Y-75040822D01*
X145928329Y-75070152D01*
X146029786Y-75153414D01*
X146113048Y-75254871D01*
X146142378Y-75290609D01*
X146226043Y-75447134D01*
X146277563Y-75616973D01*
X146294959Y-75793600D01*
X146277563Y-75970227D01*
X146226043Y-76140066D01*
X146142378Y-76296591D01*
X146113048Y-76332329D01*
X146029786Y-76433786D01*
X145928329Y-76517048D01*
X145892591Y-76546378D01*
X145736066Y-76630043D01*
X145566227Y-76681563D01*
X145500042Y-76688082D01*
X145433860Y-76694600D01*
X145345340Y-76694600D01*
X145279158Y-76688082D01*
X145212973Y-76681563D01*
X145043134Y-76630043D01*
X144886609Y-76546378D01*
X144850871Y-76517048D01*
X144749414Y-76433786D01*
X144666152Y-76332329D01*
X144636822Y-76296591D01*
X144553157Y-76140066D01*
X144501637Y-75970227D01*
X144484241Y-75793600D01*
X144501637Y-75616973D01*
X144553157Y-75447134D01*
X144636822Y-75290609D01*
X144666152Y-75254871D01*
X144749414Y-75153414D01*
X144850871Y-75070152D01*
X144886609Y-75040822D01*
X145043134Y-74957157D01*
X145212973Y-74905637D01*
X145279158Y-74899118D01*
X145345340Y-74892600D01*
X145433860Y-74892600D01*
X145500042Y-74899118D01*
X145500042Y-74899118D01*
G37*
G36*
X148040042Y-74899118D02*
G01*
X148106227Y-74905637D01*
X148276066Y-74957157D01*
X148432591Y-75040822D01*
X148468329Y-75070152D01*
X148569786Y-75153414D01*
X148653048Y-75254871D01*
X148682378Y-75290609D01*
X148766043Y-75447134D01*
X148817563Y-75616973D01*
X148834959Y-75793600D01*
X148817563Y-75970227D01*
X148766043Y-76140066D01*
X148682378Y-76296591D01*
X148653048Y-76332329D01*
X148569786Y-76433786D01*
X148468329Y-76517048D01*
X148432591Y-76546378D01*
X148276066Y-76630043D01*
X148106227Y-76681563D01*
X148040042Y-76688082D01*
X147973860Y-76694600D01*
X147885340Y-76694600D01*
X147819158Y-76688082D01*
X147752973Y-76681563D01*
X147583134Y-76630043D01*
X147426609Y-76546378D01*
X147390871Y-76517048D01*
X147289414Y-76433786D01*
X147206152Y-76332329D01*
X147176822Y-76296591D01*
X147093157Y-76140066D01*
X147041637Y-75970227D01*
X147024241Y-75793600D01*
X147041637Y-75616973D01*
X147093157Y-75447134D01*
X147176822Y-75290609D01*
X147206152Y-75254871D01*
X147289414Y-75153414D01*
X147390871Y-75070152D01*
X147426609Y-75040822D01*
X147583134Y-74957157D01*
X147752973Y-74905637D01*
X147819158Y-74899118D01*
X147885340Y-74892600D01*
X147973860Y-74892600D01*
X148040042Y-74899118D01*
X148040042Y-74899118D01*
G37*
G36*
X150580042Y-74899118D02*
G01*
X150646227Y-74905637D01*
X150816066Y-74957157D01*
X150972591Y-75040822D01*
X151008329Y-75070152D01*
X151109786Y-75153414D01*
X151193048Y-75254871D01*
X151222378Y-75290609D01*
X151306043Y-75447134D01*
X151357563Y-75616973D01*
X151374959Y-75793600D01*
X151357563Y-75970227D01*
X151306043Y-76140066D01*
X151222378Y-76296591D01*
X151193048Y-76332329D01*
X151109786Y-76433786D01*
X151008329Y-76517048D01*
X150972591Y-76546378D01*
X150816066Y-76630043D01*
X150646227Y-76681563D01*
X150580042Y-76688082D01*
X150513860Y-76694600D01*
X150425340Y-76694600D01*
X150359158Y-76688082D01*
X150292973Y-76681563D01*
X150123134Y-76630043D01*
X149966609Y-76546378D01*
X149930871Y-76517048D01*
X149829414Y-76433786D01*
X149746152Y-76332329D01*
X149716822Y-76296591D01*
X149633157Y-76140066D01*
X149581637Y-75970227D01*
X149564241Y-75793600D01*
X149581637Y-75616973D01*
X149633157Y-75447134D01*
X149716822Y-75290609D01*
X149746152Y-75254871D01*
X149829414Y-75153414D01*
X149930871Y-75070152D01*
X149966609Y-75040822D01*
X150123134Y-74957157D01*
X150292973Y-74905637D01*
X150359158Y-74899118D01*
X150425340Y-74892600D01*
X150513860Y-74892600D01*
X150580042Y-74899118D01*
X150580042Y-74899118D01*
G37*
G36*
X153120042Y-74899118D02*
G01*
X153186227Y-74905637D01*
X153356066Y-74957157D01*
X153512591Y-75040822D01*
X153548329Y-75070152D01*
X153649786Y-75153414D01*
X153733048Y-75254871D01*
X153762378Y-75290609D01*
X153846043Y-75447134D01*
X153897563Y-75616973D01*
X153914959Y-75793600D01*
X153897563Y-75970227D01*
X153846043Y-76140066D01*
X153762378Y-76296591D01*
X153733048Y-76332329D01*
X153649786Y-76433786D01*
X153548329Y-76517048D01*
X153512591Y-76546378D01*
X153356066Y-76630043D01*
X153186227Y-76681563D01*
X153120042Y-76688082D01*
X153053860Y-76694600D01*
X152965340Y-76694600D01*
X152899158Y-76688082D01*
X152832973Y-76681563D01*
X152663134Y-76630043D01*
X152506609Y-76546378D01*
X152470871Y-76517048D01*
X152369414Y-76433786D01*
X152286152Y-76332329D01*
X152256822Y-76296591D01*
X152173157Y-76140066D01*
X152121637Y-75970227D01*
X152104241Y-75793600D01*
X152121637Y-75616973D01*
X152173157Y-75447134D01*
X152256822Y-75290609D01*
X152286152Y-75254871D01*
X152369414Y-75153414D01*
X152470871Y-75070152D01*
X152506609Y-75040822D01*
X152663134Y-74957157D01*
X152832973Y-74905637D01*
X152899158Y-74899118D01*
X152965340Y-74892600D01*
X153053860Y-74892600D01*
X153120042Y-74899118D01*
X153120042Y-74899118D01*
G37*
G36*
X155660042Y-74899118D02*
G01*
X155726227Y-74905637D01*
X155896066Y-74957157D01*
X156052591Y-75040822D01*
X156088329Y-75070152D01*
X156189786Y-75153414D01*
X156273048Y-75254871D01*
X156302378Y-75290609D01*
X156386043Y-75447134D01*
X156437563Y-75616973D01*
X156454959Y-75793600D01*
X156437563Y-75970227D01*
X156386043Y-76140066D01*
X156302378Y-76296591D01*
X156273048Y-76332329D01*
X156189786Y-76433786D01*
X156088329Y-76517048D01*
X156052591Y-76546378D01*
X155896066Y-76630043D01*
X155726227Y-76681563D01*
X155660042Y-76688082D01*
X155593860Y-76694600D01*
X155505340Y-76694600D01*
X155439158Y-76688082D01*
X155372973Y-76681563D01*
X155203134Y-76630043D01*
X155046609Y-76546378D01*
X155010871Y-76517048D01*
X154909414Y-76433786D01*
X154826152Y-76332329D01*
X154796822Y-76296591D01*
X154713157Y-76140066D01*
X154661637Y-75970227D01*
X154644241Y-75793600D01*
X154661637Y-75616973D01*
X154713157Y-75447134D01*
X154796822Y-75290609D01*
X154826152Y-75254871D01*
X154909414Y-75153414D01*
X155010871Y-75070152D01*
X155046609Y-75040822D01*
X155203134Y-74957157D01*
X155372973Y-74905637D01*
X155439158Y-74899118D01*
X155505340Y-74892600D01*
X155593860Y-74892600D01*
X155660042Y-74899118D01*
X155660042Y-74899118D01*
G37*
G36*
X158200042Y-74899118D02*
G01*
X158266227Y-74905637D01*
X158436066Y-74957157D01*
X158592591Y-75040822D01*
X158628329Y-75070152D01*
X158729786Y-75153414D01*
X158813048Y-75254871D01*
X158842378Y-75290609D01*
X158926043Y-75447134D01*
X158977563Y-75616973D01*
X158994959Y-75793600D01*
X158977563Y-75970227D01*
X158926043Y-76140066D01*
X158842378Y-76296591D01*
X158813048Y-76332329D01*
X158729786Y-76433786D01*
X158628329Y-76517048D01*
X158592591Y-76546378D01*
X158436066Y-76630043D01*
X158266227Y-76681563D01*
X158200042Y-76688082D01*
X158133860Y-76694600D01*
X158045340Y-76694600D01*
X157979158Y-76688082D01*
X157912973Y-76681563D01*
X157743134Y-76630043D01*
X157586609Y-76546378D01*
X157550871Y-76517048D01*
X157449414Y-76433786D01*
X157366152Y-76332329D01*
X157336822Y-76296591D01*
X157253157Y-76140066D01*
X157201637Y-75970227D01*
X157184241Y-75793600D01*
X157201637Y-75616973D01*
X157253157Y-75447134D01*
X157336822Y-75290609D01*
X157366152Y-75254871D01*
X157449414Y-75153414D01*
X157550871Y-75070152D01*
X157586609Y-75040822D01*
X157743134Y-74957157D01*
X157912973Y-74905637D01*
X157979158Y-74899118D01*
X158045340Y-74892600D01*
X158133860Y-74892600D01*
X158200042Y-74899118D01*
X158200042Y-74899118D01*
G37*
G36*
X161530600Y-76694600D02*
G01*
X159728600Y-76694600D01*
X159728600Y-74892600D01*
X161530600Y-74892600D01*
X161530600Y-76694600D01*
X161530600Y-76694600D01*
G37*
G36*
X183349200Y-76694600D02*
G01*
X181547200Y-76694600D01*
X181547200Y-74892600D01*
X183349200Y-74892600D01*
X183349200Y-76694600D01*
X183349200Y-76694600D01*
G37*
G36*
X180018642Y-74899118D02*
G01*
X180084827Y-74905637D01*
X180254666Y-74957157D01*
X180411191Y-75040822D01*
X180446929Y-75070152D01*
X180548386Y-75153414D01*
X180631648Y-75254871D01*
X180660978Y-75290609D01*
X180744643Y-75447134D01*
X180796163Y-75616973D01*
X180813559Y-75793600D01*
X180796163Y-75970227D01*
X180744643Y-76140066D01*
X180660978Y-76296591D01*
X180631648Y-76332329D01*
X180548386Y-76433786D01*
X180446929Y-76517048D01*
X180411191Y-76546378D01*
X180254666Y-76630043D01*
X180084827Y-76681563D01*
X180018642Y-76688082D01*
X179952460Y-76694600D01*
X179863940Y-76694600D01*
X179797758Y-76688082D01*
X179731573Y-76681563D01*
X179561734Y-76630043D01*
X179405209Y-76546378D01*
X179369471Y-76517048D01*
X179268014Y-76433786D01*
X179184752Y-76332329D01*
X179155422Y-76296591D01*
X179071757Y-76140066D01*
X179020237Y-75970227D01*
X179002841Y-75793600D01*
X179020237Y-75616973D01*
X179071757Y-75447134D01*
X179155422Y-75290609D01*
X179184752Y-75254871D01*
X179268014Y-75153414D01*
X179369471Y-75070152D01*
X179405209Y-75040822D01*
X179561734Y-74957157D01*
X179731573Y-74905637D01*
X179797758Y-74899118D01*
X179863940Y-74892600D01*
X179952460Y-74892600D01*
X180018642Y-74899118D01*
X180018642Y-74899118D01*
G37*
G36*
X177478642Y-74899118D02*
G01*
X177544827Y-74905637D01*
X177714666Y-74957157D01*
X177871191Y-75040822D01*
X177906929Y-75070152D01*
X178008386Y-75153414D01*
X178091648Y-75254871D01*
X178120978Y-75290609D01*
X178204643Y-75447134D01*
X178256163Y-75616973D01*
X178273559Y-75793600D01*
X178256163Y-75970227D01*
X178204643Y-76140066D01*
X178120978Y-76296591D01*
X178091648Y-76332329D01*
X178008386Y-76433786D01*
X177906929Y-76517048D01*
X177871191Y-76546378D01*
X177714666Y-76630043D01*
X177544827Y-76681563D01*
X177478642Y-76688082D01*
X177412460Y-76694600D01*
X177323940Y-76694600D01*
X177257758Y-76688082D01*
X177191573Y-76681563D01*
X177021734Y-76630043D01*
X176865209Y-76546378D01*
X176829471Y-76517048D01*
X176728014Y-76433786D01*
X176644752Y-76332329D01*
X176615422Y-76296591D01*
X176531757Y-76140066D01*
X176480237Y-75970227D01*
X176462841Y-75793600D01*
X176480237Y-75616973D01*
X176531757Y-75447134D01*
X176615422Y-75290609D01*
X176644752Y-75254871D01*
X176728014Y-75153414D01*
X176829471Y-75070152D01*
X176865209Y-75040822D01*
X177021734Y-74957157D01*
X177191573Y-74905637D01*
X177257758Y-74899118D01*
X177323940Y-74892600D01*
X177412460Y-74892600D01*
X177478642Y-74899118D01*
X177478642Y-74899118D01*
G37*
G36*
X174938642Y-74899118D02*
G01*
X175004827Y-74905637D01*
X175174666Y-74957157D01*
X175331191Y-75040822D01*
X175366929Y-75070152D01*
X175468386Y-75153414D01*
X175551648Y-75254871D01*
X175580978Y-75290609D01*
X175664643Y-75447134D01*
X175716163Y-75616973D01*
X175733559Y-75793600D01*
X175716163Y-75970227D01*
X175664643Y-76140066D01*
X175580978Y-76296591D01*
X175551648Y-76332329D01*
X175468386Y-76433786D01*
X175366929Y-76517048D01*
X175331191Y-76546378D01*
X175174666Y-76630043D01*
X175004827Y-76681563D01*
X174938642Y-76688082D01*
X174872460Y-76694600D01*
X174783940Y-76694600D01*
X174717758Y-76688082D01*
X174651573Y-76681563D01*
X174481734Y-76630043D01*
X174325209Y-76546378D01*
X174289471Y-76517048D01*
X174188014Y-76433786D01*
X174104752Y-76332329D01*
X174075422Y-76296591D01*
X173991757Y-76140066D01*
X173940237Y-75970227D01*
X173922841Y-75793600D01*
X173940237Y-75616973D01*
X173991757Y-75447134D01*
X174075422Y-75290609D01*
X174104752Y-75254871D01*
X174188014Y-75153414D01*
X174289471Y-75070152D01*
X174325209Y-75040822D01*
X174481734Y-74957157D01*
X174651573Y-74905637D01*
X174717758Y-74899118D01*
X174783940Y-74892600D01*
X174872460Y-74892600D01*
X174938642Y-74899118D01*
X174938642Y-74899118D01*
G37*
G36*
X172398642Y-74899118D02*
G01*
X172464827Y-74905637D01*
X172634666Y-74957157D01*
X172791191Y-75040822D01*
X172826929Y-75070152D01*
X172928386Y-75153414D01*
X173011648Y-75254871D01*
X173040978Y-75290609D01*
X173124643Y-75447134D01*
X173176163Y-75616973D01*
X173193559Y-75793600D01*
X173176163Y-75970227D01*
X173124643Y-76140066D01*
X173040978Y-76296591D01*
X173011648Y-76332329D01*
X172928386Y-76433786D01*
X172826929Y-76517048D01*
X172791191Y-76546378D01*
X172634666Y-76630043D01*
X172464827Y-76681563D01*
X172398642Y-76688082D01*
X172332460Y-76694600D01*
X172243940Y-76694600D01*
X172177758Y-76688082D01*
X172111573Y-76681563D01*
X171941734Y-76630043D01*
X171785209Y-76546378D01*
X171749471Y-76517048D01*
X171648014Y-76433786D01*
X171564752Y-76332329D01*
X171535422Y-76296591D01*
X171451757Y-76140066D01*
X171400237Y-75970227D01*
X171382841Y-75793600D01*
X171400237Y-75616973D01*
X171451757Y-75447134D01*
X171535422Y-75290609D01*
X171564752Y-75254871D01*
X171648014Y-75153414D01*
X171749471Y-75070152D01*
X171785209Y-75040822D01*
X171941734Y-74957157D01*
X172111573Y-74905637D01*
X172177758Y-74899118D01*
X172243940Y-74892600D01*
X172332460Y-74892600D01*
X172398642Y-74899118D01*
X172398642Y-74899118D01*
G37*
G36*
X169858642Y-74899118D02*
G01*
X169924827Y-74905637D01*
X170094666Y-74957157D01*
X170251191Y-75040822D01*
X170286929Y-75070152D01*
X170388386Y-75153414D01*
X170471648Y-75254871D01*
X170500978Y-75290609D01*
X170584643Y-75447134D01*
X170636163Y-75616973D01*
X170653559Y-75793600D01*
X170636163Y-75970227D01*
X170584643Y-76140066D01*
X170500978Y-76296591D01*
X170471648Y-76332329D01*
X170388386Y-76433786D01*
X170286929Y-76517048D01*
X170251191Y-76546378D01*
X170094666Y-76630043D01*
X169924827Y-76681563D01*
X169858642Y-76688082D01*
X169792460Y-76694600D01*
X169703940Y-76694600D01*
X169637758Y-76688082D01*
X169571573Y-76681563D01*
X169401734Y-76630043D01*
X169245209Y-76546378D01*
X169209471Y-76517048D01*
X169108014Y-76433786D01*
X169024752Y-76332329D01*
X168995422Y-76296591D01*
X168911757Y-76140066D01*
X168860237Y-75970227D01*
X168842841Y-75793600D01*
X168860237Y-75616973D01*
X168911757Y-75447134D01*
X168995422Y-75290609D01*
X169024752Y-75254871D01*
X169108014Y-75153414D01*
X169209471Y-75070152D01*
X169245209Y-75040822D01*
X169401734Y-74957157D01*
X169571573Y-74905637D01*
X169637758Y-74899118D01*
X169703940Y-74892600D01*
X169792460Y-74892600D01*
X169858642Y-74899118D01*
X169858642Y-74899118D01*
G37*
G36*
X167318642Y-74899118D02*
G01*
X167384827Y-74905637D01*
X167554666Y-74957157D01*
X167711191Y-75040822D01*
X167746929Y-75070152D01*
X167848386Y-75153414D01*
X167931648Y-75254871D01*
X167960978Y-75290609D01*
X168044643Y-75447134D01*
X168096163Y-75616973D01*
X168113559Y-75793600D01*
X168096163Y-75970227D01*
X168044643Y-76140066D01*
X167960978Y-76296591D01*
X167931648Y-76332329D01*
X167848386Y-76433786D01*
X167746929Y-76517048D01*
X167711191Y-76546378D01*
X167554666Y-76630043D01*
X167384827Y-76681563D01*
X167318642Y-76688082D01*
X167252460Y-76694600D01*
X167163940Y-76694600D01*
X167097758Y-76688082D01*
X167031573Y-76681563D01*
X166861734Y-76630043D01*
X166705209Y-76546378D01*
X166669471Y-76517048D01*
X166568014Y-76433786D01*
X166484752Y-76332329D01*
X166455422Y-76296591D01*
X166371757Y-76140066D01*
X166320237Y-75970227D01*
X166302841Y-75793600D01*
X166320237Y-75616973D01*
X166371757Y-75447134D01*
X166455422Y-75290609D01*
X166484752Y-75254871D01*
X166568014Y-75153414D01*
X166669471Y-75070152D01*
X166705209Y-75040822D01*
X166861734Y-74957157D01*
X167031573Y-74905637D01*
X167097758Y-74899118D01*
X167163940Y-74892600D01*
X167252460Y-74892600D01*
X167318642Y-74899118D01*
X167318642Y-74899118D01*
G37*
G36*
X164778642Y-74899118D02*
G01*
X164844827Y-74905637D01*
X165014666Y-74957157D01*
X165171191Y-75040822D01*
X165206929Y-75070152D01*
X165308386Y-75153414D01*
X165391648Y-75254871D01*
X165420978Y-75290609D01*
X165504643Y-75447134D01*
X165556163Y-75616973D01*
X165573559Y-75793600D01*
X165556163Y-75970227D01*
X165504643Y-76140066D01*
X165420978Y-76296591D01*
X165391648Y-76332329D01*
X165308386Y-76433786D01*
X165206929Y-76517048D01*
X165171191Y-76546378D01*
X165014666Y-76630043D01*
X164844827Y-76681563D01*
X164778642Y-76688082D01*
X164712460Y-76694600D01*
X164623940Y-76694600D01*
X164557758Y-76688082D01*
X164491573Y-76681563D01*
X164321734Y-76630043D01*
X164165209Y-76546378D01*
X164129471Y-76517048D01*
X164028014Y-76433786D01*
X163944752Y-76332329D01*
X163915422Y-76296591D01*
X163831757Y-76140066D01*
X163780237Y-75970227D01*
X163762841Y-75793600D01*
X163780237Y-75616973D01*
X163831757Y-75447134D01*
X163915422Y-75290609D01*
X163944752Y-75254871D01*
X164028014Y-75153414D01*
X164129471Y-75070152D01*
X164165209Y-75040822D01*
X164321734Y-74957157D01*
X164491573Y-74905637D01*
X164557758Y-74899118D01*
X164623940Y-74892600D01*
X164712460Y-74892600D01*
X164778642Y-74899118D01*
X164778642Y-74899118D01*
G37*
G36*
X141210600Y-76694600D02*
G01*
X139408600Y-76694600D01*
X139408600Y-74892600D01*
X141210600Y-74892600D01*
X141210600Y-76694600D01*
X141210600Y-76694600D01*
G37*
G36*
X137880042Y-74899118D02*
G01*
X137946227Y-74905637D01*
X138116066Y-74957157D01*
X138272591Y-75040822D01*
X138308329Y-75070152D01*
X138409786Y-75153414D01*
X138493048Y-75254871D01*
X138522378Y-75290609D01*
X138606043Y-75447134D01*
X138657563Y-75616973D01*
X138674959Y-75793600D01*
X138657563Y-75970227D01*
X138606043Y-76140066D01*
X138522378Y-76296591D01*
X138493048Y-76332329D01*
X138409786Y-76433786D01*
X138308329Y-76517048D01*
X138272591Y-76546378D01*
X138116066Y-76630043D01*
X137946227Y-76681563D01*
X137880042Y-76688082D01*
X137813860Y-76694600D01*
X137725340Y-76694600D01*
X137659158Y-76688082D01*
X137592973Y-76681563D01*
X137423134Y-76630043D01*
X137266609Y-76546378D01*
X137230871Y-76517048D01*
X137129414Y-76433786D01*
X137046152Y-76332329D01*
X137016822Y-76296591D01*
X136933157Y-76140066D01*
X136881637Y-75970227D01*
X136864241Y-75793600D01*
X136881637Y-75616973D01*
X136933157Y-75447134D01*
X137016822Y-75290609D01*
X137046152Y-75254871D01*
X137129414Y-75153414D01*
X137230871Y-75070152D01*
X137266609Y-75040822D01*
X137423134Y-74957157D01*
X137592973Y-74905637D01*
X137659158Y-74899118D01*
X137725340Y-74892600D01*
X137813860Y-74892600D01*
X137880042Y-74899118D01*
X137880042Y-74899118D01*
G37*
M02*
