G04 #@! TF.GenerationSoftware,KiCad,Pcbnew,(5.1.4-0-10_14)*
G04 #@! TF.CreationDate,2020-06-11T20:45:35+02:00*
G04 #@! TF.ProjectId,zArduino,7a417264-7569-46e6-9f2e-6b696361645f,rev?*
G04 #@! TF.SameCoordinates,Original*
G04 #@! TF.FileFunction,Other,Fab,Top*
%FSLAX46Y46*%
G04 Gerber Fmt 4.6, Leading zero omitted, Abs format (unit mm)*
G04 Created by KiCad (PCBNEW (5.1.4-0-10_14)) date 2020-06-11 20:45:35*
%MOMM*%
%LPD*%
G04 APERTURE LIST*
%ADD10C,0.100000*%
%ADD11C,0.150000*%
%ADD12C,0.080000*%
%ADD13C,0.120000*%
G04 APERTURE END LIST*
D10*
X182372000Y-87122000D02*
X178562000Y-87122000D01*
X178562000Y-87122000D02*
X178562000Y-79502000D01*
X178562000Y-79502000D02*
X183642000Y-79502000D01*
X183642000Y-79502000D02*
X183642000Y-85852000D01*
X183642000Y-85852000D02*
X182372000Y-87122000D01*
X135408000Y-110768000D02*
X140008000Y-110768000D01*
X140008000Y-110768000D02*
X140008000Y-113768000D01*
X135408000Y-113768000D02*
X135408000Y-110768000D01*
X135408000Y-113768000D02*
X140008000Y-113768000D01*
X138357440Y-112266980D02*
X139259140Y-112266980D01*
X137206820Y-112266980D02*
X136208600Y-112266980D01*
X138357440Y-113067080D02*
X138357440Y-111466880D01*
X137206820Y-111517680D02*
X137206820Y-113067080D01*
X138357440Y-112266980D02*
X137206820Y-111517680D01*
X138357440Y-112266980D02*
X137206820Y-113067080D01*
X183083200Y-74523600D02*
X183718200Y-75158600D01*
X163398200Y-74523600D02*
X183083200Y-74523600D01*
X163398200Y-77063600D02*
X163398200Y-74523600D01*
X183718200Y-77063600D02*
X163398200Y-77063600D01*
X183718200Y-75158600D02*
X183718200Y-77063600D01*
X161899600Y-75158600D02*
X161899600Y-77063600D01*
X161899600Y-77063600D02*
X141579600Y-77063600D01*
X141579600Y-77063600D02*
X141579600Y-74523600D01*
X141579600Y-74523600D02*
X161264600Y-74523600D01*
X161264600Y-74523600D02*
X161899600Y-75158600D01*
D11*
X142768000Y-83795600D02*
X142768000Y-88095600D01*
X142768000Y-88095600D02*
X132568000Y-88095600D01*
X132568000Y-88095600D02*
X132568000Y-82795600D01*
X132568000Y-82795600D02*
X141768000Y-82795600D01*
X141768000Y-82795600D02*
X142768000Y-83795600D01*
D10*
X142332000Y-106941000D02*
X142332000Y-108941000D01*
X141132000Y-106941000D02*
X142332000Y-106941000D01*
X141132000Y-108941000D02*
X141132000Y-106941000D01*
X142332000Y-108941000D02*
X141132000Y-108941000D01*
X132172000Y-97053000D02*
X132172000Y-99053000D01*
X130972000Y-97053000D02*
X132172000Y-97053000D01*
X130972000Y-99053000D02*
X130972000Y-97053000D01*
X132172000Y-99053000D02*
X130972000Y-99053000D01*
X135135000Y-94904000D02*
X137135000Y-94904000D01*
X135135000Y-96104000D02*
X135135000Y-94904000D01*
X137135000Y-96104000D02*
X135135000Y-96104000D01*
X137135000Y-94904000D02*
X137135000Y-96104000D01*
X135153000Y-93056000D02*
X135153000Y-91856000D01*
X135153000Y-91856000D02*
X137153000Y-91856000D01*
X137153000Y-91856000D02*
X137153000Y-93056000D01*
X137153000Y-93056000D02*
X135153000Y-93056000D01*
X139979000Y-79975000D02*
X139979000Y-78775000D01*
X139979000Y-78775000D02*
X141979000Y-78775000D01*
X141979000Y-78775000D02*
X141979000Y-79975000D01*
X141979000Y-79975000D02*
X139979000Y-79975000D01*
X145389000Y-111395000D02*
X145389000Y-113395000D01*
X144189000Y-111395000D02*
X145389000Y-111395000D01*
X144189000Y-113395000D02*
X144189000Y-111395000D01*
X145389000Y-113395000D02*
X144189000Y-113395000D01*
X147304000Y-103032000D02*
X147304000Y-104232000D01*
X147304000Y-104232000D02*
X145304000Y-104232000D01*
X145304000Y-104232000D02*
X145304000Y-103032000D01*
X145304000Y-103032000D02*
X147304000Y-103032000D01*
X168395000Y-102905000D02*
X168395000Y-104105000D01*
X168395000Y-104105000D02*
X166395000Y-104105000D01*
X166395000Y-104105000D02*
X166395000Y-102905000D01*
X166395000Y-102905000D02*
X168395000Y-102905000D01*
X164599000Y-90871600D02*
X164599000Y-89671600D01*
X164599000Y-89671600D02*
X166599000Y-89671600D01*
X166599000Y-89671600D02*
X166599000Y-90871600D01*
X166599000Y-90871600D02*
X164599000Y-90871600D01*
X159562400Y-89722400D02*
X161562400Y-89722400D01*
X159562400Y-90922400D02*
X159562400Y-89722400D01*
X161562400Y-90922400D02*
X159562400Y-90922400D01*
X161562400Y-89722400D02*
X161562400Y-90922400D01*
X166268000Y-118456000D02*
X166268000Y-117256000D01*
X166268000Y-117256000D02*
X168268000Y-117256000D01*
X168268000Y-117256000D02*
X168268000Y-118456000D01*
X168268000Y-118456000D02*
X166268000Y-118456000D01*
X148375500Y-101892000D02*
X148375500Y-100292000D01*
X145175500Y-101892000D02*
X148375500Y-101892000D01*
X145175500Y-100692000D02*
X145175500Y-101892000D01*
X145575500Y-100292000D02*
X145175500Y-100692000D01*
X148375500Y-100292000D02*
X145575500Y-100292000D01*
X148448500Y-87084000D02*
X145648500Y-87084000D01*
X145648500Y-87084000D02*
X145248500Y-87484000D01*
X145248500Y-87484000D02*
X145248500Y-88684000D01*
X145248500Y-88684000D02*
X148448500Y-88684000D01*
X148448500Y-88684000D02*
X148448500Y-87084000D01*
X148448500Y-92164000D02*
X145648500Y-92164000D01*
X145648500Y-92164000D02*
X145248500Y-92564000D01*
X145248500Y-92564000D02*
X145248500Y-93764000D01*
X145248500Y-93764000D02*
X148448500Y-93764000D01*
X148448500Y-93764000D02*
X148448500Y-92164000D01*
X145175500Y-78956000D02*
X145175500Y-80556000D01*
X148375500Y-78956000D02*
X145175500Y-78956000D01*
X148375500Y-80156000D02*
X148375500Y-78956000D01*
X147975500Y-80556000D02*
X148375500Y-80156000D01*
X145175500Y-80556000D02*
X147975500Y-80556000D01*
X128429800Y-95020800D02*
X112929800Y-95020800D01*
X112929800Y-95020800D02*
X112929800Y-82920800D01*
X112929800Y-82920800D02*
X129429800Y-82920800D01*
X129429800Y-82920800D02*
X129429800Y-94020800D01*
X129429800Y-94020800D02*
X128429800Y-95020800D01*
X121666000Y-77343000D02*
X121666000Y-75438000D01*
X121666000Y-75438000D02*
X131826000Y-75438000D01*
X131826000Y-75438000D02*
X131826000Y-77978000D01*
X131826000Y-77978000D02*
X122301000Y-77978000D01*
X122301000Y-77978000D02*
X121666000Y-77343000D01*
X150698200Y-124688600D02*
X150698200Y-122783600D01*
X150698200Y-122783600D02*
X165938200Y-122783600D01*
X165938200Y-122783600D02*
X165938200Y-125323600D01*
X165938200Y-125323600D02*
X151333200Y-125323600D01*
X151333200Y-125323600D02*
X150698200Y-124688600D01*
X169138600Y-125323600D02*
X168503600Y-124688600D01*
X183743600Y-125323600D02*
X169138600Y-125323600D01*
X183743600Y-122783600D02*
X183743600Y-125323600D01*
X168503600Y-122783600D02*
X183743600Y-122783600D01*
X168503600Y-124688600D02*
X168503600Y-122783600D01*
X140589000Y-91694000D02*
X142494000Y-91694000D01*
X142494000Y-91694000D02*
X142494000Y-96774000D01*
X142494000Y-96774000D02*
X139954000Y-96774000D01*
X139954000Y-96774000D02*
X139954000Y-92329000D01*
X139954000Y-92329000D02*
X140589000Y-91694000D01*
X126310000Y-103950000D02*
X125310000Y-104950000D01*
X126310000Y-103950000D02*
X126310000Y-98250000D01*
X125310000Y-104950000D02*
X122610000Y-104950000D01*
X126310000Y-98250000D02*
X122610000Y-98250000D01*
X122610000Y-104950000D02*
X122610000Y-98250000D01*
X139208000Y-97952000D02*
X141208000Y-97952000D01*
X139208000Y-99152000D02*
X139208000Y-97952000D01*
X141208000Y-99152000D02*
X139208000Y-99152000D01*
X141208000Y-97952000D02*
X141208000Y-99152000D01*
X137153000Y-97952000D02*
X137153000Y-99152000D01*
X137153000Y-99152000D02*
X135153000Y-99152000D01*
X135153000Y-99152000D02*
X135153000Y-97952000D01*
X135153000Y-97952000D02*
X137153000Y-97952000D01*
X145313000Y-97444000D02*
X147313000Y-97444000D01*
X145313000Y-98644000D02*
X145313000Y-97444000D01*
X147313000Y-98644000D02*
X145313000Y-98644000D01*
X147313000Y-97444000D02*
X147313000Y-98644000D01*
X147313000Y-94904000D02*
X147313000Y-96104000D01*
X147313000Y-96104000D02*
X145313000Y-96104000D01*
X145313000Y-96104000D02*
X145313000Y-94904000D01*
X145313000Y-94904000D02*
X147313000Y-94904000D01*
X145304000Y-85944000D02*
X145304000Y-84744000D01*
X145304000Y-84744000D02*
X147304000Y-84744000D01*
X147304000Y-84744000D02*
X147304000Y-85944000D01*
X147304000Y-85944000D02*
X145304000Y-85944000D01*
X147295000Y-91024000D02*
X145295000Y-91024000D01*
X147295000Y-89824000D02*
X147295000Y-91024000D01*
X145295000Y-89824000D02*
X147295000Y-89824000D01*
X145295000Y-91024000D02*
X145295000Y-89824000D01*
X179797000Y-101099000D02*
X179797000Y-103099000D01*
X178597000Y-101099000D02*
X179797000Y-101099000D01*
X178597000Y-103099000D02*
X178597000Y-101099000D01*
X179797000Y-103099000D02*
X178597000Y-103099000D01*
X176438000Y-103117000D02*
X176438000Y-101117000D01*
X177638000Y-103117000D02*
X176438000Y-103117000D01*
X177638000Y-101117000D02*
X177638000Y-103117000D01*
X176438000Y-101117000D02*
X177638000Y-101117000D01*
X174279000Y-101117000D02*
X175479000Y-101117000D01*
X175479000Y-101117000D02*
X175479000Y-103117000D01*
X175479000Y-103117000D02*
X174279000Y-103117000D01*
X174279000Y-103117000D02*
X174279000Y-101117000D01*
X145313000Y-83404000D02*
X145313000Y-82204000D01*
X145313000Y-82204000D02*
X147313000Y-82204000D01*
X147313000Y-82204000D02*
X147313000Y-83404000D01*
X147313000Y-83404000D02*
X145313000Y-83404000D01*
X186996000Y-96468000D02*
X186996000Y-102668000D01*
X186996000Y-102668000D02*
X180796000Y-102668000D01*
X180796000Y-102668000D02*
X180796000Y-96468000D01*
X180796000Y-96468000D02*
X186996000Y-96468000D01*
X185396000Y-99568000D02*
G75*
G03X185396000Y-99568000I-1500000J0D01*
G01*
X139924500Y-103562500D02*
X139924500Y-107837500D01*
X139924500Y-107837500D02*
X134649500Y-107837500D01*
X134649500Y-107837500D02*
X134649500Y-102562500D01*
X134649500Y-102562500D02*
X138924500Y-102562500D01*
X138924500Y-102562500D02*
X139924500Y-103562500D01*
X185166000Y-108670600D02*
X185166000Y-114020600D01*
X185166000Y-114020600D02*
X149606000Y-114020600D01*
X149606000Y-114020600D02*
X149606000Y-107670600D01*
X149606000Y-107670600D02*
X184166000Y-107670600D01*
X184166000Y-107670600D02*
X185166000Y-108670600D01*
X169174400Y-97828600D02*
X169174400Y-93128600D01*
X169174400Y-93128600D02*
X157774400Y-93128600D01*
X157774400Y-93128600D02*
X157774400Y-97828600D01*
X157774400Y-97828600D02*
X169174400Y-97828600D01*
X166489400Y-97593600D02*
X160459400Y-97593600D01*
X166489400Y-93363600D02*
X160459400Y-93363600D01*
X166489400Y-93363600D02*
G75*
G02X166489400Y-97593600I0J-2115000D01*
G01*
X160459400Y-93363600D02*
G75*
G03X160459400Y-97593600I0J-2115000D01*
G01*
X132372000Y-94564000D02*
X130772000Y-94564000D01*
X130772000Y-94564000D02*
X130772000Y-91364000D01*
X130772000Y-91364000D02*
X132372000Y-91364000D01*
X132372000Y-91364000D02*
X132372000Y-94564000D01*
X141579600Y-75158600D02*
X141579600Y-77063600D01*
X141579600Y-77063600D02*
X136499600Y-77063600D01*
X136499600Y-77063600D02*
X136499600Y-74523600D01*
X136499600Y-74523600D02*
X140944600Y-74523600D01*
X140944600Y-74523600D02*
X141579600Y-75158600D01*
X129186000Y-114651400D02*
X130186000Y-115651400D01*
X130186000Y-123651400D02*
X130186000Y-115651400D01*
X130186000Y-123651400D02*
X115686000Y-123651400D01*
X115686000Y-123651400D02*
X115686000Y-114651400D01*
X115686000Y-114651400D02*
X129186000Y-114651400D01*
X121526000Y-111920000D02*
X120526000Y-111920000D01*
X120526000Y-111920000D02*
X120526000Y-106520000D01*
X120526000Y-106520000D02*
X121526000Y-106520000D01*
X121526000Y-112470000D02*
X121526000Y-105970000D01*
X121526000Y-105970000D02*
X127746000Y-105970000D01*
X127746000Y-105970000D02*
X127746000Y-111470000D01*
X127746000Y-111470000D02*
X126746000Y-112470000D01*
X126746000Y-112470000D02*
X121526000Y-112470000D01*
X127341000Y-111875000D02*
X130446000Y-111875000D01*
X130446000Y-111875000D02*
X130446000Y-111125000D01*
X130446000Y-111125000D02*
X127746000Y-111125000D01*
X127746000Y-107315000D02*
X130446000Y-107315000D01*
X130446000Y-107315000D02*
X130446000Y-106565000D01*
X130446000Y-106565000D02*
X127746000Y-106565000D01*
X148780000Y-120396000D02*
G75*
G03X148780000Y-120396000I-4000000J0D01*
G01*
X148930000Y-124546000D02*
X140630000Y-124546000D01*
X148930000Y-117246000D02*
X148930000Y-124546000D01*
X140630000Y-117246000D02*
X140630000Y-124546000D01*
X147930000Y-116246000D02*
X141630000Y-116246000D01*
X147930000Y-116246000D02*
X148930000Y-117246000D01*
X141630000Y-116246000D02*
X140630000Y-117246000D01*
X146280000Y-116833722D02*
X146280000Y-117633722D01*
X146680000Y-117233722D02*
X145880000Y-117233722D01*
X137536000Y-117231722D02*
X136736000Y-117231722D01*
X137136000Y-116831722D02*
X137136000Y-117631722D01*
X132486000Y-116244000D02*
X131486000Y-117244000D01*
X138786000Y-116244000D02*
X139786000Y-117244000D01*
X138786000Y-116244000D02*
X132486000Y-116244000D01*
X131486000Y-117244000D02*
X131486000Y-124544000D01*
X139786000Y-117244000D02*
X139786000Y-124544000D01*
X139786000Y-124544000D02*
X131486000Y-124544000D01*
X139636000Y-120394000D02*
G75*
G03X139636000Y-120394000I-4000000J0D01*
G01*
D11*
X173459142Y-78799142D02*
X173411523Y-78846761D01*
X173268666Y-78894380D01*
X173173428Y-78894380D01*
X173030571Y-78846761D01*
X172935333Y-78751523D01*
X172887714Y-78656285D01*
X172840095Y-78465809D01*
X172840095Y-78322952D01*
X172887714Y-78132476D01*
X172935333Y-78037238D01*
X173030571Y-77942000D01*
X173173428Y-77894380D01*
X173268666Y-77894380D01*
X173411523Y-77942000D01*
X173459142Y-77989619D01*
X174030571Y-78894380D02*
X173935333Y-78846761D01*
X173887714Y-78799142D01*
X173840095Y-78703904D01*
X173840095Y-78418190D01*
X173887714Y-78322952D01*
X173935333Y-78275333D01*
X174030571Y-78227714D01*
X174173428Y-78227714D01*
X174268666Y-78275333D01*
X174316285Y-78322952D01*
X174363904Y-78418190D01*
X174363904Y-78703904D01*
X174316285Y-78799142D01*
X174268666Y-78846761D01*
X174173428Y-78894380D01*
X174030571Y-78894380D01*
X174792476Y-78227714D02*
X174792476Y-78894380D01*
X174792476Y-78322952D02*
X174840095Y-78275333D01*
X174935333Y-78227714D01*
X175078190Y-78227714D01*
X175173428Y-78275333D01*
X175221047Y-78370571D01*
X175221047Y-78894380D01*
X175697238Y-78227714D02*
X175697238Y-78894380D01*
X175697238Y-78322952D02*
X175744857Y-78275333D01*
X175840095Y-78227714D01*
X175982952Y-78227714D01*
X176078190Y-78275333D01*
X176125809Y-78370571D01*
X176125809Y-78894380D01*
X176363904Y-78989619D02*
X177125809Y-78989619D01*
X177554380Y-77894380D02*
X177649619Y-77894380D01*
X177744857Y-77942000D01*
X177792476Y-77989619D01*
X177840095Y-78084857D01*
X177887714Y-78275333D01*
X177887714Y-78513428D01*
X177840095Y-78703904D01*
X177792476Y-78799142D01*
X177744857Y-78846761D01*
X177649619Y-78894380D01*
X177554380Y-78894380D01*
X177459142Y-78846761D01*
X177411523Y-78799142D01*
X177363904Y-78703904D01*
X177316285Y-78513428D01*
X177316285Y-78275333D01*
X177363904Y-78084857D01*
X177411523Y-77989619D01*
X177459142Y-77942000D01*
X177554380Y-77894380D01*
X178268666Y-77989619D02*
X178316285Y-77942000D01*
X178411523Y-77894380D01*
X178649619Y-77894380D01*
X178744857Y-77942000D01*
X178792476Y-77989619D01*
X178840095Y-78084857D01*
X178840095Y-78180095D01*
X178792476Y-78322952D01*
X178221047Y-78894380D01*
X178840095Y-78894380D01*
X179173428Y-78894380D02*
X179697238Y-78227714D01*
X179173428Y-78227714D02*
X179697238Y-78894380D01*
X180268666Y-77894380D02*
X180363904Y-77894380D01*
X180459142Y-77942000D01*
X180506761Y-77989619D01*
X180554380Y-78084857D01*
X180602000Y-78275333D01*
X180602000Y-78513428D01*
X180554380Y-78703904D01*
X180506761Y-78799142D01*
X180459142Y-78846761D01*
X180363904Y-78894380D01*
X180268666Y-78894380D01*
X180173428Y-78846761D01*
X180125809Y-78799142D01*
X180078190Y-78703904D01*
X180030571Y-78513428D01*
X180030571Y-78275333D01*
X180078190Y-78084857D01*
X180125809Y-77989619D01*
X180173428Y-77942000D01*
X180268666Y-77894380D01*
X180935333Y-77894380D02*
X181554380Y-77894380D01*
X181221047Y-78275333D01*
X181363904Y-78275333D01*
X181459142Y-78322952D01*
X181506761Y-78370571D01*
X181554380Y-78465809D01*
X181554380Y-78703904D01*
X181506761Y-78799142D01*
X181459142Y-78846761D01*
X181363904Y-78894380D01*
X181078190Y-78894380D01*
X180982952Y-78846761D01*
X180935333Y-78799142D01*
X181744857Y-78989619D02*
X182506761Y-78989619D01*
X182935333Y-77894380D02*
X183125809Y-77894380D01*
X183221047Y-77942000D01*
X183316285Y-78037238D01*
X183363904Y-78227714D01*
X183363904Y-78561047D01*
X183316285Y-78751523D01*
X183221047Y-78846761D01*
X183125809Y-78894380D01*
X182935333Y-78894380D01*
X182840095Y-78846761D01*
X182744857Y-78751523D01*
X182697238Y-78561047D01*
X182697238Y-78227714D01*
X182744857Y-78037238D01*
X182840095Y-77942000D01*
X182935333Y-77894380D01*
X184221047Y-78894380D02*
X184221047Y-77894380D01*
X184221047Y-78846761D02*
X184125809Y-78894380D01*
X183935333Y-78894380D01*
X183840095Y-78846761D01*
X183792476Y-78799142D01*
X183744857Y-78703904D01*
X183744857Y-78418190D01*
X183792476Y-78322952D01*
X183840095Y-78275333D01*
X183935333Y-78227714D01*
X184125809Y-78227714D01*
X184221047Y-78275333D01*
X185125809Y-78894380D02*
X185125809Y-77894380D01*
X185125809Y-78846761D02*
X185030571Y-78894380D01*
X184840095Y-78894380D01*
X184744857Y-78846761D01*
X184697238Y-78799142D01*
X184649619Y-78703904D01*
X184649619Y-78418190D01*
X184697238Y-78322952D01*
X184744857Y-78275333D01*
X184840095Y-78227714D01*
X185030571Y-78227714D01*
X185125809Y-78275333D01*
X185363904Y-78989619D02*
X186125809Y-78989619D01*
X186363904Y-78370571D02*
X186697238Y-78370571D01*
X186840095Y-78894380D02*
X186363904Y-78894380D01*
X186363904Y-77894380D01*
X186840095Y-77894380D01*
X187173428Y-78227714D02*
X187411523Y-78894380D01*
X187649619Y-78227714D01*
X188411523Y-78846761D02*
X188316285Y-78894380D01*
X188125809Y-78894380D01*
X188030571Y-78846761D01*
X187982952Y-78751523D01*
X187982952Y-78370571D01*
X188030571Y-78275333D01*
X188125809Y-78227714D01*
X188316285Y-78227714D01*
X188411523Y-78275333D01*
X188459142Y-78370571D01*
X188459142Y-78465809D01*
X187982952Y-78561047D01*
X188887714Y-78227714D02*
X188887714Y-78894380D01*
X188887714Y-78322952D02*
X188935333Y-78275333D01*
X189030571Y-78227714D01*
X189173428Y-78227714D01*
X189268666Y-78275333D01*
X189316285Y-78370571D01*
X189316285Y-78894380D01*
X180554380Y-83645333D02*
X181268666Y-83645333D01*
X181411523Y-83692952D01*
X181506761Y-83788190D01*
X181554380Y-83931047D01*
X181554380Y-84026285D01*
X180554380Y-82740571D02*
X180554380Y-82931047D01*
X180602000Y-83026285D01*
X180649619Y-83073904D01*
X180792476Y-83169142D01*
X180982952Y-83216761D01*
X181363904Y-83216761D01*
X181459142Y-83169142D01*
X181506761Y-83121523D01*
X181554380Y-83026285D01*
X181554380Y-82835809D01*
X181506761Y-82740571D01*
X181459142Y-82692952D01*
X181363904Y-82645333D01*
X181125809Y-82645333D01*
X181030571Y-82692952D01*
X180982952Y-82740571D01*
X180935333Y-82835809D01*
X180935333Y-83026285D01*
X180982952Y-83121523D01*
X181030571Y-83169142D01*
X181125809Y-83216761D01*
X136446095Y-110072761D02*
X136588952Y-110120380D01*
X136827047Y-110120380D01*
X136922285Y-110072761D01*
X136969904Y-110025142D01*
X137017523Y-109929904D01*
X137017523Y-109834666D01*
X136969904Y-109739428D01*
X136922285Y-109691809D01*
X136827047Y-109644190D01*
X136636571Y-109596571D01*
X136541333Y-109548952D01*
X136493714Y-109501333D01*
X136446095Y-109406095D01*
X136446095Y-109310857D01*
X136493714Y-109215619D01*
X136541333Y-109168000D01*
X136636571Y-109120380D01*
X136874666Y-109120380D01*
X137017523Y-109168000D01*
X137969904Y-110120380D02*
X137398476Y-110120380D01*
X137684190Y-110120380D02*
X137684190Y-109120380D01*
X137588952Y-109263238D01*
X137493714Y-109358476D01*
X137398476Y-109406095D01*
X138398476Y-110120380D02*
X138398476Y-109120380D01*
X138636571Y-109120380D01*
X138779428Y-109168000D01*
X138874666Y-109263238D01*
X138922285Y-109358476D01*
X138969904Y-109548952D01*
X138969904Y-109691809D01*
X138922285Y-109882285D01*
X138874666Y-109977523D01*
X138779428Y-110072761D01*
X138636571Y-110120380D01*
X138398476Y-110120380D01*
X136969904Y-115220380D02*
X136969904Y-114220380D01*
X137208000Y-114220380D01*
X137350857Y-114268000D01*
X137446095Y-114363238D01*
X137493714Y-114458476D01*
X137541333Y-114648952D01*
X137541333Y-114791809D01*
X137493714Y-114982285D01*
X137446095Y-115077523D01*
X137350857Y-115172761D01*
X137208000Y-115220380D01*
X136969904Y-115220380D01*
X138493714Y-115220380D02*
X137922285Y-115220380D01*
X138208000Y-115220380D02*
X138208000Y-114220380D01*
X138112761Y-114363238D01*
X138017523Y-114458476D01*
X137922285Y-114506095D01*
X162695342Y-82579314D02*
X162742961Y-82626933D01*
X162790580Y-82769790D01*
X162790580Y-82865028D01*
X162742961Y-83007885D01*
X162647723Y-83103123D01*
X162552485Y-83150742D01*
X162362009Y-83198361D01*
X162219152Y-83198361D01*
X162028676Y-83150742D01*
X161933438Y-83103123D01*
X161838200Y-83007885D01*
X161790580Y-82865028D01*
X161790580Y-82769790D01*
X161838200Y-82626933D01*
X161885819Y-82579314D01*
X162790580Y-82007885D02*
X162742961Y-82103123D01*
X162695342Y-82150742D01*
X162600104Y-82198361D01*
X162314390Y-82198361D01*
X162219152Y-82150742D01*
X162171533Y-82103123D01*
X162123914Y-82007885D01*
X162123914Y-81865028D01*
X162171533Y-81769790D01*
X162219152Y-81722171D01*
X162314390Y-81674552D01*
X162600104Y-81674552D01*
X162695342Y-81722171D01*
X162742961Y-81769790D01*
X162790580Y-81865028D01*
X162790580Y-82007885D01*
X162123914Y-81245980D02*
X162790580Y-81245980D01*
X162219152Y-81245980D02*
X162171533Y-81198361D01*
X162123914Y-81103123D01*
X162123914Y-80960266D01*
X162171533Y-80865028D01*
X162266771Y-80817409D01*
X162790580Y-80817409D01*
X162123914Y-80341219D02*
X162790580Y-80341219D01*
X162219152Y-80341219D02*
X162171533Y-80293600D01*
X162123914Y-80198361D01*
X162123914Y-80055504D01*
X162171533Y-79960266D01*
X162266771Y-79912647D01*
X162790580Y-79912647D01*
X162885819Y-79674552D02*
X162885819Y-78912647D01*
X161790580Y-78484076D02*
X161790580Y-78388838D01*
X161838200Y-78293600D01*
X161885819Y-78245980D01*
X161981057Y-78198361D01*
X162171533Y-78150742D01*
X162409628Y-78150742D01*
X162600104Y-78198361D01*
X162695342Y-78245980D01*
X162742961Y-78293600D01*
X162790580Y-78388838D01*
X162790580Y-78484076D01*
X162742961Y-78579314D01*
X162695342Y-78626933D01*
X162600104Y-78674552D01*
X162409628Y-78722171D01*
X162171533Y-78722171D01*
X161981057Y-78674552D01*
X161885819Y-78626933D01*
X161838200Y-78579314D01*
X161790580Y-78484076D01*
X162790580Y-77198361D02*
X162790580Y-77769790D01*
X162790580Y-77484076D02*
X161790580Y-77484076D01*
X161933438Y-77579314D01*
X162028676Y-77674552D01*
X162076295Y-77769790D01*
X162790580Y-76865028D02*
X162123914Y-76341219D01*
X162123914Y-76865028D02*
X162790580Y-76341219D01*
X161790580Y-75769790D02*
X161790580Y-75674552D01*
X161838200Y-75579314D01*
X161885819Y-75531695D01*
X161981057Y-75484076D01*
X162171533Y-75436457D01*
X162409628Y-75436457D01*
X162600104Y-75484076D01*
X162695342Y-75531695D01*
X162742961Y-75579314D01*
X162790580Y-75674552D01*
X162790580Y-75769790D01*
X162742961Y-75865028D01*
X162695342Y-75912647D01*
X162600104Y-75960266D01*
X162409628Y-76007885D01*
X162171533Y-76007885D01*
X161981057Y-75960266D01*
X161885819Y-75912647D01*
X161838200Y-75865028D01*
X161790580Y-75769790D01*
X162219152Y-74865028D02*
X162171533Y-74960266D01*
X162123914Y-75007885D01*
X162028676Y-75055504D01*
X161981057Y-75055504D01*
X161885819Y-75007885D01*
X161838200Y-74960266D01*
X161790580Y-74865028D01*
X161790580Y-74674552D01*
X161838200Y-74579314D01*
X161885819Y-74531695D01*
X161981057Y-74484076D01*
X162028676Y-74484076D01*
X162123914Y-74531695D01*
X162171533Y-74579314D01*
X162219152Y-74674552D01*
X162219152Y-74865028D01*
X162266771Y-74960266D01*
X162314390Y-75007885D01*
X162409628Y-75055504D01*
X162600104Y-75055504D01*
X162695342Y-75007885D01*
X162742961Y-74960266D01*
X162790580Y-74865028D01*
X162790580Y-74674552D01*
X162742961Y-74579314D01*
X162695342Y-74531695D01*
X162600104Y-74484076D01*
X162409628Y-74484076D01*
X162314390Y-74531695D01*
X162266771Y-74579314D01*
X162219152Y-74674552D01*
X162885819Y-74293600D02*
X162885819Y-73531695D01*
X162266771Y-72960266D02*
X162266771Y-73293600D01*
X162790580Y-73293600D02*
X161790580Y-73293600D01*
X161790580Y-72817409D01*
X162742961Y-72055504D02*
X162790580Y-72150742D01*
X162790580Y-72341219D01*
X162742961Y-72436457D01*
X162647723Y-72484076D01*
X162266771Y-72484076D01*
X162171533Y-72436457D01*
X162123914Y-72341219D01*
X162123914Y-72150742D01*
X162171533Y-72055504D01*
X162266771Y-72007885D01*
X162362009Y-72007885D01*
X162457247Y-72484076D01*
X162790580Y-71579314D02*
X162123914Y-71579314D01*
X162219152Y-71579314D02*
X162171533Y-71531695D01*
X162123914Y-71436457D01*
X162123914Y-71293600D01*
X162171533Y-71198361D01*
X162266771Y-71150742D01*
X162790580Y-71150742D01*
X162266771Y-71150742D02*
X162171533Y-71103123D01*
X162123914Y-71007885D01*
X162123914Y-70865028D01*
X162171533Y-70769790D01*
X162266771Y-70722171D01*
X162790580Y-70722171D01*
X162790580Y-69817409D02*
X162266771Y-69817409D01*
X162171533Y-69865028D01*
X162123914Y-69960266D01*
X162123914Y-70150742D01*
X162171533Y-70245980D01*
X162742961Y-69817409D02*
X162790580Y-69912647D01*
X162790580Y-70150742D01*
X162742961Y-70245980D01*
X162647723Y-70293600D01*
X162552485Y-70293600D01*
X162457247Y-70245980D01*
X162409628Y-70150742D01*
X162409628Y-69912647D01*
X162362009Y-69817409D01*
X162790580Y-69198361D02*
X162742961Y-69293600D01*
X162647723Y-69341219D01*
X161790580Y-69341219D01*
X162742961Y-68436457D02*
X162790580Y-68531695D01*
X162790580Y-68722171D01*
X162742961Y-68817409D01*
X162647723Y-68865028D01*
X162266771Y-68865028D01*
X162171533Y-68817409D01*
X162123914Y-68722171D01*
X162123914Y-68531695D01*
X162171533Y-68436457D01*
X162266771Y-68388838D01*
X162362009Y-68388838D01*
X162457247Y-68865028D01*
X173224866Y-75245980D02*
X173224866Y-75960266D01*
X173177247Y-76103123D01*
X173082009Y-76198361D01*
X172939152Y-76245980D01*
X172843914Y-76245980D01*
X173605819Y-75245980D02*
X174272485Y-75245980D01*
X173843914Y-76245980D01*
X140876742Y-82579314D02*
X140924361Y-82626933D01*
X140971980Y-82769790D01*
X140971980Y-82865028D01*
X140924361Y-83007885D01*
X140829123Y-83103123D01*
X140733885Y-83150742D01*
X140543409Y-83198361D01*
X140400552Y-83198361D01*
X140210076Y-83150742D01*
X140114838Y-83103123D01*
X140019600Y-83007885D01*
X139971980Y-82865028D01*
X139971980Y-82769790D01*
X140019600Y-82626933D01*
X140067219Y-82579314D01*
X140971980Y-82007885D02*
X140924361Y-82103123D01*
X140876742Y-82150742D01*
X140781504Y-82198361D01*
X140495790Y-82198361D01*
X140400552Y-82150742D01*
X140352933Y-82103123D01*
X140305314Y-82007885D01*
X140305314Y-81865028D01*
X140352933Y-81769790D01*
X140400552Y-81722171D01*
X140495790Y-81674552D01*
X140781504Y-81674552D01*
X140876742Y-81722171D01*
X140924361Y-81769790D01*
X140971980Y-81865028D01*
X140971980Y-82007885D01*
X140305314Y-81245980D02*
X140971980Y-81245980D01*
X140400552Y-81245980D02*
X140352933Y-81198361D01*
X140305314Y-81103123D01*
X140305314Y-80960266D01*
X140352933Y-80865028D01*
X140448171Y-80817409D01*
X140971980Y-80817409D01*
X140305314Y-80341219D02*
X140971980Y-80341219D01*
X140400552Y-80341219D02*
X140352933Y-80293600D01*
X140305314Y-80198361D01*
X140305314Y-80055504D01*
X140352933Y-79960266D01*
X140448171Y-79912647D01*
X140971980Y-79912647D01*
X141067219Y-79674552D02*
X141067219Y-78912647D01*
X139971980Y-78484076D02*
X139971980Y-78388838D01*
X140019600Y-78293600D01*
X140067219Y-78245980D01*
X140162457Y-78198361D01*
X140352933Y-78150742D01*
X140591028Y-78150742D01*
X140781504Y-78198361D01*
X140876742Y-78245980D01*
X140924361Y-78293600D01*
X140971980Y-78388838D01*
X140971980Y-78484076D01*
X140924361Y-78579314D01*
X140876742Y-78626933D01*
X140781504Y-78674552D01*
X140591028Y-78722171D01*
X140352933Y-78722171D01*
X140162457Y-78674552D01*
X140067219Y-78626933D01*
X140019600Y-78579314D01*
X139971980Y-78484076D01*
X140971980Y-77198361D02*
X140971980Y-77769790D01*
X140971980Y-77484076D02*
X139971980Y-77484076D01*
X140114838Y-77579314D01*
X140210076Y-77674552D01*
X140257695Y-77769790D01*
X140971980Y-76865028D02*
X140305314Y-76341219D01*
X140305314Y-76865028D02*
X140971980Y-76341219D01*
X139971980Y-75769790D02*
X139971980Y-75674552D01*
X140019600Y-75579314D01*
X140067219Y-75531695D01*
X140162457Y-75484076D01*
X140352933Y-75436457D01*
X140591028Y-75436457D01*
X140781504Y-75484076D01*
X140876742Y-75531695D01*
X140924361Y-75579314D01*
X140971980Y-75674552D01*
X140971980Y-75769790D01*
X140924361Y-75865028D01*
X140876742Y-75912647D01*
X140781504Y-75960266D01*
X140591028Y-76007885D01*
X140352933Y-76007885D01*
X140162457Y-75960266D01*
X140067219Y-75912647D01*
X140019600Y-75865028D01*
X139971980Y-75769790D01*
X140400552Y-74865028D02*
X140352933Y-74960266D01*
X140305314Y-75007885D01*
X140210076Y-75055504D01*
X140162457Y-75055504D01*
X140067219Y-75007885D01*
X140019600Y-74960266D01*
X139971980Y-74865028D01*
X139971980Y-74674552D01*
X140019600Y-74579314D01*
X140067219Y-74531695D01*
X140162457Y-74484076D01*
X140210076Y-74484076D01*
X140305314Y-74531695D01*
X140352933Y-74579314D01*
X140400552Y-74674552D01*
X140400552Y-74865028D01*
X140448171Y-74960266D01*
X140495790Y-75007885D01*
X140591028Y-75055504D01*
X140781504Y-75055504D01*
X140876742Y-75007885D01*
X140924361Y-74960266D01*
X140971980Y-74865028D01*
X140971980Y-74674552D01*
X140924361Y-74579314D01*
X140876742Y-74531695D01*
X140781504Y-74484076D01*
X140591028Y-74484076D01*
X140495790Y-74531695D01*
X140448171Y-74579314D01*
X140400552Y-74674552D01*
X141067219Y-74293600D02*
X141067219Y-73531695D01*
X140448171Y-72960266D02*
X140448171Y-73293600D01*
X140971980Y-73293600D02*
X139971980Y-73293600D01*
X139971980Y-72817409D01*
X140924361Y-72055504D02*
X140971980Y-72150742D01*
X140971980Y-72341219D01*
X140924361Y-72436457D01*
X140829123Y-72484076D01*
X140448171Y-72484076D01*
X140352933Y-72436457D01*
X140305314Y-72341219D01*
X140305314Y-72150742D01*
X140352933Y-72055504D01*
X140448171Y-72007885D01*
X140543409Y-72007885D01*
X140638647Y-72484076D01*
X140971980Y-71579314D02*
X140305314Y-71579314D01*
X140400552Y-71579314D02*
X140352933Y-71531695D01*
X140305314Y-71436457D01*
X140305314Y-71293600D01*
X140352933Y-71198361D01*
X140448171Y-71150742D01*
X140971980Y-71150742D01*
X140448171Y-71150742D02*
X140352933Y-71103123D01*
X140305314Y-71007885D01*
X140305314Y-70865028D01*
X140352933Y-70769790D01*
X140448171Y-70722171D01*
X140971980Y-70722171D01*
X140971980Y-69817409D02*
X140448171Y-69817409D01*
X140352933Y-69865028D01*
X140305314Y-69960266D01*
X140305314Y-70150742D01*
X140352933Y-70245980D01*
X140924361Y-69817409D02*
X140971980Y-69912647D01*
X140971980Y-70150742D01*
X140924361Y-70245980D01*
X140829123Y-70293600D01*
X140733885Y-70293600D01*
X140638647Y-70245980D01*
X140591028Y-70150742D01*
X140591028Y-69912647D01*
X140543409Y-69817409D01*
X140971980Y-69198361D02*
X140924361Y-69293600D01*
X140829123Y-69341219D01*
X139971980Y-69341219D01*
X140924361Y-68436457D02*
X140971980Y-68531695D01*
X140971980Y-68722171D01*
X140924361Y-68817409D01*
X140829123Y-68865028D01*
X140448171Y-68865028D01*
X140352933Y-68817409D01*
X140305314Y-68722171D01*
X140305314Y-68531695D01*
X140352933Y-68436457D01*
X140448171Y-68388838D01*
X140543409Y-68388838D01*
X140638647Y-68865028D01*
X151406266Y-75245980D02*
X151406266Y-75960266D01*
X151358647Y-76103123D01*
X151263409Y-76198361D01*
X151120552Y-76245980D01*
X151025314Y-76245980D01*
X152025314Y-75674552D02*
X151930076Y-75626933D01*
X151882457Y-75579314D01*
X151834838Y-75484076D01*
X151834838Y-75436457D01*
X151882457Y-75341219D01*
X151930076Y-75293600D01*
X152025314Y-75245980D01*
X152215790Y-75245980D01*
X152311028Y-75293600D01*
X152358647Y-75341219D01*
X152406266Y-75436457D01*
X152406266Y-75484076D01*
X152358647Y-75579314D01*
X152311028Y-75626933D01*
X152215790Y-75674552D01*
X152025314Y-75674552D01*
X151930076Y-75722171D01*
X151882457Y-75769790D01*
X151834838Y-75865028D01*
X151834838Y-76055504D01*
X151882457Y-76150742D01*
X151930076Y-76198361D01*
X152025314Y-76245980D01*
X152215790Y-76245980D01*
X152311028Y-76198361D01*
X152358647Y-76150742D01*
X152406266Y-76055504D01*
X152406266Y-75865028D01*
X152358647Y-75769790D01*
X152311028Y-75722171D01*
X152215790Y-75674552D01*
X131346571Y-88017028D02*
X131346571Y-88350361D01*
X131870380Y-88350361D02*
X130870380Y-88350361D01*
X130870380Y-87874171D01*
X130870380Y-87636076D02*
X130870380Y-87064647D01*
X131870380Y-87350361D02*
X130870380Y-87350361D01*
X130965619Y-86778933D02*
X130918000Y-86731314D01*
X130870380Y-86636076D01*
X130870380Y-86397980D01*
X130918000Y-86302742D01*
X130965619Y-86255123D01*
X131060857Y-86207504D01*
X131156095Y-86207504D01*
X131298952Y-86255123D01*
X131870380Y-86826552D01*
X131870380Y-86207504D01*
X130870380Y-85874171D02*
X130870380Y-85255123D01*
X131251333Y-85588457D01*
X131251333Y-85445600D01*
X131298952Y-85350361D01*
X131346571Y-85302742D01*
X131441809Y-85255123D01*
X131679904Y-85255123D01*
X131775142Y-85302742D01*
X131822761Y-85350361D01*
X131870380Y-85445600D01*
X131870380Y-85731314D01*
X131822761Y-85826552D01*
X131775142Y-85874171D01*
X130965619Y-84874171D02*
X130918000Y-84826552D01*
X130870380Y-84731314D01*
X130870380Y-84493219D01*
X130918000Y-84397980D01*
X130965619Y-84350361D01*
X131060857Y-84302742D01*
X131156095Y-84302742D01*
X131298952Y-84350361D01*
X131870380Y-84921790D01*
X131870380Y-84302742D01*
X131870380Y-83302742D02*
X131394190Y-83636076D01*
X131870380Y-83874171D02*
X130870380Y-83874171D01*
X130870380Y-83493219D01*
X130918000Y-83397980D01*
X130965619Y-83350361D01*
X131060857Y-83302742D01*
X131203714Y-83302742D01*
X131298952Y-83350361D01*
X131346571Y-83397980D01*
X131394190Y-83493219D01*
X131394190Y-83874171D01*
X131870380Y-82397980D02*
X131870380Y-82874171D01*
X130870380Y-82874171D01*
X137229904Y-86055123D02*
X137877523Y-86055123D01*
X137953714Y-86017028D01*
X137991809Y-85978933D01*
X138029904Y-85902742D01*
X138029904Y-85750361D01*
X137991809Y-85674171D01*
X137953714Y-85636076D01*
X137877523Y-85597980D01*
X137229904Y-85597980D01*
X137229904Y-85293219D02*
X137229904Y-84797980D01*
X137534666Y-85064647D01*
X137534666Y-84950361D01*
X137572761Y-84874171D01*
X137610857Y-84836076D01*
X137687047Y-84797980D01*
X137877523Y-84797980D01*
X137953714Y-84836076D01*
X137991809Y-84874171D01*
X138029904Y-84950361D01*
X138029904Y-85178933D01*
X137991809Y-85255123D01*
X137953714Y-85293219D01*
X143834380Y-109060047D02*
X143834380Y-109631476D01*
X143834380Y-109345761D02*
X142834380Y-109345761D01*
X142977238Y-109441000D01*
X143072476Y-109536238D01*
X143120095Y-109631476D01*
X142834380Y-108441000D02*
X142834380Y-108345761D01*
X142882000Y-108250523D01*
X142929619Y-108202904D01*
X143024857Y-108155285D01*
X143215333Y-108107666D01*
X143453428Y-108107666D01*
X143643904Y-108155285D01*
X143739142Y-108202904D01*
X143786761Y-108250523D01*
X143834380Y-108345761D01*
X143834380Y-108441000D01*
X143786761Y-108536238D01*
X143739142Y-108583857D01*
X143643904Y-108631476D01*
X143453428Y-108679095D01*
X143215333Y-108679095D01*
X143024857Y-108631476D01*
X142929619Y-108583857D01*
X142882000Y-108536238D01*
X142834380Y-108441000D01*
X142834380Y-107488619D02*
X142834380Y-107393380D01*
X142882000Y-107298142D01*
X142929619Y-107250523D01*
X143024857Y-107202904D01*
X143215333Y-107155285D01*
X143453428Y-107155285D01*
X143643904Y-107202904D01*
X143739142Y-107250523D01*
X143786761Y-107298142D01*
X143834380Y-107393380D01*
X143834380Y-107488619D01*
X143786761Y-107583857D01*
X143739142Y-107631476D01*
X143643904Y-107679095D01*
X143453428Y-107726714D01*
X143215333Y-107726714D01*
X143024857Y-107679095D01*
X142929619Y-107631476D01*
X142882000Y-107583857D01*
X142834380Y-107488619D01*
X143167714Y-106726714D02*
X143834380Y-106726714D01*
X143262952Y-106726714D02*
X143215333Y-106679095D01*
X143167714Y-106583857D01*
X143167714Y-106441000D01*
X143215333Y-106345761D01*
X143310571Y-106298142D01*
X143834380Y-106298142D01*
D12*
X141910571Y-108024333D02*
X141934380Y-108048142D01*
X141958190Y-108119571D01*
X141958190Y-108167190D01*
X141934380Y-108238619D01*
X141886761Y-108286238D01*
X141839142Y-108310047D01*
X141743904Y-108333857D01*
X141672476Y-108333857D01*
X141577238Y-108310047D01*
X141529619Y-108286238D01*
X141482000Y-108238619D01*
X141458190Y-108167190D01*
X141458190Y-108119571D01*
X141482000Y-108048142D01*
X141505809Y-108024333D01*
X141958190Y-107548142D02*
X141958190Y-107833857D01*
X141958190Y-107691000D02*
X141458190Y-107691000D01*
X141529619Y-107738619D01*
X141577238Y-107786238D01*
X141601047Y-107833857D01*
D11*
X133674380Y-99172047D02*
X133674380Y-99743476D01*
X133674380Y-99457761D02*
X132674380Y-99457761D01*
X132817238Y-99553000D01*
X132912476Y-99648238D01*
X132960095Y-99743476D01*
X132674380Y-98553000D02*
X132674380Y-98457761D01*
X132722000Y-98362523D01*
X132769619Y-98314904D01*
X132864857Y-98267285D01*
X133055333Y-98219666D01*
X133293428Y-98219666D01*
X133483904Y-98267285D01*
X133579142Y-98314904D01*
X133626761Y-98362523D01*
X133674380Y-98457761D01*
X133674380Y-98553000D01*
X133626761Y-98648238D01*
X133579142Y-98695857D01*
X133483904Y-98743476D01*
X133293428Y-98791095D01*
X133055333Y-98791095D01*
X132864857Y-98743476D01*
X132769619Y-98695857D01*
X132722000Y-98648238D01*
X132674380Y-98553000D01*
X132674380Y-97600619D02*
X132674380Y-97505380D01*
X132722000Y-97410142D01*
X132769619Y-97362523D01*
X132864857Y-97314904D01*
X133055333Y-97267285D01*
X133293428Y-97267285D01*
X133483904Y-97314904D01*
X133579142Y-97362523D01*
X133626761Y-97410142D01*
X133674380Y-97505380D01*
X133674380Y-97600619D01*
X133626761Y-97695857D01*
X133579142Y-97743476D01*
X133483904Y-97791095D01*
X133293428Y-97838714D01*
X133055333Y-97838714D01*
X132864857Y-97791095D01*
X132769619Y-97743476D01*
X132722000Y-97695857D01*
X132674380Y-97600619D01*
X133007714Y-96838714D02*
X133674380Y-96838714D01*
X133102952Y-96838714D02*
X133055333Y-96791095D01*
X133007714Y-96695857D01*
X133007714Y-96553000D01*
X133055333Y-96457761D01*
X133150571Y-96410142D01*
X133674380Y-96410142D01*
D12*
X131750571Y-98136333D02*
X131774380Y-98160142D01*
X131798190Y-98231571D01*
X131798190Y-98279190D01*
X131774380Y-98350619D01*
X131726761Y-98398238D01*
X131679142Y-98422047D01*
X131583904Y-98445857D01*
X131512476Y-98445857D01*
X131417238Y-98422047D01*
X131369619Y-98398238D01*
X131322000Y-98350619D01*
X131298190Y-98279190D01*
X131298190Y-98231571D01*
X131322000Y-98160142D01*
X131345809Y-98136333D01*
X131345809Y-97945857D02*
X131322000Y-97922047D01*
X131298190Y-97874428D01*
X131298190Y-97755380D01*
X131322000Y-97707761D01*
X131345809Y-97683952D01*
X131393428Y-97660142D01*
X131441047Y-97660142D01*
X131512476Y-97683952D01*
X131798190Y-97969666D01*
X131798190Y-97660142D01*
D11*
X135015952Y-94306380D02*
X134444523Y-94306380D01*
X134730238Y-94306380D02*
X134730238Y-93306380D01*
X134635000Y-93449238D01*
X134539761Y-93544476D01*
X134444523Y-93592095D01*
X135635000Y-93306380D02*
X135730238Y-93306380D01*
X135825476Y-93354000D01*
X135873095Y-93401619D01*
X135920714Y-93496857D01*
X135968333Y-93687333D01*
X135968333Y-93925428D01*
X135920714Y-94115904D01*
X135873095Y-94211142D01*
X135825476Y-94258761D01*
X135730238Y-94306380D01*
X135635000Y-94306380D01*
X135539761Y-94258761D01*
X135492142Y-94211142D01*
X135444523Y-94115904D01*
X135396904Y-93925428D01*
X135396904Y-93687333D01*
X135444523Y-93496857D01*
X135492142Y-93401619D01*
X135539761Y-93354000D01*
X135635000Y-93306380D01*
X136587380Y-93306380D02*
X136682619Y-93306380D01*
X136777857Y-93354000D01*
X136825476Y-93401619D01*
X136873095Y-93496857D01*
X136920714Y-93687333D01*
X136920714Y-93925428D01*
X136873095Y-94115904D01*
X136825476Y-94211142D01*
X136777857Y-94258761D01*
X136682619Y-94306380D01*
X136587380Y-94306380D01*
X136492142Y-94258761D01*
X136444523Y-94211142D01*
X136396904Y-94115904D01*
X136349285Y-93925428D01*
X136349285Y-93687333D01*
X136396904Y-93496857D01*
X136444523Y-93401619D01*
X136492142Y-93354000D01*
X136587380Y-93306380D01*
X137349285Y-93639714D02*
X137349285Y-94306380D01*
X137349285Y-93734952D02*
X137396904Y-93687333D01*
X137492142Y-93639714D01*
X137635000Y-93639714D01*
X137730238Y-93687333D01*
X137777857Y-93782571D01*
X137777857Y-94306380D01*
D12*
X136051666Y-95682571D02*
X136027857Y-95706380D01*
X135956428Y-95730190D01*
X135908809Y-95730190D01*
X135837380Y-95706380D01*
X135789761Y-95658761D01*
X135765952Y-95611142D01*
X135742142Y-95515904D01*
X135742142Y-95444476D01*
X135765952Y-95349238D01*
X135789761Y-95301619D01*
X135837380Y-95254000D01*
X135908809Y-95230190D01*
X135956428Y-95230190D01*
X136027857Y-95254000D01*
X136051666Y-95277809D01*
X136218333Y-95230190D02*
X136527857Y-95230190D01*
X136361190Y-95420666D01*
X136432619Y-95420666D01*
X136480238Y-95444476D01*
X136504047Y-95468285D01*
X136527857Y-95515904D01*
X136527857Y-95634952D01*
X136504047Y-95682571D01*
X136480238Y-95706380D01*
X136432619Y-95730190D01*
X136289761Y-95730190D01*
X136242142Y-95706380D01*
X136218333Y-95682571D01*
D11*
X135033952Y-94558380D02*
X134462523Y-94558380D01*
X134748238Y-94558380D02*
X134748238Y-93558380D01*
X134653000Y-93701238D01*
X134557761Y-93796476D01*
X134462523Y-93844095D01*
X135653000Y-93558380D02*
X135748238Y-93558380D01*
X135843476Y-93606000D01*
X135891095Y-93653619D01*
X135938714Y-93748857D01*
X135986333Y-93939333D01*
X135986333Y-94177428D01*
X135938714Y-94367904D01*
X135891095Y-94463142D01*
X135843476Y-94510761D01*
X135748238Y-94558380D01*
X135653000Y-94558380D01*
X135557761Y-94510761D01*
X135510142Y-94463142D01*
X135462523Y-94367904D01*
X135414904Y-94177428D01*
X135414904Y-93939333D01*
X135462523Y-93748857D01*
X135510142Y-93653619D01*
X135557761Y-93606000D01*
X135653000Y-93558380D01*
X136605380Y-93558380D02*
X136700619Y-93558380D01*
X136795857Y-93606000D01*
X136843476Y-93653619D01*
X136891095Y-93748857D01*
X136938714Y-93939333D01*
X136938714Y-94177428D01*
X136891095Y-94367904D01*
X136843476Y-94463142D01*
X136795857Y-94510761D01*
X136700619Y-94558380D01*
X136605380Y-94558380D01*
X136510142Y-94510761D01*
X136462523Y-94463142D01*
X136414904Y-94367904D01*
X136367285Y-94177428D01*
X136367285Y-93939333D01*
X136414904Y-93748857D01*
X136462523Y-93653619D01*
X136510142Y-93606000D01*
X136605380Y-93558380D01*
X137367285Y-93891714D02*
X137367285Y-94558380D01*
X137367285Y-93986952D02*
X137414904Y-93939333D01*
X137510142Y-93891714D01*
X137653000Y-93891714D01*
X137748238Y-93939333D01*
X137795857Y-94034571D01*
X137795857Y-94558380D01*
D12*
X136069666Y-92634571D02*
X136045857Y-92658380D01*
X135974428Y-92682190D01*
X135926809Y-92682190D01*
X135855380Y-92658380D01*
X135807761Y-92610761D01*
X135783952Y-92563142D01*
X135760142Y-92467904D01*
X135760142Y-92396476D01*
X135783952Y-92301238D01*
X135807761Y-92253619D01*
X135855380Y-92206000D01*
X135926809Y-92182190D01*
X135974428Y-92182190D01*
X136045857Y-92206000D01*
X136069666Y-92229809D01*
X136522047Y-92182190D02*
X136283952Y-92182190D01*
X136260142Y-92420285D01*
X136283952Y-92396476D01*
X136331571Y-92372666D01*
X136450619Y-92372666D01*
X136498238Y-92396476D01*
X136522047Y-92420285D01*
X136545857Y-92467904D01*
X136545857Y-92586952D01*
X136522047Y-92634571D01*
X136498238Y-92658380D01*
X136450619Y-92682190D01*
X136331571Y-92682190D01*
X136283952Y-92658380D01*
X136260142Y-92634571D01*
D11*
X139859952Y-81477380D02*
X139288523Y-81477380D01*
X139574238Y-81477380D02*
X139574238Y-80477380D01*
X139479000Y-80620238D01*
X139383761Y-80715476D01*
X139288523Y-80763095D01*
X140479000Y-80477380D02*
X140574238Y-80477380D01*
X140669476Y-80525000D01*
X140717095Y-80572619D01*
X140764714Y-80667857D01*
X140812333Y-80858333D01*
X140812333Y-81096428D01*
X140764714Y-81286904D01*
X140717095Y-81382142D01*
X140669476Y-81429761D01*
X140574238Y-81477380D01*
X140479000Y-81477380D01*
X140383761Y-81429761D01*
X140336142Y-81382142D01*
X140288523Y-81286904D01*
X140240904Y-81096428D01*
X140240904Y-80858333D01*
X140288523Y-80667857D01*
X140336142Y-80572619D01*
X140383761Y-80525000D01*
X140479000Y-80477380D01*
X141431380Y-80477380D02*
X141526619Y-80477380D01*
X141621857Y-80525000D01*
X141669476Y-80572619D01*
X141717095Y-80667857D01*
X141764714Y-80858333D01*
X141764714Y-81096428D01*
X141717095Y-81286904D01*
X141669476Y-81382142D01*
X141621857Y-81429761D01*
X141526619Y-81477380D01*
X141431380Y-81477380D01*
X141336142Y-81429761D01*
X141288523Y-81382142D01*
X141240904Y-81286904D01*
X141193285Y-81096428D01*
X141193285Y-80858333D01*
X141240904Y-80667857D01*
X141288523Y-80572619D01*
X141336142Y-80525000D01*
X141431380Y-80477380D01*
X142193285Y-80810714D02*
X142193285Y-81477380D01*
X142193285Y-80905952D02*
X142240904Y-80858333D01*
X142336142Y-80810714D01*
X142479000Y-80810714D01*
X142574238Y-80858333D01*
X142621857Y-80953571D01*
X142621857Y-81477380D01*
D12*
X140895666Y-79553571D02*
X140871857Y-79577380D01*
X140800428Y-79601190D01*
X140752809Y-79601190D01*
X140681380Y-79577380D01*
X140633761Y-79529761D01*
X140609952Y-79482142D01*
X140586142Y-79386904D01*
X140586142Y-79315476D01*
X140609952Y-79220238D01*
X140633761Y-79172619D01*
X140681380Y-79125000D01*
X140752809Y-79101190D01*
X140800428Y-79101190D01*
X140871857Y-79125000D01*
X140895666Y-79148809D01*
X141324238Y-79101190D02*
X141229000Y-79101190D01*
X141181380Y-79125000D01*
X141157571Y-79148809D01*
X141109952Y-79220238D01*
X141086142Y-79315476D01*
X141086142Y-79505952D01*
X141109952Y-79553571D01*
X141133761Y-79577380D01*
X141181380Y-79601190D01*
X141276619Y-79601190D01*
X141324238Y-79577380D01*
X141348047Y-79553571D01*
X141371857Y-79505952D01*
X141371857Y-79386904D01*
X141348047Y-79339285D01*
X141324238Y-79315476D01*
X141276619Y-79291666D01*
X141181380Y-79291666D01*
X141133761Y-79315476D01*
X141109952Y-79339285D01*
X141086142Y-79386904D01*
D11*
X146891380Y-113514047D02*
X146891380Y-114085476D01*
X146891380Y-113799761D02*
X145891380Y-113799761D01*
X146034238Y-113895000D01*
X146129476Y-113990238D01*
X146177095Y-114085476D01*
X145891380Y-112895000D02*
X145891380Y-112799761D01*
X145939000Y-112704523D01*
X145986619Y-112656904D01*
X146081857Y-112609285D01*
X146272333Y-112561666D01*
X146510428Y-112561666D01*
X146700904Y-112609285D01*
X146796142Y-112656904D01*
X146843761Y-112704523D01*
X146891380Y-112799761D01*
X146891380Y-112895000D01*
X146843761Y-112990238D01*
X146796142Y-113037857D01*
X146700904Y-113085476D01*
X146510428Y-113133095D01*
X146272333Y-113133095D01*
X146081857Y-113085476D01*
X145986619Y-113037857D01*
X145939000Y-112990238D01*
X145891380Y-112895000D01*
X145891380Y-111942619D02*
X145891380Y-111847380D01*
X145939000Y-111752142D01*
X145986619Y-111704523D01*
X146081857Y-111656904D01*
X146272333Y-111609285D01*
X146510428Y-111609285D01*
X146700904Y-111656904D01*
X146796142Y-111704523D01*
X146843761Y-111752142D01*
X146891380Y-111847380D01*
X146891380Y-111942619D01*
X146843761Y-112037857D01*
X146796142Y-112085476D01*
X146700904Y-112133095D01*
X146510428Y-112180714D01*
X146272333Y-112180714D01*
X146081857Y-112133095D01*
X145986619Y-112085476D01*
X145939000Y-112037857D01*
X145891380Y-111942619D01*
X146224714Y-111180714D02*
X146891380Y-111180714D01*
X146319952Y-111180714D02*
X146272333Y-111133095D01*
X146224714Y-111037857D01*
X146224714Y-110895000D01*
X146272333Y-110799761D01*
X146367571Y-110752142D01*
X146891380Y-110752142D01*
D12*
X144967571Y-112478333D02*
X144991380Y-112502142D01*
X145015190Y-112573571D01*
X145015190Y-112621190D01*
X144991380Y-112692619D01*
X144943761Y-112740238D01*
X144896142Y-112764047D01*
X144800904Y-112787857D01*
X144729476Y-112787857D01*
X144634238Y-112764047D01*
X144586619Y-112740238D01*
X144539000Y-112692619D01*
X144515190Y-112621190D01*
X144515190Y-112573571D01*
X144539000Y-112502142D01*
X144562809Y-112478333D01*
X144515190Y-112311666D02*
X144515190Y-111978333D01*
X145015190Y-112192619D01*
D11*
X145184952Y-102434380D02*
X144613523Y-102434380D01*
X144899238Y-102434380D02*
X144899238Y-101434380D01*
X144804000Y-101577238D01*
X144708761Y-101672476D01*
X144613523Y-101720095D01*
X145804000Y-101434380D02*
X145899238Y-101434380D01*
X145994476Y-101482000D01*
X146042095Y-101529619D01*
X146089714Y-101624857D01*
X146137333Y-101815333D01*
X146137333Y-102053428D01*
X146089714Y-102243904D01*
X146042095Y-102339142D01*
X145994476Y-102386761D01*
X145899238Y-102434380D01*
X145804000Y-102434380D01*
X145708761Y-102386761D01*
X145661142Y-102339142D01*
X145613523Y-102243904D01*
X145565904Y-102053428D01*
X145565904Y-101815333D01*
X145613523Y-101624857D01*
X145661142Y-101529619D01*
X145708761Y-101482000D01*
X145804000Y-101434380D01*
X146756380Y-101434380D02*
X146851619Y-101434380D01*
X146946857Y-101482000D01*
X146994476Y-101529619D01*
X147042095Y-101624857D01*
X147089714Y-101815333D01*
X147089714Y-102053428D01*
X147042095Y-102243904D01*
X146994476Y-102339142D01*
X146946857Y-102386761D01*
X146851619Y-102434380D01*
X146756380Y-102434380D01*
X146661142Y-102386761D01*
X146613523Y-102339142D01*
X146565904Y-102243904D01*
X146518285Y-102053428D01*
X146518285Y-101815333D01*
X146565904Y-101624857D01*
X146613523Y-101529619D01*
X146661142Y-101482000D01*
X146756380Y-101434380D01*
X147518285Y-101767714D02*
X147518285Y-102434380D01*
X147518285Y-101862952D02*
X147565904Y-101815333D01*
X147661142Y-101767714D01*
X147804000Y-101767714D01*
X147899238Y-101815333D01*
X147946857Y-101910571D01*
X147946857Y-102434380D01*
D12*
X146220666Y-103810571D02*
X146196857Y-103834380D01*
X146125428Y-103858190D01*
X146077809Y-103858190D01*
X146006380Y-103834380D01*
X145958761Y-103786761D01*
X145934952Y-103739142D01*
X145911142Y-103643904D01*
X145911142Y-103572476D01*
X145934952Y-103477238D01*
X145958761Y-103429619D01*
X146006380Y-103382000D01*
X146077809Y-103358190D01*
X146125428Y-103358190D01*
X146196857Y-103382000D01*
X146220666Y-103405809D01*
X146458761Y-103858190D02*
X146554000Y-103858190D01*
X146601619Y-103834380D01*
X146625428Y-103810571D01*
X146673047Y-103739142D01*
X146696857Y-103643904D01*
X146696857Y-103453428D01*
X146673047Y-103405809D01*
X146649238Y-103382000D01*
X146601619Y-103358190D01*
X146506380Y-103358190D01*
X146458761Y-103382000D01*
X146434952Y-103405809D01*
X146411142Y-103453428D01*
X146411142Y-103572476D01*
X146434952Y-103620095D01*
X146458761Y-103643904D01*
X146506380Y-103667714D01*
X146601619Y-103667714D01*
X146649238Y-103643904D01*
X146673047Y-103620095D01*
X146696857Y-103572476D01*
D11*
X166275952Y-102307380D02*
X165704523Y-102307380D01*
X165990238Y-102307380D02*
X165990238Y-101307380D01*
X165895000Y-101450238D01*
X165799761Y-101545476D01*
X165704523Y-101593095D01*
X166895000Y-101307380D02*
X166990238Y-101307380D01*
X167085476Y-101355000D01*
X167133095Y-101402619D01*
X167180714Y-101497857D01*
X167228333Y-101688333D01*
X167228333Y-101926428D01*
X167180714Y-102116904D01*
X167133095Y-102212142D01*
X167085476Y-102259761D01*
X166990238Y-102307380D01*
X166895000Y-102307380D01*
X166799761Y-102259761D01*
X166752142Y-102212142D01*
X166704523Y-102116904D01*
X166656904Y-101926428D01*
X166656904Y-101688333D01*
X166704523Y-101497857D01*
X166752142Y-101402619D01*
X166799761Y-101355000D01*
X166895000Y-101307380D01*
X167847380Y-101307380D02*
X167942619Y-101307380D01*
X168037857Y-101355000D01*
X168085476Y-101402619D01*
X168133095Y-101497857D01*
X168180714Y-101688333D01*
X168180714Y-101926428D01*
X168133095Y-102116904D01*
X168085476Y-102212142D01*
X168037857Y-102259761D01*
X167942619Y-102307380D01*
X167847380Y-102307380D01*
X167752142Y-102259761D01*
X167704523Y-102212142D01*
X167656904Y-102116904D01*
X167609285Y-101926428D01*
X167609285Y-101688333D01*
X167656904Y-101497857D01*
X167704523Y-101402619D01*
X167752142Y-101355000D01*
X167847380Y-101307380D01*
X168609285Y-101640714D02*
X168609285Y-102307380D01*
X168609285Y-101735952D02*
X168656904Y-101688333D01*
X168752142Y-101640714D01*
X168895000Y-101640714D01*
X168990238Y-101688333D01*
X169037857Y-101783571D01*
X169037857Y-102307380D01*
D12*
X167073571Y-103683571D02*
X167049761Y-103707380D01*
X166978333Y-103731190D01*
X166930714Y-103731190D01*
X166859285Y-103707380D01*
X166811666Y-103659761D01*
X166787857Y-103612142D01*
X166764047Y-103516904D01*
X166764047Y-103445476D01*
X166787857Y-103350238D01*
X166811666Y-103302619D01*
X166859285Y-103255000D01*
X166930714Y-103231190D01*
X166978333Y-103231190D01*
X167049761Y-103255000D01*
X167073571Y-103278809D01*
X167549761Y-103731190D02*
X167264047Y-103731190D01*
X167406904Y-103731190D02*
X167406904Y-103231190D01*
X167359285Y-103302619D01*
X167311666Y-103350238D01*
X167264047Y-103374047D01*
X167859285Y-103231190D02*
X167906904Y-103231190D01*
X167954523Y-103255000D01*
X167978333Y-103278809D01*
X168002142Y-103326428D01*
X168025952Y-103421666D01*
X168025952Y-103540714D01*
X168002142Y-103635952D01*
X167978333Y-103683571D01*
X167954523Y-103707380D01*
X167906904Y-103731190D01*
X167859285Y-103731190D01*
X167811666Y-103707380D01*
X167787857Y-103683571D01*
X167764047Y-103635952D01*
X167740238Y-103540714D01*
X167740238Y-103421666D01*
X167764047Y-103326428D01*
X167787857Y-103278809D01*
X167811666Y-103255000D01*
X167859285Y-103231190D01*
D11*
X164384714Y-91469219D02*
X164432333Y-91421600D01*
X164527571Y-91373980D01*
X164765666Y-91373980D01*
X164860904Y-91421600D01*
X164908523Y-91469219D01*
X164956142Y-91564457D01*
X164956142Y-91659695D01*
X164908523Y-91802552D01*
X164337095Y-92373980D01*
X164956142Y-92373980D01*
X165337095Y-91469219D02*
X165384714Y-91421600D01*
X165479952Y-91373980D01*
X165718047Y-91373980D01*
X165813285Y-91421600D01*
X165860904Y-91469219D01*
X165908523Y-91564457D01*
X165908523Y-91659695D01*
X165860904Y-91802552D01*
X165289476Y-92373980D01*
X165908523Y-92373980D01*
X166337095Y-91707314D02*
X166337095Y-92707314D01*
X166337095Y-91754933D02*
X166432333Y-91707314D01*
X166622809Y-91707314D01*
X166718047Y-91754933D01*
X166765666Y-91802552D01*
X166813285Y-91897790D01*
X166813285Y-92183504D01*
X166765666Y-92278742D01*
X166718047Y-92326361D01*
X166622809Y-92373980D01*
X166432333Y-92373980D01*
X166337095Y-92326361D01*
D12*
X165277571Y-90450171D02*
X165253761Y-90473980D01*
X165182333Y-90497790D01*
X165134714Y-90497790D01*
X165063285Y-90473980D01*
X165015666Y-90426361D01*
X164991857Y-90378742D01*
X164968047Y-90283504D01*
X164968047Y-90212076D01*
X164991857Y-90116838D01*
X165015666Y-90069219D01*
X165063285Y-90021600D01*
X165134714Y-89997790D01*
X165182333Y-89997790D01*
X165253761Y-90021600D01*
X165277571Y-90045409D01*
X165753761Y-90497790D02*
X165468047Y-90497790D01*
X165610904Y-90497790D02*
X165610904Y-89997790D01*
X165563285Y-90069219D01*
X165515666Y-90116838D01*
X165468047Y-90140647D01*
X166229952Y-90497790D02*
X165944238Y-90497790D01*
X166087095Y-90497790D02*
X166087095Y-89997790D01*
X166039476Y-90069219D01*
X165991857Y-90116838D01*
X165944238Y-90140647D01*
D11*
X159348114Y-88220019D02*
X159395733Y-88172400D01*
X159490971Y-88124780D01*
X159729066Y-88124780D01*
X159824304Y-88172400D01*
X159871923Y-88220019D01*
X159919542Y-88315257D01*
X159919542Y-88410495D01*
X159871923Y-88553352D01*
X159300495Y-89124780D01*
X159919542Y-89124780D01*
X160300495Y-88220019D02*
X160348114Y-88172400D01*
X160443352Y-88124780D01*
X160681447Y-88124780D01*
X160776685Y-88172400D01*
X160824304Y-88220019D01*
X160871923Y-88315257D01*
X160871923Y-88410495D01*
X160824304Y-88553352D01*
X160252876Y-89124780D01*
X160871923Y-89124780D01*
X161300495Y-88458114D02*
X161300495Y-89458114D01*
X161300495Y-88505733D02*
X161395733Y-88458114D01*
X161586209Y-88458114D01*
X161681447Y-88505733D01*
X161729066Y-88553352D01*
X161776685Y-88648590D01*
X161776685Y-88934304D01*
X161729066Y-89029542D01*
X161681447Y-89077161D01*
X161586209Y-89124780D01*
X161395733Y-89124780D01*
X161300495Y-89077161D01*
D12*
X160240971Y-90500971D02*
X160217161Y-90524780D01*
X160145733Y-90548590D01*
X160098114Y-90548590D01*
X160026685Y-90524780D01*
X159979066Y-90477161D01*
X159955257Y-90429542D01*
X159931447Y-90334304D01*
X159931447Y-90262876D01*
X159955257Y-90167638D01*
X159979066Y-90120019D01*
X160026685Y-90072400D01*
X160098114Y-90048590D01*
X160145733Y-90048590D01*
X160217161Y-90072400D01*
X160240971Y-90096209D01*
X160717161Y-90548590D02*
X160431447Y-90548590D01*
X160574304Y-90548590D02*
X160574304Y-90048590D01*
X160526685Y-90120019D01*
X160479066Y-90167638D01*
X160431447Y-90191447D01*
X160907638Y-90096209D02*
X160931447Y-90072400D01*
X160979066Y-90048590D01*
X161098114Y-90048590D01*
X161145733Y-90072400D01*
X161169542Y-90096209D01*
X161193352Y-90143828D01*
X161193352Y-90191447D01*
X161169542Y-90262876D01*
X160883828Y-90548590D01*
X161193352Y-90548590D01*
D11*
X166148952Y-119958380D02*
X165577523Y-119958380D01*
X165863238Y-119958380D02*
X165863238Y-118958380D01*
X165768000Y-119101238D01*
X165672761Y-119196476D01*
X165577523Y-119244095D01*
X166768000Y-118958380D02*
X166863238Y-118958380D01*
X166958476Y-119006000D01*
X167006095Y-119053619D01*
X167053714Y-119148857D01*
X167101333Y-119339333D01*
X167101333Y-119577428D01*
X167053714Y-119767904D01*
X167006095Y-119863142D01*
X166958476Y-119910761D01*
X166863238Y-119958380D01*
X166768000Y-119958380D01*
X166672761Y-119910761D01*
X166625142Y-119863142D01*
X166577523Y-119767904D01*
X166529904Y-119577428D01*
X166529904Y-119339333D01*
X166577523Y-119148857D01*
X166625142Y-119053619D01*
X166672761Y-119006000D01*
X166768000Y-118958380D01*
X167720380Y-118958380D02*
X167815619Y-118958380D01*
X167910857Y-119006000D01*
X167958476Y-119053619D01*
X168006095Y-119148857D01*
X168053714Y-119339333D01*
X168053714Y-119577428D01*
X168006095Y-119767904D01*
X167958476Y-119863142D01*
X167910857Y-119910761D01*
X167815619Y-119958380D01*
X167720380Y-119958380D01*
X167625142Y-119910761D01*
X167577523Y-119863142D01*
X167529904Y-119767904D01*
X167482285Y-119577428D01*
X167482285Y-119339333D01*
X167529904Y-119148857D01*
X167577523Y-119053619D01*
X167625142Y-119006000D01*
X167720380Y-118958380D01*
X168482285Y-119291714D02*
X168482285Y-119958380D01*
X168482285Y-119386952D02*
X168529904Y-119339333D01*
X168625142Y-119291714D01*
X168768000Y-119291714D01*
X168863238Y-119339333D01*
X168910857Y-119434571D01*
X168910857Y-119958380D01*
D12*
X166946571Y-118034571D02*
X166922761Y-118058380D01*
X166851333Y-118082190D01*
X166803714Y-118082190D01*
X166732285Y-118058380D01*
X166684666Y-118010761D01*
X166660857Y-117963142D01*
X166637047Y-117867904D01*
X166637047Y-117796476D01*
X166660857Y-117701238D01*
X166684666Y-117653619D01*
X166732285Y-117606000D01*
X166803714Y-117582190D01*
X166851333Y-117582190D01*
X166922761Y-117606000D01*
X166946571Y-117629809D01*
X167422761Y-118082190D02*
X167137047Y-118082190D01*
X167279904Y-118082190D02*
X167279904Y-117582190D01*
X167232285Y-117653619D01*
X167184666Y-117701238D01*
X167137047Y-117725047D01*
X167589428Y-117582190D02*
X167898952Y-117582190D01*
X167732285Y-117772666D01*
X167803714Y-117772666D01*
X167851333Y-117796476D01*
X167875142Y-117820285D01*
X167898952Y-117867904D01*
X167898952Y-117986952D01*
X167875142Y-118034571D01*
X167851333Y-118058380D01*
X167803714Y-118082190D01*
X167660857Y-118082190D01*
X167613238Y-118058380D01*
X167589428Y-118034571D01*
D11*
X146132642Y-103364380D02*
X145656452Y-103364380D01*
X145656452Y-102364380D01*
X146465976Y-102840571D02*
X146799309Y-102840571D01*
X146942166Y-103364380D02*
X146465976Y-103364380D01*
X146465976Y-102364380D01*
X146942166Y-102364380D01*
X147370738Y-103364380D02*
X147370738Y-102364380D01*
X147608833Y-102364380D01*
X147751690Y-102412000D01*
X147846928Y-102507238D01*
X147894547Y-102602476D01*
X147942166Y-102792952D01*
X147942166Y-102935809D01*
X147894547Y-103126285D01*
X147846928Y-103221523D01*
X147751690Y-103316761D01*
X147608833Y-103364380D01*
X147370738Y-103364380D01*
D13*
X146185023Y-101453904D02*
X146185023Y-100653904D01*
X146375500Y-100653904D01*
X146489785Y-100692000D01*
X146565976Y-100768190D01*
X146604071Y-100844380D01*
X146642166Y-100996761D01*
X146642166Y-101111047D01*
X146604071Y-101263428D01*
X146565976Y-101339619D01*
X146489785Y-101415809D01*
X146375500Y-101453904D01*
X146185023Y-101453904D01*
X146946928Y-100730095D02*
X146985023Y-100692000D01*
X147061214Y-100653904D01*
X147251690Y-100653904D01*
X147327880Y-100692000D01*
X147365976Y-100730095D01*
X147404071Y-100806285D01*
X147404071Y-100882476D01*
X147365976Y-100996761D01*
X146908833Y-101453904D01*
X147404071Y-101453904D01*
D11*
X146205642Y-90156380D02*
X145729452Y-90156380D01*
X145729452Y-89156380D01*
X146538976Y-89632571D02*
X146872309Y-89632571D01*
X147015166Y-90156380D02*
X146538976Y-90156380D01*
X146538976Y-89156380D01*
X147015166Y-89156380D01*
X147443738Y-90156380D02*
X147443738Y-89156380D01*
X147681833Y-89156380D01*
X147824690Y-89204000D01*
X147919928Y-89299238D01*
X147967547Y-89394476D01*
X148015166Y-89584952D01*
X148015166Y-89727809D01*
X147967547Y-89918285D01*
X147919928Y-90013523D01*
X147824690Y-90108761D01*
X147681833Y-90156380D01*
X147443738Y-90156380D01*
D13*
X146258023Y-88245904D02*
X146258023Y-87445904D01*
X146448500Y-87445904D01*
X146562785Y-87484000D01*
X146638976Y-87560190D01*
X146677071Y-87636380D01*
X146715166Y-87788761D01*
X146715166Y-87903047D01*
X146677071Y-88055428D01*
X146638976Y-88131619D01*
X146562785Y-88207809D01*
X146448500Y-88245904D01*
X146258023Y-88245904D01*
X146981833Y-87445904D02*
X147477071Y-87445904D01*
X147210404Y-87750666D01*
X147324690Y-87750666D01*
X147400880Y-87788761D01*
X147438976Y-87826857D01*
X147477071Y-87903047D01*
X147477071Y-88093523D01*
X147438976Y-88169714D01*
X147400880Y-88207809D01*
X147324690Y-88245904D01*
X147096119Y-88245904D01*
X147019928Y-88207809D01*
X146981833Y-88169714D01*
D11*
X146205642Y-95236380D02*
X145729452Y-95236380D01*
X145729452Y-94236380D01*
X146538976Y-94712571D02*
X146872309Y-94712571D01*
X147015166Y-95236380D02*
X146538976Y-95236380D01*
X146538976Y-94236380D01*
X147015166Y-94236380D01*
X147443738Y-95236380D02*
X147443738Y-94236380D01*
X147681833Y-94236380D01*
X147824690Y-94284000D01*
X147919928Y-94379238D01*
X147967547Y-94474476D01*
X148015166Y-94664952D01*
X148015166Y-94807809D01*
X147967547Y-94998285D01*
X147919928Y-95093523D01*
X147824690Y-95188761D01*
X147681833Y-95236380D01*
X147443738Y-95236380D01*
D13*
X146258023Y-93325904D02*
X146258023Y-92525904D01*
X146448500Y-92525904D01*
X146562785Y-92564000D01*
X146638976Y-92640190D01*
X146677071Y-92716380D01*
X146715166Y-92868761D01*
X146715166Y-92983047D01*
X146677071Y-93135428D01*
X146638976Y-93211619D01*
X146562785Y-93287809D01*
X146448500Y-93325904D01*
X146258023Y-93325904D01*
X147400880Y-92792571D02*
X147400880Y-93325904D01*
X147210404Y-92487809D02*
X147019928Y-93059238D01*
X147515166Y-93059238D01*
D11*
X146132642Y-78388380D02*
X145656452Y-78388380D01*
X145656452Y-77388380D01*
X146465976Y-77864571D02*
X146799309Y-77864571D01*
X146942166Y-78388380D02*
X146465976Y-78388380D01*
X146465976Y-77388380D01*
X146942166Y-77388380D01*
X147370738Y-78388380D02*
X147370738Y-77388380D01*
X147608833Y-77388380D01*
X147751690Y-77436000D01*
X147846928Y-77531238D01*
X147894547Y-77626476D01*
X147942166Y-77816952D01*
X147942166Y-77959809D01*
X147894547Y-78150285D01*
X147846928Y-78245523D01*
X147751690Y-78340761D01*
X147608833Y-78388380D01*
X147370738Y-78388380D01*
D13*
X146185023Y-80117904D02*
X146185023Y-79317904D01*
X146375500Y-79317904D01*
X146489785Y-79356000D01*
X146565976Y-79432190D01*
X146604071Y-79508380D01*
X146642166Y-79660761D01*
X146642166Y-79775047D01*
X146604071Y-79927428D01*
X146565976Y-80003619D01*
X146489785Y-80079809D01*
X146375500Y-80117904D01*
X146185023Y-80117904D01*
X147365976Y-79317904D02*
X146985023Y-79317904D01*
X146946928Y-79698857D01*
X146985023Y-79660761D01*
X147061214Y-79622666D01*
X147251690Y-79622666D01*
X147327880Y-79660761D01*
X147365976Y-79698857D01*
X147404071Y-79775047D01*
X147404071Y-79965523D01*
X147365976Y-80041714D01*
X147327880Y-80079809D01*
X147251690Y-80117904D01*
X147061214Y-80117904D01*
X146985023Y-80079809D01*
X146946928Y-80041714D01*
D11*
X119036942Y-79403180D02*
X119036942Y-80212704D01*
X119084561Y-80307942D01*
X119132180Y-80355561D01*
X119227419Y-80403180D01*
X119417895Y-80403180D01*
X119513133Y-80355561D01*
X119560752Y-80307942D01*
X119608371Y-80212704D01*
X119608371Y-79403180D01*
X120036942Y-80355561D02*
X120179800Y-80403180D01*
X120417895Y-80403180D01*
X120513133Y-80355561D01*
X120560752Y-80307942D01*
X120608371Y-80212704D01*
X120608371Y-80117466D01*
X120560752Y-80022228D01*
X120513133Y-79974609D01*
X120417895Y-79926990D01*
X120227419Y-79879371D01*
X120132180Y-79831752D01*
X120084561Y-79784133D01*
X120036942Y-79688895D01*
X120036942Y-79593657D01*
X120084561Y-79498419D01*
X120132180Y-79450800D01*
X120227419Y-79403180D01*
X120465514Y-79403180D01*
X120608371Y-79450800D01*
X121370276Y-79879371D02*
X121513133Y-79926990D01*
X121560752Y-79974609D01*
X121608371Y-80069847D01*
X121608371Y-80212704D01*
X121560752Y-80307942D01*
X121513133Y-80355561D01*
X121417895Y-80403180D01*
X121036942Y-80403180D01*
X121036942Y-79403180D01*
X121370276Y-79403180D01*
X121465514Y-79450800D01*
X121513133Y-79498419D01*
X121560752Y-79593657D01*
X121560752Y-79688895D01*
X121513133Y-79784133D01*
X121465514Y-79831752D01*
X121370276Y-79879371D01*
X121036942Y-79879371D01*
X121798847Y-80498419D02*
X122560752Y-80498419D01*
X123132180Y-79879371D02*
X123275038Y-79926990D01*
X123322657Y-79974609D01*
X123370276Y-80069847D01*
X123370276Y-80212704D01*
X123322657Y-80307942D01*
X123275038Y-80355561D01*
X123179800Y-80403180D01*
X122798847Y-80403180D01*
X122798847Y-79403180D01*
X123132180Y-79403180D01*
X123227419Y-79450800D01*
X123275038Y-79498419D01*
X123322657Y-79593657D01*
X123322657Y-79688895D01*
X123275038Y-79784133D01*
X123227419Y-79831752D01*
X123132180Y-79879371D01*
X122798847Y-79879371D01*
X120846466Y-88423180D02*
X120846466Y-89137466D01*
X120798847Y-89280323D01*
X120703609Y-89375561D01*
X120560752Y-89423180D01*
X120465514Y-89423180D01*
X121846466Y-89423180D02*
X121275038Y-89423180D01*
X121560752Y-89423180D02*
X121560752Y-88423180D01*
X121465514Y-88566038D01*
X121370276Y-88661276D01*
X121275038Y-88708895D01*
X133243142Y-83493714D02*
X133290761Y-83541333D01*
X133338380Y-83684190D01*
X133338380Y-83779428D01*
X133290761Y-83922285D01*
X133195523Y-84017523D01*
X133100285Y-84065142D01*
X132909809Y-84112761D01*
X132766952Y-84112761D01*
X132576476Y-84065142D01*
X132481238Y-84017523D01*
X132386000Y-83922285D01*
X132338380Y-83779428D01*
X132338380Y-83684190D01*
X132386000Y-83541333D01*
X132433619Y-83493714D01*
X133338380Y-82922285D02*
X133290761Y-83017523D01*
X133243142Y-83065142D01*
X133147904Y-83112761D01*
X132862190Y-83112761D01*
X132766952Y-83065142D01*
X132719333Y-83017523D01*
X132671714Y-82922285D01*
X132671714Y-82779428D01*
X132719333Y-82684190D01*
X132766952Y-82636571D01*
X132862190Y-82588952D01*
X133147904Y-82588952D01*
X133243142Y-82636571D01*
X133290761Y-82684190D01*
X133338380Y-82779428D01*
X133338380Y-82922285D01*
X132671714Y-82160380D02*
X133338380Y-82160380D01*
X132766952Y-82160380D02*
X132719333Y-82112761D01*
X132671714Y-82017523D01*
X132671714Y-81874666D01*
X132719333Y-81779428D01*
X132814571Y-81731809D01*
X133338380Y-81731809D01*
X132671714Y-81255619D02*
X133338380Y-81255619D01*
X132766952Y-81255619D02*
X132719333Y-81208000D01*
X132671714Y-81112761D01*
X132671714Y-80969904D01*
X132719333Y-80874666D01*
X132814571Y-80827047D01*
X133338380Y-80827047D01*
X133433619Y-80588952D02*
X133433619Y-79827047D01*
X132338380Y-79398476D02*
X132338380Y-79303238D01*
X132386000Y-79208000D01*
X132433619Y-79160380D01*
X132528857Y-79112761D01*
X132719333Y-79065142D01*
X132957428Y-79065142D01*
X133147904Y-79112761D01*
X133243142Y-79160380D01*
X133290761Y-79208000D01*
X133338380Y-79303238D01*
X133338380Y-79398476D01*
X133290761Y-79493714D01*
X133243142Y-79541333D01*
X133147904Y-79588952D01*
X132957428Y-79636571D01*
X132719333Y-79636571D01*
X132528857Y-79588952D01*
X132433619Y-79541333D01*
X132386000Y-79493714D01*
X132338380Y-79398476D01*
X133338380Y-78112761D02*
X133338380Y-78684190D01*
X133338380Y-78398476D02*
X132338380Y-78398476D01*
X132481238Y-78493714D01*
X132576476Y-78588952D01*
X132624095Y-78684190D01*
X133338380Y-77779428D02*
X132671714Y-77255619D01*
X132671714Y-77779428D02*
X133338380Y-77255619D01*
X132338380Y-76684190D02*
X132338380Y-76588952D01*
X132386000Y-76493714D01*
X132433619Y-76446095D01*
X132528857Y-76398476D01*
X132719333Y-76350857D01*
X132957428Y-76350857D01*
X133147904Y-76398476D01*
X133243142Y-76446095D01*
X133290761Y-76493714D01*
X133338380Y-76588952D01*
X133338380Y-76684190D01*
X133290761Y-76779428D01*
X133243142Y-76827047D01*
X133147904Y-76874666D01*
X132957428Y-76922285D01*
X132719333Y-76922285D01*
X132528857Y-76874666D01*
X132433619Y-76827047D01*
X132386000Y-76779428D01*
X132338380Y-76684190D01*
X132671714Y-75493714D02*
X133338380Y-75493714D01*
X132290761Y-75731809D02*
X133005047Y-75969904D01*
X133005047Y-75350857D01*
X133433619Y-75208000D02*
X133433619Y-74446095D01*
X132814571Y-73874666D02*
X132814571Y-74208000D01*
X133338380Y-74208000D02*
X132338380Y-74208000D01*
X132338380Y-73731809D01*
X133290761Y-72969904D02*
X133338380Y-73065142D01*
X133338380Y-73255619D01*
X133290761Y-73350857D01*
X133195523Y-73398476D01*
X132814571Y-73398476D01*
X132719333Y-73350857D01*
X132671714Y-73255619D01*
X132671714Y-73065142D01*
X132719333Y-72969904D01*
X132814571Y-72922285D01*
X132909809Y-72922285D01*
X133005047Y-73398476D01*
X133338380Y-72493714D02*
X132671714Y-72493714D01*
X132766952Y-72493714D02*
X132719333Y-72446095D01*
X132671714Y-72350857D01*
X132671714Y-72208000D01*
X132719333Y-72112761D01*
X132814571Y-72065142D01*
X133338380Y-72065142D01*
X132814571Y-72065142D02*
X132719333Y-72017523D01*
X132671714Y-71922285D01*
X132671714Y-71779428D01*
X132719333Y-71684190D01*
X132814571Y-71636571D01*
X133338380Y-71636571D01*
X133338380Y-70731809D02*
X132814571Y-70731809D01*
X132719333Y-70779428D01*
X132671714Y-70874666D01*
X132671714Y-71065142D01*
X132719333Y-71160380D01*
X133290761Y-70731809D02*
X133338380Y-70827047D01*
X133338380Y-71065142D01*
X133290761Y-71160380D01*
X133195523Y-71208000D01*
X133100285Y-71208000D01*
X133005047Y-71160380D01*
X132957428Y-71065142D01*
X132957428Y-70827047D01*
X132909809Y-70731809D01*
X133338380Y-70112761D02*
X133290761Y-70208000D01*
X133195523Y-70255619D01*
X132338380Y-70255619D01*
X133290761Y-69350857D02*
X133338380Y-69446095D01*
X133338380Y-69636571D01*
X133290761Y-69731809D01*
X133195523Y-69779428D01*
X132814571Y-69779428D01*
X132719333Y-69731809D01*
X132671714Y-69636571D01*
X132671714Y-69446095D01*
X132719333Y-69350857D01*
X132814571Y-69303238D01*
X132909809Y-69303238D01*
X133005047Y-69779428D01*
X126412666Y-76160380D02*
X126412666Y-76874666D01*
X126365047Y-77017523D01*
X126269809Y-77112761D01*
X126126952Y-77160380D01*
X126031714Y-77160380D01*
X126793619Y-76160380D02*
X127412666Y-76160380D01*
X127079333Y-76541333D01*
X127222190Y-76541333D01*
X127317428Y-76588952D01*
X127365047Y-76636571D01*
X127412666Y-76731809D01*
X127412666Y-76969904D01*
X127365047Y-77065142D01*
X127317428Y-77112761D01*
X127222190Y-77160380D01*
X126936476Y-77160380D01*
X126841238Y-77112761D01*
X126793619Y-77065142D01*
X167355342Y-130839314D02*
X167402961Y-130886933D01*
X167450580Y-131029790D01*
X167450580Y-131125028D01*
X167402961Y-131267885D01*
X167307723Y-131363123D01*
X167212485Y-131410742D01*
X167022009Y-131458361D01*
X166879152Y-131458361D01*
X166688676Y-131410742D01*
X166593438Y-131363123D01*
X166498200Y-131267885D01*
X166450580Y-131125028D01*
X166450580Y-131029790D01*
X166498200Y-130886933D01*
X166545819Y-130839314D01*
X167450580Y-130267885D02*
X167402961Y-130363123D01*
X167355342Y-130410742D01*
X167260104Y-130458361D01*
X166974390Y-130458361D01*
X166879152Y-130410742D01*
X166831533Y-130363123D01*
X166783914Y-130267885D01*
X166783914Y-130125028D01*
X166831533Y-130029790D01*
X166879152Y-129982171D01*
X166974390Y-129934552D01*
X167260104Y-129934552D01*
X167355342Y-129982171D01*
X167402961Y-130029790D01*
X167450580Y-130125028D01*
X167450580Y-130267885D01*
X166783914Y-129505980D02*
X167450580Y-129505980D01*
X166879152Y-129505980D02*
X166831533Y-129458361D01*
X166783914Y-129363123D01*
X166783914Y-129220266D01*
X166831533Y-129125028D01*
X166926771Y-129077409D01*
X167450580Y-129077409D01*
X166783914Y-128601219D02*
X167450580Y-128601219D01*
X166879152Y-128601219D02*
X166831533Y-128553600D01*
X166783914Y-128458361D01*
X166783914Y-128315504D01*
X166831533Y-128220266D01*
X166926771Y-128172647D01*
X167450580Y-128172647D01*
X167545819Y-127934552D02*
X167545819Y-127172647D01*
X166450580Y-126744076D02*
X166450580Y-126648838D01*
X166498200Y-126553600D01*
X166545819Y-126505980D01*
X166641057Y-126458361D01*
X166831533Y-126410742D01*
X167069628Y-126410742D01*
X167260104Y-126458361D01*
X167355342Y-126505980D01*
X167402961Y-126553600D01*
X167450580Y-126648838D01*
X167450580Y-126744076D01*
X167402961Y-126839314D01*
X167355342Y-126886933D01*
X167260104Y-126934552D01*
X167069628Y-126982171D01*
X166831533Y-126982171D01*
X166641057Y-126934552D01*
X166545819Y-126886933D01*
X166498200Y-126839314D01*
X166450580Y-126744076D01*
X167450580Y-125458361D02*
X167450580Y-126029790D01*
X167450580Y-125744076D02*
X166450580Y-125744076D01*
X166593438Y-125839314D01*
X166688676Y-125934552D01*
X166736295Y-126029790D01*
X167450580Y-125125028D02*
X166783914Y-124601219D01*
X166783914Y-125125028D02*
X167450580Y-124601219D01*
X166450580Y-124029790D02*
X166450580Y-123934552D01*
X166498200Y-123839314D01*
X166545819Y-123791695D01*
X166641057Y-123744076D01*
X166831533Y-123696457D01*
X167069628Y-123696457D01*
X167260104Y-123744076D01*
X167355342Y-123791695D01*
X167402961Y-123839314D01*
X167450580Y-123934552D01*
X167450580Y-124029790D01*
X167402961Y-124125028D01*
X167355342Y-124172647D01*
X167260104Y-124220266D01*
X167069628Y-124267885D01*
X166831533Y-124267885D01*
X166641057Y-124220266D01*
X166545819Y-124172647D01*
X166498200Y-124125028D01*
X166450580Y-124029790D01*
X166450580Y-122839314D02*
X166450580Y-123029790D01*
X166498200Y-123125028D01*
X166545819Y-123172647D01*
X166688676Y-123267885D01*
X166879152Y-123315504D01*
X167260104Y-123315504D01*
X167355342Y-123267885D01*
X167402961Y-123220266D01*
X167450580Y-123125028D01*
X167450580Y-122934552D01*
X167402961Y-122839314D01*
X167355342Y-122791695D01*
X167260104Y-122744076D01*
X167022009Y-122744076D01*
X166926771Y-122791695D01*
X166879152Y-122839314D01*
X166831533Y-122934552D01*
X166831533Y-123125028D01*
X166879152Y-123220266D01*
X166926771Y-123267885D01*
X167022009Y-123315504D01*
X167545819Y-122553600D02*
X167545819Y-121791695D01*
X166926771Y-121220266D02*
X166926771Y-121553600D01*
X167450580Y-121553600D02*
X166450580Y-121553600D01*
X166450580Y-121077409D01*
X167402961Y-120315504D02*
X167450580Y-120410742D01*
X167450580Y-120601219D01*
X167402961Y-120696457D01*
X167307723Y-120744076D01*
X166926771Y-120744076D01*
X166831533Y-120696457D01*
X166783914Y-120601219D01*
X166783914Y-120410742D01*
X166831533Y-120315504D01*
X166926771Y-120267885D01*
X167022009Y-120267885D01*
X167117247Y-120744076D01*
X167450580Y-119839314D02*
X166783914Y-119839314D01*
X166879152Y-119839314D02*
X166831533Y-119791695D01*
X166783914Y-119696457D01*
X166783914Y-119553600D01*
X166831533Y-119458361D01*
X166926771Y-119410742D01*
X167450580Y-119410742D01*
X166926771Y-119410742D02*
X166831533Y-119363123D01*
X166783914Y-119267885D01*
X166783914Y-119125028D01*
X166831533Y-119029790D01*
X166926771Y-118982171D01*
X167450580Y-118982171D01*
X167450580Y-118077409D02*
X166926771Y-118077409D01*
X166831533Y-118125028D01*
X166783914Y-118220266D01*
X166783914Y-118410742D01*
X166831533Y-118505980D01*
X167402961Y-118077409D02*
X167450580Y-118172647D01*
X167450580Y-118410742D01*
X167402961Y-118505980D01*
X167307723Y-118553600D01*
X167212485Y-118553600D01*
X167117247Y-118505980D01*
X167069628Y-118410742D01*
X167069628Y-118172647D01*
X167022009Y-118077409D01*
X167450580Y-117458361D02*
X167402961Y-117553600D01*
X167307723Y-117601219D01*
X166450580Y-117601219D01*
X167402961Y-116696457D02*
X167450580Y-116791695D01*
X167450580Y-116982171D01*
X167402961Y-117077409D01*
X167307723Y-117125028D01*
X166926771Y-117125028D01*
X166831533Y-117077409D01*
X166783914Y-116982171D01*
X166783914Y-116791695D01*
X166831533Y-116696457D01*
X166926771Y-116648838D01*
X167022009Y-116648838D01*
X167117247Y-117125028D01*
X157984866Y-123505980D02*
X157984866Y-124220266D01*
X157937247Y-124363123D01*
X157842009Y-124458361D01*
X157699152Y-124505980D01*
X157603914Y-124505980D01*
X158889628Y-123839314D02*
X158889628Y-124505980D01*
X158651533Y-123458361D02*
X158413438Y-124172647D01*
X159032485Y-124172647D01*
X185160742Y-130839314D02*
X185208361Y-130886933D01*
X185255980Y-131029790D01*
X185255980Y-131125028D01*
X185208361Y-131267885D01*
X185113123Y-131363123D01*
X185017885Y-131410742D01*
X184827409Y-131458361D01*
X184684552Y-131458361D01*
X184494076Y-131410742D01*
X184398838Y-131363123D01*
X184303600Y-131267885D01*
X184255980Y-131125028D01*
X184255980Y-131029790D01*
X184303600Y-130886933D01*
X184351219Y-130839314D01*
X185255980Y-130267885D02*
X185208361Y-130363123D01*
X185160742Y-130410742D01*
X185065504Y-130458361D01*
X184779790Y-130458361D01*
X184684552Y-130410742D01*
X184636933Y-130363123D01*
X184589314Y-130267885D01*
X184589314Y-130125028D01*
X184636933Y-130029790D01*
X184684552Y-129982171D01*
X184779790Y-129934552D01*
X185065504Y-129934552D01*
X185160742Y-129982171D01*
X185208361Y-130029790D01*
X185255980Y-130125028D01*
X185255980Y-130267885D01*
X184589314Y-129505980D02*
X185255980Y-129505980D01*
X184684552Y-129505980D02*
X184636933Y-129458361D01*
X184589314Y-129363123D01*
X184589314Y-129220266D01*
X184636933Y-129125028D01*
X184732171Y-129077409D01*
X185255980Y-129077409D01*
X184589314Y-128601219D02*
X185255980Y-128601219D01*
X184684552Y-128601219D02*
X184636933Y-128553600D01*
X184589314Y-128458361D01*
X184589314Y-128315504D01*
X184636933Y-128220266D01*
X184732171Y-128172647D01*
X185255980Y-128172647D01*
X185351219Y-127934552D02*
X185351219Y-127172647D01*
X184255980Y-126744076D02*
X184255980Y-126648838D01*
X184303600Y-126553600D01*
X184351219Y-126505980D01*
X184446457Y-126458361D01*
X184636933Y-126410742D01*
X184875028Y-126410742D01*
X185065504Y-126458361D01*
X185160742Y-126505980D01*
X185208361Y-126553600D01*
X185255980Y-126648838D01*
X185255980Y-126744076D01*
X185208361Y-126839314D01*
X185160742Y-126886933D01*
X185065504Y-126934552D01*
X184875028Y-126982171D01*
X184636933Y-126982171D01*
X184446457Y-126934552D01*
X184351219Y-126886933D01*
X184303600Y-126839314D01*
X184255980Y-126744076D01*
X185255980Y-125458361D02*
X185255980Y-126029790D01*
X185255980Y-125744076D02*
X184255980Y-125744076D01*
X184398838Y-125839314D01*
X184494076Y-125934552D01*
X184541695Y-126029790D01*
X185255980Y-125125028D02*
X184589314Y-124601219D01*
X184589314Y-125125028D02*
X185255980Y-124601219D01*
X184255980Y-124029790D02*
X184255980Y-123934552D01*
X184303600Y-123839314D01*
X184351219Y-123791695D01*
X184446457Y-123744076D01*
X184636933Y-123696457D01*
X184875028Y-123696457D01*
X185065504Y-123744076D01*
X185160742Y-123791695D01*
X185208361Y-123839314D01*
X185255980Y-123934552D01*
X185255980Y-124029790D01*
X185208361Y-124125028D01*
X185160742Y-124172647D01*
X185065504Y-124220266D01*
X184875028Y-124267885D01*
X184636933Y-124267885D01*
X184446457Y-124220266D01*
X184351219Y-124172647D01*
X184303600Y-124125028D01*
X184255980Y-124029790D01*
X184255980Y-122839314D02*
X184255980Y-123029790D01*
X184303600Y-123125028D01*
X184351219Y-123172647D01*
X184494076Y-123267885D01*
X184684552Y-123315504D01*
X185065504Y-123315504D01*
X185160742Y-123267885D01*
X185208361Y-123220266D01*
X185255980Y-123125028D01*
X185255980Y-122934552D01*
X185208361Y-122839314D01*
X185160742Y-122791695D01*
X185065504Y-122744076D01*
X184827409Y-122744076D01*
X184732171Y-122791695D01*
X184684552Y-122839314D01*
X184636933Y-122934552D01*
X184636933Y-123125028D01*
X184684552Y-123220266D01*
X184732171Y-123267885D01*
X184827409Y-123315504D01*
X185351219Y-122553600D02*
X185351219Y-121791695D01*
X184732171Y-121220266D02*
X184732171Y-121553600D01*
X185255980Y-121553600D02*
X184255980Y-121553600D01*
X184255980Y-121077409D01*
X185208361Y-120315504D02*
X185255980Y-120410742D01*
X185255980Y-120601219D01*
X185208361Y-120696457D01*
X185113123Y-120744076D01*
X184732171Y-120744076D01*
X184636933Y-120696457D01*
X184589314Y-120601219D01*
X184589314Y-120410742D01*
X184636933Y-120315504D01*
X184732171Y-120267885D01*
X184827409Y-120267885D01*
X184922647Y-120744076D01*
X185255980Y-119839314D02*
X184589314Y-119839314D01*
X184684552Y-119839314D02*
X184636933Y-119791695D01*
X184589314Y-119696457D01*
X184589314Y-119553600D01*
X184636933Y-119458361D01*
X184732171Y-119410742D01*
X185255980Y-119410742D01*
X184732171Y-119410742D02*
X184636933Y-119363123D01*
X184589314Y-119267885D01*
X184589314Y-119125028D01*
X184636933Y-119029790D01*
X184732171Y-118982171D01*
X185255980Y-118982171D01*
X185255980Y-118077409D02*
X184732171Y-118077409D01*
X184636933Y-118125028D01*
X184589314Y-118220266D01*
X184589314Y-118410742D01*
X184636933Y-118505980D01*
X185208361Y-118077409D02*
X185255980Y-118172647D01*
X185255980Y-118410742D01*
X185208361Y-118505980D01*
X185113123Y-118553600D01*
X185017885Y-118553600D01*
X184922647Y-118505980D01*
X184875028Y-118410742D01*
X184875028Y-118172647D01*
X184827409Y-118077409D01*
X185255980Y-117458361D02*
X185208361Y-117553600D01*
X185113123Y-117601219D01*
X184255980Y-117601219D01*
X185208361Y-116696457D02*
X185255980Y-116791695D01*
X185255980Y-116982171D01*
X185208361Y-117077409D01*
X185113123Y-117125028D01*
X184732171Y-117125028D01*
X184636933Y-117077409D01*
X184589314Y-116982171D01*
X184589314Y-116791695D01*
X184636933Y-116696457D01*
X184732171Y-116648838D01*
X184827409Y-116648838D01*
X184922647Y-117125028D01*
X175790266Y-123505980D02*
X175790266Y-124220266D01*
X175742647Y-124363123D01*
X175647409Y-124458361D01*
X175504552Y-124505980D01*
X175409314Y-124505980D01*
X176742647Y-123505980D02*
X176266457Y-123505980D01*
X176218838Y-123982171D01*
X176266457Y-123934552D01*
X176361695Y-123886933D01*
X176599790Y-123886933D01*
X176695028Y-123934552D01*
X176742647Y-123982171D01*
X176790266Y-124077409D01*
X176790266Y-124315504D01*
X176742647Y-124410742D01*
X176695028Y-124458361D01*
X176599790Y-124505980D01*
X176361695Y-124505980D01*
X176266457Y-124458361D01*
X176218838Y-124410742D01*
X139057333Y-97286380D02*
X139057333Y-98000666D01*
X139009714Y-98143523D01*
X138914476Y-98238761D01*
X138771619Y-98286380D01*
X138676380Y-98286380D01*
X139962095Y-97619714D02*
X139962095Y-98286380D01*
X139533523Y-97619714D02*
X139533523Y-98143523D01*
X139581142Y-98238761D01*
X139676380Y-98286380D01*
X139819238Y-98286380D01*
X139914476Y-98238761D01*
X139962095Y-98191142D01*
X140438285Y-98286380D02*
X140438285Y-97619714D01*
X140438285Y-97714952D02*
X140485904Y-97667333D01*
X140581142Y-97619714D01*
X140724000Y-97619714D01*
X140819238Y-97667333D01*
X140866857Y-97762571D01*
X140866857Y-98286380D01*
X140866857Y-97762571D02*
X140914476Y-97667333D01*
X141009714Y-97619714D01*
X141152571Y-97619714D01*
X141247809Y-97667333D01*
X141295428Y-97762571D01*
X141295428Y-98286380D01*
X141771619Y-97619714D02*
X141771619Y-98619714D01*
X141771619Y-97667333D02*
X141866857Y-97619714D01*
X142057333Y-97619714D01*
X142152571Y-97667333D01*
X142200190Y-97714952D01*
X142247809Y-97810190D01*
X142247809Y-98095904D01*
X142200190Y-98191142D01*
X142152571Y-98238761D01*
X142057333Y-98286380D01*
X141866857Y-98286380D01*
X141771619Y-98238761D01*
X143057333Y-98238761D02*
X142962095Y-98286380D01*
X142771619Y-98286380D01*
X142676380Y-98238761D01*
X142628761Y-98143523D01*
X142628761Y-97762571D01*
X142676380Y-97667333D01*
X142771619Y-97619714D01*
X142962095Y-97619714D01*
X143057333Y-97667333D01*
X143104952Y-97762571D01*
X143104952Y-97857809D01*
X142628761Y-97953047D01*
X143533523Y-98286380D02*
X143533523Y-97619714D01*
X143533523Y-97810190D02*
X143581142Y-97714952D01*
X143628761Y-97667333D01*
X143724000Y-97619714D01*
X143819238Y-97619714D01*
X140676380Y-95067333D02*
X141390666Y-95067333D01*
X141533523Y-95114952D01*
X141628761Y-95210190D01*
X141676380Y-95353047D01*
X141676380Y-95448285D01*
X141676380Y-94591142D02*
X140676380Y-94591142D01*
X140676380Y-94210190D01*
X140724000Y-94114952D01*
X140771619Y-94067333D01*
X140866857Y-94019714D01*
X141009714Y-94019714D01*
X141104952Y-94067333D01*
X141152571Y-94114952D01*
X141200190Y-94210190D01*
X141200190Y-94591142D01*
X141676380Y-93067333D02*
X141676380Y-93638761D01*
X141676380Y-93353047D02*
X140676380Y-93353047D01*
X140819238Y-93448285D01*
X140914476Y-93543523D01*
X140962095Y-93638761D01*
X121388571Y-97552380D02*
X121388571Y-96552380D01*
X121960000Y-97552380D01*
X121960000Y-96552380D01*
X122436190Y-97552380D02*
X122436190Y-96552380D01*
X122674285Y-96552380D01*
X122817142Y-96600000D01*
X122912380Y-96695238D01*
X122960000Y-96790476D01*
X123007619Y-96980952D01*
X123007619Y-97123809D01*
X122960000Y-97314285D01*
X122912380Y-97409523D01*
X122817142Y-97504761D01*
X122674285Y-97552380D01*
X122436190Y-97552380D01*
X123293333Y-96552380D02*
X123864761Y-96552380D01*
X123579047Y-97552380D02*
X123579047Y-96552380D01*
X124150476Y-96647619D02*
X124198095Y-96600000D01*
X124293333Y-96552380D01*
X124531428Y-96552380D01*
X124626666Y-96600000D01*
X124674285Y-96647619D01*
X124721904Y-96742857D01*
X124721904Y-96838095D01*
X124674285Y-96980952D01*
X124102857Y-97552380D01*
X124721904Y-97552380D01*
X125198095Y-97552380D02*
X125388571Y-97552380D01*
X125483809Y-97504761D01*
X125531428Y-97457142D01*
X125626666Y-97314285D01*
X125674285Y-97123809D01*
X125674285Y-96742857D01*
X125626666Y-96647619D01*
X125579047Y-96600000D01*
X125483809Y-96552380D01*
X125293333Y-96552380D01*
X125198095Y-96600000D01*
X125150476Y-96647619D01*
X125102857Y-96742857D01*
X125102857Y-96980952D01*
X125150476Y-97076190D01*
X125198095Y-97123809D01*
X125293333Y-97171428D01*
X125483809Y-97171428D01*
X125579047Y-97123809D01*
X125626666Y-97076190D01*
X125674285Y-96980952D01*
X126579047Y-96552380D02*
X126102857Y-96552380D01*
X126055238Y-97028571D01*
X126102857Y-96980952D01*
X126198095Y-96933333D01*
X126436190Y-96933333D01*
X126531428Y-96980952D01*
X126579047Y-97028571D01*
X126626666Y-97123809D01*
X126626666Y-97361904D01*
X126579047Y-97457142D01*
X126531428Y-97504761D01*
X126436190Y-97552380D01*
X126198095Y-97552380D01*
X126102857Y-97504761D01*
X126055238Y-97457142D01*
X127531428Y-96552380D02*
X127055238Y-96552380D01*
X127007619Y-97028571D01*
X127055238Y-96980952D01*
X127150476Y-96933333D01*
X127388571Y-96933333D01*
X127483809Y-96980952D01*
X127531428Y-97028571D01*
X127579047Y-97123809D01*
X127579047Y-97361904D01*
X127531428Y-97457142D01*
X127483809Y-97504761D01*
X127388571Y-97552380D01*
X127150476Y-97552380D01*
X127055238Y-97504761D01*
X127007619Y-97457142D01*
D13*
X124898095Y-101676190D02*
X124860000Y-101752380D01*
X124783809Y-101828571D01*
X124669523Y-101942857D01*
X124631428Y-102019047D01*
X124631428Y-102095238D01*
X124821904Y-102057142D02*
X124783809Y-102133333D01*
X124707619Y-102209523D01*
X124555238Y-102247619D01*
X124288571Y-102247619D01*
X124136190Y-102209523D01*
X124060000Y-102133333D01*
X124021904Y-102057142D01*
X124021904Y-101904761D01*
X124060000Y-101828571D01*
X124136190Y-101752380D01*
X124288571Y-101714285D01*
X124555238Y-101714285D01*
X124707619Y-101752380D01*
X124783809Y-101828571D01*
X124821904Y-101904761D01*
X124821904Y-102057142D01*
X124821904Y-100952380D02*
X124821904Y-101409523D01*
X124821904Y-101180952D02*
X124021904Y-101180952D01*
X124136190Y-101257142D01*
X124212380Y-101333333D01*
X124250476Y-101409523D01*
D11*
X139612761Y-97354380D02*
X139041333Y-97354380D01*
X139327047Y-97354380D02*
X139327047Y-96354380D01*
X139231809Y-96497238D01*
X139136571Y-96592476D01*
X139041333Y-96640095D01*
X140231809Y-96354380D02*
X140327047Y-96354380D01*
X140422285Y-96402000D01*
X140469904Y-96449619D01*
X140517523Y-96544857D01*
X140565142Y-96735333D01*
X140565142Y-96973428D01*
X140517523Y-97163904D01*
X140469904Y-97259142D01*
X140422285Y-97306761D01*
X140327047Y-97354380D01*
X140231809Y-97354380D01*
X140136571Y-97306761D01*
X140088952Y-97259142D01*
X140041333Y-97163904D01*
X139993714Y-96973428D01*
X139993714Y-96735333D01*
X140041333Y-96544857D01*
X140088952Y-96449619D01*
X140136571Y-96402000D01*
X140231809Y-96354380D01*
X140993714Y-97354380D02*
X140993714Y-96354380D01*
X141088952Y-96973428D02*
X141374666Y-97354380D01*
X141374666Y-96687714D02*
X140993714Y-97068666D01*
D12*
X140124666Y-98778190D02*
X139958000Y-98540095D01*
X139838952Y-98778190D02*
X139838952Y-98278190D01*
X140029428Y-98278190D01*
X140077047Y-98302000D01*
X140100857Y-98325809D01*
X140124666Y-98373428D01*
X140124666Y-98444857D01*
X140100857Y-98492476D01*
X140077047Y-98516285D01*
X140029428Y-98540095D01*
X139838952Y-98540095D01*
X140600857Y-98778190D02*
X140315142Y-98778190D01*
X140458000Y-98778190D02*
X140458000Y-98278190D01*
X140410380Y-98349619D01*
X140362761Y-98397238D01*
X140315142Y-98421047D01*
D11*
X135557761Y-97354380D02*
X134986333Y-97354380D01*
X135272047Y-97354380D02*
X135272047Y-96354380D01*
X135176809Y-96497238D01*
X135081571Y-96592476D01*
X134986333Y-96640095D01*
X136176809Y-96354380D02*
X136272047Y-96354380D01*
X136367285Y-96402000D01*
X136414904Y-96449619D01*
X136462523Y-96544857D01*
X136510142Y-96735333D01*
X136510142Y-96973428D01*
X136462523Y-97163904D01*
X136414904Y-97259142D01*
X136367285Y-97306761D01*
X136272047Y-97354380D01*
X136176809Y-97354380D01*
X136081571Y-97306761D01*
X136033952Y-97259142D01*
X135986333Y-97163904D01*
X135938714Y-96973428D01*
X135938714Y-96735333D01*
X135986333Y-96544857D01*
X136033952Y-96449619D01*
X136081571Y-96402000D01*
X136176809Y-96354380D01*
X136938714Y-97354380D02*
X136938714Y-96354380D01*
X137033952Y-96973428D02*
X137319666Y-97354380D01*
X137319666Y-96687714D02*
X136938714Y-97068666D01*
D12*
X136069666Y-98778190D02*
X135903000Y-98540095D01*
X135783952Y-98778190D02*
X135783952Y-98278190D01*
X135974428Y-98278190D01*
X136022047Y-98302000D01*
X136045857Y-98325809D01*
X136069666Y-98373428D01*
X136069666Y-98444857D01*
X136045857Y-98492476D01*
X136022047Y-98516285D01*
X135974428Y-98540095D01*
X135783952Y-98540095D01*
X136260142Y-98325809D02*
X136283952Y-98302000D01*
X136331571Y-98278190D01*
X136450619Y-98278190D01*
X136498238Y-98302000D01*
X136522047Y-98325809D01*
X136545857Y-98373428D01*
X136545857Y-98421047D01*
X136522047Y-98492476D01*
X136236333Y-98778190D01*
X136545857Y-98778190D01*
D11*
X146193952Y-96846380D02*
X145622523Y-96846380D01*
X145908238Y-96846380D02*
X145908238Y-95846380D01*
X145813000Y-95989238D01*
X145717761Y-96084476D01*
X145622523Y-96132095D01*
X146622523Y-96846380D02*
X146622523Y-95846380D01*
X146717761Y-96465428D02*
X147003476Y-96846380D01*
X147003476Y-96179714D02*
X146622523Y-96560666D01*
D12*
X146229666Y-98270190D02*
X146063000Y-98032095D01*
X145943952Y-98270190D02*
X145943952Y-97770190D01*
X146134428Y-97770190D01*
X146182047Y-97794000D01*
X146205857Y-97817809D01*
X146229666Y-97865428D01*
X146229666Y-97936857D01*
X146205857Y-97984476D01*
X146182047Y-98008285D01*
X146134428Y-98032095D01*
X145943952Y-98032095D01*
X146396333Y-97770190D02*
X146705857Y-97770190D01*
X146539190Y-97960666D01*
X146610619Y-97960666D01*
X146658238Y-97984476D01*
X146682047Y-98008285D01*
X146705857Y-98055904D01*
X146705857Y-98174952D01*
X146682047Y-98222571D01*
X146658238Y-98246380D01*
X146610619Y-98270190D01*
X146467761Y-98270190D01*
X146420142Y-98246380D01*
X146396333Y-98222571D01*
D11*
X146193952Y-94306380D02*
X145622523Y-94306380D01*
X145908238Y-94306380D02*
X145908238Y-93306380D01*
X145813000Y-93449238D01*
X145717761Y-93544476D01*
X145622523Y-93592095D01*
X146622523Y-94306380D02*
X146622523Y-93306380D01*
X146717761Y-93925428D02*
X147003476Y-94306380D01*
X147003476Y-93639714D02*
X146622523Y-94020666D01*
D12*
X146229666Y-95730190D02*
X146063000Y-95492095D01*
X145943952Y-95730190D02*
X145943952Y-95230190D01*
X146134428Y-95230190D01*
X146182047Y-95254000D01*
X146205857Y-95277809D01*
X146229666Y-95325428D01*
X146229666Y-95396857D01*
X146205857Y-95444476D01*
X146182047Y-95468285D01*
X146134428Y-95492095D01*
X145943952Y-95492095D01*
X146658238Y-95396857D02*
X146658238Y-95730190D01*
X146539190Y-95206380D02*
X146420142Y-95563523D01*
X146729666Y-95563523D01*
D11*
X146184952Y-87446380D02*
X145613523Y-87446380D01*
X145899238Y-87446380D02*
X145899238Y-86446380D01*
X145804000Y-86589238D01*
X145708761Y-86684476D01*
X145613523Y-86732095D01*
X146613523Y-87446380D02*
X146613523Y-86446380D01*
X146708761Y-87065428D02*
X146994476Y-87446380D01*
X146994476Y-86779714D02*
X146613523Y-87160666D01*
D12*
X146220666Y-85570190D02*
X146054000Y-85332095D01*
X145934952Y-85570190D02*
X145934952Y-85070190D01*
X146125428Y-85070190D01*
X146173047Y-85094000D01*
X146196857Y-85117809D01*
X146220666Y-85165428D01*
X146220666Y-85236857D01*
X146196857Y-85284476D01*
X146173047Y-85308285D01*
X146125428Y-85332095D01*
X145934952Y-85332095D01*
X146673047Y-85070190D02*
X146434952Y-85070190D01*
X146411142Y-85308285D01*
X146434952Y-85284476D01*
X146482571Y-85260666D01*
X146601619Y-85260666D01*
X146649238Y-85284476D01*
X146673047Y-85308285D01*
X146696857Y-85355904D01*
X146696857Y-85474952D01*
X146673047Y-85522571D01*
X146649238Y-85546380D01*
X146601619Y-85570190D01*
X146482571Y-85570190D01*
X146434952Y-85546380D01*
X146411142Y-85522571D01*
D11*
X146175952Y-92526380D02*
X145604523Y-92526380D01*
X145890238Y-92526380D02*
X145890238Y-91526380D01*
X145795000Y-91669238D01*
X145699761Y-91764476D01*
X145604523Y-91812095D01*
X146604523Y-92526380D02*
X146604523Y-91526380D01*
X146699761Y-92145428D02*
X146985476Y-92526380D01*
X146985476Y-91859714D02*
X146604523Y-92240666D01*
D12*
X146211666Y-90650190D02*
X146045000Y-90412095D01*
X145925952Y-90650190D02*
X145925952Y-90150190D01*
X146116428Y-90150190D01*
X146164047Y-90174000D01*
X146187857Y-90197809D01*
X146211666Y-90245428D01*
X146211666Y-90316857D01*
X146187857Y-90364476D01*
X146164047Y-90388285D01*
X146116428Y-90412095D01*
X145925952Y-90412095D01*
X146640238Y-90150190D02*
X146545000Y-90150190D01*
X146497380Y-90174000D01*
X146473571Y-90197809D01*
X146425952Y-90269238D01*
X146402142Y-90364476D01*
X146402142Y-90554952D01*
X146425952Y-90602571D01*
X146449761Y-90626380D01*
X146497380Y-90650190D01*
X146592619Y-90650190D01*
X146640238Y-90626380D01*
X146664047Y-90602571D01*
X146687857Y-90554952D01*
X146687857Y-90435904D01*
X146664047Y-90388285D01*
X146640238Y-90364476D01*
X146592619Y-90340666D01*
X146497380Y-90340666D01*
X146449761Y-90364476D01*
X146425952Y-90388285D01*
X146402142Y-90435904D01*
D11*
X181299380Y-102694238D02*
X181299380Y-103265666D01*
X181299380Y-102979952D02*
X180299380Y-102979952D01*
X180442238Y-103075190D01*
X180537476Y-103170428D01*
X180585095Y-103265666D01*
X180299380Y-102075190D02*
X180299380Y-101979952D01*
X180347000Y-101884714D01*
X180394619Y-101837095D01*
X180489857Y-101789476D01*
X180680333Y-101741857D01*
X180918428Y-101741857D01*
X181108904Y-101789476D01*
X181204142Y-101837095D01*
X181251761Y-101884714D01*
X181299380Y-101979952D01*
X181299380Y-102075190D01*
X181251761Y-102170428D01*
X181204142Y-102218047D01*
X181108904Y-102265666D01*
X180918428Y-102313285D01*
X180680333Y-102313285D01*
X180489857Y-102265666D01*
X180394619Y-102218047D01*
X180347000Y-102170428D01*
X180299380Y-102075190D01*
X181299380Y-101313285D02*
X180299380Y-101313285D01*
X180918428Y-101218047D02*
X181299380Y-100932333D01*
X180632714Y-100932333D02*
X181013666Y-101313285D01*
D12*
X179423190Y-102182333D02*
X179185095Y-102349000D01*
X179423190Y-102468047D02*
X178923190Y-102468047D01*
X178923190Y-102277571D01*
X178947000Y-102229952D01*
X178970809Y-102206142D01*
X179018428Y-102182333D01*
X179089857Y-102182333D01*
X179137476Y-102206142D01*
X179161285Y-102229952D01*
X179185095Y-102277571D01*
X179185095Y-102468047D01*
X178923190Y-102015666D02*
X178923190Y-101682333D01*
X179423190Y-101896619D01*
D11*
X175840380Y-102236047D02*
X175840380Y-102807476D01*
X175840380Y-102521761D02*
X174840380Y-102521761D01*
X174983238Y-102617000D01*
X175078476Y-102712238D01*
X175126095Y-102807476D01*
X175840380Y-101807476D02*
X174840380Y-101807476D01*
X175459428Y-101712238D02*
X175840380Y-101426523D01*
X175173714Y-101426523D02*
X175554666Y-101807476D01*
D12*
X177140991Y-101283532D02*
X176902896Y-101450199D01*
X177140991Y-101569246D02*
X176640991Y-101569246D01*
X176640991Y-101378770D01*
X176664801Y-101331151D01*
X176688610Y-101307341D01*
X176736229Y-101283532D01*
X176807658Y-101283532D01*
X176855277Y-101307341D01*
X176879086Y-101331151D01*
X176902896Y-101378770D01*
X176902896Y-101569246D01*
X176855277Y-100997818D02*
X176831467Y-101045437D01*
X176807658Y-101069246D01*
X176760039Y-101093056D01*
X176736229Y-101093056D01*
X176688610Y-101069246D01*
X176664801Y-101045437D01*
X176640991Y-100997818D01*
X176640991Y-100902579D01*
X176664801Y-100854960D01*
X176688610Y-100831151D01*
X176736229Y-100807341D01*
X176760039Y-100807341D01*
X176807658Y-100831151D01*
X176831467Y-100854960D01*
X176855277Y-100902579D01*
X176855277Y-100997818D01*
X176879086Y-101045437D01*
X176902896Y-101069246D01*
X176950515Y-101093056D01*
X177045753Y-101093056D01*
X177093372Y-101069246D01*
X177117181Y-101045437D01*
X177140991Y-100997818D01*
X177140991Y-100902579D01*
X177117181Y-100854960D01*
X177093372Y-100831151D01*
X177045753Y-100807341D01*
X176950515Y-100807341D01*
X176902896Y-100831151D01*
X176879086Y-100854960D01*
X176855277Y-100902579D01*
D11*
X173681380Y-102236047D02*
X173681380Y-102807476D01*
X173681380Y-102521761D02*
X172681380Y-102521761D01*
X172824238Y-102617000D01*
X172919476Y-102712238D01*
X172967095Y-102807476D01*
X173681380Y-101807476D02*
X172681380Y-101807476D01*
X173300428Y-101712238D02*
X173681380Y-101426523D01*
X173014714Y-101426523D02*
X173395666Y-101807476D01*
D12*
X175105190Y-102200333D02*
X174867095Y-102367000D01*
X175105190Y-102486047D02*
X174605190Y-102486047D01*
X174605190Y-102295571D01*
X174629000Y-102247952D01*
X174652809Y-102224142D01*
X174700428Y-102200333D01*
X174771857Y-102200333D01*
X174819476Y-102224142D01*
X174843285Y-102247952D01*
X174867095Y-102295571D01*
X174867095Y-102486047D01*
X175105190Y-101962238D02*
X175105190Y-101867000D01*
X175081380Y-101819380D01*
X175057571Y-101795571D01*
X174986142Y-101747952D01*
X174890904Y-101724142D01*
X174700428Y-101724142D01*
X174652809Y-101747952D01*
X174629000Y-101771761D01*
X174605190Y-101819380D01*
X174605190Y-101914619D01*
X174629000Y-101962238D01*
X174652809Y-101986047D01*
X174700428Y-102009857D01*
X174819476Y-102009857D01*
X174867095Y-101986047D01*
X174890904Y-101962238D01*
X174914714Y-101914619D01*
X174914714Y-101819380D01*
X174890904Y-101771761D01*
X174867095Y-101747952D01*
X174819476Y-101724142D01*
D11*
X146193952Y-84906380D02*
X145622523Y-84906380D01*
X145908238Y-84906380D02*
X145908238Y-83906380D01*
X145813000Y-84049238D01*
X145717761Y-84144476D01*
X145622523Y-84192095D01*
X146622523Y-84906380D02*
X146622523Y-83906380D01*
X146717761Y-84525428D02*
X147003476Y-84906380D01*
X147003476Y-84239714D02*
X146622523Y-84620666D01*
D12*
X145991571Y-83030190D02*
X145824904Y-82792095D01*
X145705857Y-83030190D02*
X145705857Y-82530190D01*
X145896333Y-82530190D01*
X145943952Y-82554000D01*
X145967761Y-82577809D01*
X145991571Y-82625428D01*
X145991571Y-82696857D01*
X145967761Y-82744476D01*
X145943952Y-82768285D01*
X145896333Y-82792095D01*
X145705857Y-82792095D01*
X146467761Y-83030190D02*
X146182047Y-83030190D01*
X146324904Y-83030190D02*
X146324904Y-82530190D01*
X146277285Y-82601619D01*
X146229666Y-82649238D01*
X146182047Y-82673047D01*
X146777285Y-82530190D02*
X146824904Y-82530190D01*
X146872523Y-82554000D01*
X146896333Y-82577809D01*
X146920142Y-82625428D01*
X146943952Y-82720666D01*
X146943952Y-82839714D01*
X146920142Y-82934952D01*
X146896333Y-82982571D01*
X146872523Y-83006380D01*
X146824904Y-83030190D01*
X146777285Y-83030190D01*
X146729666Y-83006380D01*
X146705857Y-82982571D01*
X146682047Y-82934952D01*
X146658238Y-82839714D01*
X146658238Y-82720666D01*
X146682047Y-82625428D01*
X146705857Y-82577809D01*
X146729666Y-82554000D01*
X146777285Y-82530190D01*
D11*
X188530761Y-102639428D02*
X188578380Y-102496571D01*
X188578380Y-102258476D01*
X188530761Y-102163238D01*
X188483142Y-102115619D01*
X188387904Y-102068000D01*
X188292666Y-102068000D01*
X188197428Y-102115619D01*
X188149809Y-102163238D01*
X188102190Y-102258476D01*
X188054571Y-102448952D01*
X188006952Y-102544190D01*
X187959333Y-102591809D01*
X187864095Y-102639428D01*
X187768857Y-102639428D01*
X187673619Y-102591809D01*
X187626000Y-102544190D01*
X187578380Y-102448952D01*
X187578380Y-102210857D01*
X187626000Y-102068000D01*
X187578380Y-101734666D02*
X188578380Y-101496571D01*
X187864095Y-101306095D01*
X188578380Y-101115619D01*
X187578380Y-100877523D01*
X188673619Y-100734666D02*
X188673619Y-99972761D01*
X188530761Y-99782285D02*
X188578380Y-99639428D01*
X188578380Y-99401333D01*
X188530761Y-99306095D01*
X188483142Y-99258476D01*
X188387904Y-99210857D01*
X188292666Y-99210857D01*
X188197428Y-99258476D01*
X188149809Y-99306095D01*
X188102190Y-99401333D01*
X188054571Y-99591809D01*
X188006952Y-99687047D01*
X187959333Y-99734666D01*
X187864095Y-99782285D01*
X187768857Y-99782285D01*
X187673619Y-99734666D01*
X187626000Y-99687047D01*
X187578380Y-99591809D01*
X187578380Y-99353714D01*
X187626000Y-99210857D01*
X188578380Y-98782285D02*
X187578380Y-98782285D01*
X187578380Y-98401333D01*
X187626000Y-98306095D01*
X187673619Y-98258476D01*
X187768857Y-98210857D01*
X187911714Y-98210857D01*
X188006952Y-98258476D01*
X188054571Y-98306095D01*
X188102190Y-98401333D01*
X188102190Y-98782285D01*
X188530761Y-97829904D02*
X188578380Y-97687047D01*
X188578380Y-97448952D01*
X188530761Y-97353714D01*
X188483142Y-97306095D01*
X188387904Y-97258476D01*
X188292666Y-97258476D01*
X188197428Y-97306095D01*
X188149809Y-97353714D01*
X188102190Y-97448952D01*
X188054571Y-97639428D01*
X188006952Y-97734666D01*
X187959333Y-97782285D01*
X187864095Y-97829904D01*
X187768857Y-97829904D01*
X187673619Y-97782285D01*
X187626000Y-97734666D01*
X187578380Y-97639428D01*
X187578380Y-97401333D01*
X187626000Y-97258476D01*
X187578380Y-96972761D02*
X187578380Y-96401333D01*
X188578380Y-96687047D02*
X187578380Y-96687047D01*
X184300761Y-100901333D02*
X184348380Y-100758476D01*
X184348380Y-100520380D01*
X184300761Y-100425142D01*
X184253142Y-100377523D01*
X184157904Y-100329904D01*
X184062666Y-100329904D01*
X183967428Y-100377523D01*
X183919809Y-100425142D01*
X183872190Y-100520380D01*
X183824571Y-100710857D01*
X183776952Y-100806095D01*
X183729333Y-100853714D01*
X183634095Y-100901333D01*
X183538857Y-100901333D01*
X183443619Y-100853714D01*
X183396000Y-100806095D01*
X183348380Y-100710857D01*
X183348380Y-100472761D01*
X183396000Y-100329904D01*
X183348380Y-99996571D02*
X184348380Y-99758476D01*
X183634095Y-99568000D01*
X184348380Y-99377523D01*
X183348380Y-99139428D01*
X184348380Y-98234666D02*
X184348380Y-98806095D01*
X184348380Y-98520380D02*
X183348380Y-98520380D01*
X183491238Y-98615619D01*
X183586476Y-98710857D01*
X183634095Y-98806095D01*
X134149380Y-106890476D02*
X134149380Y-107366666D01*
X133149380Y-107366666D01*
X134149380Y-106557142D02*
X133149380Y-106557142D01*
X133863666Y-106223809D01*
X133149380Y-105890476D01*
X134149380Y-105890476D01*
X133149380Y-105509523D02*
X133149380Y-104890476D01*
X133530333Y-105223809D01*
X133530333Y-105080952D01*
X133577952Y-104985714D01*
X133625571Y-104938095D01*
X133720809Y-104890476D01*
X133958904Y-104890476D01*
X134054142Y-104938095D01*
X134101761Y-104985714D01*
X134149380Y-105080952D01*
X134149380Y-105366666D01*
X134101761Y-105461904D01*
X134054142Y-105509523D01*
X133149380Y-103985714D02*
X133149380Y-104461904D01*
X133625571Y-104509523D01*
X133577952Y-104461904D01*
X133530333Y-104366666D01*
X133530333Y-104128571D01*
X133577952Y-104033333D01*
X133625571Y-103985714D01*
X133720809Y-103938095D01*
X133958904Y-103938095D01*
X134054142Y-103985714D01*
X134101761Y-104033333D01*
X134149380Y-104128571D01*
X134149380Y-104366666D01*
X134101761Y-104461904D01*
X134054142Y-104509523D01*
X133577952Y-103366666D02*
X133530333Y-103461904D01*
X133482714Y-103509523D01*
X133387476Y-103557142D01*
X133339857Y-103557142D01*
X133244619Y-103509523D01*
X133197000Y-103461904D01*
X133149380Y-103366666D01*
X133149380Y-103176190D01*
X133197000Y-103080952D01*
X133244619Y-103033333D01*
X133339857Y-102985714D01*
X133387476Y-102985714D01*
X133482714Y-103033333D01*
X133530333Y-103080952D01*
X133577952Y-103176190D01*
X133577952Y-103366666D01*
X133625571Y-103461904D01*
X133673190Y-103509523D01*
X133768428Y-103557142D01*
X133958904Y-103557142D01*
X134054142Y-103509523D01*
X134101761Y-103461904D01*
X134149380Y-103366666D01*
X134149380Y-103176190D01*
X134101761Y-103080952D01*
X134054142Y-103033333D01*
X133958904Y-102985714D01*
X133768428Y-102985714D01*
X133673190Y-103033333D01*
X133625571Y-103080952D01*
X133577952Y-103176190D01*
X136739380Y-105961904D02*
X137548904Y-105961904D01*
X137644142Y-105914285D01*
X137691761Y-105866666D01*
X137739380Y-105771428D01*
X137739380Y-105580952D01*
X137691761Y-105485714D01*
X137644142Y-105438095D01*
X137548904Y-105390476D01*
X136739380Y-105390476D01*
X137739380Y-104390476D02*
X137739380Y-104961904D01*
X137739380Y-104676190D02*
X136739380Y-104676190D01*
X136882238Y-104771428D01*
X136977476Y-104866666D01*
X137025095Y-104961904D01*
X148712666Y-117036076D02*
X148712666Y-116559885D01*
X148998380Y-117131314D02*
X147998380Y-116797980D01*
X148998380Y-116464647D01*
X147998380Y-116274171D02*
X147998380Y-115702742D01*
X148998380Y-115988457D02*
X147998380Y-115988457D01*
X148998380Y-115369409D02*
X148331714Y-115369409D01*
X148426952Y-115369409D02*
X148379333Y-115321790D01*
X148331714Y-115226552D01*
X148331714Y-115083695D01*
X148379333Y-114988457D01*
X148474571Y-114940838D01*
X148998380Y-114940838D01*
X148474571Y-114940838D02*
X148379333Y-114893219D01*
X148331714Y-114797980D01*
X148331714Y-114655123D01*
X148379333Y-114559885D01*
X148474571Y-114512266D01*
X148998380Y-114512266D01*
X148950761Y-113655123D02*
X148998380Y-113750361D01*
X148998380Y-113940838D01*
X148950761Y-114036076D01*
X148855523Y-114083695D01*
X148474571Y-114083695D01*
X148379333Y-114036076D01*
X148331714Y-113940838D01*
X148331714Y-113750361D01*
X148379333Y-113655123D01*
X148474571Y-113607504D01*
X148569809Y-113607504D01*
X148665047Y-114083695D01*
X148331714Y-112750361D02*
X149141238Y-112750361D01*
X149236476Y-112797980D01*
X149284095Y-112845600D01*
X149331714Y-112940838D01*
X149331714Y-113083695D01*
X149284095Y-113178933D01*
X148950761Y-112750361D02*
X148998380Y-112845600D01*
X148998380Y-113036076D01*
X148950761Y-113131314D01*
X148903142Y-113178933D01*
X148807904Y-113226552D01*
X148522190Y-113226552D01*
X148426952Y-113178933D01*
X148379333Y-113131314D01*
X148331714Y-113036076D01*
X148331714Y-112845600D01*
X148379333Y-112750361D01*
X148998380Y-111845600D02*
X148474571Y-111845600D01*
X148379333Y-111893219D01*
X148331714Y-111988457D01*
X148331714Y-112178933D01*
X148379333Y-112274171D01*
X148950761Y-111845600D02*
X148998380Y-111940838D01*
X148998380Y-112178933D01*
X148950761Y-112274171D01*
X148855523Y-112321790D01*
X148760285Y-112321790D01*
X148665047Y-112274171D01*
X148617428Y-112178933D01*
X148617428Y-111940838D01*
X148569809Y-111845600D01*
X147998380Y-111464647D02*
X147998380Y-110845600D01*
X148379333Y-111178933D01*
X148379333Y-111036076D01*
X148426952Y-110940838D01*
X148474571Y-110893219D01*
X148569809Y-110845600D01*
X148807904Y-110845600D01*
X148903142Y-110893219D01*
X148950761Y-110940838D01*
X148998380Y-111036076D01*
X148998380Y-111321790D01*
X148950761Y-111417028D01*
X148903142Y-111464647D01*
X148093619Y-110464647D02*
X148046000Y-110417028D01*
X147998380Y-110321790D01*
X147998380Y-110083695D01*
X148046000Y-109988457D01*
X148093619Y-109940838D01*
X148188857Y-109893219D01*
X148284095Y-109893219D01*
X148426952Y-109940838D01*
X148998380Y-110512266D01*
X148998380Y-109893219D01*
X148426952Y-109321790D02*
X148379333Y-109417028D01*
X148331714Y-109464647D01*
X148236476Y-109512266D01*
X148188857Y-109512266D01*
X148093619Y-109464647D01*
X148046000Y-109417028D01*
X147998380Y-109321790D01*
X147998380Y-109131314D01*
X148046000Y-109036076D01*
X148093619Y-108988457D01*
X148188857Y-108940838D01*
X148236476Y-108940838D01*
X148331714Y-108988457D01*
X148379333Y-109036076D01*
X148426952Y-109131314D01*
X148426952Y-109321790D01*
X148474571Y-109417028D01*
X148522190Y-109464647D01*
X148617428Y-109512266D01*
X148807904Y-109512266D01*
X148903142Y-109464647D01*
X148950761Y-109417028D01*
X148998380Y-109321790D01*
X148998380Y-109131314D01*
X148950761Y-109036076D01*
X148903142Y-108988457D01*
X148807904Y-108940838D01*
X148617428Y-108940838D01*
X148522190Y-108988457D01*
X148474571Y-109036076D01*
X148426952Y-109131314D01*
X148998380Y-108512266D02*
X147998380Y-108512266D01*
X147998380Y-108131314D01*
X148046000Y-108036076D01*
X148093619Y-107988457D01*
X148188857Y-107940838D01*
X148331714Y-107940838D01*
X148426952Y-107988457D01*
X148474571Y-108036076D01*
X148522190Y-108131314D01*
X148522190Y-108512266D01*
X148617428Y-107512266D02*
X148617428Y-106750361D01*
X148998380Y-106274171D02*
X147998380Y-106274171D01*
X147998380Y-105893219D01*
X148046000Y-105797980D01*
X148093619Y-105750361D01*
X148188857Y-105702742D01*
X148331714Y-105702742D01*
X148426952Y-105750361D01*
X148474571Y-105797980D01*
X148522190Y-105893219D01*
X148522190Y-106274171D01*
X147998380Y-105274171D02*
X148807904Y-105274171D01*
X148903142Y-105226552D01*
X148950761Y-105178933D01*
X148998380Y-105083695D01*
X148998380Y-104893219D01*
X148950761Y-104797980D01*
X148903142Y-104750361D01*
X148807904Y-104702742D01*
X147998380Y-104702742D01*
X166838380Y-111607504D02*
X167647904Y-111607504D01*
X167743142Y-111559885D01*
X167790761Y-111512266D01*
X167838380Y-111417028D01*
X167838380Y-111226552D01*
X167790761Y-111131314D01*
X167743142Y-111083695D01*
X167647904Y-111036076D01*
X166838380Y-111036076D01*
X167171714Y-110131314D02*
X167838380Y-110131314D01*
X166790761Y-110369409D02*
X167505047Y-110607504D01*
X167505047Y-109988457D01*
X161783923Y-92380980D02*
X161212495Y-92380980D01*
X161498209Y-92380980D02*
X161498209Y-91380980D01*
X161402971Y-91523838D01*
X161307733Y-91619076D01*
X161212495Y-91666695D01*
X162641066Y-91380980D02*
X162450590Y-91380980D01*
X162355352Y-91428600D01*
X162307733Y-91476219D01*
X162212495Y-91619076D01*
X162164876Y-91809552D01*
X162164876Y-92190504D01*
X162212495Y-92285742D01*
X162260114Y-92333361D01*
X162355352Y-92380980D01*
X162545828Y-92380980D01*
X162641066Y-92333361D01*
X162688685Y-92285742D01*
X162736304Y-92190504D01*
X162736304Y-91952409D01*
X162688685Y-91857171D01*
X162641066Y-91809552D01*
X162545828Y-91761933D01*
X162355352Y-91761933D01*
X162260114Y-91809552D01*
X162212495Y-91857171D01*
X162164876Y-91952409D01*
X163164876Y-92380980D02*
X163164876Y-91380980D01*
X163498209Y-92095266D01*
X163831542Y-91380980D01*
X163831542Y-92380980D01*
X164307733Y-92380980D02*
X164307733Y-91380980D01*
X164307733Y-91857171D02*
X164879161Y-91857171D01*
X164879161Y-92380980D02*
X164879161Y-91380980D01*
X165260114Y-91714314D02*
X165783923Y-91714314D01*
X165260114Y-92380980D01*
X165783923Y-92380980D01*
X162998209Y-95454790D02*
X162998209Y-95930980D01*
X162664876Y-94930980D02*
X162998209Y-95454790D01*
X163331542Y-94930980D01*
X164188685Y-95930980D02*
X163617257Y-95930980D01*
X163902971Y-95930980D02*
X163902971Y-94930980D01*
X163807733Y-95073838D01*
X163712495Y-95169076D01*
X163617257Y-95216695D01*
X132844380Y-94773523D02*
X132844380Y-95249714D01*
X133320571Y-95297333D01*
X133272952Y-95249714D01*
X133225333Y-95154476D01*
X133225333Y-94916380D01*
X133272952Y-94821142D01*
X133320571Y-94773523D01*
X133415809Y-94725904D01*
X133653904Y-94725904D01*
X133749142Y-94773523D01*
X133796761Y-94821142D01*
X133844380Y-94916380D01*
X133844380Y-95154476D01*
X133796761Y-95249714D01*
X133749142Y-95297333D01*
X132844380Y-94106857D02*
X132844380Y-94011619D01*
X132892000Y-93916380D01*
X132939619Y-93868761D01*
X133034857Y-93821142D01*
X133225333Y-93773523D01*
X133463428Y-93773523D01*
X133653904Y-93821142D01*
X133749142Y-93868761D01*
X133796761Y-93916380D01*
X133844380Y-94011619D01*
X133844380Y-94106857D01*
X133796761Y-94202095D01*
X133749142Y-94249714D01*
X133653904Y-94297333D01*
X133463428Y-94344952D01*
X133225333Y-94344952D01*
X133034857Y-94297333D01*
X132939619Y-94249714D01*
X132892000Y-94202095D01*
X132844380Y-94106857D01*
X132844380Y-93154476D02*
X132844380Y-93059238D01*
X132892000Y-92964000D01*
X132939619Y-92916380D01*
X133034857Y-92868761D01*
X133225333Y-92821142D01*
X133463428Y-92821142D01*
X133653904Y-92868761D01*
X133749142Y-92916380D01*
X133796761Y-92964000D01*
X133844380Y-93059238D01*
X133844380Y-93154476D01*
X133796761Y-93249714D01*
X133749142Y-93297333D01*
X133653904Y-93344952D01*
X133463428Y-93392571D01*
X133225333Y-93392571D01*
X133034857Y-93344952D01*
X132939619Y-93297333D01*
X132892000Y-93249714D01*
X132844380Y-93154476D01*
X133844380Y-92392571D02*
X133177714Y-92392571D01*
X133272952Y-92392571D02*
X133225333Y-92344952D01*
X133177714Y-92249714D01*
X133177714Y-92106857D01*
X133225333Y-92011619D01*
X133320571Y-91964000D01*
X133844380Y-91964000D01*
X133320571Y-91964000D02*
X133225333Y-91916380D01*
X133177714Y-91821142D01*
X133177714Y-91678285D01*
X133225333Y-91583047D01*
X133320571Y-91535428D01*
X133844380Y-91535428D01*
X133558666Y-91106857D02*
X133558666Y-90630666D01*
X133844380Y-91202095D02*
X132844380Y-90868761D01*
X133844380Y-90535428D01*
D13*
X131514857Y-93230666D02*
X131514857Y-93497333D01*
X131933904Y-93497333D02*
X131133904Y-93497333D01*
X131133904Y-93116380D01*
X131933904Y-92392571D02*
X131933904Y-92849714D01*
X131933904Y-92621142D02*
X131133904Y-92621142D01*
X131248190Y-92697333D01*
X131324380Y-92773523D01*
X131362476Y-92849714D01*
D11*
X135796742Y-82579314D02*
X135844361Y-82626933D01*
X135891980Y-82769790D01*
X135891980Y-82865028D01*
X135844361Y-83007885D01*
X135749123Y-83103123D01*
X135653885Y-83150742D01*
X135463409Y-83198361D01*
X135320552Y-83198361D01*
X135130076Y-83150742D01*
X135034838Y-83103123D01*
X134939600Y-83007885D01*
X134891980Y-82865028D01*
X134891980Y-82769790D01*
X134939600Y-82626933D01*
X134987219Y-82579314D01*
X135891980Y-82007885D02*
X135844361Y-82103123D01*
X135796742Y-82150742D01*
X135701504Y-82198361D01*
X135415790Y-82198361D01*
X135320552Y-82150742D01*
X135272933Y-82103123D01*
X135225314Y-82007885D01*
X135225314Y-81865028D01*
X135272933Y-81769790D01*
X135320552Y-81722171D01*
X135415790Y-81674552D01*
X135701504Y-81674552D01*
X135796742Y-81722171D01*
X135844361Y-81769790D01*
X135891980Y-81865028D01*
X135891980Y-82007885D01*
X135225314Y-81245980D02*
X135891980Y-81245980D01*
X135320552Y-81245980D02*
X135272933Y-81198361D01*
X135225314Y-81103123D01*
X135225314Y-80960266D01*
X135272933Y-80865028D01*
X135368171Y-80817409D01*
X135891980Y-80817409D01*
X135225314Y-80341219D02*
X135891980Y-80341219D01*
X135320552Y-80341219D02*
X135272933Y-80293600D01*
X135225314Y-80198361D01*
X135225314Y-80055504D01*
X135272933Y-79960266D01*
X135368171Y-79912647D01*
X135891980Y-79912647D01*
X135987219Y-79674552D02*
X135987219Y-78912647D01*
X134891980Y-78484076D02*
X134891980Y-78388838D01*
X134939600Y-78293600D01*
X134987219Y-78245980D01*
X135082457Y-78198361D01*
X135272933Y-78150742D01*
X135511028Y-78150742D01*
X135701504Y-78198361D01*
X135796742Y-78245980D01*
X135844361Y-78293600D01*
X135891980Y-78388838D01*
X135891980Y-78484076D01*
X135844361Y-78579314D01*
X135796742Y-78626933D01*
X135701504Y-78674552D01*
X135511028Y-78722171D01*
X135272933Y-78722171D01*
X135082457Y-78674552D01*
X134987219Y-78626933D01*
X134939600Y-78579314D01*
X134891980Y-78484076D01*
X135891980Y-77198361D02*
X135891980Y-77769790D01*
X135891980Y-77484076D02*
X134891980Y-77484076D01*
X135034838Y-77579314D01*
X135130076Y-77674552D01*
X135177695Y-77769790D01*
X135891980Y-76865028D02*
X135225314Y-76341219D01*
X135225314Y-76865028D02*
X135891980Y-76341219D01*
X134891980Y-75769790D02*
X134891980Y-75674552D01*
X134939600Y-75579314D01*
X134987219Y-75531695D01*
X135082457Y-75484076D01*
X135272933Y-75436457D01*
X135511028Y-75436457D01*
X135701504Y-75484076D01*
X135796742Y-75531695D01*
X135844361Y-75579314D01*
X135891980Y-75674552D01*
X135891980Y-75769790D01*
X135844361Y-75865028D01*
X135796742Y-75912647D01*
X135701504Y-75960266D01*
X135511028Y-76007885D01*
X135272933Y-76007885D01*
X135082457Y-75960266D01*
X134987219Y-75912647D01*
X134939600Y-75865028D01*
X134891980Y-75769790D01*
X134987219Y-75055504D02*
X134939600Y-75007885D01*
X134891980Y-74912647D01*
X134891980Y-74674552D01*
X134939600Y-74579314D01*
X134987219Y-74531695D01*
X135082457Y-74484076D01*
X135177695Y-74484076D01*
X135320552Y-74531695D01*
X135891980Y-75103123D01*
X135891980Y-74484076D01*
X135987219Y-74293600D02*
X135987219Y-73531695D01*
X135368171Y-72960266D02*
X135368171Y-73293600D01*
X135891980Y-73293600D02*
X134891980Y-73293600D01*
X134891980Y-72817409D01*
X135844361Y-72055504D02*
X135891980Y-72150742D01*
X135891980Y-72341219D01*
X135844361Y-72436457D01*
X135749123Y-72484076D01*
X135368171Y-72484076D01*
X135272933Y-72436457D01*
X135225314Y-72341219D01*
X135225314Y-72150742D01*
X135272933Y-72055504D01*
X135368171Y-72007885D01*
X135463409Y-72007885D01*
X135558647Y-72484076D01*
X135891980Y-71579314D02*
X135225314Y-71579314D01*
X135320552Y-71579314D02*
X135272933Y-71531695D01*
X135225314Y-71436457D01*
X135225314Y-71293600D01*
X135272933Y-71198361D01*
X135368171Y-71150742D01*
X135891980Y-71150742D01*
X135368171Y-71150742D02*
X135272933Y-71103123D01*
X135225314Y-71007885D01*
X135225314Y-70865028D01*
X135272933Y-70769790D01*
X135368171Y-70722171D01*
X135891980Y-70722171D01*
X135891980Y-69817409D02*
X135368171Y-69817409D01*
X135272933Y-69865028D01*
X135225314Y-69960266D01*
X135225314Y-70150742D01*
X135272933Y-70245980D01*
X135844361Y-69817409D02*
X135891980Y-69912647D01*
X135891980Y-70150742D01*
X135844361Y-70245980D01*
X135749123Y-70293600D01*
X135653885Y-70293600D01*
X135558647Y-70245980D01*
X135511028Y-70150742D01*
X135511028Y-69912647D01*
X135463409Y-69817409D01*
X135891980Y-69198361D02*
X135844361Y-69293600D01*
X135749123Y-69341219D01*
X134891980Y-69341219D01*
X135844361Y-68436457D02*
X135891980Y-68531695D01*
X135891980Y-68722171D01*
X135844361Y-68817409D01*
X135749123Y-68865028D01*
X135368171Y-68865028D01*
X135272933Y-68817409D01*
X135225314Y-68722171D01*
X135225314Y-68531695D01*
X135272933Y-68436457D01*
X135368171Y-68388838D01*
X135463409Y-68388838D01*
X135558647Y-68865028D01*
X138706266Y-75245980D02*
X138706266Y-75960266D01*
X138658647Y-76103123D01*
X138563409Y-76198361D01*
X138420552Y-76245980D01*
X138325314Y-76245980D01*
X139230076Y-76245980D02*
X139420552Y-76245980D01*
X139515790Y-76198361D01*
X139563409Y-76150742D01*
X139658647Y-76007885D01*
X139706266Y-75817409D01*
X139706266Y-75436457D01*
X139658647Y-75341219D01*
X139611028Y-75293600D01*
X139515790Y-75245980D01*
X139325314Y-75245980D01*
X139230076Y-75293600D01*
X139182457Y-75341219D01*
X139134838Y-75436457D01*
X139134838Y-75674552D01*
X139182457Y-75769790D01*
X139230076Y-75817409D01*
X139325314Y-75865028D01*
X139515790Y-75865028D01*
X139611028Y-75817409D01*
X139658647Y-75769790D01*
X139706266Y-75674552D01*
X113714571Y-125675209D02*
X113762190Y-125532352D01*
X113809809Y-125484733D01*
X113905047Y-125437114D01*
X114047904Y-125437114D01*
X114143142Y-125484733D01*
X114190761Y-125532352D01*
X114238380Y-125627590D01*
X114238380Y-126008542D01*
X113238380Y-126008542D01*
X113238380Y-125675209D01*
X113286000Y-125579971D01*
X113333619Y-125532352D01*
X113428857Y-125484733D01*
X113524095Y-125484733D01*
X113619333Y-125532352D01*
X113666952Y-125579971D01*
X113714571Y-125675209D01*
X113714571Y-126008542D01*
X114238380Y-124579971D02*
X113714571Y-124579971D01*
X113619333Y-124627590D01*
X113571714Y-124722828D01*
X113571714Y-124913304D01*
X113619333Y-125008542D01*
X114190761Y-124579971D02*
X114238380Y-124675209D01*
X114238380Y-124913304D01*
X114190761Y-125008542D01*
X114095523Y-125056161D01*
X114000285Y-125056161D01*
X113905047Y-125008542D01*
X113857428Y-124913304D01*
X113857428Y-124675209D01*
X113809809Y-124579971D01*
X114238380Y-124103780D02*
X113571714Y-124103780D01*
X113762190Y-124103780D02*
X113666952Y-124056161D01*
X113619333Y-124008542D01*
X113571714Y-123913304D01*
X113571714Y-123818066D01*
X114238380Y-123484733D02*
X113571714Y-123484733D01*
X113762190Y-123484733D02*
X113666952Y-123437114D01*
X113619333Y-123389495D01*
X113571714Y-123294257D01*
X113571714Y-123199019D01*
X114190761Y-122484733D02*
X114238380Y-122579971D01*
X114238380Y-122770447D01*
X114190761Y-122865685D01*
X114095523Y-122913304D01*
X113714571Y-122913304D01*
X113619333Y-122865685D01*
X113571714Y-122770447D01*
X113571714Y-122579971D01*
X113619333Y-122484733D01*
X113714571Y-122437114D01*
X113809809Y-122437114D01*
X113905047Y-122913304D01*
X114238380Y-121865685D02*
X114190761Y-121960923D01*
X114095523Y-122008542D01*
X113238380Y-122008542D01*
X114333619Y-121722828D02*
X114333619Y-120960923D01*
X113238380Y-120437114D02*
X113952666Y-120437114D01*
X114095523Y-120484733D01*
X114190761Y-120579971D01*
X114238380Y-120722828D01*
X114238380Y-120818066D01*
X114238380Y-119532352D02*
X113714571Y-119532352D01*
X113619333Y-119579971D01*
X113571714Y-119675209D01*
X113571714Y-119865685D01*
X113619333Y-119960923D01*
X114190761Y-119532352D02*
X114238380Y-119627590D01*
X114238380Y-119865685D01*
X114190761Y-119960923D01*
X114095523Y-120008542D01*
X114000285Y-120008542D01*
X113905047Y-119960923D01*
X113857428Y-119865685D01*
X113857428Y-119627590D01*
X113809809Y-119532352D01*
X114190761Y-118627590D02*
X114238380Y-118722828D01*
X114238380Y-118913304D01*
X114190761Y-119008542D01*
X114143142Y-119056161D01*
X114047904Y-119103780D01*
X113762190Y-119103780D01*
X113666952Y-119056161D01*
X113619333Y-119008542D01*
X113571714Y-118913304D01*
X113571714Y-118722828D01*
X113619333Y-118627590D01*
X114238380Y-118199019D02*
X113238380Y-118199019D01*
X113857428Y-118103780D02*
X114238380Y-117818066D01*
X113571714Y-117818066D02*
X113952666Y-118199019D01*
X114333619Y-117627590D02*
X114333619Y-116865685D01*
X114190761Y-116675209D02*
X114238380Y-116532352D01*
X114238380Y-116294257D01*
X114190761Y-116199019D01*
X114143142Y-116151400D01*
X114047904Y-116103780D01*
X113952666Y-116103780D01*
X113857428Y-116151400D01*
X113809809Y-116199019D01*
X113762190Y-116294257D01*
X113714571Y-116484733D01*
X113666952Y-116579971D01*
X113619333Y-116627590D01*
X113524095Y-116675209D01*
X113428857Y-116675209D01*
X113333619Y-116627590D01*
X113286000Y-116579971D01*
X113238380Y-116484733D01*
X113238380Y-116246638D01*
X113286000Y-116103780D01*
X113571714Y-115770447D02*
X114238380Y-115579971D01*
X113762190Y-115389495D01*
X114238380Y-115199019D01*
X113571714Y-115008542D01*
X114238380Y-114627590D02*
X113571714Y-114627590D01*
X113238380Y-114627590D02*
X113286000Y-114675209D01*
X113333619Y-114627590D01*
X113286000Y-114579971D01*
X113238380Y-114627590D01*
X113333619Y-114627590D01*
X113571714Y-114294257D02*
X113571714Y-113913304D01*
X113238380Y-114151400D02*
X114095523Y-114151400D01*
X114190761Y-114103780D01*
X114238380Y-114008542D01*
X114238380Y-113913304D01*
X114190761Y-113151400D02*
X114238380Y-113246638D01*
X114238380Y-113437114D01*
X114190761Y-113532352D01*
X114143142Y-113579971D01*
X114047904Y-113627590D01*
X113762190Y-113627590D01*
X113666952Y-113579971D01*
X113619333Y-113532352D01*
X113571714Y-113437114D01*
X113571714Y-113246638D01*
X113619333Y-113151400D01*
X114238380Y-112722828D02*
X113238380Y-112722828D01*
X114238380Y-112294257D02*
X113714571Y-112294257D01*
X113619333Y-112341876D01*
X113571714Y-112437114D01*
X113571714Y-112579971D01*
X113619333Y-112675209D01*
X113666952Y-112722828D01*
X121238380Y-119484733D02*
X121952666Y-119484733D01*
X122095523Y-119532352D01*
X122190761Y-119627590D01*
X122238380Y-119770447D01*
X122238380Y-119865685D01*
X121333619Y-119056161D02*
X121286000Y-119008542D01*
X121238380Y-118913304D01*
X121238380Y-118675209D01*
X121286000Y-118579971D01*
X121333619Y-118532352D01*
X121428857Y-118484733D01*
X121524095Y-118484733D01*
X121666952Y-118532352D01*
X122238380Y-119103780D01*
X122238380Y-118484733D01*
X117880761Y-105172380D02*
X117404571Y-105172380D01*
X117404571Y-104172380D01*
X118214095Y-105172380D02*
X118214095Y-104172380D01*
X118452190Y-104172380D01*
X118595047Y-104220000D01*
X118690285Y-104315238D01*
X118737904Y-104410476D01*
X118785523Y-104600952D01*
X118785523Y-104743809D01*
X118737904Y-104934285D01*
X118690285Y-105029523D01*
X118595047Y-105124761D01*
X118452190Y-105172380D01*
X118214095Y-105172380D01*
X119737904Y-105172380D02*
X119166476Y-105172380D01*
X119452190Y-105172380D02*
X119452190Y-104172380D01*
X119356952Y-104315238D01*
X119261714Y-104410476D01*
X119166476Y-104458095D01*
X120690285Y-105172380D02*
X120118857Y-105172380D01*
X120404571Y-105172380D02*
X120404571Y-104172380D01*
X120309333Y-104315238D01*
X120214095Y-104410476D01*
X120118857Y-104458095D01*
X121642666Y-105172380D02*
X121071238Y-105172380D01*
X121356952Y-105172380D02*
X121356952Y-104172380D01*
X121261714Y-104315238D01*
X121166476Y-104410476D01*
X121071238Y-104458095D01*
X121976000Y-104172380D02*
X122642666Y-104172380D01*
X122214095Y-105172380D01*
X122976000Y-105124761D02*
X123118857Y-105172380D01*
X123356952Y-105172380D01*
X123452190Y-105124761D01*
X123499809Y-105077142D01*
X123547428Y-104981904D01*
X123547428Y-104886666D01*
X123499809Y-104791428D01*
X123452190Y-104743809D01*
X123356952Y-104696190D01*
X123166476Y-104648571D01*
X123071238Y-104600952D01*
X123023619Y-104553333D01*
X122976000Y-104458095D01*
X122976000Y-104362857D01*
X123023619Y-104267619D01*
X123071238Y-104220000D01*
X123166476Y-104172380D01*
X123404571Y-104172380D01*
X123547428Y-104220000D01*
X124452190Y-104172380D02*
X123976000Y-104172380D01*
X123928380Y-104648571D01*
X123976000Y-104600952D01*
X124071238Y-104553333D01*
X124309333Y-104553333D01*
X124404571Y-104600952D01*
X124452190Y-104648571D01*
X124499809Y-104743809D01*
X124499809Y-104981904D01*
X124452190Y-105077142D01*
X124404571Y-105124761D01*
X124309333Y-105172380D01*
X124071238Y-105172380D01*
X123976000Y-105124761D01*
X123928380Y-105077142D01*
X125118857Y-104172380D02*
X125214095Y-104172380D01*
X125309333Y-104220000D01*
X125356952Y-104267619D01*
X125404571Y-104362857D01*
X125452190Y-104553333D01*
X125452190Y-104791428D01*
X125404571Y-104981904D01*
X125356952Y-105077142D01*
X125309333Y-105124761D01*
X125214095Y-105172380D01*
X125118857Y-105172380D01*
X125023619Y-105124761D01*
X124976000Y-105077142D01*
X124928380Y-104981904D01*
X124880761Y-104791428D01*
X124880761Y-104553333D01*
X124928380Y-104362857D01*
X124976000Y-104267619D01*
X125023619Y-104220000D01*
X125118857Y-104172380D01*
X125737904Y-104172380D02*
X126309333Y-104172380D01*
X126023619Y-105172380D02*
X126023619Y-104172380D01*
X127214095Y-105172380D02*
X126880761Y-104696190D01*
X126642666Y-105172380D02*
X126642666Y-104172380D01*
X127023619Y-104172380D01*
X127118857Y-104220000D01*
X127166476Y-104267619D01*
X127214095Y-104362857D01*
X127214095Y-104505714D01*
X127166476Y-104600952D01*
X127118857Y-104648571D01*
X127023619Y-104696190D01*
X126642666Y-104696190D01*
X127404571Y-105267619D02*
X128166476Y-105267619D01*
X128356952Y-105124761D02*
X128499809Y-105172380D01*
X128737904Y-105172380D01*
X128833142Y-105124761D01*
X128880761Y-105077142D01*
X128928380Y-104981904D01*
X128928380Y-104886666D01*
X128880761Y-104791428D01*
X128833142Y-104743809D01*
X128737904Y-104696190D01*
X128547428Y-104648571D01*
X128452190Y-104600952D01*
X128404571Y-104553333D01*
X128356952Y-104458095D01*
X128356952Y-104362857D01*
X128404571Y-104267619D01*
X128452190Y-104220000D01*
X128547428Y-104172380D01*
X128785523Y-104172380D01*
X128928380Y-104220000D01*
X129547428Y-104172380D02*
X129737904Y-104172380D01*
X129833142Y-104220000D01*
X129928380Y-104315238D01*
X129976000Y-104505714D01*
X129976000Y-104839047D01*
X129928380Y-105029523D01*
X129833142Y-105124761D01*
X129737904Y-105172380D01*
X129547428Y-105172380D01*
X129452190Y-105124761D01*
X129356952Y-105029523D01*
X129309333Y-104839047D01*
X129309333Y-104505714D01*
X129356952Y-104315238D01*
X129452190Y-104220000D01*
X129547428Y-104172380D01*
X130261714Y-104172380D02*
X130833142Y-104172380D01*
X130547428Y-105172380D02*
X130547428Y-104172380D01*
X131118857Y-104267619D02*
X131166476Y-104220000D01*
X131261714Y-104172380D01*
X131499809Y-104172380D01*
X131595047Y-104220000D01*
X131642666Y-104267619D01*
X131690285Y-104362857D01*
X131690285Y-104458095D01*
X131642666Y-104600952D01*
X131071238Y-105172380D01*
X131690285Y-105172380D01*
X132071238Y-104267619D02*
X132118857Y-104220000D01*
X132214095Y-104172380D01*
X132452190Y-104172380D01*
X132547428Y-104220000D01*
X132595047Y-104267619D01*
X132642666Y-104362857D01*
X132642666Y-104458095D01*
X132595047Y-104600952D01*
X132023619Y-105172380D01*
X132642666Y-105172380D01*
X132976000Y-104172380D02*
X133595047Y-104172380D01*
X133261714Y-104553333D01*
X133404571Y-104553333D01*
X133499809Y-104600952D01*
X133547428Y-104648571D01*
X133595047Y-104743809D01*
X133595047Y-104981904D01*
X133547428Y-105077142D01*
X133499809Y-105124761D01*
X133404571Y-105172380D01*
X133118857Y-105172380D01*
X133023619Y-105124761D01*
X132976000Y-105077142D01*
X124714095Y-108672380D02*
X124714095Y-109481904D01*
X124761714Y-109577142D01*
X124809333Y-109624761D01*
X124904571Y-109672380D01*
X125095047Y-109672380D01*
X125190285Y-109624761D01*
X125237904Y-109577142D01*
X125285523Y-109481904D01*
X125285523Y-108672380D01*
X125714095Y-108767619D02*
X125761714Y-108720000D01*
X125856952Y-108672380D01*
X126095047Y-108672380D01*
X126190285Y-108720000D01*
X126237904Y-108767619D01*
X126285523Y-108862857D01*
X126285523Y-108958095D01*
X126237904Y-109100952D01*
X125666476Y-109672380D01*
X126285523Y-109672380D01*
X140032380Y-121515047D02*
X140032380Y-122086476D01*
X140032380Y-121800761D02*
X139032380Y-121800761D01*
X139175238Y-121896000D01*
X139270476Y-121991238D01*
X139318095Y-122086476D01*
X139032380Y-120896000D02*
X139032380Y-120800761D01*
X139080000Y-120705523D01*
X139127619Y-120657904D01*
X139222857Y-120610285D01*
X139413333Y-120562666D01*
X139651428Y-120562666D01*
X139841904Y-120610285D01*
X139937142Y-120657904D01*
X139984761Y-120705523D01*
X140032380Y-120800761D01*
X140032380Y-120896000D01*
X139984761Y-120991238D01*
X139937142Y-121038857D01*
X139841904Y-121086476D01*
X139651428Y-121134095D01*
X139413333Y-121134095D01*
X139222857Y-121086476D01*
X139127619Y-121038857D01*
X139080000Y-120991238D01*
X139032380Y-120896000D01*
X139032380Y-119943619D02*
X139032380Y-119848380D01*
X139080000Y-119753142D01*
X139127619Y-119705523D01*
X139222857Y-119657904D01*
X139413333Y-119610285D01*
X139651428Y-119610285D01*
X139841904Y-119657904D01*
X139937142Y-119705523D01*
X139984761Y-119753142D01*
X140032380Y-119848380D01*
X140032380Y-119943619D01*
X139984761Y-120038857D01*
X139937142Y-120086476D01*
X139841904Y-120134095D01*
X139651428Y-120181714D01*
X139413333Y-120181714D01*
X139222857Y-120134095D01*
X139127619Y-120086476D01*
X139080000Y-120038857D01*
X139032380Y-119943619D01*
X139365714Y-118753142D02*
X140032380Y-118753142D01*
X139365714Y-119181714D02*
X139889523Y-119181714D01*
X139984761Y-119134095D01*
X140032380Y-119038857D01*
X140032380Y-118896000D01*
X139984761Y-118800761D01*
X139937142Y-118753142D01*
X145137142Y-120562666D02*
X145184761Y-120610285D01*
X145232380Y-120753142D01*
X145232380Y-120848380D01*
X145184761Y-120991238D01*
X145089523Y-121086476D01*
X144994285Y-121134095D01*
X144803809Y-121181714D01*
X144660952Y-121181714D01*
X144470476Y-121134095D01*
X144375238Y-121086476D01*
X144280000Y-120991238D01*
X144232380Y-120848380D01*
X144232380Y-120753142D01*
X144280000Y-120610285D01*
X144327619Y-120562666D01*
X144565714Y-119705523D02*
X145232380Y-119705523D01*
X144184761Y-119943619D02*
X144899047Y-120181714D01*
X144899047Y-119562666D01*
X130888380Y-121513047D02*
X130888380Y-122084476D01*
X130888380Y-121798761D02*
X129888380Y-121798761D01*
X130031238Y-121894000D01*
X130126476Y-121989238D01*
X130174095Y-122084476D01*
X129888380Y-120894000D02*
X129888380Y-120798761D01*
X129936000Y-120703523D01*
X129983619Y-120655904D01*
X130078857Y-120608285D01*
X130269333Y-120560666D01*
X130507428Y-120560666D01*
X130697904Y-120608285D01*
X130793142Y-120655904D01*
X130840761Y-120703523D01*
X130888380Y-120798761D01*
X130888380Y-120894000D01*
X130840761Y-120989238D01*
X130793142Y-121036857D01*
X130697904Y-121084476D01*
X130507428Y-121132095D01*
X130269333Y-121132095D01*
X130078857Y-121084476D01*
X129983619Y-121036857D01*
X129936000Y-120989238D01*
X129888380Y-120894000D01*
X129888380Y-119941619D02*
X129888380Y-119846380D01*
X129936000Y-119751142D01*
X129983619Y-119703523D01*
X130078857Y-119655904D01*
X130269333Y-119608285D01*
X130507428Y-119608285D01*
X130697904Y-119655904D01*
X130793142Y-119703523D01*
X130840761Y-119751142D01*
X130888380Y-119846380D01*
X130888380Y-119941619D01*
X130840761Y-120036857D01*
X130793142Y-120084476D01*
X130697904Y-120132095D01*
X130507428Y-120179714D01*
X130269333Y-120179714D01*
X130078857Y-120132095D01*
X129983619Y-120084476D01*
X129936000Y-120036857D01*
X129888380Y-119941619D01*
X130221714Y-118751142D02*
X130888380Y-118751142D01*
X130221714Y-119179714D02*
X130745523Y-119179714D01*
X130840761Y-119132095D01*
X130888380Y-119036857D01*
X130888380Y-118894000D01*
X130840761Y-118798761D01*
X130793142Y-118751142D01*
X135993142Y-120560666D02*
X136040761Y-120608285D01*
X136088380Y-120751142D01*
X136088380Y-120846380D01*
X136040761Y-120989238D01*
X135945523Y-121084476D01*
X135850285Y-121132095D01*
X135659809Y-121179714D01*
X135516952Y-121179714D01*
X135326476Y-121132095D01*
X135231238Y-121084476D01*
X135136000Y-120989238D01*
X135088380Y-120846380D01*
X135088380Y-120751142D01*
X135136000Y-120608285D01*
X135183619Y-120560666D01*
X135516952Y-119989238D02*
X135469333Y-120084476D01*
X135421714Y-120132095D01*
X135326476Y-120179714D01*
X135278857Y-120179714D01*
X135183619Y-120132095D01*
X135136000Y-120084476D01*
X135088380Y-119989238D01*
X135088380Y-119798761D01*
X135136000Y-119703523D01*
X135183619Y-119655904D01*
X135278857Y-119608285D01*
X135326476Y-119608285D01*
X135421714Y-119655904D01*
X135469333Y-119703523D01*
X135516952Y-119798761D01*
X135516952Y-119989238D01*
X135564571Y-120084476D01*
X135612190Y-120132095D01*
X135707428Y-120179714D01*
X135897904Y-120179714D01*
X135993142Y-120132095D01*
X136040761Y-120084476D01*
X136088380Y-119989238D01*
X136088380Y-119798761D01*
X136040761Y-119703523D01*
X135993142Y-119655904D01*
X135897904Y-119608285D01*
X135707428Y-119608285D01*
X135612190Y-119655904D01*
X135564571Y-119703523D01*
X135516952Y-119798761D01*
M02*
