%TF.GenerationSoftware,KiCad,Pcbnew,(6.0.11-0)*%
%TF.CreationDate,2023-10-17T10:34:41+02:00*%
%TF.ProjectId,ZESP32,5a455350-3332-42e6-9b69-6361645f7063,rev?*%
%TF.SameCoordinates,Original*%
%TF.FileFunction,Copper,L1,Top*%
%TF.FilePolarity,Positive*%
%FSLAX46Y46*%
G04 Gerber Fmt 4.6, Leading zero omitted, Abs format (unit mm)*
G04 Created by KiCad (PCBNEW (6.0.11-0)) date 2023-10-17 10:34:41*
%MOMM*%
%LPD*%
G01*
G04 APERTURE LIST*
G04 Aperture macros list*
%AMRoundRect*
0 Rectangle with rounded corners*
0 $1 Rounding radius*
0 $2 $3 $4 $5 $6 $7 $8 $9 X,Y pos of 4 corners*
0 Add a 4 corners polygon primitive as box body*
4,1,4,$2,$3,$4,$5,$6,$7,$8,$9,$2,$3,0*
0 Add four circle primitives for the rounded corners*
1,1,$1+$1,$2,$3*
1,1,$1+$1,$4,$5*
1,1,$1+$1,$6,$7*
1,1,$1+$1,$8,$9*
0 Add four rect primitives between the rounded corners*
20,1,$1+$1,$2,$3,$4,$5,0*
20,1,$1+$1,$4,$5,$6,$7,0*
20,1,$1+$1,$6,$7,$8,$9,0*
20,1,$1+$1,$8,$9,$2,$3,0*%
%AMFreePoly0*
4,1,22,0.500000,-0.750000,0.000000,-0.750000,0.000000,-0.745033,-0.079941,-0.743568,-0.215256,-0.701293,-0.333266,-0.622738,-0.424486,-0.514219,-0.481581,-0.384460,-0.499164,-0.250000,-0.500000,-0.250000,-0.500000,0.250000,-0.499164,0.250000,-0.499963,0.256109,-0.478152,0.396186,-0.417904,0.524511,-0.324060,0.630769,-0.204165,0.706417,-0.067858,0.745374,0.000000,0.744959,0.000000,0.750000,
0.500000,0.750000,0.500000,-0.750000,0.500000,-0.750000,$1*%
%AMFreePoly1*
4,1,20,0.000000,0.744959,0.073905,0.744508,0.209726,0.703889,0.328688,0.626782,0.421226,0.519385,0.479903,0.390333,0.500000,0.250000,0.500000,-0.250000,0.499851,-0.262216,0.476331,-0.402017,0.414519,-0.529596,0.319384,-0.634700,0.198574,-0.708877,0.061801,-0.746166,0.000000,-0.745033,0.000000,-0.750000,-0.500000,-0.750000,-0.500000,0.750000,0.000000,0.750000,0.000000,0.744959,
0.000000,0.744959,$1*%
G04 Aperture macros list end*
%TA.AperFunction,ComponentPad*%
%ADD10R,1.700000X1.700000*%
%TD*%
%TA.AperFunction,ComponentPad*%
%ADD11O,1.700000X1.700000*%
%TD*%
%TA.AperFunction,SMDPad,CuDef*%
%ADD12R,1.300000X1.550000*%
%TD*%
%TA.AperFunction,SMDPad,CuDef*%
%ADD13FreePoly0,270.000000*%
%TD*%
%TA.AperFunction,SMDPad,CuDef*%
%ADD14FreePoly1,270.000000*%
%TD*%
%TA.AperFunction,SMDPad,CuDef*%
%ADD15R,0.650000X1.220000*%
%TD*%
%TA.AperFunction,SMDPad,CuDef*%
%ADD16RoundRect,0.250000X-0.550000X1.050000X-0.550000X-1.050000X0.550000X-1.050000X0.550000X1.050000X0*%
%TD*%
%TA.AperFunction,SMDPad,CuDef*%
%ADD17RoundRect,0.250000X-0.350000X-0.450000X0.350000X-0.450000X0.350000X0.450000X-0.350000X0.450000X0*%
%TD*%
%TA.AperFunction,SMDPad,CuDef*%
%ADD18RoundRect,0.250000X0.550000X-1.050000X0.550000X1.050000X-0.550000X1.050000X-0.550000X-1.050000X0*%
%TD*%
%TA.AperFunction,SMDPad,CuDef*%
%ADD19RoundRect,0.250000X0.337500X0.475000X-0.337500X0.475000X-0.337500X-0.475000X0.337500X-0.475000X0*%
%TD*%
%TA.AperFunction,SMDPad,CuDef*%
%ADD20RoundRect,0.250000X0.350000X0.450000X-0.350000X0.450000X-0.350000X-0.450000X0.350000X-0.450000X0*%
%TD*%
%TA.AperFunction,SMDPad,CuDef*%
%ADD21RoundRect,0.150000X-0.512500X-0.150000X0.512500X-0.150000X0.512500X0.150000X-0.512500X0.150000X0*%
%TD*%
%TA.AperFunction,SMDPad,CuDef*%
%ADD22R,1.500000X0.900000*%
%TD*%
%TA.AperFunction,SMDPad,CuDef*%
%ADD23R,0.900000X1.500000*%
%TD*%
%TA.AperFunction,HeatsinkPad*%
%ADD24C,0.475000*%
%TD*%
%TA.AperFunction,SMDPad,CuDef*%
%ADD25R,1.050000X1.050000*%
%TD*%
%TA.AperFunction,SMDPad,CuDef*%
%ADD26R,4.200000X4.200000*%
%TD*%
%TA.AperFunction,SMDPad,CuDef*%
%ADD27RoundRect,0.250000X0.475000X-0.337500X0.475000X0.337500X-0.475000X0.337500X-0.475000X-0.337500X0*%
%TD*%
%TA.AperFunction,SMDPad,CuDef*%
%ADD28RoundRect,0.250000X-0.337500X-0.475000X0.337500X-0.475000X0.337500X0.475000X-0.337500X0.475000X0*%
%TD*%
%TA.AperFunction,SMDPad,CuDef*%
%ADD29R,1.000000X2.000000*%
%TD*%
%TA.AperFunction,SMDPad,CuDef*%
%ADD30R,0.520000X1.000000*%
%TD*%
%TA.AperFunction,SMDPad,CuDef*%
%ADD31R,0.270000X1.000000*%
%TD*%
%TA.AperFunction,ComponentPad*%
%ADD32O,1.300000X2.300000*%
%TD*%
%TA.AperFunction,ComponentPad*%
%ADD33O,1.300000X2.600000*%
%TD*%
%TA.AperFunction,SMDPad,CuDef*%
%ADD34RoundRect,0.250000X-1.500000X-0.550000X1.500000X-0.550000X1.500000X0.550000X-1.500000X0.550000X0*%
%TD*%
%TA.AperFunction,SMDPad,CuDef*%
%ADD35RoundRect,0.250000X0.450000X-0.350000X0.450000X0.350000X-0.450000X0.350000X-0.450000X-0.350000X0*%
%TD*%
%TA.AperFunction,SMDPad,CuDef*%
%ADD36RoundRect,0.243750X-0.456250X0.243750X-0.456250X-0.243750X0.456250X-0.243750X0.456250X0.243750X0*%
%TD*%
%TA.AperFunction,ComponentPad*%
%ADD37R,3.000000X3.000000*%
%TD*%
%TA.AperFunction,ComponentPad*%
%ADD38C,3.000000*%
%TD*%
%TA.AperFunction,SMDPad,CuDef*%
%ADD39RoundRect,0.062500X-0.062500X0.337500X-0.062500X-0.337500X0.062500X-0.337500X0.062500X0.337500X0*%
%TD*%
%TA.AperFunction,SMDPad,CuDef*%
%ADD40RoundRect,0.062500X-0.337500X0.062500X-0.337500X-0.062500X0.337500X-0.062500X0.337500X0.062500X0*%
%TD*%
%TA.AperFunction,SMDPad,CuDef*%
%ADD41R,3.350000X3.350000*%
%TD*%
%TA.AperFunction,SMDPad,CuDef*%
%ADD42R,0.500000X0.500000*%
%TD*%
%TA.AperFunction,SMDPad,CuDef*%
%ADD43RoundRect,0.250000X-1.250000X-0.550000X1.250000X-0.550000X1.250000X0.550000X-1.250000X0.550000X0*%
%TD*%
%TA.AperFunction,SMDPad,CuDef*%
%ADD44R,1.500000X2.000000*%
%TD*%
%TA.AperFunction,SMDPad,CuDef*%
%ADD45R,3.800000X2.000000*%
%TD*%
%TA.AperFunction,SMDPad,CuDef*%
%ADD46RoundRect,0.250000X-0.475000X0.337500X-0.475000X-0.337500X0.475000X-0.337500X0.475000X0.337500X0*%
%TD*%
%TA.AperFunction,SMDPad,CuDef*%
%ADD47R,2.500000X1.800000*%
%TD*%
%TA.AperFunction,SMDPad,CuDef*%
%ADD48RoundRect,0.243750X0.456250X-0.243750X0.456250X0.243750X-0.456250X0.243750X-0.456250X-0.243750X0*%
%TD*%
%TA.AperFunction,ViaPad*%
%ADD49C,0.800000*%
%TD*%
%TA.AperFunction,Conductor*%
%ADD50C,0.254000*%
%TD*%
%TA.AperFunction,Conductor*%
%ADD51C,0.406400*%
%TD*%
%TA.AperFunction,Conductor*%
%ADD52C,0.508000*%
%TD*%
%TA.AperFunction,Conductor*%
%ADD53C,0.355600*%
%TD*%
G04 APERTURE END LIST*
%TO.C,JP2*%
G36*
X109540400Y-72111600D02*
G01*
X108940400Y-72111600D01*
X108940400Y-71611600D01*
X109540400Y-71611600D01*
X109540400Y-72111600D01*
G37*
%TO.C,JP1*%
G36*
X112639200Y-72111600D02*
G01*
X112039200Y-72111600D01*
X112039200Y-71611600D01*
X112639200Y-71611600D01*
X112639200Y-72111600D01*
G37*
%TD*%
D10*
%TO.P,J8,1,Pin_1*%
%TO.N,EXT_5V*%
X91440000Y-88900000D03*
D11*
%TO.P,J8,2,Pin_2*%
%TO.N,GND*%
X91440000Y-91440000D03*
%TD*%
D12*
%TO.P,SW1,1,1*%
%TO.N,GND*%
X95651000Y-107912000D03*
X95651000Y-115862000D03*
%TO.P,SW1,2,2*%
%TO.N,IO0*%
X100151000Y-107912000D03*
X100151000Y-115862000D03*
%TD*%
D13*
%TO.P,JP2,1,A*%
%TO.N,Net-(JP2-Pad1)*%
X109240400Y-71211600D03*
D14*
%TO.P,JP2,2,B*%
%TO.N,TXD0*%
X109240400Y-72511600D03*
%TD*%
D15*
%TO.P,Q1,1,E*%
%TO.N,RTS*%
X110728800Y-67685200D03*
%TO.P,Q1,2,B*%
%TO.N,Net-(Q1-Pad2)*%
X112628800Y-67685200D03*
%TO.P,Q1,3,C*%
%TO.N,ENA*%
X111678800Y-65065200D03*
%TD*%
D16*
%TO.P,C9,1*%
%TO.N,+3V3*%
X104871600Y-68944000D03*
%TO.P,C9,2*%
%TO.N,GND*%
X104871600Y-72544000D03*
%TD*%
D17*
%TO.P,R8,1*%
%TO.N,DTR*%
X110662800Y-60228400D03*
%TO.P,R8,2*%
%TO.N,Net-(Q1-Pad2)*%
X112662800Y-60228400D03*
%TD*%
D18*
%TO.P,C3,1*%
%TO.N,ENA*%
X110967600Y-81992800D03*
%TO.P,C3,2*%
%TO.N,GND*%
X110967600Y-78392800D03*
%TD*%
D19*
%TO.P,C12,1*%
%TO.N,+3V3*%
X99305100Y-59888800D03*
%TO.P,C12,2*%
%TO.N,GND*%
X97230100Y-59888800D03*
%TD*%
D20*
%TO.P,R4,1*%
%TO.N,Net-(R3-Pad2)*%
X99267600Y-64867200D03*
%TO.P,R4,2*%
%TO.N,GND*%
X97267600Y-64867200D03*
%TD*%
D21*
%TO.P,U1,1,I/O1*%
%TO.N,Net-(J2-PadA7)*%
X103937300Y-55027200D03*
%TO.P,U1,2,GND*%
%TO.N,GND*%
X103937300Y-55977200D03*
%TO.P,U1,3,I/O2*%
%TO.N,Net-(J2-PadA6)*%
X103937300Y-56927200D03*
%TO.P,U1,4,I/O2*%
%TO.N,D+*%
X106212300Y-56927200D03*
%TO.P,U1,5,VBUS*%
%TO.N,VBUS*%
X106212300Y-55977200D03*
%TO.P,U1,6,I/O1*%
%TO.N,D-*%
X106212300Y-55027200D03*
%TD*%
D10*
%TO.P,J3,1,Pin_1*%
%TO.N,D23*%
X91440000Y-93980000D03*
D11*
%TO.P,J3,2,Pin_2*%
%TO.N,D22*%
X91440000Y-96520000D03*
%TO.P,J3,3,Pin_3*%
%TO.N,D21*%
X91440000Y-99060000D03*
%TO.P,J3,4,Pin_4*%
%TO.N,D19*%
X91440000Y-101600000D03*
%TO.P,J3,5,Pin_5*%
%TO.N,D18*%
X91440000Y-104140000D03*
%TO.P,J3,6,Pin_6*%
%TO.N,D5*%
X91440000Y-106680000D03*
%TO.P,J3,7,Pin_7*%
%TO.N,D17*%
X91440000Y-109220000D03*
%TO.P,J3,8,Pin_8*%
%TO.N,D16*%
X91440000Y-111760000D03*
%TO.P,J3,9,Pin_9*%
%TO.N,D4*%
X91440000Y-114300000D03*
%TO.P,J3,10,Pin_10*%
%TO.N,D15*%
X91440000Y-116840000D03*
%TD*%
D22*
%TO.P,U4,1,GND*%
%TO.N,GND*%
X106413000Y-140965000D03*
%TO.P,U4,2,VDD*%
%TO.N,+3V3*%
X106413000Y-139695000D03*
%TO.P,U4,3,EN*%
%TO.N,ENA*%
X106413000Y-138425000D03*
%TO.P,U4,4,SENSOR_VP*%
%TO.N,unconnected-(U4-Pad4)*%
X106413000Y-137155000D03*
%TO.P,U4,5,SENSOR_VN*%
%TO.N,unconnected-(U4-Pad5)*%
X106413000Y-135885000D03*
%TO.P,U4,6,IO34*%
%TO.N,D34*%
X106413000Y-134615000D03*
%TO.P,U4,7,IO35*%
%TO.N,D35*%
X106413000Y-133345000D03*
%TO.P,U4,8,IO32*%
%TO.N,D32*%
X106413000Y-132075000D03*
%TO.P,U4,9,IO33*%
%TO.N,D33*%
X106413000Y-130805000D03*
%TO.P,U4,10,IO25*%
%TO.N,D25*%
X106413000Y-129535000D03*
%TO.P,U4,11,IO26*%
%TO.N,D26*%
X106413000Y-128265000D03*
%TO.P,U4,12,IO27*%
%TO.N,D27*%
X106413000Y-126995000D03*
%TO.P,U4,13,IO14*%
%TO.N,D14*%
X106413000Y-125725000D03*
%TO.P,U4,14,IO12*%
%TO.N,D12*%
X106413000Y-124455000D03*
D23*
%TO.P,U4,15,GND*%
%TO.N,GND*%
X103373000Y-123205000D03*
%TO.P,U4,16,IO13*%
%TO.N,D13*%
X102103000Y-123205000D03*
%TO.P,U4,17,SHD/SD2*%
%TO.N,unconnected-(U4-Pad17)*%
X100833000Y-123205000D03*
%TO.P,U4,18,SWP/SD3*%
%TO.N,unconnected-(U4-Pad18)*%
X99563000Y-123205000D03*
%TO.P,U4,19,SCS/CMD*%
%TO.N,unconnected-(U4-Pad19)*%
X98293000Y-123205000D03*
%TO.P,U4,20,SCK/CLK*%
%TO.N,unconnected-(U4-Pad20)*%
X97023000Y-123205000D03*
%TO.P,U4,21,SDO/SD0*%
%TO.N,unconnected-(U4-Pad21)*%
X95753000Y-123205000D03*
%TO.P,U4,22,SDI/SD1*%
%TO.N,unconnected-(U4-Pad22)*%
X94483000Y-123205000D03*
%TO.P,U4,23,IO15*%
%TO.N,D15*%
X93213000Y-123205000D03*
%TO.P,U4,24,IO2*%
%TO.N,D2*%
X91943000Y-123205000D03*
D22*
%TO.P,U4,25,IO0*%
%TO.N,IO0*%
X88913000Y-124455000D03*
%TO.P,U4,26,IO4*%
%TO.N,D4*%
X88913000Y-125725000D03*
%TO.P,U4,27,IO16*%
%TO.N,D16*%
X88913000Y-126995000D03*
%TO.P,U4,28,IO17*%
%TO.N,D17*%
X88913000Y-128265000D03*
%TO.P,U4,29,IO5*%
%TO.N,D5*%
X88913000Y-129535000D03*
%TO.P,U4,30,IO18*%
%TO.N,D18*%
X88913000Y-130805000D03*
%TO.P,U4,31,IO19*%
%TO.N,D19*%
X88913000Y-132075000D03*
%TO.P,U4,32,NC*%
%TO.N,unconnected-(U4-Pad32)*%
X88913000Y-133345000D03*
%TO.P,U4,33,IO21*%
%TO.N,D21*%
X88913000Y-134615000D03*
%TO.P,U4,34,RXD0/IO3*%
%TO.N,RXD0*%
X88913000Y-135885000D03*
%TO.P,U4,35,TXD0/IO1*%
%TO.N,TXD0*%
X88913000Y-137155000D03*
%TO.P,U4,36,IO22*%
%TO.N,D22*%
X88913000Y-138425000D03*
%TO.P,U4,37,IO23*%
%TO.N,D23*%
X88913000Y-139695000D03*
%TO.P,U4,38,GND*%
%TO.N,GND*%
X88913000Y-140965000D03*
D24*
%TO.P,U4,39,GND*%
X98343000Y-132862500D03*
D25*
X98343000Y-135150000D03*
D24*
X99105500Y-135150000D03*
X97580500Y-133625000D03*
X99105500Y-132100000D03*
X97580500Y-135150000D03*
X96818000Y-134387500D03*
D25*
X96818000Y-132100000D03*
D24*
X99105500Y-133625000D03*
D25*
X96818000Y-135150000D03*
D24*
X97580500Y-132100000D03*
D25*
X98343000Y-132100000D03*
X99868000Y-135150000D03*
X96818000Y-133625000D03*
X99868000Y-133625000D03*
D26*
X98343000Y-133625000D03*
D24*
X98343000Y-134387500D03*
X99868000Y-132862500D03*
X99868000Y-134387500D03*
D25*
X98343000Y-133625000D03*
X99868000Y-132100000D03*
D24*
X96818000Y-132862500D03*
%TD*%
D27*
%TO.P,C7,1*%
%TO.N,ENA*%
X106497200Y-80874700D03*
%TO.P,C7,2*%
%TO.N,GND*%
X106497200Y-78799700D03*
%TD*%
D10*
%TO.P,J7,1,Pin_1*%
%TO.N,+3V3*%
X104140000Y-91440000D03*
D11*
%TO.P,J7,2,Pin_2*%
%TO.N,GND*%
X104140000Y-88900000D03*
%TD*%
D28*
%TO.P,C1,1*%
%TO.N,GND*%
X97006500Y-118491000D03*
%TO.P,C1,2*%
%TO.N,IO0*%
X99081500Y-118491000D03*
%TD*%
D29*
%TO.P,J2,*%
%TO.N,*%
X106220800Y-46953200D03*
X103420800Y-46953200D03*
D30*
%TO.P,J2,A1,GND*%
%TO.N,GND*%
X107920800Y-51153200D03*
%TO.P,J2,A4,VBUS*%
%TO.N,VBUS*%
X107170800Y-51153200D03*
D31*
%TO.P,J2,A5,CC1*%
%TO.N,unconnected-(J2-PadA5)*%
X106570800Y-51153200D03*
%TO.P,J2,A6,D+*%
%TO.N,Net-(J2-PadA6)*%
X105070800Y-51153200D03*
%TO.P,J2,A7,D-*%
%TO.N,Net-(J2-PadA7)*%
X104070800Y-51153200D03*
%TO.P,J2,A8,SBU1*%
%TO.N,unconnected-(J2-PadA8)*%
X103070800Y-51153200D03*
D30*
%TO.P,J2,A9,VBUS*%
%TO.N,VBUS*%
X102470800Y-51153200D03*
%TO.P,J2,A12,GND*%
%TO.N,GND*%
X101720800Y-51153200D03*
%TO.P,J2,B1,GND*%
X101720800Y-51153200D03*
%TO.P,J2,B4,VBUS*%
%TO.N,VBUS*%
X102470800Y-51153200D03*
D31*
%TO.P,J2,B5,CC2*%
%TO.N,unconnected-(J2-PadB5)*%
X103570800Y-51153200D03*
%TO.P,J2,B6,D+*%
%TO.N,Net-(J2-PadA6)*%
X104570800Y-51153200D03*
%TO.P,J2,B7,D-*%
%TO.N,Net-(J2-PadA7)*%
X105570800Y-51153200D03*
%TO.P,J2,B8,SBU2*%
%TO.N,unconnected-(J2-PadB8)*%
X106070800Y-51153200D03*
D30*
%TO.P,J2,B9,VBUS*%
%TO.N,VBUS*%
X107170800Y-51153200D03*
%TO.P,J2,B12,GND*%
%TO.N,GND*%
X107920800Y-51153200D03*
D32*
%TO.P,J2,S1,SHIELD*%
X109140800Y-50778200D03*
D33*
X100500800Y-46953200D03*
X109140800Y-46953200D03*
D32*
X100500800Y-50778200D03*
%TD*%
D34*
%TO.P,C10,1*%
%TO.N,+3V3*%
X86931600Y-77805200D03*
%TO.P,C10,2*%
%TO.N,GND*%
X92331600Y-77805200D03*
%TD*%
D35*
%TO.P,R2,1*%
%TO.N,+3V3*%
X83992800Y-72302800D03*
%TO.P,R2,2*%
%TO.N,Net-(D3-Pad2)*%
X83992800Y-70302800D03*
%TD*%
D19*
%TO.P,C8,1*%
%TO.N,+3V3*%
X105304500Y-120396000D03*
%TO.P,C8,2*%
%TO.N,GND*%
X103229500Y-120396000D03*
%TD*%
D20*
%TO.P,R6,1*%
%TO.N,Net-(R6-Pad1)*%
X99216800Y-67305600D03*
%TO.P,R6,2*%
%TO.N,Net-(R5-Pad1)*%
X97216800Y-67305600D03*
%TD*%
D35*
%TO.P,R1,1*%
%TO.N,ENA*%
X103906400Y-80837200D03*
%TO.P,R1,2*%
%TO.N,+3V3*%
X103906400Y-78837200D03*
%TD*%
D36*
%TO.P,D3,1,K*%
%TO.N,GND*%
X84043600Y-66098100D03*
%TO.P,D3,2,A*%
%TO.N,Net-(D3-Pad2)*%
X84043600Y-67973100D03*
%TD*%
D17*
%TO.P,R7,1*%
%TO.N,GND*%
X97216800Y-72334800D03*
%TO.P,R7,2*%
%TO.N,Net-(R7-Pad2)*%
X99216800Y-72334800D03*
%TD*%
%TO.P,R3,1*%
%TO.N,VBUS*%
X97267600Y-62378000D03*
%TO.P,R3,2*%
%TO.N,Net-(R3-Pad2)*%
X99267600Y-62378000D03*
%TD*%
D37*
%TO.P,J1,1,Pin_1*%
%TO.N,GND*%
X86482000Y-48239600D03*
D38*
%TO.P,J1,2,Pin_2*%
%TO.N,Net-(D1-Pad2)*%
X91562000Y-48239600D03*
%TD*%
D17*
%TO.P,R9,1*%
%TO.N,RTS*%
X110628000Y-62616000D03*
%TO.P,R9,2*%
%TO.N,Net-(Q2-Pad2)*%
X112628000Y-62616000D03*
%TD*%
D39*
%TO.P,U3,1,~{DCD}*%
%TO.N,unconnected-(U3-Pad1)*%
X106320800Y-61147200D03*
%TO.P,U3,2,~{RI}/CLK*%
%TO.N,unconnected-(U3-Pad2)*%
X105820800Y-61147200D03*
%TO.P,U3,3,GND*%
%TO.N,GND*%
X105320800Y-61147200D03*
%TO.P,U3,4,D+*%
%TO.N,D+*%
X104820800Y-61147200D03*
%TO.P,U3,5,D-*%
%TO.N,D-*%
X104320800Y-61147200D03*
%TO.P,U3,6,VDD*%
%TO.N,+3V3*%
X103820800Y-61147200D03*
%TO.P,U3,7,VREGIN*%
X103320800Y-61147200D03*
D40*
%TO.P,U3,8,VBUS*%
%TO.N,Net-(R3-Pad2)*%
X102370800Y-62097200D03*
%TO.P,U3,9,~{RST}*%
%TO.N,Net-(R6-Pad1)*%
X102370800Y-62597200D03*
%TO.P,U3,10,NC*%
%TO.N,unconnected-(U3-Pad10)*%
X102370800Y-63097200D03*
%TO.P,U3,11,~{SUSPEND}*%
%TO.N,Net-(R7-Pad2)*%
X102370800Y-63597200D03*
%TO.P,U3,12,SUSPEND*%
%TO.N,unconnected-(U3-Pad12)*%
X102370800Y-64097200D03*
%TO.P,U3,13,CHREN*%
%TO.N,unconnected-(U3-Pad13)*%
X102370800Y-64597200D03*
%TO.P,U3,14,CHR1*%
%TO.N,unconnected-(U3-Pad14)*%
X102370800Y-65097200D03*
D39*
%TO.P,U3,15,CHR0*%
%TO.N,unconnected-(U3-Pad15)*%
X103320800Y-66047200D03*
%TO.P,U3,16,~{WAKEUP}/GPIO.3*%
%TO.N,unconnected-(U3-Pad16)*%
X103820800Y-66047200D03*
%TO.P,U3,17,RS485/GPIO.2*%
%TO.N,unconnected-(U3-Pad17)*%
X104320800Y-66047200D03*
%TO.P,U3,18,~{RXT}/GPIO.1*%
%TO.N,unconnected-(U3-Pad18)*%
X104820800Y-66047200D03*
%TO.P,U3,19,~{TXT}/GPIO.0*%
%TO.N,unconnected-(U3-Pad19)*%
X105320800Y-66047200D03*
%TO.P,U3,20,GPIO.6*%
%TO.N,unconnected-(U3-Pad20)*%
X105820800Y-66047200D03*
%TO.P,U3,21,GPIO.5*%
%TO.N,unconnected-(U3-Pad21)*%
X106320800Y-66047200D03*
D40*
%TO.P,U3,22,GPIO.4*%
%TO.N,unconnected-(U3-Pad22)*%
X107270800Y-65097200D03*
%TO.P,U3,23,~{CTS}*%
%TO.N,unconnected-(U3-Pad23)*%
X107270800Y-64597200D03*
%TO.P,U3,24,~{RTS}*%
%TO.N,RTS*%
X107270800Y-64097200D03*
%TO.P,U3,25,RXD*%
%TO.N,Net-(JP2-Pad1)*%
X107270800Y-63597200D03*
%TO.P,U3,26,TXD*%
%TO.N,Net-(JP1-Pad1)*%
X107270800Y-63097200D03*
%TO.P,U3,27,~{DSR}*%
%TO.N,unconnected-(U3-Pad27)*%
X107270800Y-62597200D03*
%TO.P,U3,28,~{DTR}*%
%TO.N,DTR*%
X107270800Y-62097200D03*
D41*
%TO.P,U3,29,GND*%
%TO.N,GND*%
X104820800Y-63597200D03*
%TD*%
D42*
%TO.P,D2,1,K*%
%TO.N,EXT_5V*%
X97218400Y-55012000D03*
%TO.P,D2,2,A*%
%TO.N,VBUS*%
X99418400Y-55012000D03*
%TD*%
D43*
%TO.P,C6,1*%
%TO.N,EXT_5V*%
X87584000Y-60736400D03*
%TO.P,C6,2*%
%TO.N,GND*%
X91984000Y-60736400D03*
%TD*%
D19*
%TO.P,C5,1*%
%TO.N,VBUS*%
X99355900Y-57450400D03*
%TO.P,C5,2*%
%TO.N,GND*%
X97280900Y-57450400D03*
%TD*%
D35*
%TO.P,R10,1*%
%TO.N,D2*%
X101366400Y-80786400D03*
%TO.P,R10,2*%
%TO.N,Net-(D4-Pad2)*%
X101366400Y-78786400D03*
%TD*%
D12*
%TO.P,SW2,1,1*%
%TO.N,GND*%
X95651000Y-90992000D03*
X95651000Y-98942000D03*
%TO.P,SW2,2,2*%
%TO.N,ENA*%
X100151000Y-98942000D03*
X100151000Y-90992000D03*
%TD*%
D44*
%TO.P,U2,1,GND*%
%TO.N,GND*%
X91931600Y-65562000D03*
D45*
%TO.P,U2,2,VO*%
%TO.N,+3V3*%
X89631600Y-71862000D03*
D44*
X89631600Y-65562000D03*
%TO.P,U2,3,VI*%
%TO.N,EXT_5V*%
X87331600Y-65562000D03*
%TD*%
D15*
%TO.P,Q2,1,E*%
%TO.N,DTR*%
X110830400Y-57779200D03*
%TO.P,Q2,2,B*%
%TO.N,Net-(Q2-Pad2)*%
X112730400Y-57779200D03*
%TO.P,Q2,3,C*%
%TO.N,IO0*%
X111780400Y-55159200D03*
%TD*%
D28*
%TO.P,C2,1*%
%TO.N,GND*%
X97006500Y-101981000D03*
%TO.P,C2,2*%
%TO.N,ENA*%
X99081500Y-101981000D03*
%TD*%
D10*
%TO.P,J4,1,Pin_1*%
%TO.N,D34*%
X104140000Y-93980000D03*
D11*
%TO.P,J4,2,Pin_2*%
%TO.N,D35*%
X104140000Y-96520000D03*
%TO.P,J4,3,Pin_3*%
%TO.N,D32*%
X104140000Y-99060000D03*
%TO.P,J4,4,Pin_4*%
%TO.N,D33*%
X104140000Y-101600000D03*
%TO.P,J4,5,Pin_5*%
%TO.N,D25*%
X104140000Y-104140000D03*
%TO.P,J4,6,Pin_6*%
%TO.N,D26*%
X104140000Y-106680000D03*
%TO.P,J4,7,Pin_7*%
%TO.N,D27*%
X104140000Y-109220000D03*
%TO.P,J4,8,Pin_8*%
%TO.N,D14*%
X104140000Y-111760000D03*
%TO.P,J4,9,Pin_9*%
%TO.N,D12*%
X104140000Y-114300000D03*
%TO.P,J4,10,Pin_10*%
%TO.N,D13*%
X104140000Y-116840000D03*
%TD*%
D17*
%TO.P,R5,1*%
%TO.N,Net-(R5-Pad1)*%
X97216800Y-69845600D03*
%TO.P,R5,2*%
%TO.N,+3V3*%
X99216800Y-69845600D03*
%TD*%
D46*
%TO.P,C4,1*%
%TO.N,EXT_5V*%
X83942000Y-54822100D03*
%TO.P,C4,2*%
%TO.N,GND*%
X83942000Y-56897100D03*
%TD*%
D13*
%TO.P,JP1,1,A*%
%TO.N,Net-(JP1-Pad1)*%
X112339200Y-71211600D03*
D14*
%TO.P,JP1,2,B*%
%TO.N,RXD0*%
X112339200Y-72511600D03*
%TD*%
D47*
%TO.P,D1,1,K*%
%TO.N,EXT_5V*%
X87631600Y-54792800D03*
%TO.P,D1,2,A*%
%TO.N,Net-(D1-Pad2)*%
X91631600Y-54792800D03*
%TD*%
D46*
%TO.P,C11,1*%
%TO.N,+3V3*%
X83942000Y-80272900D03*
%TO.P,C11,2*%
%TO.N,GND*%
X83942000Y-82347900D03*
%TD*%
D48*
%TO.P,D4,1,K*%
%TO.N,GND*%
X98775600Y-80723900D03*
%TO.P,D4,2,A*%
%TO.N,Net-(D4-Pad2)*%
X98775600Y-78848900D03*
%TD*%
D49*
%TO.N,IO0*%
X109750000Y-55250000D03*
X107000000Y-74250000D03*
%TO.N,GND*%
X98353800Y-140965000D03*
X92019200Y-58094800D03*
X97230100Y-58598900D03*
X112522000Y-78359000D03*
X103124000Y-72517000D03*
X92331600Y-76451400D03*
X102362000Y-56007000D03*
X83942000Y-58094800D03*
X105664000Y-60071000D03*
X98343000Y-129901400D03*
X95651000Y-93325000D03*
X95351600Y-64871600D03*
%TO.N,IO0*%
X97790000Y-120142000D03*
X89027000Y-119888000D03*
%TO.N,ENA*%
X113182400Y-64262000D03*
X113639600Y-81940400D03*
X100203000Y-84328000D03*
X105247500Y-138430000D03*
X103886000Y-84201000D03*
X98384300Y-116078000D03*
%TO.N,EXT_5V*%
X87249000Y-67945000D03*
%TO.N,+3V3*%
X101452000Y-59888800D03*
X89631600Y-68864400D03*
X104775000Y-139700000D03*
X100457000Y-68961000D03*
X104521000Y-125349000D03*
X102743000Y-68961000D03*
X103886000Y-77089000D03*
%TO.N,D5*%
X92659200Y-129489200D03*
%TO.N,D19*%
X93726000Y-132080000D03*
%TO.N,D18*%
X92760800Y-130810000D03*
%TO.N,D17*%
X92151200Y-128270000D03*
%TO.N,D16*%
X90779600Y-126542800D03*
%TO.N,D15*%
X91567000Y-120777000D03*
%TO.N,D26*%
X103073200Y-128270000D03*
%TO.N,D25*%
X103124000Y-129540000D03*
%TO.N,D23*%
X95504000Y-139649200D03*
%TO.N,D22*%
X95234700Y-138430000D03*
%TO.N,D21*%
X94183200Y-134569200D03*
%TO.N,D34*%
X101249400Y-134615000D03*
%TO.N,D35*%
X102311200Y-133350000D03*
%TO.N,D32*%
X102463600Y-132080000D03*
%TO.N,D33*%
X102768400Y-130810000D03*
%TO.N,D27*%
X103022400Y-127000000D03*
%TO.N,Net-(JP1-Pad1)*%
X109088000Y-61549200D03*
X109951600Y-69220000D03*
%TO.N,RXD0*%
X112390000Y-73893600D03*
X97536000Y-127762000D03*
%TO.N,Net-(JP2-Pad1)*%
X109088000Y-64902000D03*
X109088000Y-62920800D03*
%TO.N,TXD0*%
X109240400Y-73842800D03*
X96774000Y-129159000D03*
%TO.N,D-*%
X107447100Y-55012000D03*
X104363600Y-58720400D03*
%TD*%
D50*
%TO.N,Net-(Q1-Pad2)*%
X112628800Y-67685200D02*
X113366000Y-67685200D01*
X113366000Y-67685200D02*
X113909400Y-67141800D01*
X113909400Y-67141800D02*
X113909400Y-60696400D01*
X113441400Y-60228400D02*
X112662800Y-60228400D01*
X113909400Y-60696400D02*
X113441400Y-60228400D01*
%TO.N,Net-(Q2-Pad2)*%
X112628000Y-62616000D02*
X112603200Y-62616000D01*
X112603200Y-62616000D02*
X111658400Y-61671200D01*
X111658400Y-61671200D02*
X111658400Y-58216800D01*
X112096000Y-57779200D02*
X112730400Y-57779200D01*
X111658400Y-58216800D02*
X112096000Y-57779200D01*
%TO.N,IO0*%
X104490600Y-74731800D02*
X106518200Y-74731800D01*
X106518200Y-74731800D02*
X107000000Y-74250000D01*
X109750000Y-55250000D02*
X111689600Y-55250000D01*
X111689600Y-55250000D02*
X111780400Y-55159200D01*
D51*
%TO.N,GND*%
X92634900Y-82347900D02*
X97151600Y-82347900D01*
D52*
X91984000Y-60736400D02*
X91984000Y-65509600D01*
D50*
X98343000Y-125685000D02*
X98343000Y-129901400D01*
D52*
X92019200Y-60701200D02*
X91984000Y-60736400D01*
D50*
X96139000Y-118491000D02*
X97006500Y-118491000D01*
X102391800Y-55977200D02*
X102362000Y-56007000D01*
X103373000Y-120539500D02*
X103373000Y-123205000D01*
X106497200Y-78799700D02*
X108296700Y-78799700D01*
X98343000Y-140925000D02*
X98303000Y-140965000D01*
X91440000Y-91440000D02*
X93599000Y-91440000D01*
X94047000Y-90992000D02*
X95651000Y-90992000D01*
X98353800Y-140965000D02*
X106413000Y-140965000D01*
X98303000Y-140965000D02*
X98353800Y-140965000D01*
X95651000Y-115862000D02*
X95651000Y-118003000D01*
X95651000Y-101620000D02*
X96012000Y-101981000D01*
D52*
X91984000Y-65509600D02*
X91931600Y-65562000D01*
D53*
X95356000Y-64867200D02*
X95351600Y-64871600D01*
D51*
X92331600Y-82044600D02*
X92634900Y-82347900D01*
D50*
X101720800Y-51153200D02*
X100875800Y-51153200D01*
D51*
X92331600Y-77805200D02*
X92331600Y-76451400D01*
X104871600Y-72544000D02*
X103151000Y-72544000D01*
D50*
X100875800Y-51153200D02*
X100500800Y-50778200D01*
X95651000Y-90992000D02*
X95651000Y-93325000D01*
X97230100Y-59888800D02*
X97230100Y-57501200D01*
X95651000Y-93325000D02*
X95651000Y-98942000D01*
X105320800Y-61147200D02*
X105320800Y-60414200D01*
D52*
X83942000Y-65996500D02*
X84043600Y-66098100D01*
D50*
X88913000Y-140965000D02*
X98303000Y-140965000D01*
X95651000Y-102342000D02*
X96012000Y-101981000D01*
X105320800Y-63097200D02*
X104820800Y-63597200D01*
X110967600Y-78392800D02*
X112488200Y-78392800D01*
X96012000Y-101981000D02*
X97006500Y-101981000D01*
X103373000Y-123205000D02*
X103373000Y-124465000D01*
X105320800Y-61147200D02*
X105320800Y-63097200D01*
X103373000Y-124465000D02*
X102235000Y-125603000D01*
D52*
X83942000Y-56897100D02*
X83942000Y-58094800D01*
D53*
X95351600Y-64871600D02*
X94661200Y-65562000D01*
D50*
X107920800Y-51153200D02*
X108765800Y-51153200D01*
X105320800Y-60414200D02*
X105664000Y-60071000D01*
D52*
X83942000Y-58094800D02*
X83942000Y-65996500D01*
D50*
X103937300Y-55977200D02*
X102391800Y-55977200D01*
D51*
X95051200Y-72334800D02*
X92331600Y-75054400D01*
D52*
X92019200Y-58094800D02*
X92019200Y-60701200D01*
D51*
X97151600Y-82347900D02*
X98775600Y-80723900D01*
D50*
X112488200Y-78392800D02*
X112522000Y-78359000D01*
X103229500Y-120396000D02*
X103373000Y-120539500D01*
X98343000Y-133625000D02*
X98343000Y-140925000D01*
X98425000Y-125603000D02*
X98343000Y-125685000D01*
X95651000Y-107912000D02*
X95651000Y-102342000D01*
X108296700Y-78799700D02*
X108703600Y-78392800D01*
X95651000Y-107912000D02*
X95651000Y-115862000D01*
X108765800Y-51153200D02*
X109140800Y-50778200D01*
D51*
X83942000Y-82347900D02*
X92634900Y-82347900D01*
D50*
X102235000Y-125603000D02*
X98425000Y-125603000D01*
X93599000Y-91440000D02*
X94047000Y-90992000D01*
X108703600Y-78392800D02*
X110967600Y-78392800D01*
D51*
X97216800Y-72334800D02*
X95051200Y-72334800D01*
D50*
X97230100Y-57501200D02*
X97280900Y-57450400D01*
D53*
X97267600Y-64867200D02*
X95356000Y-64867200D01*
D51*
X92331600Y-75054400D02*
X92331600Y-76451400D01*
X103151000Y-72544000D02*
X103124000Y-72517000D01*
D50*
X95651000Y-98942000D02*
X95651000Y-101620000D01*
X98343000Y-129901400D02*
X98343000Y-133625000D01*
D51*
X92331600Y-77805200D02*
X92331600Y-82044600D01*
D50*
X95651000Y-118003000D02*
X96139000Y-118491000D01*
D53*
X94661200Y-65562000D02*
X91931600Y-65562000D01*
D50*
%TO.N,IO0*%
X99081500Y-119866500D02*
X98806000Y-120142000D01*
X100151000Y-102287000D02*
X101600000Y-100838000D01*
X99081500Y-118491000D02*
X99081500Y-119866500D01*
X102585600Y-84002800D02*
X102585600Y-76636800D01*
X100151000Y-115862000D02*
X100151000Y-118162000D01*
X102585600Y-76636800D02*
X104490600Y-74731800D01*
X99822000Y-118491000D02*
X99081500Y-118491000D01*
X100151000Y-107912000D02*
X100151000Y-115862000D01*
X88913000Y-120002000D02*
X88913000Y-124455000D01*
X100151000Y-118162000D02*
X99822000Y-118491000D01*
X98806000Y-120142000D02*
X97790000Y-120142000D01*
X100151000Y-107912000D02*
X100151000Y-102287000D01*
X89027000Y-119888000D02*
X88913000Y-120002000D01*
X101600000Y-84988400D02*
X102585600Y-84002800D01*
X101600000Y-100838000D02*
X101600000Y-84988400D01*
%TO.N,ENA*%
X103906400Y-80837200D02*
X106459700Y-80837200D01*
X108093500Y-80874700D02*
X109211600Y-81992800D01*
X113587200Y-81992800D02*
X110967600Y-81992800D01*
X111678800Y-65065200D02*
X111678800Y-64394000D01*
X103886000Y-84201000D02*
X103886000Y-83820000D01*
X99081500Y-101981000D02*
X99081500Y-104118500D01*
X98425000Y-116037300D02*
X98384300Y-116078000D01*
X103886000Y-83820000D02*
X103906400Y-83799600D01*
X100151000Y-84380000D02*
X100203000Y-84328000D01*
X109211600Y-81992800D02*
X110967600Y-81992800D01*
X111678800Y-64394000D02*
X111810800Y-64262000D01*
X103906400Y-80837200D02*
X103906400Y-83799600D01*
X106459700Y-80837200D02*
X106497200Y-80874700D01*
X105247500Y-138430000D02*
X106408000Y-138430000D01*
X100151000Y-90992000D02*
X100151000Y-84380000D01*
X100151000Y-98942000D02*
X100151000Y-101525000D01*
X100151000Y-101525000D02*
X99695000Y-101981000D01*
X113639600Y-81940400D02*
X113587200Y-81992800D01*
X103906400Y-83799600D02*
X103906400Y-83952000D01*
X106408000Y-138430000D02*
X106413000Y-138425000D01*
X111810800Y-64262000D02*
X113182400Y-64262000D01*
X106497200Y-80874700D02*
X108093500Y-80874700D01*
X99695000Y-101981000D02*
X99081500Y-101981000D01*
X98425000Y-104775000D02*
X98425000Y-116037300D01*
X100151000Y-90992000D02*
X100151000Y-98942000D01*
X99081500Y-104118500D02*
X98425000Y-104775000D01*
D52*
%TO.N,EXT_5V*%
X87331600Y-63239600D02*
X87331600Y-65562000D01*
X87631600Y-60688800D02*
X87584000Y-60736400D01*
X87631600Y-56643600D02*
X87631600Y-60688800D01*
X87584000Y-62987200D02*
X87331600Y-63239600D01*
X87602300Y-54822100D02*
X87631600Y-54792800D01*
X87584000Y-60736400D02*
X87584000Y-62987200D01*
X95356000Y-55012000D02*
X97218400Y-55012000D01*
X87331600Y-65562000D02*
X87331600Y-67862400D01*
X93724400Y-56643600D02*
X95356000Y-55012000D01*
X87631600Y-56643600D02*
X93724400Y-56643600D01*
X87631600Y-54792800D02*
X87631600Y-56643600D01*
X83942000Y-54822100D02*
X87602300Y-54822100D01*
X87331600Y-67862400D02*
X87249000Y-67945000D01*
D50*
%TO.N,VBUS*%
X102470800Y-53196400D02*
X100655200Y-55012000D01*
X103634023Y-49322400D02*
X106192400Y-49322400D01*
X95930800Y-56586800D02*
X96472000Y-56045600D01*
X107170800Y-50300800D02*
X107170800Y-51153200D01*
X106212300Y-55977200D02*
X107614800Y-55977200D01*
X97267600Y-62378000D02*
X96286400Y-62378000D01*
X95930800Y-62022400D02*
X95930800Y-56586800D01*
X106192400Y-49322400D02*
X107170800Y-50300800D01*
X99418400Y-55012000D02*
X99418400Y-56045600D01*
X107170800Y-52739200D02*
X107170800Y-51153200D01*
X96286400Y-62378000D02*
X95930800Y-62022400D01*
X102470800Y-51153200D02*
X102470800Y-50485623D01*
X100655200Y-55012000D02*
X99418400Y-55012000D01*
X102470800Y-50485623D02*
X103634023Y-49322400D01*
X108173600Y-55418400D02*
X108173600Y-53742000D01*
X102470800Y-51153200D02*
X102470800Y-53196400D01*
X99418400Y-56045600D02*
X99418400Y-57387900D01*
X107614800Y-55977200D02*
X108173600Y-55418400D01*
X108173600Y-53742000D02*
X107170800Y-52739200D01*
X99418400Y-57387900D02*
X99355900Y-57450400D01*
X96472000Y-56045600D02*
X99418400Y-56045600D01*
D52*
%TO.N,+3V3*%
X84653200Y-77805200D02*
X83942000Y-78516400D01*
D53*
X99216800Y-69845600D02*
X99572400Y-69845600D01*
D52*
X87574200Y-74985800D02*
X86837600Y-75722400D01*
D50*
X104775000Y-139700000D02*
X106408000Y-139700000D01*
D53*
X99572400Y-69845600D02*
X100457000Y-68961000D01*
D52*
X84891200Y-72302800D02*
X87574200Y-74985800D01*
D50*
X106408000Y-139700000D02*
X106413000Y-139695000D01*
X105304500Y-122660500D02*
X105304500Y-122787500D01*
X103320800Y-61147200D02*
X103820800Y-61147200D01*
X105304500Y-122787500D02*
X104648000Y-123444000D01*
X89631600Y-65562000D02*
X89631600Y-71862000D01*
D53*
X103906400Y-77109400D02*
X103886000Y-77089000D01*
D52*
X89631600Y-72928400D02*
X87574200Y-74985800D01*
D50*
X104648000Y-123444000D02*
X104521000Y-123571000D01*
X104521000Y-123571000D02*
X104521000Y-125349000D01*
X103195200Y-59888800D02*
X103320800Y-60014400D01*
D52*
X86931600Y-77805200D02*
X84653200Y-77805200D01*
D50*
X103320800Y-60014400D02*
X103320800Y-61147200D01*
D53*
X104854600Y-68961000D02*
X104871600Y-68944000D01*
D52*
X83992800Y-72302800D02*
X84891200Y-72302800D01*
X86837600Y-75722400D02*
X86837600Y-77711200D01*
X86837600Y-77711200D02*
X86931600Y-77805200D01*
X83942000Y-78516400D02*
X83942000Y-80272900D01*
D50*
X99305100Y-59888800D02*
X103195200Y-59888800D01*
D52*
X89631600Y-71862000D02*
X89631600Y-72928400D01*
D53*
X103906400Y-78837200D02*
X103906400Y-77109400D01*
D50*
X105304500Y-120396000D02*
X105304500Y-122660500D01*
D53*
X102743000Y-68961000D02*
X104854600Y-68961000D01*
D52*
%TO.N,Net-(D1-Pad2)*%
X91562000Y-54723200D02*
X91631600Y-54792800D01*
X91562000Y-48239600D02*
X91562000Y-54723200D01*
%TO.N,Net-(D3-Pad2)*%
X84043600Y-67973100D02*
X84043600Y-70252000D01*
X84043600Y-70252000D02*
X83992800Y-70302800D01*
D50*
%TO.N,Net-(D4-Pad2)*%
X98775600Y-78848900D02*
X101303900Y-78848900D01*
X101303900Y-78848900D02*
X101366400Y-78786400D01*
%TO.N,Net-(J2-PadA6)*%
X104785200Y-56927200D02*
X105074800Y-56637600D01*
X105074800Y-56637600D02*
X105070800Y-56633600D01*
X104570800Y-51153200D02*
X105070800Y-51153200D01*
X103937300Y-56927200D02*
X104785200Y-56927200D01*
X105070800Y-56633600D02*
X105070800Y-51153200D01*
%TO.N,Net-(J2-PadA7)*%
X103937300Y-54320700D02*
X103937300Y-55027200D01*
X104070800Y-51153200D02*
X104070800Y-54187200D01*
X104070800Y-54187200D02*
X103937300Y-54320700D01*
X104070800Y-50275600D02*
X104414400Y-49932000D01*
X104070800Y-51153200D02*
X104070800Y-50275600D01*
X104414400Y-49932000D02*
X105278000Y-49932000D01*
X105278000Y-49932000D02*
X105570800Y-50224800D01*
X105570800Y-50224800D02*
X105570800Y-51153200D01*
%TO.N,D14*%
X107396200Y-125725000D02*
X107899200Y-125222000D01*
X107899200Y-125222000D02*
X107899200Y-122428000D01*
X106413000Y-125725000D02*
X107396200Y-125725000D01*
X106984800Y-112877600D02*
X105867200Y-111760000D01*
X106984800Y-121513600D02*
X106984800Y-112877600D01*
X105867200Y-111760000D02*
X104140000Y-111760000D01*
X107899200Y-122428000D02*
X106984800Y-121513600D01*
%TO.N,D13*%
X102103000Y-117607000D02*
X102103000Y-123205000D01*
X102870000Y-116840000D02*
X102103000Y-117607000D01*
X104140000Y-116840000D02*
X102870000Y-116840000D01*
%TO.N,D12*%
X106413000Y-116573000D02*
X106413000Y-124455000D01*
X104140000Y-114300000D02*
X106413000Y-116573000D01*
%TO.N,D5*%
X92659200Y-129489200D02*
X92613400Y-129535000D01*
X92613400Y-129535000D02*
X88913000Y-129535000D01*
%TO.N,D4*%
X90119200Y-122580400D02*
X90678000Y-123139200D01*
X90378200Y-125725000D02*
X88913000Y-125725000D01*
X90678000Y-123139200D02*
X90678000Y-125425200D01*
X90119200Y-115620800D02*
X90119200Y-122580400D01*
X91440000Y-114300000D02*
X90119200Y-115620800D01*
X90678000Y-125425200D02*
X90378200Y-125725000D01*
%TO.N,D19*%
X93726000Y-132080000D02*
X93721000Y-132075000D01*
X93721000Y-132075000D02*
X88913000Y-132075000D01*
%TO.N,D18*%
X92760800Y-130810000D02*
X92755800Y-130805000D01*
X92755800Y-130805000D02*
X88913000Y-130805000D01*
%TO.N,D17*%
X92151200Y-128270000D02*
X92146200Y-128265000D01*
X92146200Y-128265000D02*
X88913000Y-128265000D01*
%TO.N,D16*%
X90322400Y-127000000D02*
X90317400Y-126995000D01*
X90317400Y-126995000D02*
X88913000Y-126995000D01*
X90779600Y-126542800D02*
X90322400Y-127000000D01*
%TO.N,D15*%
X93213000Y-123195000D02*
X93213000Y-121407000D01*
X92583000Y-120777000D02*
X91567000Y-120777000D01*
X93213000Y-123205000D02*
X93213000Y-123195000D01*
X93213000Y-121407000D02*
X92583000Y-120777000D01*
%TO.N,D26*%
X106413000Y-128265000D02*
X103078200Y-128265000D01*
X103078200Y-128265000D02*
X103073200Y-128270000D01*
%TO.N,D25*%
X106413000Y-129535000D02*
X103129000Y-129535000D01*
X103129000Y-129535000D02*
X103124000Y-129540000D01*
%TO.N,D23*%
X88913000Y-139695000D02*
X95458200Y-139695000D01*
X95458200Y-139695000D02*
X95504000Y-139649200D01*
%TO.N,D22*%
X88913000Y-138425000D02*
X88945800Y-138425000D01*
X95229700Y-138425000D02*
X95234700Y-138430000D01*
X88945800Y-138425000D02*
X95229700Y-138425000D01*
%TO.N,D21*%
X94137400Y-134615000D02*
X88913000Y-134615000D01*
X94183200Y-134569200D02*
X94137400Y-134615000D01*
%TO.N,D34*%
X106413000Y-134615000D02*
X101249400Y-134615000D01*
%TO.N,D35*%
X106413000Y-133345000D02*
X102316200Y-133345000D01*
X102316200Y-133345000D02*
X102311200Y-133350000D01*
%TO.N,D32*%
X102468600Y-132075000D02*
X102463600Y-132080000D01*
X106413000Y-132075000D02*
X102468600Y-132075000D01*
%TO.N,D33*%
X102773400Y-130805000D02*
X102768400Y-130810000D01*
X106413000Y-130805000D02*
X102773400Y-130805000D01*
%TO.N,D27*%
X103027400Y-126995000D02*
X103022400Y-127000000D01*
X106413000Y-126995000D02*
X103027400Y-126995000D01*
%TO.N,Net-(JP1-Pad1)*%
X108326000Y-62057200D02*
X108834000Y-61549200D01*
X108326000Y-62717600D02*
X108326000Y-62108000D01*
X111424800Y-69220000D02*
X112339200Y-70134400D01*
X109951600Y-69220000D02*
X111424800Y-69220000D01*
X112339200Y-70134400D02*
X112339200Y-71211600D01*
X107270800Y-63097200D02*
X107946400Y-63097200D01*
X108834000Y-61549200D02*
X109088000Y-61549200D01*
X108224400Y-62819200D02*
X108326000Y-62717600D01*
X108326000Y-62108000D02*
X108326000Y-62057200D01*
X107946400Y-63097200D02*
X108224400Y-62819200D01*
%TO.N,RXD0*%
X95123000Y-135255000D02*
X95123000Y-129413000D01*
X88913000Y-135885000D02*
X94493000Y-135885000D01*
X112339200Y-73842800D02*
X112390000Y-73893600D01*
X112339200Y-72511600D02*
X112339200Y-73842800D01*
X96774000Y-127762000D02*
X97536000Y-127762000D01*
X94493000Y-135885000D02*
X95123000Y-135255000D01*
X95123000Y-129413000D02*
X96774000Y-127762000D01*
%TO.N,Net-(JP2-Pad1)*%
X109088000Y-71059200D02*
X109240400Y-71211600D01*
X108411600Y-63597200D02*
X109088000Y-62920800D01*
X107270800Y-63597200D02*
X108411600Y-63597200D01*
X109088000Y-64902000D02*
X109088000Y-71059200D01*
%TO.N,TXD0*%
X109240400Y-72511600D02*
X109240400Y-73842800D01*
X88913000Y-137155000D02*
X94874000Y-137155000D01*
X95758000Y-136271000D02*
X95758000Y-130175000D01*
X94874000Y-137155000D02*
X95758000Y-136271000D01*
X95758000Y-130175000D02*
X96774000Y-129159000D01*
%TO.N,RTS*%
X107270800Y-64097200D02*
X109146800Y-64097200D01*
X110728800Y-67685200D02*
X110728800Y-62716800D01*
X110728800Y-62716800D02*
X110628000Y-62616000D01*
X109146800Y-64097200D02*
X110628000Y-62616000D01*
%TO.N,DTR*%
X110830400Y-57779200D02*
X110830400Y-60060800D01*
X107270800Y-62097200D02*
X109139600Y-60228400D01*
X109139600Y-60228400D02*
X110662800Y-60228400D01*
X110830400Y-60060800D02*
X110662800Y-60228400D01*
%TO.N,Net-(R3-Pad2)*%
X99267600Y-62378000D02*
X99267600Y-64867200D01*
X102370800Y-62097200D02*
X99548400Y-62097200D01*
X99548400Y-62097200D02*
X99267600Y-62378000D01*
%TO.N,Net-(R5-Pad1)*%
X97216800Y-69845600D02*
X97216800Y-67305600D01*
%TO.N,Net-(R6-Pad1)*%
X100604400Y-67000800D02*
X100299600Y-67305600D01*
X102370800Y-62597200D02*
X101096400Y-62597200D01*
X101096400Y-62597200D02*
X100604400Y-63089200D01*
X100299600Y-67305600D02*
X99216800Y-67305600D01*
X100604400Y-63089200D02*
X100604400Y-67000800D01*
%TO.N,Net-(R7-Pad2)*%
X101518800Y-63597200D02*
X102370800Y-63597200D01*
X101214000Y-70337600D02*
X101214000Y-63902000D01*
X99216800Y-72334800D02*
X101214000Y-70337600D01*
X101214000Y-63902000D02*
X101518800Y-63597200D01*
%TO.N,D2*%
X101366400Y-82682000D02*
X100807600Y-83240800D01*
X89662000Y-112776000D02*
X89916000Y-113030000D01*
X90114200Y-83240800D02*
X89662000Y-83693000D01*
X93599000Y-113538000D02*
X93599000Y-117475000D01*
X90678000Y-121940000D02*
X91943000Y-123205000D01*
X101366400Y-80786400D02*
X101366400Y-82682000D01*
X93091000Y-113030000D02*
X93599000Y-113538000D01*
X89916000Y-113030000D02*
X93091000Y-113030000D01*
X100807600Y-83240800D02*
X90114200Y-83240800D01*
X92202000Y-118872000D02*
X91186000Y-118872000D01*
X90678000Y-119380000D02*
X90678000Y-121940000D01*
X93599000Y-117475000D02*
X92202000Y-118872000D01*
X91186000Y-118872000D02*
X90678000Y-119380000D01*
X89662000Y-83693000D02*
X89662000Y-112776000D01*
%TO.N,D+*%
X106212300Y-56927200D02*
X106212300Y-58395700D01*
X104820800Y-59787200D02*
X104820800Y-61147200D01*
X106212300Y-58395700D02*
X104820800Y-59787200D01*
%TO.N,D-*%
X106212300Y-55027200D02*
X107431900Y-55027200D01*
X104320800Y-58763200D02*
X104363600Y-58720400D01*
X104320800Y-61147200D02*
X104320800Y-58763200D01*
X107431900Y-55027200D02*
X107447100Y-55012000D01*
%TD*%
M02*
