G04 #@! TF.GenerationSoftware,KiCad,Pcbnew,(5.1.4-0-10_14)*
G04 #@! TF.CreationDate,2021-03-24T14:33:32+01:00*
G04 #@! TF.ProjectId,Display7447,44697370-6c61-4793-9734-34372e6b6963,rev?*
G04 #@! TF.SameCoordinates,Original*
G04 #@! TF.FileFunction,Other,ECO1*
%FSLAX46Y46*%
G04 Gerber Fmt 4.6, Leading zero omitted, Abs format (unit mm)*
G04 Created by KiCad (PCBNEW (5.1.4-0-10_14)) date 2021-03-24 14:33:32*
%MOMM*%
%LPD*%
G04 APERTURE LIST*
%ADD10C,0.150000*%
G04 APERTURE END LIST*
D10*
X71304285Y-35068333D02*
X70637619Y-35068333D01*
X71685238Y-34830238D02*
X70970952Y-34592142D01*
X70970952Y-35211190D01*
X71637619Y-35782619D02*
X71637619Y-35877857D01*
X71590000Y-35973095D01*
X71542380Y-36020714D01*
X71447142Y-36068333D01*
X71256666Y-36115952D01*
X71018571Y-36115952D01*
X70828095Y-36068333D01*
X70732857Y-36020714D01*
X70685238Y-35973095D01*
X70637619Y-35877857D01*
X70637619Y-35782619D01*
X70685238Y-35687380D01*
X70732857Y-35639761D01*
X70828095Y-35592142D01*
X71018571Y-35544523D01*
X71256666Y-35544523D01*
X71447142Y-35592142D01*
X71542380Y-35639761D01*
X71590000Y-35687380D01*
X71637619Y-35782619D01*
X70732857Y-36544523D02*
X70685238Y-36592142D01*
X70637619Y-36544523D01*
X70685238Y-36496904D01*
X70732857Y-36544523D01*
X70637619Y-36544523D01*
X71209047Y-37163571D02*
X71256666Y-37068333D01*
X71304285Y-37020714D01*
X71399523Y-36973095D01*
X71447142Y-36973095D01*
X71542380Y-37020714D01*
X71590000Y-37068333D01*
X71637619Y-37163571D01*
X71637619Y-37354047D01*
X71590000Y-37449285D01*
X71542380Y-37496904D01*
X71447142Y-37544523D01*
X71399523Y-37544523D01*
X71304285Y-37496904D01*
X71256666Y-37449285D01*
X71209047Y-37354047D01*
X71209047Y-37163571D01*
X71161428Y-37068333D01*
X71113809Y-37020714D01*
X71018571Y-36973095D01*
X70828095Y-36973095D01*
X70732857Y-37020714D01*
X70685238Y-37068333D01*
X70637619Y-37163571D01*
X70637619Y-37354047D01*
X70685238Y-37449285D01*
X70732857Y-37496904D01*
X70828095Y-37544523D01*
X71018571Y-37544523D01*
X71113809Y-37496904D01*
X71161428Y-37449285D01*
X71209047Y-37354047D01*
X70637619Y-38020714D02*
X70637619Y-38211190D01*
X70685238Y-38306428D01*
X70732857Y-38354047D01*
X70875714Y-38449285D01*
X71066190Y-38496904D01*
X71447142Y-38496904D01*
X71542380Y-38449285D01*
X71590000Y-38401666D01*
X71637619Y-38306428D01*
X71637619Y-38115952D01*
X71590000Y-38020714D01*
X71542380Y-37973095D01*
X71447142Y-37925476D01*
X71209047Y-37925476D01*
X71113809Y-37973095D01*
X71066190Y-38020714D01*
X71018571Y-38115952D01*
X71018571Y-38306428D01*
X71066190Y-38401666D01*
X71113809Y-38449285D01*
X71209047Y-38496904D01*
X71304285Y-39354047D02*
X70637619Y-39354047D01*
X71685238Y-39115952D02*
X70970952Y-38877857D01*
X70970952Y-39496904D01*
X70637619Y-40639761D02*
X71304285Y-40639761D01*
X71209047Y-40639761D02*
X71256666Y-40687380D01*
X71304285Y-40782619D01*
X71304285Y-40925476D01*
X71256666Y-41020714D01*
X71161428Y-41068333D01*
X70637619Y-41068333D01*
X71161428Y-41068333D02*
X71256666Y-41115952D01*
X71304285Y-41211190D01*
X71304285Y-41354047D01*
X71256666Y-41449285D01*
X71161428Y-41496904D01*
X70637619Y-41496904D01*
X70637619Y-41973095D02*
X71304285Y-41973095D01*
X71209047Y-41973095D02*
X71256666Y-42020714D01*
X71304285Y-42115952D01*
X71304285Y-42258809D01*
X71256666Y-42354047D01*
X71161428Y-42401666D01*
X70637619Y-42401666D01*
X71161428Y-42401666D02*
X71256666Y-42449285D01*
X71304285Y-42544523D01*
X71304285Y-42687380D01*
X71256666Y-42782619D01*
X71161428Y-42830238D01*
X70637619Y-42830238D01*
X72390000Y-18288000D02*
X72390000Y-59182000D01*
X75184000Y-18288000D02*
X71803579Y-18288000D01*
X75184000Y-59182000D02*
X71803579Y-59182000D01*
X72390000Y-59182000D02*
X71803579Y-58055496D01*
X72390000Y-59182000D02*
X72976421Y-58055496D01*
X72390000Y-18288000D02*
X71803579Y-19414504D01*
X72390000Y-18288000D02*
X72976421Y-19414504D01*
X116316619Y-12804952D02*
X116221380Y-12757333D01*
X116173761Y-12709714D01*
X116126142Y-12614476D01*
X116126142Y-12566857D01*
X116173761Y-12471619D01*
X116221380Y-12424000D01*
X116316619Y-12376380D01*
X116507095Y-12376380D01*
X116602333Y-12424000D01*
X116649952Y-12471619D01*
X116697571Y-12566857D01*
X116697571Y-12614476D01*
X116649952Y-12709714D01*
X116602333Y-12757333D01*
X116507095Y-12804952D01*
X116316619Y-12804952D01*
X116221380Y-12852571D01*
X116173761Y-12900190D01*
X116126142Y-12995428D01*
X116126142Y-13185904D01*
X116173761Y-13281142D01*
X116221380Y-13328761D01*
X116316619Y-13376380D01*
X116507095Y-13376380D01*
X116602333Y-13328761D01*
X116649952Y-13281142D01*
X116697571Y-13185904D01*
X116697571Y-12995428D01*
X116649952Y-12900190D01*
X116602333Y-12852571D01*
X116507095Y-12804952D01*
X117078523Y-12471619D02*
X117126142Y-12424000D01*
X117221380Y-12376380D01*
X117459476Y-12376380D01*
X117554714Y-12424000D01*
X117602333Y-12471619D01*
X117649952Y-12566857D01*
X117649952Y-12662095D01*
X117602333Y-12804952D01*
X117030904Y-13376380D01*
X117649952Y-13376380D01*
X118078523Y-13281142D02*
X118126142Y-13328761D01*
X118078523Y-13376380D01*
X118030904Y-13328761D01*
X118078523Y-13281142D01*
X118078523Y-13376380D01*
X118745190Y-12376380D02*
X118840428Y-12376380D01*
X118935666Y-12424000D01*
X118983285Y-12471619D01*
X119030904Y-12566857D01*
X119078523Y-12757333D01*
X119078523Y-12995428D01*
X119030904Y-13185904D01*
X118983285Y-13281142D01*
X118935666Y-13328761D01*
X118840428Y-13376380D01*
X118745190Y-13376380D01*
X118649952Y-13328761D01*
X118602333Y-13281142D01*
X118554714Y-13185904D01*
X118507095Y-12995428D01*
X118507095Y-12757333D01*
X118554714Y-12566857D01*
X118602333Y-12471619D01*
X118649952Y-12424000D01*
X118745190Y-12376380D01*
X119935666Y-12709714D02*
X119935666Y-13376380D01*
X119697571Y-12328761D02*
X119459476Y-13043047D01*
X120078523Y-13043047D01*
X120411857Y-12471619D02*
X120459476Y-12424000D01*
X120554714Y-12376380D01*
X120792809Y-12376380D01*
X120888047Y-12424000D01*
X120935666Y-12471619D01*
X120983285Y-12566857D01*
X120983285Y-12662095D01*
X120935666Y-12804952D01*
X120364238Y-13376380D01*
X120983285Y-13376380D01*
X122173761Y-13376380D02*
X122173761Y-12709714D01*
X122173761Y-12804952D02*
X122221380Y-12757333D01*
X122316619Y-12709714D01*
X122459476Y-12709714D01*
X122554714Y-12757333D01*
X122602333Y-12852571D01*
X122602333Y-13376380D01*
X122602333Y-12852571D02*
X122649952Y-12757333D01*
X122745190Y-12709714D01*
X122888047Y-12709714D01*
X122983285Y-12757333D01*
X123030904Y-12852571D01*
X123030904Y-13376380D01*
X123507095Y-13376380D02*
X123507095Y-12709714D01*
X123507095Y-12804952D02*
X123554714Y-12757333D01*
X123649952Y-12709714D01*
X123792809Y-12709714D01*
X123888047Y-12757333D01*
X123935666Y-12852571D01*
X123935666Y-13376380D01*
X123935666Y-12852571D02*
X123983285Y-12757333D01*
X124078523Y-12709714D01*
X124221380Y-12709714D01*
X124316619Y-12757333D01*
X124364238Y-12852571D01*
X124364238Y-13376380D01*
X161290000Y-14224000D02*
X79248000Y-14224000D01*
X161290000Y-15494000D02*
X161290000Y-13637579D01*
X79248000Y-15494000D02*
X79248000Y-13637579D01*
X79248000Y-14224000D02*
X80374504Y-13637579D01*
X79248000Y-14224000D02*
X80374504Y-14810421D01*
X161290000Y-14224000D02*
X160163496Y-13637579D01*
X161290000Y-14224000D02*
X160163496Y-14810421D01*
M02*
