M48
; DRILL file {KiCad (5.1.4-0-10_14)} date 2021 March 24, Wednesday 14:33:28
; FORMAT={-:-/ absolute / metric / decimal}
; #@! TF.CreationDate,2021-03-24T14:33:28+01:00
; #@! TF.GenerationSoftware,Kicad,Pcbnew,(5.1.4-0-10_14)
; #@! TF.FileFunction,Plated,1,2,PTH
FMAT,2
METRIC
T1C0.700
T2C0.750
T3C0.762
T4C0.800
T5C0.900
T6C1.000
%
G90
G05
T1
X105.156Y-48.26
X112.776Y-48.26
X125.222Y-46.482
X125.222Y-54.102
X128.27Y-24.13
X135.89Y-24.13
X100.584Y-42.672
X138.176Y-46.482
X100.584Y-45.212
X108.204Y-45.212
X138.176Y-54.102
X150.622Y-46.482
X150.622Y-54.102
X100.584Y-40.132
X100.584Y-29.972
X108.204Y-29.972
X100.584Y-32.512
X108.204Y-32.512
X108.204Y-40.132
X108.204Y-42.672
X100.584Y-35.052
X108.204Y-35.052
X100.584Y-37.592
X108.204Y-37.592
T2
X143.256Y-46.99
X143.256Y-48.26
X143.256Y-49.53
X155.702Y-46.99
X155.702Y-48.26
X155.702Y-49.53
X130.302Y-46.99
X130.302Y-48.26
X130.302Y-49.53
X117.094Y-46.99
X117.094Y-48.26
X117.094Y-49.53
T3
X113.03Y-31.75
X113.03Y-34.29
X113.03Y-36.83
X113.03Y-39.37
X113.03Y-41.91
X120.65Y-31.75
X120.65Y-34.29
X120.65Y-36.83
X120.65Y-39.37
X120.65Y-41.91
X125.73Y-31.75
X125.73Y-34.29
X125.73Y-36.83
X125.73Y-39.37
X125.73Y-41.91
X133.35Y-31.75
X133.35Y-34.29
X158.75Y-39.37
X146.05Y-31.75
X146.05Y-34.29
X146.05Y-36.83
X133.35Y-36.83
X133.35Y-39.37
X133.35Y-41.91
X151.13Y-31.75
X151.13Y-34.29
X151.13Y-36.83
X151.13Y-39.37
X151.13Y-41.91
X158.75Y-41.91
X138.43Y-31.75
X158.75Y-34.29
X158.75Y-36.83
X138.43Y-34.29
X138.43Y-36.83
X138.43Y-39.37
X138.43Y-41.91
X146.05Y-39.37
X146.05Y-41.91
X158.75Y-31.75
T4
X90.718Y-23.622
X93.218Y-23.622
X88.138Y-27.432
X88.138Y-29.972
X88.138Y-32.512
X88.138Y-35.052
X88.138Y-37.592
X88.138Y-40.132
X88.138Y-42.672
X88.138Y-45.212
X95.758Y-27.432
X95.758Y-29.972
X95.758Y-32.512
X95.758Y-35.052
X95.758Y-37.592
X95.758Y-40.132
X95.758Y-42.672
X95.758Y-45.212
T5
X139.446Y-24.13
X141.986Y-24.13
T6
X100.33Y-54.356
X81.788Y-40.64
X81.788Y-43.18
X81.788Y-45.72
X81.788Y-48.26
X91.694Y-54.356
X94.234Y-54.356
X81.788Y-27.686
X81.788Y-30.226
X81.788Y-32.766
X81.788Y-35.306
X102.87Y-54.356
X147.574Y-22.606
X150.114Y-22.606
T0
M30
