G04 #@! TF.GenerationSoftware,KiCad,Pcbnew,(5.1.4-0-10_14)*
G04 #@! TF.CreationDate,2021-03-24T14:33:32+01:00*
G04 #@! TF.ProjectId,Display7447,44697370-6c61-4793-9734-34372e6b6963,rev?*
G04 #@! TF.SameCoordinates,Original*
G04 #@! TF.FileFunction,Legend,Top*
G04 #@! TF.FilePolarity,Positive*
%FSLAX46Y46*%
G04 Gerber Fmt 4.6, Leading zero omitted, Abs format (unit mm)*
G04 Created by KiCad (PCBNEW (5.1.4-0-10_14)) date 2021-03-24 14:33:32*
%MOMM*%
%LPD*%
G04 APERTURE LIST*
%ADD10C,0.120000*%
%ADD11C,0.150000*%
G04 APERTURE END LIST*
D10*
X101600000Y-25400000D02*
X101600000Y-21590000D01*
X121920000Y-25400000D02*
X101600000Y-25400000D01*
X121920000Y-21590000D02*
X121920000Y-25400000D01*
X101600000Y-21590000D02*
X121920000Y-21590000D01*
D11*
X102577428Y-22328714D02*
X102577428Y-22995380D01*
X102339333Y-21947761D02*
X102101238Y-22662047D01*
X102720285Y-22662047D01*
X103101238Y-22995380D02*
X103101238Y-21995380D01*
X103339333Y-21995380D01*
X103482190Y-22043000D01*
X103577428Y-22138238D01*
X103625047Y-22233476D01*
X103672666Y-22423952D01*
X103672666Y-22566809D01*
X103625047Y-22757285D01*
X103577428Y-22852523D01*
X103482190Y-22947761D01*
X103339333Y-22995380D01*
X103101238Y-22995380D01*
X104101238Y-22995380D02*
X104101238Y-22328714D01*
X104101238Y-21995380D02*
X104053619Y-22043000D01*
X104101238Y-22090619D01*
X104148857Y-22043000D01*
X104101238Y-21995380D01*
X104101238Y-22090619D01*
X105006000Y-22328714D02*
X105006000Y-23138238D01*
X104958380Y-23233476D01*
X104910761Y-23281095D01*
X104815523Y-23328714D01*
X104672666Y-23328714D01*
X104577428Y-23281095D01*
X105006000Y-22947761D02*
X104910761Y-22995380D01*
X104720285Y-22995380D01*
X104625047Y-22947761D01*
X104577428Y-22900142D01*
X104529809Y-22804904D01*
X104529809Y-22519190D01*
X104577428Y-22423952D01*
X104625047Y-22376333D01*
X104720285Y-22328714D01*
X104910761Y-22328714D01*
X105006000Y-22376333D01*
X105482190Y-22995380D02*
X105482190Y-22328714D01*
X105482190Y-21995380D02*
X105434571Y-22043000D01*
X105482190Y-22090619D01*
X105529809Y-22043000D01*
X105482190Y-21995380D01*
X105482190Y-22090619D01*
X105815523Y-22328714D02*
X106196476Y-22328714D01*
X105958380Y-21995380D02*
X105958380Y-22852523D01*
X106006000Y-22947761D01*
X106101238Y-22995380D01*
X106196476Y-22995380D01*
X107291714Y-22614428D02*
X108053619Y-22614428D01*
X109625047Y-22471571D02*
X109767904Y-22519190D01*
X109815523Y-22566809D01*
X109863142Y-22662047D01*
X109863142Y-22804904D01*
X109815523Y-22900142D01*
X109767904Y-22947761D01*
X109672666Y-22995380D01*
X109291714Y-22995380D01*
X109291714Y-21995380D01*
X109625047Y-21995380D01*
X109720285Y-22043000D01*
X109767904Y-22090619D01*
X109815523Y-22185857D01*
X109815523Y-22281095D01*
X109767904Y-22376333D01*
X109720285Y-22423952D01*
X109625047Y-22471571D01*
X109291714Y-22471571D01*
X110434571Y-22995380D02*
X110339333Y-22947761D01*
X110291714Y-22900142D01*
X110244095Y-22804904D01*
X110244095Y-22519190D01*
X110291714Y-22423952D01*
X110339333Y-22376333D01*
X110434571Y-22328714D01*
X110577428Y-22328714D01*
X110672666Y-22376333D01*
X110720285Y-22423952D01*
X110767904Y-22519190D01*
X110767904Y-22804904D01*
X110720285Y-22900142D01*
X110672666Y-22947761D01*
X110577428Y-22995380D01*
X110434571Y-22995380D01*
X111625047Y-22995380D02*
X111625047Y-22471571D01*
X111577428Y-22376333D01*
X111482190Y-22328714D01*
X111291714Y-22328714D01*
X111196476Y-22376333D01*
X111625047Y-22947761D02*
X111529809Y-22995380D01*
X111291714Y-22995380D01*
X111196476Y-22947761D01*
X111148857Y-22852523D01*
X111148857Y-22757285D01*
X111196476Y-22662047D01*
X111291714Y-22614428D01*
X111529809Y-22614428D01*
X111625047Y-22566809D01*
X112101238Y-22995380D02*
X112101238Y-22328714D01*
X112101238Y-22519190D02*
X112148857Y-22423952D01*
X112196476Y-22376333D01*
X112291714Y-22328714D01*
X112386952Y-22328714D01*
X113148857Y-22995380D02*
X113148857Y-21995380D01*
X113148857Y-22947761D02*
X113053619Y-22995380D01*
X112863142Y-22995380D01*
X112767904Y-22947761D01*
X112720285Y-22900142D01*
X112672666Y-22804904D01*
X112672666Y-22519190D01*
X112720285Y-22423952D01*
X112767904Y-22376333D01*
X112863142Y-22328714D01*
X113053619Y-22328714D01*
X113148857Y-22376333D01*
X114386952Y-22614428D02*
X115148857Y-22614428D01*
X116291714Y-21995380D02*
X116958380Y-21995380D01*
X116291714Y-22995380D01*
X116958380Y-22995380D01*
X117339333Y-22995380D02*
X117339333Y-21995380D01*
X117672666Y-22709666D01*
X118006000Y-21995380D01*
X118006000Y-22995380D01*
X118672666Y-21995380D02*
X118767904Y-21995380D01*
X118863142Y-22043000D01*
X118910761Y-22090619D01*
X118958380Y-22185857D01*
X119006000Y-22376333D01*
X119006000Y-22614428D01*
X118958380Y-22804904D01*
X118910761Y-22900142D01*
X118863142Y-22947761D01*
X118767904Y-22995380D01*
X118672666Y-22995380D01*
X118577428Y-22947761D01*
X118529809Y-22900142D01*
X118482190Y-22804904D01*
X118434571Y-22614428D01*
X118434571Y-22376333D01*
X118482190Y-22185857D01*
X118529809Y-22090619D01*
X118577428Y-22043000D01*
X118672666Y-21995380D01*
X119625047Y-21995380D02*
X119720285Y-21995380D01*
X119815523Y-22043000D01*
X119863142Y-22090619D01*
X119910761Y-22185857D01*
X119958380Y-22376333D01*
X119958380Y-22614428D01*
X119910761Y-22804904D01*
X119863142Y-22900142D01*
X119815523Y-22947761D01*
X119720285Y-22995380D01*
X119625047Y-22995380D01*
X119529809Y-22947761D01*
X119482190Y-22900142D01*
X119434571Y-22804904D01*
X119386952Y-22614428D01*
X119386952Y-22376333D01*
X119434571Y-22185857D01*
X119482190Y-22090619D01*
X119529809Y-22043000D01*
X119625047Y-21995380D01*
X120291714Y-21995380D02*
X120910761Y-21995380D01*
X120577428Y-22376333D01*
X120720285Y-22376333D01*
X120815523Y-22423952D01*
X120863142Y-22471571D01*
X120910761Y-22566809D01*
X120910761Y-22804904D01*
X120863142Y-22900142D01*
X120815523Y-22947761D01*
X120720285Y-22995380D01*
X120434571Y-22995380D01*
X120339333Y-22947761D01*
X120291714Y-22900142D01*
X103696476Y-23978714D02*
X103886952Y-24645380D01*
X104077428Y-24169190D01*
X104267904Y-24645380D01*
X104458380Y-23978714D01*
X104744095Y-23978714D02*
X104934571Y-24645380D01*
X105125047Y-24169190D01*
X105315523Y-24645380D01*
X105506000Y-23978714D01*
X105791714Y-23978714D02*
X105982190Y-24645380D01*
X106172666Y-24169190D01*
X106363142Y-24645380D01*
X106553619Y-23978714D01*
X106934571Y-24550142D02*
X106982190Y-24597761D01*
X106934571Y-24645380D01*
X106886952Y-24597761D01*
X106934571Y-24550142D01*
X106934571Y-24645380D01*
X107315523Y-23978714D02*
X107839333Y-23978714D01*
X107315523Y-24645380D01*
X107839333Y-24645380D01*
X108601238Y-24597761D02*
X108506000Y-24645380D01*
X108315523Y-24645380D01*
X108220285Y-24597761D01*
X108172666Y-24502523D01*
X108172666Y-24121571D01*
X108220285Y-24026333D01*
X108315523Y-23978714D01*
X108506000Y-23978714D01*
X108601238Y-24026333D01*
X108648857Y-24121571D01*
X108648857Y-24216809D01*
X108172666Y-24312047D01*
X109077428Y-23978714D02*
X109077428Y-24978714D01*
X109077428Y-24026333D02*
X109172666Y-23978714D01*
X109363142Y-23978714D01*
X109458380Y-24026333D01*
X109506000Y-24073952D01*
X109553619Y-24169190D01*
X109553619Y-24454904D01*
X109506000Y-24550142D01*
X109458380Y-24597761D01*
X109363142Y-24645380D01*
X109172666Y-24645380D01*
X109077428Y-24597761D01*
X109982190Y-23978714D02*
X109982190Y-24978714D01*
X109982190Y-24026333D02*
X110077428Y-23978714D01*
X110267904Y-23978714D01*
X110363142Y-24026333D01*
X110410761Y-24073952D01*
X110458380Y-24169190D01*
X110458380Y-24454904D01*
X110410761Y-24550142D01*
X110363142Y-24597761D01*
X110267904Y-24645380D01*
X110077428Y-24645380D01*
X109982190Y-24597761D01*
X111267904Y-24597761D02*
X111172666Y-24645380D01*
X110982190Y-24645380D01*
X110886952Y-24597761D01*
X110839333Y-24502523D01*
X110839333Y-24121571D01*
X110886952Y-24026333D01*
X110982190Y-23978714D01*
X111172666Y-23978714D01*
X111267904Y-24026333D01*
X111315523Y-24121571D01*
X111315523Y-24216809D01*
X110839333Y-24312047D01*
X111886952Y-24645380D02*
X111791714Y-24597761D01*
X111744095Y-24502523D01*
X111744095Y-23645380D01*
X112267904Y-24645380D02*
X112267904Y-23978714D01*
X112267904Y-23645380D02*
X112220285Y-23693000D01*
X112267904Y-23740619D01*
X112315523Y-23693000D01*
X112267904Y-23645380D01*
X112267904Y-23740619D01*
X112744095Y-23978714D02*
X112744095Y-24645380D01*
X112744095Y-24073952D02*
X112791714Y-24026333D01*
X112886952Y-23978714D01*
X113029809Y-23978714D01*
X113125047Y-24026333D01*
X113172666Y-24121571D01*
X113172666Y-24645380D01*
X113648857Y-24645380D02*
X113648857Y-23978714D01*
X113648857Y-24073952D02*
X113696476Y-24026333D01*
X113791714Y-23978714D01*
X113934571Y-23978714D01*
X114029809Y-24026333D01*
X114077428Y-24121571D01*
X114077428Y-24645380D01*
X114077428Y-24121571D02*
X114125047Y-24026333D01*
X114220285Y-23978714D01*
X114363142Y-23978714D01*
X114458380Y-24026333D01*
X114506000Y-24121571D01*
X114506000Y-24645380D01*
X115410761Y-24645380D02*
X115410761Y-24121571D01*
X115363142Y-24026333D01*
X115267904Y-23978714D01*
X115077428Y-23978714D01*
X114982190Y-24026333D01*
X115410761Y-24597761D02*
X115315523Y-24645380D01*
X115077428Y-24645380D01*
X114982190Y-24597761D01*
X114934571Y-24502523D01*
X114934571Y-24407285D01*
X114982190Y-24312047D01*
X115077428Y-24264428D01*
X115315523Y-24264428D01*
X115410761Y-24216809D01*
X115886952Y-24645380D02*
X115886952Y-23645380D01*
X115982190Y-24264428D02*
X116267904Y-24645380D01*
X116267904Y-23978714D02*
X115886952Y-24359666D01*
X117077428Y-24597761D02*
X116982190Y-24645380D01*
X116791714Y-24645380D01*
X116696476Y-24597761D01*
X116648857Y-24502523D01*
X116648857Y-24121571D01*
X116696476Y-24026333D01*
X116791714Y-23978714D01*
X116982190Y-23978714D01*
X117077428Y-24026333D01*
X117125047Y-24121571D01*
X117125047Y-24216809D01*
X116648857Y-24312047D01*
X117553619Y-24645380D02*
X117553619Y-23978714D01*
X117553619Y-24169190D02*
X117601238Y-24073952D01*
X117648857Y-24026333D01*
X117744095Y-23978714D01*
X117839333Y-23978714D01*
X118172666Y-24550142D02*
X118220285Y-24597761D01*
X118172666Y-24645380D01*
X118125047Y-24597761D01*
X118172666Y-24550142D01*
X118172666Y-24645380D01*
X118648857Y-24645380D02*
X118648857Y-23978714D01*
X118648857Y-23645380D02*
X118601238Y-23693000D01*
X118648857Y-23740619D01*
X118696476Y-23693000D01*
X118648857Y-23645380D01*
X118648857Y-23740619D01*
X118982190Y-23978714D02*
X119363142Y-23978714D01*
X119125047Y-23645380D02*
X119125047Y-24502523D01*
X119172666Y-24597761D01*
X119267904Y-24645380D01*
X119363142Y-24645380D01*
X84574095Y-28138380D02*
X84574095Y-27138380D01*
X84812190Y-27138380D01*
X84955047Y-27186000D01*
X85050285Y-27281238D01*
X85097904Y-27376476D01*
X85145523Y-27566952D01*
X85145523Y-27709809D01*
X85097904Y-27900285D01*
X85050285Y-27995523D01*
X84955047Y-28090761D01*
X84812190Y-28138380D01*
X84574095Y-28138380D01*
X85145523Y-30583142D02*
X85097904Y-30630761D01*
X84955047Y-30678380D01*
X84859809Y-30678380D01*
X84716952Y-30630761D01*
X84621714Y-30535523D01*
X84574095Y-30440285D01*
X84526476Y-30249809D01*
X84526476Y-30106952D01*
X84574095Y-29916476D01*
X84621714Y-29821238D01*
X84716952Y-29726000D01*
X84859809Y-29678380D01*
X84955047Y-29678380D01*
X85097904Y-29726000D01*
X85145523Y-29773619D01*
X84907428Y-32694571D02*
X85050285Y-32742190D01*
X85097904Y-32789809D01*
X85145523Y-32885047D01*
X85145523Y-33027904D01*
X85097904Y-33123142D01*
X85050285Y-33170761D01*
X84955047Y-33218380D01*
X84574095Y-33218380D01*
X84574095Y-32218380D01*
X84907428Y-32218380D01*
X85002666Y-32266000D01*
X85050285Y-32313619D01*
X85097904Y-32408857D01*
X85097904Y-32504095D01*
X85050285Y-32599333D01*
X85002666Y-32646952D01*
X84907428Y-32694571D01*
X84574095Y-32694571D01*
X84597904Y-35726666D02*
X85074095Y-35726666D01*
X84502666Y-36012380D02*
X84836000Y-35012380D01*
X85169333Y-36012380D01*
X84097904Y-48966380D02*
X84097904Y-47966380D01*
X84336000Y-47966380D01*
X84478857Y-48014000D01*
X84574095Y-48109238D01*
X84621714Y-48204476D01*
X84669333Y-48394952D01*
X84669333Y-48537809D01*
X84621714Y-48728285D01*
X84574095Y-48823523D01*
X84478857Y-48918761D01*
X84336000Y-48966380D01*
X84097904Y-48966380D01*
X85526476Y-48299714D02*
X85526476Y-48966380D01*
X85288380Y-47918761D02*
X85050285Y-48633047D01*
X85669333Y-48633047D01*
X84097904Y-46426380D02*
X84097904Y-45426380D01*
X84336000Y-45426380D01*
X84478857Y-45474000D01*
X84574095Y-45569238D01*
X84621714Y-45664476D01*
X84669333Y-45854952D01*
X84669333Y-45997809D01*
X84621714Y-46188285D01*
X84574095Y-46283523D01*
X84478857Y-46378761D01*
X84336000Y-46426380D01*
X84097904Y-46426380D01*
X85002666Y-45426380D02*
X85621714Y-45426380D01*
X85288380Y-45807333D01*
X85431238Y-45807333D01*
X85526476Y-45854952D01*
X85574095Y-45902571D01*
X85621714Y-45997809D01*
X85621714Y-46235904D01*
X85574095Y-46331142D01*
X85526476Y-46378761D01*
X85431238Y-46426380D01*
X85145523Y-46426380D01*
X85050285Y-46378761D01*
X85002666Y-46331142D01*
X84097904Y-43632380D02*
X84097904Y-42632380D01*
X84336000Y-42632380D01*
X84478857Y-42680000D01*
X84574095Y-42775238D01*
X84621714Y-42870476D01*
X84669333Y-43060952D01*
X84669333Y-43203809D01*
X84621714Y-43394285D01*
X84574095Y-43489523D01*
X84478857Y-43584761D01*
X84336000Y-43632380D01*
X84097904Y-43632380D01*
X85050285Y-42727619D02*
X85097904Y-42680000D01*
X85193142Y-42632380D01*
X85431238Y-42632380D01*
X85526476Y-42680000D01*
X85574095Y-42727619D01*
X85621714Y-42822857D01*
X85621714Y-42918095D01*
X85574095Y-43060952D01*
X85002666Y-43632380D01*
X85621714Y-43632380D01*
X84097904Y-41092380D02*
X84097904Y-40092380D01*
X84336000Y-40092380D01*
X84478857Y-40140000D01*
X84574095Y-40235238D01*
X84621714Y-40330476D01*
X84669333Y-40520952D01*
X84669333Y-40663809D01*
X84621714Y-40854285D01*
X84574095Y-40949523D01*
X84478857Y-41044761D01*
X84336000Y-41092380D01*
X84097904Y-41092380D01*
X85621714Y-41092380D02*
X85050285Y-41092380D01*
X85336000Y-41092380D02*
X85336000Y-40092380D01*
X85240761Y-40235238D01*
X85145523Y-40330476D01*
X85050285Y-40378095D01*
X91011428Y-57856380D02*
X90678095Y-57380190D01*
X90440000Y-57856380D02*
X90440000Y-56856380D01*
X90820952Y-56856380D01*
X90916190Y-56904000D01*
X90963809Y-56951619D01*
X91011428Y-57046857D01*
X91011428Y-57189714D01*
X90963809Y-57284952D01*
X90916190Y-57332571D01*
X90820952Y-57380190D01*
X90440000Y-57380190D01*
X91773333Y-57332571D02*
X91916190Y-57380190D01*
X91963809Y-57427809D01*
X92011428Y-57523047D01*
X92011428Y-57665904D01*
X91963809Y-57761142D01*
X91916190Y-57808761D01*
X91820952Y-57856380D01*
X91440000Y-57856380D01*
X91440000Y-56856380D01*
X91773333Y-56856380D01*
X91868571Y-56904000D01*
X91916190Y-56951619D01*
X91963809Y-57046857D01*
X91963809Y-57142095D01*
X91916190Y-57237333D01*
X91868571Y-57284952D01*
X91773333Y-57332571D01*
X91440000Y-57332571D01*
X92440000Y-57856380D02*
X92440000Y-56856380D01*
X94321333Y-57332571D02*
X94464190Y-57380190D01*
X94511809Y-57427809D01*
X94559428Y-57523047D01*
X94559428Y-57665904D01*
X94511809Y-57761142D01*
X94464190Y-57808761D01*
X94368952Y-57856380D01*
X93988000Y-57856380D01*
X93988000Y-56856380D01*
X94321333Y-56856380D01*
X94416571Y-56904000D01*
X94464190Y-56951619D01*
X94511809Y-57046857D01*
X94511809Y-57142095D01*
X94464190Y-57237333D01*
X94416571Y-57284952D01*
X94321333Y-57332571D01*
X93988000Y-57332571D01*
X94988000Y-57856380D02*
X94988000Y-56856380D01*
X100409523Y-57856380D02*
X99933333Y-57856380D01*
X99933333Y-56856380D01*
X100600000Y-56856380D02*
X101171428Y-56856380D01*
X100885714Y-57856380D02*
X100885714Y-56856380D01*
X101885714Y-57808761D02*
X101790476Y-57856380D01*
X101600000Y-57856380D01*
X101504761Y-57808761D01*
X101457142Y-57713523D01*
X101457142Y-57332571D01*
X101504761Y-57237333D01*
X101600000Y-57189714D01*
X101790476Y-57189714D01*
X101885714Y-57237333D01*
X101933333Y-57332571D01*
X101933333Y-57427809D01*
X101457142Y-57523047D01*
X102314285Y-57808761D02*
X102409523Y-57856380D01*
X102600000Y-57856380D01*
X102695238Y-57808761D01*
X102742857Y-57713523D01*
X102742857Y-57665904D01*
X102695238Y-57570666D01*
X102600000Y-57523047D01*
X102457142Y-57523047D01*
X102361904Y-57475428D01*
X102314285Y-57380190D01*
X102314285Y-57332571D01*
X102361904Y-57237333D01*
X102457142Y-57189714D01*
X102600000Y-57189714D01*
X102695238Y-57237333D01*
X103028571Y-57189714D02*
X103409523Y-57189714D01*
X103171428Y-56856380D02*
X103171428Y-57713523D01*
X103219047Y-57808761D01*
X103314285Y-57856380D01*
X103409523Y-57856380D01*
X150177523Y-18756380D02*
X149701333Y-18756380D01*
X149653714Y-19232571D01*
X149701333Y-19184952D01*
X149796571Y-19137333D01*
X150034666Y-19137333D01*
X150129904Y-19184952D01*
X150177523Y-19232571D01*
X150225142Y-19327809D01*
X150225142Y-19565904D01*
X150177523Y-19661142D01*
X150129904Y-19708761D01*
X150034666Y-19756380D01*
X149796571Y-19756380D01*
X149701333Y-19708761D01*
X149653714Y-19661142D01*
X150510857Y-18756380D02*
X150844190Y-19756380D01*
X151177523Y-18756380D01*
X146050095Y-18804000D02*
X145954857Y-18756380D01*
X145812000Y-18756380D01*
X145669142Y-18804000D01*
X145573904Y-18899238D01*
X145526285Y-18994476D01*
X145478666Y-19184952D01*
X145478666Y-19327809D01*
X145526285Y-19518285D01*
X145573904Y-19613523D01*
X145669142Y-19708761D01*
X145812000Y-19756380D01*
X145907238Y-19756380D01*
X146050095Y-19708761D01*
X146097714Y-19661142D01*
X146097714Y-19327809D01*
X145907238Y-19327809D01*
X146526285Y-19756380D02*
X146526285Y-18756380D01*
X147097714Y-19756380D01*
X147097714Y-18756380D01*
X147573904Y-19756380D02*
X147573904Y-18756380D01*
X147812000Y-18756380D01*
X147954857Y-18804000D01*
X148050095Y-18899238D01*
X148097714Y-18994476D01*
X148145333Y-19184952D01*
X148145333Y-19327809D01*
X148097714Y-19518285D01*
X148050095Y-19613523D01*
X147954857Y-19708761D01*
X147812000Y-19756380D01*
X147573904Y-19756380D01*
D10*
X94588000Y-24992000D02*
X89348000Y-24992000D01*
X94588000Y-22252000D02*
X89348000Y-22252000D01*
X94588000Y-24992000D02*
X94588000Y-22252000D01*
X89348000Y-24992000D02*
X89348000Y-22252000D01*
X137726000Y-24129538D02*
G75*
G03X143276000Y-25674830I2990000J-462D01*
G01*
X137726000Y-24130462D02*
G75*
G02X143276000Y-22585170I2990000J462D01*
G01*
X143216000Y-24130000D02*
G75*
G03X143216000Y-24130000I-2500000J0D01*
G01*
X143276000Y-25675000D02*
X143276000Y-22585000D01*
X81788000Y-26356000D02*
X83118000Y-26356000D01*
X83118000Y-26356000D02*
X83118000Y-27686000D01*
X83118000Y-28956000D02*
X83118000Y-36636000D01*
X80458000Y-36636000D02*
X83118000Y-36636000D01*
X80458000Y-28956000D02*
X80458000Y-36636000D01*
X80458000Y-28956000D02*
X83118000Y-28956000D01*
X95564000Y-54356000D02*
X95564000Y-55686000D01*
X95564000Y-55686000D02*
X94234000Y-55686000D01*
X92964000Y-55686000D02*
X90364000Y-55686000D01*
X90364000Y-53026000D02*
X90364000Y-55686000D01*
X92964000Y-53026000D02*
X90364000Y-53026000D01*
X92964000Y-53026000D02*
X92964000Y-55686000D01*
X148844000Y-23936000D02*
X148844000Y-21276000D01*
X148844000Y-23936000D02*
X151444000Y-23936000D01*
X151444000Y-23936000D02*
X151444000Y-21276000D01*
X148844000Y-21276000D02*
X151444000Y-21276000D01*
X146244000Y-21276000D02*
X147574000Y-21276000D01*
X146244000Y-22606000D02*
X146244000Y-21276000D01*
X83118000Y-46990000D02*
X80458000Y-46990000D01*
X83118000Y-46990000D02*
X83118000Y-39310000D01*
X83118000Y-39310000D02*
X80458000Y-39310000D01*
X80458000Y-46990000D02*
X80458000Y-39310000D01*
X80458000Y-49590000D02*
X80458000Y-48260000D01*
X81788000Y-49590000D02*
X80458000Y-49590000D01*
X99000000Y-53026000D02*
X101600000Y-53026000D01*
X99000000Y-53026000D02*
X99000000Y-55686000D01*
X99000000Y-55686000D02*
X104200000Y-55686000D01*
X104200000Y-55626000D02*
X104200000Y-55686000D01*
X101600000Y-55626000D02*
X104200000Y-55626000D01*
X101600000Y-53026000D02*
X101600000Y-55626000D01*
X104200000Y-53026000D02*
X104200000Y-54356000D01*
X102870000Y-53026000D02*
X104200000Y-53026000D01*
X118944000Y-50060000D02*
X118944000Y-46460000D01*
X118932478Y-50098478D02*
G75*
G02X114494000Y-48260000I-1838478J1838478D01*
G01*
X118932478Y-46421522D02*
G75*
G03X114494000Y-48260000I-1838478J-1838478D01*
G01*
X132140478Y-46421522D02*
G75*
G03X127702000Y-48260000I-1838478J-1838478D01*
G01*
X132140478Y-50098478D02*
G75*
G02X127702000Y-48260000I-1838478J1838478D01*
G01*
X132152000Y-50060000D02*
X132152000Y-46460000D01*
X145106000Y-50060000D02*
X145106000Y-46460000D01*
X145094478Y-50098478D02*
G75*
G02X140656000Y-48260000I-1838478J1838478D01*
G01*
X145094478Y-46421522D02*
G75*
G03X140656000Y-48260000I-1838478J-1838478D01*
G01*
X157540478Y-46421522D02*
G75*
G03X153102000Y-48260000I-1838478J-1838478D01*
G01*
X157540478Y-50098478D02*
G75*
G02X153102000Y-48260000I-1838478J1838478D01*
G01*
X157552000Y-50060000D02*
X157552000Y-46460000D01*
X129210000Y-24130000D02*
X130160000Y-24130000D01*
X134950000Y-24130000D02*
X134000000Y-24130000D01*
X130160000Y-25050000D02*
X134000000Y-25050000D01*
X130160000Y-23210000D02*
X130160000Y-25050000D01*
X134000000Y-23210000D02*
X130160000Y-23210000D01*
X134000000Y-25050000D02*
X134000000Y-23210000D01*
X106314000Y-35972000D02*
X106314000Y-34132000D01*
X106314000Y-34132000D02*
X102474000Y-34132000D01*
X102474000Y-34132000D02*
X102474000Y-35972000D01*
X102474000Y-35972000D02*
X106314000Y-35972000D01*
X107264000Y-35052000D02*
X106314000Y-35052000D01*
X101524000Y-35052000D02*
X102474000Y-35052000D01*
X101524000Y-37592000D02*
X102474000Y-37592000D01*
X107264000Y-37592000D02*
X106314000Y-37592000D01*
X102474000Y-38512000D02*
X106314000Y-38512000D01*
X102474000Y-36672000D02*
X102474000Y-38512000D01*
X106314000Y-36672000D02*
X102474000Y-36672000D01*
X106314000Y-38512000D02*
X106314000Y-36672000D01*
X106314000Y-41052000D02*
X106314000Y-39212000D01*
X106314000Y-39212000D02*
X102474000Y-39212000D01*
X102474000Y-39212000D02*
X102474000Y-41052000D01*
X102474000Y-41052000D02*
X106314000Y-41052000D01*
X107264000Y-40132000D02*
X106314000Y-40132000D01*
X101524000Y-40132000D02*
X102474000Y-40132000D01*
X101524000Y-42672000D02*
X102474000Y-42672000D01*
X107264000Y-42672000D02*
X106314000Y-42672000D01*
X102474000Y-43592000D02*
X106314000Y-43592000D01*
X102474000Y-41752000D02*
X102474000Y-43592000D01*
X106314000Y-41752000D02*
X102474000Y-41752000D01*
X106314000Y-43592000D02*
X106314000Y-41752000D01*
X106314000Y-46132000D02*
X106314000Y-44292000D01*
X106314000Y-44292000D02*
X102474000Y-44292000D01*
X102474000Y-44292000D02*
X102474000Y-46132000D01*
X102474000Y-46132000D02*
X106314000Y-46132000D01*
X107264000Y-45212000D02*
X106314000Y-45212000D01*
X101524000Y-45212000D02*
X102474000Y-45212000D01*
X101524000Y-29972000D02*
X102474000Y-29972000D01*
X107264000Y-29972000D02*
X106314000Y-29972000D01*
X102474000Y-30892000D02*
X106314000Y-30892000D01*
X102474000Y-29052000D02*
X102474000Y-30892000D01*
X106314000Y-29052000D02*
X102474000Y-29052000D01*
X106314000Y-30892000D02*
X106314000Y-29052000D01*
X106314000Y-33432000D02*
X106314000Y-31592000D01*
X106314000Y-31592000D02*
X102474000Y-31592000D01*
X102474000Y-31592000D02*
X102474000Y-33432000D01*
X102474000Y-33432000D02*
X106314000Y-33432000D01*
X107264000Y-32512000D02*
X106314000Y-32512000D01*
X101524000Y-32512000D02*
X102474000Y-32512000D01*
X106096000Y-48260000D02*
X107046000Y-48260000D01*
X111836000Y-48260000D02*
X110886000Y-48260000D01*
X107046000Y-49180000D02*
X110886000Y-49180000D01*
X107046000Y-47340000D02*
X107046000Y-49180000D01*
X110886000Y-47340000D02*
X107046000Y-47340000D01*
X110886000Y-49180000D02*
X110886000Y-47340000D01*
X125222000Y-53162000D02*
X125222000Y-52212000D01*
X125222000Y-47422000D02*
X125222000Y-48372000D01*
X126142000Y-52212000D02*
X126142000Y-48372000D01*
X124302000Y-52212000D02*
X126142000Y-52212000D01*
X124302000Y-48372000D02*
X124302000Y-52212000D01*
X126142000Y-48372000D02*
X124302000Y-48372000D01*
X139096000Y-48372000D02*
X137256000Y-48372000D01*
X137256000Y-48372000D02*
X137256000Y-52212000D01*
X137256000Y-52212000D02*
X139096000Y-52212000D01*
X139096000Y-52212000D02*
X139096000Y-48372000D01*
X138176000Y-47422000D02*
X138176000Y-48372000D01*
X138176000Y-53162000D02*
X138176000Y-52212000D01*
X151542000Y-48372000D02*
X149702000Y-48372000D01*
X149702000Y-48372000D02*
X149702000Y-52212000D01*
X149702000Y-52212000D02*
X151542000Y-52212000D01*
X151542000Y-52212000D02*
X151542000Y-48372000D01*
X150622000Y-47422000D02*
X150622000Y-48372000D01*
X150622000Y-53162000D02*
X150622000Y-52212000D01*
X92948000Y-26102000D02*
G75*
G02X90948000Y-26102000I-1000000J0D01*
G01*
X90948000Y-26102000D02*
X89698000Y-26102000D01*
X89698000Y-26102000D02*
X89698000Y-46542000D01*
X89698000Y-46542000D02*
X94198000Y-46542000D01*
X94198000Y-46542000D02*
X94198000Y-26102000D01*
X94198000Y-26102000D02*
X92948000Y-26102000D01*
X86698000Y-26042000D02*
X86698000Y-46602000D01*
X86698000Y-46602000D02*
X97198000Y-46602000D01*
X97198000Y-46602000D02*
X97198000Y-26042000D01*
X97198000Y-26042000D02*
X86698000Y-26042000D01*
X119380000Y-36830000D02*
X119380000Y-37465000D01*
X119380000Y-37465000D02*
X119380000Y-40005000D01*
X114935000Y-40640000D02*
X118745000Y-40640000D01*
X114300000Y-36830000D02*
X114300000Y-40005000D01*
X114935000Y-36195000D02*
X118745000Y-36195000D01*
X119380000Y-33020000D02*
X119380000Y-35560000D01*
X114300000Y-33020000D02*
X114300000Y-35560000D01*
X114935000Y-32385000D02*
X118745000Y-32385000D01*
X111760000Y-43180000D02*
X111760000Y-30480000D01*
X121920000Y-43180000D02*
X111760000Y-43180000D01*
X121920000Y-30480000D02*
X121920000Y-43180000D01*
X111760000Y-30480000D02*
X121920000Y-30480000D01*
X124460000Y-30480000D02*
X134620000Y-30480000D01*
X134620000Y-30480000D02*
X134620000Y-43180000D01*
X134620000Y-43180000D02*
X124460000Y-43180000D01*
X124460000Y-43180000D02*
X124460000Y-30480000D01*
X127635000Y-32385000D02*
X131445000Y-32385000D01*
X127000000Y-33020000D02*
X127000000Y-35560000D01*
X132080000Y-33020000D02*
X132080000Y-35560000D01*
X127635000Y-36195000D02*
X131445000Y-36195000D01*
X127000000Y-36830000D02*
X127000000Y-40005000D01*
X127635000Y-40640000D02*
X131445000Y-40640000D01*
X132080000Y-37465000D02*
X132080000Y-40005000D01*
X132080000Y-36830000D02*
X132080000Y-37465000D01*
X144780000Y-36830000D02*
X144780000Y-37465000D01*
X144780000Y-37465000D02*
X144780000Y-40005000D01*
X140335000Y-40640000D02*
X144145000Y-40640000D01*
X139700000Y-36830000D02*
X139700000Y-40005000D01*
X140335000Y-36195000D02*
X144145000Y-36195000D01*
X144780000Y-33020000D02*
X144780000Y-35560000D01*
X139700000Y-33020000D02*
X139700000Y-35560000D01*
X140335000Y-32385000D02*
X144145000Y-32385000D01*
X137160000Y-43180000D02*
X137160000Y-30480000D01*
X147320000Y-43180000D02*
X137160000Y-43180000D01*
X147320000Y-30480000D02*
X147320000Y-43180000D01*
X137160000Y-30480000D02*
X147320000Y-30480000D01*
X149860000Y-30480000D02*
X160020000Y-30480000D01*
X160020000Y-30480000D02*
X160020000Y-43180000D01*
X160020000Y-43180000D02*
X149860000Y-43180000D01*
X149860000Y-43180000D02*
X149860000Y-30480000D01*
X153035000Y-32385000D02*
X156845000Y-32385000D01*
X152400000Y-33020000D02*
X152400000Y-35560000D01*
X157480000Y-33020000D02*
X157480000Y-35560000D01*
X153035000Y-36195000D02*
X156845000Y-36195000D01*
X152400000Y-36830000D02*
X152400000Y-40005000D01*
X153035000Y-40640000D02*
X156845000Y-40640000D01*
X157480000Y-37465000D02*
X157480000Y-40005000D01*
X157480000Y-36830000D02*
X157480000Y-37465000D01*
D11*
X95845333Y-23979142D02*
X95797714Y-24026761D01*
X95654857Y-24074380D01*
X95559619Y-24074380D01*
X95416761Y-24026761D01*
X95321523Y-23931523D01*
X95273904Y-23836285D01*
X95226285Y-23645809D01*
X95226285Y-23502952D01*
X95273904Y-23312476D01*
X95321523Y-23217238D01*
X95416761Y-23122000D01*
X95559619Y-23074380D01*
X95654857Y-23074380D01*
X95797714Y-23122000D01*
X95845333Y-23169619D01*
X96797714Y-24074380D02*
X96226285Y-24074380D01*
X96512000Y-24074380D02*
X96512000Y-23074380D01*
X96416761Y-23217238D01*
X96321523Y-23312476D01*
X96226285Y-23360095D01*
X139977904Y-26360380D02*
X139977904Y-25360380D01*
X140216000Y-25360380D01*
X140358857Y-25408000D01*
X140454095Y-25503238D01*
X140501714Y-25598476D01*
X140549333Y-25788952D01*
X140549333Y-25931809D01*
X140501714Y-26122285D01*
X140454095Y-26217523D01*
X140358857Y-26312761D01*
X140216000Y-26360380D01*
X139977904Y-26360380D01*
X141501714Y-26360380D02*
X140930285Y-26360380D01*
X141216000Y-26360380D02*
X141216000Y-25360380D01*
X141120761Y-25503238D01*
X141025523Y-25598476D01*
X140930285Y-25646095D01*
X87122095Y-20264380D02*
X87122095Y-19264380D01*
X87122095Y-19740571D02*
X87693523Y-19740571D01*
X87693523Y-20264380D02*
X87693523Y-19264380D01*
X88693523Y-20264380D02*
X88122095Y-20264380D01*
X88407809Y-20264380D02*
X88407809Y-19264380D01*
X88312571Y-19407238D01*
X88217333Y-19502476D01*
X88122095Y-19550095D01*
X159004095Y-26868380D02*
X159004095Y-25868380D01*
X159004095Y-26344571D02*
X159575523Y-26344571D01*
X159575523Y-26868380D02*
X159575523Y-25868380D01*
X160004095Y-25963619D02*
X160051714Y-25916000D01*
X160146952Y-25868380D01*
X160385047Y-25868380D01*
X160480285Y-25916000D01*
X160527904Y-25963619D01*
X160575523Y-26058857D01*
X160575523Y-26154095D01*
X160527904Y-26296952D01*
X159956476Y-26868380D01*
X160575523Y-26868380D01*
X87630095Y-56078380D02*
X87630095Y-55078380D01*
X87630095Y-55554571D02*
X88201523Y-55554571D01*
X88201523Y-56078380D02*
X88201523Y-55078380D01*
X88582476Y-55078380D02*
X89201523Y-55078380D01*
X88868190Y-55459333D01*
X89011047Y-55459333D01*
X89106285Y-55506952D01*
X89153904Y-55554571D01*
X89201523Y-55649809D01*
X89201523Y-55887904D01*
X89153904Y-55983142D01*
X89106285Y-56030761D01*
X89011047Y-56078380D01*
X88725333Y-56078380D01*
X88630095Y-56030761D01*
X88582476Y-55983142D01*
X152654095Y-52776380D02*
X152654095Y-51776380D01*
X152654095Y-52252571D02*
X153225523Y-52252571D01*
X153225523Y-52776380D02*
X153225523Y-51776380D01*
X154130285Y-52109714D02*
X154130285Y-52776380D01*
X153892190Y-51728761D02*
X153654095Y-52443047D01*
X154273142Y-52443047D01*
X80692666Y-25106380D02*
X80692666Y-25820666D01*
X80645047Y-25963523D01*
X80549809Y-26058761D01*
X80406952Y-26106380D01*
X80311714Y-26106380D01*
X81692666Y-26106380D02*
X81121238Y-26106380D01*
X81406952Y-26106380D02*
X81406952Y-25106380D01*
X81311714Y-25249238D01*
X81216476Y-25344476D01*
X81121238Y-25392095D01*
X96694666Y-53808380D02*
X96694666Y-54522666D01*
X96647047Y-54665523D01*
X96551809Y-54760761D01*
X96408952Y-54808380D01*
X96313714Y-54808380D01*
X97123238Y-53903619D02*
X97170857Y-53856000D01*
X97266095Y-53808380D01*
X97504190Y-53808380D01*
X97599428Y-53856000D01*
X97647047Y-53903619D01*
X97694666Y-53998857D01*
X97694666Y-54094095D01*
X97647047Y-54236952D01*
X97075619Y-54808380D01*
X97694666Y-54808380D01*
X144446666Y-23074380D02*
X144446666Y-23788666D01*
X144399047Y-23931523D01*
X144303809Y-24026761D01*
X144160952Y-24074380D01*
X144065714Y-24074380D01*
X144827619Y-23074380D02*
X145446666Y-23074380D01*
X145113333Y-23455333D01*
X145256190Y-23455333D01*
X145351428Y-23502952D01*
X145399047Y-23550571D01*
X145446666Y-23645809D01*
X145446666Y-23883904D01*
X145399047Y-23979142D01*
X145351428Y-24026761D01*
X145256190Y-24074380D01*
X144970476Y-24074380D01*
X144875238Y-24026761D01*
X144827619Y-23979142D01*
X81454666Y-50482380D02*
X81454666Y-51196666D01*
X81407047Y-51339523D01*
X81311809Y-51434761D01*
X81168952Y-51482380D01*
X81073714Y-51482380D01*
X82359428Y-50815714D02*
X82359428Y-51482380D01*
X82121333Y-50434761D02*
X81883238Y-51149047D01*
X82502285Y-51149047D01*
X105338666Y-53554380D02*
X105338666Y-54268666D01*
X105291047Y-54411523D01*
X105195809Y-54506761D01*
X105052952Y-54554380D01*
X104957714Y-54554380D01*
X105814857Y-54554380D02*
X105814857Y-53554380D01*
X106195809Y-53554380D01*
X106291047Y-53602000D01*
X106338666Y-53649619D01*
X106386285Y-53744857D01*
X106386285Y-53887714D01*
X106338666Y-53982952D01*
X106291047Y-54030571D01*
X106195809Y-54078190D01*
X105814857Y-54078190D01*
X107338666Y-54554380D02*
X106767238Y-54554380D01*
X107052952Y-54554380D02*
X107052952Y-53554380D01*
X106957714Y-53697238D01*
X106862476Y-53792476D01*
X106767238Y-53840095D01*
X120046761Y-46775619D02*
X119951523Y-46728000D01*
X119856285Y-46632761D01*
X119713428Y-46489904D01*
X119618190Y-46442285D01*
X119522952Y-46442285D01*
X119570571Y-46680380D02*
X119475333Y-46632761D01*
X119380095Y-46537523D01*
X119332476Y-46347047D01*
X119332476Y-46013714D01*
X119380095Y-45823238D01*
X119475333Y-45728000D01*
X119570571Y-45680380D01*
X119761047Y-45680380D01*
X119856285Y-45728000D01*
X119951523Y-45823238D01*
X119999142Y-46013714D01*
X119999142Y-46347047D01*
X119951523Y-46537523D01*
X119856285Y-46632761D01*
X119761047Y-46680380D01*
X119570571Y-46680380D01*
X120951523Y-46680380D02*
X120380095Y-46680380D01*
X120665809Y-46680380D02*
X120665809Y-45680380D01*
X120570571Y-45823238D01*
X120475333Y-45918476D01*
X120380095Y-45966095D01*
X133508761Y-46775619D02*
X133413523Y-46728000D01*
X133318285Y-46632761D01*
X133175428Y-46489904D01*
X133080190Y-46442285D01*
X132984952Y-46442285D01*
X133032571Y-46680380D02*
X132937333Y-46632761D01*
X132842095Y-46537523D01*
X132794476Y-46347047D01*
X132794476Y-46013714D01*
X132842095Y-45823238D01*
X132937333Y-45728000D01*
X133032571Y-45680380D01*
X133223047Y-45680380D01*
X133318285Y-45728000D01*
X133413523Y-45823238D01*
X133461142Y-46013714D01*
X133461142Y-46347047D01*
X133413523Y-46537523D01*
X133318285Y-46632761D01*
X133223047Y-46680380D01*
X133032571Y-46680380D01*
X133842095Y-45775619D02*
X133889714Y-45728000D01*
X133984952Y-45680380D01*
X134223047Y-45680380D01*
X134318285Y-45728000D01*
X134365904Y-45775619D01*
X134413523Y-45870857D01*
X134413523Y-45966095D01*
X134365904Y-46108952D01*
X133794476Y-46680380D01*
X134413523Y-46680380D01*
X146462761Y-46775619D02*
X146367523Y-46728000D01*
X146272285Y-46632761D01*
X146129428Y-46489904D01*
X146034190Y-46442285D01*
X145938952Y-46442285D01*
X145986571Y-46680380D02*
X145891333Y-46632761D01*
X145796095Y-46537523D01*
X145748476Y-46347047D01*
X145748476Y-46013714D01*
X145796095Y-45823238D01*
X145891333Y-45728000D01*
X145986571Y-45680380D01*
X146177047Y-45680380D01*
X146272285Y-45728000D01*
X146367523Y-45823238D01*
X146415142Y-46013714D01*
X146415142Y-46347047D01*
X146367523Y-46537523D01*
X146272285Y-46632761D01*
X146177047Y-46680380D01*
X145986571Y-46680380D01*
X146748476Y-45680380D02*
X147367523Y-45680380D01*
X147034190Y-46061333D01*
X147177047Y-46061333D01*
X147272285Y-46108952D01*
X147319904Y-46156571D01*
X147367523Y-46251809D01*
X147367523Y-46489904D01*
X147319904Y-46585142D01*
X147272285Y-46632761D01*
X147177047Y-46680380D01*
X146891333Y-46680380D01*
X146796095Y-46632761D01*
X146748476Y-46585142D01*
X158908761Y-46775619D02*
X158813523Y-46728000D01*
X158718285Y-46632761D01*
X158575428Y-46489904D01*
X158480190Y-46442285D01*
X158384952Y-46442285D01*
X158432571Y-46680380D02*
X158337333Y-46632761D01*
X158242095Y-46537523D01*
X158194476Y-46347047D01*
X158194476Y-46013714D01*
X158242095Y-45823238D01*
X158337333Y-45728000D01*
X158432571Y-45680380D01*
X158623047Y-45680380D01*
X158718285Y-45728000D01*
X158813523Y-45823238D01*
X158861142Y-46013714D01*
X158861142Y-46347047D01*
X158813523Y-46537523D01*
X158718285Y-46632761D01*
X158623047Y-46680380D01*
X158432571Y-46680380D01*
X159718285Y-46013714D02*
X159718285Y-46680380D01*
X159480190Y-45632761D02*
X159242095Y-46347047D01*
X159861142Y-46347047D01*
X131913333Y-24582380D02*
X131580000Y-24106190D01*
X131341904Y-24582380D02*
X131341904Y-23582380D01*
X131722857Y-23582380D01*
X131818095Y-23630000D01*
X131865714Y-23677619D01*
X131913333Y-23772857D01*
X131913333Y-23915714D01*
X131865714Y-24010952D01*
X131818095Y-24058571D01*
X131722857Y-24106190D01*
X131341904Y-24106190D01*
X132865714Y-24582380D02*
X132294285Y-24582380D01*
X132580000Y-24582380D02*
X132580000Y-23582380D01*
X132484761Y-23725238D01*
X132389523Y-23820476D01*
X132294285Y-23868095D01*
X104227333Y-35504380D02*
X103894000Y-35028190D01*
X103655904Y-35504380D02*
X103655904Y-34504380D01*
X104036857Y-34504380D01*
X104132095Y-34552000D01*
X104179714Y-34599619D01*
X104227333Y-34694857D01*
X104227333Y-34837714D01*
X104179714Y-34932952D01*
X104132095Y-34980571D01*
X104036857Y-35028190D01*
X103655904Y-35028190D01*
X104608285Y-34599619D02*
X104655904Y-34552000D01*
X104751142Y-34504380D01*
X104989238Y-34504380D01*
X105084476Y-34552000D01*
X105132095Y-34599619D01*
X105179714Y-34694857D01*
X105179714Y-34790095D01*
X105132095Y-34932952D01*
X104560666Y-35504380D01*
X105179714Y-35504380D01*
X103973333Y-38044380D02*
X103640000Y-37568190D01*
X103401904Y-38044380D02*
X103401904Y-37044380D01*
X103782857Y-37044380D01*
X103878095Y-37092000D01*
X103925714Y-37139619D01*
X103973333Y-37234857D01*
X103973333Y-37377714D01*
X103925714Y-37472952D01*
X103878095Y-37520571D01*
X103782857Y-37568190D01*
X103401904Y-37568190D01*
X104306666Y-37044380D02*
X104925714Y-37044380D01*
X104592380Y-37425333D01*
X104735238Y-37425333D01*
X104830476Y-37472952D01*
X104878095Y-37520571D01*
X104925714Y-37615809D01*
X104925714Y-37853904D01*
X104878095Y-37949142D01*
X104830476Y-37996761D01*
X104735238Y-38044380D01*
X104449523Y-38044380D01*
X104354285Y-37996761D01*
X104306666Y-37949142D01*
X104481333Y-40584380D02*
X104148000Y-40108190D01*
X103909904Y-40584380D02*
X103909904Y-39584380D01*
X104290857Y-39584380D01*
X104386095Y-39632000D01*
X104433714Y-39679619D01*
X104481333Y-39774857D01*
X104481333Y-39917714D01*
X104433714Y-40012952D01*
X104386095Y-40060571D01*
X104290857Y-40108190D01*
X103909904Y-40108190D01*
X105338476Y-39917714D02*
X105338476Y-40584380D01*
X105100380Y-39536761D02*
X104862285Y-40251047D01*
X105481333Y-40251047D01*
X104227333Y-43124380D02*
X103894000Y-42648190D01*
X103655904Y-43124380D02*
X103655904Y-42124380D01*
X104036857Y-42124380D01*
X104132095Y-42172000D01*
X104179714Y-42219619D01*
X104227333Y-42314857D01*
X104227333Y-42457714D01*
X104179714Y-42552952D01*
X104132095Y-42600571D01*
X104036857Y-42648190D01*
X103655904Y-42648190D01*
X105132095Y-42124380D02*
X104655904Y-42124380D01*
X104608285Y-42600571D01*
X104655904Y-42552952D01*
X104751142Y-42505333D01*
X104989238Y-42505333D01*
X105084476Y-42552952D01*
X105132095Y-42600571D01*
X105179714Y-42695809D01*
X105179714Y-42933904D01*
X105132095Y-43029142D01*
X105084476Y-43076761D01*
X104989238Y-43124380D01*
X104751142Y-43124380D01*
X104655904Y-43076761D01*
X104608285Y-43029142D01*
X104227333Y-45664380D02*
X103894000Y-45188190D01*
X103655904Y-45664380D02*
X103655904Y-44664380D01*
X104036857Y-44664380D01*
X104132095Y-44712000D01*
X104179714Y-44759619D01*
X104227333Y-44854857D01*
X104227333Y-44997714D01*
X104179714Y-45092952D01*
X104132095Y-45140571D01*
X104036857Y-45188190D01*
X103655904Y-45188190D01*
X105084476Y-44664380D02*
X104894000Y-44664380D01*
X104798761Y-44712000D01*
X104751142Y-44759619D01*
X104655904Y-44902476D01*
X104608285Y-45092952D01*
X104608285Y-45473904D01*
X104655904Y-45569142D01*
X104703523Y-45616761D01*
X104798761Y-45664380D01*
X104989238Y-45664380D01*
X105084476Y-45616761D01*
X105132095Y-45569142D01*
X105179714Y-45473904D01*
X105179714Y-45235809D01*
X105132095Y-45140571D01*
X105084476Y-45092952D01*
X104989238Y-45045333D01*
X104798761Y-45045333D01*
X104703523Y-45092952D01*
X104655904Y-45140571D01*
X104608285Y-45235809D01*
X104227333Y-30424380D02*
X103894000Y-29948190D01*
X103655904Y-30424380D02*
X103655904Y-29424380D01*
X104036857Y-29424380D01*
X104132095Y-29472000D01*
X104179714Y-29519619D01*
X104227333Y-29614857D01*
X104227333Y-29757714D01*
X104179714Y-29852952D01*
X104132095Y-29900571D01*
X104036857Y-29948190D01*
X103655904Y-29948190D01*
X104560666Y-29424380D02*
X105227333Y-29424380D01*
X104798761Y-30424380D01*
X103973333Y-32964380D02*
X103640000Y-32488190D01*
X103401904Y-32964380D02*
X103401904Y-31964380D01*
X103782857Y-31964380D01*
X103878095Y-32012000D01*
X103925714Y-32059619D01*
X103973333Y-32154857D01*
X103973333Y-32297714D01*
X103925714Y-32392952D01*
X103878095Y-32440571D01*
X103782857Y-32488190D01*
X103401904Y-32488190D01*
X104544761Y-32392952D02*
X104449523Y-32345333D01*
X104401904Y-32297714D01*
X104354285Y-32202476D01*
X104354285Y-32154857D01*
X104401904Y-32059619D01*
X104449523Y-32012000D01*
X104544761Y-31964380D01*
X104735238Y-31964380D01*
X104830476Y-32012000D01*
X104878095Y-32059619D01*
X104925714Y-32154857D01*
X104925714Y-32202476D01*
X104878095Y-32297714D01*
X104830476Y-32345333D01*
X104735238Y-32392952D01*
X104544761Y-32392952D01*
X104449523Y-32440571D01*
X104401904Y-32488190D01*
X104354285Y-32583428D01*
X104354285Y-32773904D01*
X104401904Y-32869142D01*
X104449523Y-32916761D01*
X104544761Y-32964380D01*
X104735238Y-32964380D01*
X104830476Y-32916761D01*
X104878095Y-32869142D01*
X104925714Y-32773904D01*
X104925714Y-32583428D01*
X104878095Y-32488190D01*
X104830476Y-32440571D01*
X104735238Y-32392952D01*
X108799333Y-48712380D02*
X108466000Y-48236190D01*
X108227904Y-48712380D02*
X108227904Y-47712380D01*
X108608857Y-47712380D01*
X108704095Y-47760000D01*
X108751714Y-47807619D01*
X108799333Y-47902857D01*
X108799333Y-48045714D01*
X108751714Y-48140952D01*
X108704095Y-48188571D01*
X108608857Y-48236190D01*
X108227904Y-48236190D01*
X109275523Y-48712380D02*
X109466000Y-48712380D01*
X109561238Y-48664761D01*
X109608857Y-48617142D01*
X109704095Y-48474285D01*
X109751714Y-48283809D01*
X109751714Y-47902857D01*
X109704095Y-47807619D01*
X109656476Y-47760000D01*
X109561238Y-47712380D01*
X109370761Y-47712380D01*
X109275523Y-47760000D01*
X109227904Y-47807619D01*
X109180285Y-47902857D01*
X109180285Y-48140952D01*
X109227904Y-48236190D01*
X109275523Y-48283809D01*
X109370761Y-48331428D01*
X109561238Y-48331428D01*
X109656476Y-48283809D01*
X109704095Y-48236190D01*
X109751714Y-48140952D01*
X125420380Y-50934857D02*
X124944190Y-51268190D01*
X125420380Y-51506285D02*
X124420380Y-51506285D01*
X124420380Y-51125333D01*
X124468000Y-51030095D01*
X124515619Y-50982476D01*
X124610857Y-50934857D01*
X124753714Y-50934857D01*
X124848952Y-50982476D01*
X124896571Y-51030095D01*
X124944190Y-51125333D01*
X124944190Y-51506285D01*
X125420380Y-49982476D02*
X125420380Y-50553904D01*
X125420380Y-50268190D02*
X124420380Y-50268190D01*
X124563238Y-50363428D01*
X124658476Y-50458666D01*
X124706095Y-50553904D01*
X124420380Y-49363428D02*
X124420380Y-49268190D01*
X124468000Y-49172952D01*
X124515619Y-49125333D01*
X124610857Y-49077714D01*
X124801333Y-49030095D01*
X125039428Y-49030095D01*
X125229904Y-49077714D01*
X125325142Y-49125333D01*
X125372761Y-49172952D01*
X125420380Y-49268190D01*
X125420380Y-49363428D01*
X125372761Y-49458666D01*
X125325142Y-49506285D01*
X125229904Y-49553904D01*
X125039428Y-49601523D01*
X124801333Y-49601523D01*
X124610857Y-49553904D01*
X124515619Y-49506285D01*
X124468000Y-49458666D01*
X124420380Y-49363428D01*
X138628380Y-50934857D02*
X138152190Y-51268190D01*
X138628380Y-51506285D02*
X137628380Y-51506285D01*
X137628380Y-51125333D01*
X137676000Y-51030095D01*
X137723619Y-50982476D01*
X137818857Y-50934857D01*
X137961714Y-50934857D01*
X138056952Y-50982476D01*
X138104571Y-51030095D01*
X138152190Y-51125333D01*
X138152190Y-51506285D01*
X138628380Y-49982476D02*
X138628380Y-50553904D01*
X138628380Y-50268190D02*
X137628380Y-50268190D01*
X137771238Y-50363428D01*
X137866476Y-50458666D01*
X137914095Y-50553904D01*
X138628380Y-49030095D02*
X138628380Y-49601523D01*
X138628380Y-49315809D02*
X137628380Y-49315809D01*
X137771238Y-49411047D01*
X137866476Y-49506285D01*
X137914095Y-49601523D01*
X151328380Y-51188857D02*
X150852190Y-51522190D01*
X151328380Y-51760285D02*
X150328380Y-51760285D01*
X150328380Y-51379333D01*
X150376000Y-51284095D01*
X150423619Y-51236476D01*
X150518857Y-51188857D01*
X150661714Y-51188857D01*
X150756952Y-51236476D01*
X150804571Y-51284095D01*
X150852190Y-51379333D01*
X150852190Y-51760285D01*
X151328380Y-50236476D02*
X151328380Y-50807904D01*
X151328380Y-50522190D02*
X150328380Y-50522190D01*
X150471238Y-50617428D01*
X150566476Y-50712666D01*
X150614095Y-50807904D01*
X150423619Y-49855523D02*
X150376000Y-49807904D01*
X150328380Y-49712666D01*
X150328380Y-49474571D01*
X150376000Y-49379333D01*
X150423619Y-49331714D01*
X150518857Y-49284095D01*
X150614095Y-49284095D01*
X150756952Y-49331714D01*
X151328380Y-49903142D01*
X151328380Y-49284095D01*
X91186095Y-27900380D02*
X91186095Y-28709904D01*
X91233714Y-28805142D01*
X91281333Y-28852761D01*
X91376571Y-28900380D01*
X91567047Y-28900380D01*
X91662285Y-28852761D01*
X91709904Y-28805142D01*
X91757523Y-28709904D01*
X91757523Y-27900380D01*
X92757523Y-28900380D02*
X92186095Y-28900380D01*
X92471809Y-28900380D02*
X92471809Y-27900380D01*
X92376571Y-28043238D01*
X92281333Y-28138476D01*
X92186095Y-28186095D01*
X116078095Y-41997380D02*
X116078095Y-42806904D01*
X116125714Y-42902142D01*
X116173333Y-42949761D01*
X116268571Y-42997380D01*
X116459047Y-42997380D01*
X116554285Y-42949761D01*
X116601904Y-42902142D01*
X116649523Y-42806904D01*
X116649523Y-41997380D01*
X117078095Y-42092619D02*
X117125714Y-42045000D01*
X117220952Y-41997380D01*
X117459047Y-41997380D01*
X117554285Y-42045000D01*
X117601904Y-42092619D01*
X117649523Y-42187857D01*
X117649523Y-42283095D01*
X117601904Y-42425952D01*
X117030476Y-42997380D01*
X117649523Y-42997380D01*
X128778095Y-41997380D02*
X128778095Y-42806904D01*
X128825714Y-42902142D01*
X128873333Y-42949761D01*
X128968571Y-42997380D01*
X129159047Y-42997380D01*
X129254285Y-42949761D01*
X129301904Y-42902142D01*
X129349523Y-42806904D01*
X129349523Y-41997380D01*
X129730476Y-41997380D02*
X130349523Y-41997380D01*
X130016190Y-42378333D01*
X130159047Y-42378333D01*
X130254285Y-42425952D01*
X130301904Y-42473571D01*
X130349523Y-42568809D01*
X130349523Y-42806904D01*
X130301904Y-42902142D01*
X130254285Y-42949761D01*
X130159047Y-42997380D01*
X129873333Y-42997380D01*
X129778095Y-42949761D01*
X129730476Y-42902142D01*
X141478095Y-41997380D02*
X141478095Y-42806904D01*
X141525714Y-42902142D01*
X141573333Y-42949761D01*
X141668571Y-42997380D01*
X141859047Y-42997380D01*
X141954285Y-42949761D01*
X142001904Y-42902142D01*
X142049523Y-42806904D01*
X142049523Y-41997380D01*
X142954285Y-42330714D02*
X142954285Y-42997380D01*
X142716190Y-41949761D02*
X142478095Y-42664047D01*
X143097142Y-42664047D01*
X154178095Y-41997380D02*
X154178095Y-42806904D01*
X154225714Y-42902142D01*
X154273333Y-42949761D01*
X154368571Y-42997380D01*
X154559047Y-42997380D01*
X154654285Y-42949761D01*
X154701904Y-42902142D01*
X154749523Y-42806904D01*
X154749523Y-41997380D01*
X155701904Y-41997380D02*
X155225714Y-41997380D01*
X155178095Y-42473571D01*
X155225714Y-42425952D01*
X155320952Y-42378333D01*
X155559047Y-42378333D01*
X155654285Y-42425952D01*
X155701904Y-42473571D01*
X155749523Y-42568809D01*
X155749523Y-42806904D01*
X155701904Y-42902142D01*
X155654285Y-42949761D01*
X155559047Y-42997380D01*
X155320952Y-42997380D01*
X155225714Y-42949761D01*
X155178095Y-42902142D01*
M02*
