M48
; DRILL file {KiCad (5.1.4-0-10_14)} date 2020 June 08, Monday 18:03:51
; FORMAT={-:-/ absolute / metric / decimal}
; #@! TF.CreationDate,2020-06-08T18:03:51+02:00
; #@! TF.GenerationSoftware,Kicad,Pcbnew,(5.1.4-0-10_14)
; #@! TF.FileFunction,Plated,1,2,PTH
FMAT,2
METRIC
T1C0.400
T2C0.762
T3C0.800
T4C0.900
T5C1.000
T6C1.100
T7C1.300
%
G90
G05
T1
X113.538Y-116.84
X124.46Y-71.374
X128.27Y-73.152
X131.064Y-78.232
X134.366Y-74.422
X134.62Y-73.152
X135.636Y-86.868
X138.684Y-86.868
X164.084Y-100.076
T2
X105.156Y-112.268
X105.156Y-113.538
X105.156Y-114.808
X105.156Y-116.078
T3
X148.844Y-70.612
X148.844Y-78.232
X151.384Y-70.612
X151.384Y-78.232
X153.924Y-70.612
X153.924Y-78.232
X156.464Y-70.612
X156.464Y-78.232
X160.02Y-91.44
X170.18Y-91.44
X121.924Y-66.929
X124.464Y-66.929
X127.004Y-66.929
X129.544Y-66.929
X131.064Y-115.189
X132.084Y-66.929
X133.604Y-115.189
X134.624Y-66.929
X136.144Y-115.189
X137.164Y-66.929
X138.684Y-115.189
X139.704Y-66.929
X141.224Y-115.189
X142.244Y-66.929
X143.764Y-115.189
X144.784Y-66.929
X146.304Y-115.189
X148.844Y-66.929
X148.844Y-115.189
X151.384Y-66.929
X153.924Y-66.929
X153.924Y-115.189
X156.464Y-66.929
X156.464Y-115.189
X159.004Y-66.929
X159.004Y-115.189
X161.544Y-66.929
X161.544Y-115.189
X164.084Y-66.929
X134.62Y-70.612
X134.62Y-78.232
X137.16Y-70.612
X137.16Y-78.232
X139.7Y-70.612
X139.7Y-78.232
X142.24Y-70.612
X142.24Y-78.232
X164.084Y-115.189
X166.624Y-66.929
X166.624Y-115.189
X112.776Y-99.568
X122.936Y-99.568
X112.776Y-89.281
X122.936Y-89.281
X117.094Y-67.564
X117.094Y-70.104
X160.02Y-102.108
X170.18Y-102.108
X153.416Y-103.632
X112.776Y-96.012
X122.936Y-96.012
X160.02Y-94.996
X170.18Y-94.996
X153.416Y-111.252
X155.956Y-103.632
X155.956Y-111.252
X112.776Y-102.997
X122.936Y-102.997
X112.776Y-92.583
X170.18Y-98.552
X112.776Y-106.553
X122.936Y-106.553
X160.02Y-98.552
X122.936Y-92.583
T4
X105.664Y-105.41
X108.204Y-105.41
X105.664Y-97.536
X108.204Y-97.536
X105.664Y-89.408
X108.204Y-89.408
T5
X161.564Y-82.804
X169.164Y-82.804
X136.017Y-99.187
X138.557Y-99.187
X141.097Y-99.187
X143.637Y-99.187
X117.856Y-114.3
X120.396Y-114.3
X122.936Y-114.3
X125.476Y-114.3
T6
X130.048Y-104.521
X136.548Y-104.521
X136.548Y-109.021
X141.732Y-104.521
X141.732Y-109.021
X148.232Y-104.521
X148.232Y-109.021
X105.791Y-66.675
X105.791Y-71.175
X112.291Y-66.675
X112.291Y-71.175
X130.048Y-109.021
T7
X117.936Y-84.963
X120.436Y-74.963
X122.936Y-84.963
T0
M30
