G04 #@! TF.GenerationSoftware,KiCad,Pcbnew,(5.1.4-0-10_14)*
G04 #@! TF.CreationDate,2020-06-08T18:04:02+02:00*
G04 #@! TF.ProjectId,myShield,6d795368-6965-46c6-942e-6b696361645f,rev?*
G04 #@! TF.SameCoordinates,Original*
G04 #@! TF.FileFunction,Soldermask,Top*
G04 #@! TF.FilePolarity,Negative*
%FSLAX46Y46*%
G04 Gerber Fmt 4.6, Leading zero omitted, Abs format (unit mm)*
G04 Created by KiCad (PCBNEW (5.1.4-0-10_14)) date 2020-06-08 18:04:02*
%MOMM*%
%LPD*%
G04 APERTURE LIST*
%ADD10C,0.100000*%
G04 APERTURE END LIST*
D10*
G36*
X105526015Y-111724973D02*
G01*
X105629879Y-111756479D01*
X105657055Y-111771005D01*
X105725600Y-111807643D01*
X105809501Y-111876499D01*
X105878357Y-111960400D01*
X105914995Y-112028945D01*
X105929521Y-112056121D01*
X105961027Y-112159985D01*
X105971666Y-112268000D01*
X105961027Y-112376015D01*
X105929521Y-112479879D01*
X105929519Y-112479882D01*
X105878357Y-112575600D01*
X105809501Y-112659501D01*
X105725600Y-112728357D01*
X105657055Y-112764995D01*
X105629879Y-112779521D01*
X105617131Y-112783388D01*
X105594504Y-112792760D01*
X105574130Y-112806374D01*
X105556803Y-112823701D01*
X105543189Y-112844075D01*
X105533812Y-112866714D01*
X105529031Y-112890747D01*
X105529031Y-112915251D01*
X105533811Y-112939285D01*
X105543188Y-112961924D01*
X105556802Y-112982298D01*
X105574129Y-112999625D01*
X105594503Y-113013239D01*
X105617131Y-113022612D01*
X105629879Y-113026479D01*
X105657055Y-113041005D01*
X105725600Y-113077643D01*
X105809501Y-113146499D01*
X105878357Y-113230400D01*
X105914995Y-113298945D01*
X105929521Y-113326121D01*
X105961027Y-113429985D01*
X105971666Y-113538000D01*
X105961027Y-113646015D01*
X105929521Y-113749879D01*
X105929519Y-113749882D01*
X105878357Y-113845600D01*
X105809501Y-113929501D01*
X105725600Y-113998357D01*
X105657055Y-114034995D01*
X105629879Y-114049521D01*
X105617131Y-114053388D01*
X105594504Y-114062760D01*
X105574130Y-114076374D01*
X105556803Y-114093701D01*
X105543189Y-114114075D01*
X105533812Y-114136714D01*
X105529031Y-114160747D01*
X105529031Y-114185251D01*
X105533811Y-114209285D01*
X105543188Y-114231924D01*
X105556802Y-114252298D01*
X105574129Y-114269625D01*
X105594503Y-114283239D01*
X105617131Y-114292612D01*
X105629879Y-114296479D01*
X105636466Y-114300000D01*
X105725600Y-114347643D01*
X105809501Y-114416499D01*
X105878357Y-114500400D01*
X105914995Y-114568945D01*
X105929521Y-114596121D01*
X105961027Y-114699985D01*
X105971666Y-114808000D01*
X105961027Y-114916015D01*
X105929521Y-115019879D01*
X105914995Y-115047055D01*
X105878357Y-115115600D01*
X105809501Y-115199501D01*
X105725600Y-115268357D01*
X105657055Y-115304995D01*
X105629879Y-115319521D01*
X105617131Y-115323388D01*
X105594504Y-115332760D01*
X105574130Y-115346374D01*
X105556803Y-115363701D01*
X105543189Y-115384075D01*
X105533812Y-115406714D01*
X105529031Y-115430747D01*
X105529031Y-115455251D01*
X105533811Y-115479285D01*
X105543188Y-115501924D01*
X105556802Y-115522298D01*
X105574129Y-115539625D01*
X105594503Y-115553239D01*
X105617131Y-115562612D01*
X105629879Y-115566479D01*
X105657055Y-115581005D01*
X105725600Y-115617643D01*
X105809501Y-115686499D01*
X105878357Y-115770400D01*
X105914995Y-115838945D01*
X105929521Y-115866121D01*
X105961027Y-115969985D01*
X105971666Y-116078000D01*
X105961027Y-116186015D01*
X105929521Y-116289879D01*
X105929519Y-116289882D01*
X105878357Y-116385600D01*
X105809501Y-116469501D01*
X105725600Y-116538357D01*
X105657055Y-116574995D01*
X105629879Y-116589521D01*
X105526015Y-116621027D01*
X105445067Y-116629000D01*
X104866933Y-116629000D01*
X104785985Y-116621027D01*
X104682121Y-116589521D01*
X104654945Y-116574995D01*
X104586400Y-116538357D01*
X104502499Y-116469501D01*
X104433643Y-116385600D01*
X104382481Y-116289882D01*
X104382479Y-116289879D01*
X104350973Y-116186015D01*
X104340334Y-116078000D01*
X104350973Y-115969985D01*
X104382479Y-115866121D01*
X104397005Y-115838945D01*
X104433643Y-115770400D01*
X104502499Y-115686499D01*
X104586400Y-115617643D01*
X104654945Y-115581005D01*
X104682121Y-115566479D01*
X104694869Y-115562612D01*
X104717496Y-115553240D01*
X104737870Y-115539626D01*
X104755197Y-115522299D01*
X104768811Y-115501925D01*
X104778188Y-115479286D01*
X104782969Y-115455253D01*
X104782969Y-115430749D01*
X104778189Y-115406715D01*
X104768812Y-115384076D01*
X104755198Y-115363702D01*
X104737871Y-115346375D01*
X104717497Y-115332761D01*
X104694869Y-115323388D01*
X104682121Y-115319521D01*
X104654945Y-115304995D01*
X104586400Y-115268357D01*
X104502499Y-115199501D01*
X104433643Y-115115600D01*
X104397005Y-115047055D01*
X104382479Y-115019879D01*
X104350973Y-114916015D01*
X104340334Y-114808000D01*
X104350973Y-114699985D01*
X104382479Y-114596121D01*
X104397005Y-114568945D01*
X104433643Y-114500400D01*
X104502499Y-114416499D01*
X104586400Y-114347643D01*
X104675534Y-114300000D01*
X104682121Y-114296479D01*
X104694869Y-114292612D01*
X104717496Y-114283240D01*
X104737870Y-114269626D01*
X104755197Y-114252299D01*
X104768811Y-114231925D01*
X104778188Y-114209286D01*
X104782969Y-114185253D01*
X104782969Y-114160749D01*
X104778189Y-114136715D01*
X104768812Y-114114076D01*
X104755198Y-114093702D01*
X104737871Y-114076375D01*
X104717497Y-114062761D01*
X104694869Y-114053388D01*
X104682121Y-114049521D01*
X104654945Y-114034995D01*
X104586400Y-113998357D01*
X104502499Y-113929501D01*
X104433643Y-113845600D01*
X104382481Y-113749882D01*
X104382479Y-113749879D01*
X104350973Y-113646015D01*
X104340334Y-113538000D01*
X104350973Y-113429985D01*
X104382479Y-113326121D01*
X104397005Y-113298945D01*
X104433643Y-113230400D01*
X104502499Y-113146499D01*
X104586400Y-113077643D01*
X104654945Y-113041005D01*
X104682121Y-113026479D01*
X104694869Y-113022612D01*
X104717496Y-113013240D01*
X104737870Y-112999626D01*
X104755197Y-112982299D01*
X104768811Y-112961925D01*
X104778188Y-112939286D01*
X104782969Y-112915253D01*
X104782969Y-112890749D01*
X104778189Y-112866715D01*
X104768812Y-112844076D01*
X104755198Y-112823702D01*
X104737871Y-112806375D01*
X104717497Y-112792761D01*
X104694869Y-112783388D01*
X104682121Y-112779521D01*
X104654945Y-112764995D01*
X104586400Y-112728357D01*
X104502499Y-112659501D01*
X104433643Y-112575600D01*
X104382481Y-112479882D01*
X104382479Y-112479879D01*
X104350973Y-112376015D01*
X104340334Y-112268000D01*
X104350973Y-112159985D01*
X104382479Y-112056121D01*
X104397005Y-112028945D01*
X104433643Y-111960400D01*
X104502499Y-111876499D01*
X104586400Y-111807643D01*
X104654945Y-111771005D01*
X104682121Y-111756479D01*
X104785985Y-111724973D01*
X104866933Y-111717000D01*
X105445067Y-111717000D01*
X105526015Y-111724973D01*
X105526015Y-111724973D01*
G37*
G36*
X164250823Y-114350313D02*
G01*
X164411242Y-114398976D01*
X164543906Y-114469886D01*
X164559078Y-114477996D01*
X164688659Y-114584341D01*
X164795004Y-114713922D01*
X164795005Y-114713924D01*
X164874024Y-114861758D01*
X164922687Y-115022177D01*
X164939117Y-115189000D01*
X164922687Y-115355823D01*
X164874024Y-115516242D01*
X164819824Y-115617643D01*
X164795004Y-115664078D01*
X164688659Y-115793659D01*
X164559078Y-115900004D01*
X164559076Y-115900005D01*
X164411242Y-115979024D01*
X164250823Y-116027687D01*
X164125804Y-116040000D01*
X164042196Y-116040000D01*
X163917177Y-116027687D01*
X163756758Y-115979024D01*
X163608924Y-115900005D01*
X163608922Y-115900004D01*
X163479341Y-115793659D01*
X163372996Y-115664078D01*
X163348176Y-115617643D01*
X163293976Y-115516242D01*
X163245313Y-115355823D01*
X163228883Y-115189000D01*
X163245313Y-115022177D01*
X163293976Y-114861758D01*
X163372995Y-114713924D01*
X163372996Y-114713922D01*
X163479341Y-114584341D01*
X163608922Y-114477996D01*
X163624094Y-114469886D01*
X163756758Y-114398976D01*
X163917177Y-114350313D01*
X164042196Y-114338000D01*
X164125804Y-114338000D01*
X164250823Y-114350313D01*
X164250823Y-114350313D01*
G37*
G36*
X161710823Y-114350313D02*
G01*
X161871242Y-114398976D01*
X162003906Y-114469886D01*
X162019078Y-114477996D01*
X162148659Y-114584341D01*
X162255004Y-114713922D01*
X162255005Y-114713924D01*
X162334024Y-114861758D01*
X162382687Y-115022177D01*
X162399117Y-115189000D01*
X162382687Y-115355823D01*
X162334024Y-115516242D01*
X162279824Y-115617643D01*
X162255004Y-115664078D01*
X162148659Y-115793659D01*
X162019078Y-115900004D01*
X162019076Y-115900005D01*
X161871242Y-115979024D01*
X161710823Y-116027687D01*
X161585804Y-116040000D01*
X161502196Y-116040000D01*
X161377177Y-116027687D01*
X161216758Y-115979024D01*
X161068924Y-115900005D01*
X161068922Y-115900004D01*
X160939341Y-115793659D01*
X160832996Y-115664078D01*
X160808176Y-115617643D01*
X160753976Y-115516242D01*
X160705313Y-115355823D01*
X160688883Y-115189000D01*
X160705313Y-115022177D01*
X160753976Y-114861758D01*
X160832995Y-114713924D01*
X160832996Y-114713922D01*
X160939341Y-114584341D01*
X161068922Y-114477996D01*
X161084094Y-114469886D01*
X161216758Y-114398976D01*
X161377177Y-114350313D01*
X161502196Y-114338000D01*
X161585804Y-114338000D01*
X161710823Y-114350313D01*
X161710823Y-114350313D01*
G37*
G36*
X159170823Y-114350313D02*
G01*
X159331242Y-114398976D01*
X159463906Y-114469886D01*
X159479078Y-114477996D01*
X159608659Y-114584341D01*
X159715004Y-114713922D01*
X159715005Y-114713924D01*
X159794024Y-114861758D01*
X159842687Y-115022177D01*
X159859117Y-115189000D01*
X159842687Y-115355823D01*
X159794024Y-115516242D01*
X159739824Y-115617643D01*
X159715004Y-115664078D01*
X159608659Y-115793659D01*
X159479078Y-115900004D01*
X159479076Y-115900005D01*
X159331242Y-115979024D01*
X159170823Y-116027687D01*
X159045804Y-116040000D01*
X158962196Y-116040000D01*
X158837177Y-116027687D01*
X158676758Y-115979024D01*
X158528924Y-115900005D01*
X158528922Y-115900004D01*
X158399341Y-115793659D01*
X158292996Y-115664078D01*
X158268176Y-115617643D01*
X158213976Y-115516242D01*
X158165313Y-115355823D01*
X158148883Y-115189000D01*
X158165313Y-115022177D01*
X158213976Y-114861758D01*
X158292995Y-114713924D01*
X158292996Y-114713922D01*
X158399341Y-114584341D01*
X158528922Y-114477996D01*
X158544094Y-114469886D01*
X158676758Y-114398976D01*
X158837177Y-114350313D01*
X158962196Y-114338000D01*
X159045804Y-114338000D01*
X159170823Y-114350313D01*
X159170823Y-114350313D01*
G37*
G36*
X156630823Y-114350313D02*
G01*
X156791242Y-114398976D01*
X156923906Y-114469886D01*
X156939078Y-114477996D01*
X157068659Y-114584341D01*
X157175004Y-114713922D01*
X157175005Y-114713924D01*
X157254024Y-114861758D01*
X157302687Y-115022177D01*
X157319117Y-115189000D01*
X157302687Y-115355823D01*
X157254024Y-115516242D01*
X157199824Y-115617643D01*
X157175004Y-115664078D01*
X157068659Y-115793659D01*
X156939078Y-115900004D01*
X156939076Y-115900005D01*
X156791242Y-115979024D01*
X156630823Y-116027687D01*
X156505804Y-116040000D01*
X156422196Y-116040000D01*
X156297177Y-116027687D01*
X156136758Y-115979024D01*
X155988924Y-115900005D01*
X155988922Y-115900004D01*
X155859341Y-115793659D01*
X155752996Y-115664078D01*
X155728176Y-115617643D01*
X155673976Y-115516242D01*
X155625313Y-115355823D01*
X155608883Y-115189000D01*
X155625313Y-115022177D01*
X155673976Y-114861758D01*
X155752995Y-114713924D01*
X155752996Y-114713922D01*
X155859341Y-114584341D01*
X155988922Y-114477996D01*
X156004094Y-114469886D01*
X156136758Y-114398976D01*
X156297177Y-114350313D01*
X156422196Y-114338000D01*
X156505804Y-114338000D01*
X156630823Y-114350313D01*
X156630823Y-114350313D01*
G37*
G36*
X154090823Y-114350313D02*
G01*
X154251242Y-114398976D01*
X154383906Y-114469886D01*
X154399078Y-114477996D01*
X154528659Y-114584341D01*
X154635004Y-114713922D01*
X154635005Y-114713924D01*
X154714024Y-114861758D01*
X154762687Y-115022177D01*
X154779117Y-115189000D01*
X154762687Y-115355823D01*
X154714024Y-115516242D01*
X154659824Y-115617643D01*
X154635004Y-115664078D01*
X154528659Y-115793659D01*
X154399078Y-115900004D01*
X154399076Y-115900005D01*
X154251242Y-115979024D01*
X154090823Y-116027687D01*
X153965804Y-116040000D01*
X153882196Y-116040000D01*
X153757177Y-116027687D01*
X153596758Y-115979024D01*
X153448924Y-115900005D01*
X153448922Y-115900004D01*
X153319341Y-115793659D01*
X153212996Y-115664078D01*
X153188176Y-115617643D01*
X153133976Y-115516242D01*
X153085313Y-115355823D01*
X153068883Y-115189000D01*
X153085313Y-115022177D01*
X153133976Y-114861758D01*
X153212995Y-114713924D01*
X153212996Y-114713922D01*
X153319341Y-114584341D01*
X153448922Y-114477996D01*
X153464094Y-114469886D01*
X153596758Y-114398976D01*
X153757177Y-114350313D01*
X153882196Y-114338000D01*
X153965804Y-114338000D01*
X154090823Y-114350313D01*
X154090823Y-114350313D01*
G37*
G36*
X149010823Y-114350313D02*
G01*
X149171242Y-114398976D01*
X149303906Y-114469886D01*
X149319078Y-114477996D01*
X149448659Y-114584341D01*
X149555004Y-114713922D01*
X149555005Y-114713924D01*
X149634024Y-114861758D01*
X149682687Y-115022177D01*
X149699117Y-115189000D01*
X149682687Y-115355823D01*
X149634024Y-115516242D01*
X149579824Y-115617643D01*
X149555004Y-115664078D01*
X149448659Y-115793659D01*
X149319078Y-115900004D01*
X149319076Y-115900005D01*
X149171242Y-115979024D01*
X149010823Y-116027687D01*
X148885804Y-116040000D01*
X148802196Y-116040000D01*
X148677177Y-116027687D01*
X148516758Y-115979024D01*
X148368924Y-115900005D01*
X148368922Y-115900004D01*
X148239341Y-115793659D01*
X148132996Y-115664078D01*
X148108176Y-115617643D01*
X148053976Y-115516242D01*
X148005313Y-115355823D01*
X147988883Y-115189000D01*
X148005313Y-115022177D01*
X148053976Y-114861758D01*
X148132995Y-114713924D01*
X148132996Y-114713922D01*
X148239341Y-114584341D01*
X148368922Y-114477996D01*
X148384094Y-114469886D01*
X148516758Y-114398976D01*
X148677177Y-114350313D01*
X148802196Y-114338000D01*
X148885804Y-114338000D01*
X149010823Y-114350313D01*
X149010823Y-114350313D01*
G37*
G36*
X146470823Y-114350313D02*
G01*
X146631242Y-114398976D01*
X146763906Y-114469886D01*
X146779078Y-114477996D01*
X146908659Y-114584341D01*
X147015004Y-114713922D01*
X147015005Y-114713924D01*
X147094024Y-114861758D01*
X147142687Y-115022177D01*
X147159117Y-115189000D01*
X147142687Y-115355823D01*
X147094024Y-115516242D01*
X147039824Y-115617643D01*
X147015004Y-115664078D01*
X146908659Y-115793659D01*
X146779078Y-115900004D01*
X146779076Y-115900005D01*
X146631242Y-115979024D01*
X146470823Y-116027687D01*
X146345804Y-116040000D01*
X146262196Y-116040000D01*
X146137177Y-116027687D01*
X145976758Y-115979024D01*
X145828924Y-115900005D01*
X145828922Y-115900004D01*
X145699341Y-115793659D01*
X145592996Y-115664078D01*
X145568176Y-115617643D01*
X145513976Y-115516242D01*
X145465313Y-115355823D01*
X145448883Y-115189000D01*
X145465313Y-115022177D01*
X145513976Y-114861758D01*
X145592995Y-114713924D01*
X145592996Y-114713922D01*
X145699341Y-114584341D01*
X145828922Y-114477996D01*
X145844094Y-114469886D01*
X145976758Y-114398976D01*
X146137177Y-114350313D01*
X146262196Y-114338000D01*
X146345804Y-114338000D01*
X146470823Y-114350313D01*
X146470823Y-114350313D01*
G37*
G36*
X143930823Y-114350313D02*
G01*
X144091242Y-114398976D01*
X144223906Y-114469886D01*
X144239078Y-114477996D01*
X144368659Y-114584341D01*
X144475004Y-114713922D01*
X144475005Y-114713924D01*
X144554024Y-114861758D01*
X144602687Y-115022177D01*
X144619117Y-115189000D01*
X144602687Y-115355823D01*
X144554024Y-115516242D01*
X144499824Y-115617643D01*
X144475004Y-115664078D01*
X144368659Y-115793659D01*
X144239078Y-115900004D01*
X144239076Y-115900005D01*
X144091242Y-115979024D01*
X143930823Y-116027687D01*
X143805804Y-116040000D01*
X143722196Y-116040000D01*
X143597177Y-116027687D01*
X143436758Y-115979024D01*
X143288924Y-115900005D01*
X143288922Y-115900004D01*
X143159341Y-115793659D01*
X143052996Y-115664078D01*
X143028176Y-115617643D01*
X142973976Y-115516242D01*
X142925313Y-115355823D01*
X142908883Y-115189000D01*
X142925313Y-115022177D01*
X142973976Y-114861758D01*
X143052995Y-114713924D01*
X143052996Y-114713922D01*
X143159341Y-114584341D01*
X143288922Y-114477996D01*
X143304094Y-114469886D01*
X143436758Y-114398976D01*
X143597177Y-114350313D01*
X143722196Y-114338000D01*
X143805804Y-114338000D01*
X143930823Y-114350313D01*
X143930823Y-114350313D01*
G37*
G36*
X141390823Y-114350313D02*
G01*
X141551242Y-114398976D01*
X141683906Y-114469886D01*
X141699078Y-114477996D01*
X141828659Y-114584341D01*
X141935004Y-114713922D01*
X141935005Y-114713924D01*
X142014024Y-114861758D01*
X142062687Y-115022177D01*
X142079117Y-115189000D01*
X142062687Y-115355823D01*
X142014024Y-115516242D01*
X141959824Y-115617643D01*
X141935004Y-115664078D01*
X141828659Y-115793659D01*
X141699078Y-115900004D01*
X141699076Y-115900005D01*
X141551242Y-115979024D01*
X141390823Y-116027687D01*
X141265804Y-116040000D01*
X141182196Y-116040000D01*
X141057177Y-116027687D01*
X140896758Y-115979024D01*
X140748924Y-115900005D01*
X140748922Y-115900004D01*
X140619341Y-115793659D01*
X140512996Y-115664078D01*
X140488176Y-115617643D01*
X140433976Y-115516242D01*
X140385313Y-115355823D01*
X140368883Y-115189000D01*
X140385313Y-115022177D01*
X140433976Y-114861758D01*
X140512995Y-114713924D01*
X140512996Y-114713922D01*
X140619341Y-114584341D01*
X140748922Y-114477996D01*
X140764094Y-114469886D01*
X140896758Y-114398976D01*
X141057177Y-114350313D01*
X141182196Y-114338000D01*
X141265804Y-114338000D01*
X141390823Y-114350313D01*
X141390823Y-114350313D01*
G37*
G36*
X138850823Y-114350313D02*
G01*
X139011242Y-114398976D01*
X139143906Y-114469886D01*
X139159078Y-114477996D01*
X139288659Y-114584341D01*
X139395004Y-114713922D01*
X139395005Y-114713924D01*
X139474024Y-114861758D01*
X139522687Y-115022177D01*
X139539117Y-115189000D01*
X139522687Y-115355823D01*
X139474024Y-115516242D01*
X139419824Y-115617643D01*
X139395004Y-115664078D01*
X139288659Y-115793659D01*
X139159078Y-115900004D01*
X139159076Y-115900005D01*
X139011242Y-115979024D01*
X138850823Y-116027687D01*
X138725804Y-116040000D01*
X138642196Y-116040000D01*
X138517177Y-116027687D01*
X138356758Y-115979024D01*
X138208924Y-115900005D01*
X138208922Y-115900004D01*
X138079341Y-115793659D01*
X137972996Y-115664078D01*
X137948176Y-115617643D01*
X137893976Y-115516242D01*
X137845313Y-115355823D01*
X137828883Y-115189000D01*
X137845313Y-115022177D01*
X137893976Y-114861758D01*
X137972995Y-114713924D01*
X137972996Y-114713922D01*
X138079341Y-114584341D01*
X138208922Y-114477996D01*
X138224094Y-114469886D01*
X138356758Y-114398976D01*
X138517177Y-114350313D01*
X138642196Y-114338000D01*
X138725804Y-114338000D01*
X138850823Y-114350313D01*
X138850823Y-114350313D01*
G37*
G36*
X136310823Y-114350313D02*
G01*
X136471242Y-114398976D01*
X136603906Y-114469886D01*
X136619078Y-114477996D01*
X136748659Y-114584341D01*
X136855004Y-114713922D01*
X136855005Y-114713924D01*
X136934024Y-114861758D01*
X136982687Y-115022177D01*
X136999117Y-115189000D01*
X136982687Y-115355823D01*
X136934024Y-115516242D01*
X136879824Y-115617643D01*
X136855004Y-115664078D01*
X136748659Y-115793659D01*
X136619078Y-115900004D01*
X136619076Y-115900005D01*
X136471242Y-115979024D01*
X136310823Y-116027687D01*
X136185804Y-116040000D01*
X136102196Y-116040000D01*
X135977177Y-116027687D01*
X135816758Y-115979024D01*
X135668924Y-115900005D01*
X135668922Y-115900004D01*
X135539341Y-115793659D01*
X135432996Y-115664078D01*
X135408176Y-115617643D01*
X135353976Y-115516242D01*
X135305313Y-115355823D01*
X135288883Y-115189000D01*
X135305313Y-115022177D01*
X135353976Y-114861758D01*
X135432995Y-114713924D01*
X135432996Y-114713922D01*
X135539341Y-114584341D01*
X135668922Y-114477996D01*
X135684094Y-114469886D01*
X135816758Y-114398976D01*
X135977177Y-114350313D01*
X136102196Y-114338000D01*
X136185804Y-114338000D01*
X136310823Y-114350313D01*
X136310823Y-114350313D01*
G37*
G36*
X133770823Y-114350313D02*
G01*
X133931242Y-114398976D01*
X134063906Y-114469886D01*
X134079078Y-114477996D01*
X134208659Y-114584341D01*
X134315004Y-114713922D01*
X134315005Y-114713924D01*
X134394024Y-114861758D01*
X134442687Y-115022177D01*
X134459117Y-115189000D01*
X134442687Y-115355823D01*
X134394024Y-115516242D01*
X134339824Y-115617643D01*
X134315004Y-115664078D01*
X134208659Y-115793659D01*
X134079078Y-115900004D01*
X134079076Y-115900005D01*
X133931242Y-115979024D01*
X133770823Y-116027687D01*
X133645804Y-116040000D01*
X133562196Y-116040000D01*
X133437177Y-116027687D01*
X133276758Y-115979024D01*
X133128924Y-115900005D01*
X133128922Y-115900004D01*
X132999341Y-115793659D01*
X132892996Y-115664078D01*
X132868176Y-115617643D01*
X132813976Y-115516242D01*
X132765313Y-115355823D01*
X132748883Y-115189000D01*
X132765313Y-115022177D01*
X132813976Y-114861758D01*
X132892995Y-114713924D01*
X132892996Y-114713922D01*
X132999341Y-114584341D01*
X133128922Y-114477996D01*
X133144094Y-114469886D01*
X133276758Y-114398976D01*
X133437177Y-114350313D01*
X133562196Y-114338000D01*
X133645804Y-114338000D01*
X133770823Y-114350313D01*
X133770823Y-114350313D01*
G37*
G36*
X131915000Y-116040000D02*
G01*
X130213000Y-116040000D01*
X130213000Y-114338000D01*
X131915000Y-114338000D01*
X131915000Y-116040000D01*
X131915000Y-116040000D01*
G37*
G36*
X166790823Y-114350313D02*
G01*
X166951242Y-114398976D01*
X167083906Y-114469886D01*
X167099078Y-114477996D01*
X167228659Y-114584341D01*
X167335004Y-114713922D01*
X167335005Y-114713924D01*
X167414024Y-114861758D01*
X167462687Y-115022177D01*
X167479117Y-115189000D01*
X167462687Y-115355823D01*
X167414024Y-115516242D01*
X167359824Y-115617643D01*
X167335004Y-115664078D01*
X167228659Y-115793659D01*
X167099078Y-115900004D01*
X167099076Y-115900005D01*
X166951242Y-115979024D01*
X166790823Y-116027687D01*
X166665804Y-116040000D01*
X166582196Y-116040000D01*
X166457177Y-116027687D01*
X166296758Y-115979024D01*
X166148924Y-115900005D01*
X166148922Y-115900004D01*
X166019341Y-115793659D01*
X165912996Y-115664078D01*
X165888176Y-115617643D01*
X165833976Y-115516242D01*
X165785313Y-115355823D01*
X165768883Y-115189000D01*
X165785313Y-115022177D01*
X165833976Y-114861758D01*
X165912995Y-114713924D01*
X165912996Y-114713922D01*
X166019341Y-114584341D01*
X166148922Y-114477996D01*
X166164094Y-114469886D01*
X166296758Y-114398976D01*
X166457177Y-114350313D01*
X166582196Y-114338000D01*
X166665804Y-114338000D01*
X166790823Y-114350313D01*
X166790823Y-114350313D01*
G37*
G36*
X118757000Y-115201000D02*
G01*
X116955000Y-115201000D01*
X116955000Y-113399000D01*
X118757000Y-113399000D01*
X118757000Y-115201000D01*
X118757000Y-115201000D01*
G37*
G36*
X120506443Y-113405519D02*
G01*
X120572627Y-113412037D01*
X120742466Y-113463557D01*
X120898991Y-113547222D01*
X120934729Y-113576552D01*
X121036186Y-113659814D01*
X121110099Y-113749879D01*
X121148778Y-113797009D01*
X121232443Y-113953534D01*
X121283963Y-114123373D01*
X121301359Y-114300000D01*
X121283963Y-114476627D01*
X121232443Y-114646466D01*
X121148778Y-114802991D01*
X121144667Y-114808000D01*
X121036186Y-114940186D01*
X120939078Y-115019879D01*
X120898991Y-115052778D01*
X120742466Y-115136443D01*
X120572627Y-115187963D01*
X120506442Y-115194482D01*
X120440260Y-115201000D01*
X120351740Y-115201000D01*
X120285558Y-115194482D01*
X120219373Y-115187963D01*
X120049534Y-115136443D01*
X119893009Y-115052778D01*
X119852922Y-115019879D01*
X119755814Y-114940186D01*
X119647333Y-114808000D01*
X119643222Y-114802991D01*
X119559557Y-114646466D01*
X119508037Y-114476627D01*
X119490641Y-114300000D01*
X119508037Y-114123373D01*
X119559557Y-113953534D01*
X119643222Y-113797009D01*
X119681901Y-113749879D01*
X119755814Y-113659814D01*
X119857271Y-113576552D01*
X119893009Y-113547222D01*
X120049534Y-113463557D01*
X120219373Y-113412037D01*
X120285557Y-113405519D01*
X120351740Y-113399000D01*
X120440260Y-113399000D01*
X120506443Y-113405519D01*
X120506443Y-113405519D01*
G37*
G36*
X123046443Y-113405519D02*
G01*
X123112627Y-113412037D01*
X123282466Y-113463557D01*
X123438991Y-113547222D01*
X123474729Y-113576552D01*
X123576186Y-113659814D01*
X123650099Y-113749879D01*
X123688778Y-113797009D01*
X123772443Y-113953534D01*
X123823963Y-114123373D01*
X123841359Y-114300000D01*
X123823963Y-114476627D01*
X123772443Y-114646466D01*
X123688778Y-114802991D01*
X123684667Y-114808000D01*
X123576186Y-114940186D01*
X123479078Y-115019879D01*
X123438991Y-115052778D01*
X123282466Y-115136443D01*
X123112627Y-115187963D01*
X123046442Y-115194482D01*
X122980260Y-115201000D01*
X122891740Y-115201000D01*
X122825558Y-115194482D01*
X122759373Y-115187963D01*
X122589534Y-115136443D01*
X122433009Y-115052778D01*
X122392922Y-115019879D01*
X122295814Y-114940186D01*
X122187333Y-114808000D01*
X122183222Y-114802991D01*
X122099557Y-114646466D01*
X122048037Y-114476627D01*
X122030641Y-114300000D01*
X122048037Y-114123373D01*
X122099557Y-113953534D01*
X122183222Y-113797009D01*
X122221901Y-113749879D01*
X122295814Y-113659814D01*
X122397271Y-113576552D01*
X122433009Y-113547222D01*
X122589534Y-113463557D01*
X122759373Y-113412037D01*
X122825557Y-113405519D01*
X122891740Y-113399000D01*
X122980260Y-113399000D01*
X123046443Y-113405519D01*
X123046443Y-113405519D01*
G37*
G36*
X125586443Y-113405519D02*
G01*
X125652627Y-113412037D01*
X125822466Y-113463557D01*
X125978991Y-113547222D01*
X126014729Y-113576552D01*
X126116186Y-113659814D01*
X126190099Y-113749879D01*
X126228778Y-113797009D01*
X126312443Y-113953534D01*
X126363963Y-114123373D01*
X126381359Y-114300000D01*
X126363963Y-114476627D01*
X126312443Y-114646466D01*
X126228778Y-114802991D01*
X126224667Y-114808000D01*
X126116186Y-114940186D01*
X126019078Y-115019879D01*
X125978991Y-115052778D01*
X125822466Y-115136443D01*
X125652627Y-115187963D01*
X125586442Y-115194482D01*
X125520260Y-115201000D01*
X125431740Y-115201000D01*
X125365558Y-115194482D01*
X125299373Y-115187963D01*
X125129534Y-115136443D01*
X124973009Y-115052778D01*
X124932922Y-115019879D01*
X124835814Y-114940186D01*
X124727333Y-114808000D01*
X124723222Y-114802991D01*
X124639557Y-114646466D01*
X124588037Y-114476627D01*
X124570641Y-114300000D01*
X124588037Y-114123373D01*
X124639557Y-113953534D01*
X124723222Y-113797009D01*
X124761901Y-113749879D01*
X124835814Y-113659814D01*
X124937271Y-113576552D01*
X124973009Y-113547222D01*
X125129534Y-113463557D01*
X125299373Y-113412037D01*
X125365557Y-113405519D01*
X125431740Y-113399000D01*
X125520260Y-113399000D01*
X125586443Y-113405519D01*
X125586443Y-113405519D01*
G37*
G36*
X154267000Y-112103000D02*
G01*
X152565000Y-112103000D01*
X152565000Y-110401000D01*
X154267000Y-110401000D01*
X154267000Y-112103000D01*
X154267000Y-112103000D01*
G37*
G36*
X156122823Y-110413313D02*
G01*
X156283242Y-110461976D01*
X156415906Y-110532886D01*
X156431078Y-110540996D01*
X156560659Y-110647341D01*
X156667004Y-110776922D01*
X156667005Y-110776924D01*
X156746024Y-110924758D01*
X156794687Y-111085177D01*
X156811117Y-111252000D01*
X156794687Y-111418823D01*
X156746024Y-111579242D01*
X156675114Y-111711906D01*
X156667004Y-111727078D01*
X156560659Y-111856659D01*
X156431078Y-111963004D01*
X156431076Y-111963005D01*
X156283242Y-112042024D01*
X156122823Y-112090687D01*
X155997804Y-112103000D01*
X155914196Y-112103000D01*
X155789177Y-112090687D01*
X155628758Y-112042024D01*
X155480924Y-111963005D01*
X155480922Y-111963004D01*
X155351341Y-111856659D01*
X155244996Y-111727078D01*
X155236886Y-111711906D01*
X155165976Y-111579242D01*
X155117313Y-111418823D01*
X155100883Y-111252000D01*
X155117313Y-111085177D01*
X155165976Y-110924758D01*
X155244995Y-110776924D01*
X155244996Y-110776922D01*
X155351341Y-110647341D01*
X155480922Y-110540996D01*
X155496094Y-110532886D01*
X155628758Y-110461976D01*
X155789177Y-110413313D01*
X155914196Y-110401000D01*
X155997804Y-110401000D01*
X156122823Y-110413313D01*
X156122823Y-110413313D01*
G37*
G36*
X130354564Y-108010389D02*
G01*
X130545833Y-108089615D01*
X130545835Y-108089616D01*
X130717973Y-108204635D01*
X130864365Y-108351027D01*
X130979385Y-108523167D01*
X131058611Y-108714436D01*
X131099000Y-108917484D01*
X131099000Y-109124516D01*
X131058611Y-109327564D01*
X130979385Y-109518833D01*
X130979384Y-109518835D01*
X130864365Y-109690973D01*
X130717973Y-109837365D01*
X130545835Y-109952384D01*
X130545834Y-109952385D01*
X130545833Y-109952385D01*
X130354564Y-110031611D01*
X130151516Y-110072000D01*
X129944484Y-110072000D01*
X129741436Y-110031611D01*
X129550167Y-109952385D01*
X129550166Y-109952385D01*
X129550165Y-109952384D01*
X129378027Y-109837365D01*
X129231635Y-109690973D01*
X129116616Y-109518835D01*
X129116615Y-109518833D01*
X129037389Y-109327564D01*
X128997000Y-109124516D01*
X128997000Y-108917484D01*
X129037389Y-108714436D01*
X129116615Y-108523167D01*
X129231635Y-108351027D01*
X129378027Y-108204635D01*
X129550165Y-108089616D01*
X129550167Y-108089615D01*
X129741436Y-108010389D01*
X129944484Y-107970000D01*
X130151516Y-107970000D01*
X130354564Y-108010389D01*
X130354564Y-108010389D01*
G37*
G36*
X136854564Y-108010389D02*
G01*
X137045833Y-108089615D01*
X137045835Y-108089616D01*
X137217973Y-108204635D01*
X137364365Y-108351027D01*
X137479385Y-108523167D01*
X137558611Y-108714436D01*
X137599000Y-108917484D01*
X137599000Y-109124516D01*
X137558611Y-109327564D01*
X137479385Y-109518833D01*
X137479384Y-109518835D01*
X137364365Y-109690973D01*
X137217973Y-109837365D01*
X137045835Y-109952384D01*
X137045834Y-109952385D01*
X137045833Y-109952385D01*
X136854564Y-110031611D01*
X136651516Y-110072000D01*
X136444484Y-110072000D01*
X136241436Y-110031611D01*
X136050167Y-109952385D01*
X136050166Y-109952385D01*
X136050165Y-109952384D01*
X135878027Y-109837365D01*
X135731635Y-109690973D01*
X135616616Y-109518835D01*
X135616615Y-109518833D01*
X135537389Y-109327564D01*
X135497000Y-109124516D01*
X135497000Y-108917484D01*
X135537389Y-108714436D01*
X135616615Y-108523167D01*
X135731635Y-108351027D01*
X135878027Y-108204635D01*
X136050165Y-108089616D01*
X136050167Y-108089615D01*
X136241436Y-108010389D01*
X136444484Y-107970000D01*
X136651516Y-107970000D01*
X136854564Y-108010389D01*
X136854564Y-108010389D01*
G37*
G36*
X148538564Y-108010389D02*
G01*
X148729833Y-108089615D01*
X148729835Y-108089616D01*
X148901973Y-108204635D01*
X149048365Y-108351027D01*
X149163385Y-108523167D01*
X149242611Y-108714436D01*
X149283000Y-108917484D01*
X149283000Y-109124516D01*
X149242611Y-109327564D01*
X149163385Y-109518833D01*
X149163384Y-109518835D01*
X149048365Y-109690973D01*
X148901973Y-109837365D01*
X148729835Y-109952384D01*
X148729834Y-109952385D01*
X148729833Y-109952385D01*
X148538564Y-110031611D01*
X148335516Y-110072000D01*
X148128484Y-110072000D01*
X147925436Y-110031611D01*
X147734167Y-109952385D01*
X147734166Y-109952385D01*
X147734165Y-109952384D01*
X147562027Y-109837365D01*
X147415635Y-109690973D01*
X147300616Y-109518835D01*
X147300615Y-109518833D01*
X147221389Y-109327564D01*
X147181000Y-109124516D01*
X147181000Y-108917484D01*
X147221389Y-108714436D01*
X147300615Y-108523167D01*
X147415635Y-108351027D01*
X147562027Y-108204635D01*
X147734165Y-108089616D01*
X147734167Y-108089615D01*
X147925436Y-108010389D01*
X148128484Y-107970000D01*
X148335516Y-107970000D01*
X148538564Y-108010389D01*
X148538564Y-108010389D01*
G37*
G36*
X142038564Y-108010389D02*
G01*
X142229833Y-108089615D01*
X142229835Y-108089616D01*
X142401973Y-108204635D01*
X142548365Y-108351027D01*
X142663385Y-108523167D01*
X142742611Y-108714436D01*
X142783000Y-108917484D01*
X142783000Y-109124516D01*
X142742611Y-109327564D01*
X142663385Y-109518833D01*
X142663384Y-109518835D01*
X142548365Y-109690973D01*
X142401973Y-109837365D01*
X142229835Y-109952384D01*
X142229834Y-109952385D01*
X142229833Y-109952385D01*
X142038564Y-110031611D01*
X141835516Y-110072000D01*
X141628484Y-110072000D01*
X141425436Y-110031611D01*
X141234167Y-109952385D01*
X141234166Y-109952385D01*
X141234165Y-109952384D01*
X141062027Y-109837365D01*
X140915635Y-109690973D01*
X140800616Y-109518835D01*
X140800615Y-109518833D01*
X140721389Y-109327564D01*
X140681000Y-109124516D01*
X140681000Y-108917484D01*
X140721389Y-108714436D01*
X140800615Y-108523167D01*
X140915635Y-108351027D01*
X141062027Y-108204635D01*
X141234165Y-108089616D01*
X141234167Y-108089615D01*
X141425436Y-108010389D01*
X141628484Y-107970000D01*
X141835516Y-107970000D01*
X142038564Y-108010389D01*
X142038564Y-108010389D01*
G37*
G36*
X123184228Y-105734703D02*
G01*
X123339100Y-105798853D01*
X123478481Y-105891985D01*
X123597015Y-106010519D01*
X123690147Y-106149900D01*
X123754297Y-106304772D01*
X123787000Y-106469184D01*
X123787000Y-106636816D01*
X123754297Y-106801228D01*
X123690147Y-106956100D01*
X123597015Y-107095481D01*
X123478481Y-107214015D01*
X123339100Y-107307147D01*
X123184228Y-107371297D01*
X123019816Y-107404000D01*
X122852184Y-107404000D01*
X122687772Y-107371297D01*
X122532900Y-107307147D01*
X122393519Y-107214015D01*
X122274985Y-107095481D01*
X122181853Y-106956100D01*
X122117703Y-106801228D01*
X122085000Y-106636816D01*
X122085000Y-106469184D01*
X122117703Y-106304772D01*
X122181853Y-106149900D01*
X122274985Y-106010519D01*
X122393519Y-105891985D01*
X122532900Y-105798853D01*
X122687772Y-105734703D01*
X122852184Y-105702000D01*
X123019816Y-105702000D01*
X123184228Y-105734703D01*
X123184228Y-105734703D01*
G37*
G36*
X112942823Y-105714313D02*
G01*
X113103242Y-105762976D01*
X113170361Y-105798852D01*
X113251078Y-105841996D01*
X113380659Y-105948341D01*
X113487004Y-106077922D01*
X113487005Y-106077924D01*
X113566024Y-106225758D01*
X113614687Y-106386177D01*
X113631117Y-106553000D01*
X113614687Y-106719823D01*
X113566024Y-106880242D01*
X113525477Y-106956100D01*
X113487004Y-107028078D01*
X113380659Y-107157659D01*
X113251078Y-107264004D01*
X113251076Y-107264005D01*
X113103242Y-107343024D01*
X112942823Y-107391687D01*
X112817804Y-107404000D01*
X112734196Y-107404000D01*
X112609177Y-107391687D01*
X112448758Y-107343024D01*
X112300924Y-107264005D01*
X112300922Y-107264004D01*
X112171341Y-107157659D01*
X112064996Y-107028078D01*
X112026523Y-106956100D01*
X111985976Y-106880242D01*
X111937313Y-106719823D01*
X111920883Y-106553000D01*
X111937313Y-106386177D01*
X111985976Y-106225758D01*
X112064995Y-106077924D01*
X112064996Y-106077922D01*
X112171341Y-105948341D01*
X112300922Y-105841996D01*
X112381639Y-105798852D01*
X112448758Y-105762976D01*
X112609177Y-105714313D01*
X112734196Y-105702000D01*
X112817804Y-105702000D01*
X112942823Y-105714313D01*
X112942823Y-105714313D01*
G37*
G36*
X108481395Y-104495546D02*
G01*
X108654466Y-104567234D01*
X108654467Y-104567235D01*
X108810227Y-104671310D01*
X108942690Y-104803773D01*
X108958587Y-104827565D01*
X109046766Y-104959534D01*
X109118454Y-105132605D01*
X109155000Y-105316333D01*
X109155000Y-105503667D01*
X109118454Y-105687395D01*
X109046766Y-105860466D01*
X108995081Y-105937818D01*
X108942690Y-106016227D01*
X108810227Y-106148690D01*
X108731818Y-106201081D01*
X108654466Y-106252766D01*
X108481395Y-106324454D01*
X108297667Y-106361000D01*
X108110333Y-106361000D01*
X107926605Y-106324454D01*
X107753534Y-106252766D01*
X107676182Y-106201081D01*
X107597773Y-106148690D01*
X107465310Y-106016227D01*
X107412919Y-105937818D01*
X107361234Y-105860466D01*
X107289546Y-105687395D01*
X107253000Y-105503667D01*
X107253000Y-105316333D01*
X107289546Y-105132605D01*
X107361234Y-104959534D01*
X107449413Y-104827565D01*
X107465310Y-104803773D01*
X107597773Y-104671310D01*
X107753533Y-104567235D01*
X107753534Y-104567234D01*
X107926605Y-104495546D01*
X108110333Y-104459000D01*
X108297667Y-104459000D01*
X108481395Y-104495546D01*
X108481395Y-104495546D01*
G37*
G36*
X106615000Y-106361000D02*
G01*
X104713000Y-106361000D01*
X104713000Y-104459000D01*
X106615000Y-104459000D01*
X106615000Y-106361000D01*
X106615000Y-106361000D01*
G37*
G36*
X136854564Y-103510389D02*
G01*
X137045833Y-103589615D01*
X137045835Y-103589616D01*
X137109267Y-103632000D01*
X137217973Y-103704635D01*
X137364365Y-103851027D01*
X137479385Y-104023167D01*
X137558611Y-104214436D01*
X137599000Y-104417484D01*
X137599000Y-104624516D01*
X137558611Y-104827564D01*
X137503947Y-104959534D01*
X137479384Y-105018835D01*
X137364365Y-105190973D01*
X137217973Y-105337365D01*
X137045835Y-105452384D01*
X137045834Y-105452385D01*
X137045833Y-105452385D01*
X136854564Y-105531611D01*
X136651516Y-105572000D01*
X136444484Y-105572000D01*
X136241436Y-105531611D01*
X136050167Y-105452385D01*
X136050166Y-105452385D01*
X136050165Y-105452384D01*
X135878027Y-105337365D01*
X135731635Y-105190973D01*
X135616616Y-105018835D01*
X135592053Y-104959534D01*
X135537389Y-104827564D01*
X135497000Y-104624516D01*
X135497000Y-104417484D01*
X135537389Y-104214436D01*
X135616615Y-104023167D01*
X135731635Y-103851027D01*
X135878027Y-103704635D01*
X135986733Y-103632000D01*
X136050165Y-103589616D01*
X136050167Y-103589615D01*
X136241436Y-103510389D01*
X136444484Y-103470000D01*
X136651516Y-103470000D01*
X136854564Y-103510389D01*
X136854564Y-103510389D01*
G37*
G36*
X148538564Y-103510389D02*
G01*
X148729833Y-103589615D01*
X148729835Y-103589616D01*
X148793267Y-103632000D01*
X148901973Y-103704635D01*
X149048365Y-103851027D01*
X149163385Y-104023167D01*
X149242611Y-104214436D01*
X149283000Y-104417484D01*
X149283000Y-104624516D01*
X149242611Y-104827564D01*
X149187947Y-104959534D01*
X149163384Y-105018835D01*
X149048365Y-105190973D01*
X148901973Y-105337365D01*
X148729835Y-105452384D01*
X148729834Y-105452385D01*
X148729833Y-105452385D01*
X148538564Y-105531611D01*
X148335516Y-105572000D01*
X148128484Y-105572000D01*
X147925436Y-105531611D01*
X147734167Y-105452385D01*
X147734166Y-105452385D01*
X147734165Y-105452384D01*
X147562027Y-105337365D01*
X147415635Y-105190973D01*
X147300616Y-105018835D01*
X147276053Y-104959534D01*
X147221389Y-104827564D01*
X147181000Y-104624516D01*
X147181000Y-104417484D01*
X147221389Y-104214436D01*
X147300615Y-104023167D01*
X147415635Y-103851027D01*
X147562027Y-103704635D01*
X147670733Y-103632000D01*
X147734165Y-103589616D01*
X147734167Y-103589615D01*
X147925436Y-103510389D01*
X148128484Y-103470000D01*
X148335516Y-103470000D01*
X148538564Y-103510389D01*
X148538564Y-103510389D01*
G37*
G36*
X130354564Y-103510389D02*
G01*
X130545833Y-103589615D01*
X130545835Y-103589616D01*
X130609267Y-103632000D01*
X130717973Y-103704635D01*
X130864365Y-103851027D01*
X130979385Y-104023167D01*
X131058611Y-104214436D01*
X131099000Y-104417484D01*
X131099000Y-104624516D01*
X131058611Y-104827564D01*
X131003947Y-104959534D01*
X130979384Y-105018835D01*
X130864365Y-105190973D01*
X130717973Y-105337365D01*
X130545835Y-105452384D01*
X130545834Y-105452385D01*
X130545833Y-105452385D01*
X130354564Y-105531611D01*
X130151516Y-105572000D01*
X129944484Y-105572000D01*
X129741436Y-105531611D01*
X129550167Y-105452385D01*
X129550166Y-105452385D01*
X129550165Y-105452384D01*
X129378027Y-105337365D01*
X129231635Y-105190973D01*
X129116616Y-105018835D01*
X129092053Y-104959534D01*
X129037389Y-104827564D01*
X128997000Y-104624516D01*
X128997000Y-104417484D01*
X129037389Y-104214436D01*
X129116615Y-104023167D01*
X129231635Y-103851027D01*
X129378027Y-103704635D01*
X129486733Y-103632000D01*
X129550165Y-103589616D01*
X129550167Y-103589615D01*
X129741436Y-103510389D01*
X129944484Y-103470000D01*
X130151516Y-103470000D01*
X130354564Y-103510389D01*
X130354564Y-103510389D01*
G37*
G36*
X142038564Y-103510389D02*
G01*
X142229833Y-103589615D01*
X142229835Y-103589616D01*
X142293267Y-103632000D01*
X142401973Y-103704635D01*
X142548365Y-103851027D01*
X142663385Y-104023167D01*
X142742611Y-104214436D01*
X142783000Y-104417484D01*
X142783000Y-104624516D01*
X142742611Y-104827564D01*
X142687947Y-104959534D01*
X142663384Y-105018835D01*
X142548365Y-105190973D01*
X142401973Y-105337365D01*
X142229835Y-105452384D01*
X142229834Y-105452385D01*
X142229833Y-105452385D01*
X142038564Y-105531611D01*
X141835516Y-105572000D01*
X141628484Y-105572000D01*
X141425436Y-105531611D01*
X141234167Y-105452385D01*
X141234166Y-105452385D01*
X141234165Y-105452384D01*
X141062027Y-105337365D01*
X140915635Y-105190973D01*
X140800616Y-105018835D01*
X140776053Y-104959534D01*
X140721389Y-104827564D01*
X140681000Y-104624516D01*
X140681000Y-104417484D01*
X140721389Y-104214436D01*
X140800615Y-104023167D01*
X140915635Y-103851027D01*
X141062027Y-103704635D01*
X141170733Y-103632000D01*
X141234165Y-103589616D01*
X141234167Y-103589615D01*
X141425436Y-103510389D01*
X141628484Y-103470000D01*
X141835516Y-103470000D01*
X142038564Y-103510389D01*
X142038564Y-103510389D01*
G37*
G36*
X153582823Y-102793313D02*
G01*
X153743242Y-102841976D01*
X153848100Y-102898024D01*
X153891078Y-102920996D01*
X154020659Y-103027341D01*
X154127004Y-103156922D01*
X154127005Y-103156924D01*
X154206024Y-103304758D01*
X154254687Y-103465177D01*
X154271117Y-103632000D01*
X154254687Y-103798823D01*
X154206024Y-103959242D01*
X154171856Y-104023165D01*
X154127004Y-104107078D01*
X154020659Y-104236659D01*
X153891078Y-104343004D01*
X153891076Y-104343005D01*
X153743242Y-104422024D01*
X153582823Y-104470687D01*
X153457804Y-104483000D01*
X153374196Y-104483000D01*
X153249177Y-104470687D01*
X153088758Y-104422024D01*
X152940924Y-104343005D01*
X152940922Y-104343004D01*
X152811341Y-104236659D01*
X152704996Y-104107078D01*
X152660144Y-104023165D01*
X152625976Y-103959242D01*
X152577313Y-103798823D01*
X152560883Y-103632000D01*
X152577313Y-103465177D01*
X152625976Y-103304758D01*
X152704995Y-103156924D01*
X152704996Y-103156922D01*
X152811341Y-103027341D01*
X152940922Y-102920996D01*
X152983900Y-102898024D01*
X153088758Y-102841976D01*
X153249177Y-102793313D01*
X153374196Y-102781000D01*
X153457804Y-102781000D01*
X153582823Y-102793313D01*
X153582823Y-102793313D01*
G37*
G36*
X156122823Y-102793313D02*
G01*
X156283242Y-102841976D01*
X156388100Y-102898024D01*
X156431078Y-102920996D01*
X156560659Y-103027341D01*
X156667004Y-103156922D01*
X156667005Y-103156924D01*
X156746024Y-103304758D01*
X156794687Y-103465177D01*
X156811117Y-103632000D01*
X156794687Y-103798823D01*
X156746024Y-103959242D01*
X156711856Y-104023165D01*
X156667004Y-104107078D01*
X156560659Y-104236659D01*
X156431078Y-104343004D01*
X156431076Y-104343005D01*
X156283242Y-104422024D01*
X156122823Y-104470687D01*
X155997804Y-104483000D01*
X155914196Y-104483000D01*
X155789177Y-104470687D01*
X155628758Y-104422024D01*
X155480924Y-104343005D01*
X155480922Y-104343004D01*
X155351341Y-104236659D01*
X155244996Y-104107078D01*
X155200144Y-104023165D01*
X155165976Y-103959242D01*
X155117313Y-103798823D01*
X155100883Y-103632000D01*
X155117313Y-103465177D01*
X155165976Y-103304758D01*
X155244995Y-103156924D01*
X155244996Y-103156922D01*
X155351341Y-103027341D01*
X155480922Y-102920996D01*
X155523900Y-102898024D01*
X155628758Y-102841976D01*
X155789177Y-102793313D01*
X155914196Y-102781000D01*
X155997804Y-102781000D01*
X156122823Y-102793313D01*
X156122823Y-102793313D01*
G37*
G36*
X123184228Y-102178703D02*
G01*
X123339100Y-102242853D01*
X123478481Y-102335985D01*
X123597015Y-102454519D01*
X123690147Y-102593900D01*
X123754297Y-102748772D01*
X123787000Y-102913184D01*
X123787000Y-103080816D01*
X123754297Y-103245228D01*
X123690147Y-103400100D01*
X123597015Y-103539481D01*
X123478481Y-103658015D01*
X123339100Y-103751147D01*
X123184228Y-103815297D01*
X123019816Y-103848000D01*
X122852184Y-103848000D01*
X122687772Y-103815297D01*
X122532900Y-103751147D01*
X122393519Y-103658015D01*
X122274985Y-103539481D01*
X122181853Y-103400100D01*
X122117703Y-103245228D01*
X122085000Y-103080816D01*
X122085000Y-102913184D01*
X122117703Y-102748772D01*
X122181853Y-102593900D01*
X122274985Y-102454519D01*
X122393519Y-102335985D01*
X122532900Y-102242853D01*
X122687772Y-102178703D01*
X122852184Y-102146000D01*
X123019816Y-102146000D01*
X123184228Y-102178703D01*
X123184228Y-102178703D01*
G37*
G36*
X112942823Y-102158313D02*
G01*
X113103242Y-102206976D01*
X113170361Y-102242852D01*
X113251078Y-102285996D01*
X113380659Y-102392341D01*
X113487004Y-102521922D01*
X113487005Y-102521924D01*
X113566024Y-102669758D01*
X113614687Y-102830177D01*
X113631117Y-102997000D01*
X113614687Y-103163823D01*
X113566024Y-103324242D01*
X113525477Y-103400100D01*
X113487004Y-103472078D01*
X113380659Y-103601659D01*
X113251078Y-103708004D01*
X113251076Y-103708005D01*
X113103242Y-103787024D01*
X112942823Y-103835687D01*
X112817804Y-103848000D01*
X112734196Y-103848000D01*
X112609177Y-103835687D01*
X112448758Y-103787024D01*
X112300924Y-103708005D01*
X112300922Y-103708004D01*
X112171341Y-103601659D01*
X112064996Y-103472078D01*
X112026523Y-103400100D01*
X111985976Y-103324242D01*
X111937313Y-103163823D01*
X111920883Y-102997000D01*
X111937313Y-102830177D01*
X111985976Y-102669758D01*
X112064995Y-102521924D01*
X112064996Y-102521922D01*
X112171341Y-102392341D01*
X112300922Y-102285996D01*
X112381639Y-102242852D01*
X112448758Y-102206976D01*
X112609177Y-102158313D01*
X112734196Y-102146000D01*
X112817804Y-102146000D01*
X112942823Y-102158313D01*
X112942823Y-102158313D01*
G37*
G36*
X160268228Y-101289703D02*
G01*
X160423100Y-101353853D01*
X160562481Y-101446985D01*
X160681015Y-101565519D01*
X160774147Y-101704900D01*
X160838297Y-101859772D01*
X160871000Y-102024184D01*
X160871000Y-102191816D01*
X160838297Y-102356228D01*
X160774147Y-102511100D01*
X160681015Y-102650481D01*
X160562481Y-102769015D01*
X160423100Y-102862147D01*
X160268228Y-102926297D01*
X160103816Y-102959000D01*
X159936184Y-102959000D01*
X159771772Y-102926297D01*
X159616900Y-102862147D01*
X159477519Y-102769015D01*
X159358985Y-102650481D01*
X159265853Y-102511100D01*
X159201703Y-102356228D01*
X159169000Y-102191816D01*
X159169000Y-102024184D01*
X159201703Y-101859772D01*
X159265853Y-101704900D01*
X159358985Y-101565519D01*
X159477519Y-101446985D01*
X159616900Y-101353853D01*
X159771772Y-101289703D01*
X159936184Y-101257000D01*
X160103816Y-101257000D01*
X160268228Y-101289703D01*
X160268228Y-101289703D01*
G37*
G36*
X170346823Y-101269313D02*
G01*
X170507242Y-101317976D01*
X170574361Y-101353852D01*
X170655078Y-101396996D01*
X170784659Y-101503341D01*
X170891004Y-101632922D01*
X170891005Y-101632924D01*
X170970024Y-101780758D01*
X171018687Y-101941177D01*
X171035117Y-102108000D01*
X171018687Y-102274823D01*
X170970024Y-102435242D01*
X170923691Y-102521924D01*
X170891004Y-102583078D01*
X170784659Y-102712659D01*
X170655078Y-102819004D01*
X170655076Y-102819005D01*
X170507242Y-102898024D01*
X170346823Y-102946687D01*
X170221804Y-102959000D01*
X170138196Y-102959000D01*
X170013177Y-102946687D01*
X169852758Y-102898024D01*
X169704924Y-102819005D01*
X169704922Y-102819004D01*
X169575341Y-102712659D01*
X169468996Y-102583078D01*
X169436309Y-102521924D01*
X169389976Y-102435242D01*
X169341313Y-102274823D01*
X169324883Y-102108000D01*
X169341313Y-101941177D01*
X169389976Y-101780758D01*
X169468995Y-101632924D01*
X169468996Y-101632922D01*
X169575341Y-101503341D01*
X169704922Y-101396996D01*
X169785639Y-101353852D01*
X169852758Y-101317976D01*
X170013177Y-101269313D01*
X170138196Y-101257000D01*
X170221804Y-101257000D01*
X170346823Y-101269313D01*
X170346823Y-101269313D01*
G37*
G36*
X123184228Y-98749703D02*
G01*
X123339100Y-98813853D01*
X123478481Y-98906985D01*
X123597015Y-99025519D01*
X123690147Y-99164900D01*
X123754297Y-99319772D01*
X123787000Y-99484184D01*
X123787000Y-99651816D01*
X123754297Y-99816228D01*
X123690147Y-99971100D01*
X123597015Y-100110481D01*
X123478481Y-100229015D01*
X123339100Y-100322147D01*
X123184228Y-100386297D01*
X123019816Y-100419000D01*
X122852184Y-100419000D01*
X122687772Y-100386297D01*
X122532900Y-100322147D01*
X122393519Y-100229015D01*
X122274985Y-100110481D01*
X122181853Y-99971100D01*
X122117703Y-99816228D01*
X122085000Y-99651816D01*
X122085000Y-99484184D01*
X122117703Y-99319772D01*
X122181853Y-99164900D01*
X122274985Y-99025519D01*
X122393519Y-98906985D01*
X122532900Y-98813853D01*
X122687772Y-98749703D01*
X122852184Y-98717000D01*
X123019816Y-98717000D01*
X123184228Y-98749703D01*
X123184228Y-98749703D01*
G37*
G36*
X112942823Y-98729313D02*
G01*
X113103242Y-98777976D01*
X113144874Y-98800229D01*
X113251078Y-98856996D01*
X113380659Y-98963341D01*
X113487004Y-99092922D01*
X113487005Y-99092924D01*
X113566024Y-99240758D01*
X113614687Y-99401177D01*
X113631117Y-99568000D01*
X113614687Y-99734823D01*
X113566024Y-99895242D01*
X113525477Y-99971100D01*
X113487004Y-100043078D01*
X113380659Y-100172659D01*
X113251078Y-100279004D01*
X113251076Y-100279005D01*
X113103242Y-100358024D01*
X112942823Y-100406687D01*
X112817804Y-100419000D01*
X112734196Y-100419000D01*
X112609177Y-100406687D01*
X112448758Y-100358024D01*
X112300924Y-100279005D01*
X112300922Y-100279004D01*
X112171341Y-100172659D01*
X112064996Y-100043078D01*
X112026523Y-99971100D01*
X111985976Y-99895242D01*
X111937313Y-99734823D01*
X111920883Y-99568000D01*
X111937313Y-99401177D01*
X111985976Y-99240758D01*
X112064995Y-99092924D01*
X112064996Y-99092922D01*
X112171341Y-98963341D01*
X112300922Y-98856996D01*
X112407126Y-98800229D01*
X112448758Y-98777976D01*
X112609177Y-98729313D01*
X112734196Y-98717000D01*
X112817804Y-98717000D01*
X112942823Y-98729313D01*
X112942823Y-98729313D01*
G37*
G36*
X143747443Y-98292519D02*
G01*
X143813627Y-98299037D01*
X143983466Y-98350557D01*
X144139991Y-98434222D01*
X144175729Y-98463552D01*
X144277186Y-98546814D01*
X144350226Y-98635815D01*
X144389778Y-98684009D01*
X144473443Y-98840534D01*
X144524963Y-99010373D01*
X144542359Y-99187000D01*
X144524963Y-99363627D01*
X144473443Y-99533466D01*
X144389778Y-99689991D01*
X144360448Y-99725729D01*
X144277186Y-99827186D01*
X144194262Y-99895239D01*
X144139991Y-99939778D01*
X143983466Y-100023443D01*
X143813627Y-100074963D01*
X143747443Y-100081481D01*
X143681260Y-100088000D01*
X143592740Y-100088000D01*
X143526558Y-100081482D01*
X143460373Y-100074963D01*
X143290534Y-100023443D01*
X143134009Y-99939778D01*
X143079738Y-99895239D01*
X142996814Y-99827186D01*
X142913552Y-99725729D01*
X142884222Y-99689991D01*
X142800557Y-99533466D01*
X142749037Y-99363627D01*
X142731641Y-99187000D01*
X142749037Y-99010373D01*
X142800557Y-98840534D01*
X142884222Y-98684009D01*
X142923774Y-98635815D01*
X142996814Y-98546814D01*
X143098271Y-98463552D01*
X143134009Y-98434222D01*
X143290534Y-98350557D01*
X143460373Y-98299037D01*
X143526558Y-98292518D01*
X143592740Y-98286000D01*
X143681260Y-98286000D01*
X143747443Y-98292519D01*
X143747443Y-98292519D01*
G37*
G36*
X141207443Y-98292519D02*
G01*
X141273627Y-98299037D01*
X141443466Y-98350557D01*
X141599991Y-98434222D01*
X141635729Y-98463552D01*
X141737186Y-98546814D01*
X141810226Y-98635815D01*
X141849778Y-98684009D01*
X141933443Y-98840534D01*
X141984963Y-99010373D01*
X142002359Y-99187000D01*
X141984963Y-99363627D01*
X141933443Y-99533466D01*
X141849778Y-99689991D01*
X141820448Y-99725729D01*
X141737186Y-99827186D01*
X141654262Y-99895239D01*
X141599991Y-99939778D01*
X141443466Y-100023443D01*
X141273627Y-100074963D01*
X141207443Y-100081481D01*
X141141260Y-100088000D01*
X141052740Y-100088000D01*
X140986558Y-100081482D01*
X140920373Y-100074963D01*
X140750534Y-100023443D01*
X140594009Y-99939778D01*
X140539738Y-99895239D01*
X140456814Y-99827186D01*
X140373552Y-99725729D01*
X140344222Y-99689991D01*
X140260557Y-99533466D01*
X140209037Y-99363627D01*
X140191641Y-99187000D01*
X140209037Y-99010373D01*
X140260557Y-98840534D01*
X140344222Y-98684009D01*
X140383774Y-98635815D01*
X140456814Y-98546814D01*
X140558271Y-98463552D01*
X140594009Y-98434222D01*
X140750534Y-98350557D01*
X140920373Y-98299037D01*
X140986558Y-98292518D01*
X141052740Y-98286000D01*
X141141260Y-98286000D01*
X141207443Y-98292519D01*
X141207443Y-98292519D01*
G37*
G36*
X136918000Y-100088000D02*
G01*
X135116000Y-100088000D01*
X135116000Y-98286000D01*
X136918000Y-98286000D01*
X136918000Y-100088000D01*
X136918000Y-100088000D01*
G37*
G36*
X138667443Y-98292519D02*
G01*
X138733627Y-98299037D01*
X138903466Y-98350557D01*
X139059991Y-98434222D01*
X139095729Y-98463552D01*
X139197186Y-98546814D01*
X139270226Y-98635815D01*
X139309778Y-98684009D01*
X139393443Y-98840534D01*
X139444963Y-99010373D01*
X139462359Y-99187000D01*
X139444963Y-99363627D01*
X139393443Y-99533466D01*
X139309778Y-99689991D01*
X139280448Y-99725729D01*
X139197186Y-99827186D01*
X139114262Y-99895239D01*
X139059991Y-99939778D01*
X138903466Y-100023443D01*
X138733627Y-100074963D01*
X138667443Y-100081481D01*
X138601260Y-100088000D01*
X138512740Y-100088000D01*
X138446558Y-100081482D01*
X138380373Y-100074963D01*
X138210534Y-100023443D01*
X138054009Y-99939778D01*
X137999738Y-99895239D01*
X137916814Y-99827186D01*
X137833552Y-99725729D01*
X137804222Y-99689991D01*
X137720557Y-99533466D01*
X137669037Y-99363627D01*
X137651641Y-99187000D01*
X137669037Y-99010373D01*
X137720557Y-98840534D01*
X137804222Y-98684009D01*
X137843774Y-98635815D01*
X137916814Y-98546814D01*
X138018271Y-98463552D01*
X138054009Y-98434222D01*
X138210534Y-98350557D01*
X138380373Y-98299037D01*
X138446558Y-98292518D01*
X138512740Y-98286000D01*
X138601260Y-98286000D01*
X138667443Y-98292519D01*
X138667443Y-98292519D01*
G37*
G36*
X160186823Y-97713313D02*
G01*
X160347242Y-97761976D01*
X160414361Y-97797852D01*
X160495078Y-97840996D01*
X160624659Y-97947341D01*
X160731004Y-98076922D01*
X160731005Y-98076924D01*
X160810024Y-98224758D01*
X160858687Y-98385177D01*
X160875117Y-98552000D01*
X160858687Y-98718823D01*
X160810024Y-98879242D01*
X160769477Y-98955100D01*
X160731004Y-99027078D01*
X160624659Y-99156659D01*
X160495078Y-99263004D01*
X160495076Y-99263005D01*
X160347242Y-99342024D01*
X160186823Y-99390687D01*
X160061804Y-99403000D01*
X159978196Y-99403000D01*
X159853177Y-99390687D01*
X159692758Y-99342024D01*
X159544924Y-99263005D01*
X159544922Y-99263004D01*
X159415341Y-99156659D01*
X159308996Y-99027078D01*
X159270523Y-98955100D01*
X159229976Y-98879242D01*
X159181313Y-98718823D01*
X159164883Y-98552000D01*
X159181313Y-98385177D01*
X159229976Y-98224758D01*
X159308995Y-98076924D01*
X159308996Y-98076922D01*
X159415341Y-97947341D01*
X159544922Y-97840996D01*
X159625639Y-97797852D01*
X159692758Y-97761976D01*
X159853177Y-97713313D01*
X159978196Y-97701000D01*
X160061804Y-97701000D01*
X160186823Y-97713313D01*
X160186823Y-97713313D01*
G37*
G36*
X170428228Y-97733703D02*
G01*
X170583100Y-97797853D01*
X170722481Y-97890985D01*
X170841015Y-98009519D01*
X170934147Y-98148900D01*
X170998297Y-98303772D01*
X171031000Y-98468184D01*
X171031000Y-98635816D01*
X170998297Y-98800228D01*
X170934147Y-98955100D01*
X170841015Y-99094481D01*
X170722481Y-99213015D01*
X170583100Y-99306147D01*
X170428228Y-99370297D01*
X170263816Y-99403000D01*
X170096184Y-99403000D01*
X169931772Y-99370297D01*
X169776900Y-99306147D01*
X169637519Y-99213015D01*
X169518985Y-99094481D01*
X169425853Y-98955100D01*
X169361703Y-98800228D01*
X169329000Y-98635816D01*
X169329000Y-98468184D01*
X169361703Y-98303772D01*
X169425853Y-98148900D01*
X169518985Y-98009519D01*
X169637519Y-97890985D01*
X169776900Y-97797853D01*
X169931772Y-97733703D01*
X170096184Y-97701000D01*
X170263816Y-97701000D01*
X170428228Y-97733703D01*
X170428228Y-97733703D01*
G37*
G36*
X108481395Y-96621546D02*
G01*
X108654466Y-96693234D01*
X108654467Y-96693235D01*
X108810227Y-96797310D01*
X108942690Y-96929773D01*
X108942691Y-96929775D01*
X109046766Y-97085534D01*
X109118454Y-97258605D01*
X109155000Y-97442333D01*
X109155000Y-97629667D01*
X109118454Y-97813395D01*
X109046766Y-97986466D01*
X109046765Y-97986467D01*
X108942690Y-98142227D01*
X108810227Y-98274690D01*
X108731818Y-98327081D01*
X108654466Y-98378766D01*
X108481395Y-98450454D01*
X108297667Y-98487000D01*
X108110333Y-98487000D01*
X107926605Y-98450454D01*
X107753534Y-98378766D01*
X107676182Y-98327081D01*
X107597773Y-98274690D01*
X107465310Y-98142227D01*
X107361235Y-97986467D01*
X107361234Y-97986466D01*
X107289546Y-97813395D01*
X107253000Y-97629667D01*
X107253000Y-97442333D01*
X107289546Y-97258605D01*
X107361234Y-97085534D01*
X107465309Y-96929775D01*
X107465310Y-96929773D01*
X107597773Y-96797310D01*
X107753533Y-96693235D01*
X107753534Y-96693234D01*
X107926605Y-96621546D01*
X108110333Y-96585000D01*
X108297667Y-96585000D01*
X108481395Y-96621546D01*
X108481395Y-96621546D01*
G37*
G36*
X106615000Y-98487000D02*
G01*
X104713000Y-98487000D01*
X104713000Y-96585000D01*
X106615000Y-96585000D01*
X106615000Y-98487000D01*
X106615000Y-98487000D01*
G37*
G36*
X123184228Y-95193703D02*
G01*
X123339100Y-95257853D01*
X123478481Y-95350985D01*
X123597015Y-95469519D01*
X123690147Y-95608900D01*
X123754297Y-95763772D01*
X123787000Y-95928184D01*
X123787000Y-96095816D01*
X123754297Y-96260228D01*
X123690147Y-96415100D01*
X123597015Y-96554481D01*
X123478481Y-96673015D01*
X123339100Y-96766147D01*
X123184228Y-96830297D01*
X123019816Y-96863000D01*
X122852184Y-96863000D01*
X122687772Y-96830297D01*
X122532900Y-96766147D01*
X122393519Y-96673015D01*
X122274985Y-96554481D01*
X122181853Y-96415100D01*
X122117703Y-96260228D01*
X122085000Y-96095816D01*
X122085000Y-95928184D01*
X122117703Y-95763772D01*
X122181853Y-95608900D01*
X122274985Y-95469519D01*
X122393519Y-95350985D01*
X122532900Y-95257853D01*
X122687772Y-95193703D01*
X122852184Y-95161000D01*
X123019816Y-95161000D01*
X123184228Y-95193703D01*
X123184228Y-95193703D01*
G37*
G36*
X112942823Y-95173313D02*
G01*
X113103242Y-95221976D01*
X113144874Y-95244229D01*
X113251078Y-95300996D01*
X113380659Y-95407341D01*
X113487004Y-95536922D01*
X113487005Y-95536924D01*
X113566024Y-95684758D01*
X113614687Y-95845177D01*
X113631117Y-96012000D01*
X113614687Y-96178823D01*
X113566024Y-96339242D01*
X113525477Y-96415100D01*
X113487004Y-96487078D01*
X113380659Y-96616659D01*
X113251078Y-96723004D01*
X113251076Y-96723005D01*
X113103242Y-96802024D01*
X112942823Y-96850687D01*
X112817804Y-96863000D01*
X112734196Y-96863000D01*
X112609177Y-96850687D01*
X112448758Y-96802024D01*
X112300924Y-96723005D01*
X112300922Y-96723004D01*
X112171341Y-96616659D01*
X112064996Y-96487078D01*
X112026523Y-96415100D01*
X111985976Y-96339242D01*
X111937313Y-96178823D01*
X111920883Y-96012000D01*
X111937313Y-95845177D01*
X111985976Y-95684758D01*
X112064995Y-95536924D01*
X112064996Y-95536922D01*
X112171341Y-95407341D01*
X112300922Y-95300996D01*
X112407126Y-95244229D01*
X112448758Y-95221976D01*
X112609177Y-95173313D01*
X112734196Y-95161000D01*
X112817804Y-95161000D01*
X112942823Y-95173313D01*
X112942823Y-95173313D01*
G37*
G36*
X160268228Y-94177703D02*
G01*
X160423100Y-94241853D01*
X160562481Y-94334985D01*
X160681015Y-94453519D01*
X160774147Y-94592900D01*
X160838297Y-94747772D01*
X160871000Y-94912184D01*
X160871000Y-95079816D01*
X160838297Y-95244228D01*
X160774147Y-95399100D01*
X160681015Y-95538481D01*
X160562481Y-95657015D01*
X160423100Y-95750147D01*
X160268228Y-95814297D01*
X160103816Y-95847000D01*
X159936184Y-95847000D01*
X159771772Y-95814297D01*
X159616900Y-95750147D01*
X159477519Y-95657015D01*
X159358985Y-95538481D01*
X159265853Y-95399100D01*
X159201703Y-95244228D01*
X159169000Y-95079816D01*
X159169000Y-94912184D01*
X159201703Y-94747772D01*
X159265853Y-94592900D01*
X159358985Y-94453519D01*
X159477519Y-94334985D01*
X159616900Y-94241853D01*
X159771772Y-94177703D01*
X159936184Y-94145000D01*
X160103816Y-94145000D01*
X160268228Y-94177703D01*
X160268228Y-94177703D01*
G37*
G36*
X170346823Y-94157313D02*
G01*
X170507242Y-94205976D01*
X170574361Y-94241852D01*
X170655078Y-94284996D01*
X170784659Y-94391341D01*
X170891004Y-94520922D01*
X170891005Y-94520924D01*
X170970024Y-94668758D01*
X171018687Y-94829177D01*
X171035117Y-94996000D01*
X171018687Y-95162823D01*
X170970024Y-95323242D01*
X170929477Y-95399100D01*
X170891004Y-95471078D01*
X170784659Y-95600659D01*
X170655078Y-95707004D01*
X170655076Y-95707005D01*
X170507242Y-95786024D01*
X170346823Y-95834687D01*
X170221804Y-95847000D01*
X170138196Y-95847000D01*
X170013177Y-95834687D01*
X169852758Y-95786024D01*
X169704924Y-95707005D01*
X169704922Y-95707004D01*
X169575341Y-95600659D01*
X169468996Y-95471078D01*
X169430523Y-95399100D01*
X169389976Y-95323242D01*
X169341313Y-95162823D01*
X169324883Y-94996000D01*
X169341313Y-94829177D01*
X169389976Y-94668758D01*
X169468995Y-94520924D01*
X169468996Y-94520922D01*
X169575341Y-94391341D01*
X169704922Y-94284996D01*
X169785639Y-94241852D01*
X169852758Y-94205976D01*
X170013177Y-94157313D01*
X170138196Y-94145000D01*
X170221804Y-94145000D01*
X170346823Y-94157313D01*
X170346823Y-94157313D01*
G37*
G36*
X112942823Y-91744313D02*
G01*
X113103242Y-91792976D01*
X113197017Y-91843100D01*
X113251078Y-91871996D01*
X113380659Y-91978341D01*
X113487004Y-92107922D01*
X113487005Y-92107924D01*
X113566024Y-92255758D01*
X113566025Y-92255761D01*
X113575083Y-92285620D01*
X113614687Y-92416177D01*
X113631117Y-92583000D01*
X113614687Y-92749823D01*
X113566024Y-92910242D01*
X113525477Y-92986100D01*
X113487004Y-93058078D01*
X113380659Y-93187659D01*
X113251078Y-93294004D01*
X113251076Y-93294005D01*
X113103242Y-93373024D01*
X112942823Y-93421687D01*
X112817804Y-93434000D01*
X112734196Y-93434000D01*
X112609177Y-93421687D01*
X112448758Y-93373024D01*
X112300924Y-93294005D01*
X112300922Y-93294004D01*
X112171341Y-93187659D01*
X112064996Y-93058078D01*
X112026523Y-92986100D01*
X111985976Y-92910242D01*
X111937313Y-92749823D01*
X111920883Y-92583000D01*
X111937313Y-92416177D01*
X111976917Y-92285620D01*
X111985975Y-92255761D01*
X111985976Y-92255758D01*
X112064995Y-92107924D01*
X112064996Y-92107922D01*
X112171341Y-91978341D01*
X112300922Y-91871996D01*
X112354983Y-91843100D01*
X112448758Y-91792976D01*
X112609177Y-91744313D01*
X112734196Y-91732000D01*
X112817804Y-91732000D01*
X112942823Y-91744313D01*
X112942823Y-91744313D01*
G37*
G36*
X123184228Y-91764703D02*
G01*
X123339100Y-91828853D01*
X123478481Y-91921985D01*
X123597015Y-92040519D01*
X123690147Y-92179900D01*
X123754297Y-92334772D01*
X123787000Y-92499184D01*
X123787000Y-92666816D01*
X123754297Y-92831228D01*
X123690147Y-92986100D01*
X123597015Y-93125481D01*
X123478481Y-93244015D01*
X123339100Y-93337147D01*
X123184228Y-93401297D01*
X123019816Y-93434000D01*
X122852184Y-93434000D01*
X122687772Y-93401297D01*
X122532900Y-93337147D01*
X122393519Y-93244015D01*
X122274985Y-93125481D01*
X122181853Y-92986100D01*
X122117703Y-92831228D01*
X122085000Y-92666816D01*
X122085000Y-92499184D01*
X122117703Y-92334772D01*
X122181853Y-92179900D01*
X122274985Y-92040519D01*
X122393519Y-91921985D01*
X122532900Y-91828853D01*
X122687772Y-91764703D01*
X122852184Y-91732000D01*
X123019816Y-91732000D01*
X123184228Y-91764703D01*
X123184228Y-91764703D01*
G37*
G36*
X160268228Y-90621703D02*
G01*
X160423100Y-90685853D01*
X160562481Y-90778985D01*
X160681015Y-90897519D01*
X160774147Y-91036900D01*
X160838297Y-91191772D01*
X160871000Y-91356184D01*
X160871000Y-91523816D01*
X160838297Y-91688228D01*
X160774147Y-91843100D01*
X160681015Y-91982481D01*
X160562481Y-92101015D01*
X160423100Y-92194147D01*
X160268228Y-92258297D01*
X160103816Y-92291000D01*
X159936184Y-92291000D01*
X159771772Y-92258297D01*
X159616900Y-92194147D01*
X159477519Y-92101015D01*
X159358985Y-91982481D01*
X159265853Y-91843100D01*
X159201703Y-91688228D01*
X159169000Y-91523816D01*
X159169000Y-91356184D01*
X159201703Y-91191772D01*
X159265853Y-91036900D01*
X159358985Y-90897519D01*
X159477519Y-90778985D01*
X159616900Y-90685853D01*
X159771772Y-90621703D01*
X159936184Y-90589000D01*
X160103816Y-90589000D01*
X160268228Y-90621703D01*
X160268228Y-90621703D01*
G37*
G36*
X170346823Y-90601313D02*
G01*
X170507242Y-90649976D01*
X170574361Y-90685852D01*
X170655078Y-90728996D01*
X170784659Y-90835341D01*
X170891004Y-90964922D01*
X170891005Y-90964924D01*
X170970024Y-91112758D01*
X171018687Y-91273177D01*
X171035117Y-91440000D01*
X171018687Y-91606823D01*
X170980715Y-91732000D01*
X170976980Y-91744313D01*
X170970024Y-91767242D01*
X170929477Y-91843100D01*
X170891004Y-91915078D01*
X170784659Y-92044659D01*
X170655078Y-92151004D01*
X170655076Y-92151005D01*
X170507242Y-92230024D01*
X170346823Y-92278687D01*
X170221804Y-92291000D01*
X170138196Y-92291000D01*
X170013177Y-92278687D01*
X169852758Y-92230024D01*
X169704924Y-92151005D01*
X169704922Y-92151004D01*
X169575341Y-92044659D01*
X169468996Y-91915078D01*
X169430523Y-91843100D01*
X169389976Y-91767242D01*
X169383021Y-91744313D01*
X169379285Y-91732000D01*
X169341313Y-91606823D01*
X169324883Y-91440000D01*
X169341313Y-91273177D01*
X169389976Y-91112758D01*
X169468995Y-90964924D01*
X169468996Y-90964922D01*
X169575341Y-90835341D01*
X169704922Y-90728996D01*
X169785639Y-90685852D01*
X169852758Y-90649976D01*
X170013177Y-90601313D01*
X170138196Y-90589000D01*
X170221804Y-90589000D01*
X170346823Y-90601313D01*
X170346823Y-90601313D01*
G37*
G36*
X108481395Y-88493546D02*
G01*
X108654466Y-88565234D01*
X108731818Y-88616919D01*
X108810227Y-88669310D01*
X108942690Y-88801773D01*
X108993556Y-88877900D01*
X109046766Y-88957534D01*
X109118454Y-89130605D01*
X109155000Y-89314333D01*
X109155000Y-89501667D01*
X109118454Y-89685395D01*
X109046766Y-89858466D01*
X109046765Y-89858467D01*
X108942690Y-90014227D01*
X108810227Y-90146690D01*
X108731818Y-90199081D01*
X108654466Y-90250766D01*
X108481395Y-90322454D01*
X108297667Y-90359000D01*
X108110333Y-90359000D01*
X107926605Y-90322454D01*
X107753534Y-90250766D01*
X107676182Y-90199081D01*
X107597773Y-90146690D01*
X107465310Y-90014227D01*
X107361235Y-89858467D01*
X107361234Y-89858466D01*
X107289546Y-89685395D01*
X107253000Y-89501667D01*
X107253000Y-89314333D01*
X107289546Y-89130605D01*
X107361234Y-88957534D01*
X107414444Y-88877900D01*
X107465310Y-88801773D01*
X107597773Y-88669310D01*
X107676182Y-88616919D01*
X107753534Y-88565234D01*
X107926605Y-88493546D01*
X108110333Y-88457000D01*
X108297667Y-88457000D01*
X108481395Y-88493546D01*
X108481395Y-88493546D01*
G37*
G36*
X106615000Y-90359000D02*
G01*
X104713000Y-90359000D01*
X104713000Y-88457000D01*
X106615000Y-88457000D01*
X106615000Y-90359000D01*
X106615000Y-90359000D01*
G37*
G36*
X112942823Y-88442313D02*
G01*
X113103242Y-88490976D01*
X113170361Y-88526852D01*
X113251078Y-88569996D01*
X113380659Y-88676341D01*
X113487004Y-88805922D01*
X113487005Y-88805924D01*
X113566024Y-88953758D01*
X113566025Y-88953761D01*
X113575083Y-88983620D01*
X113614687Y-89114177D01*
X113631117Y-89281000D01*
X113614687Y-89447823D01*
X113566024Y-89608242D01*
X113525477Y-89684100D01*
X113487004Y-89756078D01*
X113380659Y-89885659D01*
X113251078Y-89992004D01*
X113251076Y-89992005D01*
X113103242Y-90071024D01*
X112942823Y-90119687D01*
X112817804Y-90132000D01*
X112734196Y-90132000D01*
X112609177Y-90119687D01*
X112448758Y-90071024D01*
X112300924Y-89992005D01*
X112300922Y-89992004D01*
X112171341Y-89885659D01*
X112064996Y-89756078D01*
X112026523Y-89684100D01*
X111985976Y-89608242D01*
X111937313Y-89447823D01*
X111920883Y-89281000D01*
X111937313Y-89114177D01*
X111976917Y-88983620D01*
X111985975Y-88953761D01*
X111985976Y-88953758D01*
X112064995Y-88805924D01*
X112064996Y-88805922D01*
X112171341Y-88676341D01*
X112300922Y-88569996D01*
X112381639Y-88526852D01*
X112448758Y-88490976D01*
X112609177Y-88442313D01*
X112734196Y-88430000D01*
X112817804Y-88430000D01*
X112942823Y-88442313D01*
X112942823Y-88442313D01*
G37*
G36*
X123184228Y-88462703D02*
G01*
X123339100Y-88526853D01*
X123478481Y-88619985D01*
X123597015Y-88738519D01*
X123690147Y-88877900D01*
X123754297Y-89032772D01*
X123787000Y-89197184D01*
X123787000Y-89364816D01*
X123754297Y-89529228D01*
X123690147Y-89684100D01*
X123597015Y-89823481D01*
X123478481Y-89942015D01*
X123339100Y-90035147D01*
X123184228Y-90099297D01*
X123019816Y-90132000D01*
X122852184Y-90132000D01*
X122687772Y-90099297D01*
X122532900Y-90035147D01*
X122393519Y-89942015D01*
X122274985Y-89823481D01*
X122181853Y-89684100D01*
X122117703Y-89529228D01*
X122085000Y-89364816D01*
X122085000Y-89197184D01*
X122117703Y-89032772D01*
X122181853Y-88877900D01*
X122274985Y-88738519D01*
X122393519Y-88619985D01*
X122532900Y-88526853D01*
X122687772Y-88462703D01*
X122852184Y-88430000D01*
X123019816Y-88430000D01*
X123184228Y-88462703D01*
X123184228Y-88462703D01*
G37*
G36*
X118174205Y-83765461D02*
G01*
X118292153Y-83788922D01*
X118354171Y-83814611D01*
X118514359Y-83880963D01*
X118714342Y-84014587D01*
X118884413Y-84184658D01*
X119018037Y-84384641D01*
X119110078Y-84606848D01*
X119157000Y-84842741D01*
X119157000Y-85083259D01*
X119110078Y-85319152D01*
X119018037Y-85541359D01*
X118884413Y-85741342D01*
X118714342Y-85911413D01*
X118514359Y-86045037D01*
X118384194Y-86098953D01*
X118292153Y-86137078D01*
X118056259Y-86184000D01*
X117815741Y-86184000D01*
X117579847Y-86137078D01*
X117487806Y-86098953D01*
X117357641Y-86045037D01*
X117157658Y-85911413D01*
X116987587Y-85741342D01*
X116853963Y-85541359D01*
X116761922Y-85319152D01*
X116715000Y-85083259D01*
X116715000Y-84842741D01*
X116761922Y-84606848D01*
X116853963Y-84384641D01*
X116987587Y-84184658D01*
X117157658Y-84014587D01*
X117357641Y-83880963D01*
X117517829Y-83814611D01*
X117579847Y-83788922D01*
X117697795Y-83765461D01*
X117815741Y-83742000D01*
X118056259Y-83742000D01*
X118174205Y-83765461D01*
X118174205Y-83765461D01*
G37*
G36*
X123174205Y-83765461D02*
G01*
X123292153Y-83788922D01*
X123354171Y-83814611D01*
X123514359Y-83880963D01*
X123714342Y-84014587D01*
X123884413Y-84184658D01*
X124018037Y-84384641D01*
X124110078Y-84606848D01*
X124157000Y-84842741D01*
X124157000Y-85083259D01*
X124110078Y-85319152D01*
X124018037Y-85541359D01*
X123884413Y-85741342D01*
X123714342Y-85911413D01*
X123514359Y-86045037D01*
X123384194Y-86098953D01*
X123292153Y-86137078D01*
X123056259Y-86184000D01*
X122815741Y-86184000D01*
X122579847Y-86137078D01*
X122487806Y-86098953D01*
X122357641Y-86045037D01*
X122157658Y-85911413D01*
X121987587Y-85741342D01*
X121853963Y-85541359D01*
X121761922Y-85319152D01*
X121715000Y-85083259D01*
X121715000Y-84842741D01*
X121761922Y-84606848D01*
X121853963Y-84384641D01*
X121987587Y-84184658D01*
X122157658Y-84014587D01*
X122357641Y-83880963D01*
X122517829Y-83814611D01*
X122579847Y-83788922D01*
X122697795Y-83765461D01*
X122815741Y-83742000D01*
X123056259Y-83742000D01*
X123174205Y-83765461D01*
X123174205Y-83765461D01*
G37*
G36*
X161870564Y-81793389D02*
G01*
X162061833Y-81872615D01*
X162061835Y-81872616D01*
X162233973Y-81987635D01*
X162380365Y-82134027D01*
X162495385Y-82306167D01*
X162574611Y-82497436D01*
X162615000Y-82700484D01*
X162615000Y-82907516D01*
X162574611Y-83110564D01*
X162495385Y-83301833D01*
X162495384Y-83301835D01*
X162380365Y-83473973D01*
X162233973Y-83620365D01*
X162061835Y-83735384D01*
X162061834Y-83735385D01*
X162061833Y-83735385D01*
X161870564Y-83814611D01*
X161667516Y-83855000D01*
X161460484Y-83855000D01*
X161257436Y-83814611D01*
X161066167Y-83735385D01*
X161066166Y-83735385D01*
X161066165Y-83735384D01*
X160894027Y-83620365D01*
X160747635Y-83473973D01*
X160632616Y-83301835D01*
X160632615Y-83301833D01*
X160553389Y-83110564D01*
X160513000Y-82907516D01*
X160513000Y-82700484D01*
X160553389Y-82497436D01*
X160632615Y-82306167D01*
X160747635Y-82134027D01*
X160894027Y-81987635D01*
X161066165Y-81872616D01*
X161066167Y-81872615D01*
X161257436Y-81793389D01*
X161460484Y-81753000D01*
X161667516Y-81753000D01*
X161870564Y-81793389D01*
X161870564Y-81793389D01*
G37*
G36*
X170215000Y-83855000D02*
G01*
X168113000Y-83855000D01*
X168113000Y-81753000D01*
X170215000Y-81753000D01*
X170215000Y-83855000D01*
X170215000Y-83855000D01*
G37*
G36*
X139866823Y-77393313D02*
G01*
X140027242Y-77441976D01*
X140159906Y-77512886D01*
X140175078Y-77520996D01*
X140304659Y-77627341D01*
X140411004Y-77756922D01*
X140411005Y-77756924D01*
X140490024Y-77904758D01*
X140538687Y-78065177D01*
X140555117Y-78232000D01*
X140538687Y-78398823D01*
X140490024Y-78559242D01*
X140419114Y-78691906D01*
X140411004Y-78707078D01*
X140304659Y-78836659D01*
X140175078Y-78943004D01*
X140175076Y-78943005D01*
X140027242Y-79022024D01*
X139866823Y-79070687D01*
X139741804Y-79083000D01*
X139658196Y-79083000D01*
X139533177Y-79070687D01*
X139372758Y-79022024D01*
X139224924Y-78943005D01*
X139224922Y-78943004D01*
X139095341Y-78836659D01*
X138988996Y-78707078D01*
X138980886Y-78691906D01*
X138909976Y-78559242D01*
X138861313Y-78398823D01*
X138844883Y-78232000D01*
X138861313Y-78065177D01*
X138909976Y-77904758D01*
X138988995Y-77756924D01*
X138988996Y-77756922D01*
X139095341Y-77627341D01*
X139224922Y-77520996D01*
X139240094Y-77512886D01*
X139372758Y-77441976D01*
X139533177Y-77393313D01*
X139658196Y-77381000D01*
X139741804Y-77381000D01*
X139866823Y-77393313D01*
X139866823Y-77393313D01*
G37*
G36*
X137326823Y-77393313D02*
G01*
X137487242Y-77441976D01*
X137619906Y-77512886D01*
X137635078Y-77520996D01*
X137764659Y-77627341D01*
X137871004Y-77756922D01*
X137871005Y-77756924D01*
X137950024Y-77904758D01*
X137998687Y-78065177D01*
X138015117Y-78232000D01*
X137998687Y-78398823D01*
X137950024Y-78559242D01*
X137879114Y-78691906D01*
X137871004Y-78707078D01*
X137764659Y-78836659D01*
X137635078Y-78943004D01*
X137635076Y-78943005D01*
X137487242Y-79022024D01*
X137326823Y-79070687D01*
X137201804Y-79083000D01*
X137118196Y-79083000D01*
X136993177Y-79070687D01*
X136832758Y-79022024D01*
X136684924Y-78943005D01*
X136684922Y-78943004D01*
X136555341Y-78836659D01*
X136448996Y-78707078D01*
X136440886Y-78691906D01*
X136369976Y-78559242D01*
X136321313Y-78398823D01*
X136304883Y-78232000D01*
X136321313Y-78065177D01*
X136369976Y-77904758D01*
X136448995Y-77756924D01*
X136448996Y-77756922D01*
X136555341Y-77627341D01*
X136684922Y-77520996D01*
X136700094Y-77512886D01*
X136832758Y-77441976D01*
X136993177Y-77393313D01*
X137118196Y-77381000D01*
X137201804Y-77381000D01*
X137326823Y-77393313D01*
X137326823Y-77393313D01*
G37*
G36*
X135471000Y-79083000D02*
G01*
X133769000Y-79083000D01*
X133769000Y-77381000D01*
X135471000Y-77381000D01*
X135471000Y-79083000D01*
X135471000Y-79083000D01*
G37*
G36*
X149695000Y-79083000D02*
G01*
X147993000Y-79083000D01*
X147993000Y-77381000D01*
X149695000Y-77381000D01*
X149695000Y-79083000D01*
X149695000Y-79083000D01*
G37*
G36*
X151550823Y-77393313D02*
G01*
X151711242Y-77441976D01*
X151843906Y-77512886D01*
X151859078Y-77520996D01*
X151988659Y-77627341D01*
X152095004Y-77756922D01*
X152095005Y-77756924D01*
X152174024Y-77904758D01*
X152222687Y-78065177D01*
X152239117Y-78232000D01*
X152222687Y-78398823D01*
X152174024Y-78559242D01*
X152103114Y-78691906D01*
X152095004Y-78707078D01*
X151988659Y-78836659D01*
X151859078Y-78943004D01*
X151859076Y-78943005D01*
X151711242Y-79022024D01*
X151550823Y-79070687D01*
X151425804Y-79083000D01*
X151342196Y-79083000D01*
X151217177Y-79070687D01*
X151056758Y-79022024D01*
X150908924Y-78943005D01*
X150908922Y-78943004D01*
X150779341Y-78836659D01*
X150672996Y-78707078D01*
X150664886Y-78691906D01*
X150593976Y-78559242D01*
X150545313Y-78398823D01*
X150528883Y-78232000D01*
X150545313Y-78065177D01*
X150593976Y-77904758D01*
X150672995Y-77756924D01*
X150672996Y-77756922D01*
X150779341Y-77627341D01*
X150908922Y-77520996D01*
X150924094Y-77512886D01*
X151056758Y-77441976D01*
X151217177Y-77393313D01*
X151342196Y-77381000D01*
X151425804Y-77381000D01*
X151550823Y-77393313D01*
X151550823Y-77393313D01*
G37*
G36*
X154090823Y-77393313D02*
G01*
X154251242Y-77441976D01*
X154383906Y-77512886D01*
X154399078Y-77520996D01*
X154528659Y-77627341D01*
X154635004Y-77756922D01*
X154635005Y-77756924D01*
X154714024Y-77904758D01*
X154762687Y-78065177D01*
X154779117Y-78232000D01*
X154762687Y-78398823D01*
X154714024Y-78559242D01*
X154643114Y-78691906D01*
X154635004Y-78707078D01*
X154528659Y-78836659D01*
X154399078Y-78943004D01*
X154399076Y-78943005D01*
X154251242Y-79022024D01*
X154090823Y-79070687D01*
X153965804Y-79083000D01*
X153882196Y-79083000D01*
X153757177Y-79070687D01*
X153596758Y-79022024D01*
X153448924Y-78943005D01*
X153448922Y-78943004D01*
X153319341Y-78836659D01*
X153212996Y-78707078D01*
X153204886Y-78691906D01*
X153133976Y-78559242D01*
X153085313Y-78398823D01*
X153068883Y-78232000D01*
X153085313Y-78065177D01*
X153133976Y-77904758D01*
X153212995Y-77756924D01*
X153212996Y-77756922D01*
X153319341Y-77627341D01*
X153448922Y-77520996D01*
X153464094Y-77512886D01*
X153596758Y-77441976D01*
X153757177Y-77393313D01*
X153882196Y-77381000D01*
X153965804Y-77381000D01*
X154090823Y-77393313D01*
X154090823Y-77393313D01*
G37*
G36*
X142406823Y-77393313D02*
G01*
X142567242Y-77441976D01*
X142699906Y-77512886D01*
X142715078Y-77520996D01*
X142844659Y-77627341D01*
X142951004Y-77756922D01*
X142951005Y-77756924D01*
X143030024Y-77904758D01*
X143078687Y-78065177D01*
X143095117Y-78232000D01*
X143078687Y-78398823D01*
X143030024Y-78559242D01*
X142959114Y-78691906D01*
X142951004Y-78707078D01*
X142844659Y-78836659D01*
X142715078Y-78943004D01*
X142715076Y-78943005D01*
X142567242Y-79022024D01*
X142406823Y-79070687D01*
X142281804Y-79083000D01*
X142198196Y-79083000D01*
X142073177Y-79070687D01*
X141912758Y-79022024D01*
X141764924Y-78943005D01*
X141764922Y-78943004D01*
X141635341Y-78836659D01*
X141528996Y-78707078D01*
X141520886Y-78691906D01*
X141449976Y-78559242D01*
X141401313Y-78398823D01*
X141384883Y-78232000D01*
X141401313Y-78065177D01*
X141449976Y-77904758D01*
X141528995Y-77756924D01*
X141528996Y-77756922D01*
X141635341Y-77627341D01*
X141764922Y-77520996D01*
X141780094Y-77512886D01*
X141912758Y-77441976D01*
X142073177Y-77393313D01*
X142198196Y-77381000D01*
X142281804Y-77381000D01*
X142406823Y-77393313D01*
X142406823Y-77393313D01*
G37*
G36*
X156630823Y-77393313D02*
G01*
X156791242Y-77441976D01*
X156923906Y-77512886D01*
X156939078Y-77520996D01*
X157068659Y-77627341D01*
X157175004Y-77756922D01*
X157175005Y-77756924D01*
X157254024Y-77904758D01*
X157302687Y-78065177D01*
X157319117Y-78232000D01*
X157302687Y-78398823D01*
X157254024Y-78559242D01*
X157183114Y-78691906D01*
X157175004Y-78707078D01*
X157068659Y-78836659D01*
X156939078Y-78943004D01*
X156939076Y-78943005D01*
X156791242Y-79022024D01*
X156630823Y-79070687D01*
X156505804Y-79083000D01*
X156422196Y-79083000D01*
X156297177Y-79070687D01*
X156136758Y-79022024D01*
X155988924Y-78943005D01*
X155988922Y-78943004D01*
X155859341Y-78836659D01*
X155752996Y-78707078D01*
X155744886Y-78691906D01*
X155673976Y-78559242D01*
X155625313Y-78398823D01*
X155608883Y-78232000D01*
X155625313Y-78065177D01*
X155673976Y-77904758D01*
X155752995Y-77756924D01*
X155752996Y-77756922D01*
X155859341Y-77627341D01*
X155988922Y-77520996D01*
X156004094Y-77512886D01*
X156136758Y-77441976D01*
X156297177Y-77393313D01*
X156422196Y-77381000D01*
X156505804Y-77381000D01*
X156630823Y-77393313D01*
X156630823Y-77393313D01*
G37*
G36*
X120674205Y-73765461D02*
G01*
X120792153Y-73788922D01*
X120884194Y-73827047D01*
X121014359Y-73880963D01*
X121214342Y-74014587D01*
X121384413Y-74184658D01*
X121518037Y-74384641D01*
X121610078Y-74606848D01*
X121657000Y-74842741D01*
X121657000Y-75083259D01*
X121610078Y-75319152D01*
X121518037Y-75541359D01*
X121384413Y-75741342D01*
X121214342Y-75911413D01*
X121014359Y-76045037D01*
X120884194Y-76098953D01*
X120792153Y-76137078D01*
X120556259Y-76184000D01*
X120315741Y-76184000D01*
X120079847Y-76137078D01*
X119987806Y-76098953D01*
X119857641Y-76045037D01*
X119657658Y-75911413D01*
X119487587Y-75741342D01*
X119353963Y-75541359D01*
X119261922Y-75319152D01*
X119215000Y-75083259D01*
X119215000Y-74842741D01*
X119261922Y-74606848D01*
X119353963Y-74384641D01*
X119487587Y-74184658D01*
X119657658Y-74014587D01*
X119857641Y-73880963D01*
X119987806Y-73827047D01*
X120079847Y-73788922D01*
X120197795Y-73765461D01*
X120315741Y-73742000D01*
X120556259Y-73742000D01*
X120674205Y-73765461D01*
X120674205Y-73765461D01*
G37*
G36*
X106097564Y-70164389D02*
G01*
X106288833Y-70243615D01*
X106288835Y-70243616D01*
X106460973Y-70358635D01*
X106607365Y-70505027D01*
X106701882Y-70646481D01*
X106722385Y-70677167D01*
X106801611Y-70868436D01*
X106842000Y-71071484D01*
X106842000Y-71278516D01*
X106801611Y-71481564D01*
X106722385Y-71672833D01*
X106722384Y-71672835D01*
X106607365Y-71844973D01*
X106460973Y-71991365D01*
X106288835Y-72106384D01*
X106288834Y-72106385D01*
X106288833Y-72106385D01*
X106097564Y-72185611D01*
X105894516Y-72226000D01*
X105687484Y-72226000D01*
X105484436Y-72185611D01*
X105293167Y-72106385D01*
X105293166Y-72106385D01*
X105293165Y-72106384D01*
X105121027Y-71991365D01*
X104974635Y-71844973D01*
X104859616Y-71672835D01*
X104859615Y-71672833D01*
X104780389Y-71481564D01*
X104740000Y-71278516D01*
X104740000Y-71071484D01*
X104780389Y-70868436D01*
X104859615Y-70677167D01*
X104880119Y-70646481D01*
X104974635Y-70505027D01*
X105121027Y-70358635D01*
X105293165Y-70243616D01*
X105293167Y-70243615D01*
X105484436Y-70164389D01*
X105687484Y-70124000D01*
X105894516Y-70124000D01*
X106097564Y-70164389D01*
X106097564Y-70164389D01*
G37*
G36*
X112597564Y-70164389D02*
G01*
X112788833Y-70243615D01*
X112788835Y-70243616D01*
X112960973Y-70358635D01*
X113107365Y-70505027D01*
X113201882Y-70646481D01*
X113222385Y-70677167D01*
X113301611Y-70868436D01*
X113342000Y-71071484D01*
X113342000Y-71278516D01*
X113301611Y-71481564D01*
X113222385Y-71672833D01*
X113222384Y-71672835D01*
X113107365Y-71844973D01*
X112960973Y-71991365D01*
X112788835Y-72106384D01*
X112788834Y-72106385D01*
X112788833Y-72106385D01*
X112597564Y-72185611D01*
X112394516Y-72226000D01*
X112187484Y-72226000D01*
X111984436Y-72185611D01*
X111793167Y-72106385D01*
X111793166Y-72106385D01*
X111793165Y-72106384D01*
X111621027Y-71991365D01*
X111474635Y-71844973D01*
X111359616Y-71672835D01*
X111359615Y-71672833D01*
X111280389Y-71481564D01*
X111240000Y-71278516D01*
X111240000Y-71071484D01*
X111280389Y-70868436D01*
X111359615Y-70677167D01*
X111380119Y-70646481D01*
X111474635Y-70505027D01*
X111621027Y-70358635D01*
X111793165Y-70243616D01*
X111793167Y-70243615D01*
X111984436Y-70164389D01*
X112187484Y-70124000D01*
X112394516Y-70124000D01*
X112597564Y-70164389D01*
X112597564Y-70164389D01*
G37*
G36*
X149010823Y-69773313D02*
G01*
X149171242Y-69821976D01*
X149303906Y-69892886D01*
X149319078Y-69900996D01*
X149448659Y-70007341D01*
X149555004Y-70136922D01*
X149555005Y-70136924D01*
X149634024Y-70284758D01*
X149682687Y-70445177D01*
X149699117Y-70612000D01*
X149682687Y-70778823D01*
X149634024Y-70939242D01*
X149625601Y-70955000D01*
X149555004Y-71087078D01*
X149448659Y-71216659D01*
X149319078Y-71323004D01*
X149319076Y-71323005D01*
X149171242Y-71402024D01*
X149010823Y-71450687D01*
X148885804Y-71463000D01*
X148802196Y-71463000D01*
X148677177Y-71450687D01*
X148516758Y-71402024D01*
X148368924Y-71323005D01*
X148368922Y-71323004D01*
X148239341Y-71216659D01*
X148132996Y-71087078D01*
X148062399Y-70955000D01*
X148053976Y-70939242D01*
X148005313Y-70778823D01*
X147988883Y-70612000D01*
X148005313Y-70445177D01*
X148053976Y-70284758D01*
X148132995Y-70136924D01*
X148132996Y-70136922D01*
X148239341Y-70007341D01*
X148368922Y-69900996D01*
X148384094Y-69892886D01*
X148516758Y-69821976D01*
X148677177Y-69773313D01*
X148802196Y-69761000D01*
X148885804Y-69761000D01*
X149010823Y-69773313D01*
X149010823Y-69773313D01*
G37*
G36*
X134786823Y-69773313D02*
G01*
X134947242Y-69821976D01*
X135079906Y-69892886D01*
X135095078Y-69900996D01*
X135224659Y-70007341D01*
X135331004Y-70136922D01*
X135331005Y-70136924D01*
X135410024Y-70284758D01*
X135458687Y-70445177D01*
X135475117Y-70612000D01*
X135458687Y-70778823D01*
X135410024Y-70939242D01*
X135401601Y-70955000D01*
X135331004Y-71087078D01*
X135224659Y-71216659D01*
X135095078Y-71323004D01*
X135095076Y-71323005D01*
X134947242Y-71402024D01*
X134786823Y-71450687D01*
X134661804Y-71463000D01*
X134578196Y-71463000D01*
X134453177Y-71450687D01*
X134292758Y-71402024D01*
X134144924Y-71323005D01*
X134144922Y-71323004D01*
X134015341Y-71216659D01*
X133908996Y-71087078D01*
X133838399Y-70955000D01*
X133829976Y-70939242D01*
X133781313Y-70778823D01*
X133764883Y-70612000D01*
X133781313Y-70445177D01*
X133829976Y-70284758D01*
X133908995Y-70136924D01*
X133908996Y-70136922D01*
X134015341Y-70007341D01*
X134144922Y-69900996D01*
X134160094Y-69892886D01*
X134292758Y-69821976D01*
X134453177Y-69773313D01*
X134578196Y-69761000D01*
X134661804Y-69761000D01*
X134786823Y-69773313D01*
X134786823Y-69773313D01*
G37*
G36*
X137326823Y-69773313D02*
G01*
X137487242Y-69821976D01*
X137619906Y-69892886D01*
X137635078Y-69900996D01*
X137764659Y-70007341D01*
X137871004Y-70136922D01*
X137871005Y-70136924D01*
X137950024Y-70284758D01*
X137998687Y-70445177D01*
X138015117Y-70612000D01*
X137998687Y-70778823D01*
X137950024Y-70939242D01*
X137941601Y-70955000D01*
X137871004Y-71087078D01*
X137764659Y-71216659D01*
X137635078Y-71323004D01*
X137635076Y-71323005D01*
X137487242Y-71402024D01*
X137326823Y-71450687D01*
X137201804Y-71463000D01*
X137118196Y-71463000D01*
X136993177Y-71450687D01*
X136832758Y-71402024D01*
X136684924Y-71323005D01*
X136684922Y-71323004D01*
X136555341Y-71216659D01*
X136448996Y-71087078D01*
X136378399Y-70955000D01*
X136369976Y-70939242D01*
X136321313Y-70778823D01*
X136304883Y-70612000D01*
X136321313Y-70445177D01*
X136369976Y-70284758D01*
X136448995Y-70136924D01*
X136448996Y-70136922D01*
X136555341Y-70007341D01*
X136684922Y-69900996D01*
X136700094Y-69892886D01*
X136832758Y-69821976D01*
X136993177Y-69773313D01*
X137118196Y-69761000D01*
X137201804Y-69761000D01*
X137326823Y-69773313D01*
X137326823Y-69773313D01*
G37*
G36*
X151550823Y-69773313D02*
G01*
X151711242Y-69821976D01*
X151843906Y-69892886D01*
X151859078Y-69900996D01*
X151988659Y-70007341D01*
X152095004Y-70136922D01*
X152095005Y-70136924D01*
X152174024Y-70284758D01*
X152222687Y-70445177D01*
X152239117Y-70612000D01*
X152222687Y-70778823D01*
X152174024Y-70939242D01*
X152165601Y-70955000D01*
X152095004Y-71087078D01*
X151988659Y-71216659D01*
X151859078Y-71323004D01*
X151859076Y-71323005D01*
X151711242Y-71402024D01*
X151550823Y-71450687D01*
X151425804Y-71463000D01*
X151342196Y-71463000D01*
X151217177Y-71450687D01*
X151056758Y-71402024D01*
X150908924Y-71323005D01*
X150908922Y-71323004D01*
X150779341Y-71216659D01*
X150672996Y-71087078D01*
X150602399Y-70955000D01*
X150593976Y-70939242D01*
X150545313Y-70778823D01*
X150528883Y-70612000D01*
X150545313Y-70445177D01*
X150593976Y-70284758D01*
X150672995Y-70136924D01*
X150672996Y-70136922D01*
X150779341Y-70007341D01*
X150908922Y-69900996D01*
X150924094Y-69892886D01*
X151056758Y-69821976D01*
X151217177Y-69773313D01*
X151342196Y-69761000D01*
X151425804Y-69761000D01*
X151550823Y-69773313D01*
X151550823Y-69773313D01*
G37*
G36*
X139866823Y-69773313D02*
G01*
X140027242Y-69821976D01*
X140159906Y-69892886D01*
X140175078Y-69900996D01*
X140304659Y-70007341D01*
X140411004Y-70136922D01*
X140411005Y-70136924D01*
X140490024Y-70284758D01*
X140538687Y-70445177D01*
X140555117Y-70612000D01*
X140538687Y-70778823D01*
X140490024Y-70939242D01*
X140481601Y-70955000D01*
X140411004Y-71087078D01*
X140304659Y-71216659D01*
X140175078Y-71323004D01*
X140175076Y-71323005D01*
X140027242Y-71402024D01*
X139866823Y-71450687D01*
X139741804Y-71463000D01*
X139658196Y-71463000D01*
X139533177Y-71450687D01*
X139372758Y-71402024D01*
X139224924Y-71323005D01*
X139224922Y-71323004D01*
X139095341Y-71216659D01*
X138988996Y-71087078D01*
X138918399Y-70955000D01*
X138909976Y-70939242D01*
X138861313Y-70778823D01*
X138844883Y-70612000D01*
X138861313Y-70445177D01*
X138909976Y-70284758D01*
X138988995Y-70136924D01*
X138988996Y-70136922D01*
X139095341Y-70007341D01*
X139224922Y-69900996D01*
X139240094Y-69892886D01*
X139372758Y-69821976D01*
X139533177Y-69773313D01*
X139658196Y-69761000D01*
X139741804Y-69761000D01*
X139866823Y-69773313D01*
X139866823Y-69773313D01*
G37*
G36*
X142406823Y-69773313D02*
G01*
X142567242Y-69821976D01*
X142699906Y-69892886D01*
X142715078Y-69900996D01*
X142844659Y-70007341D01*
X142951004Y-70136922D01*
X142951005Y-70136924D01*
X143030024Y-70284758D01*
X143078687Y-70445177D01*
X143095117Y-70612000D01*
X143078687Y-70778823D01*
X143030024Y-70939242D01*
X143021601Y-70955000D01*
X142951004Y-71087078D01*
X142844659Y-71216659D01*
X142715078Y-71323004D01*
X142715076Y-71323005D01*
X142567242Y-71402024D01*
X142406823Y-71450687D01*
X142281804Y-71463000D01*
X142198196Y-71463000D01*
X142073177Y-71450687D01*
X141912758Y-71402024D01*
X141764924Y-71323005D01*
X141764922Y-71323004D01*
X141635341Y-71216659D01*
X141528996Y-71087078D01*
X141458399Y-70955000D01*
X141449976Y-70939242D01*
X141401313Y-70778823D01*
X141384883Y-70612000D01*
X141401313Y-70445177D01*
X141449976Y-70284758D01*
X141528995Y-70136924D01*
X141528996Y-70136922D01*
X141635341Y-70007341D01*
X141764922Y-69900996D01*
X141780094Y-69892886D01*
X141912758Y-69821976D01*
X142073177Y-69773313D01*
X142198196Y-69761000D01*
X142281804Y-69761000D01*
X142406823Y-69773313D01*
X142406823Y-69773313D01*
G37*
G36*
X154090823Y-69773313D02*
G01*
X154251242Y-69821976D01*
X154383906Y-69892886D01*
X154399078Y-69900996D01*
X154528659Y-70007341D01*
X154635004Y-70136922D01*
X154635005Y-70136924D01*
X154714024Y-70284758D01*
X154762687Y-70445177D01*
X154779117Y-70612000D01*
X154762687Y-70778823D01*
X154714024Y-70939242D01*
X154705601Y-70955000D01*
X154635004Y-71087078D01*
X154528659Y-71216659D01*
X154399078Y-71323004D01*
X154399076Y-71323005D01*
X154251242Y-71402024D01*
X154090823Y-71450687D01*
X153965804Y-71463000D01*
X153882196Y-71463000D01*
X153757177Y-71450687D01*
X153596758Y-71402024D01*
X153448924Y-71323005D01*
X153448922Y-71323004D01*
X153319341Y-71216659D01*
X153212996Y-71087078D01*
X153142399Y-70955000D01*
X153133976Y-70939242D01*
X153085313Y-70778823D01*
X153068883Y-70612000D01*
X153085313Y-70445177D01*
X153133976Y-70284758D01*
X153212995Y-70136924D01*
X153212996Y-70136922D01*
X153319341Y-70007341D01*
X153448922Y-69900996D01*
X153464094Y-69892886D01*
X153596758Y-69821976D01*
X153757177Y-69773313D01*
X153882196Y-69761000D01*
X153965804Y-69761000D01*
X154090823Y-69773313D01*
X154090823Y-69773313D01*
G37*
G36*
X156630823Y-69773313D02*
G01*
X156791242Y-69821976D01*
X156923906Y-69892886D01*
X156939078Y-69900996D01*
X157068659Y-70007341D01*
X157175004Y-70136922D01*
X157175005Y-70136924D01*
X157254024Y-70284758D01*
X157302687Y-70445177D01*
X157319117Y-70612000D01*
X157302687Y-70778823D01*
X157254024Y-70939242D01*
X157245601Y-70955000D01*
X157175004Y-71087078D01*
X157068659Y-71216659D01*
X156939078Y-71323004D01*
X156939076Y-71323005D01*
X156791242Y-71402024D01*
X156630823Y-71450687D01*
X156505804Y-71463000D01*
X156422196Y-71463000D01*
X156297177Y-71450687D01*
X156136758Y-71402024D01*
X155988924Y-71323005D01*
X155988922Y-71323004D01*
X155859341Y-71216659D01*
X155752996Y-71087078D01*
X155682399Y-70955000D01*
X155673976Y-70939242D01*
X155625313Y-70778823D01*
X155608883Y-70612000D01*
X155625313Y-70445177D01*
X155673976Y-70284758D01*
X155752995Y-70136924D01*
X155752996Y-70136922D01*
X155859341Y-70007341D01*
X155988922Y-69900996D01*
X156004094Y-69892886D01*
X156136758Y-69821976D01*
X156297177Y-69773313D01*
X156422196Y-69761000D01*
X156505804Y-69761000D01*
X156630823Y-69773313D01*
X156630823Y-69773313D01*
G37*
G36*
X117342228Y-69285703D02*
G01*
X117497100Y-69349853D01*
X117636481Y-69442985D01*
X117755015Y-69561519D01*
X117848147Y-69700900D01*
X117912297Y-69855772D01*
X117945000Y-70020184D01*
X117945000Y-70187816D01*
X117912297Y-70352228D01*
X117848147Y-70507100D01*
X117755015Y-70646481D01*
X117636481Y-70765015D01*
X117497100Y-70858147D01*
X117342228Y-70922297D01*
X117177816Y-70955000D01*
X117010184Y-70955000D01*
X116845772Y-70922297D01*
X116690900Y-70858147D01*
X116551519Y-70765015D01*
X116432985Y-70646481D01*
X116339853Y-70507100D01*
X116275703Y-70352228D01*
X116243000Y-70187816D01*
X116243000Y-70020184D01*
X116275703Y-69855772D01*
X116339853Y-69700900D01*
X116432985Y-69561519D01*
X116551519Y-69442985D01*
X116690900Y-69349853D01*
X116845772Y-69285703D01*
X117010184Y-69253000D01*
X117177816Y-69253000D01*
X117342228Y-69285703D01*
X117342228Y-69285703D01*
G37*
G36*
X117342228Y-66745703D02*
G01*
X117497100Y-66809853D01*
X117636481Y-66902985D01*
X117755015Y-67021519D01*
X117848147Y-67160900D01*
X117912297Y-67315772D01*
X117945000Y-67480184D01*
X117945000Y-67647816D01*
X117912297Y-67812228D01*
X117848147Y-67967100D01*
X117755015Y-68106481D01*
X117636481Y-68225015D01*
X117497100Y-68318147D01*
X117342228Y-68382297D01*
X117177816Y-68415000D01*
X117010184Y-68415000D01*
X116845772Y-68382297D01*
X116690900Y-68318147D01*
X116551519Y-68225015D01*
X116432985Y-68106481D01*
X116339853Y-67967100D01*
X116275703Y-67812228D01*
X116243000Y-67647816D01*
X116243000Y-67480184D01*
X116275703Y-67315772D01*
X116339853Y-67160900D01*
X116432985Y-67021519D01*
X116551519Y-66902985D01*
X116690900Y-66809853D01*
X116845772Y-66745703D01*
X117010184Y-66713000D01*
X117177816Y-66713000D01*
X117342228Y-66745703D01*
X117342228Y-66745703D01*
G37*
G36*
X161710823Y-66090313D02*
G01*
X161871242Y-66138976D01*
X161942692Y-66177167D01*
X162019078Y-66217996D01*
X162148659Y-66324341D01*
X162255004Y-66453922D01*
X162255005Y-66453924D01*
X162334024Y-66601758D01*
X162382687Y-66762177D01*
X162399117Y-66929000D01*
X162382687Y-67095823D01*
X162334024Y-67256242D01*
X162286596Y-67344973D01*
X162255004Y-67404078D01*
X162148659Y-67533659D01*
X162019078Y-67640004D01*
X162019076Y-67640005D01*
X161871242Y-67719024D01*
X161710823Y-67767687D01*
X161585804Y-67780000D01*
X161502196Y-67780000D01*
X161377177Y-67767687D01*
X161216758Y-67719024D01*
X161068924Y-67640005D01*
X161068922Y-67640004D01*
X160939341Y-67533659D01*
X160832996Y-67404078D01*
X160801404Y-67344973D01*
X160753976Y-67256242D01*
X160705313Y-67095823D01*
X160688883Y-66929000D01*
X160705313Y-66762177D01*
X160753976Y-66601758D01*
X160832995Y-66453924D01*
X160832996Y-66453922D01*
X160939341Y-66324341D01*
X161068922Y-66217996D01*
X161145308Y-66177167D01*
X161216758Y-66138976D01*
X161377177Y-66090313D01*
X161502196Y-66078000D01*
X161585804Y-66078000D01*
X161710823Y-66090313D01*
X161710823Y-66090313D01*
G37*
G36*
X164250823Y-66090313D02*
G01*
X164411242Y-66138976D01*
X164482692Y-66177167D01*
X164559078Y-66217996D01*
X164688659Y-66324341D01*
X164795004Y-66453922D01*
X164795005Y-66453924D01*
X164874024Y-66601758D01*
X164922687Y-66762177D01*
X164939117Y-66929000D01*
X164922687Y-67095823D01*
X164874024Y-67256242D01*
X164826596Y-67344973D01*
X164795004Y-67404078D01*
X164688659Y-67533659D01*
X164559078Y-67640004D01*
X164559076Y-67640005D01*
X164411242Y-67719024D01*
X164250823Y-67767687D01*
X164125804Y-67780000D01*
X164042196Y-67780000D01*
X163917177Y-67767687D01*
X163756758Y-67719024D01*
X163608924Y-67640005D01*
X163608922Y-67640004D01*
X163479341Y-67533659D01*
X163372996Y-67404078D01*
X163341404Y-67344973D01*
X163293976Y-67256242D01*
X163245313Y-67095823D01*
X163228883Y-66929000D01*
X163245313Y-66762177D01*
X163293976Y-66601758D01*
X163372995Y-66453924D01*
X163372996Y-66453922D01*
X163479341Y-66324341D01*
X163608922Y-66217996D01*
X163685308Y-66177167D01*
X163756758Y-66138976D01*
X163917177Y-66090313D01*
X164042196Y-66078000D01*
X164125804Y-66078000D01*
X164250823Y-66090313D01*
X164250823Y-66090313D01*
G37*
G36*
X166790823Y-66090313D02*
G01*
X166951242Y-66138976D01*
X167022692Y-66177167D01*
X167099078Y-66217996D01*
X167228659Y-66324341D01*
X167335004Y-66453922D01*
X167335005Y-66453924D01*
X167414024Y-66601758D01*
X167462687Y-66762177D01*
X167479117Y-66929000D01*
X167462687Y-67095823D01*
X167414024Y-67256242D01*
X167366596Y-67344973D01*
X167335004Y-67404078D01*
X167228659Y-67533659D01*
X167099078Y-67640004D01*
X167099076Y-67640005D01*
X166951242Y-67719024D01*
X166790823Y-67767687D01*
X166665804Y-67780000D01*
X166582196Y-67780000D01*
X166457177Y-67767687D01*
X166296758Y-67719024D01*
X166148924Y-67640005D01*
X166148922Y-67640004D01*
X166019341Y-67533659D01*
X165912996Y-67404078D01*
X165881404Y-67344973D01*
X165833976Y-67256242D01*
X165785313Y-67095823D01*
X165768883Y-66929000D01*
X165785313Y-66762177D01*
X165833976Y-66601758D01*
X165912995Y-66453924D01*
X165912996Y-66453922D01*
X166019341Y-66324341D01*
X166148922Y-66217996D01*
X166225308Y-66177167D01*
X166296758Y-66138976D01*
X166457177Y-66090313D01*
X166582196Y-66078000D01*
X166665804Y-66078000D01*
X166790823Y-66090313D01*
X166790823Y-66090313D01*
G37*
G36*
X159170823Y-66090313D02*
G01*
X159331242Y-66138976D01*
X159402692Y-66177167D01*
X159479078Y-66217996D01*
X159608659Y-66324341D01*
X159715004Y-66453922D01*
X159715005Y-66453924D01*
X159794024Y-66601758D01*
X159842687Y-66762177D01*
X159859117Y-66929000D01*
X159842687Y-67095823D01*
X159794024Y-67256242D01*
X159746596Y-67344973D01*
X159715004Y-67404078D01*
X159608659Y-67533659D01*
X159479078Y-67640004D01*
X159479076Y-67640005D01*
X159331242Y-67719024D01*
X159170823Y-67767687D01*
X159045804Y-67780000D01*
X158962196Y-67780000D01*
X158837177Y-67767687D01*
X158676758Y-67719024D01*
X158528924Y-67640005D01*
X158528922Y-67640004D01*
X158399341Y-67533659D01*
X158292996Y-67404078D01*
X158261404Y-67344973D01*
X158213976Y-67256242D01*
X158165313Y-67095823D01*
X158148883Y-66929000D01*
X158165313Y-66762177D01*
X158213976Y-66601758D01*
X158292995Y-66453924D01*
X158292996Y-66453922D01*
X158399341Y-66324341D01*
X158528922Y-66217996D01*
X158605308Y-66177167D01*
X158676758Y-66138976D01*
X158837177Y-66090313D01*
X158962196Y-66078000D01*
X159045804Y-66078000D01*
X159170823Y-66090313D01*
X159170823Y-66090313D01*
G37*
G36*
X156630823Y-66090313D02*
G01*
X156791242Y-66138976D01*
X156862692Y-66177167D01*
X156939078Y-66217996D01*
X157068659Y-66324341D01*
X157175004Y-66453922D01*
X157175005Y-66453924D01*
X157254024Y-66601758D01*
X157302687Y-66762177D01*
X157319117Y-66929000D01*
X157302687Y-67095823D01*
X157254024Y-67256242D01*
X157206596Y-67344973D01*
X157175004Y-67404078D01*
X157068659Y-67533659D01*
X156939078Y-67640004D01*
X156939076Y-67640005D01*
X156791242Y-67719024D01*
X156630823Y-67767687D01*
X156505804Y-67780000D01*
X156422196Y-67780000D01*
X156297177Y-67767687D01*
X156136758Y-67719024D01*
X155988924Y-67640005D01*
X155988922Y-67640004D01*
X155859341Y-67533659D01*
X155752996Y-67404078D01*
X155721404Y-67344973D01*
X155673976Y-67256242D01*
X155625313Y-67095823D01*
X155608883Y-66929000D01*
X155625313Y-66762177D01*
X155673976Y-66601758D01*
X155752995Y-66453924D01*
X155752996Y-66453922D01*
X155859341Y-66324341D01*
X155988922Y-66217996D01*
X156065308Y-66177167D01*
X156136758Y-66138976D01*
X156297177Y-66090313D01*
X156422196Y-66078000D01*
X156505804Y-66078000D01*
X156630823Y-66090313D01*
X156630823Y-66090313D01*
G37*
G36*
X154090823Y-66090313D02*
G01*
X154251242Y-66138976D01*
X154322692Y-66177167D01*
X154399078Y-66217996D01*
X154528659Y-66324341D01*
X154635004Y-66453922D01*
X154635005Y-66453924D01*
X154714024Y-66601758D01*
X154762687Y-66762177D01*
X154779117Y-66929000D01*
X154762687Y-67095823D01*
X154714024Y-67256242D01*
X154666596Y-67344973D01*
X154635004Y-67404078D01*
X154528659Y-67533659D01*
X154399078Y-67640004D01*
X154399076Y-67640005D01*
X154251242Y-67719024D01*
X154090823Y-67767687D01*
X153965804Y-67780000D01*
X153882196Y-67780000D01*
X153757177Y-67767687D01*
X153596758Y-67719024D01*
X153448924Y-67640005D01*
X153448922Y-67640004D01*
X153319341Y-67533659D01*
X153212996Y-67404078D01*
X153181404Y-67344973D01*
X153133976Y-67256242D01*
X153085313Y-67095823D01*
X153068883Y-66929000D01*
X153085313Y-66762177D01*
X153133976Y-66601758D01*
X153212995Y-66453924D01*
X153212996Y-66453922D01*
X153319341Y-66324341D01*
X153448922Y-66217996D01*
X153525308Y-66177167D01*
X153596758Y-66138976D01*
X153757177Y-66090313D01*
X153882196Y-66078000D01*
X153965804Y-66078000D01*
X154090823Y-66090313D01*
X154090823Y-66090313D01*
G37*
G36*
X151550823Y-66090313D02*
G01*
X151711242Y-66138976D01*
X151782692Y-66177167D01*
X151859078Y-66217996D01*
X151988659Y-66324341D01*
X152095004Y-66453922D01*
X152095005Y-66453924D01*
X152174024Y-66601758D01*
X152222687Y-66762177D01*
X152239117Y-66929000D01*
X152222687Y-67095823D01*
X152174024Y-67256242D01*
X152126596Y-67344973D01*
X152095004Y-67404078D01*
X151988659Y-67533659D01*
X151859078Y-67640004D01*
X151859076Y-67640005D01*
X151711242Y-67719024D01*
X151550823Y-67767687D01*
X151425804Y-67780000D01*
X151342196Y-67780000D01*
X151217177Y-67767687D01*
X151056758Y-67719024D01*
X150908924Y-67640005D01*
X150908922Y-67640004D01*
X150779341Y-67533659D01*
X150672996Y-67404078D01*
X150641404Y-67344973D01*
X150593976Y-67256242D01*
X150545313Y-67095823D01*
X150528883Y-66929000D01*
X150545313Y-66762177D01*
X150593976Y-66601758D01*
X150672995Y-66453924D01*
X150672996Y-66453922D01*
X150779341Y-66324341D01*
X150908922Y-66217996D01*
X150985308Y-66177167D01*
X151056758Y-66138976D01*
X151217177Y-66090313D01*
X151342196Y-66078000D01*
X151425804Y-66078000D01*
X151550823Y-66090313D01*
X151550823Y-66090313D01*
G37*
G36*
X149010823Y-66090313D02*
G01*
X149171242Y-66138976D01*
X149242692Y-66177167D01*
X149319078Y-66217996D01*
X149448659Y-66324341D01*
X149555004Y-66453922D01*
X149555005Y-66453924D01*
X149634024Y-66601758D01*
X149682687Y-66762177D01*
X149699117Y-66929000D01*
X149682687Y-67095823D01*
X149634024Y-67256242D01*
X149586596Y-67344973D01*
X149555004Y-67404078D01*
X149448659Y-67533659D01*
X149319078Y-67640004D01*
X149319076Y-67640005D01*
X149171242Y-67719024D01*
X149010823Y-67767687D01*
X148885804Y-67780000D01*
X148802196Y-67780000D01*
X148677177Y-67767687D01*
X148516758Y-67719024D01*
X148368924Y-67640005D01*
X148368922Y-67640004D01*
X148239341Y-67533659D01*
X148132996Y-67404078D01*
X148101404Y-67344973D01*
X148053976Y-67256242D01*
X148005313Y-67095823D01*
X147988883Y-66929000D01*
X148005313Y-66762177D01*
X148053976Y-66601758D01*
X148132995Y-66453924D01*
X148132996Y-66453922D01*
X148239341Y-66324341D01*
X148368922Y-66217996D01*
X148445308Y-66177167D01*
X148516758Y-66138976D01*
X148677177Y-66090313D01*
X148802196Y-66078000D01*
X148885804Y-66078000D01*
X149010823Y-66090313D01*
X149010823Y-66090313D01*
G37*
G36*
X144950823Y-66090313D02*
G01*
X145111242Y-66138976D01*
X145182692Y-66177167D01*
X145259078Y-66217996D01*
X145388659Y-66324341D01*
X145495004Y-66453922D01*
X145495005Y-66453924D01*
X145574024Y-66601758D01*
X145622687Y-66762177D01*
X145639117Y-66929000D01*
X145622687Y-67095823D01*
X145574024Y-67256242D01*
X145526596Y-67344973D01*
X145495004Y-67404078D01*
X145388659Y-67533659D01*
X145259078Y-67640004D01*
X145259076Y-67640005D01*
X145111242Y-67719024D01*
X144950823Y-67767687D01*
X144825804Y-67780000D01*
X144742196Y-67780000D01*
X144617177Y-67767687D01*
X144456758Y-67719024D01*
X144308924Y-67640005D01*
X144308922Y-67640004D01*
X144179341Y-67533659D01*
X144072996Y-67404078D01*
X144041404Y-67344973D01*
X143993976Y-67256242D01*
X143945313Y-67095823D01*
X143928883Y-66929000D01*
X143945313Y-66762177D01*
X143993976Y-66601758D01*
X144072995Y-66453924D01*
X144072996Y-66453922D01*
X144179341Y-66324341D01*
X144308922Y-66217996D01*
X144385308Y-66177167D01*
X144456758Y-66138976D01*
X144617177Y-66090313D01*
X144742196Y-66078000D01*
X144825804Y-66078000D01*
X144950823Y-66090313D01*
X144950823Y-66090313D01*
G37*
G36*
X142410823Y-66090313D02*
G01*
X142571242Y-66138976D01*
X142642692Y-66177167D01*
X142719078Y-66217996D01*
X142848659Y-66324341D01*
X142955004Y-66453922D01*
X142955005Y-66453924D01*
X143034024Y-66601758D01*
X143082687Y-66762177D01*
X143099117Y-66929000D01*
X143082687Y-67095823D01*
X143034024Y-67256242D01*
X142986596Y-67344973D01*
X142955004Y-67404078D01*
X142848659Y-67533659D01*
X142719078Y-67640004D01*
X142719076Y-67640005D01*
X142571242Y-67719024D01*
X142410823Y-67767687D01*
X142285804Y-67780000D01*
X142202196Y-67780000D01*
X142077177Y-67767687D01*
X141916758Y-67719024D01*
X141768924Y-67640005D01*
X141768922Y-67640004D01*
X141639341Y-67533659D01*
X141532996Y-67404078D01*
X141501404Y-67344973D01*
X141453976Y-67256242D01*
X141405313Y-67095823D01*
X141388883Y-66929000D01*
X141405313Y-66762177D01*
X141453976Y-66601758D01*
X141532995Y-66453924D01*
X141532996Y-66453922D01*
X141639341Y-66324341D01*
X141768922Y-66217996D01*
X141845308Y-66177167D01*
X141916758Y-66138976D01*
X142077177Y-66090313D01*
X142202196Y-66078000D01*
X142285804Y-66078000D01*
X142410823Y-66090313D01*
X142410823Y-66090313D01*
G37*
G36*
X139870823Y-66090313D02*
G01*
X140031242Y-66138976D01*
X140102692Y-66177167D01*
X140179078Y-66217996D01*
X140308659Y-66324341D01*
X140415004Y-66453922D01*
X140415005Y-66453924D01*
X140494024Y-66601758D01*
X140542687Y-66762177D01*
X140559117Y-66929000D01*
X140542687Y-67095823D01*
X140494024Y-67256242D01*
X140446596Y-67344973D01*
X140415004Y-67404078D01*
X140308659Y-67533659D01*
X140179078Y-67640004D01*
X140179076Y-67640005D01*
X140031242Y-67719024D01*
X139870823Y-67767687D01*
X139745804Y-67780000D01*
X139662196Y-67780000D01*
X139537177Y-67767687D01*
X139376758Y-67719024D01*
X139228924Y-67640005D01*
X139228922Y-67640004D01*
X139099341Y-67533659D01*
X138992996Y-67404078D01*
X138961404Y-67344973D01*
X138913976Y-67256242D01*
X138865313Y-67095823D01*
X138848883Y-66929000D01*
X138865313Y-66762177D01*
X138913976Y-66601758D01*
X138992995Y-66453924D01*
X138992996Y-66453922D01*
X139099341Y-66324341D01*
X139228922Y-66217996D01*
X139305308Y-66177167D01*
X139376758Y-66138976D01*
X139537177Y-66090313D01*
X139662196Y-66078000D01*
X139745804Y-66078000D01*
X139870823Y-66090313D01*
X139870823Y-66090313D01*
G37*
G36*
X137330823Y-66090313D02*
G01*
X137491242Y-66138976D01*
X137562692Y-66177167D01*
X137639078Y-66217996D01*
X137768659Y-66324341D01*
X137875004Y-66453922D01*
X137875005Y-66453924D01*
X137954024Y-66601758D01*
X138002687Y-66762177D01*
X138019117Y-66929000D01*
X138002687Y-67095823D01*
X137954024Y-67256242D01*
X137906596Y-67344973D01*
X137875004Y-67404078D01*
X137768659Y-67533659D01*
X137639078Y-67640004D01*
X137639076Y-67640005D01*
X137491242Y-67719024D01*
X137330823Y-67767687D01*
X137205804Y-67780000D01*
X137122196Y-67780000D01*
X136997177Y-67767687D01*
X136836758Y-67719024D01*
X136688924Y-67640005D01*
X136688922Y-67640004D01*
X136559341Y-67533659D01*
X136452996Y-67404078D01*
X136421404Y-67344973D01*
X136373976Y-67256242D01*
X136325313Y-67095823D01*
X136308883Y-66929000D01*
X136325313Y-66762177D01*
X136373976Y-66601758D01*
X136452995Y-66453924D01*
X136452996Y-66453922D01*
X136559341Y-66324341D01*
X136688922Y-66217996D01*
X136765308Y-66177167D01*
X136836758Y-66138976D01*
X136997177Y-66090313D01*
X137122196Y-66078000D01*
X137205804Y-66078000D01*
X137330823Y-66090313D01*
X137330823Y-66090313D01*
G37*
G36*
X134790823Y-66090313D02*
G01*
X134951242Y-66138976D01*
X135022692Y-66177167D01*
X135099078Y-66217996D01*
X135228659Y-66324341D01*
X135335004Y-66453922D01*
X135335005Y-66453924D01*
X135414024Y-66601758D01*
X135462687Y-66762177D01*
X135479117Y-66929000D01*
X135462687Y-67095823D01*
X135414024Y-67256242D01*
X135366596Y-67344973D01*
X135335004Y-67404078D01*
X135228659Y-67533659D01*
X135099078Y-67640004D01*
X135099076Y-67640005D01*
X134951242Y-67719024D01*
X134790823Y-67767687D01*
X134665804Y-67780000D01*
X134582196Y-67780000D01*
X134457177Y-67767687D01*
X134296758Y-67719024D01*
X134148924Y-67640005D01*
X134148922Y-67640004D01*
X134019341Y-67533659D01*
X133912996Y-67404078D01*
X133881404Y-67344973D01*
X133833976Y-67256242D01*
X133785313Y-67095823D01*
X133768883Y-66929000D01*
X133785313Y-66762177D01*
X133833976Y-66601758D01*
X133912995Y-66453924D01*
X133912996Y-66453922D01*
X134019341Y-66324341D01*
X134148922Y-66217996D01*
X134225308Y-66177167D01*
X134296758Y-66138976D01*
X134457177Y-66090313D01*
X134582196Y-66078000D01*
X134665804Y-66078000D01*
X134790823Y-66090313D01*
X134790823Y-66090313D01*
G37*
G36*
X132250823Y-66090313D02*
G01*
X132411242Y-66138976D01*
X132482692Y-66177167D01*
X132559078Y-66217996D01*
X132688659Y-66324341D01*
X132795004Y-66453922D01*
X132795005Y-66453924D01*
X132874024Y-66601758D01*
X132922687Y-66762177D01*
X132939117Y-66929000D01*
X132922687Y-67095823D01*
X132874024Y-67256242D01*
X132826596Y-67344973D01*
X132795004Y-67404078D01*
X132688659Y-67533659D01*
X132559078Y-67640004D01*
X132559076Y-67640005D01*
X132411242Y-67719024D01*
X132250823Y-67767687D01*
X132125804Y-67780000D01*
X132042196Y-67780000D01*
X131917177Y-67767687D01*
X131756758Y-67719024D01*
X131608924Y-67640005D01*
X131608922Y-67640004D01*
X131479341Y-67533659D01*
X131372996Y-67404078D01*
X131341404Y-67344973D01*
X131293976Y-67256242D01*
X131245313Y-67095823D01*
X131228883Y-66929000D01*
X131245313Y-66762177D01*
X131293976Y-66601758D01*
X131372995Y-66453924D01*
X131372996Y-66453922D01*
X131479341Y-66324341D01*
X131608922Y-66217996D01*
X131685308Y-66177167D01*
X131756758Y-66138976D01*
X131917177Y-66090313D01*
X132042196Y-66078000D01*
X132125804Y-66078000D01*
X132250823Y-66090313D01*
X132250823Y-66090313D01*
G37*
G36*
X129710823Y-66090313D02*
G01*
X129871242Y-66138976D01*
X129942692Y-66177167D01*
X130019078Y-66217996D01*
X130148659Y-66324341D01*
X130255004Y-66453922D01*
X130255005Y-66453924D01*
X130334024Y-66601758D01*
X130382687Y-66762177D01*
X130399117Y-66929000D01*
X130382687Y-67095823D01*
X130334024Y-67256242D01*
X130286596Y-67344973D01*
X130255004Y-67404078D01*
X130148659Y-67533659D01*
X130019078Y-67640004D01*
X130019076Y-67640005D01*
X129871242Y-67719024D01*
X129710823Y-67767687D01*
X129585804Y-67780000D01*
X129502196Y-67780000D01*
X129377177Y-67767687D01*
X129216758Y-67719024D01*
X129068924Y-67640005D01*
X129068922Y-67640004D01*
X128939341Y-67533659D01*
X128832996Y-67404078D01*
X128801404Y-67344973D01*
X128753976Y-67256242D01*
X128705313Y-67095823D01*
X128688883Y-66929000D01*
X128705313Y-66762177D01*
X128753976Y-66601758D01*
X128832995Y-66453924D01*
X128832996Y-66453922D01*
X128939341Y-66324341D01*
X129068922Y-66217996D01*
X129145308Y-66177167D01*
X129216758Y-66138976D01*
X129377177Y-66090313D01*
X129502196Y-66078000D01*
X129585804Y-66078000D01*
X129710823Y-66090313D01*
X129710823Y-66090313D01*
G37*
G36*
X127170823Y-66090313D02*
G01*
X127331242Y-66138976D01*
X127402692Y-66177167D01*
X127479078Y-66217996D01*
X127608659Y-66324341D01*
X127715004Y-66453922D01*
X127715005Y-66453924D01*
X127794024Y-66601758D01*
X127842687Y-66762177D01*
X127859117Y-66929000D01*
X127842687Y-67095823D01*
X127794024Y-67256242D01*
X127746596Y-67344973D01*
X127715004Y-67404078D01*
X127608659Y-67533659D01*
X127479078Y-67640004D01*
X127479076Y-67640005D01*
X127331242Y-67719024D01*
X127170823Y-67767687D01*
X127045804Y-67780000D01*
X126962196Y-67780000D01*
X126837177Y-67767687D01*
X126676758Y-67719024D01*
X126528924Y-67640005D01*
X126528922Y-67640004D01*
X126399341Y-67533659D01*
X126292996Y-67404078D01*
X126261404Y-67344973D01*
X126213976Y-67256242D01*
X126165313Y-67095823D01*
X126148883Y-66929000D01*
X126165313Y-66762177D01*
X126213976Y-66601758D01*
X126292995Y-66453924D01*
X126292996Y-66453922D01*
X126399341Y-66324341D01*
X126528922Y-66217996D01*
X126605308Y-66177167D01*
X126676758Y-66138976D01*
X126837177Y-66090313D01*
X126962196Y-66078000D01*
X127045804Y-66078000D01*
X127170823Y-66090313D01*
X127170823Y-66090313D01*
G37*
G36*
X124630823Y-66090313D02*
G01*
X124791242Y-66138976D01*
X124862692Y-66177167D01*
X124939078Y-66217996D01*
X125068659Y-66324341D01*
X125175004Y-66453922D01*
X125175005Y-66453924D01*
X125254024Y-66601758D01*
X125302687Y-66762177D01*
X125319117Y-66929000D01*
X125302687Y-67095823D01*
X125254024Y-67256242D01*
X125206596Y-67344973D01*
X125175004Y-67404078D01*
X125068659Y-67533659D01*
X124939078Y-67640004D01*
X124939076Y-67640005D01*
X124791242Y-67719024D01*
X124630823Y-67767687D01*
X124505804Y-67780000D01*
X124422196Y-67780000D01*
X124297177Y-67767687D01*
X124136758Y-67719024D01*
X123988924Y-67640005D01*
X123988922Y-67640004D01*
X123859341Y-67533659D01*
X123752996Y-67404078D01*
X123721404Y-67344973D01*
X123673976Y-67256242D01*
X123625313Y-67095823D01*
X123608883Y-66929000D01*
X123625313Y-66762177D01*
X123673976Y-66601758D01*
X123752995Y-66453924D01*
X123752996Y-66453922D01*
X123859341Y-66324341D01*
X123988922Y-66217996D01*
X124065308Y-66177167D01*
X124136758Y-66138976D01*
X124297177Y-66090313D01*
X124422196Y-66078000D01*
X124505804Y-66078000D01*
X124630823Y-66090313D01*
X124630823Y-66090313D01*
G37*
G36*
X122090823Y-66090313D02*
G01*
X122251242Y-66138976D01*
X122322692Y-66177167D01*
X122399078Y-66217996D01*
X122528659Y-66324341D01*
X122635004Y-66453922D01*
X122635005Y-66453924D01*
X122714024Y-66601758D01*
X122762687Y-66762177D01*
X122779117Y-66929000D01*
X122762687Y-67095823D01*
X122714024Y-67256242D01*
X122666596Y-67344973D01*
X122635004Y-67404078D01*
X122528659Y-67533659D01*
X122399078Y-67640004D01*
X122399076Y-67640005D01*
X122251242Y-67719024D01*
X122090823Y-67767687D01*
X121965804Y-67780000D01*
X121882196Y-67780000D01*
X121757177Y-67767687D01*
X121596758Y-67719024D01*
X121448924Y-67640005D01*
X121448922Y-67640004D01*
X121319341Y-67533659D01*
X121212996Y-67404078D01*
X121181404Y-67344973D01*
X121133976Y-67256242D01*
X121085313Y-67095823D01*
X121068883Y-66929000D01*
X121085313Y-66762177D01*
X121133976Y-66601758D01*
X121212995Y-66453924D01*
X121212996Y-66453922D01*
X121319341Y-66324341D01*
X121448922Y-66217996D01*
X121525308Y-66177167D01*
X121596758Y-66138976D01*
X121757177Y-66090313D01*
X121882196Y-66078000D01*
X121965804Y-66078000D01*
X122090823Y-66090313D01*
X122090823Y-66090313D01*
G37*
G36*
X112597564Y-65664389D02*
G01*
X112788833Y-65743615D01*
X112788835Y-65743616D01*
X112960973Y-65858635D01*
X113107365Y-66005027D01*
X113222385Y-66177167D01*
X113301611Y-66368436D01*
X113342000Y-66571484D01*
X113342000Y-66778516D01*
X113301611Y-66981564D01*
X113222385Y-67172833D01*
X113222384Y-67172835D01*
X113107365Y-67344973D01*
X112960973Y-67491365D01*
X112788835Y-67606384D01*
X112788834Y-67606385D01*
X112788833Y-67606385D01*
X112597564Y-67685611D01*
X112394516Y-67726000D01*
X112187484Y-67726000D01*
X111984436Y-67685611D01*
X111793167Y-67606385D01*
X111793166Y-67606385D01*
X111793165Y-67606384D01*
X111621027Y-67491365D01*
X111474635Y-67344973D01*
X111359616Y-67172835D01*
X111359615Y-67172833D01*
X111280389Y-66981564D01*
X111240000Y-66778516D01*
X111240000Y-66571484D01*
X111280389Y-66368436D01*
X111359615Y-66177167D01*
X111474635Y-66005027D01*
X111621027Y-65858635D01*
X111793165Y-65743616D01*
X111793167Y-65743615D01*
X111984436Y-65664389D01*
X112187484Y-65624000D01*
X112394516Y-65624000D01*
X112597564Y-65664389D01*
X112597564Y-65664389D01*
G37*
G36*
X106097564Y-65664389D02*
G01*
X106288833Y-65743615D01*
X106288835Y-65743616D01*
X106460973Y-65858635D01*
X106607365Y-66005027D01*
X106722385Y-66177167D01*
X106801611Y-66368436D01*
X106842000Y-66571484D01*
X106842000Y-66778516D01*
X106801611Y-66981564D01*
X106722385Y-67172833D01*
X106722384Y-67172835D01*
X106607365Y-67344973D01*
X106460973Y-67491365D01*
X106288835Y-67606384D01*
X106288834Y-67606385D01*
X106288833Y-67606385D01*
X106097564Y-67685611D01*
X105894516Y-67726000D01*
X105687484Y-67726000D01*
X105484436Y-67685611D01*
X105293167Y-67606385D01*
X105293166Y-67606385D01*
X105293165Y-67606384D01*
X105121027Y-67491365D01*
X104974635Y-67344973D01*
X104859616Y-67172835D01*
X104859615Y-67172833D01*
X104780389Y-66981564D01*
X104740000Y-66778516D01*
X104740000Y-66571484D01*
X104780389Y-66368436D01*
X104859615Y-66177167D01*
X104974635Y-66005027D01*
X105121027Y-65858635D01*
X105293165Y-65743616D01*
X105293167Y-65743615D01*
X105484436Y-65664389D01*
X105687484Y-65624000D01*
X105894516Y-65624000D01*
X106097564Y-65664389D01*
X106097564Y-65664389D01*
G37*
M02*
