G04 #@! TF.GenerationSoftware,KiCad,Pcbnew,(5.1.4-0-10_14)*
G04 #@! TF.CreationDate,2020-06-08T18:04:02+02:00*
G04 #@! TF.ProjectId,myShield,6d795368-6965-46c6-942e-6b696361645f,rev?*
G04 #@! TF.SameCoordinates,Original*
G04 #@! TF.FileFunction,Legend,Top*
G04 #@! TF.FilePolarity,Positive*
%FSLAX46Y46*%
G04 Gerber Fmt 4.6, Leading zero omitted, Abs format (unit mm)*
G04 Created by KiCad (PCBNEW (5.1.4-0-10_14)) date 2020-06-08 18:04:02*
%MOMM*%
%LPD*%
G04 APERTURE LIST*
%ADD10C,0.150000*%
%ADD11C,0.120000*%
G04 APERTURE END LIST*
D10*
X108545380Y-73604380D02*
X108212047Y-73128190D01*
X107973952Y-73604380D02*
X107973952Y-72604380D01*
X108354904Y-72604380D01*
X108450142Y-72652000D01*
X108497761Y-72699619D01*
X108545380Y-72794857D01*
X108545380Y-72937714D01*
X108497761Y-73032952D01*
X108450142Y-73080571D01*
X108354904Y-73128190D01*
X107973952Y-73128190D01*
X108926333Y-73556761D02*
X109069190Y-73604380D01*
X109307285Y-73604380D01*
X109402523Y-73556761D01*
X109450142Y-73509142D01*
X109497761Y-73413904D01*
X109497761Y-73318666D01*
X109450142Y-73223428D01*
X109402523Y-73175809D01*
X109307285Y-73128190D01*
X109116809Y-73080571D01*
X109021571Y-73032952D01*
X108973952Y-72985333D01*
X108926333Y-72890095D01*
X108926333Y-72794857D01*
X108973952Y-72699619D01*
X109021571Y-72652000D01*
X109116809Y-72604380D01*
X109354904Y-72604380D01*
X109497761Y-72652000D01*
X109783476Y-72604380D02*
X110354904Y-72604380D01*
X110069190Y-73604380D02*
X110069190Y-72604380D01*
D11*
X171464000Y-82804000D02*
G75*
G03X171464000Y-82804000I-6100000J0D01*
G01*
X109924000Y-105410462D02*
G75*
G03X104374000Y-103865170I-2990000J462D01*
G01*
X109924000Y-105409538D02*
G75*
G02X104374000Y-106954830I-2990000J-462D01*
G01*
X109434000Y-105410000D02*
G75*
G03X109434000Y-105410000I-2500000J0D01*
G01*
X104374000Y-103865000D02*
X104374000Y-106955000D01*
X104374000Y-95991000D02*
X104374000Y-99081000D01*
X109434000Y-97536000D02*
G75*
G03X109434000Y-97536000I-2500000J0D01*
G01*
X109924000Y-97535538D02*
G75*
G02X104374000Y-99080830I-2990000J-462D01*
G01*
X109924000Y-97536462D02*
G75*
G03X104374000Y-95991170I-2990000J462D01*
G01*
X109924000Y-89408462D02*
G75*
G03X104374000Y-87863170I-2990000J462D01*
G01*
X109924000Y-89407538D02*
G75*
G02X104374000Y-90952830I-2990000J-462D01*
G01*
X109434000Y-89408000D02*
G75*
G03X109434000Y-89408000I-2500000J0D01*
G01*
X104374000Y-87863000D02*
X104374000Y-90953000D01*
X137287000Y-100517000D02*
X137287000Y-97857000D01*
X137287000Y-100517000D02*
X144967000Y-100517000D01*
X144967000Y-100517000D02*
X144967000Y-97857000D01*
X137287000Y-97857000D02*
X144967000Y-97857000D01*
X134687000Y-97857000D02*
X136017000Y-97857000D01*
X134687000Y-99187000D02*
X134687000Y-97857000D01*
X116526000Y-114300000D02*
X116526000Y-112970000D01*
X116526000Y-112970000D02*
X117856000Y-112970000D01*
X119126000Y-112970000D02*
X126806000Y-112970000D01*
X126806000Y-115630000D02*
X126806000Y-112970000D01*
X119126000Y-115630000D02*
X126806000Y-115630000D01*
X119126000Y-115630000D02*
X119126000Y-112970000D01*
X161830000Y-90070000D02*
X161830000Y-92810000D01*
X161830000Y-92810000D02*
X168370000Y-92810000D01*
X168370000Y-92810000D02*
X168370000Y-90070000D01*
X168370000Y-90070000D02*
X161830000Y-90070000D01*
X161060000Y-91440000D02*
X161830000Y-91440000D01*
X169140000Y-91440000D02*
X168370000Y-91440000D01*
X119244000Y-70154000D02*
X119244000Y-67504000D01*
X114944000Y-70154000D02*
X114944000Y-67504000D01*
X114959612Y-70179476D02*
G75*
G03X119244000Y-70154000I2134388J1325476D01*
G01*
X119226144Y-67475973D02*
G75*
G03X114944000Y-67504000I-2132144J-1378027D01*
G01*
X161830000Y-100738000D02*
X161830000Y-103478000D01*
X161830000Y-103478000D02*
X168370000Y-103478000D01*
X168370000Y-103478000D02*
X168370000Y-100738000D01*
X168370000Y-100738000D02*
X161830000Y-100738000D01*
X161060000Y-102108000D02*
X161830000Y-102108000D01*
X169140000Y-102108000D02*
X168370000Y-102108000D01*
X168370000Y-99922000D02*
X168370000Y-97182000D01*
X168370000Y-97182000D02*
X161830000Y-97182000D01*
X161830000Y-97182000D02*
X161830000Y-99922000D01*
X161830000Y-99922000D02*
X168370000Y-99922000D01*
X169140000Y-98552000D02*
X168370000Y-98552000D01*
X161060000Y-98552000D02*
X161830000Y-98552000D01*
X113816000Y-96012000D02*
X114586000Y-96012000D01*
X121896000Y-96012000D02*
X121126000Y-96012000D01*
X114586000Y-97382000D02*
X121126000Y-97382000D01*
X114586000Y-94642000D02*
X114586000Y-97382000D01*
X121126000Y-94642000D02*
X114586000Y-94642000D01*
X121126000Y-97382000D02*
X121126000Y-94642000D01*
X121126000Y-93953000D02*
X121126000Y-91213000D01*
X121126000Y-91213000D02*
X114586000Y-91213000D01*
X114586000Y-91213000D02*
X114586000Y-93953000D01*
X114586000Y-93953000D02*
X121126000Y-93953000D01*
X121896000Y-92583000D02*
X121126000Y-92583000D01*
X113816000Y-92583000D02*
X114586000Y-92583000D01*
X113816000Y-89281000D02*
X114586000Y-89281000D01*
X121896000Y-89281000D02*
X121126000Y-89281000D01*
X114586000Y-90651000D02*
X121126000Y-90651000D01*
X114586000Y-87911000D02*
X114586000Y-90651000D01*
X121126000Y-87911000D02*
X114586000Y-87911000D01*
X121126000Y-90651000D02*
X121126000Y-87911000D01*
X169140000Y-94996000D02*
X168370000Y-94996000D01*
X161060000Y-94996000D02*
X161830000Y-94996000D01*
X168370000Y-93626000D02*
X161830000Y-93626000D01*
X168370000Y-96366000D02*
X168370000Y-93626000D01*
X161830000Y-96366000D02*
X168370000Y-96366000D01*
X161830000Y-93626000D02*
X161830000Y-96366000D01*
X113816000Y-106553000D02*
X114586000Y-106553000D01*
X121896000Y-106553000D02*
X121126000Y-106553000D01*
X114586000Y-107923000D02*
X121126000Y-107923000D01*
X114586000Y-105183000D02*
X114586000Y-107923000D01*
X121126000Y-105183000D02*
X114586000Y-105183000D01*
X121126000Y-107923000D02*
X121126000Y-105183000D01*
X121126000Y-100938000D02*
X121126000Y-98198000D01*
X121126000Y-98198000D02*
X114586000Y-98198000D01*
X114586000Y-98198000D02*
X114586000Y-100938000D01*
X114586000Y-100938000D02*
X121126000Y-100938000D01*
X121896000Y-99568000D02*
X121126000Y-99568000D01*
X113816000Y-99568000D02*
X114586000Y-99568000D01*
X113816000Y-102997000D02*
X114586000Y-102997000D01*
X121896000Y-102997000D02*
X121126000Y-102997000D01*
X114586000Y-104367000D02*
X121126000Y-104367000D01*
X114586000Y-101627000D02*
X114586000Y-104367000D01*
X121126000Y-101627000D02*
X114586000Y-101627000D01*
X121126000Y-104367000D02*
X121126000Y-101627000D01*
X115415000Y-85083000D02*
X115415000Y-74843000D01*
X125456000Y-85083000D02*
X125456000Y-74843000D01*
X115415000Y-85083000D02*
X116510000Y-85083000D01*
X119362000Y-85083000D02*
X121511000Y-85083000D01*
X124361000Y-85083000D02*
X125456000Y-85083000D01*
X115415000Y-74843000D02*
X119011000Y-74843000D01*
X121861000Y-74843000D02*
X125456000Y-74843000D01*
X131048000Y-110021000D02*
X135548000Y-110021000D01*
X129798000Y-106021000D02*
X129798000Y-107521000D01*
X135548000Y-103521000D02*
X131048000Y-103521000D01*
X136798000Y-107521000D02*
X136798000Y-106021000D01*
X148482000Y-107521000D02*
X148482000Y-106021000D01*
X147232000Y-103521000D02*
X142732000Y-103521000D01*
X141482000Y-106021000D02*
X141482000Y-107521000D01*
X142732000Y-110021000D02*
X147232000Y-110021000D01*
X146734000Y-77832000D02*
X146734000Y-71011000D01*
X158574000Y-77832000D02*
X158574000Y-71011000D01*
X146734000Y-77832000D02*
X147804000Y-77832000D01*
X149884000Y-77832000D02*
X150395000Y-77832000D01*
X152374000Y-77832000D02*
X152935000Y-77832000D01*
X154914000Y-77832000D02*
X155475000Y-77832000D01*
X157454000Y-77832000D02*
X158574000Y-77832000D01*
X157454000Y-71011000D02*
X158574000Y-71011000D01*
X154914000Y-71011000D02*
X155475000Y-71011000D01*
X152374000Y-71011000D02*
X152935000Y-71011000D01*
X146734000Y-71011000D02*
X147854000Y-71011000D01*
X149834000Y-71011000D02*
X150395000Y-71011000D01*
X146494000Y-78072000D02*
X146494000Y-76689000D01*
X146494000Y-78072000D02*
X147804000Y-78072000D01*
X148209000Y-76232000D02*
X149479000Y-76232000D01*
X149479000Y-76232000D02*
X149479000Y-72612000D01*
X149479000Y-72612000D02*
X148209000Y-72612000D01*
X148209000Y-72612000D02*
X148209000Y-76232000D01*
X148329000Y-76232000D02*
X148329000Y-75025333D01*
X148449000Y-76232000D02*
X148449000Y-75025333D01*
X148569000Y-76232000D02*
X148569000Y-75025333D01*
X148689000Y-76232000D02*
X148689000Y-75025333D01*
X148809000Y-76232000D02*
X148809000Y-75025333D01*
X148929000Y-76232000D02*
X148929000Y-75025333D01*
X149049000Y-76232000D02*
X149049000Y-75025333D01*
X149169000Y-76232000D02*
X149169000Y-75025333D01*
X149289000Y-76232000D02*
X149289000Y-75025333D01*
X149409000Y-76232000D02*
X149409000Y-75025333D01*
X148209000Y-75025333D02*
X149479000Y-75025333D01*
X150749000Y-76232000D02*
X152019000Y-76232000D01*
X152019000Y-76232000D02*
X152019000Y-72612000D01*
X152019000Y-72612000D02*
X150749000Y-72612000D01*
X150749000Y-72612000D02*
X150749000Y-76232000D01*
X150869000Y-76232000D02*
X150869000Y-75025333D01*
X150989000Y-76232000D02*
X150989000Y-75025333D01*
X151109000Y-76232000D02*
X151109000Y-75025333D01*
X151229000Y-76232000D02*
X151229000Y-75025333D01*
X151349000Y-76232000D02*
X151349000Y-75025333D01*
X151469000Y-76232000D02*
X151469000Y-75025333D01*
X151589000Y-76232000D02*
X151589000Y-75025333D01*
X151709000Y-76232000D02*
X151709000Y-75025333D01*
X151829000Y-76232000D02*
X151829000Y-75025333D01*
X151949000Y-76232000D02*
X151949000Y-75025333D01*
X150749000Y-75025333D02*
X152019000Y-75025333D01*
X153289000Y-76232000D02*
X154559000Y-76232000D01*
X154559000Y-76232000D02*
X154559000Y-72612000D01*
X154559000Y-72612000D02*
X153289000Y-72612000D01*
X153289000Y-72612000D02*
X153289000Y-76232000D01*
X153409000Y-76232000D02*
X153409000Y-75025333D01*
X153529000Y-76232000D02*
X153529000Y-75025333D01*
X153649000Y-76232000D02*
X153649000Y-75025333D01*
X153769000Y-76232000D02*
X153769000Y-75025333D01*
X153889000Y-76232000D02*
X153889000Y-75025333D01*
X154009000Y-76232000D02*
X154009000Y-75025333D01*
X154129000Y-76232000D02*
X154129000Y-75025333D01*
X154249000Y-76232000D02*
X154249000Y-75025333D01*
X154369000Y-76232000D02*
X154369000Y-75025333D01*
X154489000Y-76232000D02*
X154489000Y-75025333D01*
X153289000Y-75025333D02*
X154559000Y-75025333D01*
X155829000Y-76232000D02*
X157099000Y-76232000D01*
X157099000Y-76232000D02*
X157099000Y-72612000D01*
X157099000Y-72612000D02*
X155829000Y-72612000D01*
X155829000Y-72612000D02*
X155829000Y-76232000D01*
X155949000Y-76232000D02*
X155949000Y-75025333D01*
X156069000Y-76232000D02*
X156069000Y-75025333D01*
X156189000Y-76232000D02*
X156189000Y-75025333D01*
X156309000Y-76232000D02*
X156309000Y-75025333D01*
X156429000Y-76232000D02*
X156429000Y-75025333D01*
X156549000Y-76232000D02*
X156549000Y-75025333D01*
X156669000Y-76232000D02*
X156669000Y-75025333D01*
X156789000Y-76232000D02*
X156789000Y-75025333D01*
X156909000Y-76232000D02*
X156909000Y-75025333D01*
X157029000Y-76232000D02*
X157029000Y-75025333D01*
X155829000Y-75025333D02*
X157099000Y-75025333D01*
X141605000Y-75025333D02*
X142875000Y-75025333D01*
X142805000Y-76232000D02*
X142805000Y-75025333D01*
X142685000Y-76232000D02*
X142685000Y-75025333D01*
X142565000Y-76232000D02*
X142565000Y-75025333D01*
X142445000Y-76232000D02*
X142445000Y-75025333D01*
X142325000Y-76232000D02*
X142325000Y-75025333D01*
X142205000Y-76232000D02*
X142205000Y-75025333D01*
X142085000Y-76232000D02*
X142085000Y-75025333D01*
X141965000Y-76232000D02*
X141965000Y-75025333D01*
X141845000Y-76232000D02*
X141845000Y-75025333D01*
X141725000Y-76232000D02*
X141725000Y-75025333D01*
X141605000Y-72612000D02*
X141605000Y-76232000D01*
X142875000Y-72612000D02*
X141605000Y-72612000D01*
X142875000Y-76232000D02*
X142875000Y-72612000D01*
X141605000Y-76232000D02*
X142875000Y-76232000D01*
X139065000Y-75025333D02*
X140335000Y-75025333D01*
X140265000Y-76232000D02*
X140265000Y-75025333D01*
X140145000Y-76232000D02*
X140145000Y-75025333D01*
X140025000Y-76232000D02*
X140025000Y-75025333D01*
X139905000Y-76232000D02*
X139905000Y-75025333D01*
X139785000Y-76232000D02*
X139785000Y-75025333D01*
X139665000Y-76232000D02*
X139665000Y-75025333D01*
X139545000Y-76232000D02*
X139545000Y-75025333D01*
X139425000Y-76232000D02*
X139425000Y-75025333D01*
X139305000Y-76232000D02*
X139305000Y-75025333D01*
X139185000Y-76232000D02*
X139185000Y-75025333D01*
X139065000Y-72612000D02*
X139065000Y-76232000D01*
X140335000Y-72612000D02*
X139065000Y-72612000D01*
X140335000Y-76232000D02*
X140335000Y-72612000D01*
X139065000Y-76232000D02*
X140335000Y-76232000D01*
X136525000Y-75025333D02*
X137795000Y-75025333D01*
X137725000Y-76232000D02*
X137725000Y-75025333D01*
X137605000Y-76232000D02*
X137605000Y-75025333D01*
X137485000Y-76232000D02*
X137485000Y-75025333D01*
X137365000Y-76232000D02*
X137365000Y-75025333D01*
X137245000Y-76232000D02*
X137245000Y-75025333D01*
X137125000Y-76232000D02*
X137125000Y-75025333D01*
X137005000Y-76232000D02*
X137005000Y-75025333D01*
X136885000Y-76232000D02*
X136885000Y-75025333D01*
X136765000Y-76232000D02*
X136765000Y-75025333D01*
X136645000Y-76232000D02*
X136645000Y-75025333D01*
X136525000Y-72612000D02*
X136525000Y-76232000D01*
X137795000Y-72612000D02*
X136525000Y-72612000D01*
X137795000Y-76232000D02*
X137795000Y-72612000D01*
X136525000Y-76232000D02*
X137795000Y-76232000D01*
X133985000Y-75025333D02*
X135255000Y-75025333D01*
X135185000Y-76232000D02*
X135185000Y-75025333D01*
X135065000Y-76232000D02*
X135065000Y-75025333D01*
X134945000Y-76232000D02*
X134945000Y-75025333D01*
X134825000Y-76232000D02*
X134825000Y-75025333D01*
X134705000Y-76232000D02*
X134705000Y-75025333D01*
X134585000Y-76232000D02*
X134585000Y-75025333D01*
X134465000Y-76232000D02*
X134465000Y-75025333D01*
X134345000Y-76232000D02*
X134345000Y-75025333D01*
X134225000Y-76232000D02*
X134225000Y-75025333D01*
X134105000Y-76232000D02*
X134105000Y-75025333D01*
X133985000Y-72612000D02*
X133985000Y-76232000D01*
X135255000Y-72612000D02*
X133985000Y-72612000D01*
X135255000Y-76232000D02*
X135255000Y-72612000D01*
X133985000Y-76232000D02*
X135255000Y-76232000D01*
X132270000Y-78072000D02*
X133580000Y-78072000D01*
X132270000Y-78072000D02*
X132270000Y-76689000D01*
X135610000Y-71011000D02*
X136171000Y-71011000D01*
X132510000Y-71011000D02*
X133630000Y-71011000D01*
X138150000Y-71011000D02*
X138711000Y-71011000D01*
X140690000Y-71011000D02*
X141251000Y-71011000D01*
X143230000Y-71011000D02*
X144350000Y-71011000D01*
X143230000Y-77832000D02*
X144350000Y-77832000D01*
X140690000Y-77832000D02*
X141251000Y-77832000D01*
X138150000Y-77832000D02*
X138711000Y-77832000D01*
X135660000Y-77832000D02*
X136171000Y-77832000D01*
X132510000Y-77832000D02*
X133580000Y-77832000D01*
X144350000Y-77832000D02*
X144350000Y-71011000D01*
X132510000Y-77832000D02*
X132510000Y-71011000D01*
X106791000Y-72175000D02*
X111291000Y-72175000D01*
X105541000Y-68175000D02*
X105541000Y-69675000D01*
X111291000Y-65675000D02*
X106791000Y-65675000D01*
X112541000Y-69675000D02*
X112541000Y-68175000D01*
X151306000Y-110852000D02*
X151306000Y-104031000D01*
X158066000Y-110852000D02*
X158066000Y-104031000D01*
X151306000Y-110852000D02*
X152376000Y-110852000D01*
X154456000Y-110852000D02*
X154967000Y-110852000D01*
X156946000Y-110852000D02*
X158066000Y-110852000D01*
X156946000Y-104031000D02*
X158066000Y-104031000D01*
X151306000Y-104031000D02*
X152426000Y-104031000D01*
X154406000Y-104031000D02*
X154967000Y-104031000D01*
X151066000Y-111092000D02*
X151066000Y-109709000D01*
X151066000Y-111092000D02*
X152376000Y-111092000D01*
X152781000Y-109252000D02*
X154051000Y-109252000D01*
X154051000Y-109252000D02*
X154051000Y-105632000D01*
X154051000Y-105632000D02*
X152781000Y-105632000D01*
X152781000Y-105632000D02*
X152781000Y-109252000D01*
X152901000Y-109252000D02*
X152901000Y-108045333D01*
X153021000Y-109252000D02*
X153021000Y-108045333D01*
X153141000Y-109252000D02*
X153141000Y-108045333D01*
X153261000Y-109252000D02*
X153261000Y-108045333D01*
X153381000Y-109252000D02*
X153381000Y-108045333D01*
X153501000Y-109252000D02*
X153501000Y-108045333D01*
X153621000Y-109252000D02*
X153621000Y-108045333D01*
X153741000Y-109252000D02*
X153741000Y-108045333D01*
X153861000Y-109252000D02*
X153861000Y-108045333D01*
X153981000Y-109252000D02*
X153981000Y-108045333D01*
X152781000Y-108045333D02*
X154051000Y-108045333D01*
X155321000Y-109252000D02*
X156591000Y-109252000D01*
X156591000Y-109252000D02*
X156591000Y-105632000D01*
X156591000Y-105632000D02*
X155321000Y-105632000D01*
X155321000Y-105632000D02*
X155321000Y-109252000D01*
X155441000Y-109252000D02*
X155441000Y-108045333D01*
X155561000Y-109252000D02*
X155561000Y-108045333D01*
X155681000Y-109252000D02*
X155681000Y-108045333D01*
X155801000Y-109252000D02*
X155801000Y-108045333D01*
X155921000Y-109252000D02*
X155921000Y-108045333D01*
X156041000Y-109252000D02*
X156041000Y-108045333D01*
X156161000Y-109252000D02*
X156161000Y-108045333D01*
X156281000Y-109252000D02*
X156281000Y-108045333D01*
X156401000Y-109252000D02*
X156401000Y-108045333D01*
X156521000Y-109252000D02*
X156521000Y-108045333D01*
X155321000Y-108045333D02*
X156591000Y-108045333D01*
D10*
X164346047Y-85145571D02*
X164488904Y-85193190D01*
X164536523Y-85240809D01*
X164584142Y-85336047D01*
X164584142Y-85478904D01*
X164536523Y-85574142D01*
X164488904Y-85621761D01*
X164393666Y-85669380D01*
X164012714Y-85669380D01*
X164012714Y-84669380D01*
X164346047Y-84669380D01*
X164441285Y-84717000D01*
X164488904Y-84764619D01*
X164536523Y-84859857D01*
X164536523Y-84955095D01*
X164488904Y-85050333D01*
X164441285Y-85097952D01*
X164346047Y-85145571D01*
X164012714Y-85145571D01*
X164917476Y-84669380D02*
X165584142Y-84669380D01*
X164917476Y-85669380D01*
X165584142Y-85669380D01*
X166488904Y-85669380D02*
X165917476Y-85669380D01*
X166203190Y-85669380D02*
X166203190Y-84669380D01*
X166107952Y-84812238D01*
X166012714Y-84907476D01*
X165917476Y-84955095D01*
X168793047Y-85415428D02*
X169554952Y-85415428D01*
X169174000Y-85796380D02*
X169174000Y-85034476D01*
X106195904Y-101902380D02*
X106195904Y-100902380D01*
X106434000Y-100902380D01*
X106576857Y-100950000D01*
X106672095Y-101045238D01*
X106719714Y-101140476D01*
X106767333Y-101330952D01*
X106767333Y-101473809D01*
X106719714Y-101664285D01*
X106672095Y-101759523D01*
X106576857Y-101854761D01*
X106434000Y-101902380D01*
X106195904Y-101902380D01*
X107719714Y-101902380D02*
X107148285Y-101902380D01*
X107434000Y-101902380D02*
X107434000Y-100902380D01*
X107338761Y-101045238D01*
X107243523Y-101140476D01*
X107148285Y-101188095D01*
X106195904Y-94028380D02*
X106195904Y-93028380D01*
X106434000Y-93028380D01*
X106576857Y-93076000D01*
X106672095Y-93171238D01*
X106719714Y-93266476D01*
X106767333Y-93456952D01*
X106767333Y-93599809D01*
X106719714Y-93790285D01*
X106672095Y-93885523D01*
X106576857Y-93980761D01*
X106434000Y-94028380D01*
X106195904Y-94028380D01*
X107148285Y-93123619D02*
X107195904Y-93076000D01*
X107291142Y-93028380D01*
X107529238Y-93028380D01*
X107624476Y-93076000D01*
X107672095Y-93123619D01*
X107719714Y-93218857D01*
X107719714Y-93314095D01*
X107672095Y-93456952D01*
X107100666Y-94028380D01*
X107719714Y-94028380D01*
X106195904Y-85900380D02*
X106195904Y-84900380D01*
X106434000Y-84900380D01*
X106576857Y-84948000D01*
X106672095Y-85043238D01*
X106719714Y-85138476D01*
X106767333Y-85328952D01*
X106767333Y-85471809D01*
X106719714Y-85662285D01*
X106672095Y-85757523D01*
X106576857Y-85852761D01*
X106434000Y-85900380D01*
X106195904Y-85900380D01*
X107100666Y-84900380D02*
X107719714Y-84900380D01*
X107386380Y-85281333D01*
X107529238Y-85281333D01*
X107624476Y-85328952D01*
X107672095Y-85376571D01*
X107719714Y-85471809D01*
X107719714Y-85709904D01*
X107672095Y-85805142D01*
X107624476Y-85852761D01*
X107529238Y-85900380D01*
X107243523Y-85900380D01*
X107148285Y-85852761D01*
X107100666Y-85805142D01*
X103568380Y-114276095D02*
X102568380Y-114276095D01*
X102568380Y-114038000D01*
X102616000Y-113895142D01*
X102711238Y-113799904D01*
X102806476Y-113752285D01*
X102996952Y-113704666D01*
X103139809Y-113704666D01*
X103330285Y-113752285D01*
X103425523Y-113799904D01*
X103520761Y-113895142D01*
X103568380Y-114038000D01*
X103568380Y-114276095D01*
X102901714Y-112847523D02*
X103568380Y-112847523D01*
X102520761Y-113085619D02*
X103235047Y-113323714D01*
X103235047Y-112704666D01*
X132699380Y-99520333D02*
X133413666Y-99520333D01*
X133556523Y-99567952D01*
X133651761Y-99663190D01*
X133699380Y-99806047D01*
X133699380Y-99901285D01*
X133699380Y-98520333D02*
X133699380Y-99091761D01*
X133699380Y-98806047D02*
X132699380Y-98806047D01*
X132842238Y-98901285D01*
X132937476Y-98996523D01*
X132985095Y-99091761D01*
X114538380Y-114633333D02*
X115252666Y-114633333D01*
X115395523Y-114680952D01*
X115490761Y-114776190D01*
X115538380Y-114919047D01*
X115538380Y-115014285D01*
X114633619Y-114204761D02*
X114586000Y-114157142D01*
X114538380Y-114061904D01*
X114538380Y-113823809D01*
X114586000Y-113728571D01*
X114633619Y-113680952D01*
X114728857Y-113633333D01*
X114824095Y-113633333D01*
X114966952Y-113680952D01*
X115538380Y-114252380D01*
X115538380Y-113633333D01*
X164806333Y-91638380D02*
X164473000Y-91162190D01*
X164234904Y-91638380D02*
X164234904Y-90638380D01*
X164615857Y-90638380D01*
X164711095Y-90686000D01*
X164758714Y-90733619D01*
X164806333Y-90828857D01*
X164806333Y-90971714D01*
X164758714Y-91066952D01*
X164711095Y-91114571D01*
X164615857Y-91162190D01*
X164234904Y-91162190D01*
X165758714Y-91638380D02*
X165187285Y-91638380D01*
X165473000Y-91638380D02*
X165473000Y-90638380D01*
X165377761Y-90781238D01*
X165282523Y-90876476D01*
X165187285Y-90924095D01*
X114646380Y-69000666D02*
X114170190Y-69334000D01*
X114646380Y-69572095D02*
X113646380Y-69572095D01*
X113646380Y-69191142D01*
X113694000Y-69095904D01*
X113741619Y-69048285D01*
X113836857Y-69000666D01*
X113979714Y-69000666D01*
X114074952Y-69048285D01*
X114122571Y-69095904D01*
X114170190Y-69191142D01*
X114170190Y-69572095D01*
X113741619Y-68619714D02*
X113694000Y-68572095D01*
X113646380Y-68476857D01*
X113646380Y-68238761D01*
X113694000Y-68143523D01*
X113741619Y-68095904D01*
X113836857Y-68048285D01*
X113932095Y-68048285D01*
X114074952Y-68095904D01*
X114646380Y-68667333D01*
X114646380Y-68048285D01*
X164933333Y-102814380D02*
X164600000Y-102338190D01*
X164361904Y-102814380D02*
X164361904Y-101814380D01*
X164742857Y-101814380D01*
X164838095Y-101862000D01*
X164885714Y-101909619D01*
X164933333Y-102004857D01*
X164933333Y-102147714D01*
X164885714Y-102242952D01*
X164838095Y-102290571D01*
X164742857Y-102338190D01*
X164361904Y-102338190D01*
X165266666Y-101814380D02*
X165885714Y-101814380D01*
X165552380Y-102195333D01*
X165695238Y-102195333D01*
X165790476Y-102242952D01*
X165838095Y-102290571D01*
X165885714Y-102385809D01*
X165885714Y-102623904D01*
X165838095Y-102719142D01*
X165790476Y-102766761D01*
X165695238Y-102814380D01*
X165409523Y-102814380D01*
X165314285Y-102766761D01*
X165266666Y-102719142D01*
X165187333Y-99004380D02*
X164854000Y-98528190D01*
X164615904Y-99004380D02*
X164615904Y-98004380D01*
X164996857Y-98004380D01*
X165092095Y-98052000D01*
X165139714Y-98099619D01*
X165187333Y-98194857D01*
X165187333Y-98337714D01*
X165139714Y-98432952D01*
X165092095Y-98480571D01*
X164996857Y-98528190D01*
X164615904Y-98528190D01*
X166044476Y-98337714D02*
X166044476Y-99004380D01*
X165806380Y-97956761D02*
X165568285Y-98671047D01*
X166187333Y-98671047D01*
X117816333Y-96464380D02*
X117483000Y-95988190D01*
X117244904Y-96464380D02*
X117244904Y-95464380D01*
X117625857Y-95464380D01*
X117721095Y-95512000D01*
X117768714Y-95559619D01*
X117816333Y-95654857D01*
X117816333Y-95797714D01*
X117768714Y-95892952D01*
X117721095Y-95940571D01*
X117625857Y-95988190D01*
X117244904Y-95988190D01*
X118721095Y-95464380D02*
X118244904Y-95464380D01*
X118197285Y-95940571D01*
X118244904Y-95892952D01*
X118340142Y-95845333D01*
X118578238Y-95845333D01*
X118673476Y-95892952D01*
X118721095Y-95940571D01*
X118768714Y-96035809D01*
X118768714Y-96273904D01*
X118721095Y-96369142D01*
X118673476Y-96416761D01*
X118578238Y-96464380D01*
X118340142Y-96464380D01*
X118244904Y-96416761D01*
X118197285Y-96369142D01*
X117816333Y-93162380D02*
X117483000Y-92686190D01*
X117244904Y-93162380D02*
X117244904Y-92162380D01*
X117625857Y-92162380D01*
X117721095Y-92210000D01*
X117768714Y-92257619D01*
X117816333Y-92352857D01*
X117816333Y-92495714D01*
X117768714Y-92590952D01*
X117721095Y-92638571D01*
X117625857Y-92686190D01*
X117244904Y-92686190D01*
X118673476Y-92162380D02*
X118483000Y-92162380D01*
X118387761Y-92210000D01*
X118340142Y-92257619D01*
X118244904Y-92400476D01*
X118197285Y-92590952D01*
X118197285Y-92971904D01*
X118244904Y-93067142D01*
X118292523Y-93114761D01*
X118387761Y-93162380D01*
X118578238Y-93162380D01*
X118673476Y-93114761D01*
X118721095Y-93067142D01*
X118768714Y-92971904D01*
X118768714Y-92733809D01*
X118721095Y-92638571D01*
X118673476Y-92590952D01*
X118578238Y-92543333D01*
X118387761Y-92543333D01*
X118292523Y-92590952D01*
X118244904Y-92638571D01*
X118197285Y-92733809D01*
X117816333Y-89733380D02*
X117483000Y-89257190D01*
X117244904Y-89733380D02*
X117244904Y-88733380D01*
X117625857Y-88733380D01*
X117721095Y-88781000D01*
X117768714Y-88828619D01*
X117816333Y-88923857D01*
X117816333Y-89066714D01*
X117768714Y-89161952D01*
X117721095Y-89209571D01*
X117625857Y-89257190D01*
X117244904Y-89257190D01*
X118149666Y-88733380D02*
X118816333Y-88733380D01*
X118387761Y-89733380D01*
X164933333Y-95448380D02*
X164600000Y-94972190D01*
X164361904Y-95448380D02*
X164361904Y-94448380D01*
X164742857Y-94448380D01*
X164838095Y-94496000D01*
X164885714Y-94543619D01*
X164933333Y-94638857D01*
X164933333Y-94781714D01*
X164885714Y-94876952D01*
X164838095Y-94924571D01*
X164742857Y-94972190D01*
X164361904Y-94972190D01*
X165504761Y-94876952D02*
X165409523Y-94829333D01*
X165361904Y-94781714D01*
X165314285Y-94686476D01*
X165314285Y-94638857D01*
X165361904Y-94543619D01*
X165409523Y-94496000D01*
X165504761Y-94448380D01*
X165695238Y-94448380D01*
X165790476Y-94496000D01*
X165838095Y-94543619D01*
X165885714Y-94638857D01*
X165885714Y-94686476D01*
X165838095Y-94781714D01*
X165790476Y-94829333D01*
X165695238Y-94876952D01*
X165504761Y-94876952D01*
X165409523Y-94924571D01*
X165361904Y-94972190D01*
X165314285Y-95067428D01*
X165314285Y-95257904D01*
X165361904Y-95353142D01*
X165409523Y-95400761D01*
X165504761Y-95448380D01*
X165695238Y-95448380D01*
X165790476Y-95400761D01*
X165838095Y-95353142D01*
X165885714Y-95257904D01*
X165885714Y-95067428D01*
X165838095Y-94972190D01*
X165790476Y-94924571D01*
X165695238Y-94876952D01*
X117689333Y-106878380D02*
X117356000Y-106402190D01*
X117117904Y-106878380D02*
X117117904Y-105878380D01*
X117498857Y-105878380D01*
X117594095Y-105926000D01*
X117641714Y-105973619D01*
X117689333Y-106068857D01*
X117689333Y-106211714D01*
X117641714Y-106306952D01*
X117594095Y-106354571D01*
X117498857Y-106402190D01*
X117117904Y-106402190D01*
X118165523Y-106878380D02*
X118356000Y-106878380D01*
X118451238Y-106830761D01*
X118498857Y-106783142D01*
X118594095Y-106640285D01*
X118641714Y-106449809D01*
X118641714Y-106068857D01*
X118594095Y-105973619D01*
X118546476Y-105926000D01*
X118451238Y-105878380D01*
X118260761Y-105878380D01*
X118165523Y-105926000D01*
X118117904Y-105973619D01*
X118070285Y-106068857D01*
X118070285Y-106306952D01*
X118117904Y-106402190D01*
X118165523Y-106449809D01*
X118260761Y-106497428D01*
X118451238Y-106497428D01*
X118546476Y-106449809D01*
X118594095Y-106402190D01*
X118641714Y-106306952D01*
X117340142Y-100147380D02*
X117006809Y-99671190D01*
X116768714Y-100147380D02*
X116768714Y-99147380D01*
X117149666Y-99147380D01*
X117244904Y-99195000D01*
X117292523Y-99242619D01*
X117340142Y-99337857D01*
X117340142Y-99480714D01*
X117292523Y-99575952D01*
X117244904Y-99623571D01*
X117149666Y-99671190D01*
X116768714Y-99671190D01*
X118292523Y-100147380D02*
X117721095Y-100147380D01*
X118006809Y-100147380D02*
X118006809Y-99147380D01*
X117911571Y-99290238D01*
X117816333Y-99385476D01*
X117721095Y-99433095D01*
X118911571Y-99147380D02*
X119006809Y-99147380D01*
X119102047Y-99195000D01*
X119149666Y-99242619D01*
X119197285Y-99337857D01*
X119244904Y-99528333D01*
X119244904Y-99766428D01*
X119197285Y-99956904D01*
X119149666Y-100052142D01*
X119102047Y-100099761D01*
X119006809Y-100147380D01*
X118911571Y-100147380D01*
X118816333Y-100099761D01*
X118768714Y-100052142D01*
X118721095Y-99956904D01*
X118673476Y-99766428D01*
X118673476Y-99528333D01*
X118721095Y-99337857D01*
X118768714Y-99242619D01*
X118816333Y-99195000D01*
X118911571Y-99147380D01*
X117340142Y-103449380D02*
X117006809Y-102973190D01*
X116768714Y-103449380D02*
X116768714Y-102449380D01*
X117149666Y-102449380D01*
X117244904Y-102497000D01*
X117292523Y-102544619D01*
X117340142Y-102639857D01*
X117340142Y-102782714D01*
X117292523Y-102877952D01*
X117244904Y-102925571D01*
X117149666Y-102973190D01*
X116768714Y-102973190D01*
X118292523Y-103449380D02*
X117721095Y-103449380D01*
X118006809Y-103449380D02*
X118006809Y-102449380D01*
X117911571Y-102592238D01*
X117816333Y-102687476D01*
X117721095Y-102735095D01*
X119244904Y-103449380D02*
X118673476Y-103449380D01*
X118959190Y-103449380D02*
X118959190Y-102449380D01*
X118863952Y-102592238D01*
X118768714Y-102687476D01*
X118673476Y-102735095D01*
X114738380Y-80558238D02*
X114262190Y-80891571D01*
X114738380Y-81129666D02*
X113738380Y-81129666D01*
X113738380Y-80748714D01*
X113786000Y-80653476D01*
X113833619Y-80605857D01*
X113928857Y-80558238D01*
X114071714Y-80558238D01*
X114166952Y-80605857D01*
X114214571Y-80653476D01*
X114262190Y-80748714D01*
X114262190Y-81129666D01*
X113738380Y-80272523D02*
X114738380Y-79939190D01*
X113738380Y-79605857D01*
X114738380Y-78748714D02*
X114738380Y-79320142D01*
X114738380Y-79034428D02*
X113738380Y-79034428D01*
X113881238Y-79129666D01*
X113976476Y-79224904D01*
X114024095Y-79320142D01*
X131964666Y-102925761D02*
X132107523Y-102973380D01*
X132345619Y-102973380D01*
X132440857Y-102925761D01*
X132488476Y-102878142D01*
X132536095Y-102782904D01*
X132536095Y-102687666D01*
X132488476Y-102592428D01*
X132440857Y-102544809D01*
X132345619Y-102497190D01*
X132155142Y-102449571D01*
X132059904Y-102401952D01*
X132012285Y-102354333D01*
X131964666Y-102259095D01*
X131964666Y-102163857D01*
X132012285Y-102068619D01*
X132059904Y-102021000D01*
X132155142Y-101973380D01*
X132393238Y-101973380D01*
X132536095Y-102021000D01*
X132869428Y-101973380D02*
X133107523Y-102973380D01*
X133298000Y-102259095D01*
X133488476Y-102973380D01*
X133726571Y-101973380D01*
X134631333Y-102973380D02*
X134059904Y-102973380D01*
X134345619Y-102973380D02*
X134345619Y-101973380D01*
X134250380Y-102116238D01*
X134155142Y-102211476D01*
X134059904Y-102259095D01*
X143648666Y-102925761D02*
X143791523Y-102973380D01*
X144029619Y-102973380D01*
X144124857Y-102925761D01*
X144172476Y-102878142D01*
X144220095Y-102782904D01*
X144220095Y-102687666D01*
X144172476Y-102592428D01*
X144124857Y-102544809D01*
X144029619Y-102497190D01*
X143839142Y-102449571D01*
X143743904Y-102401952D01*
X143696285Y-102354333D01*
X143648666Y-102259095D01*
X143648666Y-102163857D01*
X143696285Y-102068619D01*
X143743904Y-102021000D01*
X143839142Y-101973380D01*
X144077238Y-101973380D01*
X144220095Y-102021000D01*
X144553428Y-101973380D02*
X144791523Y-102973380D01*
X144982000Y-102259095D01*
X145172476Y-102973380D01*
X145410571Y-101973380D01*
X145743904Y-102068619D02*
X145791523Y-102021000D01*
X145886761Y-101973380D01*
X146124857Y-101973380D01*
X146220095Y-102021000D01*
X146267714Y-102068619D01*
X146315333Y-102163857D01*
X146315333Y-102259095D01*
X146267714Y-102401952D01*
X145696285Y-102973380D01*
X146315333Y-102973380D01*
X146138761Y-75755333D02*
X146186380Y-75612476D01*
X146186380Y-75374380D01*
X146138761Y-75279142D01*
X146091142Y-75231523D01*
X145995904Y-75183904D01*
X145900666Y-75183904D01*
X145805428Y-75231523D01*
X145757809Y-75279142D01*
X145710190Y-75374380D01*
X145662571Y-75564857D01*
X145614952Y-75660095D01*
X145567333Y-75707714D01*
X145472095Y-75755333D01*
X145376857Y-75755333D01*
X145281619Y-75707714D01*
X145234000Y-75660095D01*
X145186380Y-75564857D01*
X145186380Y-75326761D01*
X145234000Y-75183904D01*
X145186380Y-74850571D02*
X146186380Y-74612476D01*
X145472095Y-74422000D01*
X146186380Y-74231523D01*
X145186380Y-73993428D01*
X145186380Y-73707714D02*
X145186380Y-73088666D01*
X145567333Y-73422000D01*
X145567333Y-73279142D01*
X145614952Y-73183904D01*
X145662571Y-73136285D01*
X145757809Y-73088666D01*
X145995904Y-73088666D01*
X146091142Y-73136285D01*
X146138761Y-73183904D01*
X146186380Y-73279142D01*
X146186380Y-73564857D01*
X146138761Y-73660095D01*
X146091142Y-73707714D01*
X131914761Y-75755333D02*
X131962380Y-75612476D01*
X131962380Y-75374380D01*
X131914761Y-75279142D01*
X131867142Y-75231523D01*
X131771904Y-75183904D01*
X131676666Y-75183904D01*
X131581428Y-75231523D01*
X131533809Y-75279142D01*
X131486190Y-75374380D01*
X131438571Y-75564857D01*
X131390952Y-75660095D01*
X131343333Y-75707714D01*
X131248095Y-75755333D01*
X131152857Y-75755333D01*
X131057619Y-75707714D01*
X131010000Y-75660095D01*
X130962380Y-75564857D01*
X130962380Y-75326761D01*
X131010000Y-75183904D01*
X130962380Y-74850571D02*
X131962380Y-74612476D01*
X131248095Y-74422000D01*
X131962380Y-74231523D01*
X130962380Y-73993428D01*
X131295714Y-73183904D02*
X131962380Y-73183904D01*
X130914761Y-73422000D02*
X131629047Y-73660095D01*
X131629047Y-73041047D01*
X107632666Y-68349761D02*
X107775523Y-68397380D01*
X108013619Y-68397380D01*
X108108857Y-68349761D01*
X108156476Y-68302142D01*
X108204095Y-68206904D01*
X108204095Y-68111666D01*
X108156476Y-68016428D01*
X108108857Y-67968809D01*
X108013619Y-67921190D01*
X107823142Y-67873571D01*
X107727904Y-67825952D01*
X107680285Y-67778333D01*
X107632666Y-67683095D01*
X107632666Y-67587857D01*
X107680285Y-67492619D01*
X107727904Y-67445000D01*
X107823142Y-67397380D01*
X108061238Y-67397380D01*
X108204095Y-67445000D01*
X108537428Y-67397380D02*
X108775523Y-68397380D01*
X108966000Y-67683095D01*
X109156476Y-68397380D01*
X109394571Y-67397380D01*
X110251714Y-67397380D02*
X109775523Y-67397380D01*
X109727904Y-67873571D01*
X109775523Y-67825952D01*
X109870761Y-67778333D01*
X110108857Y-67778333D01*
X110204095Y-67825952D01*
X110251714Y-67873571D01*
X110299333Y-67968809D01*
X110299333Y-68206904D01*
X110251714Y-68302142D01*
X110204095Y-68349761D01*
X110108857Y-68397380D01*
X109870761Y-68397380D01*
X109775523Y-68349761D01*
X109727904Y-68302142D01*
X150710761Y-108775333D02*
X150758380Y-108632476D01*
X150758380Y-108394380D01*
X150710761Y-108299142D01*
X150663142Y-108251523D01*
X150567904Y-108203904D01*
X150472666Y-108203904D01*
X150377428Y-108251523D01*
X150329809Y-108299142D01*
X150282190Y-108394380D01*
X150234571Y-108584857D01*
X150186952Y-108680095D01*
X150139333Y-108727714D01*
X150044095Y-108775333D01*
X149948857Y-108775333D01*
X149853619Y-108727714D01*
X149806000Y-108680095D01*
X149758380Y-108584857D01*
X149758380Y-108346761D01*
X149806000Y-108203904D01*
X149758380Y-107870571D02*
X150758380Y-107632476D01*
X150044095Y-107442000D01*
X150758380Y-107251523D01*
X149758380Y-107013428D01*
X149758380Y-106203904D02*
X149758380Y-106394380D01*
X149806000Y-106489619D01*
X149853619Y-106537238D01*
X149996476Y-106632476D01*
X150186952Y-106680095D01*
X150567904Y-106680095D01*
X150663142Y-106632476D01*
X150710761Y-106584857D01*
X150758380Y-106489619D01*
X150758380Y-106299142D01*
X150710761Y-106203904D01*
X150663142Y-106156285D01*
X150567904Y-106108666D01*
X150329809Y-106108666D01*
X150234571Y-106156285D01*
X150186952Y-106203904D01*
X150139333Y-106299142D01*
X150139333Y-106489619D01*
X150186952Y-106584857D01*
X150234571Y-106632476D01*
X150329809Y-106680095D01*
M02*
