G04 #@! TF.GenerationSoftware,KiCad,Pcbnew,(5.1.4-0-10_14)*
G04 #@! TF.CreationDate,2020-06-08T18:04:02+02:00*
G04 #@! TF.ProjectId,myShield,6d795368-6965-46c6-942e-6b696361645f,rev?*
G04 #@! TF.SameCoordinates,Original*
G04 #@! TF.FileFunction,Legend,Bot*
G04 #@! TF.FilePolarity,Positive*
%FSLAX46Y46*%
G04 Gerber Fmt 4.6, Leading zero omitted, Abs format (unit mm)*
G04 Created by KiCad (PCBNEW (5.1.4-0-10_14)) date 2020-06-08 18:04:02*
%MOMM*%
%LPD*%
G04 APERTURE LIST*
%ADD10C,0.120000*%
%ADD11C,0.150000*%
G04 APERTURE END LIST*
D10*
X171834000Y-79879000D02*
X171834000Y-112649000D01*
X171834000Y-112649000D02*
X169294000Y-115189000D01*
X169294000Y-115189000D02*
X169294000Y-117859000D01*
X169294000Y-117859000D02*
X102994000Y-117859000D01*
X102994000Y-117859000D02*
X102994000Y-114679000D01*
X102994000Y-114679000D02*
X101094000Y-114679000D01*
X101094000Y-114679000D02*
X101094000Y-105539000D01*
X101094000Y-105539000D02*
X102994000Y-105539000D01*
X102994000Y-105539000D02*
X102994000Y-85469000D01*
X102994000Y-85469000D02*
X96644000Y-85469000D01*
X96644000Y-85469000D02*
X96644000Y-73789000D01*
X96644000Y-73789000D02*
X102994000Y-73789000D01*
X102994000Y-73789000D02*
X102994000Y-64259000D01*
X102994000Y-64259000D02*
X167644000Y-64259000D01*
X167644000Y-64259000D02*
X169294000Y-65909000D01*
X169294000Y-65909000D02*
X169294000Y-77339000D01*
X169294000Y-77339000D02*
X171834000Y-79879000D01*
D11*
X133048285Y-119165666D02*
X132572095Y-119165666D01*
X133143523Y-119451380D02*
X132810190Y-118451380D01*
X132476857Y-119451380D01*
X131619714Y-119451380D02*
X132191142Y-119451380D01*
X131905428Y-119451380D02*
X131905428Y-118451380D01*
X132000666Y-118594238D01*
X132095904Y-118689476D01*
X132191142Y-118737095D01*
M02*
