G04 #@! TF.GenerationSoftware,KiCad,Pcbnew,(5.1.4-0-10_14)*
G04 #@! TF.CreationDate,2020-06-08T18:04:02+02:00*
G04 #@! TF.ProjectId,myShield,6d795368-6965-46c6-942e-6b696361645f,rev?*
G04 #@! TF.SameCoordinates,Original*
G04 #@! TF.FileFunction,Other,Fab,Bot*
%FSLAX46Y46*%
G04 Gerber Fmt 4.6, Leading zero omitted, Abs format (unit mm)*
G04 Created by KiCad (PCBNEW (5.1.4-0-10_14)) date 2020-06-08 18:04:02*
%MOMM*%
%LPD*%
G04 APERTURE LIST*
%ADD10C,0.100000*%
%ADD11C,0.150000*%
G04 APERTURE END LIST*
D10*
X96774000Y-85349000D02*
X112654000Y-85349000D01*
X112654000Y-85349000D02*
X112654000Y-73919000D01*
X112654000Y-73919000D02*
X96774000Y-73919000D01*
X96774000Y-73919000D02*
X96774000Y-85349000D01*
X101224000Y-114549000D02*
X114554000Y-114549000D01*
X114554000Y-114549000D02*
X114554000Y-105659000D01*
X114554000Y-105659000D02*
X101224000Y-105659000D01*
X101224000Y-105659000D02*
X101224000Y-114549000D01*
X169164000Y-77339000D02*
X169164000Y-65909000D01*
X171704000Y-112649000D02*
X171704000Y-79879000D01*
X171704000Y-79879000D02*
X169164000Y-77339000D01*
X169164000Y-117729000D02*
X169164000Y-115189000D01*
X169164000Y-115189000D02*
X171704000Y-112649000D01*
X169164000Y-65909000D02*
X167644000Y-64389000D01*
X167644000Y-64389000D02*
X103124000Y-64389000D01*
X103124000Y-64389000D02*
X103124000Y-117729000D01*
X103124000Y-117729000D02*
X169164000Y-117729000D01*
D11*
X136968761Y-92495666D02*
X136492571Y-92495666D01*
X137064000Y-92781380D02*
X136730666Y-91781380D01*
X136397333Y-92781380D01*
X136064000Y-92781380D02*
X136064000Y-92114714D01*
X136064000Y-92305190D02*
X136016380Y-92209952D01*
X135968761Y-92162333D01*
X135873523Y-92114714D01*
X135778285Y-92114714D01*
X135016380Y-92781380D02*
X135016380Y-91781380D01*
X135016380Y-92733761D02*
X135111619Y-92781380D01*
X135302095Y-92781380D01*
X135397333Y-92733761D01*
X135444952Y-92686142D01*
X135492571Y-92590904D01*
X135492571Y-92305190D01*
X135444952Y-92209952D01*
X135397333Y-92162333D01*
X135302095Y-92114714D01*
X135111619Y-92114714D01*
X135016380Y-92162333D01*
X134111619Y-92114714D02*
X134111619Y-92781380D01*
X134540190Y-92114714D02*
X134540190Y-92638523D01*
X134492571Y-92733761D01*
X134397333Y-92781380D01*
X134254476Y-92781380D01*
X134159238Y-92733761D01*
X134111619Y-92686142D01*
X133635428Y-92781380D02*
X133635428Y-92114714D01*
X133635428Y-91781380D02*
X133683047Y-91829000D01*
X133635428Y-91876619D01*
X133587809Y-91829000D01*
X133635428Y-91781380D01*
X133635428Y-91876619D01*
X133159238Y-92114714D02*
X133159238Y-92781380D01*
X133159238Y-92209952D02*
X133111619Y-92162333D01*
X133016380Y-92114714D01*
X132873523Y-92114714D01*
X132778285Y-92162333D01*
X132730666Y-92257571D01*
X132730666Y-92781380D01*
X132111619Y-92781380D02*
X132206857Y-92733761D01*
X132254476Y-92686142D01*
X132302095Y-92590904D01*
X132302095Y-92305190D01*
X132254476Y-92209952D01*
X132206857Y-92162333D01*
X132111619Y-92114714D01*
X131968761Y-92114714D01*
X131873523Y-92162333D01*
X131825904Y-92209952D01*
X131778285Y-92305190D01*
X131778285Y-92590904D01*
X131825904Y-92686142D01*
X131873523Y-92733761D01*
X131968761Y-92781380D01*
X132111619Y-92781380D01*
X131587809Y-92876619D02*
X130825904Y-92876619D01*
X130587809Y-91781380D02*
X130587809Y-92590904D01*
X130540190Y-92686142D01*
X130492571Y-92733761D01*
X130397333Y-92781380D01*
X130206857Y-92781380D01*
X130111619Y-92733761D01*
X130064000Y-92686142D01*
X130016380Y-92590904D01*
X130016380Y-91781380D01*
X129540190Y-92781380D02*
X129540190Y-91781380D01*
X128968761Y-92781380D01*
X128968761Y-91781380D01*
X128302095Y-91781380D02*
X128111619Y-91781380D01*
X128016380Y-91829000D01*
X127921142Y-91924238D01*
X127873523Y-92114714D01*
X127873523Y-92448047D01*
X127921142Y-92638523D01*
X128016380Y-92733761D01*
X128111619Y-92781380D01*
X128302095Y-92781380D01*
X128397333Y-92733761D01*
X128492571Y-92638523D01*
X128540190Y-92448047D01*
X128540190Y-92114714D01*
X128492571Y-91924238D01*
X128397333Y-91829000D01*
X128302095Y-91781380D01*
X127683047Y-92876619D02*
X126921142Y-92876619D01*
X126111619Y-92781380D02*
X126444952Y-92305190D01*
X126683047Y-92781380D02*
X126683047Y-91781380D01*
X126302095Y-91781380D01*
X126206857Y-91829000D01*
X126159238Y-91876619D01*
X126111619Y-91971857D01*
X126111619Y-92114714D01*
X126159238Y-92209952D01*
X126206857Y-92257571D01*
X126302095Y-92305190D01*
X126683047Y-92305190D01*
X125778285Y-91781380D02*
X125159238Y-91781380D01*
X125492571Y-92162333D01*
X125349714Y-92162333D01*
X125254476Y-92209952D01*
X125206857Y-92257571D01*
X125159238Y-92352809D01*
X125159238Y-92590904D01*
X125206857Y-92686142D01*
X125254476Y-92733761D01*
X125349714Y-92781380D01*
X125635428Y-92781380D01*
X125730666Y-92733761D01*
X125778285Y-92686142D01*
X131778285Y-95035666D02*
X131302095Y-95035666D01*
X131873523Y-95321380D02*
X131540190Y-94321380D01*
X131206857Y-95321380D01*
X130349714Y-95321380D02*
X130921142Y-95321380D01*
X130635428Y-95321380D02*
X130635428Y-94321380D01*
X130730666Y-94464238D01*
X130825904Y-94559476D01*
X130921142Y-94607095D01*
M02*
